#N canvas 238 34 874 638 10;
#X obj 42 202 tgl 15 0 empty empty empty 17 7 0 10 -232576 -159808
-1 0 1;
#X obj 60 202 tgl 15 0 empty empty empty 17 7 0 10 -232576 -159808
-1 0 127;
#X obj 78 202 tgl 15 0 empty empty empty 17 7 0 10 -232576 -159808
-1 0 1;
#X obj 96 202 tgl 15 0 empty empty empty 17 7 0 10 -232576 -159808
-1 0 127;
#X obj 114 202 tgl 15 0 empty empty empty 17 7 0 10 -232576 -159808
-1 0 1;
#X obj 132 202 tgl 15 0 empty empty empty 17 7 0 10 -232576 -159808
-1 0 127;
#X obj 150 202 tgl 15 0 empty empty empty 17 7 0 10 -232576 -159808
-1 0 1;
#X obj 168 202 tgl 15 0 empty empty empty 17 7 0 10 -232576 -159808
-1 0 127;
#X obj 186 202 tgl 15 0 empty empty empty 17 7 0 10 -232576 -159808
-1 0 1;
#X obj 204 202 tgl 15 0 empty empty empty 17 7 0 10 -232576 -159808
-1 0 127;
#X obj 222 202 tgl 15 0 empty empty empty 17 7 0 10 -232576 -159808
-1 0 1;
#X obj 240 202 tgl 15 0 empty empty empty 17 7 0 10 -232576 -159808
-1 0 127;
#X obj 258 202 tgl 15 0 empty empty empty 17 7 0 10 -232576 -159808
-1 0 1;
#X obj 276 202 tgl 15 0 empty empty empty 17 7 0 10 -232576 -159808
-1 0 127;
#X obj 294 202 tgl 15 0 empty empty empty 17 7 0 10 -232576 -159808
-1 0 1;
#X obj 312 202 tgl 15 0 empty empty empty 17 7 0 10 -232576 -159808
-1 0 127;
#X obj 39 65 vsl 15 128 0 127 0 0 empty empty empty 0 -9 0 10 -262144
-1 -1 0 1;
#X obj 58 65 vsl 15 128 0 127 0 0 empty empty empty 0 -9 0 10 -262144
-1 -1 0 1;
#X obj 76 65 vsl 15 128 0 127 0 0 empty empty empty 0 -9 0 10 -262144
-1 -1 0 1;
#X obj 94 65 vsl 15 128 0 127 0 0 empty empty empty 0 -9 0 10 -262144
-1 -1 0 1;
#X obj 112 65 vsl 15 128 0 127 0 0 empty empty empty 0 -9 0 10 -262144
-1 -1 0 1;
#X obj 130 65 vsl 15 128 0 127 0 0 empty empty empty 0 -9 0 10 -262144
-1 -1 0 1;
#X obj 148 65 vsl 15 128 0 127 0 0 empty empty empty 0 -9 0 10 -262144
-1 -1 0 1;
#X obj 167 65 vsl 15 128 0 127 0 0 empty empty empty 0 -9 0 10 -262144
-1 -1 0 1;
#X obj 185 65 vsl 15 128 0 127 0 0 empty empty empty 0 -9 0 10 -262144
-1 -1 0 1;
#X obj 203 65 vsl 15 128 0 127 0 0 empty empty empty 0 -9 0 10 -262144
-1 -1 0 1;
#X obj 221 65 vsl 15 128 0 127 0 0 empty empty empty 0 -9 0 10 -262144
-1 -1 0 1;
#X obj 239 65 vsl 15 128 0 127 0 0 empty empty empty 0 -9 0 10 -262144
-1 -1 0 1;
#X obj 257 65 vsl 15 128 0 127 0 0 empty empty empty 0 -9 0 10 -262144
-1 -1 0 1;
#X obj 275 65 vsl 15 128 0 127 0 0 empty empty empty 0 -9 0 10 -262144
-1 -1 0 1;
#X obj 293 65 vsl 15 128 0 127 0 0 empty empty empty 0 -9 0 10 -262144
-1 -1 0 1;
#X obj 311 65 vsl 15 128 0 127 0 0 empty empty empty 0 -9 0 10 -262144
-1 -1 0 1;
#X obj -117 243 spigot;
#X obj -107 253 spigot;
#X obj -97 263 spigot;
#X obj -87 273 spigot;
#X obj -77 283 spigot;
#X obj -67 293 spigot;
#X obj -57 303 spigot;
#X obj -47 313 spigot;
#X obj -37 323 spigot;
#X obj -27 333 spigot;
#X obj -17 343 spigot;
#X obj -7 353 spigot;
#X obj 3 363 spigot;
#X obj 13 373 spigot;
#X obj 23 383 spigot;
#X obj 33 393 spigot;
#X obj 15 37 tgl 15 0 empty empty empty 17 7 0 10 -232576 -1 -1 0 1
;
#X obj 45 37 tgl 15 0 empty empty empty 17 7 0 10 -232576 -1 -1 0 127
;
#X obj 77 37 tgl 15 0 empty empty empty 17 7 0 10 -232576 -1 -1 0 127
;
#X obj 109 37 tgl 15 0 empty empty empty 17 7 0 10 -232576 -1 -1 0
1;
#X obj 140 37 tgl 15 0 empty empty empty 17 7 0 10 -232576 -1 -1 0
1;
#X text 15 37 1x;
#X text 45 37 2x;
#X text 77 37 3x;
#X text 109 37 4x;
#X text 140 37 5x;
#X obj 15 65 vsl 15 128 0 127 0 0 empty empty empty 0 -9 0 10 -232576
-1 -1 0 1;
#X text 7 202 f_lck;
#X obj -146 481 outlet;
#X obj -106 481 outlet;
#X obj -66 481 outlet;
#X obj -26 481 outlet;
#X obj 14 481 outlet;
#X obj 54 481 outlet;
#X obj 94 481 outlet;
#X obj 134 481 outlet;
#X obj 170 481 outlet;
#X obj 210 481 outlet;
#X obj 250 481 outlet;
#X obj 290 481 outlet;
#X obj 330 481 outlet;
#X obj 370 481 outlet;
#X obj 410 481 outlet;
#X obj 450 481 outlet;
#X text -140 22 graph on parent size;
#X text -142 37 x:320 y:200;
#X connect 0 0 32 1;
#X connect 1 0 33 1;
#X connect 2 0 34 1;
#X connect 3 0 35 1;
#X connect 4 0 36 1;
#X connect 5 0 37 1;
#X connect 6 0 38 1;
#X connect 7 0 39 1;
#X connect 8 0 40 1;
#X connect 9 0 41 1;
#X connect 10 0 42 1;
#X connect 11 0 43 1;
#X connect 12 0 44 1;
#X connect 13 0 45 1;
#X connect 14 0 46 1;
#X connect 15 0 47 1;
#X connect 16 0 60 0;
#X connect 17 0 61 0;
#X connect 18 0 62 0;
#X connect 19 0 63 0;
#X connect 20 0 64 0;
#X connect 21 0 65 0;
#X connect 22 0 66 0;
#X connect 23 0 67 0;
#X connect 24 0 68 0;
#X connect 25 0 69 0;
#X connect 26 0 70 0;
#X connect 27 0 71 0;
#X connect 28 0 72 0;
#X connect 29 0 73 0;
#X connect 30 0 74 0;
#X connect 31 0 75 0;
#X connect 32 0 16 0;
#X connect 33 0 17 0;
#X connect 34 0 18 0;
#X connect 35 0 19 0;
#X connect 36 0 20 0;
#X connect 37 0 21 0;
#X connect 38 0 22 0;
#X connect 39 0 23 0;
#X connect 40 0 24 0;
#X connect 41 0 25 0;
#X connect 42 0 26 0;
#X connect 43 0 27 0;
#X connect 44 0 28 0;
#X connect 45 0 29 0;
#X connect 46 0 30 0;
#X connect 47 0 31 0;
#X connect 48 0 0 0;
#X connect 48 0 1 0;
#X connect 48 0 2 0;
#X connect 48 0 3 0;
#X connect 48 0 4 0;
#X connect 48 0 5 0;
#X connect 48 0 6 0;
#X connect 48 0 7 0;
#X connect 48 0 8 0;
#X connect 48 0 9 0;
#X connect 48 0 10 0;
#X connect 48 0 11 0;
#X connect 48 0 12 0;
#X connect 48 0 13 0;
#X connect 48 0 14 0;
#X connect 48 0 15 0;
#X connect 49 0 1 0;
#X connect 49 0 3 0;
#X connect 49 0 5 0;
#X connect 49 0 7 0;
#X connect 49 0 9 0;
#X connect 49 0 11 0;
#X connect 49 0 13 0;
#X connect 49 0 15 0;
#X connect 50 0 2 0;
#X connect 50 0 5 0;
#X connect 50 0 14 0;
#X connect 50 0 8 0;
#X connect 50 0 11 0;
#X connect 51 0 3 0;
#X connect 51 0 7 0;
#X connect 51 0 11 0;
#X connect 51 0 15 0;
#X connect 52 0 4 0;
#X connect 52 0 9 0;
#X connect 52 0 14 0;
#X connect 58 0 32 0;
#X connect 58 0 33 0;
#X connect 58 0 34 0;
#X connect 58 0 35 0;
#X connect 58 0 36 0;
#X connect 58 0 37 0;
#X connect 58 0 38 0;
#X connect 58 0 39 0;
#X connect 58 0 40 0;
#X connect 58 0 41 0;
#X connect 58 0 42 0;
#X connect 58 0 43 0;
#X connect 58 0 44 0;
#X connect 58 0 45 0;
#X connect 58 0 46 0;
#X connect 58 0 47 0;
#X coords 0 -1 1 1 320 200 1 10 20;
