#N canvas 379 24 877 634 10;
#N canvas 101 23 1104 751 pi_gutz 1;
#X obj -28 558 mtof;
#X obj -28 586 phasor~;
#X msg 21 86 \; pd dsp 1;
#X obj 21 14 loadbang;
#X obj 21 50 delay 100;
#X obj 89 67 print running;
#X obj 169 254 bng 25 250 50 0 empty empty empty 17 7 0 10 -260097
-257985 -1;
#X msg 19 544 0;
#X msg 203 377 \; pd dsp 1;
#X msg 123 376 \; pd dsp 0;
#X obj 569 102 loadbang;
#X msg 569 126 66;
#X obj -28 675 mtof;
#X obj -28 703 phasor~;
#X obj 229 253 bng 25 250 50 0 empty empty empty 17 7 0 10 -257985
-260097 -1;
#X msg 24 654 0;
#X obj 505 660 *~;
#X text 505 676 CH1;
#X text 539 676 CH2;
#X obj 264 253 hsl 150 25 0 1 0 0 empty empty empty -2 -8 0 10 -262144
-1 -1 14900 1;
#X obj 484 694 dac~ 1 2;
#X obj 539 660 *~;
#X text 195 257 RESET;
#X text 376 258 VOLUME;
#X obj 128 254 tgl 25 0 empty empty empty 17 7 0 10 -261234 -1 -1 0
1;
#X obj 128 347 sel 1;
#X text 131 258 I/0;
#X text 25 70 DSP togg;
#X floatatom 742 89 3 0 0 0 - - -, f 3;
#X obj 697 37 notein;
#X obj 697 63 stripnote;
#X floatatom 697 88 3 0 0 0 - - -, f 3;
#X text 697 13 MIDI IN;
#X floatatom 820 88 3 0 0 0 - - -, f 3;
#X floatatom 790 87 3 0 0 0 - - -, f 3;
#X obj 790 62 ctlin;
#X obj 697 108 bng 20 250 50 0 empty empty empty 17 7 0 10 -262144
-1 -1;
#X obj 790 109 bng 20 250 50 0 empty empty empty 17 7 0 10 -262144
-1 -1;
#X text 903 218 togg: 36-51;
#X floatatom 692 188 0 0 0 0 - - -;
#X floatatom 656 188 0 0 0 0 - - -;
#X text 849 188 DRUM: ch4 note 36-50;
#X text 819 203 CTRL: cc ch1 knobz: 16-31;
#X obj 90 512 noise~;
#X obj 147 512 line~;
#X obj 90 566 *~;
#X obj 90 619 *~ 0;
#X obj 111 588 range 0 127 0 1;
#X obj 656 162 notein 4;
#X obj 656 227 pack f f;
#X msg 148 484 0 \, 100 15;
#X obj 701 488 *~ 0;
#X obj 700 436 osc~;
#X obj 700 408 line~;
#X obj 722 356 route 36;
#X obj 144 450 route 44;
#X obj 722 461 range 0 127 0 1;
#X msg 700 385 666 \, 50 200;
#X connect 0 0 1 0;
#X connect 1 0 16 0;
#X connect 3 0 4 0;
#X connect 4 0 2 0;
#X connect 4 0 5 0;
#X connect 6 0 7 0;
#X connect 7 0 1 0;
#X connect 7 0 1 1;
#X connect 10 0 11 0;
#X connect 12 0 13 0;
#X connect 13 0 21 0;
#X connect 14 0 15 0;
#X connect 15 0 13 0;
#X connect 15 0 13 1;
#X connect 16 0 20 0;
#X connect 19 0 16 1;
#X connect 19 0 21 1;
#X connect 21 0 20 1;
#X connect 24 0 25 0;
#X connect 25 0 9 0;
#X connect 25 1 8 0;
#X connect 29 0 30 0;
#X connect 29 1 30 1;
#X connect 30 0 31 0;
#X connect 30 1 28 0;
#X connect 31 0 36 0;
#X connect 34 0 37 0;
#X connect 35 0 34 0;
#X connect 35 1 33 0;
#X connect 43 0 45 0;
#X connect 44 0 45 1;
#X connect 45 0 46 0;
#X connect 46 0 16 0;
#X connect 46 0 21 0;
#X connect 47 0 46 1;
#X connect 48 0 40 0;
#X connect 48 0 49 0;
#X connect 48 1 39 0;
#X connect 48 1 49 1;
#X connect 49 0 55 0;
#X connect 49 0 54 0;
#X connect 50 0 44 0;
#X connect 51 0 16 0;
#X connect 51 0 21 0;
#X connect 52 0 51 0;
#X connect 53 0 52 0;
#X connect 54 0 56 0;
#X connect 54 0 57 0;
#X connect 55 0 47 0;
#X connect 55 0 50 0;
#X connect 56 0 51 1;
#X connect 57 0 53 0;
#X coords 0 -1 1 1 320 240 1 100 100;
#X restore 16 21 pd pi_gutz;
