#N canvas 0 23 450 300 10;
#X obj 280 120 *~;
#X obj 278 79 hsl 128 15 0 2 0 0 empty empty empty -2 -8 0 10 -262144
-1 -1 0 1;
#X obj 146 57 adc~;
#X obj 256 176 dac~;
#X connect 0 0 3 0;
#X connect 0 0 3 1;
#X connect 1 0 0 1;
#X connect 2 0 0 0;
#X connect 2 1 0 0;
