#N canvas 92 198 450 300 10;
#X obj 26 126 gemwin;
#X msg 5 7 create \, 1;
#X msg 28 30 destroy;
#X msg 40 52 dimen 800 600;
#X obj 250 49 gemhead;
#X obj 252 96 pix_video;
#X msg 328 45 dialog;
#X obj 262 161 pix_texture;
#X obj 276 214 rectangle 4 3;
#X connect 1 0 0 0;
#X connect 2 0 0 0;
#X connect 3 0 0 0;
#X connect 4 0 5 0;
#X connect 5 0 7 0;
#X connect 6 0 5 0;
#X connect 7 0 8 0;
