#N canvas 803 22 474 710 10;
#X obj 4 144 uDMX-8ch;
#X obj 3 -329 nbx 5 14 -1e+37 1e+37 0 0 empty empty empty 0 -8 0 10
-262144 -1 -1 100 256;
#X obj 413 -368 tgl 15 0 empty empty empty 17 7 0 10 -262144 -1 -1
0 127;
#X obj 3 -308 maxlib/scale 0 100 0 255 0;
#X obj 40 -240 nbx 5 14 -1e+37 1e+37 0 0 empty empty empty 0 -8 0 10
-262144 -1 -1 0 256;
#X obj 40 -219 maxlib/scale 0 100 0 255 0;
#X obj 77 -146 nbx 5 14 -1e+37 1e+37 0 0 empty empty empty 0 -8 0 10
-262144 -1 -1 0 256;
#X obj 77 -125 maxlib/scale 0 100 0 255 0;
#X obj 113 -101 nbx 5 14 -1e+37 1e+37 0 0 empty empty empty 0 -8 0
10 -262144 -1 -1 0 256;
#X obj 113 -80 maxlib/scale 0 100 0 255 0;
#X obj 150 -59 nbx 5 14 -1e+37 1e+37 0 0 empty empty empty 0 -8 0 10
-262144 -1 -1 0 256;
#X obj 150 -38 maxlib/scale 0 100 0 255 0;
#X obj 187 -14 nbx 5 14 -1e+37 1e+37 0 0 empty empty empty 0 -8 0 10
-262144 -1 -1 0 256;
#X obj 187 7 maxlib/scale 0 100 0 255 0;
#X obj 223 36 nbx 5 14 -1e+37 1e+37 0 0 empty empty empty 0 -8 0 10
-262144 -1 -1 0 256;
#X obj 223 57 maxlib/scale 0 100 0 255 0;
#X obj 260 81 nbx 5 14 -1e+37 1e+37 0 0 empty empty empty 0 -8 0 10
-262144 -1 -1 100 256;
#X obj 260 102 maxlib/scale 0 100 0 255 0;
#X obj 3 -413 ctlin 1;
#X obj 54 -413 ctlin 2;
#X obj 108 -413 ctlin 3;
#X obj 161 -413 ctlin 4;
#X obj 211 -413 ctlin 5;
#X obj 263 -413 ctlin 6;
#X obj 313 -413 ctlin 7;
#X obj 363 -413 ctlin 8;
#X obj 413 -413 ctlin 105;
#X obj 13 -371 r time_stepper_mod01;
#X obj 145 -371 r time_stepper_mod04;
#X obj 86 -192 r time_stepper_mod03;
#X obj 271 -372 r time_stepper_mod05;
#X obj 325 -321 r time_stepper_mod07;
#X obj 207 -271 r time_stepper_mod08;
#X obj 48 -286 r time_stepper_mod02;
#X obj 190 -321 r time_stepper_mod06;
#X obj 301 -150 s time_stepper_mod05;
#X obj 309 -121 s time_stepper_mod06;
#X obj 317 -96 s time_stepper_mod07;
#X obj 326 -65 s time_stepper_mod08;
#X obj 295 -172 s time_stepper_mod04;
#X obj 283 -189 s time_stepper_mod03;
#X obj 272 -210 s time_stepper_mod02;
#X obj 264 -234 s time_stepper_mod01;
#X obj 3 -391 ctlin 25;
#X obj 59 -391 ctlin 26;
#X obj 115 -391 ctlin 27;
#X obj 171 -391 ctlin 28;
#X obj 226 -391 ctlin 29;
#X obj 282 -391 ctlin 30;
#X obj 338 -391 ctlin 31;
#X obj 393 -391 ctlin 32;
#X obj 13 -351 * 1;
#X obj 145 -347 * 1;
#X obj 271 -349 * 1;
#X obj 325 -297 * 1;
#X obj 207 -247 * 1;
#X obj 190 -298 * 1;
#X obj 48 -265 * 1;
#X obj 86 -170 * 1;
#X connect 1 0 3 0;
#X connect 2 0 0 8;
#X connect 3 0 0 0;
#X connect 4 0 5 0;
#X connect 5 0 0 1;
#X connect 6 0 7 0;
#X connect 7 0 0 2;
#X connect 8 0 9 0;
#X connect 9 0 0 3;
#X connect 10 0 11 0;
#X connect 11 0 0 4;
#X connect 12 0 13 0;
#X connect 13 0 0 5;
#X connect 14 0 15 0;
#X connect 15 0 0 6;
#X connect 16 0 17 0;
#X connect 17 0 0 7;
#X connect 18 0 42 0;
#X connect 19 0 41 0;
#X connect 20 0 40 0;
#X connect 21 0 39 0;
#X connect 22 0 35 0;
#X connect 23 0 36 0;
#X connect 24 0 37 0;
#X connect 25 0 38 0;
#X connect 26 0 2 0;
#X connect 27 0 51 0;
#X connect 28 0 52 0;
#X connect 29 0 58 0;
#X connect 30 0 53 0;
#X connect 31 0 54 0;
#X connect 32 0 55 0;
#X connect 33 0 57 0;
#X connect 34 0 56 0;
#X connect 43 0 1 0;
#X connect 44 0 4 0;
#X connect 45 0 6 0;
#X connect 46 0 8 0;
#X connect 47 0 10 0;
#X connect 48 0 12 0;
#X connect 49 0 14 0;
#X connect 50 0 16 0;
#X connect 51 0 1 0;
#X connect 52 0 8 0;
#X connect 53 0 10 0;
#X connect 54 0 14 0;
#X connect 55 0 16 0;
#X connect 56 0 12 0;
#X connect 57 0 4 0;
#X connect 58 0 6 0;
