#N canvas 0 23 729 134 10;
#X obj 598 -308 bcr2k_ch2;
#N canvas 446 27 367 581 c2_gutz 0;
#X obj 163 -424 r bcr2k_ch2_82;
#X obj 212 -457 r bcr2k_ch2_90;
#X obj 264 -424 r bcr2k_ch2_98;
#X obj 7 -428 r bcr2k_ch2_66;
#X obj 82 -450 r bcr2k_ch2_74;
#X obj 33 -32 s bcr2k_ch2_2;
#X obj 124 -32 s hex0_2;
#X obj 102 -298 select 0;
#X obj 33 -155 line;
#X obj 148 -242 f;
#X obj 251 -219 pack f f;
#X obj 148 -209 pack f f;
#X obj 252 -255 f;
#X obj 212 -352 * 100;
#X obj 79 -350 spigot;
#X obj 32 -350 spigot;
#X obj 112 -392 == 0;
#X obj 124 -77 autoscale 0 256 0 100;
#X obj 2 16 nbx 5 14 -1e+37 1e+37 0 0 empty empty empty 0 -8 0 10 -262144
-1 -1 0 256;
#X obj 2 32 tgl 15 0 empty empty empty 17 7 0 10 -262144 -1 -1 0 127
;
#X obj 2 49 tgl 15 0 empty empty empty 17 7 0 10 -262144 -1 -1 0 127
;
#X obj 2 66 nbx 5 14 -1e+37 1e+37 0 0 empty empty empty 0 -8 0 10 -262144
-1 -1 0 256;
#X obj 2 82 nbx 5 14 -1e+37 1e+37 0 0 empty empty empty 0 -8 0 10 -262144
-1 -1 0 256;
#X obj 2 98 nbx 5 14 -1e+37 1e+37 0 0 empty empty empty 0 -8 0 10 -262144
-1 -1 0 256;
#X connect 0 0 15 0;
#X connect 0 0 9 1;
#X connect 0 0 21 0;
#X connect 1 0 13 0;
#X connect 1 0 22 0;
#X connect 2 0 14 0;
#X connect 2 0 12 1;
#X connect 2 0 23 0;
#X connect 3 0 16 0;
#X connect 3 0 7 0;
#X connect 3 0 19 0;
#X connect 4 0 20 0;
#X connect 7 0 12 0;
#X connect 7 1 9 0;
#X connect 8 0 17 0;
#X connect 8 0 5 0;
#X connect 9 0 11 0;
#X connect 10 0 8 0;
#X connect 11 0 8 0;
#X connect 12 0 10 0;
#X connect 13 0 10 1;
#X connect 13 0 11 1;
#X connect 14 0 8 0;
#X connect 15 0 8 0;
#X connect 16 0 14 1;
#X connect 17 0 6 0;
#X connect 17 0 18 0;
#X coords 0 -1 1 1 57 115 1 0 0;
#X restore 77 -329 pd c2_gutz;
#N canvas 446 27 367 581 c3_gutz 0;
#X obj 102 -298 select 0;
#X obj 33 -155 line;
#X obj 148 -242 f;
#X obj 251 -219 pack f f;
#X obj 148 -209 pack f f;
#X obj 252 -255 f;
#X obj 212 -352 * 100;
#X obj 79 -350 spigot;
#X obj 32 -350 spigot;
#X obj 112 -392 == 0;
#X obj 124 -77 autoscale 0 256 0 100;
#X obj 2 16 nbx 5 14 -1e+37 1e+37 0 0 empty empty empty 0 -8 0 10 -262144
-1 -1 0 256;
#X obj 2 32 tgl 15 0 empty empty empty 17 7 0 10 -262144 -1 -1 0 127
;
#X obj 2 49 tgl 15 0 empty empty empty 17 7 0 10 -262144 -1 -1 0 127
;
#X obj 2 66 nbx 5 14 -1e+37 1e+37 0 0 empty empty empty 0 -8 0 10 -262144
-1 -1 0 256;
#X obj 2 82 nbx 5 14 -1e+37 1e+37 0 0 empty empty empty 0 -8 0 10 -262144
-1 -1 0 256;
#X obj 2 98 nbx 5 14 -1e+37 1e+37 0 0 empty empty empty 0 -8 0 10 -262144
-1 -1 0 256;
#X obj 7 -428 r bcr2k_ch2_67;
#X obj 82 -450 r bcr2k_ch2_75;
#X obj 212 -457 r bcr2k_ch2_91;
#X obj 163 -424 r bcr2k_ch2_83;
#X obj 264 -424 r bcr2k_ch2_99;
#X obj 33 -32 s bcr2k_ch2_3;
#X obj 124 -32 s hex0_3;
#X connect 0 0 5 0;
#X connect 0 1 2 0;
#X connect 1 0 10 0;
#X connect 1 0 22 0;
#X connect 2 0 4 0;
#X connect 3 0 1 0;
#X connect 4 0 1 0;
#X connect 5 0 3 0;
#X connect 6 0 3 1;
#X connect 6 0 4 1;
#X connect 7 0 1 0;
#X connect 8 0 1 0;
#X connect 9 0 7 1;
#X connect 10 0 11 0;
#X connect 10 0 23 0;
#X connect 17 0 9 0;
#X connect 17 0 0 0;
#X connect 17 0 12 0;
#X connect 18 0 13 0;
#X connect 19 0 6 0;
#X connect 19 0 15 0;
#X connect 20 0 8 0;
#X connect 20 0 2 1;
#X connect 20 0 14 0;
#X connect 21 0 7 0;
#X connect 21 0 5 1;
#X connect 21 0 16 0;
#X coords 0 -1 1 1 57 115 1 0 0;
#X restore 151 -329 pd c3_gutz;
#N canvas 446 27 367 581 c4_gutz 0;
#X obj 102 -298 select 0;
#X obj 33 -155 line;
#X obj 148 -242 f;
#X obj 251 -219 pack f f;
#X obj 148 -209 pack f f;
#X obj 252 -255 f;
#X obj 212 -352 * 100;
#X obj 79 -350 spigot;
#X obj 32 -350 spigot;
#X obj 112 -392 == 0;
#X obj 124 -77 autoscale 0 256 0 100;
#X obj 2 16 nbx 5 14 -1e+37 1e+37 0 0 empty empty empty 0 -8 0 10 -262144
-1 -1 0 256;
#X obj 2 32 tgl 15 0 empty empty empty 17 7 0 10 -262144 -1 -1 0 127
;
#X obj 2 49 tgl 15 0 empty empty empty 17 7 0 10 -262144 -1 -1 0 127
;
#X obj 2 66 nbx 5 14 -1e+37 1e+37 0 0 empty empty empty 0 -8 0 10 -262144
-1 -1 0 256;
#X obj 2 82 nbx 5 14 -1e+37 1e+37 0 0 empty empty empty 0 -8 0 10 -262144
-1 -1 0 256;
#X obj 2 98 nbx 5 14 -1e+37 1e+37 0 0 empty empty empty 0 -8 0 10 -262144
-1 -1 0 256;
#X obj 7 -428 r bcr2k_ch2_68;
#X obj 82 -450 r bcr2k_ch2_76;
#X obj 163 -424 r bcr2k_ch2_84;
#X obj 212 -457 r bcr2k_ch2_92;
#X obj 264 -424 r bcr2k_ch2_100;
#X obj 33 -32 s bcr2k_ch2_4;
#X obj 124 -32 s hex0_4;
#X connect 0 0 5 0;
#X connect 0 1 2 0;
#X connect 1 0 10 0;
#X connect 1 0 22 0;
#X connect 2 0 4 0;
#X connect 3 0 1 0;
#X connect 4 0 1 0;
#X connect 5 0 3 0;
#X connect 6 0 3 1;
#X connect 6 0 4 1;
#X connect 7 0 1 0;
#X connect 8 0 1 0;
#X connect 9 0 7 1;
#X connect 10 0 11 0;
#X connect 10 0 23 0;
#X connect 17 0 9 0;
#X connect 17 0 0 0;
#X connect 17 0 12 0;
#X connect 18 0 13 0;
#X connect 19 0 8 0;
#X connect 19 0 2 1;
#X connect 19 0 14 0;
#X connect 20 0 6 0;
#X connect 20 0 15 0;
#X connect 21 0 7 0;
#X connect 21 0 5 1;
#X connect 21 0 16 0;
#X coords 0 -1 1 1 57 115 1 0 0;
#X restore 225 -329 pd c4_gutz;
#N canvas 446 27 367 581 c5_gutz 0;
#X obj 102 -298 select 0;
#X obj 33 -155 line;
#X obj 148 -242 f;
#X obj 251 -219 pack f f;
#X obj 148 -209 pack f f;
#X obj 252 -255 f;
#X obj 212 -352 * 100;
#X obj 79 -350 spigot;
#X obj 32 -350 spigot;
#X obj 112 -392 == 0;
#X obj 124 -77 autoscale 0 256 0 100;
#X obj 2 16 nbx 5 14 -1e+37 1e+37 0 0 empty empty empty 0 -8 0 10 -262144
-1 -1 0 256;
#X obj 2 32 tgl 15 0 empty empty empty 17 7 0 10 -262144 -1 -1 0 127
;
#X obj 2 49 tgl 15 0 empty empty empty 17 7 0 10 -262144 -1 -1 0 127
;
#X obj 2 66 nbx 5 14 -1e+37 1e+37 0 0 empty empty empty 0 -8 0 10 -262144
-1 -1 0 256;
#X obj 2 82 nbx 5 14 -1e+37 1e+37 0 0 empty empty empty 0 -8 0 10 -262144
-1 -1 0 256;
#X obj 2 98 nbx 5 14 -1e+37 1e+37 0 0 empty empty empty 0 -8 0 10 -262144
-1 -1 0 256;
#X obj 7 -428 r bcr2k_ch2_69;
#X obj 82 -450 r bcr2k_ch2_77;
#X obj 163 -424 r bcr2k_ch2_85;
#X obj 212 -457 r bcr2k_ch2_93;
#X obj 264 -424 r bcr2k_ch2_101;
#X obj 33 -32 s bcr2k_ch2_5;
#X obj 124 -32 s hex0_5;
#X connect 0 0 5 0;
#X connect 0 1 2 0;
#X connect 1 0 10 0;
#X connect 1 0 22 0;
#X connect 2 0 4 0;
#X connect 3 0 1 0;
#X connect 4 0 1 0;
#X connect 5 0 3 0;
#X connect 6 0 3 1;
#X connect 6 0 4 1;
#X connect 7 0 1 0;
#X connect 8 0 1 0;
#X connect 9 0 7 1;
#X connect 10 0 11 0;
#X connect 10 0 23 0;
#X connect 17 0 9 0;
#X connect 17 0 0 0;
#X connect 17 0 12 0;
#X connect 18 0 13 0;
#X connect 19 0 8 0;
#X connect 19 0 2 1;
#X connect 19 0 14 0;
#X connect 20 0 6 0;
#X connect 20 0 15 0;
#X connect 21 0 7 0;
#X connect 21 0 5 1;
#X connect 21 0 16 0;
#X coords 0 -1 1 1 57 115 1 0 0;
#X restore 299 -329 pd c5_gutz;
#N canvas 446 27 367 581 c6_gutz 0;
#X obj 102 -298 select 0;
#X obj 33 -155 line;
#X obj 148 -242 f;
#X obj 251 -219 pack f f;
#X obj 148 -209 pack f f;
#X obj 252 -255 f;
#X obj 212 -352 * 100;
#X obj 79 -350 spigot;
#X obj 32 -350 spigot;
#X obj 112 -392 == 0;
#X obj 124 -77 autoscale 0 256 0 100;
#X obj 2 16 nbx 5 14 -1e+37 1e+37 0 0 empty empty empty 0 -8 0 10 -262144
-1 -1 0 256;
#X obj 2 32 tgl 15 0 empty empty empty 17 7 0 10 -262144 -1 -1 0 127
;
#X obj 2 49 tgl 15 0 empty empty empty 17 7 0 10 -262144 -1 -1 0 127
;
#X obj 2 66 nbx 5 14 -1e+37 1e+37 0 0 empty empty empty 0 -8 0 10 -262144
-1 -1 0 256;
#X obj 2 82 nbx 5 14 -1e+37 1e+37 0 0 empty empty empty 0 -8 0 10 -262144
-1 -1 0 256;
#X obj 2 98 nbx 5 14 -1e+37 1e+37 0 0 empty empty empty 0 -8 0 10 -262144
-1 -1 0 256;
#X obj 7 -428 r bcr2k_ch2_70;
#X obj 82 -450 r bcr2k_ch2_78;
#X obj 163 -424 r bcr2k_ch2_86;
#X obj 212 -457 r bcr2k_ch2_94;
#X obj 264 -424 r bcr2k_ch2_102;
#X obj 33 -32 s bcr2k_ch2_6;
#X obj 124 -32 s hex0_6;
#X connect 0 0 5 0;
#X connect 0 1 2 0;
#X connect 1 0 10 0;
#X connect 1 0 22 0;
#X connect 2 0 4 0;
#X connect 3 0 1 0;
#X connect 4 0 1 0;
#X connect 5 0 3 0;
#X connect 6 0 3 1;
#X connect 6 0 4 1;
#X connect 7 0 1 0;
#X connect 8 0 1 0;
#X connect 9 0 7 1;
#X connect 10 0 11 0;
#X connect 10 0 23 0;
#X connect 17 0 9 0;
#X connect 17 0 0 0;
#X connect 17 0 12 0;
#X connect 18 0 13 0;
#X connect 19 0 8 0;
#X connect 19 0 2 1;
#X connect 19 0 14 0;
#X connect 20 0 6 0;
#X connect 20 0 15 0;
#X connect 21 0 7 0;
#X connect 21 0 5 1;
#X connect 21 0 16 0;
#X coords 0 -1 1 1 57 115 1 0 0;
#X restore 373 -329 pd c6_gutz;
#N canvas 446 27 367 581 c7_gutz 0;
#X obj 102 -298 select 0;
#X obj 33 -155 line;
#X obj 148 -242 f;
#X obj 251 -219 pack f f;
#X obj 148 -209 pack f f;
#X obj 252 -255 f;
#X obj 212 -352 * 100;
#X obj 79 -350 spigot;
#X obj 32 -350 spigot;
#X obj 112 -392 == 0;
#X obj 124 -77 autoscale 0 256 0 100;
#X obj 2 16 nbx 5 14 -1e+37 1e+37 0 0 empty empty empty 0 -8 0 10 -262144
-1 -1 0 256;
#X obj 2 32 tgl 15 0 empty empty empty 17 7 0 10 -262144 -1 -1 0 127
;
#X obj 2 49 tgl 15 0 empty empty empty 17 7 0 10 -262144 -1 -1 0 127
;
#X obj 2 66 nbx 5 14 -1e+37 1e+37 0 0 empty empty empty 0 -8 0 10 -262144
-1 -1 0 256;
#X obj 2 82 nbx 5 14 -1e+37 1e+37 0 0 empty empty empty 0 -8 0 10 -262144
-1 -1 0 256;
#X obj 2 98 nbx 5 14 -1e+37 1e+37 0 0 empty empty empty 0 -8 0 10 -262144
-1 -1 0 256;
#X obj 7 -428 r bcr2k_ch2_71;
#X obj 82 -450 r bcr2k_ch2_79;
#X obj 212 -457 r bcr2k_ch2_95;
#X obj 264 -424 r bcr2k_ch2_103;
#X obj 33 -32 s bcr2k_ch2_7;
#X obj 124 -32 s hex0_7;
#X obj 163 -424 r bcr2k_ch2_87;
#X connect 0 0 5 0;
#X connect 0 1 2 0;
#X connect 1 0 10 0;
#X connect 1 0 21 0;
#X connect 2 0 4 0;
#X connect 3 0 1 0;
#X connect 4 0 1 0;
#X connect 5 0 3 0;
#X connect 6 0 3 1;
#X connect 6 0 4 1;
#X connect 7 0 1 0;
#X connect 8 0 1 0;
#X connect 9 0 7 1;
#X connect 10 0 11 0;
#X connect 10 0 22 0;
#X connect 17 0 9 0;
#X connect 17 0 0 0;
#X connect 17 0 12 0;
#X connect 18 0 13 0;
#X connect 19 0 6 0;
#X connect 19 0 15 0;
#X connect 20 0 7 0;
#X connect 20 0 5 1;
#X connect 20 0 16 0;
#X connect 23 0 8 0;
#X connect 23 0 2 1;
#X connect 23 0 14 0;
#X coords 0 -1 1 1 57 115 1 0 0;
#X restore 447 -329 pd c7_gutz;
#N canvas 446 27 367 581 c8_gutz 0;
#X obj 102 -298 select 0;
#X obj 33 -155 line;
#X obj 148 -242 f;
#X obj 251 -219 pack f f;
#X obj 148 -209 pack f f;
#X obj 252 -255 f;
#X obj 212 -352 * 100;
#X obj 79 -350 spigot;
#X obj 32 -350 spigot;
#X obj 112 -392 == 0;
#X obj 124 -77 autoscale 0 256 0 100;
#X obj 2 16 nbx 5 14 -1e+37 1e+37 0 0 empty empty empty 0 -8 0 10 -262144
-1 -1 0 256;
#X obj 2 32 tgl 15 0 empty empty empty 17 7 0 10 -262144 -1 -1 0 127
;
#X obj 2 49 tgl 15 0 empty empty empty 17 7 0 10 -262144 -1 -1 0 127
;
#X obj 2 66 nbx 5 14 -1e+37 1e+37 0 0 empty empty empty 0 -8 0 10 -262144
-1 -1 0 256;
#X obj 2 82 nbx 5 14 -1e+37 1e+37 0 0 empty empty empty 0 -8 0 10 -262144
-1 -1 0 256;
#X obj 2 98 nbx 5 14 -1e+37 1e+37 0 0 empty empty empty 0 -8 0 10 -262144
-1 -1 0 256;
#X obj 33 -32 s bcr2k_ch2_7;
#X obj 124 -32 s hex0_7;
#X obj 7 -428 r bcr2k_ch2_72;
#X obj 82 -450 r bcr2k_ch2_80;
#X obj 212 -457 r bcr2k_ch2_96;
#X obj 163 -424 r bcr2k_ch2_88;
#X obj 264 -424 r bcr2k_ch2_104;
#X connect 0 0 5 0;
#X connect 0 1 2 0;
#X connect 1 0 10 0;
#X connect 1 0 17 0;
#X connect 2 0 4 0;
#X connect 3 0 1 0;
#X connect 4 0 1 0;
#X connect 5 0 3 0;
#X connect 6 0 3 1;
#X connect 6 0 4 1;
#X connect 7 0 1 0;
#X connect 8 0 1 0;
#X connect 9 0 7 1;
#X connect 10 0 11 0;
#X connect 10 0 18 0;
#X connect 19 0 9 0;
#X connect 19 0 0 0;
#X connect 19 0 12 0;
#X connect 20 0 13 0;
#X connect 21 0 6 0;
#X connect 21 0 15 0;
#X connect 22 0 8 0;
#X connect 22 0 2 1;
#X connect 22 0 14 0;
#X connect 23 0 7 0;
#X connect 23 0 5 1;
#X connect 23 0 16 0;
#X coords 0 -1 1 1 57 115 1 0 0;
#X restore 521 -329 pd c8_gutz;
#N canvas 446 27 367 581 c1_gutz 0;
#X obj 102 -298 select 0;
#X obj 33 -155 line;
#X obj 148 -242 f;
#X obj 251 -219 pack f f;
#X obj 148 -209 pack f f;
#X obj 252 -255 f;
#X obj 212 -352 * 100;
#X obj 79 -350 spigot;
#X obj 32 -350 spigot;
#X obj 112 -392 == 0;
#X obj 124 -77 autoscale 0 256 0 100;
#X obj 2 16 nbx 5 14 -1e+37 1e+37 0 0 empty empty empty 0 -8 0 10 -262144
-1 -1 0 256;
#X obj 2 32 tgl 15 0 empty empty empty 17 7 0 10 -262144 -1 -1 0 127
;
#X obj 2 49 tgl 15 0 empty empty empty 17 7 0 10 -262144 -1 -1 0 127
;
#X obj 2 66 nbx 5 14 -1e+37 1e+37 0 0 empty empty empty 0 -8 0 10 -262144
-1 -1 0 256;
#X obj 2 82 nbx 5 14 -1e+37 1e+37 0 0 empty empty empty 0 -8 0 10 -262144
-1 -1 0 256;
#X obj 2 98 nbx 5 14 -1e+37 1e+37 0 0 empty empty empty 0 -8 0 10 -262144
-1 -1 0 256;
#X obj 7 -428 r bcr2k_ch2_65;
#X obj 82 -450 r bcr2k_ch2_73;
#X obj 212 -457 r bcr2k_ch2_89;
#X obj 163 -424 r bcr2k_ch2_81;
#X obj 264 -424 r bcr2k_ch2_97;
#X obj 33 -32 s bcr2k_ch2_1;
#X obj 124 -32 s hex0_1;
#X connect 0 0 5 0;
#X connect 0 1 2 0;
#X connect 1 0 10 0;
#X connect 1 0 22 0;
#X connect 2 0 4 0;
#X connect 3 0 1 0;
#X connect 4 0 1 0;
#X connect 5 0 3 0;
#X connect 6 0 3 1;
#X connect 6 0 4 1;
#X connect 7 0 1 0;
#X connect 8 0 1 0;
#X connect 9 0 7 1;
#X connect 10 0 11 0;
#X connect 10 0 23 0;
#X connect 17 0 9 0;
#X connect 17 0 0 0;
#X connect 17 0 12 0;
#X connect 18 0 13 0;
#X connect 19 0 6 0;
#X connect 19 0 15 0;
#X connect 20 0 8 0;
#X connect 20 0 2 1;
#X connect 20 0 14 0;
#X connect 21 0 7 0;
#X connect 21 0 5 1;
#X connect 21 0 16 0;
#X coords 0 -1 1 1 57 115 1 0 0;
#X restore 3 -329 pd c1_gutz;
#N canvas 692 23 303 436 ch1_gutz 0;
#X obj 88 90 select 0;
#X obj 19 233 line;
#X obj 134 146 f;
#X obj 237 169 pack f f;
#X obj 134 179 pack f f;
#X obj 238 133 f;
#X obj 198 36 * 100;
#X obj 65 38 spigot;
#X obj 18 38 spigot;
#X obj 98 8 == 0;
#X obj 73 311 autoscale 0 256 0 100;
#X obj 19 374 outlet;
#X obj 13 -32 inlet;
#X obj 129 -33 inlet;
#X obj 198 -32 inlet;
#X obj 253 -33 inlet;
#X obj 62 -32 inlet;
#X obj 73 375 outlet;
#X connect 0 0 5 0;
#X connect 0 1 2 0;
#X connect 1 0 10 0;
#X connect 1 0 11 0;
#X connect 2 0 4 0;
#X connect 3 0 1 0;
#X connect 4 0 1 0;
#X connect 5 0 3 0;
#X connect 6 0 3 1;
#X connect 6 0 4 1;
#X connect 7 0 1 0;
#X connect 8 0 1 0;
#X connect 9 0 7 1;
#X connect 10 0 17 0;
#X connect 12 0 0 0;
#X connect 12 0 9 0;
#X connect 12 0 8 1;
#X connect 13 0 2 1;
#X connect 13 0 8 0;
#X connect 14 0 6 0;
#X connect 15 0 5 1;
#X connect 15 0 7 0;
#X restore 599 -239 pd ch1_gutz;
