#N canvas 84 78 1172 659 10;
#X obj 86 35 noise~;
#X obj 105 635 dac~;
#X obj 61 608 *~;
#X obj 154 607 *~;
#X obj 156 500 vsl 40 50 0 1 0 0 empty empty MAIN 0 -9 0 10 -33289
-262144 -1 2500 1;
#X msg 156 556 \$1 100;
#X obj 156 573 line~;
#X obj 89 102 hsl 128 15 0 127 0 0 empty empty empty -2 -8 0 10 -232576
-1 -1 4375 1;
#X obj 61 451 +~;
#X obj 86 75 *~;
#X obj 107 55 hsl 128 15 0 1 0 0 empty empty empty -2 -8 0 10 -204786
-1 -1 0 1;
#X obj 86 123 mtof;
#X obj 89 172 hsl 128 15 0 127 0 0 empty empty empty -2 -8 0 10 -232576
-1 -1 4625 1;
#X obj 86 193 mtof;
#X obj 89 242 hsl 128 15 0 127 0 0 empty empty empty -2 -8 0 10 -232576
-1 -1 4875 1;
#X obj 86 263 mtof;
#X obj 89 312 hsl 128 15 0 127 0 0 empty empty empty -2 -8 0 10 -232576
-1 -1 5125 1;
#X obj 86 333 mtof;
#X obj 89 378 hsl 128 15 0 127 0 0 empty empty empty -2 -8 0 10 -232576
-1 -1 5375 1;
#X obj 86 399 mtof;
#X obj 321 68 vsl 15 128 0 127 0 0 empty empty empty 0 -9 0 10 -159808
-1 -1 4375 1;
#X obj 391 68 vsl 15 128 0 127 0 0 empty empty empty 0 -9 0 10 -262144
-1 -1 250 1;
#X obj 391 229 t b f;
#X obj 396 375 nbx 5 14 -1e+37 1e+37 0 0 empty empty empty 0 -8 0 10
-262144 -1 -1 48.75 256;
#X obj 396 394 mtof;
#X obj 396 438 osc~;
#X obj 436 416 * 2;
#X obj 493 416 * 3;
#X obj 546 416 * 4;
#X obj 436 438 osc~;
#X obj 493 438 osc~;
#X obj 546 438 osc~;
#X obj 436 460 *~ 0.1;
#X obj 493 460 *~ 0.2;
#X obj 546 460 *~ 0.3;
#X obj 436 482 +~;
#X obj 436 504 +~;
#X obj 436 526 *~;
#X obj 467 527 tgl 15 0 empty empty empty 17 7 0 10 -262144 -1 -1 1
1;
#X obj 396 527 +~;
#X obj 447 205 nbx 5 14 -1e+37 1e+37 0 0 empty empty empty 0 -8 0 10
-262144 -1 -1 2.5 256;
#X obj 261 213 nbx 5 14 -1e+37 1e+37 0 0 empty empty empty 0 -8 0 10
-262144 -1 -1 43.75 256;
#X obj 786 491 *~;
#X obj 879 490 *~;
#X obj 881 383 vsl 40 50 0 1 0 0 empty empty MAIN 0 -9 0 10 -33289
-262144 -1 2300 1;
#X msg 881 439 \$1 100;
#X obj 881 456 line~;
#X obj 728 189 mtof;
#X obj 86 145 triangle~;
#X obj 86 215 triangle~;
#X obj 86 285 triangle~;
#X obj 86 355 triangle~;
#X obj 86 421 triangle~;
#X obj 321 254 expr $f1 \; $f1 + $f2 \; $f1 + ($f2 * 2) \; $f1 + ($f2
* 3) \; $f1 + ($f2 * 4) \; $f1 + ($f2 * 5) \;;
#X connect 0 0 9 0;
#X connect 2 0 1 0;
#X connect 3 0 1 1;
#X connect 4 0 5 0;
#X connect 5 0 6 0;
#X connect 6 0 3 1;
#X connect 6 0 2 1;
#X connect 7 0 11 0;
#X connect 8 0 2 0;
#X connect 8 0 3 0;
#X connect 9 0 8 0;
#X connect 10 0 9 1;
#X connect 11 0 48 0;
#X connect 12 0 13 0;
#X connect 13 0 49 0;
#X connect 14 0 15 0;
#X connect 15 0 50 0;
#X connect 16 0 17 0;
#X connect 17 0 51 0;
#X connect 18 0 19 0;
#X connect 19 0 52 0;
#X connect 20 0 41 0;
#X connect 20 0 53 0;
#X connect 21 0 22 0;
#X connect 21 0 40 0;
#X connect 22 0 53 0;
#X connect 22 1 53 1;
#X connect 23 0 24 0;
#X connect 24 0 25 0;
#X connect 24 0 26 0;
#X connect 24 0 27 0;
#X connect 24 0 28 0;
#X connect 25 0 39 0;
#X connect 26 0 29 0;
#X connect 27 0 30 0;
#X connect 28 0 31 0;
#X connect 29 0 32 0;
#X connect 30 0 33 0;
#X connect 31 0 34 0;
#X connect 32 0 35 0;
#X connect 33 0 35 1;
#X connect 34 0 36 1;
#X connect 35 0 36 0;
#X connect 36 0 37 0;
#X connect 37 0 39 1;
#X connect 37 0 43 0;
#X connect 38 0 37 1;
#X connect 39 0 42 0;
#X connect 42 0 1 0;
#X connect 43 0 1 1;
#X connect 44 0 45 0;
#X connect 45 0 46 0;
#X connect 46 0 43 1;
#X connect 46 0 42 1;
#X connect 48 0 8 0;
#X connect 49 0 8 0;
#X connect 50 0 8 0;
#X connect 51 0 8 0;
#X connect 52 0 8 0;
#X connect 53 0 7 0;
#X connect 53 0 47 0;
#X connect 53 1 12 0;
#X connect 53 2 14 0;
#X connect 53 3 16 0;
#X connect 53 4 18 0;
