#N canvas 0 22 691 194 10;
#N canvas 656 57 622 709 bourbon_sub 1;
#X obj 105 404 metro;
#X obj 149 124 tgl 15 0 empty empty empty 17 7 0 10 -260097 -257985
-1 0 127;
#X obj 168 124 nbx 5 14 -1e+37 1e+37 0 0 empty empty empty 0 -8 0 10
-262144 -260097 -1 19 256;
#X obj 105 427 f;
#X obj 139 427 + 1;
#X obj 102 138 hradio 16 1 0 10 empty empty empty 0 -8 0 10 -260097
-257985 -1 8;
#X obj 106 502 f;
#X obj 723 345 mtof;
#X obj 723 373 phasor~;
#X obj 309 399 metro;
#X obj 311 123 tgl 15 0 empty empty empty 17 7 0 10 -260097 -257985
-1 0 127;
#X obj 334 124 nbx 5 14 -1e+37 1e+37 0 0 empty empty empty 0 -8 0 10
-262144 -260097 -1 111 256;
#X obj 309 423 f;
#X obj 343 423 + 1;
#X obj 263 138 hradio 16 1 0 10 empty empty empty 0 -8 0 10 -260097
-257985 -1 0;
#X obj 311 500 f;
#X obj 310 447 mod 10;
#X obj 311 474 select 0 1 2 3 4 5 6 7 8 9;
#X obj 106 450 mod 10;
#X obj 105 475 select 0 1 2 3 4 5 6 7 8 9;
#X obj 105 155 hsl 128 15 0 127 0 0 empty empty empty -2 -8 0 10 -260097
-257985 -1 5400 1;
#X obj 265 155 hsl 128 15 0 127 0 0 empty empty empty -2 -8 0 10 -260097
-257985 -1 5500 1;
#X obj 105 544 metro;
#X obj 165 170 tgl 15 0 empty empty empty 17 7 0 10 -260097 -257985
-1 0 127;
#X obj 187 171 nbx 5 14 -1e+37 1e+37 0 0 empty empty empty 0 -8 0 10
-262144 -260097 -1 16 256;
#X obj 105 572 f;
#X obj 139 572 + 1;
#X obj 102 185 hradio 16 1 0 10 empty empty empty 0 -8 0 10 -260097
-257985 -1 0;
#X obj 107 643 f;
#X obj 303 554 metro;
#X obj 317 170 tgl 15 0 empty empty empty 17 7 0 10 -260097 -257985
-1 0 127;
#X obj 339 171 nbx 5 14 -1e+37 1e+37 0 0 empty empty empty 0 -8 0 10
-262144 -260097 -1 0 256;
#X obj 303 582 f;
#X obj 337 582 + 1;
#X obj 263 185 hradio 16 1 0 10 empty empty empty 0 -8 0 10 -260097
-257985 -1 0;
#X obj 302 658 f;
#X obj 304 615 mod 10;
#X obj 302 637 select 0 1 2 3 4 5 6 7 8 9;
#X obj 106 598 mod 10;
#X obj 107 618 select 0 1 2 3 4 5 6 7 8 9;
#X obj 105 202 hsl 128 15 0 127 0 0 empty empty empty -2 -8 0 10 -260097
-257985 -1 7300 1;
#X obj 267 202 hsl 128 15 0 127 0 0 empty empty empty -2 -8 0 10 -260097
-257985 -1 0 1;
#X text 266 121 2 [TWO];
#X text 105 169 3 [THREE];
#X text 299 524 4 [FOUR];
#X obj 446 403 bng 15 250 50 0 empty empty empty 17 7 0 10 -262144
-1 -1;
#X msg 478 437 \; pd dsp 1;
#X obj 469 265 loadbang;
#X obj 469 401 delay 100;
#X obj 500 478 print running;
#X obj 380 230 bng 15 250 50 0 empty empty empty 17 7 0 10 -260097
-257985 -1;
#X msg 770 331 0;
#X msg 446 421 66;
#X msg 369 712 \; pd dsp 1;
#X msg 289 711 \; pd dsp 0;
#X text 104 122 1 [ONE];
#X text 101 387 1 [ONE];
#X text 308 384 2 [TWO];
#X text 103 524 3 [THREE];
#X text 266 168 4 [FOUR];
#X text 488 314 bang on/off;
#X text 503 363 DSP toggle hack!;
#X obj 102 250 bng 15 250 50 0 empty empty empty 17 7 0 10 -260097
-257985 -1;
#X obj 122 250 bng 15 250 50 0 empty empty empty 17 7 0 10 -260097
-257985 -1;
#X floatatom 99 -54 5 0 0 0 - - -;
#X obj 95 -161 ctlin 73 2;
#X obj 90 -133 ctlin 81 2;
#X obj 89 -81 ctlin 89 2;
#X floatatom 99 -4 5 0 0 0 - - -;
#X obj 89 -31 ctlin 97 2;
#X floatatom 169 -54 5 0 0 0 - - -;
#X floatatom 169 -4 5 0 0 0 - - -;
#X floatatom 239 -54 5 0 0 0 - - -;
#X floatatom 239 -4 5 0 0 0 - - -;
#X floatatom 309 -54 5 0 0 0 - - -;
#X floatatom 309 -4 5 0 0 0 - - -;
#X floatatom 379 -54 5 0 0 0 - - -;
#X floatatom 379 -4 5 0 0 0 - - -;
#X floatatom 449 -54 5 0 0 0 - - -;
#X floatatom 449 -4 5 0 0 0 - - -;
#X floatatom 519 -54 5 0 0 0 - - -;
#X floatatom 519 -4 5 0 0 0 - - -;
#X floatatom 589 -54 5 0 0 0 - - -;
#X floatatom 589 -4 5 0 0 0 - - -;
#X obj 155 -252 ctlin 2 2;
#X obj 225 -252 ctlin 3 2;
#X obj 295 -252 ctlin 4 2;
#X obj 365 -252 ctlin 5 2;
#X obj 435 -252 ctlin 6 2;
#X obj 505 -252 ctlin 7 2;
#X obj 165 -161 ctlin 74 2;
#X obj 235 -161 ctlin 75 2;
#X obj 305 -161 ctlin 76 2;
#X obj 375 -161 ctlin 77 2;
#X obj 445 -161 ctlin 78 2;
#X obj 515 -161 ctlin 79 2;
#X obj 585 -161 ctlin 80 2;
#X obj 160 -133 ctlin 82 2;
#X obj 230 -133 ctlin 83 2;
#X obj 300 -133 ctlin 84 2;
#X obj 370 -133 ctlin 85 2;
#X obj 440 -133 ctlin 86 2;
#X obj 510 -133 ctlin 87 2;
#X obj 580 -133 ctlin 88 2;
#X obj 159 -81 ctlin 90 2;
#X obj 229 -81 ctlin 91 2;
#X obj 299 -81 ctlin 92 2;
#X obj 369 -81 ctlin 93 2;
#X obj 439 -81 ctlin 94 2;
#X obj 509 -81 ctlin 95 2;
#X obj 579 -81 ctlin 96 2;
#X obj 159 -31 ctlin 98 2;
#X obj 229 -31 ctlin 99 2;
#X obj 299 -31 ctlin 100 2;
#X obj 369 -31 ctlin 101 2;
#X obj 439 -31 ctlin 102 2;
#X obj 509 -31 ctlin 103 2;
#X obj 579 -31 ctlin 104 2;
#X obj 575 -252 ctlin 127 2;
#X obj 85 -252 ctlin 1 2;
#X floatatom 100 -106 5 0 0 0 - - -;
#X floatatom 170 -106 5 0 0 0 - - -;
#X floatatom 240 -106 5 0 0 0 - - -;
#X floatatom 310 -106 5 0 0 0 - - -;
#X floatatom 380 -106 5 0 0 0 - - -;
#X floatatom 450 -106 5 0 0 0 - - -;
#X floatatom 520 -106 5 0 0 0 - - -;
#X floatatom 590 -106 5 0 0 0 - - -;
#X obj 815 294 metro;
#X obj 471 123 tgl 15 0 empty empty empty 17 7 0 10 -257985 -260097
-1 0 127;
#X obj 490 123 nbx 5 14 -1e+37 1e+37 0 0 empty empty empty 0 -8 0 10
-262144 -260097 -1 178 256;
#X obj 815 317 f;
#X obj 849 317 + 1;
#X obj 424 137 hradio 16 1 0 10 empty empty empty 0 -8 0 10 -257985
-260097 -1 4;
#X obj 816 392 f;
#X obj 1019 289 metro;
#X obj 633 122 tgl 15 0 empty empty empty 17 7 0 10 -257985 -260097
-1 0 127;
#X obj 656 123 nbx 5 14 -1e+37 1e+37 0 0 empty empty empty 0 -8 0 10
-262144 -260097 -1 31 256;
#X obj 1019 313 f;
#X obj 1053 313 + 1;
#X obj 585 137 hradio 16 1 0 10 empty empty empty 0 -8 0 10 -257985
-260097 -1 6;
#X obj 1021 390 f;
#X obj 1020 337 mod 10;
#X obj 1021 364 select 0 1 2 3 4 5 6 7 8 9;
#X obj 816 340 mod 10;
#X obj 815 365 select 0 1 2 3 4 5 6 7 8 9;
#X obj 427 154 hsl 128 15 0 127 0 0 empty empty empty -2 -8 0 10 -257985
-260097 -1 6700 1;
#X obj 587 154 hsl 128 15 0 127 0 0 empty empty empty -2 -8 0 10 -257985
-260097 -1 6200 1;
#X obj 815 434 metro;
#X obj 487 169 tgl 15 0 empty empty empty 17 7 0 10 -257985 -260097
-1 0 127;
#X obj 509 170 nbx 5 14 -1e+37 1e+37 0 0 empty empty empty 0 -8 0 10
-262144 -260097 -1 0 256;
#X obj 815 462 f;
#X obj 849 462 + 1;
#X obj 424 184 hradio 16 1 0 10 empty empty empty 0 -8 0 10 -257985
-260097 -1 0;
#X obj 817 533 f;
#X obj 1013 444 metro;
#X obj 639 169 tgl 15 0 empty empty empty 17 7 0 10 -257985 -260097
-1 0 127;
#X obj 661 170 nbx 5 14 -1e+37 1e+37 0 0 empty empty empty 0 -8 0 10
-262144 -260097 -1 0 256;
#X obj 1013 472 f;
#X obj 1047 472 + 1;
#X obj 585 184 hradio 16 1 0 10 empty empty empty 0 -8 0 10 -257985
-260097 -1 0;
#X obj 1012 548 f;
#X obj 1014 505 mod 10;
#X obj 1012 527 select 0 1 2 3 4 5 6 7 8 9;
#X obj 816 488 mod 10;
#X obj 817 508 select 0 1 2 3 4 5 6 7 8 9;
#X obj 427 201 hsl 128 15 0 127 0 0 empty empty empty -2 -8 0 10 -257985
-260097 -1 0 1;
#X obj 589 201 hsl 128 15 0 127 0 0 empty empty empty -2 -8 0 10 -257985
-260097 -1 0 1;
#X text 427 168 3 [THREE];
#X text 1009 414 4 [FOUR];
#X obj 1156 293 bng 15 250 50 0 empty empty empty 17 7 0 10 -262144
-1 -1;
#X obj 1179 265 loadbang;
#X text 1131 220 LOADBANGZ 4 PD_SRV;
#X text 1130 234 && RASPBERRY PI;
#X msg 1156 311 66;
#X text 426 121 1 [ONE];
#X text 811 277 1 [ONE];
#X text 1018 274 2 [TWO];
#X text 813 414 3 [THREE];
#X text 588 167 4 [FOUR];
#X obj 723 462 mtof;
#X obj 723 490 phasor~;
#X obj 745 36 * 10;
#X obj 703 36 * 10;
#X obj 662 39 * 10;
#X obj 627 40 * 10;
#X obj 594 40 * 10;
#X obj 493 40 * 10;
#X obj 528 39 * 10;
#X obj 561 38 * 10;
#X obj 928 76 ctlout 7 2;
#X obj 841 72 ctlout 6 2;
#X obj 771 71 ctlout 5 2;
#X obj 702 71 ctlout 4 2;
#X obj 635 73 ctlout 3 2;
#X obj 563 73 ctlout 2 2;
#X obj 492 75 ctlout 1 2;
#X obj 1017 73 ctlout 8 2;
#X obj 96 669 ctlin 105 2;
#X obj 308 680 ctlin 107 2;
#X obj 386 680 ctlin 108 2;
#X obj 431 231 bng 15 250 50 0 empty empty empty 17 7 0 10 -257985
-260097 -1;
#X msg 662 555 0;
#X obj 156 668 ctlin 106 2;
#X obj 164 -223 notein 2;
#X obj 234 -223 notein 2;
#X obj 304 -223 notein 2;
#X obj 374 -223 notein 2;
#X obj 444 -223 notein 2;
#X obj 514 -223 notein 2;
#X obj 584 -223 notein 2;
#X obj 94 -203 select 24;
#X obj 164 -204 select 25;
#X obj 236 -202 select 26;
#X obj 306 -200 select 27;
#X obj 374 -201 select 28;
#X obj 444 -202 select 29;
#X obj 514 -202 select 30;
#X obj 584 -203 select 31;
#X obj 94 -223 notein 2;
#X obj 584 -180 bng 15 250 50 0 empty empty empty 17 7 0 10 -262144
-1 -1;
#X msg 602 -181 0;
#X obj 96 -181 bng 15 250 50 0 empty empty empty 17 7 0 10 -262144
-1 -1;
#X msg 114 -182 0;
#X obj 164 -183 bng 15 250 50 0 empty empty empty 17 7 0 10 -262144
-1 -1;
#X msg 182 -184 0;
#X obj 238 -180 bng 15 250 50 0 empty empty empty 17 7 0 10 -262144
-1 -1;
#X msg 256 -181 0;
#X obj 307 -179 bng 15 250 50 0 empty empty empty 17 7 0 10 -262144
-1 -1;
#X msg 325 -180 0;
#X obj 377 -179 bng 15 250 50 0 empty empty empty 17 7 0 10 -262144
-1 -1;
#X msg 395 -180 0;
#X obj 444 -181 bng 15 250 50 0 empty empty empty 17 7 0 10 -262144
-1 -1;
#X msg 462 -182 0;
#X obj 514 -180 bng 15 250 50 0 empty empty empty 17 7 0 10 -262144
-1 -1;
#X msg 532 -181 0;
#X text 485 298 RASPBERRY PI;
#X obj 505 620 *~;
#X text 516 646 CH1;
#X text 551 634 CH2;
#X obj 639 625 ctlin 106;
#X obj 682 590 nbx 5 14 -1e+37 1e+37 0 0 empty empty empty 0 -8 0 10
-262144 -1 -1 0 256;
#X obj 639 645 maxlib/scale 0 127 0 0.5;
#X text 100 221 DSP;
#X text 101 234 on off;
#X obj 292 250 hsl 128 15 0 1 0 0 empty empty empty -2 -8 0 10 -262144
-1 -1 3500 1;
#X text 271 247 VOL;
#X text 588 120 2 [TWO];
#X text 571 106 RIGHT;
#X text 242 105 LEFT;
#X obj 518 717 dac~ 1 2;
#X obj 539 617 *~;
#X text 397 215 RESET;
#X connect 0 0 3 0;
#X connect 1 0 0 0;
#X connect 2 0 0 1;
#X connect 3 0 4 0;
#X connect 3 0 18 0;
#X connect 4 0 3 1;
#X connect 5 0 19 0;
#X connect 5 0 187 0;
#X connect 6 0 7 0;
#X connect 7 0 8 0;
#X connect 8 0 237 0;
#X connect 9 0 12 0;
#X connect 10 0 9 0;
#X connect 11 0 9 1;
#X connect 12 0 13 0;
#X connect 12 0 16 0;
#X connect 13 0 12 1;
#X connect 14 0 17 0;
#X connect 14 0 188 0;
#X connect 15 0 7 0;
#X connect 16 0 14 0;
#X connect 17 0 15 0;
#X connect 18 0 5 0;
#X connect 19 0 6 0;
#X connect 20 0 6 1;
#X connect 21 0 15 1;
#X connect 22 0 25 0;
#X connect 23 0 22 0;
#X connect 24 0 22 1;
#X connect 25 0 26 0;
#X connect 25 0 38 0;
#X connect 26 0 25 1;
#X connect 27 0 39 0;
#X connect 27 0 189 0;
#X connect 28 0 7 0;
#X connect 29 0 32 0;
#X connect 30 0 29 0;
#X connect 31 0 29 1;
#X connect 32 0 33 0;
#X connect 32 0 36 0;
#X connect 33 0 32 1;
#X connect 34 0 37 0;
#X connect 34 0 186 0;
#X connect 35 0 7 0;
#X connect 36 0 34 0;
#X connect 37 0 35 0;
#X connect 38 0 27 0;
#X connect 39 0 28 0;
#X connect 40 0 28 1;
#X connect 41 0 35 1;
#X connect 45 0 52 0;
#X connect 47 0 48 0;
#X connect 47 0 45 0;
#X connect 48 0 46 0;
#X connect 48 0 49 0;
#X connect 50 0 51 0;
#X connect 51 0 8 0;
#X connect 51 0 8 1;
#X connect 52 0 2 0;
#X connect 52 0 20 0;
#X connect 52 0 11 0;
#X connect 52 0 21 0;
#X connect 52 0 24 0;
#X connect 52 0 40 0;
#X connect 52 0 31 0;
#X connect 52 0 41 0;
#X connect 62 0 54 0;
#X connect 63 0 53 0;
#X connect 65 0 1 0;
#X connect 66 0 120 0;
#X connect 67 0 64 0;
#X connect 67 0 20 0;
#X connect 69 0 68 0;
#X connect 69 0 2 0;
#X connect 90 0 10 0;
#X connect 91 0 23 0;
#X connect 92 0 30 0;
#X connect 93 0 129 0;
#X connect 94 0 136 0;
#X connect 95 0 149 0;
#X connect 96 0 156 0;
#X connect 97 0 121 0;
#X connect 98 0 122 0;
#X connect 99 0 123 0;
#X connect 100 0 124 0;
#X connect 101 0 125 0;
#X connect 102 0 126 0;
#X connect 103 0 127 0;
#X connect 104 0 70 0;
#X connect 104 0 21 0;
#X connect 105 0 72 0;
#X connect 105 0 40 0;
#X connect 106 0 74 0;
#X connect 106 0 41 0;
#X connect 107 0 76 0;
#X connect 107 0 146 0;
#X connect 108 0 78 0;
#X connect 108 0 147 0;
#X connect 109 0 80 0;
#X connect 109 0 166 0;
#X connect 110 0 82 0;
#X connect 110 0 167 0;
#X connect 111 0 71 0;
#X connect 111 0 11 0;
#X connect 112 0 73 0;
#X connect 112 0 24 0;
#X connect 113 0 75 0;
#X connect 113 0 31 0;
#X connect 114 0 77 0;
#X connect 114 0 130 0;
#X connect 115 0 79 0;
#X connect 115 0 137 0;
#X connect 116 0 81 0;
#X connect 116 0 150 0;
#X connect 117 0 83 0;
#X connect 117 0 157 0;
#X connect 128 0 131 0;
#X connect 129 0 128 0;
#X connect 130 0 128 1;
#X connect 131 0 132 0;
#X connect 131 0 144 0;
#X connect 132 0 131 1;
#X connect 133 0 145 0;
#X connect 133 0 185 0;
#X connect 134 0 180 0;
#X connect 135 0 138 0;
#X connect 136 0 135 0;
#X connect 137 0 135 1;
#X connect 138 0 139 0;
#X connect 138 0 142 0;
#X connect 139 0 138 1;
#X connect 140 0 143 0;
#X connect 140 0 184 0;
#X connect 141 0 180 0;
#X connect 142 0 140 0;
#X connect 143 0 141 0;
#X connect 144 0 133 0;
#X connect 145 0 134 0;
#X connect 146 0 134 1;
#X connect 147 0 141 1;
#X connect 148 0 151 0;
#X connect 149 0 148 0;
#X connect 150 0 148 1;
#X connect 151 0 152 0;
#X connect 151 0 164 0;
#X connect 152 0 151 1;
#X connect 153 0 165 0;
#X connect 153 0 183 0;
#X connect 154 0 180 0;
#X connect 155 0 158 0;
#X connect 156 0 155 0;
#X connect 157 0 155 1;
#X connect 158 0 159 0;
#X connect 158 0 162 0;
#X connect 159 0 158 1;
#X connect 160 0 163 0;
#X connect 160 0 182 0;
#X connect 161 0 180 0;
#X connect 162 0 160 0;
#X connect 163 0 161 0;
#X connect 164 0 153 0;
#X connect 165 0 154 0;
#X connect 166 0 154 1;
#X connect 167 0 161 1;
#X connect 170 0 174 0;
#X connect 171 0 170 0;
#X connect 174 0 130 0;
#X connect 174 0 146 0;
#X connect 174 0 137 0;
#X connect 174 0 147 0;
#X connect 174 0 150 0;
#X connect 174 0 166 0;
#X connect 174 0 157 0;
#X connect 174 0 167 0;
#X connect 180 0 181 0;
#X connect 181 0 251 0;
#X connect 182 0 197 0;
#X connect 183 0 190 0;
#X connect 184 0 191 0;
#X connect 185 0 192 0;
#X connect 186 0 193 0;
#X connect 187 0 196 0;
#X connect 188 0 195 0;
#X connect 189 0 194 0;
#X connect 198 0 50 0;
#X connect 199 0 62 0;
#X connect 200 0 63 0;
#X connect 201 0 202 0;
#X connect 202 0 181 0;
#X connect 202 0 181 1;
#X connect 203 0 201 0;
#X connect 204 0 212 0;
#X connect 205 0 213 0;
#X connect 206 0 214 0;
#X connect 207 0 215 0;
#X connect 208 0 216 0;
#X connect 209 0 217 0;
#X connect 210 0 218 0;
#X connect 211 0 222 0;
#X connect 212 0 224 0;
#X connect 213 0 226 0;
#X connect 214 0 228 0;
#X connect 215 0 230 0;
#X connect 216 0 232 0;
#X connect 217 0 234 0;
#X connect 218 0 220 0;
#X connect 219 0 211 0;
#X connect 220 0 221 0;
#X connect 221 0 160 0;
#X connect 222 0 223 0;
#X connect 223 0 5 0;
#X connect 224 0 225 0;
#X connect 225 0 14 0;
#X connect 226 0 227 0;
#X connect 227 0 27 0;
#X connect 228 0 229 0;
#X connect 229 0 34 0;
#X connect 230 0 231 0;
#X connect 231 0 133 0;
#X connect 232 0 233 0;
#X connect 233 0 140 0;
#X connect 234 0 235 0;
#X connect 235 0 153 0;
#X connect 237 0 250 0;
#X connect 240 0 242 0;
#X connect 242 0 241 0;
#X connect 242 0 245 0;
#X connect 245 0 237 1;
#X connect 245 0 251 1;
#X connect 251 0 250 1;
#X coords 0 -1 1 1 666 166 1 100 100;
#X restore 13 -523 pd bourbon_sub;
