#N canvas 253 64 439 216 10;
#N canvas 344 77 680 386 bitwise 0;
#X obj 188 281 dac~;
#X obj 20 142 expr~ int(($v1*.5+.5)*255);
#X obj 20 196 expr~ $v1/255*2-1;
#X obj 20 168 expr~ ($v1 >> 0.5 | $v1 >> 4)& 25 & $v1>>2;
#X obj 20 89 phasor~ 0.02;
#X obj 307 140 expr~ int(($v1*.5+.5)*255);
#X obj 307 194 expr~ $v1/255*2-1;
#X obj 307 89 phasor~ 0.04;
#X obj 307 167 expr~ ($v1 >> $v2 | $v1 >> $v3)& 25 & $v1>>2;
#X obj 437 89 phasor~ 0.01;
#X obj 567 89 phasor~ 0.02;
#X obj 80 26 hsl 128 15 0 12 0 0 empty empty empty -2 -8 0 10 -262144
-1 -1 800 1;
#X obj 20 57 / 1000;
#X obj 20 -5 loadbang;
#X msg 20 26 1;
#X obj 20 115 *~ 100;
#X obj 437 112 *~ 200;
#X obj 567 112 *~ 10;
#X obj 77 -5 inlet;
#X obj 20 338 outlet~;
#X obj 307 333 outlet~;
#X obj 307 115 *~ 1000;
#X obj 234 26 hsl 128 15 0 127 0 0 empty empty empty -2 -8 0 10 -262144
-1 -1 11200 1;
#X obj 37 226 dbtorms;
#X msg 37 246 \$1 10;
#X obj 37 266 line~;
#X obj 20 297 *~;
#X obj 71 291 env~;
#X floatatom 72 315 5 0 0 0 - - -;
#X obj 436 26 hsl 128 15 0 127 0 0 empty empty empty -2 -8 0 10 -262144
-1 -1 12200 1;
#X obj 324 220 dbtorms;
#X msg 324 240 \$1 10;
#X obj 324 260 line~;
#X obj 307 291 *~;
#X obj 358 285 env~;
#X floatatom 359 309 5 0 0 0 - - -;
#X obj 231 -7 inlet;
#X obj 433 -7 inlet;
#X connect 1 0 3 0;
#X connect 2 0 26 0;
#X connect 3 0 2 0;
#X connect 4 0 15 0;
#X connect 5 0 8 0;
#X connect 6 0 33 0;
#X connect 7 0 21 0;
#X connect 8 0 6 0;
#X connect 9 0 16 0;
#X connect 10 0 17 0;
#X connect 11 0 12 0;
#X connect 12 0 7 0;
#X connect 12 0 4 0;
#X connect 12 0 9 0;
#X connect 12 0 10 0;
#X connect 13 0 14 0;
#X connect 14 0 12 0;
#X connect 15 0 1 0;
#X connect 16 0 8 1;
#X connect 17 0 8 2;
#X connect 18 0 11 0;
#X connect 21 0 5 0;
#X connect 22 0 23 0;
#X connect 23 0 24 0;
#X connect 24 0 25 0;
#X connect 25 0 26 1;
#X connect 25 0 27 0;
#X connect 26 0 19 0;
#X connect 27 0 28 0;
#X connect 29 0 30 0;
#X connect 30 0 31 0;
#X connect 31 0 32 0;
#X connect 32 0 33 1;
#X connect 32 0 34 0;
#X connect 33 0 20 0;
#X connect 34 0 35 0;
#X connect 36 0 22 0;
#X connect 37 0 29 0;
#X restore 169 10 pd bitwise;
#X obj 13 -85 hsl 128 15 0 12 0 0 empty empty empty -2 -8 0 10 -262144
-1 -1 800 1;
#X obj 12 94 dac~ 1 2;
#X obj 12 65 *~;
#X obj 12 41 *~;
#X obj 11 -26 vsl 50 50 0 1 0 0 empty empty MSTR_VOL 0 -9 0 10 -262144
-1 -1 4000 1;
#X text 36 41 CH1;
#X text 36 66 CH2;
#X obj 151 -85 hsl 128 15 0 127 0 0 empty empty empty -2 -8 0 10 -262144
-1 -1 11200 1;
#X obj 290 -85 hsl 128 15 0 127 0 0 empty empty empty -2 -8 0 10 -262144
-1 -1 0 1;
#X connect 0 0 4 0;
#X connect 0 1 3 0;
#X connect 1 0 0 0;
#X connect 3 0 2 0;
#X connect 3 0 2 1;
#X connect 4 0 2 1;
#X connect 4 0 2 0;
#X connect 5 0 4 1;
#X connect 5 0 3 1;
#X connect 8 0 0 1;
#X connect 9 0 0 2;
