#N canvas -1194 -313 588 643 10;
#X obj -421 237 metro;
#X obj -67 162 tgl 15 0 empty empty empty 17 7 0 10 -260097 -1 -1 0
1;
#X obj -421 263 f;
#X obj -387 263 + 1;
#X obj -393 339 f;
#X obj 13 608 mtof;
#X obj 13 629 phasor~;
#X obj -414 654 metro;
#X obj -67 276 tgl 15 0 empty empty empty 17 7 0 10 -260097 -1 -1 0
1;
#X obj -414 675 f;
#X obj -380 675 + 1;
#X obj -386 772 f;
#X obj -86 302 hsl 32 15 0 127 0 0 empty empty empty -2 -8 0 10 -260097
-1 -1 700 1;
#X obj -421 180 range 0 100 0 1000;
#X obj -414 609 range 0 100 0 1000;
#X text 33 666 AUDIO OUT;
#X obj -421 207 != 0;
#X obj -86 205 hsl 32 15 0 100 0 0 empty empty empty -2 -8 0 10 -257985
-1 -1 700 1;
#X obj -87 322 hsl 32 15 0 100 0 0 empty empty empty -2 -8 0 10 -257985
-1 -1 200 1;
#X obj -414 633 != 0;
#X obj -89 261 vradio 15 1 0 2 empty empty empty 0 -8 0 10 -260097
-1 -1 1;
#X text -422 160 1 [ONE];
#X text -417 589 2 [TWO];
#X obj -421 286 mod 2;
#X obj -421 315 select 0 1;
#X text -27 203 rate;
#X text -32 184 pitch;
#X obj -67 146 tgl 15 0 empty empty empty 17 7 0 10 -262144 -1 -1 1
1;
#X text -37 161 on/off;
#X text -48 146 2 ctrlr;
#X text -91 129 1 [ONE];
#X text -91 244 2 [TWO];
#X obj -67 260 tgl 15 0 empty empty empty 17 7 0 10 -262144 -1 -1 0
1;
#X obj -414 697 mod 2;
#X obj -414 745 select 0 1;
#X text -27 316 rate;
#X text -32 297 pitch;
#X text -37 274 on/off;
#X text -43 259 2 ctrlr;
#X floatatom -84 425 5 0 0 0 - - -;
#X obj -90 369 tgl 15 0 empty empty empty 17 7 0 10 -262144 -1 -1 0
1;
#X text -71 367 I/O;
#X obj 19 775 dac~ 1 2;
#X obj 19 746 *~;
#X obj 19 722 *~;
#X text 43 719 CH1;
#X text 43 746 CH2;
#X msg -356 424 100;
#X floatatom -393 424 5 0 0 0 - - -;
#X obj -374 466 makenote;
#X obj -26 384 vsl 50 50 0 1 0 0 empty empty MSTR_VOL 0 -9 0 10 -262144
-1 -1 3300 1;
#X obj -86 185 hsl 32 15 0 127 0 0 empty empty empty -2 -8 0 10 -260097
-1 -1 800 1;
#X obj -87 146 vradio 15 1 0 2 empty empty empty 0 -8 0 10 -260097
-1 -1 1;
#X text -172 275 CLICK TRIGGER;
#X text -172 162 CLICK TRIGGER;
#X text -327 406 LEN;
#X text -397 406 NOTE__VEL;
#X obj -393 371 t f b b;
#X obj -376 503 noteout;
#X msg -324 425 666;
#X msg -356 843 100;
#X floatatom -393 843 5 0 0 0 - - -;
#X obj -374 885 makenote;
#X text -327 825 LEN;
#X text -397 825 NOTE__VEL;
#X obj -376 913 noteout;
#X msg -324 844 666;
#X obj -386 799 t f b b;
#X connect 0 0 2 0;
#X connect 1 0 0 0;
#X connect 2 0 3 0;
#X connect 2 0 23 0;
#X connect 3 0 2 1;
#X connect 4 0 5 0;
#X connect 4 0 57 0;
#X connect 5 0 6 0;
#X connect 6 0 44 0;
#X connect 6 0 43 0;
#X connect 7 0 9 0;
#X connect 8 0 7 0;
#X connect 9 0 10 0;
#X connect 9 0 33 0;
#X connect 10 0 9 1;
#X connect 11 0 5 0;
#X connect 11 0 67 0;
#X connect 12 0 11 1;
#X connect 13 0 16 0;
#X connect 13 0 0 1;
#X connect 14 0 7 1;
#X connect 14 0 19 0;
#X connect 16 0 1 0;
#X connect 17 0 13 0;
#X connect 18 0 14 0;
#X connect 19 0 8 0;
#X connect 20 0 34 0;
#X connect 23 0 27 0;
#X connect 23 0 24 0;
#X connect 23 0 52 0;
#X connect 24 1 4 0;
#X connect 33 0 20 0;
#X connect 33 0 32 0;
#X connect 34 1 11 0;
#X connect 39 0 5 0;
#X connect 39 0 6 0;
#X connect 40 0 39 0;
#X connect 43 0 42 0;
#X connect 43 0 42 1;
#X connect 44 0 42 1;
#X connect 44 0 42 0;
#X connect 47 0 49 1;
#X connect 48 0 49 0;
#X connect 49 0 58 0;
#X connect 49 1 58 1;
#X connect 50 0 44 1;
#X connect 50 0 43 1;
#X connect 51 0 4 1;
#X connect 52 0 24 0;
#X connect 57 0 48 0;
#X connect 57 1 47 0;
#X connect 57 2 59 0;
#X connect 59 0 49 2;
#X connect 60 0 62 1;
#X connect 61 0 62 0;
#X connect 62 0 65 0;
#X connect 62 1 65 1;
#X connect 66 0 62 2;
#X connect 67 0 61 0;
#X connect 67 1 60 0;
#X connect 67 2 66 0;
