#N canvas 357 161 649 468 10;
#X obj 80 115 metro;
#X obj 79 89 tgl 15 0 empty empty empty 17 7 0 10 -262144 -1 -1 0 1
;
#X obj 107 89 nbx 5 14 -1e+37 1e+37 0 0 empty empty empty 0 -8 0 10
-262144 -1 -1 11 256;
#X obj 80 143 f;
#X obj 114 143 + 1;
#X obj 81 204 hradio 16 1 0 8 empty empty empty 0 -8 0 10 -262144 -1
-1 4;
#X obj 80 275 f;
#X obj 79 307 mtof;
#X obj 79 353 phasor~;
#X obj 81 448 dac~;
#X obj 200 290 vsl 15 128 0 127 0 0 empty empty empty 0 -9 0 10 -262144
-1 -1 9600 1;
#X obj 82 236 select 0 1 2 3 4 5 6 7;
#X obj 225 290 vsl 15 128 0 127 0 0 empty empty empty 0 -9 0 10 -262144
-1 -1 9500 1;
#X obj 108 276 f;
#X obj 138 276 f;
#X obj 248 290 vsl 15 128 0 127 0 0 empty empty empty 0 -9 0 10 -262144
-1 -1 9400 1;
#X obj 274 290 vsl 15 128 0 127 0 0 empty empty empty 0 -9 0 10 -262144
-1 -1 9400 1;
#X obj 165 276 f;
#X obj 299 290 vsl 15 128 0 127 0 0 empty empty empty 0 -9 0 10 -262144
-1 -1 9200 1;
#X obj 198 265 f;
#X obj 360 95 metro;
#X obj 359 69 tgl 15 0 empty empty empty 17 7 0 10 -262144 -1 -1 0
1;
#X obj 387 69 nbx 5 14 -1e+37 1e+37 0 0 empty empty empty 0 -8 0 10
-262144 -1 -1 51 256;
#X obj 360 123 f;
#X obj 394 123 + 1;
#X obj 361 184 hradio 16 1 0 8 empty empty empty 0 -8 0 10 -262144
-1 -1 7;
#X obj 360 255 f;
#X obj 480 270 vsl 15 128 0 127 0 0 empty empty empty 0 -9 0 10 -262144
-1 -1 8200 1;
#X obj 362 216 select 0 1 2 3 4 5 6 7;
#X obj 505 270 vsl 15 128 0 127 0 0 empty empty empty 0 -9 0 10 -262144
-1 -1 7700 1;
#X obj 388 256 f;
#X obj 418 256 f;
#X obj 528 270 vsl 15 128 0 127 0 0 empty empty empty 0 -9 0 10 -262144
-1 -1 7500 1;
#X obj 554 270 vsl 15 128 0 127 0 0 empty empty empty 0 -9 0 10 -262144
-1 -1 7700 1;
#X obj 445 256 f;
#X obj 579 270 vsl 15 128 0 127 0 0 empty empty empty 0 -9 0 10 -262144
-1 -1 7700 1;
#X obj 478 245 f;
#X obj 362 314 mtof;
#X obj 362 360 phasor~;
#X obj 457 108 nbx 5 14 -1e+37 1e+37 0 0 empty empty empty 0 -8 0 10
-262144 -1 -1 8 256;
#X obj 173 130 nbx 5 14 -1e+37 1e+37 0 0 empty empty empty 0 -8 0 10
-262144 -1 -1 8 256;
#X obj 361 156 mod;
#X obj 81 176 mod;
#X floatatom 29 170 5 0 0 0 - - -;
#X obj 28 92 tgl 15 0 empty empty empty 17 7 0 10 -262144 -1 -1 0 1
;
#X text 47 90 I/O;
#X floatatom 295 106 5 0 0 0 - - -;
#X obj 305 69 tgl 15 0 empty empty empty 17 7 0 10 -262144 -1 -1 0
1;
#X text 324 67 I/O;
#X connect 0 0 3 0;
#X connect 1 0 0 0;
#X connect 2 0 0 1;
#X connect 3 0 4 0;
#X connect 3 0 42 0;
#X connect 4 0 3 1;
#X connect 5 0 11 0;
#X connect 6 0 7 0;
#X connect 7 0 8 0;
#X connect 8 0 9 0;
#X connect 10 0 6 1;
#X connect 11 0 6 0;
#X connect 11 1 13 0;
#X connect 11 3 19 0;
#X connect 11 5 14 0;
#X connect 11 7 17 0;
#X connect 12 0 13 1;
#X connect 13 0 7 0;
#X connect 14 0 7 0;
#X connect 15 0 14 1;
#X connect 16 0 17 1;
#X connect 17 0 11 0;
#X connect 17 0 7 0;
#X connect 18 0 19 1;
#X connect 19 0 7 0;
#X connect 20 0 23 0;
#X connect 21 0 20 0;
#X connect 22 0 20 1;
#X connect 23 0 24 0;
#X connect 23 0 41 0;
#X connect 24 0 23 1;
#X connect 25 0 28 0;
#X connect 26 0 37 0;
#X connect 27 0 26 1;
#X connect 28 0 26 0;
#X connect 28 1 30 0;
#X connect 28 3 36 0;
#X connect 28 5 31 0;
#X connect 28 7 34 0;
#X connect 29 0 30 1;
#X connect 30 0 37 0;
#X connect 31 0 37 0;
#X connect 32 0 31 1;
#X connect 33 0 34 1;
#X connect 34 0 28 0;
#X connect 34 0 37 0;
#X connect 35 0 36 1;
#X connect 37 0 38 0;
#X connect 38 0 9 1;
#X connect 39 0 41 1;
#X connect 40 0 42 1;
#X connect 41 0 25 0;
#X connect 42 0 5 0;
#X connect 43 0 7 0;
#X connect 43 0 8 0;
#X connect 44 0 43 0;
#X connect 46 0 37 0;
#X connect 46 0 38 0;
#X connect 47 0 46 0;
