#N canvas 685 22 649 468 10;
#X obj 80 115 metro;
#X obj 79 89 tgl 15 0 empty empty empty 17 7 0 10 -262144 -1 -1 0 1
;
#X obj 107 89 nbx 5 14 -1e+37 1e+37 0 0 empty empty empty 0 -8 0 10
-262144 -1 -1 190 256;
#X obj 80 143 f;
#X obj 114 143 + 1;
#X obj 81 204 hradio 16 1 0 8 empty empty empty 0 -8 0 10 -262144 -1
-1 3;
#X obj 80 275 f;
#X obj 79 307 mtof;
#X obj 79 353 phasor~;
#X obj 81 448 dac~;
#X obj 200 290 vsl 15 128 0 127 0 0 empty empty empty 0 -9 0 10 -262144
-1 -1 4200 1;
#X obj 82 236 select 0 1 2 3 4 5 6 7;
#X obj 225 290 vsl 15 128 0 127 0 0 empty empty empty 0 -9 0 10 -262144
-1 -1 4100 1;
#X obj 108 276 f;
#X obj 138 276 f;
#X obj 248 290 vsl 15 128 0 127 0 0 empty empty empty 0 -9 0 10 -262144
-1 -1 4000 1;
#X obj 274 290 vsl 15 128 0 127 0 0 empty empty empty 0 -9 0 10 -262144
-1 -1 4200 1;
#X obj 165 276 f;
#X obj 299 290 vsl 15 128 0 127 0 0 empty empty empty 0 -9 0 10 -262144
-1 -1 4000 1;
#X obj 198 265 f;
#X obj 104 388 * 1.9;
#X obj 81 411 bp~ 250 8;
#X obj 360 95 metro;
#X obj 359 69 tgl 15 0 empty empty empty 17 7 0 10 -262144 -1 -1 0
1;
#X obj 387 69 nbx 5 14 -1e+37 1e+37 0 0 empty empty empty 0 -8 0 10
-262144 -1 -1 212 256;
#X obj 360 123 f;
#X obj 394 123 + 1;
#X obj 361 184 hradio 16 1 0 8 empty empty empty 0 -8 0 10 -262144
-1 -1 2;
#X obj 360 255 f;
#X obj 480 270 vsl 15 128 0 127 0 0 empty empty empty 0 -9 0 10 -262144
-1 -1 4200 1;
#X obj 362 216 select 0 1 2 3 4 5 6 7;
#X obj 505 270 vsl 15 128 0 127 0 0 empty empty empty 0 -9 0 10 -262144
-1 -1 4000 1;
#X obj 388 256 f;
#X obj 418 256 f;
#X obj 528 270 vsl 15 128 0 127 0 0 empty empty empty 0 -9 0 10 -262144
-1 -1 3700 1;
#X obj 554 270 vsl 15 128 0 127 0 0 empty empty empty 0 -9 0 10 -262144
-1 -1 4300 1;
#X obj 445 256 f;
#X obj 579 270 vsl 15 128 0 127 0 0 empty empty empty 0 -9 0 10 -262144
-1 -1 4300 1;
#X obj 478 245 f;
#X obj 81 176 mod 5;
#X obj 361 156 mod 5;
#X connect 0 0 3 0;
#X connect 1 0 0 0;
#X connect 2 0 0 1;
#X connect 3 0 4 0;
#X connect 3 0 39 0;
#X connect 4 0 3 1;
#X connect 5 0 11 0;
#X connect 6 0 7 0;
#X connect 7 0 8 0;
#X connect 7 0 20 0;
#X connect 8 0 21 0;
#X connect 10 0 6 1;
#X connect 11 0 6 0;
#X connect 11 1 13 0;
#X connect 11 3 19 0;
#X connect 11 5 14 0;
#X connect 11 7 17 0;
#X connect 12 0 13 1;
#X connect 13 0 7 0;
#X connect 14 0 7 0;
#X connect 15 0 14 1;
#X connect 16 0 17 1;
#X connect 17 0 11 0;
#X connect 17 0 7 0;
#X connect 18 0 19 1;
#X connect 19 0 7 0;
#X connect 20 0 21 1;
#X connect 21 0 9 0;
#X connect 21 0 9 1;
#X connect 22 0 25 0;
#X connect 23 0 22 0;
#X connect 24 0 22 1;
#X connect 25 0 26 0;
#X connect 25 0 40 0;
#X connect 26 0 25 1;
#X connect 27 0 30 0;
#X connect 28 0 7 0;
#X connect 29 0 28 1;
#X connect 30 0 28 0;
#X connect 30 1 32 0;
#X connect 30 3 38 0;
#X connect 30 5 33 0;
#X connect 30 7 36 0;
#X connect 31 0 32 1;
#X connect 32 0 7 0;
#X connect 33 0 7 0;
#X connect 34 0 33 1;
#X connect 35 0 36 1;
#X connect 36 0 30 0;
#X connect 36 0 7 0;
#X connect 37 0 38 1;
#X connect 39 0 5 0;
#X connect 40 0 27 0;
