#N canvas 216 54 786 675 10;
#X obj 253 12 ctlin;
#X floatatom 253 45 5 0 0 0 - - -;
#X obj 203 648 dac~ 1 2;
#X obj 203 615 *~;
#X obj 236 615 *~;
#X obj 335 573 vsl 10 50 0 1 0 0 empty empty empty 0 -9 0 10 -262144
-1 -1 900 1;
#N canvas 0 0 450 300 (subpatch) 0;
#X array channelL 170888 float 2;
#X coords 0 1 170888 -1 200 140 1;
#X restore 455 94 graph;
#N canvas 0 22 450 300 (subpatch) 0;
#X array channelR 170888 float 2;
#X coords 0 1 170888 -1 200 140 1;
#X restore 455 235 graph;
#X obj 165 68 bng 15 250 50 0 empty empty empty 17 7 0 10 -262144 -1
-1;
#X obj 169 98 openpanel;
#X floatatom 173 185 12 0 0 0 - - -;
#X msg 170 126 read -resize \$1 channelL channelR;
#X obj 170 154 soundfiler;
#X obj 162 243 expr 44100 / $f1;
#X obj 187 215 s sampleSize;
#X floatatom 176 272 12 0 0 0 - - -;
#X obj 161 347 phasor~;
#X obj 167 388 *~;
#X obj 190 369 r sampleSize;
#X obj 167 546 tabread4~ channelL;
#X obj 182 574 tabread4~ channelR;
#X obj 221 414 snapshot~;
#X obj 227 394 metro 50;
#X obj 310 356 bng 15 250 50 0 empty empty empty 17 7 0 10 -262144
-1 -1;
#X floatatom 223 442 12 0 0 0 - - -;
#X obj 227 489 /;
#X floatatom 229 522 5 0 0 0 - - -;
#X obj 251 470 r sampleSize;
#X obj 458 375 hsl 195 15 0 1 0 0 empty empty empty -2 -8 0 10 -262144
-1 -1 18954 1;
#X obj 322 267 hsl 128 15 -1 1 0 0 empty empty empty -2 -8 0 10 -262144
-1 -1 4189 1;
#X floatatom 335 314 5 0 0 0 - - -;
#X msg 322 238 0.258064;
#X text 321 213 plybck speed;
#X msg 75 341 1;
#X msg 75 316 0;
#X msg 236 304 0;
#X msg 284 306 0.5;
#X connect 0 0 1 0;
#X connect 3 0 2 0;
#X connect 4 0 2 1;
#X connect 5 0 3 1;
#X connect 5 0 4 1;
#X connect 8 0 9 0;
#X connect 9 0 11 0;
#X connect 10 0 14 0;
#X connect 11 0 12 0;
#X connect 12 0 10 0;
#X connect 12 0 13 0;
#X connect 13 0 15 0;
#X connect 13 0 16 0;
#X connect 16 0 17 0;
#X connect 17 0 19 0;
#X connect 17 0 20 0;
#X connect 17 0 21 0;
#X connect 18 0 17 1;
#X connect 19 0 3 0;
#X connect 20 0 4 0;
#X connect 21 0 24 0;
#X connect 22 0 21 0;
#X connect 23 0 22 0;
#X connect 24 0 25 0;
#X connect 25 0 26 0;
#X connect 26 0 28 0;
#X connect 27 0 25 1;
#X connect 29 0 30 0;
#X connect 30 0 16 0;
#X connect 31 0 29 0;
#X connect 33 0 16 0;
#X connect 34 0 16 0;
#X connect 35 0 16 1;
#X connect 36 0 16 1;
