#N canvas 337 22 887 706 10;
#X obj -53 345 ctlin;
#X obj -95 652 dac~ 1 2;
#X obj -95 619 *~;
#X obj -62 619 *~;
#X obj -35 607 vsl 50 50 0 1 0 0 empty empty MSTR_VOL 0 -9 0 10 -262144
-1 -1 3000 1;
#N canvas 0 0 450 300 (subpatch) 0;
#X array c1 256332 float 0;
#X coords 0 1 256331 -1 55 55 1;
#X restore 112 436 graph;
#N canvas 0 22 450 300 (subpatch) 0;
#X array channel3 256332 float 0;
#X coords 0 1 256331 -1 55 55 1;
#X restore 681 132 graph;
#X obj 117 262 bng 15 250 50 0 empty empty empty 17 7 0 10 -262144
-1 -1;
#X obj -53 -6 openpanel;
#X floatatom -43 61 12 0 0 0 - - -;
#X obj -52 104 expr 44100 / $f1;
#X obj -43 82 s sampleSize;
#X floatatom -41 128 12 0 0 0 - - -;
#X obj -52 150 phasor~;
#X obj -94 197 *~;
#X obj -23 196 r sampleSize;
#X obj -87 232 snapshot~;
#X obj 27 237 metro 50;
#X floatatom -53 262 12 0 0 0 - - -;
#X obj -53 283 /;
#X floatatom -53 305 5 0 0 0 - - -;
#X obj -24 290 r sampleSize;
#X obj 114 500 hsl 50 10 0 1 0 0 empty empty empty -2 -8 0 10 -262144
-1 -1 2290 1;
#X obj 35 484 hsl 55 20 -1 1 0 0 empty empty empty -2 -8 0 10 -262144
-1 -1 2754 1;
#X floatatom -43 175 5 0 0 0 - - -;
#X msg 120 614 0.258064;
#X text 97 596 plybck speed;
#X msg 24 150 1;
#X msg -2 150 0;
#X msg -2 172 0;
#X floatatom -17 375 5 0 0 0 - - -;
#X obj -53 367 / 100;
#X text 62 618 orig:;
#X text -53 325 MIDI;
#X obj -53 38 soundfiler;
#X msg 24 172 0.5;
#X text 118 574 OPEN;
#X obj -17 353 t b f;
#X obj -54 411 ctlin;
#X floatatom -14 433 5 0 0 0 - - -;
#X obj -54 433 / 100;
#X obj -14 411 t b f;
#X text 53 149 PLY/POZ;
#X text 53 168 JUMP;
#X obj 202 -25 cnv 15 115 700 empty empty empty 20 12 0 14 -260097
-66577 0;
#X obj 204 387 ctlin;
#X obj 205 47 openpanel;
#X floatatom 217 121 12 0 0 0 - - -;
#X obj 205 161 expr 44100 / $f1;
#X floatatom 216 182 12 0 0 0 - - -;
#X obj 205 204 phasor~;
#X obj 205 244 *~;
#X obj 204 288 snapshot~;
#X obj 264 288 metro 50;
#X floatatom 204 309 12 0 0 0 - - -;
#X obj 204 329 /;
#X floatatom 282 310 5 0 0 0 - - -;
#X floatatom 217 224 5 0 0 0 - - -;
#X msg 281 204 1;
#X msg 255 204 0;
#X msg 255 226 0;
#X text 204 373 MIDI;
#X obj 206 100 soundfiler;
#X msg 281 226 0.5;
#X obj 204 408 t b f;
#X obj 205 453 ctlin;
#X obj 244 453 / 100;
#X obj 204 475 t b f;
#N canvas 0 22 450 300 (subpatch) 0;
#X array c2 170888 float 0;
#X coords 0 1 170887 -1 115 55 1;
#X restore 369 26 graph;
#X obj 372 80 hsl 110 15 0 1 0 0 empty empty empty -2 -8 0 10 -262144
-1 -1 4642 1;
#X obj 458 126 hsl 110 20 -1 1 0 0 empty empty plybck_spd -2 -8 0 10
-260097 -1 -1 5559 1;
#X msg 515 77 0.258064;
#X text 387 -8 OPEN;
#X obj 368 -7 bng 15 250 50 0 empty empty empty 17 7 0 10 -262144 -1
-1;
#X obj 243 387 / 100;
#X obj 205 495 hsl 110 20 -1 1 0 0 empty empty empty -2 -8 0 10 -262144
-1 -1 5559 1;
#X msg 242 475 0.258064;
#X text 201 632;
#X text 297 475 RE;
#X obj 642 199 tabread4~ channel3;
#X msg -52 15 read -resize \$1 c1;
#X obj -13 217 tabread4~ c1;
#X obj 205 268 tabread4~ c2;
#X obj 205 -24 inlet;
#X obj 206 -4 inlet;
#X obj 246 -25 t b b;
#X msg 202 66 read -resize \$1 c2;
#X obj 217 141 s sampleSize2;
#X obj 232 246 r sampleSize2;
#X obj 230 330 r sampleSize2;
#X obj 294 269 bng 15 250 50 0 empty empty empty 17 7 0 10 -262144
-1 -1;
#X obj 106 213 bng 15 250 50 0 empty empty empty 17 7 0 10 -262144
-1 -1;
#X obj 207 542 outlet;
#X obj 251 541 t b f;
#X obj 208 566 outlet;
#X obj 252 565 t b f;
#X obj 246 -4 t b f;
#X connect 0 0 31 0;
#X connect 2 0 1 0;
#X connect 3 0 1 1;
#X connect 4 0 2 1;
#X connect 4 0 3 1;
#X connect 7 0 8 0;
#X connect 8 0 80 0;
#X connect 9 0 11 0;
#X connect 10 0 12 0;
#X connect 10 0 13 0;
#X connect 13 0 14 0;
#X connect 14 0 16 0;
#X connect 14 0 81 0;
#X connect 15 0 14 1;
#X connect 16 0 18 0;
#X connect 17 0 16 0;
#X connect 18 0 19 0;
#X connect 19 0 20 0;
#X connect 20 0 22 0;
#X connect 21 0 19 1;
#X connect 23 0 24 0;
#X connect 24 0 13 0;
#X connect 25 0 23 0;
#X connect 27 0 13 0;
#X connect 28 0 13 0;
#X connect 29 0 13 1;
#X connect 30 0 24 0;
#X connect 31 0 30 0;
#X connect 31 0 37 0;
#X connect 34 0 9 0;
#X connect 34 0 10 0;
#X connect 35 0 13 1;
#X connect 37 1 23 0;
#X connect 38 0 40 0;
#X connect 40 0 39 0;
#X connect 40 0 41 0;
#X connect 45 0 74 0;
#X connect 46 0 86 0;
#X connect 47 0 87 0;
#X connect 48 0 49 0;
#X connect 48 0 50 0;
#X connect 50 0 51 0;
#X connect 51 0 52 0;
#X connect 51 0 82 0;
#X connect 52 0 54 0;
#X connect 53 0 52 0;
#X connect 54 0 55 0;
#X connect 55 0 56 0;
#X connect 56 0 93 0;
#X connect 57 0 50 0;
#X connect 58 0 50 0;
#X connect 59 0 50 0;
#X connect 60 0 50 1;
#X connect 62 0 47 0;
#X connect 62 0 48 0;
#X connect 63 0 50 1;
#X connect 64 1 95 0;
#X connect 65 0 66 0;
#X connect 66 0 67 0;
#X connect 67 1 75 0;
#X connect 70 0 96 0;
#X connect 71 0 70 0;
#X connect 73 0 85 0;
#X connect 74 0 64 0;
#X connect 74 0 57 0;
#X connect 76 0 75 0;
#X connect 80 0 34 0;
#X connect 81 0 2 0;
#X connect 82 0 3 0;
#X connect 83 0 85 0;
#X connect 84 0 96 0;
#X connect 85 0 46 0;
#X connect 86 0 62 0;
#X connect 88 0 51 1;
#X connect 89 0 55 1;
#X connect 90 0 53 0;
#X connect 91 0 17 0;
#X connect 93 0 92 0;
#X connect 93 1 69 0;
#X connect 95 0 94 0;
#X connect 95 1 70 0;
#X connect 96 1 57 0;
