#N canvas 709 100 450 369 10;
#X obj 13 192 mtof;
#X obj 13 213 phasor~;
#X obj 13 308 dac~;
#X text 51 307 AUDIO OUT;
#X obj 13 48 loadbang;
#X msg 375 80 \; pd dsp 1;
#X obj 303 38 loadbang;
#X obj 349 122 print Running;
#X obj 303 63 delay 100;
#X text 8 338 $ pd -nogui -alsa nogui_testtone.pd;
#X obj 83 222 mtof;
#X obj 83 243 phasor~;
#X obj 83 162 random 40;
#X obj 83 191 + 40;
#X obj 13 96 metro 666;
#X obj 83 134 metro 666;
#X obj 76 48 bng 15 250 50 0 empty empty empty 17 7 0 10 -262144 -1
-1;
#X obj 171 270 mtof;
#X obj 171 291 phasor~;
#X obj 176 118 metro 666;
#X obj 199 201 % 2;
#X obj 146 218 spigot;
#X obj 199 224 select 0;
#X msg 199 248 -1000;
#X text 313 16 http://lacuna.club;
#X obj 256 161 * 100;
#X obj 108 109 * 100;
#X obj 159 245 line;
#X obj 256 135 random 10;
#X obj 176 175 + 10;
#X obj 176 146 random 100;
#X obj 13 161 + 30;
#X obj 13 132 random 15;
#X obj 108 86 random 30;
#X text 13 8 EXPECTED FLOAT BUT GOT BANG;
#X text 12 27 generative shit by 3dwardsharp;
#X connect 0 0 1 0;
#X connect 1 0 2 0;
#X connect 4 0 14 0;
#X connect 4 0 33 0;
#X connect 4 0 19 0;
#X connect 4 0 15 0;
#X connect 6 0 8 0;
#X connect 8 0 5 0;
#X connect 8 0 7 0;
#X connect 10 0 11 0;
#X connect 11 0 2 1;
#X connect 12 0 13 0;
#X connect 13 0 10 0;
#X connect 14 0 32 0;
#X connect 15 0 12 0;
#X connect 15 0 33 0;
#X connect 16 0 15 0;
#X connect 16 0 14 0;
#X connect 16 0 19 0;
#X connect 17 0 18 0;
#X connect 18 0 2 0;
#X connect 18 0 2 1;
#X connect 19 0 28 0;
#X connect 19 0 30 0;
#X connect 20 0 21 1;
#X connect 20 0 22 0;
#X connect 21 0 27 0;
#X connect 22 0 23 0;
#X connect 23 0 17 0;
#X connect 25 0 19 1;
#X connect 25 0 27 1;
#X connect 26 0 15 1;
#X connect 27 0 17 0;
#X connect 28 0 25 0;
#X connect 29 0 20 0;
#X connect 29 0 21 0;
#X connect 30 0 29 0;
#X connect 31 0 0 0;
#X connect 32 0 31 0;
#X connect 33 0 26 0;
