#N canvas 243 22 430 654 10;
#X floatatom -90 -137 5 0 0 0 - - -;
#X floatatom -90 200 10 0 0 0 - - -;
#X msg -71 -113 0;
#X msg -61 -94 1;
#X msg -52 -74 2;
#X text -27 -110 counter direction;
#X text -4 -98 0 = up;
#X text -4 -86 1 = down;
#X text -4 -74 2 = up and down;
#X floatatom -43 -34 5 0 0 0 - - -;
#X floatatom -35 -17 5 0 0 0 - - -;
#X floatatom -28 1 5 0 0 0 - - -;
#X text 15 2 set max;
#X text 10 -19 set counter value;
#X msg -185 -23 up;
#X msg -172 -3 down;
#X msg -151 16 updown;
#X text -189 -40 direction:;
#X msg -170 -82 inc;
#X msg -189 -102 dec;
#X text -254 -131 inc/decrement doesn't;
#X text -254 -120 care about direction;
#X msg 67 -138 next;
#X text -44 -137 number = bang =;
#X text 2 -36 set min **;
#X obj -90 173 counter;
#X obj -7 111 metro;
#X obj -7 83 tgl 15 0 empty empty empty 17 7 0 10 -262144 -1 -1 1 1
;
#X obj 20 84 nbx 5 14 -1e+37 1e+37 0 0 empty empty empty 0 -8 0 10
-262144 -1 -1 432 256;
#X msg -201 124 draw line;
#X msg -201 145 draw fill;
#X msg -201 167 draw point;
#X obj -243 96 gemhead;
#X obj -243 231 triangle 2;
#X msg -135 455 text \$1;
#X floatatom 34 345 5 -10 10 0 - - -;
#X floatatom -7 340 3 -3.5 3.5 0 - - -;
#X obj -70 341 gemhead;
#X floatatom -33 460 5 0 1000 1 size - -;
#X msg -44 411 alias \$1;
#X obj -44 393 tgl 15 0 empty empty empty 0 -6 0 8 -262144 -1 -1 0
1;
#X obj -70 362 translateXYZ;
#X obj -70 481 text2d;
#X msg -43 437 justify base;
#X obj -138 421 * 66;
#X msg 40 382 text;
#X text 83 382 clear;
#X text -241 440 counter hookup;
#X text 84 82 speed;
#X obj -240 275 bng 15 250 50 0 empty empty empty 17 7 0 10 -262144
-1 -1;
#X obj 113 269 bng 15 250 50 0 empty empty empty 17 7 0 10 -262144
-1 -1;
#X text -95 298 --- TXT THINGY ---;
#X connect 0 0 25 0;
#X connect 2 0 25 1;
#X connect 3 0 25 1;
#X connect 4 0 25 1;
#X connect 9 0 25 2;
#X connect 10 0 25 3;
#X connect 11 0 25 4;
#X connect 14 0 25 0;
#X connect 15 0 25 0;
#X connect 16 0 25 0;
#X connect 18 0 25 0;
#X connect 19 0 25 0;
#X connect 25 0 1 0;
#X connect 25 0 33 1;
#X connect 26 0 25 0;
#X connect 27 0 26 0;
#X connect 28 0 26 1;
#X connect 29 0 33 0;
#X connect 30 0 33 0;
#X connect 31 0 33 0;
#X connect 32 0 33 0;
#X connect 34 0 42 0;
#X connect 35 0 41 3;
#X connect 36 0 41 1;
#X connect 37 0 41 0;
#X connect 38 0 42 1;
#X connect 39 0 42 0;
#X connect 40 0 39 0;
#X connect 41 0 42 0;
#X connect 43 0 42 0;
#X connect 44 0 38 0;
#X connect 45 0 42 0;
#X connect 49 0 50 0;
