#N canvas 712 128 457 527 10;
#X obj 4 101 cnv 15 240 380 empty empty empty 20 12 0 14 -24198 -66577
0;
#X obj 14 14 gemhead;
#X floatatom 63 44 5 0 0 0 - - -;
#X obj 14 71 rotateXYZ 135 0 0;
#X msg 39 126 draw line;
#X msg 48 148 draw fill;
#X msg 57 170 width 1;
#X msg 65 192 width 10;
#X floatatom 88 266 5 0 0 1 D1 - -;
#X msg 30 104 draw point;
#X floatatom 98 285 5 0 0 1 D2 - -;
#X floatatom 108 304 5 0 0 1 H - -;
#X floatatom 118 323 5 0 0 1 Tx - -;
#X floatatom 126 342 5 0 0 1 Ty - -;
#X floatatom 134 361 5 0 0 1 R1x - -;
#X floatatom 143 380 5 0 0 1 R1y - -;
#X floatatom 152 399 5 0 0 1 R2x - -;
#X floatatom 161 418 5 0 0 1 R2y - -;
#X floatatom 118 44 5 0 0 0 - - -;
#X floatatom 174 44 5 0 0 0 - - -;
#X msg 78 238 numslices \$1;
#X floatatom 78 217 5 0 100 1 - - -;
#X obj 358 40 adc~;
#X obj 358 72 env~;
#X obj 358 102 nbx 5 14 -1e+37 1e+37 0 0 empty empty empty 0 -8 0 10
-262144 -1 -1 51.6521 256;
#X obj 358 157 nbx 5 14 -1e+37 1e+37 0 0 empty empty empty 0 -8 0 10
-262144 -1 -1 2.06609 256;
#X obj 332 244 nbx 5 14 -1e+37 1e+37 0 0 empty empty empty 0 -8 0 10
-262144 -1 -1 205.725 256;
#X obj 358 127 / 25;
#X obj 358 185 average 5;
#X obj 347 216 * 100;
#X obj 14 456 tube 0 0 0 0;
#X connect 1 0 3 0;
#X connect 2 0 3 1;
#X connect 3 0 30 0;
#X connect 4 0 30 0;
#X connect 5 0 30 0;
#X connect 6 0 30 0;
#X connect 7 0 30 0;
#X connect 8 0 30 1;
#X connect 9 0 30 0;
#X connect 10 0 30 2;
#X connect 11 0 30 3;
#X connect 12 0 30 4;
#X connect 13 0 30 5;
#X connect 14 0 30 6;
#X connect 15 0 30 7;
#X connect 16 0 30 8;
#X connect 17 0 30 9;
#X connect 18 0 3 2;
#X connect 19 0 3 3;
#X connect 20 0 30 0;
#X connect 21 0 20 0;
#X connect 22 0 23 0;
#X connect 23 0 24 0;
#X connect 24 0 27 0;
#X connect 24 0 18 0;
#X connect 25 0 28 0;
#X connect 26 0 11 0;
#X connect 27 0 25 0;
#X connect 28 0 29 0;
#X connect 29 0 26 0;
#X connect 29 0 2 0;
