#N canvas 724 22 302 308 10;
#X obj 36 136 gemwin;
#X msg 15 17 create \, 1;
#X msg 38 40 destroy;
#X msg 50 62 dimen 800 600;
#X obj 202 34 adc~;
#X obj 202 66 env~;
#X obj 202 96 nbx 5 14 -1e+37 1e+37 0 0 empty empty empty 0 -8 0 10
-262144 -1 -1 53.9449 256;
#X obj 202 151 nbx 5 14 -1e+37 1e+37 0 0 empty empty empty 0 -8 0 10
-262144 -1 -1 2.1578 256;
#X obj 202 208 nbx 5 14 -1e+37 1e+37 0 0 empty empty empty 0 -8 0 10
-262144 -1 -1 2.19683 256;
#X obj 202 121 / 25;
#X obj 202 179 average 5;
#X obj 127 233 gemhead;
#X obj 127 270 rectangle 0.2 0.2;
#X connect 1 0 0 0;
#X connect 2 0 0 0;
#X connect 3 0 0 0;
#X connect 4 0 5 0;
#X connect 5 0 6 0;
#X connect 6 0 9 0;
#X connect 7 0 10 0;
#X connect 8 0 12 2;
#X connect 9 0 7 0;
#X connect 10 0 8 0;
#X connect 11 0 12 0;
