#N canvas 601 23 679 748 10;
#X obj 138 201 nbx 5 14 -1e+37 1e+37 0 0 empty empty empty 0 -8 0 10
-262144 -1 -1 0 256;
#X msg 156 143 0 0;
#X obj 46 227 s hr_up;
#X obj 126 230 s hr_down;
#X obj 58 201 nbx 5 14 -1e+37 1e+37 0 0 empty empty empty 0 -8 0 10
-262144 -1 -1 256 256;
#X msg 76 143 0 0;
#X obj 46 172 line 0 0;
#X obj 191 225 select 0;
#X obj 200 252 bng 15 250 50 0 empty empty empty 17 7 0 10 -262144
-1 -1;
#X obj 191 270 s hr_bang_off;
#X obj 126 172 line 63 0;
#X msg 146 122 63 0;
#X msg 130 81 63 90000;
#X msg 140 101 0 90000;
#X msg 60 101 0 90000;
#X msg 50 81 256 90000;
#X msg 66 122 256 0;
#X obj 290 294 s hr_bang_off_dly;
#X obj 145 -41 bng 100 250 50 0 empty empty START 5 -15 0 30 -260097
-33289 -33289;
#X obj 296 284 bng 15 250 50 0 empty empty empty 17 7 0 10 -262144
-1 -1;
#X obj 37 45 s hr_first_off;
#X msg 37 19 0;
#X obj 211 173 line 500 10;
#X msg 242 131 10 0;
#X msg 251 152 500 0;
#X obj 291 222 s hr_pan_lfo_down;
#X obj 249 199 nbx 5 14 -1e+37 1e+37 0 0 empty empty empty 0 -8 0 10
-262144 -1 -1 10 256;
#X obj 283 250 delay 15000;
#X msg 221 84 10 10000;
#X msg 234 107 500 10000;
#X obj 316 44 bng 15 250 50 0 empty empty reset 17 7 0 10 -262144 -1
-1;
#X obj 412 190 line;
#X obj 457 191 line;
#X obj 502 190 line;
#X obj 547 191 line;
#X obj 412 230 line;
#X obj 457 231 line;
#X obj 502 230 line;
#X obj 547 231 line;
#X obj 482 289 spigot;
#X obj 515 268 tgl 15 0 empty empty empty 17 7 0 10 -262144 -1 -1 0
1;
#X text 492 265 ch7;
#X obj 532 289 spigot;
#X obj 565 268 tgl 15 0 empty empty empty 17 7 0 10 -262144 -1 -1 0
1;
#X text 542 265 ch8;
#X obj 17 374 uDMX-8ch-ch1;
#X obj 391 383 uDMX-8ch-ch2;
#N canvas 571 23 700 496 fiddle_gutz 0;
#X obj -385 52 autoscale 0 255;
#X obj -240 -206 adc~ 1;
#X obj -118 -92 unpack;
#X floatatom 104 136 0 0 0 0 - - -;
#X floatatom 104 203 0 0 0 0 - - -;
#X obj -118 -132 route 1 2 3 4;
#X obj -35 -92 unpack;
#X floatatom -35 -42 0 0 0 0 - - -;
#X floatatom -21 -65 0 0 0 0 - - -;
#X obj 49 -92 unpack;
#X floatatom 104 180 0 0 0 0 - - -;
#X floatatom 104 158 0 0 0 0 - - -;
#X obj -260 -92 unpack;
#X floatatom -260 -42 0 0 0 0 - - -;
#X floatatom -246 -65 0 0 0 0 - - -;
#X floatatom 104 226 0 0 0 0 - - -;
#X text 20 -173 number of pitch outlets (1-3 \, default 1);
#X text 20 -151 number of peaks to find (1-100 \, default 20);
#X text 20 -129 number of peaks to output (default 0.);
#X obj -239 -163 fiddle~ 1024 1 20 3;
#X text -111 -18 individual sinusoidal components;
#X text -183 -20 amplitude;
#X text -173 -5 (dB);
#X text -260 -20 raw pitch;
#X text -273 4 and amplitude;
#X text -104 -163 ------ arguments:;
#X text 20 -195 window size (128-2048 \, default 1024);
#X obj -126 130 autoscale 0 255;
#X obj -122 32 autoscale 0 255;
#X obj -272 105 autoscale 0 255;
#X obj -349 80 autoscale 0 255;
#X obj -120 79 autoscale 0 255;
#X obj -371 107 + 50;
#X obj -347 -135 spigot~;
#X obj -382 150 outlet;
#X obj -332 151 outlet;
#X obj -282 151 outlet;
#X obj -232 151 outlet;
#X obj -182 151 outlet;
#X obj 164 118 tgl 15 0 empty empty empty 17 7 0 10 -262144 -1 -1 1
1;
#X text 105 116 adc 1 i/o;
#X obj -374 -189 inlet;
#X connect 0 0 32 0;
#X connect 1 0 33 0;
#X connect 2 0 3 0;
#X connect 2 1 4 0;
#X connect 3 0 0 0;
#X connect 4 0 28 0;
#X connect 5 0 2 0;
#X connect 5 1 6 0;
#X connect 5 2 9 0;
#X connect 6 0 7 0;
#X connect 6 1 8 0;
#X connect 9 0 10 0;
#X connect 9 1 11 0;
#X connect 10 0 29 0;
#X connect 11 0 30 0;
#X connect 12 0 13 0;
#X connect 12 1 14 0;
#X connect 15 0 27 0;
#X connect 19 2 12 0;
#X connect 19 3 15 0;
#X connect 19 4 5 0;
#X connect 27 0 38 0;
#X connect 28 0 37 0;
#X connect 29 0 36 0;
#X connect 30 0 35 0;
#X connect 32 0 34 0;
#X connect 33 1 19 0;
#X connect 39 0 33 1;
#X connect 41 0 39 0;
#X coords 0 -1 1 1 85 150 1 100 100;
#X restore 253 334 pd fiddle_gutz;
#N canvas 571 23 700 496 fiddle_gut2 0;
#X obj -385 52 autoscale 0 255;
#X obj -118 -92 unpack;
#X floatatom 104 136 0 0 0 0 - - -;
#X floatatom 104 203 0 0 0 0 - - -;
#X obj -118 -132 route 1 2 3 4;
#X obj -35 -92 unpack;
#X floatatom -35 -42 0 0 0 0 - - -;
#X floatatom -21 -65 0 0 0 0 - - -;
#X obj 49 -92 unpack;
#X floatatom 104 180 0 0 0 0 - - -;
#X floatatom 104 158 0 0 0 0 - - -;
#X obj -260 -92 unpack;
#X floatatom -260 -42 0 0 0 0 - - -;
#X floatatom -246 -65 0 0 0 0 - - -;
#X floatatom 104 226 0 0 0 0 - - -;
#X text 20 -173 number of pitch outlets (1-3 \, default 1);
#X text 20 -151 number of peaks to find (1-100 \, default 20);
#X text 20 -129 number of peaks to output (default 0.);
#X obj -239 -163 fiddle~ 1024 1 20 3;
#X text -111 -18 individual sinusoidal components;
#X text -183 -20 amplitude;
#X text -173 -5 (dB);
#X text -260 -20 raw pitch;
#X text -273 4 and amplitude;
#X text -104 -163 ------ arguments:;
#X text 20 -195 window size (128-2048 \, default 1024);
#X obj -126 130 autoscale 0 255;
#X obj -122 32 autoscale 0 255;
#X obj -272 105 autoscale 0 255;
#X obj -349 80 autoscale 0 255;
#X obj -120 79 autoscale 0 255;
#X obj -371 107 + 50;
#X obj -347 -135 spigot~;
#X obj -382 150 outlet;
#X obj -332 151 outlet;
#X obj -282 151 outlet;
#X obj -232 151 outlet;
#X obj -182 151 outlet;
#X obj 164 118 tgl 15 0 empty empty empty 17 7 0 10 -262144 -1 -1 0
1;
#X obj -374 -189 inlet;
#X text 105 116 adc 2 i/o;
#X obj -240 -206 adc~ 2;
#X connect 0 0 31 0;
#X connect 1 0 2 0;
#X connect 1 1 3 0;
#X connect 2 0 0 0;
#X connect 3 0 27 0;
#X connect 4 0 1 0;
#X connect 4 1 5 0;
#X connect 4 2 8 0;
#X connect 5 0 6 0;
#X connect 5 1 7 0;
#X connect 8 0 9 0;
#X connect 8 1 10 0;
#X connect 9 0 28 0;
#X connect 10 0 29 0;
#X connect 11 0 12 0;
#X connect 11 1 13 0;
#X connect 14 0 26 0;
#X connect 18 2 11 0;
#X connect 18 3 14 0;
#X connect 18 4 4 0;
#X connect 26 0 37 0;
#X connect 27 0 36 0;
#X connect 28 0 35 0;
#X connect 29 0 34 0;
#X connect 31 0 33 0;
#X connect 32 1 18 0;
#X connect 38 0 32 1;
#X connect 39 0 38 0;
#X connect 41 0 32 0;
#X coords 0 -1 1 1 85 150 1 100 100;
#X restore 252 495 pd fiddle_gut2;
#X obj 411 156 line;
#X msg 463 17 255 500;
#X msg 464 57 255 5000;
#X msg 464 38 0 5000;
#X msg 463 -2 0 500;
#X msg 411 -1 stop;
#X msg 465 79 0 10000;
#X msg 465 98 255 10000;
#X msg 466 139 255 100000;
#X msg 466 120 0 100000;
#X obj 472 171 nbx 5 14 -1e+37 1e+37 0 0 empty empty empty 0 -8 0 10
-262144 -1 -1 255 256;
#X obj 291 -43 tgl 50 0 empty empty GO_BLINK 17 7 0 10 -4034 -1 -1
0 -1;
#X obj 604 193 nbx 5 14 -1e+37 1e+37 0 0 empty empty empty 0 -8 0 10
-262144 -1 -1 0 256;
#X msg 563 124 -1 500;
#X obj 591 48 loadbang;
#X msg 564 101 0 10;
#X obj 187 336 spigot;
#X obj 311 129 select 255;
#X obj 326 167 tgl 15 0 empty empty empty 17 7 0 10 -262144 -1 -1 0
1;
#X obj 362 170 tgl 15 0 empty empty empty 17 7 0 10 -262144 -1 -1 253.98
253.98;
#X connect 1 0 10 0;
#X connect 5 0 6 0;
#X connect 6 0 4 0;
#X connect 6 0 2 0;
#X connect 7 0 8 0;
#X connect 7 0 9 0;
#X connect 7 0 27 0;
#X connect 10 0 0 0;
#X connect 10 0 3 0;
#X connect 10 0 7 0;
#X connect 11 0 10 0;
#X connect 12 0 10 0;
#X connect 13 0 10 0;
#X connect 14 0 6 0;
#X connect 15 0 6 0;
#X connect 16 0 6 0;
#X connect 18 0 13 0;
#X connect 18 0 15 0;
#X connect 18 0 21 0;
#X connect 18 0 28 0;
#X connect 18 0 51 0;
#X connect 18 0 64 0;
#X connect 21 0 20 0;
#X connect 22 0 25 0;
#X connect 22 0 26 0;
#X connect 23 0 22 0;
#X connect 24 0 22 0;
#X connect 27 0 17 0;
#X connect 27 0 19 0;
#X connect 28 0 22 0;
#X connect 29 0 22 0;
#X connect 30 0 24 0;
#X connect 30 0 11 0;
#X connect 30 0 5 0;
#X connect 30 0 53 0;
#X connect 30 0 62 0;
#X connect 34 0 60 0;
#X connect 34 0 61 0;
#X connect 37 0 39 0;
#X connect 38 0 42 0;
#X connect 40 0 39 1;
#X connect 43 0 42 1;
#X connect 47 0 65 0;
#X connect 49 0 59 0;
#X connect 49 0 45 4;
#X connect 49 0 45 5;
#X connect 49 0 45 3;
#X connect 49 0 66 0;
#X connect 50 0 49 0;
#X connect 51 0 49 0;
#X connect 52 0 49 0;
#X connect 53 0 49 0;
#X connect 54 0 49 0;
#X connect 55 0 49 0;
#X connect 56 0 49 0;
#X connect 57 0 49 0;
#X connect 58 0 49 0;
#X connect 60 0 65 1;
#X connect 62 0 34 0;
#X connect 63 0 62 0;
#X connect 64 0 34 0;
#X connect 65 0 45 6;
#X connect 66 0 67 0;
#X connect 66 1 68 0;
