#N canvas 8 41 502 324 10;
#X msg 270 87 bang;
#X obj 270 207 - 1;
#X obj 270 137 f;
#X obj 354 209 + 1;
#X obj 354 139 f;
#X msg 354 85 bang;
#X obj 354 248 s recursion;
#X obj 369 109 r recursion;
#X floatatom 270 247 5 0 0 0 - - -;
#X text 51 31 value;
#X text 311 33 float;
#X obj 47 60 ctlin 52;
#X msg 25 146 bang;
#X obj 140 197 + 1;
#X obj 25 200 - 1;
#X msg 140 147 bang;
#X obj 80 230 t b f;
#X obj 46 114 nbx 5 14 -1e+37 1e+37 0 0 empty empty empty 0 -8 0 10
-262144 -1 -1 127 256;
#X obj 46 129 bng 15 250 50 0 empty empty empty 17 7 0 10 -262144 -1
-1;
#X obj 66 129 bng 15 250 50 0 empty empty empty 17 7 0 10 -262144 -1
-1;
#X obj 85 129 bng 15 250 50 0 empty empty empty 17 7 0 10 -262144 -1
-1;
#X obj 46 88 select 127 1;
#X obj 91 275 nbx 5 14 -1e+37 1e+37 0 0 empty empty empty 0 -8 0 10
-262144 -1 -1 71 256;
#X obj 25 174 v global_counter0;
#X obj 140 173 v global_counter0;
#X obj 91 252 v global_counter0;
#X connect 0 0 2 0;
#X connect 1 0 6 0;
#X connect 1 0 8 0;
#X connect 2 0 1 0;
#X connect 3 0 6 0;
#X connect 3 0 8 0;
#X connect 4 0 3 0;
#X connect 5 0 4 0;
#X connect 7 0 4 1;
#X connect 7 0 2 1;
#X connect 11 0 17 0;
#X connect 11 0 21 0;
#X connect 12 0 23 0;
#X connect 13 0 16 0;
#X connect 14 0 16 0;
#X connect 15 0 24 0;
#X connect 16 0 25 0;
#X connect 16 1 25 0;
#X connect 21 0 18 0;
#X connect 21 0 12 0;
#X connect 21 1 19 0;
#X connect 21 1 15 0;
#X connect 21 2 20 0;
#X connect 23 0 14 0;
#X connect 24 0 13 0;
#X connect 25 0 22 0;
