#N canvas 89 53 678 555 10;
#X obj -400 148 dmx_fiddle;
#X obj -70 190 tgl 15 0 empty empty empty 17 7 0 10 -262144 -1 -1 1
1;
#X obj -405 32 autoscale 0 255;
#X obj -69 155 loadbang;
#X obj -260 -226 adc~ 1;
#X obj -138 -112 unpack;
#X floatatom -138 -62 0 0 0 0 - - -;
#X floatatom -124 -85 0 0 0 0 - - -;
#X obj -138 -152 route 1 2 3 4;
#X obj -55 -112 unpack;
#X floatatom -55 -62 0 0 0 0 - - -;
#X floatatom -41 -85 0 0 0 0 - - -;
#X obj 29 -112 unpack;
#X floatatom 29 -62 0 0 0 0 - - -;
#X floatatom 43 -85 0 0 0 0 - - -;
#X obj -280 -112 unpack;
#X floatatom -280 -62 0 0 0 0 - - -;
#X floatatom -266 -85 0 0 0 0 - - -;
#X floatatom -203 -62 0 0 0 0 - - -;
#X text 0 -193 number of pitch outlets (1-3 \, default 1);
#X text 0 -171 number of peaks to find (1-100 \, default 20);
#X text 0 -149 number of peaks to output (default 0.);
#X obj -259 -183 fiddle~ 1024 1 20 3;
#X text -131 -38 individual sinusoidal components;
#X text -203 -40 amplitude;
#X text -193 -25 (dB);
#X text -280 -40 raw pitch;
#X text -293 -16 and amplitude;
#X text -124 -183 ------ arguments:;
#X text 0 -215 window size (128-2048 \, default 1024);
#X obj -146 110 autoscale 0 255;
#X obj -142 12 autoscale 0 255;
#X obj -292 85 autoscale 0 255;
#X obj -369 60 autoscale 0 255;
#X obj -140 59 autoscale 0 255;
#X obj -391 87 - 50;
#X connect 1 0 0 8;
#X connect 2 0 0 0;
#X connect 2 0 35 0;
#X connect 3 0 1 0;
#X connect 4 0 22 0;
#X connect 5 0 6 0;
#X connect 5 1 7 0;
#X connect 6 0 2 0;
#X connect 7 0 31 0;
#X connect 8 0 5 0;
#X connect 8 1 9 0;
#X connect 8 2 12 0;
#X connect 9 0 10 0;
#X connect 9 1 11 0;
#X connect 12 0 13 0;
#X connect 12 1 14 0;
#X connect 13 0 32 0;
#X connect 14 0 33 0;
#X connect 15 0 16 0;
#X connect 15 1 17 0;
#X connect 18 0 30 0;
#X connect 22 2 15 0;
#X connect 22 3 18 0;
#X connect 22 4 8 0;
#X connect 30 0 0 7;
#X connect 32 0 0 3;
#X connect 33 0 0 1;
#X connect 35 0 0 2;
