#N canvas 20 23 1280 751 10;
#X declare -lib mrpeach;
#X obj 609 -69 import mrpeach;
#X obj 913 295 udpsend;
#X obj 670 3 vsl 15 128 0 1 0 0 empty empty empty 0 -9 0 10 -262144
-1 -1 3067 1;
#X obj 694 4 vsl 15 128 0 1 0 0 empty empty empty 0 -9 0 10 -262144
-1 -1 0 1;
#X obj 617 3 vsl 15 128 0 1 0 0 empty empty empty 0 -9 0 10 -262144
-1 -1 0 1;
#X obj 718 4 vsl 15 128 0 1 0 0 empty empty empty 0 -9 0 10 -262144
-1 -1 0 1;
#X obj 742 3 vsl 15 128 0 1 0 0 empty empty empty 0 -9 0 10 -262144
-1 -1 0 1;
#X obj 766 4 vsl 15 128 0 1 0 0 empty empty empty 0 -9 0 10 -262144
-1 -1 3785 1;
#X obj 941 1 vsl 15 128 0 50 0 0 empty empty empty 0 -9 0 10 -262144
-1 -1 832 1;
#X text 914 -40 5 tones - offset 0-127 mapped 0-50;
#X obj 965 1 vsl 15 128 0 50 0 0 empty empty empty 0 -9 0 10 -262144
-1 -1 0 1;
#X obj 989 1 vsl 15 128 0 50 0 0 empty empty empty 0 -9 0 10 -262144
-1 -1 0 1;
#X obj 1018 1 vsl 15 128 0 50 0 0 empty empty empty 0 -9 0 10 -262144
-1 -1 0 1;
#X obj 1046 2 vsl 15 128 0 50 0 0 empty empty empty 0 -9 0 10 -262144
-1 -1 1729 1;
#X obj 857 15 vsl 15 128 0 127 0 0 empty empty empty 0 -9 0 10 -262144
-1 -1 0 1;
#X text 816 -23 master tune;
#X obj 1171 2 vsl 15 128 0 127 0 0 empty empty empty 0 -9 0 10 -262144
-1 -1 0 1;
#X text 1153 -31 tones lpf;
#X obj 1262 0 vsl 15 128 0 127 0 0 empty empty empty 0 -9 0 10 -262144
-1 -1 0 1;
#X text 1245 -28 tones hpf;
#X obj 1375 1 vsl 15 128 0 1 0 0 empty empty empty 0 -9 0 10 -262144
-1 -1 3014 1;
#X msg 1216 253 connect localhost 9001;
#X msg 1216 280 disconnect;
#X obj 913 269 packOSC;
#X text 1020 -21 +;
#X text 943 -21 +;
#X text 966 -21 -;
#X text 991 -22 -;
#X text 1048 -21 -;
#X msg 843 192 send /t1 \$1;
#X msg 921 192 send /t2 \$1;
#X msg 1000 192 send /t3 \$1;
#X msg 1078 192 send /t4 \$1;
#X msg 1156 194 send /t5 \$1;
#X msg 1235 192 send /t6 \$1;
#X msg 1339 192 send /tlpf \$1;
#X msg 1435 192 send /thpf \$1;
#X msg 1540 192 send /tvca \$1;
#X msg 617 152 send /vca1 \$1;
#X msg 632 177 send /vca2 \$1;
#X msg 652 204 send /vca3 \$1;
#X msg 663 228 send /vca4 \$1;
#X msg 686 249 send /vca5 \$1;
#X msg 695 274 send /vca6 \$1;
#X obj 606 332 hsl 128 15 0 360 0 0 empty empty empty -2 -8 0 10 -262144
-1 -1 0 1;
#X msg 604 359 send /pan1 \$1;
#X obj 748 332 hsl 128 15 0 360 0 0 empty empty empty -2 -8 0 10 -262144
-1 -1 0 1;
#X obj 885 332 hsl 128 15 0 360 0 0 empty empty empty -2 -8 0 10 -262144
-1 -1 0 1;
#X obj 1027 332 hsl 128 15 0 360 0 0 empty empty empty -2 -8 0 10 -262144
-1 -1 0 1;
#X obj 1166 332 hsl 128 15 0 360 0 0 empty empty empty -2 -8 0 10 -262144
-1 -1 0 1;
#X obj 1308 332 hsl 128 15 0 360 0 0 empty empty empty -2 -8 0 10 -262144
-1 -1 0 1;
#X msg 746 359 send /pan2 \$1;
#X msg 883 359 send /pan3 \$1;
#X msg 1025 359 send /pan4 \$1;
#X msg 1164 359 send /pan5 \$1;
#X msg 1306 359 send /pan6 \$1;
#X obj 1515 8 vsl 15 128 0 1 0 0 empty empty empty 0 -9 0 10 -262144
-1 -1 3014 1;
#X msg 1638 193 send /nvca \$1;
#X obj 1216 228 loadbang;
#X obj 1588 62 hsl 128 15 0 360 0 0 empty empty empty -2 -8 0 10 -262144
-1 -1 0 1;
#X text 1609 37 noise pan;
#X msg 1585 88 send /npan \$1;
#X obj 1751 3 vsl 15 128 0 1 0 0 empty empty empty 0 -9 0 10 -262144
-1 -1 0 1;
#X text 1743 -27 bass vca;
#X text 1502 -19 noise vca;
#X text 1361 -29 tones vca;
#X msg 1734 193 send /bvca \$1;
#X obj 1828 7 vsl 15 128 0 127 0 0 empty empty empty 0 -9 0 10 -262144
-1 -1 0 1;
#X text 1816 -23 bass freq;
#X msg 1828 192 send /bfreq \$1;
#X obj 1956 8 vsl 15 128 0 127 0 0 empty empty empty 0 -9 0 10 -262144
-1 -1 0 1;
#X text 1935 -21 formant time;
#X msg 1956 197 send /formanttime \$1;
#X obj 2042 6 vradio 15 1 0 9 empty empty empty 0 -8 0 10 -262144 -1
-1 0;
#X text 2035 -19 vowel;
#X text 2062 4 ee;
#X text 2061 19 ih;
#X text 2060 34 eh;
#X text 2061 51 ae;
#X text 2060 81 oo;
#X text 2059 94 uh;
#X text 2064 110 o;
#X text 2062 126 ah;
#X obj 2042 250 sel 0 1 2 3 4 5 6 7 8;
#X text 2060 65 a;
#X obj 595 470 vsl 15 128 0 1 0 0 empty empty empty 0 -9 0 10 -262144
-1 -1 0 1;
#X obj 672 472 vsl 15 128 0 1 0 0 empty empty empty 0 -9 0 10 -262144
-1 -1 0 1;
#X obj 753 470 vsl 15 128 0 1 0 0 empty empty empty 0 -9 0 10 -262144
-1 -1 0 1;
#X text 595 402 hue;
#X text 662 403 saturation;
#X msg 1980 285 send /vowel_ee;
#X msg 2004 307 send /vowel_ih;
#X msg 2024 330 send /vowel_eh;
#X msg 2048 352 send /vowel_ae;
#X msg 2070 375 send /vowel_a;
#X msg 2094 397 send /vowel_oo;
#X msg 2138 442 send /vowel_o;
#X msg 2158 468 send /vowel_ah;
#X obj 525 -69 bng 15 250 50 0 empty empty empty 17 7 0 10 -262144
-1 -1;
#X obj 565 -69 bng 15 250 50 0 empty empty empty 17 7 0 10 -262144
-1 -1;
#X obj 525 585 bng 15 250 50 0 empty empty empty 17 7 0 10 -262144
-1 -1;
#X obj 565 585 bng 15 250 50 0 empty empty empty 17 7 0 10 -262144
-1 -1;
#X text 617 -15 1;
#X text 670 -15 2;
#X text 696 -12 3;
#X text 720 -16 4;
#X text 748 -15 5;
#X text 768 -15 6;
#X text 842 -18 7;
#X text 943 -28 8;
#X text 966 -29 9;
#X text 988 -31 10;
#X text 1017 -31 11;
#X text 1045 -30 12;
#X text 1171 -18 13;
#X text 1261 -18 14;
#X text 1375 -15 15;
#X text 1515 -10 16;
#X text 1567 60 17;
#X text 1752 -14 18;
#X text 1828 -11 19;
#X text 1956 -9 20;
#X text 2043 -11 21;
#X text 596 412 22;
#X text 673 414 23;
#X text 753 414 24;
#X text 629 382 light 1;
#X obj 855 470 vsl 15 128 0 1 0 0 empty empty empty 0 -9 0 10 -262144
-1 -1 12700 1;
#X obj 932 472 vsl 15 128 0 1 0 0 empty empty empty 0 -9 0 10 -262144
-1 -1 0 1;
#X obj 1013 470 vsl 15 128 0 1 0 0 empty empty empty 0 -9 0 10 -262144
-1 -1 0 1;
#X text 855 402 hue;
#X text 922 403 saturation;
#X text 1007 401 value;
#X text 889 382 light 2;
#X obj 1125 470 vsl 15 128 0 1 0 0 empty empty empty 0 -9 0 10 -262144
-1 -1 0 1;
#X obj 1202 472 vsl 15 128 0 1 0 0 empty empty empty 0 -9 0 10 -262144
-1 -1 0 1;
#X obj 1283 470 vsl 15 128 0 1 0 0 empty empty empty 0 -9 0 10 -262144
-1 -1 0 1;
#X text 1125 402 hue;
#X text 1192 403 saturation;
#X text 1277 401 value;
#X text 1159 382 light 3;
#X obj 1368 473 vsl 15 128 0 1 0 0 empty empty empty 0 -9 0 10 -262144
-1 -1 0 1;
#X obj 1445 475 vsl 15 128 0 1 0 0 empty empty empty 0 -9 0 10 -262144
-1 -1 0 1;
#X obj 1526 473 vsl 15 128 0 1 0 0 empty empty empty 0 -9 0 10 -262144
-1 -1 0 1;
#X text 1368 405 hue;
#X text 1435 406 saturation;
#X text 1520 404 value;
#X text 1402 385 light 4;
#X obj 1616 473 vsl 15 128 0 1 0 0 empty empty empty 0 -9 0 10 -262144
-1 -1 12700 1;
#X obj 1693 475 vsl 15 128 0 1 0 0 empty empty empty 0 -9 0 10 -262144
-1 -1 0 1;
#X obj 1774 473 vsl 15 128 0 1 0 0 empty empty empty 0 -9 0 10 -262144
-1 -1 0 1;
#X text 1616 405 hue;
#X text 1683 406 saturation;
#X text 1768 404 value;
#X obj 1864 473 vsl 15 128 0 1 0 0 empty empty empty 0 -9 0 10 -262144
-1 -1 0 1;
#X obj 1941 475 vsl 15 128 0 1 0 0 empty empty empty 0 -9 0 10 -262144
-1 -1 0 1;
#X obj 2022 473 vsl 15 128 0 1 0 0 empty empty empty 0 -9 0 10 -262144
-1 -1 0 1;
#X text 1864 405 hue;
#X text 1931 406 saturation;
#X text 2016 404 value;
#X text 1650 385 light 5;
#X text 1898 385 light 6;
#X text 856 412 25;
#X text 933 414 26;
#X text 1013 414 27;
#X text 1126 412 28;
#X text 1203 414 28;
#X text 1283 414 30;
#X text 1369 415 31;
#X text 1446 417 32;
#X text 1526 417 33;
#X text 1617 415 34;
#X text 1694 417 35;
#X text 1774 417 36;
#X text 1865 415 37;
#X text 1942 417 38;
#X text 2022 417 39;
#X msg 1391 251 connect 192.168.0.100 9001;
#X msg 591 268 send /remote;
#X obj 628 639 pack f f f;
#X msg 622 668 send /led1 \$1 \$2 \$3;
#X obj 753 606 t b f;
#X obj 671 609 t b f;
#X obj 886 681 pack f f f;
#X obj 1011 648 t b f;
#X obj 929 651 t b f;
#X obj 1164 679 pack f f f;
#X obj 1289 646 t b f;
#X obj 1207 649 t b f;
#X obj 1431 686 pack f f f;
#X obj 1556 653 t b f;
#X obj 1474 656 t b f;
#X obj 1684 686 pack f f f;
#X obj 1809 653 t b f;
#X obj 1727 656 t b f;
#X obj 1902 680 pack f f f;
#X obj 2027 647 t b f;
#X obj 1945 650 t b f;
#X msg 1896 709 send /led6 \$1 \$2 \$3;
#X msg 1678 715 send /led5 \$1 \$2 \$3;
#X msg 1425 715 send /led4 \$1 \$2 \$3;
#X msg 1158 708 send /led3 \$1 \$2 \$3;
#X msg 880 710 send /led2 \$1 \$2 \$3;
#X obj -464 36 line 0 100;
#X msg -464 -36 1 300000;
#X text -465 -58 300000ms == 5min;
#X obj -224 31 line 0 100;
#X obj -464 116 select 0 1;
#X obj -223 109 select 0 127;
#X obj -464 66 t f f;
#X obj -422 79 nbx 5 14 -1e+37 1e+37 0 0 empty empty empty 0 -8 0 10
-262144 -1 -1 0 256;
#X obj -436 143 bng 15 250 50 0 empty empty empty 17 7 0 10 -262144
-1 -1;
#X obj -488 143 bng 15 250 50 0 empty empty empty 17 7 0 10 -262144
-1 -1;
#X msg -454 -16 0 300000;
#X msg -215 -19 0 300000;
#X msg -224 -39 127 300000;
#X obj -224 60 t f f;
#X obj -185 72 nbx 5 14 -1e+37 1e+37 0 0 empty empty empty 0 -8 0 10
-262144 -1 -1 0 256;
#X obj -250 134 bng 15 250 50 0 empty empty empty 17 7 0 10 -262144
-1 -1;
#X obj -203 140 bng 15 250 50 0 empty empty empty 17 7 0 10 -262144
-1 -1;
#X obj -296 -64 bng 15 250 50 0 empty empty empty 17 7 0 10 -262144
-1 -1;
#X obj -423 96 s \$0-zeroTOone;
#X obj -186 88 s \$0-zeroTOonetwoseven;
#X obj -381 123 r \$0-zeroTOone;
#X obj -280 481 r \$0-zeroTOonetwoseven;
#X obj -381 152 nbx 5 14 -1e+37 1e+37 0 0 empty empty empty 0 -8 0
10 -262144 -1 -1 0 256;
#X obj 1367 -63 r \$0-zeroTOone;
#X obj -238 173 r \$0-zeroTOonetwoseven;
#X msg -388 10 stop;
#X msg -149 4 stop;
#X msg -392 -38 1 100;
#X msg -392 -17 0 100;
#X msg -148 -40 127 100;
#X msg -148 -18 0 100;
#X obj -299 -24 bng 15 250 50 0 empty empty empty 17 7 0 10 -262144
-1 -1;
#X obj -301 -44 bng 15 250 50 0 empty empty empty 17 7 0 10 -262144
-1 -1;
#X obj 683 -41 r \$0-zeroTOone;
#X obj 786 -64 r \$0-zeroTOonetwoseven;
#X obj -460 257 line 0 100;
#X msg -451 207 0 300000;
#X obj -460 286 t f f;
#X obj -421 298 nbx 5 14 -1e+37 1e+37 0 0 empty empty empty 0 -8 0
10 -262144 -1 -1 0 256;
#X obj -486 360 bng 15 250 50 0 empty empty empty 17 7 0 10 -262144
-1 -1;
#X obj -463 359 bng 15 250 50 0 empty empty empty 17 7 0 10 -262144
-1 -1;
#X obj -376 366 nbx 5 14 -1e+37 1e+37 0 0 empty empty empty 0 -8 0
10 -262144 -1 -1 0 256;
#X msg -384 230 stop;
#X msg -384 208 0 100;
#X msg -460 187 50 300000;
#X msg -384 186 50 100;
#X obj -422 314 s \$0-zeroTOfifty;
#X obj -376 338 r \$0-zeroTOfifty;
#X obj -459 335 select 0 50;
#X text -280 -25 stop;
#X text -279 -65 max;
#X text -277 -47 zero;
#X obj 939 -94 r \$0-zeroTOfifty;
#X obj 1159 -66 r \$0-zeroTOonetwoseven;
#X obj -225 269 line 0 100;
#X msg -216 219 0 300000;
#X obj -225 298 t f f;
#X obj -186 310 nbx 5 14 -1e+37 1e+37 0 0 empty empty empty 0 -8 0
10 -262144 -1 -1 0 256;
#X obj -251 372 bng 15 250 50 0 empty empty empty 17 7 0 10 -262144
-1 -1;
#X obj -190 378 bng 15 250 50 0 empty empty empty 17 7 0 10 -262144
-1 -1;
#X obj -134 378 nbx 5 14 -1e+37 1e+37 0 0 empty empty empty 0 -8 0
10 -262144 -1 -1 0 256;
#X msg -149 242 stop;
#X msg -149 220 0 100;
#X msg -225 199 360 300000;
#X msg -149 198 360 100;
#X obj -224 347 select 0 360;
#X obj -187 326 s \$0-zeroTOthreesixty;
#X obj -134 350 r \$0-zeroTOthreesixty;
#X obj 1571 -52 r \$0-zeroTOthreesixty;
#X obj 1749 -67 r \$0-zeroTOonetwoseven;
#X obj -472 489 line 0 100;
#X msg -463 439 0 300000;
#X obj -472 518 t f f;
#X obj -433 530 nbx 5 14 -1e+37 1e+37 0 0 empty empty empty 0 -8 0
10 -262144 -1 -1 0 256;
#X obj -498 592 bng 15 250 50 0 empty empty empty 17 7 0 10 -262144
-1 -1;
#X obj -388 598 nbx 5 14 -1e+37 1e+37 0 0 empty empty empty 0 -8 0
10 -262144 -1 -1 0 256;
#X msg -396 462 stop;
#X msg -396 440 0 100;
#X msg -472 419 8 300000;
#X msg -396 418 8 100;
#X obj -471 567 select 0 8;
#X obj -434 546 s \$0-zeroTOeight;
#X obj -388 570 r \$0-zeroTOeight;
#X obj 2072 -56 r \$0-zeroTOeight;
#X obj 745 301 r \$0-zeroTOthreesixty;
#X obj 1162 300 r \$0-zeroTOthreesixty;
#X obj 676 431 r \$0-zeroTOone;
#X obj 932 433 r \$0-zeroTOone;
#X obj 1182 440 r \$0-zeroTOone;
#X obj 1433 438 r \$0-zeroTOone;
#X obj 1686 439 r \$0-zeroTOone;
#X obj 1916 438 r \$0-zeroTOone;
#N canvas 401 90 597 304 QSS_fidd.pd 0;
#X obj 428 40 unpack;
#X floatatom 248 143 0 0 0 0 - - -;
#X floatatom 276 143 0 0 0 0 - - -;
#X obj 428 0 route 1 2 3 4;
#X obj 472 41 unpack;
#X floatatom 307 143 0 0 0 0 - - -;
#X floatatom 336 143 0 0 0 0 - - -;
#X obj 516 41 unpack;
#X floatatom 364 143 0 0 0 0 - - -;
#X floatatom 376 109 0 0 0 0 - - -;
#X obj 287 21 unpack;
#X floatatom 160 143 0 0 0 0 - - -;
#X floatatom 189 143 0 0 0 0 - - -;
#X floatatom 218 143 0 0 0 0 - - -;
#X obj 307 -31 fiddle~ 1024 1 20 3;
#X obj 102 145 bng 15 250 50 0 empty empty empty 17 7 0 10 -262144
-1 -1;
#X floatatom 122 144 5 0 0 0 - - -;
#X obj 106 175 outlet;
#X text 121 129 pitch;
#X text 158 128 pitch&amp;
#X text 220 128 dB;
#X text 429 24 sinusoidal components;
#X text 100 129 atk;
#X obj 63 175 outlet;
#X obj 149 175 outlet;
#X obj 192 175 outlet;
#X obj 235 175 outlet;
#X obj 278 175 outlet;
#X obj 321 175 outlet;
#X obj 364 175 outlet;
#X obj 407 175 outlet;
#X obj 450 175 outlet;
#X obj 493 175 outlet;
#X obj 497 82 int;
#X obj 356 40 int;
#X obj 302 58 int;
#X obj 269 56 int;
#X obj 196 38 int;
#X obj 366 63 int;
#X obj 394 67 int;
#X obj 419 70 int;
#X obj 446 75 int;
#X obj 472 79 int;
#X text 247 127 3x sinusoidal componentz;
#X obj 269 -61 spigot~;
#X obj 248 -91 adc~;
#X obj 266 105 tgl 15 0 empty empty empty 17 7 0 10 -262144 -1 -1 1
1;
#X text 285 104 adc i/o;
#X text 193 106 ¡INTZ!;
#X text 148 113 CH.2;
#X connect 0 0 38 0;
#X connect 0 1 39 0;
#X connect 1 0 27 0;
#X connect 2 0 28 0;
#X connect 3 0 0 0;
#X connect 3 1 4 0;
#X connect 3 2 7 0;
#X connect 4 0 40 0;
#X connect 4 1 41 0;
#X connect 5 0 29 0;
#X connect 6 0 30 0;
#X connect 7 0 42 0;
#X connect 7 1 33 0;
#X connect 8 0 31 0;
#X connect 9 0 32 0;
#X connect 10 0 36 0;
#X connect 10 1 35 0;
#X connect 11 0 24 0;
#X connect 12 0 25 0;
#X connect 13 0 26 0;
#X connect 14 0 37 0;
#X connect 14 1 15 0;
#X connect 14 2 10 0;
#X connect 14 3 34 0;
#X connect 14 4 3 0;
#X connect 15 0 23 0;
#X connect 16 0 17 0;
#X connect 33 0 9 0;
#X connect 34 0 13 0;
#X connect 35 0 12 0;
#X connect 36 0 11 0;
#X connect 37 0 16 0;
#X connect 38 0 1 0;
#X connect 39 0 2 0;
#X connect 40 0 5 0;
#X connect 41 0 6 0;
#X connect 42 0 8 0;
#X connect 44 1 14 0;
#X connect 45 1 44 0;
#X connect 46 0 44 1;
#X coords 0 -1 1 1 300 70 1 100 100;
#X restore 162 143 pd QSS_fidd.pd;
#N canvas 401 90 597 304 QSS_fidd.pd 0;
#X obj 428 40 unpack;
#X floatatom 248 143 0 0 0 0 - - -;
#X floatatom 276 143 0 0 0 0 - - -;
#X obj 428 0 route 1 2 3 4;
#X obj 472 41 unpack;
#X floatatom 307 143 0 0 0 0 - - -;
#X floatatom 336 143 0 0 0 0 - - -;
#X obj 516 41 unpack;
#X floatatom 364 143 0 0 0 0 - - -;
#X floatatom 376 109 0 0 0 0 - - -;
#X obj 287 21 unpack;
#X floatatom 160 143 0 0 0 0 - - -;
#X floatatom 189 143 0 0 0 0 - - -;
#X floatatom 218 143 0 0 0 0 - - -;
#X obj 307 -31 fiddle~ 1024 1 20 3;
#X obj 102 145 bng 15 250 50 0 empty empty empty 17 7 0 10 -262144
-1 -1;
#X floatatom 122 144 5 0 0 0 - - -;
#X obj 106 175 outlet;
#X text 121 129 pitch;
#X text 158 128 pitch&amp;
#X text 220 128 dB;
#X text 429 24 sinusoidal components;
#X text 100 129 atk;
#X obj 63 175 outlet;
#X obj 149 175 outlet;
#X obj 192 175 outlet;
#X obj 235 175 outlet;
#X obj 278 175 outlet;
#X obj 321 175 outlet;
#X obj 364 175 outlet;
#X obj 407 175 outlet;
#X obj 450 175 outlet;
#X obj 493 175 outlet;
#X obj 497 82 int;
#X obj 356 40 int;
#X obj 302 58 int;
#X obj 269 56 int;
#X obj 196 38 int;
#X obj 366 63 int;
#X obj 394 67 int;
#X obj 419 70 int;
#X obj 446 75 int;
#X obj 472 79 int;
#X text 247 127 3x sinusoidal componentz;
#X obj 269 -61 spigot~;
#X obj 248 -91 adc~;
#X obj 266 105 tgl 15 0 empty empty empty 17 7 0 10 -262144 -1 -1 1
1;
#X text 285 104 adc i/o;
#X text 193 106 ¡INTZ!;
#X text 159 115 CH.1;
#X connect 0 0 38 0;
#X connect 0 1 39 0;
#X connect 1 0 27 0;
#X connect 2 0 28 0;
#X connect 3 0 0 0;
#X connect 3 1 4 0;
#X connect 3 2 7 0;
#X connect 4 0 40 0;
#X connect 4 1 41 0;
#X connect 5 0 29 0;
#X connect 6 0 30 0;
#X connect 7 0 42 0;
#X connect 7 1 33 0;
#X connect 8 0 31 0;
#X connect 9 0 32 0;
#X connect 10 0 36 0;
#X connect 10 1 35 0;
#X connect 11 0 24 0;
#X connect 12 0 25 0;
#X connect 13 0 26 0;
#X connect 14 0 37 0;
#X connect 14 1 15 0;
#X connect 14 2 10 0;
#X connect 14 3 34 0;
#X connect 14 4 3 0;
#X connect 15 0 23 0;
#X connect 16 0 17 0;
#X connect 33 0 9 0;
#X connect 34 0 13 0;
#X connect 35 0 12 0;
#X connect 36 0 11 0;
#X connect 37 0 16 0;
#X connect 38 0 1 0;
#X connect 39 0 2 0;
#X connect 40 0 5 0;
#X connect 41 0 6 0;
#X connect 42 0 8 0;
#X connect 44 1 14 0;
#X connect 45 0 44 0;
#X connect 46 0 44 1;
#X coords 0 -1 1 1 300 70 1 100 100;
#X restore 140 -58 pd QSS_fidd.pd;
#X obj 189 247 f;
#X obj 162 45 f;
#X obj 149 243 f;
#X obj 129 36 f;
#X obj 236 89 nbx 5 14 -1e+37 1e+37 0 0 empty empty empty 0 -8 0 10
-262144 -1 -1 0 256;
#X obj 210 62 autoscale;
#X obj 64 650 spigot;
#X obj 63 695 bng 15 250 50 0 empty empty empty 17 7 0 10 -262144 -1
-1;
#X obj 22 510 tgl 15 0 empty empty empty 17 7 0 10 -262144 -1 -1 0
1;
#X msg 112 563 22;
#X msg 115 587 55;
#X obj 111 650 spigot;
#X obj 98 480 tgl 15 0 empty empty empty 17 7 0 10 -262144 -1 -1 0
1;
#X obj 126 479 tgl 15 0 empty empty empty 17 7 0 10 -262144 -1 -1 0
1;
#X obj 103 506 == 0;
#X obj 163 507 tgl 15 0 empty empty empty 17 7 0 10 -262144 -1 -1 0
1;
#X obj 161 556 metro 100;
#X obj 20 559 metro 666;
#X obj -133 491 bng 15 250 50 0 empty empty empty 17 7 0 10 -262144
-1 -1;
#X msg 92 451 0;
#X msg 100 423 1;
#X obj -133 561 bng 15 250 50 0 empty empty empty 17 7 0 10 -262144
-1 -1;
#X obj -173 576 bng 15 250 50 0 empty empty empty 17 7 0 10 -262144
-1 -1;
#X obj -133 526 pipe 333;
#X obj -164 639 s \$0-fucktest;
#X text 140 422 A;
#X text 128 448 B;
#X msg 1875 95 30;
#X obj 365 770 f;
#X obj 93 790 f;
#X obj 93 820 f;
#X obj 310 821 pipe 100;
#X obj 405 838 pipe 200;
#X obj 501 838 pipe 300;
#X obj 588 836 pipe 400;
#X obj 672 841 pipe 500;
#X obj 759 839 pipe 600;
#N canvas 514 129 548 352 _6.pd 0;
#X obj 117 -102 inlet;
#X text 119 -126 select;
#X obj 117 2 select 0 1 2 3 4 5 6 7 8 9 10 11 12 13 14 15;
#X text 40 -122 6 [SIX];
#X obj 159 143 tgl 15 0 empty sqr_stp_q_alloff empty 17 7 0 10 -262144
-1 -1 1 1;
#X obj 222 143 tgl 15 0 empty sqr_stp_q_alloff empty 17 7 0 10 -262144
-1 -1 1 1;
#X obj 253 143 tgl 15 0 empty sqr_stp_q_alloff empty 17 7 0 10 -262144
-1 -1 1 1;
#X obj 117 30 spigot;
#X obj 187 32 spigot;
#X obj 247 32 spigot;
#X obj 309 32 spigot;
#X obj 382 143 tgl 15 0 empty sqr_stp_q_alloff empty 17 7 0 10 -262144
-1 -1 0 89;
#X obj 340 60 spigot;
#X obj 351 143 tgl 15 0 empty sqr_stp_q_alloff empty 17 7 0 10 -262144
-1 -1 0 49;
#X obj 269 60 spigot;
#X obj 318 143 tgl 15 0 empty sqr_stp_q_alloff empty 17 7 0 10 -262144
-1 -1 0 1;
#X obj 209 60 spigot;
#X obj 143 59 spigot;
#X obj 430 92 f;
#X obj 184 103 hsl 128 15 0 127 0 0 empty empty empty -2 -8 0 10 -262144
-1 -1 10000 1;
#X obj 382 103 bng 15 250 50 0 empty empty empty 17 7 0 10 -262144
-1 -1;
#X obj 322 104 nbx 5 14 -1e+37 1e+37 0 0 empty empty empty 0 -8 0 10
-262144 -1 -1 100 256;
#X obj 285 143 tgl 15 0 empty sqr_stp_q_alloff empty 17 7 0 10 -262144
-1 -1 1 1;
#X obj 190 143 tgl 15 0 empty sqr_stp_q_alloff empty 17 7 0 10 -262144
-1 -1 1 1;
#X obj 125 185 outlet;
#X obj 141 123 hradio 16 1 0 16 empty empty empty 0 -8 0 15 -262144
-1 -1 9;
#X text 114 140 togg;
#X obj 402 -13 bng 15 250 50 0 empty empty empty 17 7 0 10 -262144
-1 -1;
#X obj 436 -12 bng 15 250 50 0 empty empty empty 17 7 0 10 -262144
-1 -1;
#X msg 436 10 inc;
#X msg 402 10 dec;
#X obj 437 64 nbx 5 14 -1e+37 1e+37 0 0 empty empty empty 0 -8 0 10
-262144 -1 -1 0 256;
#X msg 465 10 0;
#X obj 436 35 counter;
#X obj 475 -13 loadbang;
#X obj 401 -33 min 20;
#X obj 447 -33 max 107;
#X msg 499 10 127;
#X obj 205 -92 loadbang;
#X msg 191 -56 1;
#X msg 227 -56 100;
#X connect 0 0 2 0;
#X connect 0 0 25 0;
#X connect 2 1 7 0;
#X connect 2 3 8 0;
#X connect 2 5 9 0;
#X connect 2 7 10 0;
#X connect 2 9 12 0;
#X connect 2 11 14 0;
#X connect 2 13 16 0;
#X connect 2 15 17 0;
#X connect 4 0 7 1;
#X connect 5 0 9 1;
#X connect 6 0 10 1;
#X connect 7 0 18 0;
#X connect 8 0 18 0;
#X connect 9 0 18 0;
#X connect 10 0 18 0;
#X connect 11 0 12 1;
#X connect 12 0 18 0;
#X connect 13 0 14 1;
#X connect 14 0 18 0;
#X connect 15 0 16 1;
#X connect 16 0 18 0;
#X connect 17 0 18 0;
#X connect 18 0 20 0;
#X connect 18 0 21 0;
#X connect 18 0 24 0;
#X connect 19 0 18 1;
#X connect 22 0 17 1;
#X connect 23 0 8 1;
#X connect 27 0 30 0;
#X connect 28 0 29 0;
#X connect 29 0 33 0;
#X connect 30 0 33 0;
#X connect 31 0 19 0;
#X connect 32 0 33 3;
#X connect 33 0 31 0;
#X connect 34 0 32 0;
#X connect 34 0 37 0;
#X connect 35 0 27 0;
#X connect 36 0 28 0;
#X connect 37 0 33 4;
#X connect 38 0 39 0;
#X connect 38 0 40 0;
#X connect 39 0 4 0;
#X connect 39 0 23 0;
#X connect 39 0 5 0;
#X connect 39 0 6 0;
#X connect 39 0 22 0;
#X connect 40 0 19 0;
#X coords 0 -1 1 1 300 60 1 100 100;
#X restore -299 810 pd _6.pd;
#N canvas 263 178 521 394 _5.pd 0;
#X obj -84 -27 f;
#X obj 146 163 hsl 128 15 0 127 0 0 empty empty empty -2 -8 0 10 -262144
-1 -1 6600 1;
#X text -71 -92 5 [FIVE];
#X obj -34 -31 select 0 1 2 3 4 5 6 7 8 9 10 11 12 13 14 15;
#X obj 141 142 tgl 15 0 empty sqr_stp_q_alloff empty 17 7 0 10 -262144
-1 -1 1 1;
#X obj 173 142 tgl 15 0 empty sqr_stp_q_alloff empty 17 7 0 10 -262144
-1 -1 1 1;
#X obj 204 142 tgl 15 0 empty sqr_stp_q_alloff empty 17 7 0 10 -262144
-1 -1 1 1;
#X obj 236 142 tgl 15 0 empty sqr_stp_q_alloff empty 17 7 0 10 -262144
-1 -1 1 1;
#X obj 106 191 spigot;
#X obj 176 193 spigot;
#X obj 236 193 spigot;
#X obj 288 193 spigot;
#X obj 381 163 bng 15 250 50 0 empty empty empty 17 7 0 10 -262144
-1 -1;
#X obj 322 163 nbx 5 14 -1e+37 1e+37 0 0 empty empty empty 0 -8 0 10
-262144 -1 -1 66 256;
#X obj 364 142 tgl 15 0 empty sqr_stp_q_alloff empty 17 7 0 10 -262144
-1 -1 1 1;
#X obj 319 221 spigot;
#X obj 333 142 tgl 15 0 empty sqr_stp_q_alloff empty 17 7 0 10 -262144
-1 -1 1 1;
#X obj 258 221 spigot;
#X obj 300 142 tgl 15 0 empty sqr_stp_q_alloff empty 17 7 0 10 -262144
-1 -1 1 1;
#X obj 198 221 spigot;
#X obj 267 142 tgl 15 0 empty sqr_stp_q_alloff empty 17 7 0 10 -262144
-1 -1 1 1;
#X obj 132 220 spigot;
#X obj -6 268 outlet;
#X obj 306 34 metro;
#X obj 246 105 nbx 5 14 0 1e+37 0 0 empty empty empty 0 -8 0 10 -262144
-1 -1 111 256;
#X obj 348 54 f;
#X obj 374 54 + 1;
#X obj 140 124 hradio 16 1 0 16 empty empty empty 0 -8 0 15 -262144
-1 -1 9;
#X obj 306 54 mod 16;
#X obj 342 189 spigot 85;
#X text 341 204 6 inlet;
#X obj 227 105 tgl 15 0 empty empty empty 17 7 0 10 -262144 -1 -1 0
0.0423333;
#X obj 43 267 outlet;
#X text 370 103 to_6;
#X obj 255 -29 loadbang;
#X obj 353 104 tgl 15 0 empty empty empty 17 7 0 10 -262144 -1 -1 1
1;
#X obj 353 80 loadbang;
#X text 283 160 pitch;
#X text 206 103 i|o;
#X text 114 140 togg;
#X text 301 103 tempo;
#X msg 255 -5 66;
#X obj 328 -32 loadbang;
#X msg 328 -8 1;
#X obj -2 -81 inlet;
#X msg 255 29 111;
#X connect 0 0 12 0;
#X connect 0 0 13 0;
#X connect 0 0 22 0;
#X connect 1 0 0 1;
#X connect 3 0 8 0;
#X connect 3 2 9 0;
#X connect 3 4 10 0;
#X connect 3 6 11 0;
#X connect 3 8 15 0;
#X connect 3 10 17 0;
#X connect 3 12 19 0;
#X connect 3 14 21 0;
#X connect 4 0 8 1;
#X connect 5 0 9 1;
#X connect 6 0 10 1;
#X connect 7 0 11 1;
#X connect 8 0 0 0;
#X connect 9 0 0 0;
#X connect 10 0 0 0;
#X connect 11 0 0 0;
#X connect 14 0 15 1;
#X connect 15 0 0 0;
#X connect 16 0 17 1;
#X connect 17 0 0 0;
#X connect 18 0 19 1;
#X connect 19 0 0 0;
#X connect 20 0 21 1;
#X connect 21 0 0 0;
#X connect 23 0 25 0;
#X connect 24 0 23 1;
#X connect 25 0 26 0;
#X connect 25 0 28 0;
#X connect 26 0 25 1;
#X connect 27 0 3 0;
#X connect 27 0 29 0;
#X connect 28 0 27 0;
#X connect 29 0 32 0;
#X connect 31 0 23 0;
#X connect 34 0 41 0;
#X connect 34 0 45 0;
#X connect 35 0 29 1;
#X connect 36 0 35 0;
#X connect 41 0 1 0;
#X connect 42 0 43 0;
#X connect 43 0 4 0;
#X connect 43 0 5 0;
#X connect 43 0 6 0;
#X connect 43 0 7 0;
#X connect 43 0 20 0;
#X connect 43 0 18 0;
#X connect 43 0 16 0;
#X connect 43 0 14 0;
#X connect 44 0 31 0;
#X connect 45 0 24 0;
#X coords 0 -1 1 1 300 80 1 100 100;
#X restore -332 721 pd _5.pd;
#X msg 1874 3 127;
#X msg 1875 28 100;
#X msg 1875 50 70;
#X msg 1875 72 66;
#X msg 1875 123 0;
#X obj 153 834 nbx 5 14 -1e+37 1e+37 0 0 empty empty empty 0 -8 0 10
-262144 -1 -1 66 256;
#X obj 159 869 nbx 5 14 -1e+37 1e+37 0 0 empty empty empty 0 -8 0 10
-262144 -1 -1 100 256;
#X obj -232 681 tgl 15 0 empty empty empty 17 7 0 10 -262144 -1 -1
0 0.0423333;
#X text -181 137 done;
#X text -416 142 done;
#X text -447 360 done;
#X text -172 375 done;
#X text -420 596 done;
#X obj -16 209 s \$0-zeroTOoneFIDD0;
#X obj 236 282 s \$0-zeroTOoneFIDD1;
#X text -222 657 one done is good as the rest?;
#X obj -233 -63 bng 15 250 50 0 empty empty empty 17 7 0 10 -262144
-1 -1;
#X text -211 -63 superquick max;
#X obj -259 614 spigot;
#X obj -309 640 nbx 5 14 -1e+37 1e+37 0 0 empty empty empty 0 -8 0
10 -262144 -1 -1 0 256;
#X obj -468 616 t b b;
#X obj 389 707 r \$0-zeroTOoneFIDD0;
#X obj 926 771 f;
#X obj 880 804 pipe 100;
#X obj 975 821 pipe 200;
#X obj 1071 821 pipe 300;
#X obj 1158 819 pipe 400;
#X obj 1242 824 pipe 500;
#X obj 1329 822 pipe 600;
#X obj 928 745 r \$0-zeroTOoneFIDD1;
#X text 74 -40 vox_mic ->;
#X text 85 153 cntk_mic ->;
#X obj 327 27 autoscale;
#X obj 337 47 autoscale;
#X obj 347 67 autoscale;
#X obj 367 275 autoscale 0 50;
#X obj 377 295 autoscale 0 50;
#X obj 387 315 autoscale 0 50;
#X obj 246 22 autoscale;
#X obj 268 239 autoscale;
#X connect 2 0 39 0;
#X connect 3 0 40 0;
#X connect 4 0 38 0;
#X connect 5 0 41 0;
#X connect 6 0 42 0;
#X connect 7 0 43 0;
#X connect 8 0 30 0;
#X connect 10 0 31 0;
#X connect 11 0 32 0;
#X connect 12 0 33 0;
#X connect 13 0 34 0;
#X connect 14 0 29 0;
#X connect 16 0 35 0;
#X connect 18 0 36 0;
#X connect 20 0 37 0;
#X connect 22 0 1 0;
#X connect 23 0 1 0;
#X connect 29 0 23 0;
#X connect 30 0 23 0;
#X connect 31 0 23 0;
#X connect 32 0 23 0;
#X connect 33 0 23 0;
#X connect 34 0 23 0;
#X connect 35 0 23 0;
#X connect 36 0 23 0;
#X connect 37 0 23 0;
#X connect 38 0 23 0;
#X connect 39 0 23 0;
#X connect 40 0 23 0;
#X connect 41 0 23 0;
#X connect 42 0 23 0;
#X connect 43 0 23 0;
#X connect 44 0 45 0;
#X connect 45 0 23 0;
#X connect 46 0 51 0;
#X connect 47 0 52 0;
#X connect 48 0 53 0;
#X connect 49 0 54 0;
#X connect 50 0 55 0;
#X connect 51 0 23 0;
#X connect 52 0 23 0;
#X connect 53 0 23 0;
#X connect 54 0 23 0;
#X connect 55 0 23 0;
#X connect 56 0 57 0;
#X connect 57 0 23 0;
#X connect 58 0 21 0;
#X connect 59 0 61 0;
#X connect 61 0 23 0;
#X connect 62 0 66 0;
#X connect 66 0 23 0;
#X connect 67 0 69 0;
#X connect 69 0 23 0;
#X connect 70 0 72 0;
#X connect 72 0 23 0;
#X connect 73 0 83 0;
#X connect 83 0 90 0;
#X connect 83 1 91 0;
#X connect 83 2 92 0;
#X connect 83 3 93 0;
#X connect 83 4 94 0;
#X connect 83 5 95 0;
#X connect 83 7 96 0;
#X connect 83 8 97 0;
#X connect 85 0 179 0;
#X connect 86 0 182 0;
#X connect 87 0 181 0;
#X connect 90 0 23 0;
#X connect 91 0 23 0;
#X connect 92 0 23 0;
#X connect 93 0 23 0;
#X connect 94 0 23 0;
#X connect 95 0 23 0;
#X connect 96 0 23 0;
#X connect 97 0 23 0;
#X connect 98 0 100 0;
#X connect 99 0 101 0;
#X connect 127 0 183 0;
#X connect 128 0 185 0;
#X connect 129 0 184 0;
#X connect 134 0 186 0;
#X connect 135 0 188 0;
#X connect 136 0 187 0;
#X connect 141 0 189 0;
#X connect 142 0 191 0;
#X connect 143 0 190 0;
#X connect 148 0 192 0;
#X connect 149 0 194 0;
#X connect 150 0 193 0;
#X connect 154 0 195 0;
#X connect 155 0 197 0;
#X connect 156 0 196 0;
#X connect 178 0 23 0;
#X connect 179 0 180 0;
#X connect 180 0 23 0;
#X connect 181 0 179 0;
#X connect 181 1 179 2;
#X connect 182 0 179 0;
#X connect 182 1 179 1;
#X connect 183 0 202 0;
#X connect 184 0 183 0;
#X connect 184 1 183 2;
#X connect 185 0 183 0;
#X connect 185 1 183 1;
#X connect 186 0 201 0;
#X connect 187 0 186 0;
#X connect 187 1 186 2;
#X connect 188 0 186 0;
#X connect 188 1 186 1;
#X connect 189 0 200 0;
#X connect 190 0 189 0;
#X connect 190 1 189 2;
#X connect 191 0 189 0;
#X connect 191 1 189 1;
#X connect 192 0 199 0;
#X connect 193 0 192 0;
#X connect 193 1 192 2;
#X connect 194 0 192 0;
#X connect 194 1 192 1;
#X connect 195 0 198 0;
#X connect 196 0 195 0;
#X connect 196 1 195 2;
#X connect 197 0 195 0;
#X connect 197 1 195 1;
#X connect 198 0 23 0;
#X connect 199 0 23 0;
#X connect 200 0 23 0;
#X connect 201 0 23 0;
#X connect 202 0 23 0;
#X connect 203 0 209 0;
#X connect 204 0 203 0;
#X connect 206 0 216 0;
#X connect 207 0 212 0;
#X connect 207 1 211 0;
#X connect 208 0 218 0;
#X connect 208 1 219 0;
#X connect 209 0 207 0;
#X connect 209 1 210 0;
#X connect 209 1 221 0;
#X connect 211 0 213 0;
#X connect 213 0 203 0;
#X connect 214 0 206 0;
#X connect 215 0 206 0;
#X connect 216 0 208 0;
#X connect 216 1 217 0;
#X connect 216 1 222 0;
#X connect 219 0 214 0;
#X connect 220 0 204 0;
#X connect 220 0 215 0;
#X connect 220 0 247 0;
#X connect 220 0 266 0;
#X connect 220 0 281 0;
#X connect 223 0 225 0;
#X connect 224 0 354 0;
#X connect 226 0 62 0;
#X connect 228 0 203 0;
#X connect 229 0 206 0;
#X connect 230 0 203 0;
#X connect 231 0 203 0;
#X connect 232 0 206 0;
#X connect 233 0 206 0;
#X connect 234 0 228 0;
#X connect 234 0 229 0;
#X connect 234 0 245 0;
#X connect 234 0 264 0;
#X connect 234 0 279 0;
#X connect 235 0 231 0;
#X connect 235 0 233 0;
#X connect 235 0 246 0;
#X connect 235 0 258 0;
#X connect 235 0 274 0;
#X connect 236 0 4 0;
#X connect 236 0 3 0;
#X connect 236 0 6 0;
#X connect 237 0 14 0;
#X connect 238 0 240 0;
#X connect 239 0 238 0;
#X connect 240 0 251 0;
#X connect 240 1 241 0;
#X connect 240 1 249 0;
#X connect 243 0 239 0;
#X connect 245 0 238 0;
#X connect 246 0 238 0;
#X connect 247 0 238 0;
#X connect 248 0 238 0;
#X connect 250 0 244 0;
#X connect 251 0 242 0;
#X connect 251 1 243 0;
#X connect 255 0 10 0;
#X connect 255 0 12 0;
#X connect 256 0 16 0;
#X connect 256 0 18 0;
#X connect 257 0 259 0;
#X connect 258 0 257 0;
#X connect 259 0 268 0;
#X connect 259 1 260 0;
#X connect 259 1 269 0;
#X connect 262 0 258 0;
#X connect 264 0 257 0;
#X connect 265 0 257 0;
#X connect 266 0 257 0;
#X connect 267 0 257 0;
#X connect 268 0 261 0;
#X connect 268 1 262 0;
#X connect 270 0 263 0;
#X connect 271 0 59 0;
#X connect 272 0 70 0;
#X connect 272 0 67 0;
#X connect 273 0 275 0;
#X connect 274 0 273 0;
#X connect 275 0 283 0;
#X connect 275 1 276 0;
#X connect 275 1 284 0;
#X connect 279 0 273 0;
#X connect 280 0 273 0;
#X connect 281 0 273 0;
#X connect 282 0 273 0;
#X connect 283 0 277 0;
#X connect 283 1 356 0;
#X connect 285 0 278 0;
#X connect 286 0 73 0;
#X connect 287 0 44 0;
#X connect 287 0 46 0;
#X connect 287 0 47 0;
#X connect 288 0 48 0;
#X connect 288 0 49 0;
#X connect 288 0 50 0;
#X connect 289 0 86 0;
#X connect 289 0 85 0;
#X connect 290 0 128 0;
#X connect 290 0 129 0;
#X connect 291 0 135 0;
#X connect 291 0 134 0;
#X connect 292 0 142 0;
#X connect 292 0 141 0;
#X connect 293 0 149 0;
#X connect 293 0 150 0;
#X connect 294 0 155 0;
#X connect 294 0 154 0;
#X connect 295 0 299 0;
#X connect 295 1 299 1;
#X connect 295 1 148 0;
#X connect 295 2 297 0;
#X connect 295 4 375 0;
#X connect 295 5 371 0;
#X connect 295 6 372 0;
#X connect 295 7 373 0;
#X connect 296 0 300 0;
#X connect 296 1 300 1;
#X connect 296 1 127 0;
#X connect 296 2 298 0;
#X connect 296 4 374 0;
#X connect 296 5 368 0;
#X connect 296 6 369 0;
#X connect 296 7 370 0;
#X connect 297 0 350 0;
#X connect 298 0 302 0;
#X connect 302 0 301 0;
#X connect 302 0 349 0;
#X connect 303 0 304 0;
#X connect 305 0 314 0;
#X connect 306 0 308 0;
#X connect 307 0 308 0;
#X connect 308 0 304 0;
#X connect 309 0 311 0;
#X connect 309 0 303 1;
#X connect 310 0 308 1;
#X connect 311 0 310 0;
#X connect 312 0 313 0;
#X connect 313 0 306 0;
#X connect 314 0 303 0;
#X connect 315 0 319 0;
#X connect 315 0 320 0;
#X connect 316 0 309 0;
#X connect 317 0 309 0;
#X connect 318 0 319 0;
#X connect 320 0 318 0;
#X connect 324 0 67 0;
#X connect 325 0 328 0;
#X connect 325 0 329 0;
#X connect 325 0 330 0;
#X connect 325 0 331 0;
#X connect 325 0 332 0;
#X connect 325 0 333 0;
#X connect 326 0 341 0;
#X connect 326 0 67 0;
#X connect 326 0 62 0;
#X connect 327 0 342 0;
#X connect 327 0 67 0;
#X connect 328 0 87 0;
#X connect 333 0 156 0;
#X connect 334 0 327 0;
#X connect 335 0 326 0;
#X connect 335 1 334 0;
#X connect 336 0 67 0;
#X connect 337 0 67 0;
#X connect 338 0 67 0;
#X connect 339 0 67 0;
#X connect 340 0 67 0;
#X connect 343 0 335 0;
#X connect 343 0 354 1;
#X connect 352 0 232 0;
#X connect 352 0 230 0;
#X connect 352 0 248 0;
#X connect 352 0 267 0;
#X connect 352 0 282 0;
#X connect 354 0 355 0;
#X connect 354 0 343 0;
#X connect 356 0 274 0;
#X connect 356 1 343 0;
#X connect 357 0 325 0;
#X connect 358 0 359 0;
#X connect 358 0 360 0;
#X connect 358 0 361 0;
#X connect 358 0 362 0;
#X connect 358 0 363 0;
#X connect 358 0 364 0;
#X connect 359 0 136 0;
#X connect 364 0 143 0;
#X connect 365 0 358 0;
#X connect 368 0 2 0;
#X connect 369 0 5 0;
#X connect 370 0 7 0;
#X connect 371 0 8 0;
#X connect 372 0 11 0;
#X connect 373 0 13 0;
#X connect 374 0 20 0;
#X connect 374 0 56 0;
