#N canvas 213 207 236 431 10;
#X obj 21 68 bng 15 250 50 0 empty empty empty 17 7 0 10 -33289 -262144
-1;
#X obj 21 46 tgl 15 0 empty empty empty 17 7 0 10 -33289 -262144 -1
1 1;
#X obj 7 179 metro 1000;
#X obj 41 47 nbx 5 14 1 1e+37 0 0 empty empty empty 0 -8 0 10 -33289
-262144 -1 1000 256 0;
#X obj 121 5 loadbang;
#X msg 121 30 1000;
#X obj 7 253 sel 1;
#X obj 41 68 bng 15 250 50 0 empty empty empty 17 7 0 10 -33289 -262144
-1;
#X obj 7 206 f;
#X obj 45 205 + 1;
#X obj 7 229 % 2;
#X obj 7 6 inlet;
#X obj 56 6 inlet;
#X obj 116 366 outlet;
#X obj 166 366 outlet;
#X obj 7 325 line~;
#X obj 18 134 hsl 80 20 1 10000 0 0 line_off empty line_off -2 -8 0
10 -33289 -262144 -1 0 1;
#X obj 18 99 hsl 80 20 1 10000 0 0 line_on empty line_on -2 -8 0 10
-33289 -262144 -1 0 1;
#X obj 7 302 pack f f;
#X msg 7 279 1;
#X msg 85 277 0;
#X obj 85 300 pack f f;
#X obj 7 359 outlet~;
#X obj 65 366 outlet;
#X obj 65 342 snapshot~;
#X connect 0 0 19 0;
#X connect 1 0 2 0;
#X connect 2 0 8 0;
#X connect 2 0 24 0;
#X connect 3 0 2 1;
#X connect 4 0 5 0;
#X connect 5 0 3 0;
#X connect 6 0 0 0;
#X connect 6 0 13 0;
#X connect 6 1 7 0;
#X connect 6 1 14 0;
#X connect 7 0 20 0;
#X connect 8 0 9 0;
#X connect 8 0 10 0;
#X connect 9 0 8 1;
#X connect 10 0 6 0;
#X connect 11 0 2 0;
#X connect 12 0 3 0;
#X connect 15 0 22 0;
#X connect 15 0 24 0;
#X connect 16 0 21 1;
#X connect 17 0 18 1;
#X connect 18 0 15 0;
#X connect 19 0 18 0;
#X connect 20 0 21 0;
#X connect 21 0 15 0;
#X connect 24 0 23 0;
#X coords 0 -1 1 1 90 130 1 15 30;
