#N canvas 523 247 504 246 10;
#N canvas 0 23 450 278 (subpatch) 0;
#X array \$0-a 128 float 0;
#X coords 0 1 127 0 200 100 1 0 0;
#X restore 15 60 graph;
#X obj 229 195 outlet~;
#X obj 61 45 tgl 15 0 empty empty io 0 -8 0 10 -33289 -262144 -1 0
1;
#X obj 78 45 nbx 5 14 1 1e+37 0 0 empty grate rate 0 -8 0 10 -33289
-262144 -1 10 256;
#X obj 229 6 loadbang;
#X obj 229 82 f;
#X obj 267 81 + 1;
#X obj 16 6 inlet;
#X obj 60 6 inlet;
#X obj 229 60 metro 10;
#X msg 229 29 10;
#X obj 334 173 snapshot~;
#X obj 334 195 outlet;
#X obj 355 97 line 0 10;
#X obj 399 36 t b b;
#X obj 134 44 bng 15 250 50 0 empty empty gt 0 -8 0 10 -99865 -262144
-1;
#X msg 355 69 100 \$1;
#X obj 355 18 f;
#X obj 109 6 inlet;
#X obj 355 44 * 100;
#X obj 302 120 t f b;
#X msg 431 60 1;
#X obj 434 162 line;
#X obj 434 136 pack f f;
#X obj 457 116 f;
#X obj 434 94 t b b f;
#X obj 434 192 outlet;
#X obj 229 104 % 127;
#X obj 151 45 nbx 4 14 -1e+37 1e+37 0 0 empty empty sin 0 -8 0 10 -99865
-262144 -1 1388 256;
#X obj 96 185 t b f;
#X obj 22 195 /~ 2;
#X obj 198 44 bng 15 250 50 0 empty empty rnd 0 -8 0 10 -99865 -262144
-1;
#X obj 21 220 +~ 0.5;
#X obj 70 212 tabwrite~ \$0-a;
#X obj 229 146 tabread~ \$0-a;
#X obj 155 6 inlet;
#X obj 21 168 osc~;
#X connect 2 0 9 0;
#X connect 3 0 9 1;
#X connect 3 0 17 1;
#X connect 3 0 24 1;
#X connect 4 0 10 0;
#X connect 5 0 6 0;
#X connect 5 0 27 0;
#X connect 6 0 5 1;
#X connect 7 0 2 0;
#X connect 8 0 3 0;
#X connect 9 0 5 0;
#X connect 9 0 11 0;
#X connect 10 0 3 0;
#X connect 11 0 12 0;
#X connect 11 0 25 0;
#X connect 13 0 20 0;
#X connect 14 1 21 0;
#X connect 15 0 14 0;
#X connect 15 0 17 0;
#X connect 16 0 13 0;
#X connect 17 0 19 0;
#X connect 18 0 15 0;
#X connect 19 0 16 0;
#X connect 20 0 34 0;
#X connect 20 1 11 0;
#X connect 21 0 13 0;
#X connect 22 0 26 0;
#X connect 23 0 22 0;
#X connect 24 0 23 1;
#X connect 25 0 23 0;
#X connect 25 1 24 0;
#X connect 25 2 23 0;
#X connect 27 0 34 0;
#X connect 28 0 29 0;
#X connect 29 0 33 0;
#X connect 29 1 36 0;
#X connect 30 0 32 0;
#X connect 31 0 33 0;
#X connect 32 0 33 0;
#X connect 34 0 1 0;
#X connect 34 0 11 0;
#X connect 36 0 30 0;
#X coords 0 -1 1 1 200 130 1 15 30;
