#N canvas 552 200 300 240 10;
#X obj 9 196 midiout;
#X text 9 16 1:start \, 0:stop;
#X obj 126 71 expr 60000 / (24 * $f1);
#X obj 126 37 inlet;
#X obj 9 75 t f f;
#X msg 9 133 250;
#X msg 44 134 252;
#X msg 81 134 248;
#X obj 9 39 inlet;
#X obj 9 162 f;
#X obj 9 104 sel 1;
#X text 130 16 BPM;
#X obj 81 105 metro 25;
#X connect 2 0 12 1;
#X connect 3 0 2 0;
#X connect 4 0 12 0;
#X connect 4 1 10 0;
#X connect 5 0 9 0;
#X connect 6 0 9 0;
#X connect 7 0 9 0;
#X connect 8 0 4 0;
#X connect 9 0 0 0;
#X connect 10 0 5 0;
#X connect 10 1 6 0;
#X connect 12 0 7 0;
