#N canvas 128 22 770 587 10;
#N canvas 88 22 1023 900 time_stepper 1;
#X obj -433 179 metro;
#X obj -433 203 f;
#X obj -399 203 + 1;
#X obj -432 302 f;
#X obj 420 923 mtof;
#X obj 420 944 phasor~;
#X obj 422 1016 dac~;
#X obj 447 967 * 1.9;
#X obj 421 989 bp~ 250 8;
#X obj -451 2119 outlet;
#X obj -571 -33 inlet;
#X obj -374 140 range 0 100 0 1000;
#X text 419 899 AUDIO OUT;
#X obj -433 147 != 0;
#X obj 144 104 vradio 15 1 0 10 empty empty empty 0 -8 0 10 -260097
-1 -1 0;
#X text -434 100 1 [ONE];
#X obj 144 383 tgl 15 0 empty empty empty 17 7 0 10 -260097 -1 -1 0
1;
#X obj -451 2073 pack f f f f f f f f f f f f f f f f;
#X obj 174 41 counter;
#X msg 304 -84 0;
#X msg 314 -65 1;
#X msg 323 -45 2;
#X text 348 -81 counter direction;
#X text 371 -69 0 = up;
#X text 371 -57 1 = down;
#X text 371 -45 2 = up and down;
#X floatatom 340 -5 5 0 0 0 - - -;
#X floatatom 348 12 5 0 0 0 - - -;
#X floatatom 353 30 5 0 0 0 - - -;
#X text 388 31 set max;
#X text 385 10 set counter value;
#X msg 80 -43 up;
#X msg 93 -23 down;
#X msg 114 -4 updown;
#X text 85 -61 direction:;
#X msg 265 -61 inc;
#X msg 231 -60 dec;
#X text 166 -89 inc/decrement doesn't;
#X text 166 -78 care about direction;
#X text 377 -7 set min **;
#X obj 100 60 hradio 15 1 0 9 empty empty empty 0 -6 0 8 -260097 -1
-1 2;
#X obj 160 76 bng 15 250 50 0 empty empty empty 17 7 0 10 -262144 -1
-1;
#X obj 130 76 bng 15 250 50 0 empty empty empty 17 7 0 10 -262144 -1
-1;
#X obj 146 76 bng 15 250 50 0 empty empty empty 17 7 0 10 -262144 -1
-1;
#X obj 205 76 bng 15 250 50 0 empty empty empty 17 7 0 10 -262144 -1
-1;
#X obj 220 76 bng 15 250 50 0 empty empty empty 17 7 0 10 -262144 -1
-1;
#X obj 176 76 bng 15 250 50 0 empty empty empty 17 7 0 10 -262144 -1
-1;
#X obj 190 76 bng 15 250 50 0 empty empty empty 17 7 0 10 -262144 -1
-1;
#X obj 114 76 bng 15 250 50 0 empty empty empty 17 7 0 10 -262144 -1
-1;
#X obj 100 37 + 1;
#X obj 43 58 gate 8;
#X obj 32 26 bng 15 250 50 0 empty empty empty 17 7 0 10 -262144 -1
-1;
#X obj 144 367 bng 15 250 50 0 empty empty empty 17 7 0 10 -257985
-1 -1;
#X obj -433 226 mod 10;
#X obj -433 250 range 0 10 0 100;
#X obj -432 275 select 0 1 2 3 4 5 6 7 8 9;
#X obj 273 729 spigot;
#X obj 273 704 bng 15 250 50 0 empty empty empty 17 7 0 10 -262144
-1 -1;
#X obj 273 762 bng 15 250 50 0 empty empty empty 17 7 0 10 -262144
-1 -1;
#X obj 306 704 tgl 15 0 empty empty empty 17 7 0 10 -262144 -1 -1 0
1;
#X obj 273 645 tgl 15 0 empty empty empty 17 7 0 10 -262144 -1 -1 0
1;
#X obj 272 672 metro;
#X obj -295 298 spigot;
#X obj -295 318 t b b;
#X obj -393 429 metro;
#X obj -393 453 f;
#X obj -359 453 + 1;
#X obj -392 552 f;
#X obj -393 370 range 0 100 0 1000;
#X obj -393 397 != 0;
#X obj 159 104 vradio 15 1 0 10 empty empty empty 0 -8 0 10 -260097
-1 -1 0;
#X obj 158 383 tgl 15 0 empty empty empty 17 7 0 10 -260097 -1 -1 0
1;
#X obj 158 367 bng 15 250 50 0 empty empty empty 17 7 0 10 -257985
-1 -1;
#X obj -393 476 mod 10;
#X obj -393 500 range 0 10 0 100;
#X obj -392 525 select 0 1 2 3 4 5 6 7 8 9;
#X obj -255 552 spigot;
#X obj -255 574 t b b;
#X obj -323 679 metro;
#X obj -323 703 f;
#X obj -289 703 + 1;
#X obj -322 802 f;
#X obj -323 620 range 0 100 0 1000;
#X obj -323 647 != 0;
#X obj 174 104 vradio 15 1 0 10 empty empty empty 0 -8 0 10 -260097
-1 -1 0;
#X obj 173 383 tgl 15 0 empty empty empty 17 7 0 10 -260097 -1 -1 0
1;
#X obj 173 367 bng 15 250 50 0 empty empty empty 17 7 0 10 -257985
-1 -1;
#X obj -323 726 mod 10;
#X obj -323 750 range 0 10 0 100;
#X obj -322 775 select 0 1 2 3 4 5 6 7 8 9;
#X obj -185 799 spigot;
#X obj -185 821 t b b;
#X obj -283 924 metro;
#X obj -283 948 f;
#X obj -249 948 + 1;
#X obj -282 1047 f;
#X obj -283 865 range 0 100 0 1000;
#X obj -283 892 != 0;
#X obj 189 104 vradio 15 1 0 10 empty empty empty 0 -8 0 10 -260097
-1 -1 0;
#X obj 189 383 tgl 15 0 empty empty empty 17 7 0 10 -260097 -1 -1 0
1;
#X obj 189 367 bng 15 250 50 0 empty empty empty 17 7 0 10 -257985
-1 -1;
#X obj -283 971 mod 10;
#X obj -283 995 range 0 10 0 100;
#X obj -282 1020 select 0 1 2 3 4 5 6 7 8 9;
#X obj -145 1043 spigot;
#X obj -145 1065 t b b;
#X obj -253 1168 metro;
#X obj -253 1192 f;
#X obj -219 1192 + 1;
#X obj -252 1291 f;
#X obj -253 1109 range 0 100 0 1000;
#X obj -253 1136 != 0;
#X obj 204 104 vradio 15 1 0 10 empty empty empty 0 -8 0 10 -260097
-1 -1 0;
#X obj 204 383 tgl 15 0 empty empty empty 17 7 0 10 -260097 -1 -1 0
1;
#X obj 204 367 bng 15 250 50 0 empty empty empty 17 7 0 10 -257985
-1 -1;
#X obj -253 1215 mod 10;
#X obj -253 1239 range 0 10 0 100;
#X obj -252 1264 select 0 1 2 3 4 5 6 7 8 9;
#X obj -115 1289 spigot;
#X obj -115 1310 t b b;
#X obj -203 1418 metro;
#X obj -203 1442 f;
#X obj -169 1442 + 1;
#X obj -202 1541 f;
#X obj -203 1359 range 0 100 0 1000;
#X obj -203 1386 != 0;
#X obj 219 104 vradio 15 1 0 10 empty empty empty 0 -8 0 10 -260097
-1 -1 0;
#X obj 219 383 tgl 15 0 empty empty empty 17 7 0 10 -260097 -1 -1 0
1;
#X obj 219 367 bng 15 250 50 0 empty empty empty 17 7 0 10 -257985
-1 -1;
#X obj -203 1465 mod 10;
#X obj -203 1489 range 0 10 0 100;
#X obj -202 1514 select 0 1 2 3 4 5 6 7 8 9;
#X obj -65 1537 spigot;
#X obj -65 1560 t b b;
#X obj -163 1664 metro;
#X obj -163 1688 f;
#X obj -129 1688 + 1;
#X obj -162 1787 f;
#X obj -163 1605 range 0 100 0 1000;
#X obj -163 1632 != 0;
#X obj 234 104 vradio 15 1 0 10 empty empty empty 0 -8 0 10 -260097
-1 -1 0;
#X obj 234 383 tgl 15 0 empty empty empty 17 7 0 10 -260097 -1 -1 0
1;
#X obj 234 367 bng 15 250 50 0 empty empty empty 17 7 0 10 -257985
-1 -1;
#X obj -163 1711 mod 10;
#X obj -163 1735 range 0 10 0 100;
#X obj -162 1760 select 0 1 2 3 4 5 6 7 8 9;
#X obj -25 1784 spigot;
#X obj -25 1807 t b b;
#X obj -123 1904 metro;
#X obj -123 1928 f;
#X obj -89 1928 + 1;
#X obj -122 2027 f;
#X obj -123 1845 range 0 100 0 1000;
#X obj -123 1872 != 0;
#X obj 249 104 vradio 15 1 0 10 empty empty empty 0 -8 0 10 -260097
-1 -1 0;
#X obj 249 383 tgl 15 0 empty empty empty 17 7 0 10 -260097 -1 -1 0
1;
#X obj 249 367 bng 15 250 50 0 empty empty empty 17 7 0 10 -257985
-1 -1;
#X obj -123 1951 mod 10;
#X obj -123 1975 range 0 10 0 100;
#X obj -122 2000 select 0 1 2 3 4 5 6 7 8 9;
#X obj 15 2031 spigot;
#X obj 15 2055 t b b;
#X obj 143 257 vsl 15 50 0 100 0 0 empty empty empty 0 -9 0 10 -257985
-1 -1 1500 1;
#X obj 159 257 vsl 15 50 0 100 0 0 empty empty empty 0 -9 0 10 -257985
-1 -1 1900 1;
#X obj 174 257 vsl 15 50 0 100 0 0 empty empty empty 0 -9 0 10 -257985
-1 -1 2300 1;
#X obj 190 257 vsl 15 50 0 100 0 0 empty empty empty 0 -9 0 10 -257985
-1 -1 2500 1;
#X obj 205 257 vsl 15 50 0 100 0 0 empty empty empty 0 -9 0 10 -257985
-1 -1 2800 1;
#X obj 219 257 vsl 15 50 0 100 0 0 empty empty empty 0 -9 0 10 -257985
-1 -1 3100 1;
#X obj 235 257 vsl 15 50 0 100 0 0 empty empty empty 0 -9 0 10 -257985
-1 -1 3200 1;
#X obj 249 257 vsl 15 50 0 100 0 0 empty empty empty 0 -9 0 10 -257985
-1 -1 3400 1;
#X obj 144 313 vsl 15 50 0 100 0 0 empty empty empty 0 -9 0 10 -260097
-1 -1 700 1;
#X obj 159 313 vsl 15 50 0 100 0 0 empty empty empty 0 -9 0 10 -260097
-1 -1 1000 1;
#X obj 174 313 vsl 15 50 0 100 0 0 empty empty empty 0 -9 0 10 -260097
-1 -1 900 1;
#X obj 189 313 vsl 15 50 0 100 0 0 empty empty empty 0 -9 0 10 -260097
-1 -1 900 1;
#X obj 204 313 vsl 15 50 0 100 0 0 empty empty empty 0 -9 0 10 -260097
-1 -1 1200 1;
#X obj 219 313 vsl 15 50 0 100 0 0 empty empty empty 0 -9 0 10 -260097
-1 -1 1500 1;
#X obj 234 313 vsl 15 50 0 100 0 0 empty empty empty 0 -9 0 10 -260097
-1 -1 1500 1;
#X obj 249 313 vsl 15 50 0 100 0 0 empty empty empty 0 -9 0 10 -260097
-1 -1 1500 1;
#X obj 369 -103 loadbang;
#X obj 80 -103 loadbang;
#X msg 369 59 7;
#X obj -571 0 unpack f f f f f f f f f f f f f f f f;
#X obj -329 -34 inlet;
#X obj -329 0 unpack f f f f f f f f f f f f f f f f;
#X text -528 -33 yello sliderz;
#X text -433 -33 orange sliderz;
#X text -190 -33 orange toggz;
#X text -287 -33 white toggz;
#X text -394 350 2 [TWO];
#X text -324 600 3 [THREE];
#X text -284 845 4 [FOUR];
#X text -254 1089 5 [FIVE];
#X text -204 1339 6 [SIX];
#X text -164 1585 7 [SEVEN];
#X text -124 1825 8 [EIGHT];
#X msg 299 644 666;
#X text 130 314 r;
#X text 130 334 t;
#X text 130 323 a;
#X text 130 344 e;
#X text 131 247 p;
#X text 131 268 t;
#X text 131 259 i;
#X text 130 277 c;
#X text 131 288 h;
#X text 272 427 2-axis sequencer \, top horizontial section moves +1
every time a vertical radio array gets done. each vradio can have an
independently controlled metro time AND keep the global step sequencer
going because when each one reaches their last step they bang the "gate
punch". the white toggz can run one column of the vradio sequence at
once. this is connected to a midi note and controller toggle button.
;
#X text 274 534 ISSUES:;
#X text 276 549 * only one counter direction \, up \, is working at
the moment. possibly a spigot for the enumeration of directions to
control the next vradio sequence to get banged.;
#X text -612 -104 TIME_STEPPER;
#X text -529 -18 1 2 3 4 5 6 7 8;
#X text -433 -18 1 2 3 4 5 6 7 8;
#X text -287 -17 1 2 3 4 5 6 7 8;
#X text -191 -17 1 2 3 4 5 6 7 8;
#X text -422 2091 1 2 3 4 5 6 7 8;
#X text -326 2091 1 2 3 4 5 6 7 8;
#X text 271 607 basic concept: listen to a metro \, or not.;
#X text -477 203 |;
#X text -477 179 |;
#X text -477 216 |;
#X text -477 228 |;
#X text -477 241 |;
#X text -477 253 |;
#X text -477 266 |;
#X text -477 279 |;
#X text -477 292 |;
#X text -477 128 |;
#X text -477 141 |;
#X text -477 153 |;
#X text -477 166 |;
#X text -477 114 |;
#X text -475 101 /;
#X text -477 304 |;
#X text -477 316 |..;
#X text 113 364 pump;
#X text 113 381 lock;
#X text 102 123 TIME;
#X text 101 134 STEPPR;
#X text 31 11 ##;
#X text 23 -11 GATE;
#X text 21 1 PUNCH;
#X obj 110 174 bng 15 250 50 0 empty empty empty 17 7 0 10 -257985
-1 -1;
#X text 108 157 0n;
#X text 109 188 0ff;
#X text 273 407 #TODO reimpelment the 2nd axis?;
#X text 287 165 here is a 8-bay variable-rate step sequencer.;
#X text 274 302 change the pitch! change the rate! wow!;
#X text 272 103 click the top row and trigger the note.;
#X text 205 232;
#X text -613 -79 f-dt.com;
#X text -612 -92 edwardsharp.net;
#X text -612 -66 2012 creative commons;
#X connect 0 0 1 0;
#X connect 1 0 2 0;
#X connect 1 0 53 0;
#X connect 2 0 1 1;
#X connect 3 0 4 0;
#X connect 3 0 17 1;
#X connect 4 0 5 0;
#X connect 4 0 7 0;
#X connect 5 0 8 0;
#X connect 7 0 8 1;
#X connect 8 0 6 0;
#X connect 8 0 6 1;
#X connect 10 0 181 0;
#X connect 11 0 13 0;
#X connect 11 0 0 1;
#X connect 14 0 55 0;
#X connect 16 0 0 0;
#X connect 17 0 9 0;
#X connect 18 0 49 0;
#X connect 19 0 18 1;
#X connect 20 0 18 1;
#X connect 21 0 18 1;
#X connect 26 0 18 2;
#X connect 27 0 18 3;
#X connect 28 0 18 4;
#X connect 31 0 18 0;
#X connect 32 0 18 0;
#X connect 33 0 18 0;
#X connect 35 0 18 0;
#X connect 36 0 18 0;
#X connect 40 0 50 0;
#X connect 40 0 50 1;
#X connect 49 0 40 0;
#X connect 50 0 48 0;
#X connect 50 1 42 0;
#X connect 50 2 43 0;
#X connect 50 3 41 0;
#X connect 50 4 46 0;
#X connect 50 5 47 0;
#X connect 50 6 44 0;
#X connect 50 7 45 0;
#X connect 51 0 18 0;
#X connect 52 0 16 0;
#X connect 53 0 14 0;
#X connect 53 0 54 0;
#X connect 54 0 17 0;
#X connect 55 0 3 0;
#X connect 55 9 62 0;
#X connect 56 0 58 0;
#X connect 57 0 56 0;
#X connect 59 0 56 1;
#X connect 60 0 61 0;
#X connect 61 0 57 0;
#X connect 62 0 63 0;
#X connect 63 1 51 0;
#X connect 64 0 65 0;
#X connect 65 0 66 0;
#X connect 65 0 73 0;
#X connect 66 0 65 1;
#X connect 67 0 4 0;
#X connect 67 0 17 3;
#X connect 68 0 69 0;
#X connect 68 0 64 1;
#X connect 70 0 75 0;
#X connect 71 0 64 0;
#X connect 72 0 71 0;
#X connect 73 0 70 0;
#X connect 73 0 74 0;
#X connect 74 0 17 2;
#X connect 75 0 67 0;
#X connect 75 9 76 0;
#X connect 76 0 77 0;
#X connect 77 1 51 0;
#X connect 78 0 79 0;
#X connect 79 0 80 0;
#X connect 79 0 87 0;
#X connect 80 0 79 1;
#X connect 81 0 4 0;
#X connect 81 0 17 5;
#X connect 82 0 83 0;
#X connect 82 0 78 1;
#X connect 84 0 89 0;
#X connect 85 0 78 0;
#X connect 86 0 85 0;
#X connect 87 0 84 0;
#X connect 87 0 88 0;
#X connect 88 0 17 4;
#X connect 89 0 81 0;
#X connect 89 9 90 0;
#X connect 90 0 91 0;
#X connect 91 1 51 0;
#X connect 92 0 93 0;
#X connect 93 0 94 0;
#X connect 93 0 101 0;
#X connect 94 0 93 1;
#X connect 95 0 4 0;
#X connect 95 0 17 7;
#X connect 96 0 97 0;
#X connect 96 0 92 1;
#X connect 98 0 103 0;
#X connect 99 0 92 0;
#X connect 100 0 99 0;
#X connect 101 0 98 0;
#X connect 101 0 102 0;
#X connect 102 0 17 6;
#X connect 103 0 95 0;
#X connect 103 9 104 0;
#X connect 104 0 105 0;
#X connect 105 1 51 0;
#X connect 106 0 107 0;
#X connect 107 0 108 0;
#X connect 107 0 115 0;
#X connect 108 0 107 1;
#X connect 109 0 4 0;
#X connect 109 0 17 9;
#X connect 110 0 111 0;
#X connect 110 0 106 1;
#X connect 112 0 117 0;
#X connect 113 0 106 0;
#X connect 114 0 113 0;
#X connect 115 0 112 0;
#X connect 115 0 116 0;
#X connect 116 0 17 8;
#X connect 117 0 109 0;
#X connect 117 9 118 0;
#X connect 118 0 119 0;
#X connect 119 1 51 0;
#X connect 120 0 121 0;
#X connect 121 0 122 0;
#X connect 121 0 129 0;
#X connect 122 0 121 1;
#X connect 123 0 4 0;
#X connect 123 0 17 11;
#X connect 124 0 125 0;
#X connect 124 0 120 1;
#X connect 126 0 131 0;
#X connect 127 0 120 0;
#X connect 128 0 127 0;
#X connect 129 0 126 0;
#X connect 129 0 130 0;
#X connect 130 0 17 10;
#X connect 131 0 123 0;
#X connect 131 9 132 0;
#X connect 132 0 133 0;
#X connect 133 1 51 0;
#X connect 134 0 135 0;
#X connect 135 0 136 0;
#X connect 135 0 143 0;
#X connect 136 0 135 1;
#X connect 137 0 4 0;
#X connect 137 0 17 13;
#X connect 138 0 139 0;
#X connect 138 0 134 1;
#X connect 140 0 145 0;
#X connect 141 0 134 0;
#X connect 142 0 141 0;
#X connect 143 0 140 0;
#X connect 143 0 144 0;
#X connect 144 0 17 12;
#X connect 145 0 137 0;
#X connect 145 9 146 0;
#X connect 146 0 147 0;
#X connect 147 1 51 0;
#X connect 148 0 149 0;
#X connect 149 0 150 0;
#X connect 149 0 157 0;
#X connect 150 0 149 1;
#X connect 151 0 4 0;
#X connect 151 0 17 15;
#X connect 152 0 153 0;
#X connect 152 0 148 1;
#X connect 154 0 159 0;
#X connect 155 0 148 0;
#X connect 156 0 155 0;
#X connect 157 0 154 0;
#X connect 157 0 158 0;
#X connect 158 0 17 14;
#X connect 159 0 151 0;
#X connect 159 9 160 0;
#X connect 160 0 161 0;
#X connect 161 1 51 0;
#X connect 162 0 3 1;
#X connect 163 0 67 1;
#X connect 164 0 81 1;
#X connect 165 0 95 1;
#X connect 166 0 109 1;
#X connect 167 0 123 1;
#X connect 168 0 137 1;
#X connect 169 0 151 1;
#X connect 170 0 11 0;
#X connect 171 0 68 0;
#X connect 172 0 82 0;
#X connect 173 0 96 0;
#X connect 174 0 110 0;
#X connect 175 0 124 0;
#X connect 176 0 138 0;
#X connect 177 0 152 0;
#X connect 178 0 180 0;
#X connect 179 0 31 0;
#X connect 180 0 28 0;
#X connect 181 0 162 0;
#X connect 181 1 163 0;
#X connect 181 2 164 0;
#X connect 181 3 165 0;
#X connect 181 4 166 0;
#X connect 181 5 167 0;
#X connect 181 6 168 0;
#X connect 181 7 169 0;
#X connect 181 8 170 0;
#X connect 181 9 171 0;
#X connect 181 10 172 0;
#X connect 181 11 173 0;
#X connect 181 12 174 0;
#X connect 181 13 175 0;
#X connect 181 14 176 0;
#X connect 181 15 177 0;
#X connect 182 0 183 0;
#X connect 183 0 52 0;
#X connect 183 1 72 0;
#X connect 183 2 86 0;
#X connect 183 3 100 0;
#X connect 183 4 114 0;
#X connect 183 5 128 0;
#X connect 183 6 142 0;
#X connect 183 7 156 0;
#X connect 183 8 16 0;
#X connect 183 9 71 0;
#X connect 183 10 85 0;
#X connect 183 11 99 0;
#X connect 183 12 113 0;
#X connect 183 13 127 0;
#X connect 183 14 141 0;
#X connect 183 15 155 0;
#X connect 195 0 61 1;
#X connect 240 0 156 0;
#X connect 240 0 128 0;
#X connect 240 0 114 0;
#X connect 240 0 100 0;
#X connect 240 0 86 0;
#X connect 240 0 72 0;
#X connect 240 0 52 0;
#X connect 240 0 142 0;
#X coords 0 -1 1 1 166 300 2 100 100;
#X restore 270 70 pd time_stepper;
