#N canvas 704 201 450 300 10;
#X obj -29 84 mtof;
#X obj -29 105 phasor~;
#X obj -26 158 dac~;
#X text 12 157 AUDIO OUT;
#X obj 99 -22 loadbang;
#X msg -42 53 50;
#X obj -45 28 metro 500;
#X msg 15 -21 stop;
#X obj 22 28 metro 666;
#X msg -8 54 44;
#X text -53 -47 A SIMPLE TONE GENERATOR;
#X msg 208 127 \; pd dsp 1;
#X obj 197 45 loadbang;
#X obj 173 169 print Running;
#X obj 196 83 delay 100;
#X text 185 -17 #;
#X text 185 -3 LOADBANGZ 4 PD_SRV;
#X text 184 11 && RASPBERRY PI;
#X connect 0 0 1 0;
#X connect 1 0 2 0;
#X connect 1 0 2 1;
#X connect 4 0 8 0;
#X connect 4 0 6 0;
#X connect 5 0 0 0;
#X connect 6 0 5 0;
#X connect 7 0 6 0;
#X connect 7 0 8 0;
#X connect 8 0 9 0;
#X connect 9 0 0 0;
#X connect 12 0 14 0;
#X connect 14 0 11 0;
#X connect 14 0 13 0;
