#N canvas 312 244 331 302 10;
#X obj 43 141 mtof;
#X obj 43 162 phasor~;
#X obj 46 215 dac~;
#X text 84 214 AUDIO OUT;
#X obj 171 35 loadbang;
#X msg 30 110 50;
#X obj 27 85 metro 500;
#X msg 87 36 stop;
#X obj 94 85 metro 666;
#X msg 64 111 44;
#X msg 250 118 \; pd dsp 1;
#X obj 239 36 loadbang;
#X obj 215 160 print Running;
#X obj 238 74 delay 100;
#X text 20 267 $ pd -nogui -alsa nogui_testtone.pd;
#X text 192 10 http://lacuna.club;
#X text 19 10 A SIMPLE 2-TONE GENERATOR;
#X connect 0 0 1 0;
#X connect 1 0 2 0;
#X connect 1 0 2 1;
#X connect 4 0 8 0;
#X connect 4 0 6 0;
#X connect 5 0 0 0;
#X connect 6 0 5 0;
#X connect 7 0 6 0;
#X connect 7 0 8 0;
#X connect 8 0 9 0;
#X connect 9 0 0 0;
#X connect 11 0 13 0;
#X connect 13 0 10 0;
#X connect 13 0 12 0;
