#N canvas 182 23 1083 592 10;
#X obj 11 166 *~;
#X obj 11 6 noise~;
#X obj 55 558 dac~;
#X obj 11 531 *~;
#X obj 104 530 *~;
#X obj 101 342 *~;
#X obj 101 289 vsl 20 40 0 10 0 0 empty empty VOL 0 -9 0 10 -33289
-262144 -1 3800 1;
#X obj 143 248 mtof;
#X obj 146 224 hsl 128 15 0 127 0 0 empty empty freq -2 -8 0 10 -66577
-262144 -1 0 1;
#X obj 143 274 phasor~;
#X obj 227 240 nbx 5 14 -1e+37 1e+37 0 0 empty empty empty 0 -8 0 10
-262144 -1 -1 0 256 0;
#X msg 173 205 66;
#X msg 213 206 80;
#X msg 252 206 50;
#X obj 142 340 complex-mod~;
#X obj 182 297 -~ 0.25;
#X obj 264 513 *~;
#X obj 354 470 vsl 20 40 0 5 0 0 empty empty VOL 0 -9 0 10 -33289 -262144
-1 0 1;
#X obj 142 513 *~;
#X obj 231 470 vsl 20 40 0 5 0 0 empty empty VOL 0 -9 0 10 -33289 -262144
-1 0 1;
#X obj 231 264 hsl 50 15 0 1 0 0 empty empty empty -2 -8 0 10 -1 -262144
-1 0 1;
#X obj 459 144 * 127;
#X floatatom 272 323 0 0 0 0 - - -;
#X obj 182 318 cos~;
#X obj 29 31 lfo2;
#X obj 11 187 bobby;
#X obj 132 187 nbx 3 14 -1e+37 1e+37 0 0 empty empty empty 0 -8 0 10
-33289 -262144 -1 0 256 0;
#X text 517 144 pitch envelope;
#X text 237 308 sin shift;
#X obj 29 470 vsl 40 50 0 1 0 0 empty empty MAIN 0 -9 0 10 -33289 -262144
-1 4850 1;
#X obj 875 362 * 200;
#X obj 822 362 * 127;
#X obj 629 13 lfo3;
#X obj 619 362 * 200;
#X obj 1037 362 * 127;
#X obj 84 14 nbx 4 14 1 9999 0 0 grate empty g_rate 0 -8 0 10 -33289
-262144 -1 1 256 0;
#X obj 407 233 lfo3;
#X obj 419 14 lfo3;
#X obj 619 232 lfo3;
#X obj 835 232 lfo3;
#X obj 844 13 lfo3;
#X text 918 362 filter2 rez envl;
#X text 893 143 filter2 freq envelope;
#X text 671 143 filter1 freq envelope;
#X text 675 362 filter1 rez envelope;
#X text 477 363 noise pan envelope;
#X obj 166 15 lfo3;
#X obj 166 150 * 127;
#X obj 60 166 * 120;
#X obj 264 379 bobby;
#X obj 142 379 bobby;
#N canvas 415 23 450 300 pan 0;
#X obj 106 29 inlet~;
#X obj 105 268 outlet~;
#X obj 168 268 outlet~;
#X obj 108 122 hsl 94 30 0 1 0 0 empty empty empty -2 -6 0 10 -33289
-262144 -1 4600 1;
#X obj 106 81 *~;
#X obj 154 81 *~;
#X obj 122 193 select 2;
#X obj 175 244 -;
#X msg 175 219 1;
#X obj 105 167 nbx 3 14 0 1 0 0 empty empty LEFT 0 -8 0 10 -1 -262144
-1 0.494624 256 0;
#X obj 167 167 nbx 3 14 0 1 0 0 empty empty RIGHT 0 -8 0 10 -1 -262144
-1 0.516129 256 0;
#X obj 162 29 inlet;
#X obj 213 29 inlet~;
#X obj 213 120 metro 100;
#X obj 187 105 tgl 15 0 empty empty snap -25 7 0 10 -262144 -1 -1 0
1;
#X obj 213 149 snapshot~;
#X obj 187 81 loadbang;
#X obj 124 57 line~;
#X obj 172 56 line~;
#X connect 0 0 4 0;
#X connect 0 0 5 0;
#X connect 3 0 6 0;
#X connect 3 0 7 1;
#X connect 3 0 9 0;
#X connect 4 0 1 0;
#X connect 5 0 2 0;
#X connect 6 1 8 0;
#X connect 7 0 10 0;
#X connect 8 0 7 0;
#X connect 9 0 17 0;
#X connect 10 0 18 0;
#X connect 11 0 3 0;
#X connect 12 0 15 0;
#X connect 13 0 15 0;
#X connect 14 0 13 0;
#X connect 15 0 3 0;
#X connect 16 0 14 0;
#X connect 17 0 4 1;
#X connect 18 0 5 1;
#X coords 0 -1 1 1 110 85 1 100 100;
#X restore 11 363 pd pan;
#X connect 0 0 25 0;
#X connect 1 0 0 0;
#X connect 3 0 2 0;
#X connect 4 0 2 1;
#X connect 5 0 51 0;
#X connect 6 0 5 1;
#X connect 7 0 9 0;
#X connect 8 0 7 0;
#X connect 8 0 10 0;
#X connect 8 0 22 0;
#X connect 9 0 15 0;
#X connect 9 0 14 0;
#X connect 11 0 8 0;
#X connect 12 0 8 0;
#X connect 13 0 8 0;
#X connect 14 0 50 0;
#X connect 14 1 49 0;
#X connect 15 0 23 0;
#X connect 16 0 4 0;
#X connect 17 0 16 1;
#X connect 18 0 3 0;
#X connect 19 0 18 1;
#X connect 20 0 15 1;
#X connect 21 0 8 0;
#X connect 22 0 14 2;
#X connect 23 0 14 1;
#X connect 24 0 0 1;
#X connect 24 1 48 0;
#X connect 25 0 5 0;
#X connect 26 0 8 0;
#X connect 29 0 3 1;
#X connect 29 0 4 1;
#X connect 30 0 49 2;
#X connect 31 0 50 1;
#X connect 32 1 31 0;
#X connect 33 0 50 2;
#X connect 34 0 49 1;
#X connect 37 1 21 0;
#X connect 38 1 33 0;
#X connect 39 1 30 0;
#X connect 40 1 34 0;
#X connect 46 1 47 0;
#X connect 47 0 25 1;
#X connect 48 0 25 2;
#X connect 49 0 16 0;
#X connect 50 0 18 0;
#X connect 51 0 3 0;
#X connect 51 1 4 0;
