#N canvas 399 62 877 472 10;
#X declare -lib mrpeach;
#N canvas 735 35 458 668 sub2 1;
#X obj 20 10600 routeOSC /1/push3/z;
#X obj 20 10625 routeOSC /1/push3;
#X obj 20 10650 routeOSC /1/push3;
#X obj 20 10675 routeOSC /1/push3/z;
#X obj 20 25 routeOSC /1/push1/z;
#X obj 20 50 routeOSC /1/push1;
#X obj 20 75 routeOSC /1/push1;
#X obj 20 100 routeOSC /1/push1/z;
#X obj 20 125 routeOSC /1/push2/z;
#X obj 20 150 routeOSC /1/push2;
#X obj 20 175 routeOSC /1/push2;
#X obj 20 200 routeOSC /1/push2/z;
#X obj 20 225 routeOSC /1/push3/z;
#X obj 20 250 routeOSC /1/push3;
#X obj 20 275 routeOSC /1/push3/z;
#X restore -5 252 pd sub2;
#X obj -6 222 s pd-sub2;
#X obj -6 -126 import mrpeach;
#X obj -7 -69 unpackOSC;
#X obj -7 -96 udpreceive 9000;
#X obj -6 18 symbol;
#X msg 72 90 routeOSC;
#X obj 72 113 symbol;
#X msg -6 90 20;
#X obj 21 90 f;
#X obj -6 157 pack f f s s;
#X obj -6 48 t b b b s;
#X msg -6 190 obj \$1 \$2 \$3 \$4;
#X obj 44 90 + 25;
#X msg 163 2 0;
#X obj -6 -9 spigot;
#X obj 161 -48 tgl 15 0 empty empty empty 17 7 0 10 -262144 -1 -1 0
1;
#X text 159 -77 LEARN;
#X text 159 -65 On/Off;
#X text 161 -27 RESET;
#X text 161 -15 POSITION;
#X connect 3 0 15 0;
#X connect 4 0 3 0;
#X connect 5 0 11 0;
#X connect 6 0 7 0;
#X connect 7 0 10 2;
#X connect 8 0 10 0;
#X connect 9 0 10 1;
#X connect 9 0 13 0;
#X connect 10 0 12 0;
#X connect 11 0 8 0;
#X connect 11 1 9 0;
#X connect 11 2 6 0;
#X connect 11 3 10 3;
#X connect 12 0 1 0;
#X connect 13 0 9 1;
#X connect 14 0 9 0;
#X connect 15 0 5 0;
#X connect 16 0 15 1;
