#N canvas 354 209 207 281 10;
#X obj 12 11 inlet~;
#X obj 11 250 outlet~;
#X obj 74 250 outlet~;
#X obj 14 104 hsl 94 30 0 1 0 0 empty empty empty -2 -6 0 10 -33289
-262144 -1 0 1;
#X obj 12 63 *~;
#X obj 60 63 *~;
#X obj 28 175 select 2;
#X obj 81 226 -;
#X msg 81 201 1;
#X obj 11 149 nbx 3 14 0 1 0 0 empty empty LEFT 0 -8 0 10 -1 -262144
-1 0 256 0;
#X obj 73 149 nbx 3 14 0 1 0 0 empty empty RIGHT 0 -8 0 10 -1 -262144
-1 1 256 0;
#X obj 68 11 inlet;
#X obj 119 11 inlet~;
#X obj 119 102 metro 100;
#X obj 93 87 tgl 15 0 empty empty snap -25 7 0 10 -262144 -1 -1 1 1
;
#X obj 119 131 snapshot~;
#X obj 93 63 loadbang;
#X obj 30 39 line~;
#X obj 78 38 line~;
#X connect 0 0 4 0;
#X connect 0 0 5 0;
#X connect 3 0 6 0;
#X connect 3 0 7 1;
#X connect 3 0 9 0;
#X connect 4 0 1 0;
#X connect 5 0 2 0;
#X connect 6 1 8 0;
#X connect 7 0 10 0;
#X connect 8 0 7 0;
#X connect 9 0 17 0;
#X connect 10 0 18 0;
#X connect 11 0 3 0;
#X connect 12 0 15 0;
#X connect 13 0 15 0;
#X connect 14 0 13 0;
#X connect 15 0 3 0;
#X connect 16 0 14 0;
#X connect 17 0 4 1;
#X connect 18 0 5 1;
#X coords 0 -1 1 1 100 85 1 10 85;
