#N canvas 4 311 439 374 10;
#X obj 136 217 metro 500;
#X obj 109 114 tgl 15 0 empty empty empty 17 7 0 10 -262144 -1 -1 0
1;
#X obj 112 134 hsl 128 15 10 1000 0 0 empty empty empty -2 -8 0 10
-262144 -1 -1 0 1;
#X text 130 112 pan lfo;
#X text 127 133 pan rate 10-1000;
#X floatatom 125 52 10 0 0 0 - - -, f 10;
#X floatatom 180 267 5 0 0 0 - - -, f 5;
#X floatatom 188 284 5 0 0 0 - - -, f 5;
#X floatatom 195 302 5 0 0 0 - - -, f 5;
#X msg 92 241 updown;
#X text 27 237 direction:;
#X obj 90 308 counter;
#X text 233 301 set max;
#X obj 220 224 loadbang;
#X msg 178 244 0;
#X text 220 263 set min;
#X text 228 280 curent val;
#X obj 112 156 hsl 128 15 0 100 0 0 empty empty empty -2 -8 0 10 -262144
-1 -1 2794 1;
#X text 161 154 pan;
#X msg 270 166 500;
#X obj 212 114 bng 15 250 50 0 empty empty empty 17 7 0 10 -262144
-1 -1;
#X msg 271 129 0;
#X text 111 155 1;
#X text 230 155 2;
#X msg 213 327 100;
#X obj 230 46 * -1;
#X obj 230 74 nbx 5 14 -1e+37 1e+37 0 0 empty empty empty 0 -8 0 10
-262144 -1 -1 -22 256;
#X obj 89 341 outlet;
#X text 230 111 0;
#X obj 42 27 inlet;
#X connect 0 0 11 0;
#X connect 1 0 0 0;
#X connect 2 0 0 1;
#X connect 6 0 11 2;
#X connect 7 0 11 3;
#X connect 8 0 11 4;
#X connect 9 0 11 0;
#X connect 11 0 17 0;
#X connect 11 0 27 0;
#X connect 13 0 14 0;
#X connect 13 0 7 0;
#X connect 13 0 24 0;
#X connect 13 0 9 0;
#X connect 13 0 1 0;
#X connect 13 0 19 0;
#X connect 14 0 11 2;
#X connect 17 0 5 0;
#X connect 17 0 25 0;
#X connect 19 0 2 0;
#X connect 20 0 21 0;
#X connect 21 0 17 0;
#X connect 24 0 11 4;
#X connect 25 0 26 0;
#X connect 29 0 24 0;
#X coords 0 -1 1 1 160 80 1 100 100;
