#N canvas 49 107 627 334 10;
#X obj 133 293 dac~ 1 2;
#X obj 18 132 *~;
#X obj 18 108 *~;
#X obj 84 127 vsl 45 40 0 1 0 0 empty empty GAIN_1&2 0 -9 0 10 -228856
-260097 -1 0 1;
#X obj 166 110 *~;
#X obj 212 127 vsl 45 40 0 1 0 0 empty empty GAIN_3 0 -9 0 10 -228856
-260097 -1 0 1;
#X obj 31 15 inlet~;
#X obj 81 15 inlet~;
#X obj 131 15 inlet~;
#X obj 181 15 inlet~;
#X obj 286 110 *~;
#X obj 328 127 vsl 45 40 0 1 0 0 empty empty GAIN_4 0 -9 0 10 -228856
-260097 -1 0 1;
#X obj 279 137 dac~ 4;
#X obj 159 137 dac~ 3;
#X obj 77 64 loadbang;
#X msg 77 90 0.3;
#X obj 35 258 pan~;
#X obj 427 190 metro 500;
#X obj 400 131 tgl 15 0 empty empty empty 17 7 0 10 -262144 -1 -1 0
1;
#X obj 403 155 hsl 128 15 10 1000 0 0 empty empty empty -2 -8 0 10
-262144 -1 -1 0 1;
#X text 421 129 pan lfo;
#X text 425 86 pan i/o;
#X obj 400 88 tgl 15 0 empty empty empty 17 7 0 10 -262144 -1 -1 0
1;
#X obj 52 188 spigot~;
#X obj 52 218 spigot~;
#X text 431 154 pan rate 10-1000;
#X floatatom 242 246 10 0 0 0 - - -;
#X floatatom 471 240 5 0 0 0 - - -;
#X floatatom 479 257 5 0 0 0 - - -;
#X floatatom 486 275 5 0 0 0 - - -;
#X msg 383 214 updown;
#X text 318 210 direction:;
#X obj 381 281 counter;
#X text 524 274 set max;
#X obj 511 197 loadbang;
#X msg 469 217 0;
#X msg 504 300 90;
#X obj 242 209 - 45;
#X text 511 236 set min;
#X text 519 253 curent val;
#X obj 403 109 hsl 128 15 -45 45 0 0 empty empty empty -2 -8 0 10 -262144
-1 -1 0 1;
#X text 452 107 pan;
#X msg 561 139 500;
#X obj 273 11 r hr_pan_lfo_down;
#X obj 478 87 bng 15 250 50 0 empty empty empty 17 7 0 10 -262144 -1
-1;
#X text 496 84 center;
#X msg 562 102 0;
#X text 402 108 1;
#X text 521 108 2;
#X connect 1 0 24 0;
#X connect 2 0 23 0;
#X connect 3 0 2 1;
#X connect 3 0 1 1;
#X connect 4 0 13 0;
#X connect 5 0 4 1;
#X connect 6 0 2 0;
#X connect 7 0 1 0;
#X connect 8 0 13 0;
#X connect 9 0 12 0;
#X connect 10 0 12 0;
#X connect 11 0 10 1;
#X connect 14 0 15 0;
#X connect 15 0 3 0;
#X connect 16 0 0 0;
#X connect 16 1 0 1;
#X connect 17 0 32 0;
#X connect 18 0 17 0;
#X connect 19 0 17 1;
#X connect 22 0 23 1;
#X connect 22 0 24 1;
#X connect 23 0 0 1;
#X connect 23 0 0 0;
#X connect 23 1 16 0;
#X connect 24 0 0 1;
#X connect 24 0 0 0;
#X connect 24 1 16 0;
#X connect 27 0 32 2;
#X connect 28 0 32 3;
#X connect 29 0 32 4;
#X connect 30 0 32 0;
#X connect 32 0 37 0;
#X connect 34 0 35 0;
#X connect 34 0 28 0;
#X connect 34 0 36 0;
#X connect 34 0 30 0;
#X connect 34 0 22 0;
#X connect 34 0 18 0;
#X connect 34 0 42 0;
#X connect 35 0 32 2;
#X connect 36 0 32 4;
#X connect 37 0 26 0;
#X connect 37 0 16 1;
#X connect 37 0 40 0;
#X connect 40 0 16 1;
#X connect 42 0 19 0;
#X connect 43 0 19 0;
#X connect 44 0 46 0;
#X connect 46 0 40 0;
