#N canvas 357 22 903 685 10;
#X declare -lib mrpeach;
#N canvas 170 22 1219 719 page-2 1;
#X obj 17 -1776 r pd303-p1;
#X obj -513 -1684 OSCroute /1 /2 /3 /4 /5 /6 /7 /8 /9 /10 /11 /12 /13
/14 /15 /16;
#X obj 22 625 tgl 15 0 empty empty empty 17 7 0 10 -257985 -260097
-1 1 1;
#X obj 22 645 tgl 15 0 empty empty empty 17 7 0 10 -257985 -260097
-1 0 1;
#X obj 22 665 tgl 15 0 empty empty empty 17 7 0 10 -257985 -260097
-1 0 1;
#X obj 22 685 tgl 15 0 empty empty empty 17 7 0 10 -258113 -262144
-1 1 1;
#X obj 22 705 tgl 15 0 empty empty empty 17 7 0 10 -258113 -262144
-1 1 1;
#X obj -435 -1319 OSCroute /1 /2 /3;
#X obj -435 -1297 OSCroute /1;
#X obj -425 -1276 OSCroute /1;
#X obj -415 -1256 OSCroute /1;
#X obj -513 -1711 OSCroute /multitoggle1 /multitoggle2 /toggle2 /toggle3
;
#X obj -234 -1646 OSCroute /1;
#X obj -246 -1626 OSCroute /1;
#X obj -259 -1607 OSCroute /1;
#X obj -270 -1587 OSCroute /1;
#X obj -278 -1568 OSCroute /1;
#X obj -291 -1549 OSCroute /1;
#X obj -314 -1529 OSCroute /1;
#X obj -335 -1509 OSCroute /1;
#X obj -352 -1489 OSCroute /1;
#X obj -404 -1448 OSCroute /1;
#X obj -513 -1341 OSCroute /1;
#X obj -426 -1428 OSCroute /1;
#X obj -448 -1404 OSCroute /1;
#X obj -492 -1362 OSCroute /1;
#X obj -470 -1384 OSCroute /1;
#X obj -382 -1469 OSCroute /1;
#X obj 22 485 tgl 15 0 empty empty empty 17 7 0 10 -260097 -1 -1 0
1;
#X obj 22 465 tgl 15 0 empty empty empty 17 7 0 10 -260097 -1 -1 0
1;
#X obj 22 325 tgl 15 0 empty empty empty 17 7 0 10 -260097 -1 -1 0
1;
#X obj 22 445 tgl 15 0 empty empty empty 17 7 0 10 -260097 -1 -1 0
1;
#X obj 22 425 tgl 15 0 empty empty empty 17 7 0 10 -260097 -1 -1 0
1;
#X obj 22 405 tgl 15 0 empty empty empty 17 7 0 10 -260097 -1 -1 0
1;
#X obj 22 385 tgl 15 0 empty empty empty 17 7 0 10 -260097 -1 -1 0
1;
#X obj 22 365 tgl 15 0 empty empty empty 17 7 0 10 -260097 -1 -1 0
1;
#X obj 22 345 tgl 15 0 empty empty empty 17 7 0 10 -260097 -1 -1 0
1;
#X obj 22 605 tgl 15 0 empty empty empty 17 7 0 10 -260097 -1 -1 1
1;
#X obj 22 585 tgl 15 0 empty empty empty 17 7 0 10 -260097 -1 -1 0
1;
#X obj 22 565 tgl 15 0 empty empty empty 17 7 0 10 -260097 -1 -1 0
1;
#X obj 22 545 tgl 15 0 empty empty empty 17 7 0 10 -260097 -1 -1 0
1;
#X obj 22 525 tgl 15 0 empty empty empty 17 7 0 10 -260097 -1 -1 0
1;
#X obj 22 505 tgl 15 0 empty empty empty 17 7 0 10 -260097 -1 -1 0
1;
#X obj 22 305 tgl 15 0 empty empty empty 17 7 0 10 -260097 -1 -1 0
1;
#X obj -106 -1685 OSCroute /1 /2 /3 /4 /5 /6 /7 /8 /9 /10 /11 /12 /13
/14 /15 /16;
#X obj 173 -1647 OSCroute /1;
#X obj 162 -1627 OSCroute /1;
#X obj 148 -1608 OSCroute /1;
#X obj 137 -1588 OSCroute /1;
#X obj 129 -1569 OSCroute /1;
#X obj 116 -1550 OSCroute /1;
#X obj 93 -1530 OSCroute /1;
#X obj 72 -1510 OSCroute /1;
#X obj 55 -1490 OSCroute /1;
#X obj 3 -1449 OSCroute /1;
#X obj -106 -1342 OSCroute /1;
#X obj -19 -1429 OSCroute /1;
#X obj -41 -1405 OSCroute /1;
#X obj -85 -1363 OSCroute /1;
#X obj -63 -1385 OSCroute /1;
#X obj 25 -1470 OSCroute /1;
#X obj 42 485 tgl 15 0 empty empty empty 17 7 0 10 -260097 -1 -1 0
1;
#X obj 42 465 tgl 15 0 empty empty empty 17 7 0 10 -260097 -1 -1 0
1;
#X obj 42 325 tgl 15 0 empty empty empty 17 7 0 10 -260097 -1 -1 0
1;
#X obj 42 445 tgl 15 0 empty empty empty 17 7 0 10 -260097 -1 -1 0
1;
#X obj 42 425 tgl 15 0 empty empty empty 17 7 0 10 -260097 -1 -1 0
1;
#X obj 42 405 tgl 15 0 empty empty empty 17 7 0 10 -260097 -1 -1 0
1;
#X obj 42 385 tgl 15 0 empty empty empty 17 7 0 10 -260097 -1 -1 0
1;
#X obj 42 365 tgl 15 0 empty empty empty 17 7 0 10 -260097 -1 -1 0
1;
#X obj 42 345 tgl 15 0 empty empty empty 17 7 0 10 -260097 -1 -1 0
1;
#X obj 42 605 tgl 15 0 empty empty empty 17 7 0 10 -260097 -1 -1 1
1;
#X obj 42 585 tgl 15 0 empty empty empty 17 7 0 10 -260097 -1 -1 0
1;
#X obj 42 565 tgl 15 0 empty empty empty 17 7 0 10 -260097 -1 -1 0
1;
#X obj 42 545 tgl 15 0 empty empty empty 17 7 0 10 -260097 -1 -1 0
1;
#X obj 42 525 tgl 15 0 empty empty empty 17 7 0 10 -260097 -1 -1 0
1;
#X obj 42 505 tgl 15 0 empty empty empty 17 7 0 10 -260097 -1 -1 0
1;
#X obj 42 305 tgl 15 0 empty empty empty 17 7 0 10 -260097 -1 -1 1
1;
#X obj 42 625 tgl 15 0 empty empty empty 17 7 0 10 -257985 -260097
-1 1 1;
#X obj 42 645 tgl 15 0 empty empty empty 17 7 0 10 -257985 -260097
-1 0 1;
#X obj 42 665 tgl 15 0 empty empty empty 17 7 0 10 -257985 -260097
-1 0 1;
#X obj 42 685 tgl 15 0 empty empty empty 17 7 0 10 -258113 -262144
-1 1 1;
#X obj 42 705 tgl 15 0 empty empty empty 17 7 0 10 -258113 -262144
-1 1 1;
#X obj -25 -1307 OSCroute /1 /2 /3;
#X obj -25 -1285 OSCroute /1;
#X obj -15 -1264 OSCroute /1;
#X obj -5 -1244 OSCroute /1;
#X obj -106 -1712 OSCroute /multitoggle3 /multitoggle4 /toggle4 /toggle5
;
#X obj 320 -1684 OSCroute /1 /2 /3 /4 /5 /6 /7 /8 /9 /10 /11 /12 /13
/14 /15 /16;
#X obj 599 -1646 OSCroute /1;
#X obj 587 -1626 OSCroute /1;
#X obj 574 -1607 OSCroute /1;
#X obj 563 -1587 OSCroute /1;
#X obj 555 -1568 OSCroute /1;
#X obj 542 -1549 OSCroute /1;
#X obj 519 -1529 OSCroute /1;
#X obj 498 -1509 OSCroute /1;
#X obj 481 -1489 OSCroute /1;
#X obj 429 -1448 OSCroute /1;
#X obj 320 -1341 OSCroute /1;
#X obj 407 -1428 OSCroute /1;
#X obj 385 -1404 OSCroute /1;
#X obj 341 -1362 OSCroute /1;
#X obj 363 -1384 OSCroute /1;
#X obj 451 -1469 OSCroute /1;
#X obj 62 485 tgl 15 0 empty empty empty 17 7 0 10 -260097 -1 -1 0
1;
#X obj 62 465 tgl 15 0 empty empty empty 17 7 0 10 -260097 -1 -1 0
1;
#X obj 62 325 tgl 15 0 empty empty empty 17 7 0 10 -260097 -1 -1 0
1;
#X obj 62 445 tgl 15 0 empty empty empty 17 7 0 10 -260097 -1 -1 0
1;
#X obj 62 425 tgl 15 0 empty empty empty 17 7 0 10 -260097 -1 -1 0
1;
#X obj 62 405 tgl 15 0 empty empty empty 17 7 0 10 -260097 -1 -1 0
1;
#X obj 62 385 tgl 15 0 empty empty empty 17 7 0 10 -260097 -1 -1 0
1;
#X obj 62 365 tgl 15 0 empty empty empty 17 7 0 10 -260097 -1 -1 0
1;
#X obj 62 345 tgl 15 0 empty empty empty 17 7 0 10 -260097 -1 -1 0
1;
#X obj 62 605 tgl 15 0 empty empty empty 17 7 0 10 -260097 -1 -1 1
1;
#X obj 62 585 tgl 15 0 empty empty empty 17 7 0 10 -260097 -1 -1 0
1;
#X obj 62 565 tgl 15 0 empty empty empty 17 7 0 10 -260097 -1 -1 0
1;
#X obj 62 545 tgl 15 0 empty empty empty 17 7 0 10 -260097 -1 -1 0
1;
#X obj 62 525 tgl 15 0 empty empty empty 17 7 0 10 -260097 -1 -1 0
1;
#X obj 62 505 tgl 15 0 empty empty empty 17 7 0 10 -260097 -1 -1 0
1;
#X obj 62 305 tgl 15 0 empty empty empty 17 7 0 10 -260097 -1 -1 0
1;
#X obj 62 625 tgl 15 0 empty empty empty 17 7 0 10 -257985 -260097
-1 1 1;
#X obj 62 645 tgl 15 0 empty empty empty 17 7 0 10 -257985 -260097
-1 0 1;
#X obj 62 665 tgl 15 0 empty empty empty 17 7 0 10 -257985 -260097
-1 0 1;
#X obj 62 685 tgl 15 0 empty empty empty 17 7 0 10 -258113 -262144
-1 1 1;
#X obj 62 705 tgl 15 0 empty empty empty 17 7 0 10 -258113 -262144
-1 1 1;
#X obj 401 -1306 OSCroute /1 /2 /3;
#X obj 401 -1284 OSCroute /1;
#X obj 411 -1263 OSCroute /1;
#X obj 421 -1243 OSCroute /1;
#X obj 320 -1711 OSCroute /multitoggle5 /multitoggle6 /toggle6 /toggle7
;
#X obj 720 -1684 OSCroute /1 /2 /3 /4 /5 /6 /7 /8 /9 /10 /11 /12 /13
/14 /15 /16;
#X obj 997 -1626 OSCroute /1;
#X obj 984 -1607 OSCroute /1;
#X obj 973 -1587 OSCroute /1;
#X obj 965 -1568 OSCroute /1;
#X obj 942 -1549 OSCroute /1;
#X obj 919 -1529 OSCroute /1;
#X obj 898 -1509 OSCroute /1;
#X obj 881 -1489 OSCroute /1;
#X obj 829 -1448 OSCroute /1;
#X obj 720 -1341 OSCroute /1;
#X obj 807 -1428 OSCroute /1;
#X obj 785 -1404 OSCroute /1;
#X obj 741 -1362 OSCroute /1;
#X obj 763 -1384 OSCroute /1;
#X obj 851 -1469 OSCroute /1;
#X obj 82 485 tgl 15 0 empty empty empty 17 7 0 10 -260097 -1 -1 0
1;
#X obj 82 465 tgl 15 0 empty empty empty 17 7 0 10 -260097 -1 -1 0
1;
#X obj 82 325 tgl 15 0 empty empty empty 17 7 0 10 -260097 -1 -1 0
1;
#X obj 82 445 tgl 15 0 empty empty empty 17 7 0 10 -260097 -1 -1 0
1;
#X obj 82 425 tgl 15 0 empty empty empty 17 7 0 10 -260097 -1 -1 0
1;
#X obj 82 405 tgl 15 0 empty empty empty 17 7 0 10 -260097 -1 -1 0
1;
#X obj 82 385 tgl 15 0 empty empty empty 17 7 0 10 -260097 -1 -1 0
1;
#X obj 82 365 tgl 15 0 empty empty empty 17 7 0 10 -260097 -1 -1 0
1;
#X obj 82 345 tgl 15 0 empty empty empty 17 7 0 10 -260097 -1 -1 0
1;
#X obj 82 605 tgl 15 0 empty empty empty 17 7 0 10 -260097 -1 -1 1
1;
#X obj 82 585 tgl 15 0 empty empty empty 17 7 0 10 -260097 -1 -1 0
1;
#X obj 82 565 tgl 15 0 empty empty empty 17 7 0 10 -260097 -1 -1 0
1;
#X obj 82 545 tgl 15 0 empty empty empty 17 7 0 10 -260097 -1 -1 0
1;
#X obj 82 525 tgl 15 0 empty empty empty 17 7 0 10 -260097 -1 -1 0
1;
#X obj 82 505 tgl 15 0 empty empty empty 17 7 0 10 -260097 -1 -1 0
1;
#X obj 82 305 tgl 15 0 empty empty empty 17 7 0 10 -260097 -1 -1 0
1;
#X obj 82 625 tgl 15 0 empty empty empty 17 7 0 10 -257985 -260097
-1 1 1;
#X obj 82 645 tgl 15 0 empty empty empty 17 7 0 10 -257985 -260097
-1 0 1;
#X obj 82 665 tgl 15 0 empty empty empty 17 7 0 10 -257985 -260097
-1 0 1;
#X obj 82 685 tgl 15 0 empty empty empty 17 7 0 10 -258113 -262144
-1 1 1;
#X obj 82 705 tgl 15 0 empty empty empty 17 7 0 10 -258113 -262144
-1 1 1;
#X obj 801 -1306 OSCroute /1 /2 /3;
#X obj 801 -1284 OSCroute /1;
#X obj 811 -1263 OSCroute /1;
#X obj 821 -1243 OSCroute /1;
#X obj 1009 -1645 OSCroute /1;
#X obj 720 -1711 OSCroute /multitoggle7 /multitoggle8 /toggle8 /toggle9
;
#X obj -513 -1184 OSCroute /1 /2 /3 /4 /5 /6 /7 /8 /9 /10 /11 /12 /13
/14 /15 /16;
#X obj 102 625 tgl 15 0 empty empty empty 17 7 0 10 -257985 -260097
-1 1 1;
#X obj 102 645 tgl 15 0 empty empty empty 17 7 0 10 -257985 -260097
-1 0 1;
#X obj 102 665 tgl 15 0 empty empty empty 17 7 0 10 -257985 -260097
-1 0 1;
#X obj 102 685 tgl 15 0 empty empty empty 17 7 0 10 -258113 -262144
-1 1 1;
#X obj 102 705 tgl 15 0 empty empty empty 17 7 0 10 -258113 -262144
-1 1 1;
#X obj -435 -819 OSCroute /1 /2 /3;
#X obj -435 -797 OSCroute /1;
#X obj -425 -776 OSCroute /1;
#X obj -415 -756 OSCroute /1;
#X obj -234 -1146 OSCroute /1;
#X obj -246 -1126 OSCroute /1;
#X obj -259 -1107 OSCroute /1;
#X obj -270 -1087 OSCroute /1;
#X obj -278 -1068 OSCroute /1;
#X obj -291 -1049 OSCroute /1;
#X obj -314 -1029 OSCroute /1;
#X obj -335 -1009 OSCroute /1;
#X obj -352 -989 OSCroute /1;
#X obj -404 -948 OSCroute /1;
#X obj -513 -841 OSCroute /1;
#X obj -426 -928 OSCroute /1;
#X obj -448 -904 OSCroute /1;
#X obj -492 -862 OSCroute /1;
#X obj -470 -884 OSCroute /1;
#X obj -382 -969 OSCroute /1;
#X obj 102 485 tgl 15 0 empty empty empty 17 7 0 10 -260097 -1 -1 0
1;
#X obj 102 465 tgl 15 0 empty empty empty 17 7 0 10 -260097 -1 -1 0
1;
#X obj 102 325 tgl 15 0 empty empty empty 17 7 0 10 -260097 -1 -1 0
1;
#X obj 102 445 tgl 15 0 empty empty empty 17 7 0 10 -260097 -1 -1 0
1;
#X obj 102 425 tgl 15 0 empty empty empty 17 7 0 10 -260097 -1 -1 0
1;
#X obj 102 405 tgl 15 0 empty empty empty 17 7 0 10 -260097 -1 -1 0
1;
#X obj 102 385 tgl 15 0 empty empty empty 17 7 0 10 -260097 -1 -1 0
1;
#X obj 102 365 tgl 15 0 empty empty empty 17 7 0 10 -260097 -1 -1 0
1;
#X obj 102 345 tgl 15 0 empty empty empty 17 7 0 10 -260097 -1 -1 0
1;
#X obj 102 605 tgl 15 0 empty empty empty 17 7 0 10 -260097 -1 -1 1
1;
#X obj 102 585 tgl 15 0 empty empty empty 17 7 0 10 -260097 -1 -1 0
1;
#X obj 102 565 tgl 15 0 empty empty empty 17 7 0 10 -260097 -1 -1 0
1;
#X obj 102 545 tgl 15 0 empty empty empty 17 7 0 10 -260097 -1 -1 0
1;
#X obj 102 525 tgl 15 0 empty empty empty 17 7 0 10 -260097 -1 -1 0
1;
#X obj 102 505 tgl 15 0 empty empty empty 17 7 0 10 -260097 -1 -1 0
1;
#X obj 102 305 tgl 15 0 empty empty empty 17 7 0 10 -260097 -1 -1 0
1;
#X obj -106 -1185 OSCroute /1 /2 /3 /4 /5 /6 /7 /8 /9 /10 /11 /12 /13
/14 /15 /16;
#X obj 173 -1147 OSCroute /1;
#X obj 162 -1127 OSCroute /1;
#X obj 148 -1108 OSCroute /1;
#X obj 137 -1088 OSCroute /1;
#X obj 129 -1069 OSCroute /1;
#X obj 116 -1050 OSCroute /1;
#X obj 93 -1030 OSCroute /1;
#X obj 72 -1010 OSCroute /1;
#X obj 55 -990 OSCroute /1;
#X obj 3 -949 OSCroute /1;
#X obj -106 -842 OSCroute /1;
#X obj -19 -929 OSCroute /1;
#X obj -41 -905 OSCroute /1;
#X obj -85 -863 OSCroute /1;
#X obj -63 -885 OSCroute /1;
#X obj 25 -970 OSCroute /1;
#X obj 122 485 tgl 15 0 empty empty empty 17 7 0 10 -260097 -1 -1 0
1;
#X obj 122 465 tgl 15 0 empty empty empty 17 7 0 10 -260097 -1 -1 0
1;
#X obj 122 325 tgl 15 0 empty empty empty 17 7 0 10 -260097 -1 -1 0
1;
#X obj 122 445 tgl 15 0 empty empty empty 17 7 0 10 -260097 -1 -1 0
1;
#X obj 122 425 tgl 15 0 empty empty empty 17 7 0 10 -260097 -1 -1 0
1;
#X obj 122 405 tgl 15 0 empty empty empty 17 7 0 10 -260097 -1 -1 0
1;
#X obj 122 385 tgl 15 0 empty empty empty 17 7 0 10 -260097 -1 -1 0
1;
#X obj 122 365 tgl 15 0 empty empty empty 17 7 0 10 -260097 -1 -1 0
1;
#X obj 122 345 tgl 15 0 empty empty empty 17 7 0 10 -260097 -1 -1 0
1;
#X obj 122 605 tgl 15 0 empty empty empty 17 7 0 10 -260097 -1 -1 1
1;
#X obj 122 585 tgl 15 0 empty empty empty 17 7 0 10 -260097 -1 -1 0
1;
#X obj 122 565 tgl 15 0 empty empty empty 17 7 0 10 -260097 -1 -1 0
1;
#X obj 122 545 tgl 15 0 empty empty empty 17 7 0 10 -260097 -1 -1 0
1;
#X obj 122 525 tgl 15 0 empty empty empty 17 7 0 10 -260097 -1 -1 0
1;
#X obj 122 505 tgl 15 0 empty empty empty 17 7 0 10 -260097 -1 -1 0
1;
#X obj 122 305 tgl 15 0 empty empty empty 17 7 0 10 -260097 -1 -1 0
1;
#X obj 122 625 tgl 15 0 empty empty empty 17 7 0 10 -257985 -260097
-1 1 1;
#X obj 122 645 tgl 15 0 empty empty empty 17 7 0 10 -257985 -260097
-1 0 1;
#X obj 122 665 tgl 15 0 empty empty empty 17 7 0 10 -257985 -260097
-1 0 1;
#X obj 122 685 tgl 15 0 empty empty empty 17 7 0 10 -258113 -262144
-1 1 1;
#X obj 122 705 tgl 15 0 empty empty empty 17 7 0 10 -258113 -262144
-1 1 1;
#X obj -25 -807 OSCroute /1 /2 /3;
#X obj -25 -785 OSCroute /1;
#X obj -15 -764 OSCroute /1;
#X obj -5 -744 OSCroute /1;
#X obj 320 -1184 OSCroute /1 /2 /3 /4 /5 /6 /7 /8 /9 /10 /11 /12 /13
/14 /15 /16;
#X obj 599 -1146 OSCroute /1;
#X obj 587 -1126 OSCroute /1;
#X obj 574 -1107 OSCroute /1;
#X obj 563 -1087 OSCroute /1;
#X obj 555 -1068 OSCroute /1;
#X obj 542 -1049 OSCroute /1;
#X obj 519 -1029 OSCroute /1;
#X obj 498 -1009 OSCroute /1;
#X obj 481 -989 OSCroute /1;
#X obj 429 -948 OSCroute /1;
#X obj 320 -841 OSCroute /1;
#X obj 407 -928 OSCroute /1;
#X obj 385 -904 OSCroute /1;
#X obj 341 -862 OSCroute /1;
#X obj 363 -884 OSCroute /1;
#X obj 451 -969 OSCroute /1;
#X obj 142 485 tgl 15 0 empty empty empty 17 7 0 10 -260097 -1 -1 0
1;
#X obj 142 465 tgl 15 0 empty empty empty 17 7 0 10 -260097 -1 -1 0
1;
#X obj 142 325 tgl 15 0 empty empty empty 17 7 0 10 -260097 -1 -1 0
1;
#X obj 142 445 tgl 15 0 empty empty empty 17 7 0 10 -260097 -1 -1 0
1;
#X obj 142 425 tgl 15 0 empty empty empty 17 7 0 10 -260097 -1 -1 0
1;
#X obj 142 405 tgl 15 0 empty empty empty 17 7 0 10 -260097 -1 -1 0
1;
#X obj 142 385 tgl 15 0 empty empty empty 17 7 0 10 -260097 -1 -1 0
1;
#X obj 142 365 tgl 15 0 empty empty empty 17 7 0 10 -260097 -1 -1 0
1;
#X obj 142 345 tgl 15 0 empty empty empty 17 7 0 10 -260097 -1 -1 0
1;
#X obj 142 605 tgl 15 0 empty empty empty 17 7 0 10 -260097 -1 -1 1
1;
#X obj 142 585 tgl 15 0 empty empty empty 17 7 0 10 -260097 -1 -1 0
1;
#X obj 142 565 tgl 15 0 empty empty empty 17 7 0 10 -260097 -1 -1 0
1;
#X obj 142 545 tgl 15 0 empty empty empty 17 7 0 10 -260097 -1 -1 0
1;
#X obj 142 525 tgl 15 0 empty empty empty 17 7 0 10 -260097 -1 -1 0
1;
#X obj 142 505 tgl 15 0 empty empty empty 17 7 0 10 -260097 -1 -1 0
1;
#X obj 142 305 tgl 15 0 empty empty empty 17 7 0 10 -260097 -1 -1 0
1;
#X obj 142 625 tgl 15 0 empty empty empty 17 7 0 10 -257985 -260097
-1 1 1;
#X obj 142 645 tgl 15 0 empty empty empty 17 7 0 10 -257985 -260097
-1 0 1;
#X obj 142 665 tgl 15 0 empty empty empty 17 7 0 10 -257985 -260097
-1 0 1;
#X obj 142 685 tgl 15 0 empty empty empty 17 7 0 10 -258113 -262144
-1 1 1;
#X obj 142 705 tgl 15 0 empty empty empty 17 7 0 10 -258113 -262144
-1 1 1;
#X obj 401 -806 OSCroute /1 /2 /3;
#X obj 401 -784 OSCroute /1;
#X obj 411 -763 OSCroute /1;
#X obj 421 -743 OSCroute /1;
#X obj 720 -1184 OSCroute /1 /2 /3 /4 /5 /6 /7 /8 /9 /10 /11 /12 /13
/14 /15 /16;
#X obj 997 -1126 OSCroute /1;
#X obj 984 -1107 OSCroute /1;
#X obj 973 -1087 OSCroute /1;
#X obj 965 -1068 OSCroute /1;
#X obj 942 -1049 OSCroute /1;
#X obj 919 -1029 OSCroute /1;
#X obj 898 -1009 OSCroute /1;
#X obj 881 -989 OSCroute /1;
#X obj 829 -948 OSCroute /1;
#X obj 720 -841 OSCroute /1;
#X obj 807 -928 OSCroute /1;
#X obj 785 -904 OSCroute /1;
#X obj 741 -862 OSCroute /1;
#X obj 763 -884 OSCroute /1;
#X obj 851 -969 OSCroute /1;
#X obj 162 485 tgl 15 0 empty empty empty 17 7 0 10 -260097 -1 -1 0
1;
#X obj 162 465 tgl 15 0 empty empty empty 17 7 0 10 -260097 -1 -1 0
1;
#X obj 162 325 tgl 15 0 empty empty empty 17 7 0 10 -260097 -1 -1 0
1;
#X obj 162 445 tgl 15 0 empty empty empty 17 7 0 10 -260097 -1 -1 0
1;
#X obj 162 425 tgl 15 0 empty empty empty 17 7 0 10 -260097 -1 -1 0
1;
#X obj 162 405 tgl 15 0 empty empty empty 17 7 0 10 -260097 -1 -1 0
1;
#X obj 162 385 tgl 15 0 empty empty empty 17 7 0 10 -260097 -1 -1 0
1;
#X obj 162 365 tgl 15 0 empty empty empty 17 7 0 10 -260097 -1 -1 0
1;
#X obj 162 345 tgl 15 0 empty empty empty 17 7 0 10 -260097 -1 -1 0
1;
#X obj 162 605 tgl 15 0 empty empty empty 17 7 0 10 -260097 -1 -1 1
1;
#X obj 162 585 tgl 15 0 empty empty empty 17 7 0 10 -260097 -1 -1 0
1;
#X obj 162 565 tgl 15 0 empty empty empty 17 7 0 10 -260097 -1 -1 0
1;
#X obj 162 545 tgl 15 0 empty empty empty 17 7 0 10 -260097 -1 -1 0
1;
#X obj 162 525 tgl 15 0 empty empty empty 17 7 0 10 -260097 -1 -1 0
1;
#X obj 162 505 tgl 15 0 empty empty empty 17 7 0 10 -260097 -1 -1 0
1;
#X obj 162 305 tgl 15 0 empty empty empty 17 7 0 10 -260097 -1 -1 0
1;
#X obj 162 625 tgl 15 0 empty empty empty 17 7 0 10 -257985 -260097
-1 1 1;
#X obj 162 645 tgl 15 0 empty empty empty 17 7 0 10 -257985 -260097
-1 0 1;
#X obj 162 665 tgl 15 0 empty empty empty 17 7 0 10 -257985 -260097
-1 0 1;
#X obj 162 685 tgl 15 0 empty empty empty 17 7 0 10 -258113 -262144
-1 1 1;
#X obj 162 705 tgl 15 0 empty empty empty 17 7 0 10 -258113 -262144
-1 1 1;
#X obj 801 -806 OSCroute /1 /2 /3;
#X obj 801 -784 OSCroute /1;
#X obj 811 -763 OSCroute /1;
#X obj 821 -743 OSCroute /1;
#X obj 1009 -1145 OSCroute /1;
#X obj -513 -674 OSCroute /1 /2 /3 /4 /5 /6 /7 /8 /9 /10 /11 /12 /13
/14 /15 /16;
#X obj 182 625 tgl 15 0 empty empty empty 17 7 0 10 -257985 -260097
-1 1 1;
#X obj 182 645 tgl 15 0 empty empty empty 17 7 0 10 -257985 -260097
-1 0 1;
#X obj 182 665 tgl 15 0 empty empty empty 17 7 0 10 -257985 -260097
-1 0 1;
#X obj 182 685 tgl 15 0 empty empty empty 17 7 0 10 -258113 -262144
-1 1 1;
#X obj 182 705 tgl 15 0 empty empty empty 17 7 0 10 -258113 -262144
-1 1 1;
#X obj -435 -309 OSCroute /1 /2 /3;
#X obj -435 -287 OSCroute /1;
#X obj -425 -266 OSCroute /1;
#X obj -415 -246 OSCroute /1;
#X obj -234 -636 OSCroute /1;
#X obj -246 -616 OSCroute /1;
#X obj -259 -597 OSCroute /1;
#X obj -270 -577 OSCroute /1;
#X obj -278 -558 OSCroute /1;
#X obj -291 -539 OSCroute /1;
#X obj -314 -519 OSCroute /1;
#X obj -335 -499 OSCroute /1;
#X obj -352 -479 OSCroute /1;
#X obj -404 -438 OSCroute /1;
#X obj -513 -331 OSCroute /1;
#X obj -426 -418 OSCroute /1;
#X obj -448 -394 OSCroute /1;
#X obj -492 -352 OSCroute /1;
#X obj -470 -374 OSCroute /1;
#X obj -382 -459 OSCroute /1;
#X obj 182 485 tgl 15 0 empty empty empty 17 7 0 10 -260097 -1 -1 0
1;
#X obj 182 465 tgl 15 0 empty empty empty 17 7 0 10 -260097 -1 -1 0
1;
#X obj 182 325 tgl 15 0 empty empty empty 17 7 0 10 -260097 -1 -1 0
1;
#X obj 182 445 tgl 15 0 empty empty empty 17 7 0 10 -260097 -1 -1 0
1;
#X obj 182 425 tgl 15 0 empty empty empty 17 7 0 10 -260097 -1 -1 0
1;
#X obj 182 405 tgl 15 0 empty empty empty 17 7 0 10 -260097 -1 -1 0
1;
#X obj 182 385 tgl 15 0 empty empty empty 17 7 0 10 -260097 -1 -1 0
1;
#X obj 182 365 tgl 15 0 empty empty empty 17 7 0 10 -260097 -1 -1 0
1;
#X obj 182 345 tgl 15 0 empty empty empty 17 7 0 10 -260097 -1 -1 0
1;
#X obj 182 605 tgl 15 0 empty empty empty 17 7 0 10 -260097 -1 -1 1
1;
#X obj 182 585 tgl 15 0 empty empty empty 17 7 0 10 -260097 -1 -1 0
1;
#X obj 182 565 tgl 15 0 empty empty empty 17 7 0 10 -260097 -1 -1 0
1;
#X obj 182 545 tgl 15 0 empty empty empty 17 7 0 10 -260097 -1 -1 0
1;
#X obj 182 525 tgl 15 0 empty empty empty 17 7 0 10 -260097 -1 -1 0
1;
#X obj 182 505 tgl 15 0 empty empty empty 17 7 0 10 -260097 -1 -1 0
1;
#X obj 182 305 tgl 15 0 empty empty empty 17 7 0 10 -260097 -1 -1 0
1;
#X obj -106 -675 OSCroute /1 /2 /3 /4 /5 /6 /7 /8 /9 /10 /11 /12 /13
/14 /15 /16;
#X obj 173 -637 OSCroute /1;
#X obj 162 -617 OSCroute /1;
#X obj 148 -598 OSCroute /1;
#X obj 137 -578 OSCroute /1;
#X obj 129 -559 OSCroute /1;
#X obj 116 -540 OSCroute /1;
#X obj 93 -520 OSCroute /1;
#X obj 72 -500 OSCroute /1;
#X obj 55 -480 OSCroute /1;
#X obj 3 -439 OSCroute /1;
#X obj -106 -332 OSCroute /1;
#X obj -19 -419 OSCroute /1;
#X obj -41 -395 OSCroute /1;
#X obj -85 -353 OSCroute /1;
#X obj -63 -375 OSCroute /1;
#X obj 25 -460 OSCroute /1;
#X obj 202 485 tgl 15 0 empty empty empty 17 7 0 10 -260097 -1 -1 0
1;
#X obj 202 465 tgl 15 0 empty empty empty 17 7 0 10 -260097 -1 -1 0
1;
#X obj 202 325 tgl 15 0 empty empty empty 17 7 0 10 -260097 -1 -1 0
1;
#X obj 202 445 tgl 15 0 empty empty empty 17 7 0 10 -260097 -1 -1 0
1;
#X obj 202 425 tgl 15 0 empty empty empty 17 7 0 10 -260097 -1 -1 0
1;
#X obj 202 405 tgl 15 0 empty empty empty 17 7 0 10 -260097 -1 -1 0
1;
#X obj 202 385 tgl 15 0 empty empty empty 17 7 0 10 -260097 -1 -1 0
1;
#X obj 202 365 tgl 15 0 empty empty empty 17 7 0 10 -260097 -1 -1 0
1;
#X obj 202 345 tgl 15 0 empty empty empty 17 7 0 10 -260097 -1 -1 0
1;
#X obj 202 605 tgl 15 0 empty empty empty 17 7 0 10 -260097 -1 -1 1
1;
#X obj 202 585 tgl 15 0 empty empty empty 17 7 0 10 -260097 -1 -1 0
1;
#X obj 202 565 tgl 15 0 empty empty empty 17 7 0 10 -260097 -1 -1 0
1;
#X obj 202 545 tgl 15 0 empty empty empty 17 7 0 10 -260097 -1 -1 0
1;
#X obj 202 525 tgl 15 0 empty empty empty 17 7 0 10 -260097 -1 -1 0
1;
#X obj 202 505 tgl 15 0 empty empty empty 17 7 0 10 -260097 -1 -1 0
1;
#X obj 202 305 tgl 15 0 empty empty empty 17 7 0 10 -260097 -1 -1 0
1;
#X obj 202 625 tgl 15 0 empty empty empty 17 7 0 10 -257985 -260097
-1 1 1;
#X obj 202 645 tgl 15 0 empty empty empty 17 7 0 10 -257985 -260097
-1 0 1;
#X obj 202 665 tgl 15 0 empty empty empty 17 7 0 10 -257985 -260097
-1 0 1;
#X obj 202 685 tgl 15 0 empty empty empty 17 7 0 10 -258113 -262144
-1 1 1;
#X obj 202 705 tgl 15 0 empty empty empty 17 7 0 10 -258113 -262144
-1 1 1;
#X obj -25 -297 OSCroute /1 /2 /3;
#X obj -25 -275 OSCroute /1;
#X obj -15 -254 OSCroute /1;
#X obj -5 -234 OSCroute /1;
#X obj 320 -674 OSCroute /1 /2 /3 /4 /5 /6 /7 /8 /9 /10 /11 /12 /13
/14 /15 /16;
#X obj 599 -636 OSCroute /1;
#X obj 587 -616 OSCroute /1;
#X obj 574 -597 OSCroute /1;
#X obj 563 -577 OSCroute /1;
#X obj 555 -558 OSCroute /1;
#X obj 542 -539 OSCroute /1;
#X obj 519 -519 OSCroute /1;
#X obj 498 -499 OSCroute /1;
#X obj 481 -479 OSCroute /1;
#X obj 429 -438 OSCroute /1;
#X obj 320 -331 OSCroute /1;
#X obj 407 -418 OSCroute /1;
#X obj 385 -394 OSCroute /1;
#X obj 341 -352 OSCroute /1;
#X obj 363 -374 OSCroute /1;
#X obj 451 -459 OSCroute /1;
#X obj 222 485 tgl 15 0 empty empty empty 17 7 0 10 -260097 -1 -1 0
1;
#X obj 222 465 tgl 15 0 empty empty empty 17 7 0 10 -260097 -1 -1 0
1;
#X obj 222 325 tgl 15 0 empty empty empty 17 7 0 10 -260097 -1 -1 0
1;
#X obj 222 445 tgl 15 0 empty empty empty 17 7 0 10 -260097 -1 -1 0
1;
#X obj 222 425 tgl 15 0 empty empty empty 17 7 0 10 -260097 -1 -1 0
1;
#X obj 222 405 tgl 15 0 empty empty empty 17 7 0 10 -260097 -1 -1 1
1;
#X obj 222 385 tgl 15 0 empty empty empty 17 7 0 10 -260097 -1 -1 0
1;
#X obj 222 365 tgl 15 0 empty empty empty 17 7 0 10 -260097 -1 -1 0
1;
#X obj 222 345 tgl 15 0 empty empty empty 17 7 0 10 -260097 -1 -1 0
1;
#X obj 222 605 tgl 15 0 empty empty empty 17 7 0 10 -260097 -1 -1 1
1;
#X obj 222 585 tgl 15 0 empty empty empty 17 7 0 10 -260097 -1 -1 0
1;
#X obj 222 565 tgl 15 0 empty empty empty 17 7 0 10 -260097 -1 -1 0
1;
#X obj 222 545 tgl 15 0 empty empty empty 17 7 0 10 -260097 -1 -1 0
1;
#X obj 222 525 tgl 15 0 empty empty empty 17 7 0 10 -260097 -1 -1 0
1;
#X obj 222 505 tgl 15 0 empty empty empty 17 7 0 10 -260097 -1 -1 0
1;
#X obj 222 305 tgl 15 0 empty empty empty 17 7 0 10 -260097 -1 -1 0
1;
#X obj 222 625 tgl 15 0 empty empty empty 17 7 0 10 -257985 -260097
-1 1 1;
#X obj 222 645 tgl 15 0 empty empty empty 17 7 0 10 -257985 -260097
-1 0 1;
#X obj 222 665 tgl 15 0 empty empty empty 17 7 0 10 -257985 -260097
-1 0 1;
#X obj 222 685 tgl 15 0 empty empty empty 17 7 0 10 -258113 -262144
-1 1 1;
#X obj 222 705 tgl 15 0 empty empty empty 17 7 0 10 -258113 -262144
-1 1 1;
#X obj 401 -296 OSCroute /1 /2 /3;
#X obj 401 -274 OSCroute /1;
#X obj 411 -253 OSCroute /1;
#X obj 421 -233 OSCroute /1;
#X obj 720 -674 OSCroute /1 /2 /3 /4 /5 /6 /7 /8 /9 /10 /11 /12 /13
/14 /15 /16;
#X obj 997 -616 OSCroute /1;
#X obj 984 -597 OSCroute /1;
#X obj 973 -577 OSCroute /1;
#X obj 965 -558 OSCroute /1;
#X obj 942 -539 OSCroute /1;
#X obj 919 -519 OSCroute /1;
#X obj 898 -499 OSCroute /1;
#X obj 881 -479 OSCroute /1;
#X obj 829 -438 OSCroute /1;
#X obj 720 -331 OSCroute /1;
#X obj 807 -418 OSCroute /1;
#X obj 785 -394 OSCroute /1;
#X obj 741 -352 OSCroute /1;
#X obj 763 -374 OSCroute /1;
#X obj 851 -459 OSCroute /1;
#X obj 242 485 tgl 15 0 empty empty empty 17 7 0 10 -260097 -1 -1 0
1;
#X obj 242 465 tgl 15 0 empty empty empty 17 7 0 10 -260097 -1 -1 0
1;
#X obj 242 325 tgl 15 0 empty empty empty 17 7 0 10 -260097 -1 -1 0
1;
#X obj 242 445 tgl 15 0 empty empty empty 17 7 0 10 -260097 -1 -1 0
1;
#X obj 242 425 tgl 15 0 empty empty empty 17 7 0 10 -260097 -1 -1 0
1;
#X obj 242 405 tgl 15 0 empty empty empty 17 7 0 10 -260097 -1 -1 0
1;
#X obj 242 385 tgl 15 0 empty empty empty 17 7 0 10 -260097 -1 -1 0
1;
#X obj 242 365 tgl 15 0 empty empty empty 17 7 0 10 -260097 -1 -1 0
1;
#X obj 242 345 tgl 15 0 empty empty empty 17 7 0 10 -260097 -1 -1 0
1;
#X obj 242 605 tgl 15 0 empty empty empty 17 7 0 10 -260097 -1 -1 1
1;
#X obj 242 585 tgl 15 0 empty empty empty 17 7 0 10 -260097 -1 -1 0
1;
#X obj 242 565 tgl 15 0 empty empty empty 17 7 0 10 -260097 -1 -1 0
1;
#X obj 242 545 tgl 15 0 empty empty empty 17 7 0 10 -260097 -1 -1 0
1;
#X obj 242 525 tgl 15 0 empty empty empty 17 7 0 10 -260097 -1 -1 0
1;
#X obj 242 505 tgl 15 0 empty empty empty 17 7 0 10 -260097 -1 -1 0
1;
#X obj 242 305 tgl 15 0 empty empty empty 17 7 0 10 -260097 -1 -1 0
1;
#X obj 242 625 tgl 15 0 empty empty empty 17 7 0 10 -257985 -260097
-1 1 1;
#X obj 242 645 tgl 15 0 empty empty empty 17 7 0 10 -257985 -260097
-1 0 1;
#X obj 242 665 tgl 15 0 empty empty empty 17 7 0 10 -257985 -260097
-1 0 1;
#X obj 242 685 tgl 15 0 empty empty empty 17 7 0 10 -258113 -262144
-1 1 1;
#X obj 242 705 tgl 15 0 empty empty empty 17 7 0 10 -258113 -262144
-1 1 1;
#X obj 801 -296 OSCroute /1 /2 /3;
#X obj 801 -274 OSCroute /1;
#X obj 811 -253 OSCroute /1;
#X obj 821 -233 OSCroute /1;
#X obj 1009 -635 OSCroute /1;
#X obj -513 -174 OSCroute /1 /2 /3 /4 /5 /6 /7 /8 /9 /10 /11 /12 /13
/14 /15 /16;
#X obj 262 625 tgl 15 0 empty empty empty 17 7 0 10 -257985 -260097
-1 1 1;
#X obj 262 645 tgl 15 0 empty empty empty 17 7 0 10 -257985 -260097
-1 0 1;
#X obj 262 665 tgl 15 0 empty empty empty 17 7 0 10 -257985 -260097
-1 0 1;
#X obj 262 685 tgl 15 0 empty empty empty 17 7 0 10 -258113 -262144
-1 1 1;
#X obj 262 705 tgl 15 0 empty empty empty 17 7 0 10 -258113 -262144
-1 1 1;
#X obj -435 191 OSCroute /1 /2 /3;
#X obj -435 213 OSCroute /1;
#X obj -425 234 OSCroute /1;
#X obj -415 254 OSCroute /1;
#X obj -234 -136 OSCroute /1;
#X obj -246 -116 OSCroute /1;
#X obj -259 -97 OSCroute /1;
#X obj -270 -77 OSCroute /1;
#X obj -278 -58 OSCroute /1;
#X obj -291 -39 OSCroute /1;
#X obj -314 -19 OSCroute /1;
#X obj -335 1 OSCroute /1;
#X obj -352 21 OSCroute /1;
#X obj -404 62 OSCroute /1;
#X obj -513 169 OSCroute /1;
#X obj -426 82 OSCroute /1;
#X obj -448 106 OSCroute /1;
#X obj -492 148 OSCroute /1;
#X obj -470 126 OSCroute /1;
#X obj -382 41 OSCroute /1;
#X obj 262 485 tgl 15 0 empty empty empty 17 7 0 10 -260097 -1 -1 0
1;
#X obj 262 465 tgl 15 0 empty empty empty 17 7 0 10 -260097 -1 -1 0
1;
#X obj 262 325 tgl 15 0 empty empty empty 17 7 0 10 -260097 -1 -1 0
1;
#X obj 262 445 tgl 15 0 empty empty empty 17 7 0 10 -260097 -1 -1 0
1;
#X obj 262 425 tgl 15 0 empty empty empty 17 7 0 10 -260097 -1 -1 0
1;
#X obj 262 405 tgl 15 0 empty empty empty 17 7 0 10 -260097 -1 -1 0
1;
#X obj 262 385 tgl 15 0 empty empty empty 17 7 0 10 -260097 -1 -1 0
1;
#X obj 262 365 tgl 15 0 empty empty empty 17 7 0 10 -260097 -1 -1 0
1;
#X obj 262 345 tgl 15 0 empty empty empty 17 7 0 10 -260097 -1 -1 0
1;
#X obj 262 605 tgl 15 0 empty empty empty 17 7 0 10 -260097 -1 -1 1
1;
#X obj 262 585 tgl 15 0 empty empty empty 17 7 0 10 -260097 -1 -1 0
1;
#X obj 262 565 tgl 15 0 empty empty empty 17 7 0 10 -260097 -1 -1 0
1;
#X obj 262 545 tgl 15 0 empty empty empty 17 7 0 10 -260097 -1 -1 0
1;
#X obj 262 525 tgl 15 0 empty empty empty 17 7 0 10 -260097 -1 -1 0
1;
#X obj 262 505 tgl 15 0 empty empty empty 17 7 0 10 -260097 -1 -1 0
1;
#X obj 262 305 tgl 15 0 empty empty empty 17 7 0 10 -260097 -1 -1 0
1;
#X obj -106 -175 OSCroute /1 /2 /3 /4 /5 /6 /7 /8 /9 /10 /11 /12 /13
/14 /15 /16;
#X obj 173 -137 OSCroute /1;
#X obj 162 -117 OSCroute /1;
#X obj 148 -98 OSCroute /1;
#X obj 137 -78 OSCroute /1;
#X obj 129 -59 OSCroute /1;
#X obj 116 -40 OSCroute /1;
#X obj 93 -20 OSCroute /1;
#X obj 72 0 OSCroute /1;
#X obj 55 20 OSCroute /1;
#X obj 3 61 OSCroute /1;
#X obj -106 168 OSCroute /1;
#X obj -19 81 OSCroute /1;
#X obj -41 105 OSCroute /1;
#X obj -85 147 OSCroute /1;
#X obj -63 125 OSCroute /1;
#X obj 25 40 OSCroute /1;
#X obj 282 485 tgl 15 0 empty empty empty 17 7 0 10 -260097 -1 -1 0
1;
#X obj 282 465 tgl 15 0 empty empty empty 17 7 0 10 -260097 -1 -1 0
1;
#X obj 282 325 tgl 15 0 empty empty empty 17 7 0 10 -260097 -1 -1 0
1;
#X obj 282 445 tgl 15 0 empty empty empty 17 7 0 10 -260097 -1 -1 0
1;
#X obj 282 425 tgl 15 0 empty empty empty 17 7 0 10 -260097 -1 -1 0
1;
#X obj 282 405 tgl 15 0 empty empty empty 17 7 0 10 -260097 -1 -1 0
1;
#X obj 282 385 tgl 15 0 empty empty empty 17 7 0 10 -260097 -1 -1 0
1;
#X obj 282 365 tgl 15 0 empty empty empty 17 7 0 10 -260097 -1 -1 0
1;
#X obj 282 345 tgl 15 0 empty empty empty 17 7 0 10 -260097 -1 -1 0
1;
#X obj 282 605 tgl 15 0 empty empty empty 17 7 0 10 -260097 -1 -1 1
1;
#X obj 282 585 tgl 15 0 empty empty empty 17 7 0 10 -260097 -1 -1 0
1;
#X obj 282 565 tgl 15 0 empty empty empty 17 7 0 10 -260097 -1 -1 0
1;
#X obj 282 545 tgl 15 0 empty empty empty 17 7 0 10 -260097 -1 -1 0
1;
#X obj 282 525 tgl 15 0 empty empty empty 17 7 0 10 -260097 -1 -1 0
1;
#X obj 282 505 tgl 15 0 empty empty empty 17 7 0 10 -260097 -1 -1 0
1;
#X obj 282 305 tgl 15 0 empty empty empty 17 7 0 10 -260097 -1 -1 0
1;
#X obj 282 625 tgl 15 0 empty empty empty 17 7 0 10 -257985 -260097
-1 1 1;
#X obj 282 645 tgl 15 0 empty empty empty 17 7 0 10 -257985 -260097
-1 0 1;
#X obj 282 665 tgl 15 0 empty empty empty 17 7 0 10 -257985 -260097
-1 0 1;
#X obj 282 685 tgl 15 0 empty empty empty 17 7 0 10 -258113 -262144
-1 1 1;
#X obj 282 705 tgl 15 0 empty empty empty 17 7 0 10 -258113 -262144
-1 1 1;
#X obj -25 203 OSCroute /1 /2 /3;
#X obj -25 225 OSCroute /1;
#X obj -15 246 OSCroute /1;
#X obj -5 266 OSCroute /1;
#X obj 320 -174 OSCroute /1 /2 /3 /4 /5 /6 /7 /8 /9 /10 /11 /12 /13
/14 /15 /16;
#X obj 599 -136 OSCroute /1;
#X obj 587 -116 OSCroute /1;
#X obj 574 -97 OSCroute /1;
#X obj 563 -77 OSCroute /1;
#X obj 555 -58 OSCroute /1;
#X obj 542 -39 OSCroute /1;
#X obj 519 -19 OSCroute /1;
#X obj 498 1 OSCroute /1;
#X obj 481 21 OSCroute /1;
#X obj 429 62 OSCroute /1;
#X obj 320 169 OSCroute /1;
#X obj 407 82 OSCroute /1;
#X obj 385 106 OSCroute /1;
#X obj 341 148 OSCroute /1;
#X obj 363 126 OSCroute /1;
#X obj 451 41 OSCroute /1;
#X obj 302 485 tgl 15 0 empty empty empty 17 7 0 10 -260097 -1 -1 0
1;
#X obj 302 465 tgl 15 0 empty empty empty 17 7 0 10 -260097 -1 -1 0
1;
#X obj 302 325 tgl 15 0 empty empty empty 17 7 0 10 -260097 -1 -1 0
1;
#X obj 302 445 tgl 15 0 empty empty empty 17 7 0 10 -260097 -1 -1 0
1;
#X obj 302 425 tgl 15 0 empty empty empty 17 7 0 10 -260097 -1 -1 0
1;
#X obj 302 405 tgl 15 0 empty empty empty 17 7 0 10 -260097 -1 -1 0
1;
#X obj 302 385 tgl 15 0 empty empty empty 17 7 0 10 -260097 -1 -1 0
1;
#X obj 302 365 tgl 15 0 empty empty empty 17 7 0 10 -260097 -1 -1 0
1;
#X obj 302 345 tgl 15 0 empty empty empty 17 7 0 10 -260097 -1 -1 0
1;
#X obj 302 605 tgl 15 0 empty empty empty 17 7 0 10 -260097 -1 -1 1
1;
#X obj 302 585 tgl 15 0 empty empty empty 17 7 0 10 -260097 -1 -1 0
1;
#X obj 302 565 tgl 15 0 empty empty empty 17 7 0 10 -260097 -1 -1 0
1;
#X obj 302 545 tgl 15 0 empty empty empty 17 7 0 10 -260097 -1 -1 0
1;
#X obj 302 525 tgl 15 0 empty empty empty 17 7 0 10 -260097 -1 -1 0
1;
#X obj 302 505 tgl 15 0 empty empty empty 17 7 0 10 -260097 -1 -1 0
1;
#X obj 302 305 tgl 15 0 empty empty empty 17 7 0 10 -260097 -1 -1 0
1;
#X obj 302 625 tgl 15 0 empty empty empty 17 7 0 10 -257985 -260097
-1 1 1;
#X obj 302 645 tgl 15 0 empty empty empty 17 7 0 10 -257985 -260097
-1 0 1;
#X obj 302 665 tgl 15 0 empty empty empty 17 7 0 10 -257985 -260097
-1 0 1;
#X obj 302 685 tgl 15 0 empty empty empty 17 7 0 10 -258113 -262144
-1 1 1;
#X obj 302 705 tgl 15 0 empty empty empty 17 7 0 10 -258113 -262144
-1 1 1;
#X obj 401 204 OSCroute /1 /2 /3;
#X obj 401 226 OSCroute /1;
#X obj 411 247 OSCroute /1;
#X obj 421 267 OSCroute /1;
#X obj 720 -174 OSCroute /1 /2 /3 /4 /5 /6 /7 /8 /9 /10 /11 /12 /13
/14 /15 /16;
#X obj 997 -116 OSCroute /1;
#X obj 984 -97 OSCroute /1;
#X obj 973 -77 OSCroute /1;
#X obj 965 -58 OSCroute /1;
#X obj 942 -39 OSCroute /1;
#X obj 919 -19 OSCroute /1;
#X obj 898 1 OSCroute /1;
#X obj 881 21 OSCroute /1;
#X obj 829 62 OSCroute /1;
#X obj 720 169 OSCroute /1;
#X obj 807 82 OSCroute /1;
#X obj 785 106 OSCroute /1;
#X obj 741 148 OSCroute /1;
#X obj 763 126 OSCroute /1;
#X obj 851 41 OSCroute /1;
#X obj 322 485 tgl 15 0 empty empty empty 17 7 0 10 -260097 -1 -1 0
1;
#X obj 322 465 tgl 15 0 empty empty empty 17 7 0 10 -260097 -1 -1 0
1;
#X obj 322 325 tgl 15 0 empty empty empty 17 7 0 10 -260097 -1 -1 0
1;
#X obj 322 445 tgl 15 0 empty empty empty 17 7 0 10 -260097 -1 -1 0
1;
#X obj 322 425 tgl 15 0 empty empty empty 17 7 0 10 -260097 -1 -1 0
1;
#X obj 322 405 tgl 15 0 empty empty empty 17 7 0 10 -260097 -1 -1 0
1;
#X obj 322 385 tgl 15 0 empty empty empty 17 7 0 10 -260097 -1 -1 0
1;
#X obj 322 365 tgl 15 0 empty empty empty 17 7 0 10 -260097 -1 -1 0
1;
#X obj 322 345 tgl 15 0 empty empty empty 17 7 0 10 -260097 -1 -1 0
1;
#X obj 322 605 tgl 15 0 empty empty empty 17 7 0 10 -260097 -1 -1 1
1;
#X obj 322 585 tgl 15 0 empty empty empty 17 7 0 10 -260097 -1 -1 0
1;
#X obj 322 565 tgl 15 0 empty empty empty 17 7 0 10 -260097 -1 -1 0
1;
#X obj 322 545 tgl 15 0 empty empty empty 17 7 0 10 -260097 -1 -1 0
1;
#X obj 322 525 tgl 15 0 empty empty empty 17 7 0 10 -260097 -1 -1 0
1;
#X obj 322 505 tgl 15 0 empty empty empty 17 7 0 10 -260097 -1 -1 0
1;
#X obj 322 305 tgl 15 0 empty empty empty 17 7 0 10 -260097 -1 -1 0
1;
#X obj 322 625 tgl 15 0 empty empty empty 17 7 0 10 -257985 -260097
-1 1 1;
#X obj 322 645 tgl 15 0 empty empty empty 17 7 0 10 -257985 -260097
-1 0 1;
#X obj 322 665 tgl 15 0 empty empty empty 17 7 0 10 -257985 -260097
-1 0 1;
#X obj 322 685 tgl 15 0 empty empty empty 17 7 0 10 -258113 -262144
-1 1 1;
#X obj 322 705 tgl 15 0 empty empty empty 17 7 0 10 -258113 -262144
-1 1 1;
#X obj 801 204 OSCroute /1 /2 /3;
#X obj 801 226 OSCroute /1;
#X obj 811 247 OSCroute /1;
#X obj 821 267 OSCroute /1;
#X obj 1009 -135 OSCroute /1;
#X obj -513 -1211 OSCroute /multitoggle9 /multitoggle10 /toggle10 /toggle11
;
#X obj -106 -1212 OSCroute /multitoggle11 /multitoggle12 /toggle12
/toggle13;
#X obj 320 -1211 OSCroute /multitoggle13 /multitoggle14 /toggle14 /toggle15
;
#X obj 720 -1211 OSCroute /multitoggle15 /multitoggle16 /toggle16 /toggle17
;
#X obj -513 -701 OSCroute /multitoggle17 /multitoggle18 /toggle18 /toggle19
;
#X obj -106 -702 OSCroute /multitoggle19 /multitoggle20 /toggle20 /toggle21
;
#X obj 320 -701 OSCroute /multitoggle21 /multitoggle22 /toggle22 /toggle23
;
#X obj 720 -701 OSCroute /multitoggle23 /multitoggle24 /toggle24 /toggle25
;
#X obj -513 -201 OSCroute /multitoggle25 /multitoggle26 /toggle26 /toggle27
;
#X obj -106 -202 OSCroute /multitoggle27 /multitoggle28 /toggle28 /toggle29
;
#X obj 320 -201 OSCroute /multitoggle29 /multitoggle30 /toggle30 /toggle31
;
#X obj 720 -201 OSCroute /multitoggle31 /multitoggle32 /toggle32 /toggle33
;
#X obj 343 423 vsl 30 128 0 1 0 0 empty empty empty 0 -9 0 10 -159808
-232576 -1 6565 1;
#X obj 373 423 vsl 30 128 0 1 0 0 empty empty empty 0 -9 0 10 -159808
-232576 -1 4806 1;
#X obj 403 423 vsl 30 128 0 1 0 0 empty empty empty 0 -9 0 10 -159808
-232576 -1 7073 1;
#X obj 433 423 vsl 30 128 0 1 0 0 empty empty empty 0 -9 0 10 -159808
-232576 -1 7386 1;
#X obj 344 365 tgl 30 0 empty empty empty 17 7 0 10 -4032 -1 -1 0 1
;
#X obj 374 365 tgl 30 0 empty empty empty 17 7 0 10 -4032 -1 -1 0 1
;
#X obj 404 365 tgl 30 0 empty empty empty 17 7 0 10 -4032 -1 -1 0 1
;
#X obj 434 365 tgl 30 0 empty empty empty 17 7 0 10 -4032 -1 -1 0 1
;
#X obj 434 315 tgl 30 0 empty empty empty 17 7 0 10 -4032 -1 -1 0 1
;
#X obj 343 589 vsl 30 128 0 1 0 0 empty empty empty 0 -9 0 10 -4032
-13330 -1 7854 1;
#X obj 373 589 vsl 30 128 0 1 0 0 empty empty empty 0 -9 0 10 -4032
-13330 -1 9652 1;
#X obj 403 589 vsl 30 128 0 1 0 0 empty empty empty 0 -9 0 10 -4032
-13330 -1 9418 1;
#X obj 433 589 vsl 30 128 0 1 0 0 empty empty empty 0 -9 0 10 -4032
-13330 -1 8714 1;
#X obj 599 380 OSCroute /multifader1;
#X obj 599 406 OSCroute /1 /2 /3 /4;
#X obj 739 406 OSCroute /1 /2 /3 /4;
#X obj 739 380 OSCroute /multifader2;
#X obj 583 314 OSCroute /toggle1 /push1 /push2 /push3 /push4;
#X obj 581 -1764 print ppp;
#X connect 0 0 11 0;
#X connect 0 0 86 0;
#X connect 0 0 129 0;
#X connect 0 0 172 0;
#X connect 0 0 677 0;
#X connect 0 0 678 0;
#X connect 0 0 679 0;
#X connect 0 0 680 0;
#X connect 0 0 681 0;
#X connect 0 0 682 0;
#X connect 0 0 683 0;
#X connect 0 0 684 0;
#X connect 0 0 685 0;
#X connect 0 0 686 0;
#X connect 0 0 687 0;
#X connect 0 0 688 0;
#X connect 0 0 702 0;
#X connect 0 0 705 0;
#X connect 0 0 706 0;
#X connect 1 0 22 0;
#X connect 1 1 25 0;
#X connect 1 2 26 0;
#X connect 1 3 24 0;
#X connect 1 4 23 0;
#X connect 1 5 21 0;
#X connect 1 6 27 0;
#X connect 1 7 20 0;
#X connect 1 8 19 0;
#X connect 1 9 18 0;
#X connect 1 10 17 0;
#X connect 1 11 16 0;
#X connect 1 12 15 0;
#X connect 1 13 14 0;
#X connect 1 14 13 0;
#X connect 1 15 12 0;
#X connect 7 0 8 0;
#X connect 7 1 9 0;
#X connect 7 2 10 0;
#X connect 8 0 4 0;
#X connect 9 0 3 0;
#X connect 10 0 2 0;
#X connect 11 0 1 0;
#X connect 11 1 7 0;
#X connect 11 2 5 0;
#X connect 11 3 6 0;
#X connect 12 0 43 0;
#X connect 13 0 30 0;
#X connect 14 0 36 0;
#X connect 15 0 35 0;
#X connect 16 0 34 0;
#X connect 17 0 33 0;
#X connect 18 0 32 0;
#X connect 19 0 31 0;
#X connect 20 0 29 0;
#X connect 21 0 42 0;
#X connect 22 0 37 0;
#X connect 23 0 41 0;
#X connect 24 0 40 0;
#X connect 25 0 38 0;
#X connect 26 0 39 0;
#X connect 27 0 28 0;
#X connect 44 0 55 0;
#X connect 44 1 58 0;
#X connect 44 2 59 0;
#X connect 44 3 57 0;
#X connect 44 4 56 0;
#X connect 44 5 54 0;
#X connect 44 6 60 0;
#X connect 44 7 53 0;
#X connect 44 8 52 0;
#X connect 44 9 51 0;
#X connect 44 10 50 0;
#X connect 44 11 49 0;
#X connect 44 12 48 0;
#X connect 44 13 47 0;
#X connect 44 14 46 0;
#X connect 44 15 45 0;
#X connect 45 0 76 0;
#X connect 46 0 63 0;
#X connect 47 0 69 0;
#X connect 48 0 68 0;
#X connect 49 0 67 0;
#X connect 50 0 66 0;
#X connect 51 0 65 0;
#X connect 52 0 64 0;
#X connect 53 0 62 0;
#X connect 54 0 75 0;
#X connect 55 0 70 0;
#X connect 56 0 74 0;
#X connect 57 0 73 0;
#X connect 58 0 71 0;
#X connect 59 0 72 0;
#X connect 60 0 61 0;
#X connect 82 0 83 0;
#X connect 82 1 84 0;
#X connect 82 2 85 0;
#X connect 83 0 79 0;
#X connect 84 0 78 0;
#X connect 85 0 77 0;
#X connect 86 0 44 0;
#X connect 86 1 82 0;
#X connect 86 2 80 0;
#X connect 86 3 81 0;
#X connect 87 0 98 0;
#X connect 87 1 101 0;
#X connect 87 2 102 0;
#X connect 87 3 100 0;
#X connect 87 4 99 0;
#X connect 87 5 97 0;
#X connect 87 6 103 0;
#X connect 87 7 96 0;
#X connect 87 8 95 0;
#X connect 87 9 94 0;
#X connect 87 10 93 0;
#X connect 87 11 92 0;
#X connect 87 12 91 0;
#X connect 87 13 90 0;
#X connect 87 14 89 0;
#X connect 87 15 88 0;
#X connect 88 0 119 0;
#X connect 89 0 106 0;
#X connect 90 0 112 0;
#X connect 91 0 111 0;
#X connect 92 0 110 0;
#X connect 93 0 109 0;
#X connect 94 0 108 0;
#X connect 95 0 107 0;
#X connect 96 0 105 0;
#X connect 97 0 118 0;
#X connect 98 0 113 0;
#X connect 99 0 117 0;
#X connect 100 0 116 0;
#X connect 101 0 114 0;
#X connect 102 0 115 0;
#X connect 103 0 104 0;
#X connect 125 0 126 0;
#X connect 125 1 127 0;
#X connect 125 2 128 0;
#X connect 126 0 122 0;
#X connect 127 0 121 0;
#X connect 128 0 120 0;
#X connect 129 0 87 0;
#X connect 129 1 125 0;
#X connect 129 2 123 0;
#X connect 129 3 124 0;
#X connect 130 0 140 0;
#X connect 130 1 143 0;
#X connect 130 2 144 0;
#X connect 130 3 142 0;
#X connect 130 4 141 0;
#X connect 130 5 139 0;
#X connect 130 6 145 0;
#X connect 130 7 138 0;
#X connect 130 8 137 0;
#X connect 130 9 136 0;
#X connect 130 10 135 0;
#X connect 130 11 134 0;
#X connect 130 12 133 0;
#X connect 130 13 132 0;
#X connect 130 14 131 0;
#X connect 130 15 171 0;
#X connect 131 0 148 0;
#X connect 132 0 154 0;
#X connect 133 0 153 0;
#X connect 134 0 152 0;
#X connect 135 0 151 0;
#X connect 136 0 150 0;
#X connect 137 0 149 0;
#X connect 138 0 147 0;
#X connect 139 0 160 0;
#X connect 140 0 155 0;
#X connect 141 0 159 0;
#X connect 142 0 158 0;
#X connect 143 0 156 0;
#X connect 144 0 157 0;
#X connect 145 0 146 0;
#X connect 167 0 168 0;
#X connect 167 1 169 0;
#X connect 167 2 170 0;
#X connect 168 0 164 0;
#X connect 169 0 163 0;
#X connect 170 0 162 0;
#X connect 171 0 161 0;
#X connect 172 0 130 0;
#X connect 172 1 167 0;
#X connect 172 2 165 0;
#X connect 172 3 166 0;
#X connect 173 0 193 0;
#X connect 173 1 196 0;
#X connect 173 2 197 0;
#X connect 173 3 195 0;
#X connect 173 4 194 0;
#X connect 173 5 192 0;
#X connect 173 6 198 0;
#X connect 173 7 191 0;
#X connect 173 8 190 0;
#X connect 173 9 189 0;
#X connect 173 10 188 0;
#X connect 173 11 187 0;
#X connect 173 12 186 0;
#X connect 173 13 185 0;
#X connect 173 14 184 0;
#X connect 173 15 183 0;
#X connect 179 0 180 0;
#X connect 179 1 181 0;
#X connect 179 2 182 0;
#X connect 180 0 176 0;
#X connect 181 0 175 0;
#X connect 182 0 174 0;
#X connect 183 0 214 0;
#X connect 184 0 201 0;
#X connect 185 0 207 0;
#X connect 186 0 206 0;
#X connect 187 0 205 0;
#X connect 188 0 204 0;
#X connect 189 0 203 0;
#X connect 190 0 202 0;
#X connect 191 0 200 0;
#X connect 192 0 213 0;
#X connect 193 0 208 0;
#X connect 194 0 212 0;
#X connect 195 0 211 0;
#X connect 196 0 209 0;
#X connect 197 0 210 0;
#X connect 198 0 199 0;
#X connect 215 0 226 0;
#X connect 215 1 229 0;
#X connect 215 2 230 0;
#X connect 215 3 228 0;
#X connect 215 4 227 0;
#X connect 215 5 225 0;
#X connect 215 6 231 0;
#X connect 215 7 224 0;
#X connect 215 8 223 0;
#X connect 215 9 222 0;
#X connect 215 10 221 0;
#X connect 215 11 220 0;
#X connect 215 12 219 0;
#X connect 215 13 218 0;
#X connect 215 14 217 0;
#X connect 215 15 216 0;
#X connect 216 0 247 0;
#X connect 217 0 234 0;
#X connect 218 0 240 0;
#X connect 219 0 239 0;
#X connect 220 0 238 0;
#X connect 221 0 237 0;
#X connect 222 0 236 0;
#X connect 223 0 235 0;
#X connect 224 0 233 0;
#X connect 225 0 246 0;
#X connect 226 0 241 0;
#X connect 227 0 245 0;
#X connect 228 0 244 0;
#X connect 229 0 242 0;
#X connect 230 0 243 0;
#X connect 231 0 232 0;
#X connect 253 0 254 0;
#X connect 253 1 255 0;
#X connect 253 2 256 0;
#X connect 254 0 250 0;
#X connect 255 0 249 0;
#X connect 256 0 248 0;
#X connect 257 0 268 0;
#X connect 257 1 271 0;
#X connect 257 2 272 0;
#X connect 257 3 270 0;
#X connect 257 4 269 0;
#X connect 257 5 267 0;
#X connect 257 6 273 0;
#X connect 257 7 266 0;
#X connect 257 8 265 0;
#X connect 257 9 264 0;
#X connect 257 10 263 0;
#X connect 257 11 262 0;
#X connect 257 12 261 0;
#X connect 257 13 260 0;
#X connect 257 14 259 0;
#X connect 257 15 258 0;
#X connect 258 0 289 0;
#X connect 259 0 276 0;
#X connect 260 0 282 0;
#X connect 261 0 281 0;
#X connect 262 0 280 0;
#X connect 263 0 279 0;
#X connect 264 0 278 0;
#X connect 265 0 277 0;
#X connect 266 0 275 0;
#X connect 267 0 288 0;
#X connect 268 0 283 0;
#X connect 269 0 287 0;
#X connect 270 0 286 0;
#X connect 271 0 284 0;
#X connect 272 0 285 0;
#X connect 273 0 274 0;
#X connect 295 0 296 0;
#X connect 295 1 297 0;
#X connect 295 2 298 0;
#X connect 296 0 292 0;
#X connect 297 0 291 0;
#X connect 298 0 290 0;
#X connect 299 0 309 0;
#X connect 299 1 312 0;
#X connect 299 2 313 0;
#X connect 299 3 311 0;
#X connect 299 4 310 0;
#X connect 299 5 308 0;
#X connect 299 6 314 0;
#X connect 299 7 307 0;
#X connect 299 8 306 0;
#X connect 299 9 305 0;
#X connect 299 10 304 0;
#X connect 299 11 303 0;
#X connect 299 12 302 0;
#X connect 299 13 301 0;
#X connect 299 14 300 0;
#X connect 299 15 340 0;
#X connect 300 0 317 0;
#X connect 301 0 323 0;
#X connect 302 0 322 0;
#X connect 303 0 321 0;
#X connect 304 0 320 0;
#X connect 305 0 319 0;
#X connect 306 0 318 0;
#X connect 307 0 316 0;
#X connect 308 0 329 0;
#X connect 309 0 324 0;
#X connect 310 0 328 0;
#X connect 311 0 327 0;
#X connect 312 0 325 0;
#X connect 313 0 326 0;
#X connect 314 0 315 0;
#X connect 336 0 337 0;
#X connect 336 1 338 0;
#X connect 336 2 339 0;
#X connect 337 0 333 0;
#X connect 338 0 332 0;
#X connect 339 0 331 0;
#X connect 340 0 330 0;
#X connect 341 0 361 0;
#X connect 341 1 364 0;
#X connect 341 2 365 0;
#X connect 341 3 363 0;
#X connect 341 4 362 0;
#X connect 341 5 360 0;
#X connect 341 6 366 0;
#X connect 341 7 359 0;
#X connect 341 8 358 0;
#X connect 341 9 357 0;
#X connect 341 10 356 0;
#X connect 341 11 355 0;
#X connect 341 12 354 0;
#X connect 341 13 353 0;
#X connect 341 14 352 0;
#X connect 341 15 351 0;
#X connect 347 0 348 0;
#X connect 347 1 349 0;
#X connect 347 2 350 0;
#X connect 348 0 344 0;
#X connect 349 0 343 0;
#X connect 350 0 342 0;
#X connect 351 0 382 0;
#X connect 352 0 369 0;
#X connect 353 0 375 0;
#X connect 354 0 374 0;
#X connect 355 0 373 0;
#X connect 356 0 372 0;
#X connect 357 0 371 0;
#X connect 358 0 370 0;
#X connect 359 0 368 0;
#X connect 360 0 381 0;
#X connect 361 0 376 0;
#X connect 362 0 380 0;
#X connect 363 0 379 0;
#X connect 364 0 377 0;
#X connect 365 0 378 0;
#X connect 366 0 367 0;
#X connect 383 0 394 0;
#X connect 383 1 397 0;
#X connect 383 2 398 0;
#X connect 383 3 396 0;
#X connect 383 4 395 0;
#X connect 383 5 393 0;
#X connect 383 6 399 0;
#X connect 383 7 392 0;
#X connect 383 8 391 0;
#X connect 383 9 390 0;
#X connect 383 10 389 0;
#X connect 383 11 388 0;
#X connect 383 12 387 0;
#X connect 383 13 386 0;
#X connect 383 14 385 0;
#X connect 383 15 384 0;
#X connect 384 0 415 0;
#X connect 385 0 402 0;
#X connect 386 0 408 0;
#X connect 387 0 407 0;
#X connect 388 0 406 0;
#X connect 389 0 405 0;
#X connect 390 0 404 0;
#X connect 391 0 403 0;
#X connect 392 0 401 0;
#X connect 393 0 414 0;
#X connect 394 0 409 0;
#X connect 395 0 413 0;
#X connect 396 0 412 0;
#X connect 397 0 410 0;
#X connect 398 0 411 0;
#X connect 399 0 400 0;
#X connect 421 0 422 0;
#X connect 421 1 423 0;
#X connect 421 2 424 0;
#X connect 422 0 418 0;
#X connect 423 0 417 0;
#X connect 424 0 416 0;
#X connect 425 0 436 0;
#X connect 425 1 439 0;
#X connect 425 2 440 0;
#X connect 425 3 438 0;
#X connect 425 4 437 0;
#X connect 425 5 435 0;
#X connect 425 6 441 0;
#X connect 425 7 434 0;
#X connect 425 8 433 0;
#X connect 425 9 432 0;
#X connect 425 10 431 0;
#X connect 425 11 430 0;
#X connect 425 12 429 0;
#X connect 425 13 428 0;
#X connect 425 14 427 0;
#X connect 425 15 426 0;
#X connect 426 0 457 0;
#X connect 427 0 444 0;
#X connect 428 0 450 0;
#X connect 429 0 449 0;
#X connect 430 0 448 0;
#X connect 431 0 447 0;
#X connect 432 0 446 0;
#X connect 433 0 445 0;
#X connect 434 0 443 0;
#X connect 435 0 456 0;
#X connect 436 0 451 0;
#X connect 437 0 455 0;
#X connect 438 0 454 0;
#X connect 439 0 452 0;
#X connect 440 0 453 0;
#X connect 441 0 442 0;
#X connect 463 0 464 0;
#X connect 463 1 465 0;
#X connect 463 2 466 0;
#X connect 464 0 460 0;
#X connect 465 0 459 0;
#X connect 466 0 458 0;
#X connect 467 0 477 0;
#X connect 467 1 480 0;
#X connect 467 2 481 0;
#X connect 467 3 479 0;
#X connect 467 4 478 0;
#X connect 467 5 476 0;
#X connect 467 6 482 0;
#X connect 467 7 475 0;
#X connect 467 8 474 0;
#X connect 467 9 473 0;
#X connect 467 10 472 0;
#X connect 467 11 471 0;
#X connect 467 12 470 0;
#X connect 467 13 469 0;
#X connect 467 14 468 0;
#X connect 467 15 508 0;
#X connect 468 0 485 0;
#X connect 469 0 491 0;
#X connect 470 0 490 0;
#X connect 471 0 489 0;
#X connect 472 0 488 0;
#X connect 473 0 487 0;
#X connect 474 0 486 0;
#X connect 475 0 484 0;
#X connect 476 0 497 0;
#X connect 477 0 492 0;
#X connect 478 0 496 0;
#X connect 479 0 495 0;
#X connect 480 0 493 0;
#X connect 481 0 494 0;
#X connect 482 0 483 0;
#X connect 504 0 505 0;
#X connect 504 1 506 0;
#X connect 504 2 507 0;
#X connect 505 0 501 0;
#X connect 506 0 500 0;
#X connect 507 0 499 0;
#X connect 508 0 498 0;
#X connect 509 0 529 0;
#X connect 509 1 532 0;
#X connect 509 2 533 0;
#X connect 509 3 531 0;
#X connect 509 4 530 0;
#X connect 509 5 528 0;
#X connect 509 6 534 0;
#X connect 509 7 527 0;
#X connect 509 8 526 0;
#X connect 509 9 525 0;
#X connect 509 10 524 0;
#X connect 509 11 523 0;
#X connect 509 12 522 0;
#X connect 509 13 521 0;
#X connect 509 14 520 0;
#X connect 509 15 519 0;
#X connect 515 0 516 0;
#X connect 515 1 517 0;
#X connect 515 2 518 0;
#X connect 516 0 512 0;
#X connect 517 0 511 0;
#X connect 518 0 510 0;
#X connect 519 0 550 0;
#X connect 520 0 537 0;
#X connect 521 0 543 0;
#X connect 522 0 542 0;
#X connect 523 0 541 0;
#X connect 524 0 540 0;
#X connect 525 0 539 0;
#X connect 526 0 538 0;
#X connect 527 0 536 0;
#X connect 528 0 549 0;
#X connect 529 0 544 0;
#X connect 530 0 548 0;
#X connect 531 0 547 0;
#X connect 532 0 545 0;
#X connect 533 0 546 0;
#X connect 534 0 535 0;
#X connect 551 0 562 0;
#X connect 551 1 565 0;
#X connect 551 2 566 0;
#X connect 551 3 564 0;
#X connect 551 4 563 0;
#X connect 551 5 561 0;
#X connect 551 6 567 0;
#X connect 551 7 560 0;
#X connect 551 8 559 0;
#X connect 551 9 558 0;
#X connect 551 10 557 0;
#X connect 551 11 556 0;
#X connect 551 12 555 0;
#X connect 551 13 554 0;
#X connect 551 14 553 0;
#X connect 551 15 552 0;
#X connect 552 0 583 0;
#X connect 553 0 570 0;
#X connect 554 0 576 0;
#X connect 555 0 575 0;
#X connect 556 0 574 0;
#X connect 557 0 573 0;
#X connect 558 0 572 0;
#X connect 559 0 571 0;
#X connect 560 0 569 0;
#X connect 561 0 582 0;
#X connect 562 0 577 0;
#X connect 563 0 581 0;
#X connect 564 0 580 0;
#X connect 565 0 578 0;
#X connect 566 0 579 0;
#X connect 567 0 568 0;
#X connect 589 0 590 0;
#X connect 589 1 591 0;
#X connect 589 2 592 0;
#X connect 590 0 586 0;
#X connect 591 0 585 0;
#X connect 592 0 584 0;
#X connect 593 0 604 0;
#X connect 593 1 607 0;
#X connect 593 2 608 0;
#X connect 593 3 606 0;
#X connect 593 4 605 0;
#X connect 593 5 603 0;
#X connect 593 6 609 0;
#X connect 593 7 602 0;
#X connect 593 8 601 0;
#X connect 593 9 600 0;
#X connect 593 10 599 0;
#X connect 593 11 598 0;
#X connect 593 12 597 0;
#X connect 593 13 596 0;
#X connect 593 14 595 0;
#X connect 593 15 594 0;
#X connect 594 0 625 0;
#X connect 595 0 612 0;
#X connect 596 0 618 0;
#X connect 597 0 617 0;
#X connect 598 0 616 0;
#X connect 599 0 615 0;
#X connect 600 0 614 0;
#X connect 601 0 613 0;
#X connect 602 0 611 0;
#X connect 603 0 624 0;
#X connect 604 0 619 0;
#X connect 605 0 623 0;
#X connect 606 0 622 0;
#X connect 607 0 620 0;
#X connect 608 0 621 0;
#X connect 609 0 610 0;
#X connect 631 0 632 0;
#X connect 631 1 633 0;
#X connect 631 2 634 0;
#X connect 632 0 628 0;
#X connect 633 0 627 0;
#X connect 634 0 626 0;
#X connect 635 0 645 0;
#X connect 635 1 648 0;
#X connect 635 2 649 0;
#X connect 635 3 647 0;
#X connect 635 4 646 0;
#X connect 635 5 644 0;
#X connect 635 6 650 0;
#X connect 635 7 643 0;
#X connect 635 8 642 0;
#X connect 635 9 641 0;
#X connect 635 10 640 0;
#X connect 635 11 639 0;
#X connect 635 12 638 0;
#X connect 635 13 637 0;
#X connect 635 14 636 0;
#X connect 635 15 676 0;
#X connect 636 0 653 0;
#X connect 637 0 659 0;
#X connect 638 0 658 0;
#X connect 639 0 657 0;
#X connect 640 0 656 0;
#X connect 641 0 655 0;
#X connect 642 0 654 0;
#X connect 643 0 652 0;
#X connect 644 0 665 0;
#X connect 645 0 660 0;
#X connect 646 0 664 0;
#X connect 647 0 663 0;
#X connect 648 0 661 0;
#X connect 649 0 662 0;
#X connect 650 0 651 0;
#X connect 672 0 673 0;
#X connect 672 1 674 0;
#X connect 672 2 675 0;
#X connect 673 0 669 0;
#X connect 674 0 668 0;
#X connect 675 0 667 0;
#X connect 676 0 666 0;
#X connect 677 0 173 0;
#X connect 677 1 179 0;
#X connect 677 2 177 0;
#X connect 677 3 178 0;
#X connect 678 0 215 0;
#X connect 678 1 253 0;
#X connect 678 2 251 0;
#X connect 678 3 252 0;
#X connect 679 0 257 0;
#X connect 679 1 295 0;
#X connect 679 2 293 0;
#X connect 679 3 294 0;
#X connect 680 0 299 0;
#X connect 680 1 336 0;
#X connect 680 2 334 0;
#X connect 680 3 335 0;
#X connect 681 0 341 0;
#X connect 681 1 347 0;
#X connect 681 2 345 0;
#X connect 681 3 346 0;
#X connect 682 0 383 0;
#X connect 682 1 421 0;
#X connect 682 2 419 0;
#X connect 682 3 420 0;
#X connect 683 0 425 0;
#X connect 683 1 463 0;
#X connect 683 2 461 0;
#X connect 683 3 462 0;
#X connect 684 0 467 0;
#X connect 684 1 504 0;
#X connect 684 2 502 0;
#X connect 684 3 503 0;
#X connect 685 0 509 0;
#X connect 685 1 515 0;
#X connect 685 2 513 0;
#X connect 685 3 514 0;
#X connect 686 0 551 0;
#X connect 686 1 589 0;
#X connect 686 2 587 0;
#X connect 686 3 588 0;
#X connect 687 0 593 0;
#X connect 687 1 631 0;
#X connect 687 2 629 0;
#X connect 687 3 630 0;
#X connect 688 0 635 0;
#X connect 688 1 672 0;
#X connect 688 2 670 0;
#X connect 688 3 671 0;
#X connect 702 0 703 0;
#X connect 703 0 689 0;
#X connect 703 1 690 0;
#X connect 703 2 691 0;
#X connect 703 3 692 0;
#X connect 704 0 698 0;
#X connect 704 1 699 0;
#X connect 704 2 700 0;
#X connect 704 3 701 0;
#X connect 705 0 704 0;
#X connect 706 0 693 0;
#X connect 706 1 694 0;
#X connect 706 2 695 0;
#X connect 706 3 696 0;
#X connect 706 4 697 0;
#X coords 0 -1 1 1 540 430 2 10 300;
#X restore 31 117 pd page-2;
#X obj 14 -106 import mrpeach;
#X obj 128 -15 unpackOSC;
#X obj 33 60 routeOSC /1 /2 /3 /4;
#X obj 87 30 pipelist;
#X obj 120 92 print unpacked;
#X obj 13 -76 udpreceive 8000;
#X obj 31 93 s pd303-p1;
#X connect 2 0 4 0;
#X connect 2 1 4 1;
#X connect 3 0 7 0;
#X connect 3 0 5 0;
#X connect 4 0 3 0;
#X connect 6 0 2 0;
