#N canvas 131 22 903 685 10;
#X declare -lib mrpeach;
#N canvas 57 22 1219 719 page-2 1;
#X obj 17 -1496 r pd303-p1;
#X obj -513 -1404 OSCroute /1 /2 /3 /4 /5 /6 /7 /8 /9 /10 /11 /12 /13
/14 /15 /16;
#X obj 22 669 tgl 15 0 empty empty empty 17 7 0 10 -258113 -262144
-1 0 1;
#X obj -513 -1431 OSCroute /multitoggle1 /multitoggle2 /toggle2 /toggle3
;
#X obj -234 -1366 OSCroute /1;
#X obj -246 -1346 OSCroute /1;
#X obj -259 -1327 OSCroute /1;
#X obj -270 -1307 OSCroute /1;
#X obj -278 -1288 OSCroute /1;
#X obj -291 -1269 OSCroute /1;
#X obj -314 -1249 OSCroute /1;
#X obj -335 -1229 OSCroute /1;
#X obj -352 -1209 OSCroute /1;
#X obj -404 -1168 OSCroute /1;
#X obj -513 -1061 OSCroute /1;
#X obj -426 -1148 OSCroute /1;
#X obj -448 -1124 OSCroute /1;
#X obj -492 -1082 OSCroute /1;
#X obj -470 -1104 OSCroute /1;
#X obj -382 -1189 OSCroute /1;
#X obj 22 525 tgl 15 0 empty empty empty 17 7 0 10 -260097 -1 -1 0
1;
#X obj 22 505 tgl 15 0 empty empty empty 17 7 0 10 -260097 -1 -1 1
1;
#X obj 22 365 tgl 15 0 empty empty empty 17 7 0 10 -260097 -1 -1 0
1;
#X obj 22 485 tgl 15 0 empty empty empty 17 7 0 10 -260097 -1 -1 0
1;
#X obj 22 465 tgl 15 0 empty empty empty 17 7 0 10 -260097 -1 -1 0
1;
#X obj 22 445 tgl 15 0 empty empty empty 17 7 0 10 -260097 -1 -1 0
1;
#X obj 22 425 tgl 15 0 empty empty empty 17 7 0 10 -260097 -1 -1 0
1;
#X obj 22 405 tgl 15 0 empty empty empty 17 7 0 10 -260097 -1 -1 0
1;
#X obj 22 385 tgl 15 0 empty empty empty 17 7 0 10 -260097 -1 -1 0
1;
#X obj 22 645 tgl 15 0 empty empty empty 17 7 0 10 -260097 -1 -1 0
1;
#X obj 22 625 tgl 15 0 empty empty empty 17 7 0 10 -260097 -1 -1 0
1;
#X obj 22 605 tgl 15 0 empty empty empty 17 7 0 10 -260097 -1 -1 0
1;
#X obj 22 585 tgl 15 0 empty empty empty 17 7 0 10 -260097 -1 -1 0
1;
#X obj 22 565 tgl 15 0 empty empty empty 17 7 0 10 -260097 -1 -1 0
1;
#X obj 22 545 tgl 15 0 empty empty empty 17 7 0 10 -260097 -1 -1 0
1;
#X obj 22 345 tgl 15 0 empty empty empty 17 7 0 10 -260097 -1 -1 0
1;
#X obj -106 -1405 OSCroute /1 /2 /3 /4 /5 /6 /7 /8 /9 /10 /11 /12 /13
/14 /15 /16;
#X obj 173 -1367 OSCroute /1;
#X obj 162 -1347 OSCroute /1;
#X obj 148 -1328 OSCroute /1;
#X obj 137 -1308 OSCroute /1;
#X obj 129 -1289 OSCroute /1;
#X obj 116 -1270 OSCroute /1;
#X obj 93 -1250 OSCroute /1;
#X obj 72 -1230 OSCroute /1;
#X obj 55 -1210 OSCroute /1;
#X obj 3 -1169 OSCroute /1;
#X obj -106 -1062 OSCroute /1;
#X obj -19 -1149 OSCroute /1;
#X obj -41 -1125 OSCroute /1;
#X obj -85 -1083 OSCroute /1;
#X obj -63 -1105 OSCroute /1;
#X obj 25 -1190 OSCroute /1;
#X obj 42 525 tgl 15 0 empty empty empty 17 7 0 10 -260097 -1 -1 0
1;
#X obj 42 505 tgl 15 0 empty empty empty 17 7 0 10 -260097 -1 -1 1
1;
#X obj 42 365 tgl 15 0 empty empty empty 17 7 0 10 -260097 -1 -1 0
1;
#X obj 42 485 tgl 15 0 empty empty empty 17 7 0 10 -260097 -1 -1 1
1;
#X obj 42 465 tgl 15 0 empty empty empty 17 7 0 10 -260097 -1 -1 1
1;
#X obj 42 445 tgl 15 0 empty empty empty 17 7 0 10 -260097 -1 -1 0
1;
#X obj 42 425 tgl 15 0 empty empty empty 17 7 0 10 -260097 -1 -1 0
1;
#X obj 42 405 tgl 15 0 empty empty empty 17 7 0 10 -260097 -1 -1 0
1;
#X obj 42 385 tgl 15 0 empty empty empty 17 7 0 10 -260097 -1 -1 0
1;
#X obj 42 645 tgl 15 0 empty empty empty 17 7 0 10 -260097 -1 -1 0
1;
#X obj 42 625 tgl 15 0 empty empty empty 17 7 0 10 -260097 -1 -1 0
1;
#X obj 42 605 tgl 15 0 empty empty empty 17 7 0 10 -260097 -1 -1 0
1;
#X obj 42 585 tgl 15 0 empty empty empty 17 7 0 10 -260097 -1 -1 0
1;
#X obj 42 565 tgl 15 0 empty empty empty 17 7 0 10 -260097 -1 -1 1
1;
#X obj 42 545 tgl 15 0 empty empty empty 17 7 0 10 -260097 -1 -1 0
1;
#X obj 42 345 tgl 15 0 empty empty empty 17 7 0 10 -260097 -1 -1 0
1;
#X obj 42 669 tgl 15 0 empty empty empty 17 7 0 10 -258113 -262144
-1 1 1;
#X obj -106 -1432 OSCroute /multitoggle3 /multitoggle4 /toggle4 /toggle5
;
#X obj 320 -1404 OSCroute /1 /2 /3 /4 /5 /6 /7 /8 /9 /10 /11 /12 /13
/14 /15 /16;
#X obj 599 -1366 OSCroute /1;
#X obj 587 -1346 OSCroute /1;
#X obj 574 -1327 OSCroute /1;
#X obj 563 -1307 OSCroute /1;
#X obj 555 -1288 OSCroute /1;
#X obj 542 -1269 OSCroute /1;
#X obj 519 -1249 OSCroute /1;
#X obj 498 -1229 OSCroute /1;
#X obj 481 -1209 OSCroute /1;
#X obj 429 -1168 OSCroute /1;
#X obj 320 -1061 OSCroute /1;
#X obj 407 -1148 OSCroute /1;
#X obj 385 -1124 OSCroute /1;
#X obj 341 -1082 OSCroute /1;
#X obj 363 -1104 OSCroute /1;
#X obj 451 -1189 OSCroute /1;
#X obj 62 525 tgl 15 0 empty empty empty 17 7 0 10 -260097 -1 -1 1
1;
#X obj 62 505 tgl 15 0 empty empty empty 17 7 0 10 -260097 -1 -1 0
1;
#X obj 62 365 tgl 15 0 empty empty empty 17 7 0 10 -260097 -1 -1 0
1;
#X obj 62 485 tgl 15 0 empty empty empty 17 7 0 10 -260097 -1 -1 0
1;
#X obj 62 465 tgl 15 0 empty empty empty 17 7 0 10 -260097 -1 -1 0
1;
#X obj 62 445 tgl 15 0 empty empty empty 17 7 0 10 -260097 -1 -1 0
1;
#X obj 62 425 tgl 15 0 empty empty empty 17 7 0 10 -260097 -1 -1 0
1;
#X obj 62 405 tgl 15 0 empty empty empty 17 7 0 10 -260097 -1 -1 0
1;
#X obj 62 385 tgl 15 0 empty empty empty 17 7 0 10 -260097 -1 -1 0
1;
#X obj 62 645 tgl 15 0 empty empty empty 17 7 0 10 -260097 -1 -1 0
1;
#X obj 62 625 tgl 15 0 empty empty empty 17 7 0 10 -260097 -1 -1 1
1;
#X obj 62 605 tgl 15 0 empty empty empty 17 7 0 10 -260097 -1 -1 0
1;
#X obj 62 585 tgl 15 0 empty empty empty 17 7 0 10 -260097 -1 -1 0
1;
#X obj 62 565 tgl 15 0 empty empty empty 17 7 0 10 -260097 -1 -1 0
1;
#X obj 62 545 tgl 15 0 empty empty empty 17 7 0 10 -260097 -1 -1 1
1;
#X obj 62 345 tgl 15 0 empty empty empty 17 7 0 10 -260097 -1 -1 0
1;
#X obj 62 669 tgl 15 0 empty empty empty 17 7 0 10 -258113 -262144
-1 0 1;
#X obj 62 689 tgl 15 0 empty empty empty 17 7 0 10 -258113 -262144
-1 0 1;
#X obj 320 -1431 OSCroute /multitoggle5 /multitoggle6 /toggle6 /toggle7
;
#X obj 720 -1404 OSCroute /1 /2 /3 /4 /5 /6 /7 /8 /9 /10 /11 /12 /13
/14 /15 /16;
#X obj 997 -1346 OSCroute /1;
#X obj 984 -1327 OSCroute /1;
#X obj 973 -1307 OSCroute /1;
#X obj 965 -1288 OSCroute /1;
#X obj 942 -1269 OSCroute /1;
#X obj 919 -1249 OSCroute /1;
#X obj 898 -1229 OSCroute /1;
#X obj 881 -1209 OSCroute /1;
#X obj 829 -1168 OSCroute /1;
#X obj 720 -1061 OSCroute /1;
#X obj 807 -1148 OSCroute /1;
#X obj 785 -1124 OSCroute /1;
#X obj 741 -1082 OSCroute /1;
#X obj 763 -1104 OSCroute /1;
#X obj 851 -1189 OSCroute /1;
#X obj 82 525 tgl 15 0 empty empty empty 17 7 0 10 -260097 -1 -1 0
1;
#X obj 82 505 tgl 15 0 empty empty empty 17 7 0 10 -260097 -1 -1 0
1;
#X obj 82 365 tgl 15 0 empty empty empty 17 7 0 10 -260097 -1 -1 0
1;
#X obj 82 485 tgl 15 0 empty empty empty 17 7 0 10 -260097 -1 -1 1
1;
#X obj 82 465 tgl 15 0 empty empty empty 17 7 0 10 -260097 -1 -1 0
1;
#X obj 82 445 tgl 15 0 empty empty empty 17 7 0 10 -260097 -1 -1 0
1;
#X obj 82 425 tgl 15 0 empty empty empty 17 7 0 10 -260097 -1 -1 0
1;
#X obj 82 405 tgl 15 0 empty empty empty 17 7 0 10 -260097 -1 -1 0
1;
#X obj 82 385 tgl 15 0 empty empty empty 17 7 0 10 -260097 -1 -1 0
1;
#X obj 82 645 tgl 15 0 empty empty empty 17 7 0 10 -260097 -1 -1 0
1;
#X obj 82 625 tgl 15 0 empty empty empty 17 7 0 10 -260097 -1 -1 0
1;
#X obj 82 605 tgl 15 0 empty empty empty 17 7 0 10 -260097 -1 -1 0
1;
#X obj 82 585 tgl 15 0 empty empty empty 17 7 0 10 -260097 -1 -1 0
1;
#X obj 82 565 tgl 15 0 empty empty empty 17 7 0 10 -260097 -1 -1 0
1;
#X obj 82 545 tgl 15 0 empty empty empty 17 7 0 10 -260097 -1 -1 1
1;
#X obj 82 345 tgl 15 0 empty empty empty 17 7 0 10 -260097 -1 -1 0
1;
#X obj 82 669 tgl 15 0 empty empty empty 17 7 0 10 -258113 -262144
-1 0 1;
#X obj 1009 -1365 OSCroute /1;
#X obj -513 -994 OSCroute /1 /2 /3 /4 /5 /6 /7 /8 /9 /10 /11 /12 /13
/14 /15 /16;
#X obj 102 669 tgl 15 0 empty empty empty 17 7 0 10 -258113 -262144
-1 0 1;
#X obj -234 -956 OSCroute /1;
#X obj -246 -936 OSCroute /1;
#X obj -259 -917 OSCroute /1;
#X obj -270 -897 OSCroute /1;
#X obj -278 -878 OSCroute /1;
#X obj -291 -859 OSCroute /1;
#X obj -314 -839 OSCroute /1;
#X obj -335 -819 OSCroute /1;
#X obj -352 -799 OSCroute /1;
#X obj -404 -758 OSCroute /1;
#X obj -513 -651 OSCroute /1;
#X obj -426 -738 OSCroute /1;
#X obj -448 -714 OSCroute /1;
#X obj -492 -672 OSCroute /1;
#X obj -470 -694 OSCroute /1;
#X obj -382 -779 OSCroute /1;
#X obj 102 525 tgl 15 0 empty empty empty 17 7 0 10 -260097 -1 -1 1
1;
#X obj 102 505 tgl 15 0 empty empty empty 17 7 0 10 -260097 -1 -1 0
1;
#X obj 102 365 tgl 15 0 empty empty empty 17 7 0 10 -260097 -1 -1 0
1;
#X obj 102 485 tgl 15 0 empty empty empty 17 7 0 10 -260097 -1 -1 0
1;
#X obj 102 465 tgl 15 0 empty empty empty 17 7 0 10 -260097 -1 -1 0
1;
#X obj 102 445 tgl 15 0 empty empty empty 17 7 0 10 -260097 -1 -1 0
1;
#X obj 102 425 tgl 15 0 empty empty empty 17 7 0 10 -260097 -1 -1 0
1;
#X obj 102 405 tgl 15 0 empty empty empty 17 7 0 10 -260097 -1 -1 0
1;
#X obj 102 385 tgl 15 0 empty empty empty 17 7 0 10 -260097 -1 -1 0
1;
#X obj 102 645 tgl 15 0 empty empty empty 17 7 0 10 -260097 -1 -1 0
1;
#X obj 102 625 tgl 15 0 empty empty empty 17 7 0 10 -260097 -1 -1 0
1;
#X obj 102 605 tgl 15 0 empty empty empty 17 7 0 10 -260097 -1 -1 0
1;
#X obj 102 585 tgl 15 0 empty empty empty 17 7 0 10 -260097 -1 -1 0
1;
#X obj 102 565 tgl 15 0 empty empty empty 17 7 0 10 -260097 -1 -1 0
1;
#X obj 102 545 tgl 15 0 empty empty empty 17 7 0 10 -260097 -1 -1 0
1;
#X obj 102 345 tgl 15 0 empty empty empty 17 7 0 10 -260097 -1 -1 0
1;
#X obj -106 -995 OSCroute /1 /2 /3 /4 /5 /6 /7 /8 /9 /10 /11 /12 /13
/14 /15 /16;
#X obj 173 -957 OSCroute /1;
#X obj 162 -937 OSCroute /1;
#X obj 148 -918 OSCroute /1;
#X obj 137 -898 OSCroute /1;
#X obj 129 -879 OSCroute /1;
#X obj 116 -860 OSCroute /1;
#X obj 93 -840 OSCroute /1;
#X obj 72 -820 OSCroute /1;
#X obj 55 -800 OSCroute /1;
#X obj 3 -759 OSCroute /1;
#X obj -106 -652 OSCroute /1;
#X obj -19 -739 OSCroute /1;
#X obj -41 -715 OSCroute /1;
#X obj -85 -673 OSCroute /1;
#X obj -63 -695 OSCroute /1;
#X obj 25 -780 OSCroute /1;
#X obj 122 525 tgl 15 0 empty empty empty 17 7 0 10 -260097 -1 -1 0
1;
#X obj 122 505 tgl 15 0 empty empty empty 17 7 0 10 -260097 -1 -1 1
1;
#X obj 122 365 tgl 15 0 empty empty empty 17 7 0 10 -260097 -1 -1 0
1;
#X obj 122 485 tgl 15 0 empty empty empty 17 7 0 10 -260097 -1 -1 1
1;
#X obj 122 465 tgl 15 0 empty empty empty 17 7 0 10 -260097 -1 -1 1
1;
#X obj 122 445 tgl 15 0 empty empty empty 17 7 0 10 -260097 -1 -1 1
1;
#X obj 122 425 tgl 15 0 empty empty empty 17 7 0 10 -260097 -1 -1 0
1;
#X obj 122 405 tgl 15 0 empty empty empty 17 7 0 10 -260097 -1 -1 0
1;
#X obj 122 385 tgl 15 0 empty empty empty 17 7 0 10 -260097 -1 -1 1
1;
#X obj 122 645 tgl 15 0 empty empty empty 17 7 0 10 -260097 -1 -1 0
1;
#X obj 122 625 tgl 15 0 empty empty empty 17 7 0 10 -260097 -1 -1 0
1;
#X obj 122 605 tgl 15 0 empty empty empty 17 7 0 10 -260097 -1 -1 0
1;
#X obj 122 585 tgl 15 0 empty empty empty 17 7 0 10 -260097 -1 -1 0
1;
#X obj 122 565 tgl 15 0 empty empty empty 17 7 0 10 -260097 -1 -1 1
1;
#X obj 122 545 tgl 15 0 empty empty empty 17 7 0 10 -260097 -1 -1 0
1;
#X obj 122 345 tgl 15 0 empty empty empty 17 7 0 10 -260097 -1 -1 0
1;
#X obj 122 669 tgl 15 0 empty empty empty 17 7 0 10 -258113 -262144
-1 0 1;
#X obj 320 -994 OSCroute /1 /2 /3 /4 /5 /6 /7 /8 /9 /10 /11 /12 /13
/14 /15 /16;
#X obj 599 -956 OSCroute /1;
#X obj 587 -936 OSCroute /1;
#X obj 574 -917 OSCroute /1;
#X obj 563 -897 OSCroute /1;
#X obj 555 -878 OSCroute /1;
#X obj 542 -859 OSCroute /1;
#X obj 519 -839 OSCroute /1;
#X obj 498 -819 OSCroute /1;
#X obj 481 -799 OSCroute /1;
#X obj 429 -758 OSCroute /1;
#X obj 320 -651 OSCroute /1;
#X obj 407 -738 OSCroute /1;
#X obj 385 -714 OSCroute /1;
#X obj 341 -672 OSCroute /1;
#X obj 363 -694 OSCroute /1;
#X obj 451 -779 OSCroute /1;
#X obj 142 525 tgl 15 0 empty empty empty 17 7 0 10 -260097 -1 -1 1
1;
#X obj 142 505 tgl 15 0 empty empty empty 17 7 0 10 -260097 -1 -1 1
1;
#X obj 142 365 tgl 15 0 empty empty empty 17 7 0 10 -260097 -1 -1 0
1;
#X obj 142 485 tgl 15 0 empty empty empty 17 7 0 10 -260097 -1 -1 0
1;
#X obj 142 465 tgl 15 0 empty empty empty 17 7 0 10 -260097 -1 -1 0
1;
#X obj 142 445 tgl 15 0 empty empty empty 17 7 0 10 -260097 -1 -1 0
1;
#X obj 142 425 tgl 15 0 empty empty empty 17 7 0 10 -260097 -1 -1 0
1;
#X obj 142 405 tgl 15 0 empty empty empty 17 7 0 10 -260097 -1 -1 0
1;
#X obj 142 385 tgl 15 0 empty empty empty 17 7 0 10 -260097 -1 -1 0
1;
#X obj 142 645 tgl 15 0 empty empty empty 17 7 0 10 -260097 -1 -1 1
1;
#X obj 142 625 tgl 15 0 empty empty empty 17 7 0 10 -260097 -1 -1 0
1;
#X obj 142 605 tgl 15 0 empty empty empty 17 7 0 10 -260097 -1 -1 0
1;
#X obj 142 585 tgl 15 0 empty empty empty 17 7 0 10 -260097 -1 -1 0
1;
#X obj 142 565 tgl 15 0 empty empty empty 17 7 0 10 -260097 -1 -1 0
1;
#X obj 142 545 tgl 15 0 empty empty empty 17 7 0 10 -260097 -1 -1 0
1;
#X obj 142 345 tgl 15 0 empty empty empty 17 7 0 10 -260097 -1 -1 0
1;
#X obj 142 669 tgl 15 0 empty empty empty 17 7 0 10 -258113 -262144
-1 0 1;
#X obj 720 -994 OSCroute /1 /2 /3 /4 /5 /6 /7 /8 /9 /10 /11 /12 /13
/14 /15 /16;
#X obj 997 -936 OSCroute /1;
#X obj 984 -917 OSCroute /1;
#X obj 973 -897 OSCroute /1;
#X obj 965 -878 OSCroute /1;
#X obj 942 -859 OSCroute /1;
#X obj 919 -839 OSCroute /1;
#X obj 898 -819 OSCroute /1;
#X obj 881 -799 OSCroute /1;
#X obj 829 -758 OSCroute /1;
#X obj 720 -651 OSCroute /1;
#X obj 807 -738 OSCroute /1;
#X obj 785 -714 OSCroute /1;
#X obj 741 -672 OSCroute /1;
#X obj 763 -694 OSCroute /1;
#X obj 851 -779 OSCroute /1;
#X obj 162 525 tgl 15 0 empty empty empty 17 7 0 10 -260097 -1 -1 0
1;
#X obj 162 505 tgl 15 0 empty empty empty 17 7 0 10 -260097 -1 -1 0
1;
#X obj 162 365 tgl 15 0 empty empty empty 17 7 0 10 -260097 -1 -1 0
1;
#X obj 162 485 tgl 15 0 empty empty empty 17 7 0 10 -260097 -1 -1 1
1;
#X obj 162 465 tgl 15 0 empty empty empty 17 7 0 10 -260097 -1 -1 1
1;
#X obj 162 445 tgl 15 0 empty empty empty 17 7 0 10 -260097 -1 -1 0
1;
#X obj 162 425 tgl 15 0 empty empty empty 17 7 0 10 -260097 -1 -1 0
1;
#X obj 162 405 tgl 15 0 empty empty empty 17 7 0 10 -260097 -1 -1 0
1;
#X obj 162 385 tgl 15 0 empty empty empty 17 7 0 10 -260097 -1 -1 1
1;
#X obj 162 645 tgl 15 0 empty empty empty 17 7 0 10 -260097 -1 -1 0
1;
#X obj 162 625 tgl 15 0 empty empty empty 17 7 0 10 -260097 -1 -1 0
1;
#X obj 162 605 tgl 15 0 empty empty empty 17 7 0 10 -260097 -1 -1 1
1;
#X obj 162 585 tgl 15 0 empty empty empty 17 7 0 10 -260097 -1 -1 0
1;
#X obj 162 565 tgl 15 0 empty empty empty 17 7 0 10 -260097 -1 -1 0
1;
#X obj 162 545 tgl 15 0 empty empty empty 17 7 0 10 -260097 -1 -1 0
1;
#X obj 162 345 tgl 15 0 empty empty empty 17 7 0 10 -260097 -1 -1 0
1;
#X obj 162 669 tgl 15 0 empty empty empty 17 7 0 10 -258113 -262144
-1 0 1;
#X obj 1009 -955 OSCroute /1;
#X obj -513 -584 OSCroute /1 /2 /3 /4 /5 /6 /7 /8 /9 /10 /11 /12 /13
/14 /15 /16;
#X obj 182 669 tgl 15 0 empty empty empty 17 7 0 10 -258113 -262144
-1 0 1;
#X obj -234 -546 OSCroute /1;
#X obj -246 -526 OSCroute /1;
#X obj -259 -507 OSCroute /1;
#X obj -270 -487 OSCroute /1;
#X obj -278 -468 OSCroute /1;
#X obj -291 -449 OSCroute /1;
#X obj -314 -429 OSCroute /1;
#X obj -335 -409 OSCroute /1;
#X obj -352 -389 OSCroute /1;
#X obj -404 -348 OSCroute /1;
#X obj -513 -241 OSCroute /1;
#X obj -426 -328 OSCroute /1;
#X obj -448 -304 OSCroute /1;
#X obj -492 -262 OSCroute /1;
#X obj -470 -284 OSCroute /1;
#X obj -382 -369 OSCroute /1;
#X obj 182 525 tgl 15 0 empty empty empty 17 7 0 10 -260097 -1 -1 1
1;
#X obj 182 505 tgl 15 0 empty empty empty 17 7 0 10 -260097 -1 -1 1
1;
#X obj 182 365 tgl 15 0 empty empty empty 17 7 0 10 -260097 -1 -1 0
1;
#X obj 182 485 tgl 15 0 empty empty empty 17 7 0 10 -260097 -1 -1 0
1;
#X obj 182 465 tgl 15 0 empty empty empty 17 7 0 10 -260097 -1 -1 0
1;
#X obj 182 445 tgl 15 0 empty empty empty 17 7 0 10 -260097 -1 -1 0
1;
#X obj 182 425 tgl 15 0 empty empty empty 17 7 0 10 -260097 -1 -1 0
1;
#X obj 182 405 tgl 15 0 empty empty empty 17 7 0 10 -260097 -1 -1 0
1;
#X obj 182 385 tgl 15 0 empty empty empty 17 7 0 10 -260097 -1 -1 1
1;
#X obj 182 645 tgl 15 0 empty empty empty 17 7 0 10 -260097 -1 -1 0
1;
#X obj 182 625 tgl 15 0 empty empty empty 17 7 0 10 -260097 -1 -1 0
1;
#X obj 182 605 tgl 15 0 empty empty empty 17 7 0 10 -260097 -1 -1 0
1;
#X obj 182 585 tgl 15 0 empty empty empty 17 7 0 10 -260097 -1 -1 0
1;
#X obj 182 565 tgl 15 0 empty empty empty 17 7 0 10 -260097 -1 -1 0
1;
#X obj 182 545 tgl 15 0 empty empty empty 17 7 0 10 -260097 -1 -1 1
1;
#X obj 182 345 tgl 15 0 empty empty empty 17 7 0 10 -260097 -1 -1 0
1;
#X obj -106 -585 OSCroute /1 /2 /3 /4 /5 /6 /7 /8 /9 /10 /11 /12 /13
/14 /15 /16;
#X obj 173 -547 OSCroute /1;
#X obj 162 -527 OSCroute /1;
#X obj 148 -508 OSCroute /1;
#X obj 137 -488 OSCroute /1;
#X obj 129 -469 OSCroute /1;
#X obj 116 -450 OSCroute /1;
#X obj 93 -430 OSCroute /1;
#X obj 72 -410 OSCroute /1;
#X obj 55 -390 OSCroute /1;
#X obj 3 -349 OSCroute /1;
#X obj -106 -242 OSCroute /1;
#X obj -19 -329 OSCroute /1;
#X obj -41 -305 OSCroute /1;
#X obj -85 -263 OSCroute /1;
#X obj -63 -285 OSCroute /1;
#X obj 25 -370 OSCroute /1;
#X obj 202 525 tgl 15 0 empty empty empty 17 7 0 10 -260097 -1 -1 0
1;
#X obj 202 505 tgl 15 0 empty empty empty 17 7 0 10 -260097 -1 -1 0
1;
#X obj 202 365 tgl 15 0 empty empty empty 17 7 0 10 -260097 -1 -1 0
1;
#X obj 202 485 tgl 15 0 empty empty empty 17 7 0 10 -260097 -1 -1 0
1;
#X obj 202 465 tgl 15 0 empty empty empty 17 7 0 10 -260097 -1 -1 0
1;
#X obj 202 445 tgl 15 0 empty empty empty 17 7 0 10 -260097 -1 -1 0
1;
#X obj 202 425 tgl 15 0 empty empty empty 17 7 0 10 -260097 -1 -1 0
1;
#X obj 202 405 tgl 15 0 empty empty empty 17 7 0 10 -260097 -1 -1 0
1;
#X obj 202 385 tgl 15 0 empty empty empty 17 7 0 10 -260097 -1 -1 0
1;
#X obj 202 645 tgl 15 0 empty empty empty 17 7 0 10 -260097 -1 -1 0
1;
#X obj 202 625 tgl 15 0 empty empty empty 17 7 0 10 -260097 -1 -1 0
1;
#X obj 202 605 tgl 15 0 empty empty empty 17 7 0 10 -260097 -1 -1 0
1;
#X obj 202 585 tgl 15 0 empty empty empty 17 7 0 10 -260097 -1 -1 0
1;
#X obj 202 565 tgl 15 0 empty empty empty 17 7 0 10 -260097 -1 -1 1
1;
#X obj 202 545 tgl 15 0 empty empty empty 17 7 0 10 -260097 -1 -1 0
1;
#X obj 202 345 tgl 15 0 empty empty empty 17 7 0 10 -260097 -1 -1 0
1;
#X obj 202 669 tgl 15 0 empty empty empty 17 7 0 10 -258113 -262144
-1 0 1;
#X obj 320 -584 OSCroute /1 /2 /3 /4 /5 /6 /7 /8 /9 /10 /11 /12 /13
/14 /15 /16;
#X obj 599 -546 OSCroute /1;
#X obj 587 -526 OSCroute /1;
#X obj 574 -507 OSCroute /1;
#X obj 563 -487 OSCroute /1;
#X obj 555 -468 OSCroute /1;
#X obj 542 -449 OSCroute /1;
#X obj 519 -429 OSCroute /1;
#X obj 498 -409 OSCroute /1;
#X obj 481 -389 OSCroute /1;
#X obj 429 -348 OSCroute /1;
#X obj 320 -241 OSCroute /1;
#X obj 407 -328 OSCroute /1;
#X obj 385 -304 OSCroute /1;
#X obj 341 -262 OSCroute /1;
#X obj 363 -284 OSCroute /1;
#X obj 451 -369 OSCroute /1;
#X obj 222 525 tgl 15 0 empty empty empty 17 7 0 10 -260097 -1 -1 1
1;
#X obj 222 505 tgl 15 0 empty empty empty 17 7 0 10 -260097 -1 -1 1
1;
#X obj 222 365 tgl 15 0 empty empty empty 17 7 0 10 -260097 -1 -1 0
1;
#X obj 222 485 tgl 15 0 empty empty empty 17 7 0 10 -260097 -1 -1 0
1;
#X obj 222 465 tgl 15 0 empty empty empty 17 7 0 10 -260097 -1 -1 0
1;
#X obj 222 445 tgl 15 0 empty empty empty 17 7 0 10 -260097 -1 -1 0
1;
#X obj 222 425 tgl 15 0 empty empty empty 17 7 0 10 -260097 -1 -1 1
1;
#X obj 222 405 tgl 15 0 empty empty empty 17 7 0 10 -260097 -1 -1 0
1;
#X obj 222 385 tgl 15 0 empty empty empty 17 7 0 10 -260097 -1 -1 0
1;
#X obj 222 645 tgl 15 0 empty empty empty 17 7 0 10 -260097 -1 -1 0
1;
#X obj 222 625 tgl 15 0 empty empty empty 17 7 0 10 -260097 -1 -1 0
1;
#X obj 222 605 tgl 15 0 empty empty empty 17 7 0 10 -260097 -1 -1 0
1;
#X obj 222 585 tgl 15 0 empty empty empty 17 7 0 10 -260097 -1 -1 0
1;
#X obj 222 565 tgl 15 0 empty empty empty 17 7 0 10 -260097 -1 -1 0
1;
#X obj 222 545 tgl 15 0 empty empty empty 17 7 0 10 -260097 -1 -1 0
1;
#X obj 222 345 tgl 15 0 empty empty empty 17 7 0 10 -260097 -1 -1 0
1;
#X obj 222 669 tgl 15 0 empty empty empty 17 7 0 10 -258113 -262144
-1 0 1;
#X obj 720 -584 OSCroute /1 /2 /3 /4 /5 /6 /7 /8 /9 /10 /11 /12 /13
/14 /15 /16;
#X obj 997 -526 OSCroute /1;
#X obj 984 -507 OSCroute /1;
#X obj 973 -487 OSCroute /1;
#X obj 965 -468 OSCroute /1;
#X obj 942 -449 OSCroute /1;
#X obj 919 -429 OSCroute /1;
#X obj 898 -409 OSCroute /1;
#X obj 881 -389 OSCroute /1;
#X obj 829 -348 OSCroute /1;
#X obj 720 -241 OSCroute /1;
#X obj 807 -328 OSCroute /1;
#X obj 785 -304 OSCroute /1;
#X obj 741 -262 OSCroute /1;
#X obj 763 -284 OSCroute /1;
#X obj 851 -369 OSCroute /1;
#X obj 242 525 tgl 15 0 empty empty empty 17 7 0 10 -260097 -1 -1 0
1;
#X obj 242 505 tgl 15 0 empty empty empty 17 7 0 10 -260097 -1 -1 0
1;
#X obj 242 365 tgl 15 0 empty empty empty 17 7 0 10 -260097 -1 -1 0
1;
#X obj 242 485 tgl 15 0 empty empty empty 17 7 0 10 -260097 -1 -1 0
1;
#X obj 242 465 tgl 15 0 empty empty empty 17 7 0 10 -260097 -1 -1 1
1;
#X obj 242 445 tgl 15 0 empty empty empty 17 7 0 10 -260097 -1 -1 0
1;
#X obj 242 425 tgl 15 0 empty empty empty 17 7 0 10 -260097 -1 -1 0
1;
#X obj 242 405 tgl 15 0 empty empty empty 17 7 0 10 -260097 -1 -1 0
1;
#X obj 242 385 tgl 15 0 empty empty empty 17 7 0 10 -260097 -1 -1 0
1;
#X obj 242 645 tgl 15 0 empty empty empty 17 7 0 10 -260097 -1 -1 0
1;
#X obj 242 625 tgl 15 0 empty empty empty 17 7 0 10 -260097 -1 -1 0
1;
#X obj 242 605 tgl 15 0 empty empty empty 17 7 0 10 -260097 -1 -1 0
1;
#X obj 242 585 tgl 15 0 empty empty empty 17 7 0 10 -260097 -1 -1 0
1;
#X obj 242 565 tgl 15 0 empty empty empty 17 7 0 10 -260097 -1 -1 0
1;
#X obj 242 545 tgl 15 0 empty empty empty 17 7 0 10 -260097 -1 -1 0
1;
#X obj 242 345 tgl 15 0 empty empty empty 17 7 0 10 -260097 -1 -1 0
1;
#X obj 242 669 tgl 15 0 empty empty empty 17 7 0 10 -258113 -262144
-1 0 1;
#X obj 1009 -545 OSCroute /1;
#X obj -513 -174 OSCroute /1 /2 /3 /4 /5 /6 /7 /8 /9 /10 /11 /12 /13
/14 /15 /16;
#X obj 262 669 tgl 15 0 empty empty empty 17 7 0 10 -258113 -262144
-1 0 1;
#X obj -234 -136 OSCroute /1;
#X obj -246 -116 OSCroute /1;
#X obj -259 -97 OSCroute /1;
#X obj -270 -77 OSCroute /1;
#X obj -278 -58 OSCroute /1;
#X obj -291 -39 OSCroute /1;
#X obj -314 -19 OSCroute /1;
#X obj -335 1 OSCroute /1;
#X obj -352 21 OSCroute /1;
#X obj -404 62 OSCroute /1;
#X obj -513 169 OSCroute /1;
#X obj -426 82 OSCroute /1;
#X obj -448 106 OSCroute /1;
#X obj -492 148 OSCroute /1;
#X obj -470 126 OSCroute /1;
#X obj -382 41 OSCroute /1;
#X obj 262 525 tgl 15 0 empty empty empty 17 7 0 10 -260097 -1 -1 1
1;
#X obj 262 505 tgl 15 0 empty empty empty 17 7 0 10 -260097 -1 -1 1
1;
#X obj 262 365 tgl 15 0 empty empty empty 17 7 0 10 -260097 -1 -1 0
1;
#X obj 262 485 tgl 15 0 empty empty empty 17 7 0 10 -260097 -1 -1 0
1;
#X obj 262 465 tgl 15 0 empty empty empty 17 7 0 10 -260097 -1 -1 0
1;
#X obj 262 445 tgl 15 0 empty empty empty 17 7 0 10 -260097 -1 -1 0
1;
#X obj 262 425 tgl 15 0 empty empty empty 17 7 0 10 -260097 -1 -1 1
1;
#X obj 262 405 tgl 15 0 empty empty empty 17 7 0 10 -260097 -1 -1 0
1;
#X obj 262 385 tgl 15 0 empty empty empty 17 7 0 10 -260097 -1 -1 0
1;
#X obj 262 645 tgl 15 0 empty empty empty 17 7 0 10 -260097 -1 -1 0
1;
#X obj 262 625 tgl 15 0 empty empty empty 17 7 0 10 -260097 -1 -1 0
1;
#X obj 262 605 tgl 15 0 empty empty empty 17 7 0 10 -260097 -1 -1 0
1;
#X obj 262 585 tgl 15 0 empty empty empty 17 7 0 10 -260097 -1 -1 0
1;
#X obj 262 565 tgl 15 0 empty empty empty 17 7 0 10 -260097 -1 -1 0
1;
#X obj 262 545 tgl 15 0 empty empty empty 17 7 0 10 -260097 -1 -1 0
1;
#X obj 262 345 tgl 15 0 empty empty empty 17 7 0 10 -260097 -1 -1 0
1;
#X obj -106 -175 OSCroute /1 /2 /3 /4 /5 /6 /7 /8 /9 /10 /11 /12 /13
/14 /15 /16;
#X obj 173 -137 OSCroute /1;
#X obj 162 -117 OSCroute /1;
#X obj 148 -98 OSCroute /1;
#X obj 137 -78 OSCroute /1;
#X obj 129 -59 OSCroute /1;
#X obj 116 -40 OSCroute /1;
#X obj 93 -20 OSCroute /1;
#X obj 72 0 OSCroute /1;
#X obj 55 20 OSCroute /1;
#X obj 3 61 OSCroute /1;
#X obj -106 168 OSCroute /1;
#X obj -19 81 OSCroute /1;
#X obj -41 105 OSCroute /1;
#X obj -85 147 OSCroute /1;
#X obj -63 125 OSCroute /1;
#X obj 25 40 OSCroute /1;
#X obj 282 525 tgl 15 0 empty empty empty 17 7 0 10 -260097 -1 -1 0
1;
#X obj 282 505 tgl 15 0 empty empty empty 17 7 0 10 -260097 -1 -1 1
1;
#X obj 282 365 tgl 15 0 empty empty empty 17 7 0 10 -260097 -1 -1 0
1;
#X obj 282 485 tgl 15 0 empty empty empty 17 7 0 10 -260097 -1 -1 1
1;
#X obj 282 465 tgl 15 0 empty empty empty 17 7 0 10 -260097 -1 -1 0
1;
#X obj 282 445 tgl 15 0 empty empty empty 17 7 0 10 -260097 -1 -1 0
1;
#X obj 282 425 tgl 15 0 empty empty empty 17 7 0 10 -260097 -1 -1 0
1;
#X obj 282 405 tgl 15 0 empty empty empty 17 7 0 10 -260097 -1 -1 0
1;
#X obj 282 385 tgl 15 0 empty empty empty 17 7 0 10 -260097 -1 -1 1
1;
#X obj 282 645 tgl 15 0 empty empty empty 17 7 0 10 -260097 -1 -1 0
1;
#X obj 282 625 tgl 15 0 empty empty empty 17 7 0 10 -260097 -1 -1 0
1;
#X obj 282 605 tgl 15 0 empty empty empty 17 7 0 10 -260097 -1 -1 0
1;
#X obj 282 585 tgl 15 0 empty empty empty 17 7 0 10 -260097 -1 -1 0
1;
#X obj 282 565 tgl 15 0 empty empty empty 17 7 0 10 -260097 -1 -1 1
1;
#X obj 282 545 tgl 15 0 empty empty empty 17 7 0 10 -260097 -1 -1 0
1;
#X obj 282 345 tgl 15 0 empty empty empty 17 7 0 10 -260097 -1 -1 0
1;
#X obj 282 669 tgl 15 0 empty empty empty 17 7 0 10 -258113 -262144
-1 0 1;
#X obj 320 -174 OSCroute /1 /2 /3 /4 /5 /6 /7 /8 /9 /10 /11 /12 /13
/14 /15 /16;
#X obj 599 -136 OSCroute /1;
#X obj 587 -116 OSCroute /1;
#X obj 574 -97 OSCroute /1;
#X obj 563 -77 OSCroute /1;
#X obj 555 -58 OSCroute /1;
#X obj 542 -39 OSCroute /1;
#X obj 519 -19 OSCroute /1;
#X obj 498 1 OSCroute /1;
#X obj 481 21 OSCroute /1;
#X obj 429 62 OSCroute /1;
#X obj 320 169 OSCroute /1;
#X obj 407 82 OSCroute /1;
#X obj 385 106 OSCroute /1;
#X obj 341 148 OSCroute /1;
#X obj 363 126 OSCroute /1;
#X obj 451 41 OSCroute /1;
#X obj 302 525 tgl 15 0 empty empty empty 17 7 0 10 -260097 -1 -1 1
1;
#X obj 302 505 tgl 15 0 empty empty empty 17 7 0 10 -260097 -1 -1 1
1;
#X obj 302 365 tgl 15 0 empty empty empty 17 7 0 10 -260097 -1 -1 0
1;
#X obj 302 485 tgl 15 0 empty empty empty 17 7 0 10 -260097 -1 -1 0
1;
#X obj 302 465 tgl 15 0 empty empty empty 17 7 0 10 -260097 -1 -1 0
1;
#X obj 302 445 tgl 15 0 empty empty empty 17 7 0 10 -260097 -1 -1 1
1;
#X obj 302 425 tgl 15 0 empty empty empty 17 7 0 10 -260097 -1 -1 0
1;
#X obj 302 405 tgl 15 0 empty empty empty 17 7 0 10 -260097 -1 -1 1
1;
#X obj 302 385 tgl 15 0 empty empty empty 17 7 0 10 -260097 -1 -1 0
1;
#X obj 302 645 tgl 15 0 empty empty empty 17 7 0 10 -260097 -1 -1 0
1;
#X obj 302 625 tgl 15 0 empty empty empty 17 7 0 10 -260097 -1 -1 0
1;
#X obj 302 605 tgl 15 0 empty empty empty 17 7 0 10 -260097 -1 -1 0
1;
#X obj 302 585 tgl 15 0 empty empty empty 17 7 0 10 -260097 -1 -1 0
1;
#X obj 302 565 tgl 15 0 empty empty empty 17 7 0 10 -260097 -1 -1 0
1;
#X obj 302 545 tgl 15 0 empty empty empty 17 7 0 10 -260097 -1 -1 0
1;
#X obj 302 345 tgl 15 0 empty empty empty 17 7 0 10 -260097 -1 -1 0
1;
#X obj 302 669 tgl 15 0 empty empty empty 17 7 0 10 -258113 -262144
-1 0 1;
#X obj 720 -174 OSCroute /1 /2 /3 /4 /5 /6 /7 /8 /9 /10 /11 /12 /13
/14 /15 /16;
#X obj 997 -116 OSCroute /1;
#X obj 984 -97 OSCroute /1;
#X obj 973 -77 OSCroute /1;
#X obj 965 -58 OSCroute /1;
#X obj 942 -39 OSCroute /1;
#X obj 919 -19 OSCroute /1;
#X obj 898 1 OSCroute /1;
#X obj 881 21 OSCroute /1;
#X obj 829 62 OSCroute /1;
#X obj 720 169 OSCroute /1;
#X obj 807 82 OSCroute /1;
#X obj 785 106 OSCroute /1;
#X obj 741 148 OSCroute /1;
#X obj 763 126 OSCroute /1;
#X obj 851 41 OSCroute /1;
#X obj 322 525 tgl 15 0 empty empty empty 17 7 0 10 -260097 -1 -1 0
1;
#X obj 322 505 tgl 15 0 empty empty empty 17 7 0 10 -260097 -1 -1 0
1;
#X obj 322 365 tgl 15 0 empty empty empty 17 7 0 10 -260097 -1 -1 0
1;
#X obj 322 485 tgl 15 0 empty empty empty 17 7 0 10 -260097 -1 -1 1
1;
#X obj 322 465 tgl 15 0 empty empty empty 17 7 0 10 -260097 -1 -1 1
1;
#X obj 322 445 tgl 15 0 empty empty empty 17 7 0 10 -260097 -1 -1 0
1;
#X obj 322 425 tgl 15 0 empty empty empty 17 7 0 10 -260097 -1 -1 1
1;
#X obj 322 405 tgl 15 0 empty empty empty 17 7 0 10 -260097 -1 -1 0
1;
#X obj 322 385 tgl 15 0 empty empty empty 17 7 0 10 -260097 -1 -1 0
1;
#X obj 322 645 tgl 15 0 empty empty empty 17 7 0 10 -260097 -1 -1 0
1;
#X obj 322 625 tgl 15 0 empty empty empty 17 7 0 10 -260097 -1 -1 0
1;
#X obj 322 605 tgl 15 0 empty empty empty 17 7 0 10 -260097 -1 -1 0
1;
#X obj 322 585 tgl 15 0 empty empty empty 17 7 0 10 -260097 -1 -1 0
1;
#X obj 322 565 tgl 15 0 empty empty empty 17 7 0 10 -260097 -1 -1 0
1;
#X obj 322 545 tgl 15 0 empty empty empty 17 7 0 10 -260097 -1 -1 0
1;
#X obj 322 345 tgl 15 0 empty empty empty 17 7 0 10 -260097 -1 -1 0
1;
#X obj 322 669 tgl 15 0 empty empty empty 17 7 0 10 -258113 -262144
-1 0 1;
#X obj 1009 -135 OSCroute /1;
#X obj -513 -1021 OSCroute /multitoggle9 /multitoggle10 /toggle10 /toggle11
;
#X obj -106 -1022 OSCroute /multitoggle11 /multitoggle12 /toggle12
/toggle13;
#X obj 320 -1021 OSCroute /multitoggle13 /multitoggle14 /toggle14 /toggle15
;
#X obj 720 -1021 OSCroute /multitoggle15 /multitoggle16 /toggle16 /toggle17
;
#X obj -513 -611 OSCroute /multitoggle17 /multitoggle18 /toggle18 /toggle19
;
#X obj -106 -612 OSCroute /multitoggle19 /multitoggle20 /toggle20 /toggle21
;
#X obj 320 -611 OSCroute /multitoggle21 /multitoggle22 /toggle22 /toggle23
;
#X obj 720 -611 OSCroute /multitoggle23 /multitoggle24 /toggle24 /toggle25
;
#X obj -513 -201 OSCroute /multitoggle25 /multitoggle26 /toggle26 /toggle27
;
#X obj -106 -202 OSCroute /multitoggle27 /multitoggle28 /toggle28 /toggle29
;
#X obj 320 -201 OSCroute /multitoggle29 /multitoggle30 /toggle30 /toggle31
;
#X obj 720 -201 OSCroute /multitoggle31 /multitoggle32 /toggle32 /toggle33
;
#X obj 343 423 vsl 30 128 0 1 0 0 empty empty empty 0 -9 0 10 -159808
-232576 -1 1407 1;
#X obj 373 423 vsl 30 128 0 1 0 0 empty empty empty 0 -9 0 10 -159808
-232576 -1 3986 1;
#X obj 403 423 vsl 30 128 0 1 0 0 empty empty empty 0 -9 0 10 -159808
-232576 -1 3790 1;
#X obj 345 309 tgl 30 0 empty empty empty 17 7 0 10 -4032 -1 -1 1 1
;
#X obj 343 365 tgl 30 0 empty empty empty 17 7 0 10 -4032 -1 -1 0 1
;
#X obj 373 365 tgl 30 0 empty empty empty 17 7 0 10 -4032 -1 -1 0 1
;
#X obj 403 365 tgl 30 0 empty empty empty 17 7 0 10 -4032 -1 -1 0 1
;
#X obj 599 380 OSCroute /multifader1;
#X obj 599 406 OSCroute /1 /2 /3 /4;
#X obj 739 380 OSCroute /multifader2;
#X obj 583 314 OSCroute /toggle1 /push1 /push2 /push3 /push4;
#X obj 581 -1484 print ppp;
#N canvas 0 22 450 300 (subpatch) 0;
#X array syn 100 float 3;
#A 0 1.40979 1.42446 1.43538 1.4425 1.44577 1.44518 1.44071 1.43242
1.42033 1.40451 1.38506 1.36209 0.335713 0.306084 0.273367 0.237742
0.199409 0.158579 0.115479 0.0703469 0.0234335 -0.0249982 -0.0746793
-0.125334 -0.176681 -0.228435 -0.280309 -0.332014 -0.383264 -0.433774
-0.483264 -0.531458 -0.57809 -0.622895 -0.665629 -0.706054 -0.743946
-0.779093 -0.811302 -0.840394 -0.866206 -0.888595 -0.907437 -0.922628
-0.934083 -0.941738 -0.945546 -0.945488 -0.941567 -0.933805 -0.922244
-0.90695 -0.888007 -0.86552 -0.839614 -0.810433 -0.778139 -0.742911
-0.704946 -0.664451 -0.621651 -0.576788 -0.530109 -0.481875 -0.432354
-0.381819 -0.330552 -0.278838 -0.226964 -0.175217 -0.123886 -0.073254
-0.0236037 0.0247867 0.0716502 0.116727 0.159766 0.200529 0.23879 0.274336
0.306969 0.336509 0.362791 1.38567 1.40502 1.42073 1.43271 1.44089
1.44524 1.44572 1.44235 1.43512 1.42409 1.40932 1.39088 0.36889 0.343457
0.314728 0.282862 0.248034;
#X coords 0 1 100 -1 200 140 1;
#X restore 92 440 graph;
#X obj 1105 786 mtof;
#X obj 1225 786 mtof;
#X obj 1226 911 tabwrite~ syn;
#X obj 1226 886 metro 100;
#X obj 1226 861 tgl 15 0 empty empty empty 17 7 0 10 -262144 -1 -1
1 1;
#X obj 1225 821 phasor~;
#X obj 649 521 tgl 15 0 empty empty empty 17 7 0 10 -262144 -1 -1 1
1;
#X obj 676 521 nbx 5 14 -1e+37 1e+37 0 0 empty empty empty 0 -8 0 10
-262144 -1 -1 221.575 256;
#X obj 650 632 hradio 16 1 0 16 empty empty empty 0 -8 0 10 -262144
-1 -1 2;
#X obj 626 757 vsl 15 128 0 127 0 0 empty empty empty 0 -9 0 10 -262144
-1 -1 5600 1;
#X msg 1173 830 0;
#X obj 1188 807 bng 15 250 50 0 empty empty empty 17 7 0 10 -262144
-1 -1;
#X obj 1171 578 tgl 15 0 empty empty empty 17 7 0 10 -262144 -1 -1
0 1;
#X obj 1222 578 nbx 5 14 -1e+37 1e+37 0 0 empty empty empty 0 -8 0
10 -262144 -1 -1 0 256;
#X obj 1105 880 -~ 0.25;
#X obj 650 880 f;
#X obj 666 905 f;
#X obj 698 961 f;
#X obj 729 1013 f;
#X obj 761 1061 f;
#X obj 1105 940 dac~;
#X obj 1242 844 loadbang;
#X obj 960 703 delay 1000;
#X obj 944 596 hsl 128 15 0 1000 0 0 empty empty empty -2 -8 0 10 -262144
-1 -1 4152 1;
#X obj 682 935 f;
#X obj 714 986 f;
#X obj 746 1034 f;
#X obj 1224 761 hsl 128 15 0 256 0 0 empty empty empty -2 -8 0 10 -262144
-1 -1 298 1;
#X obj 932 680 s \$0-twobang;
#X obj 1223 680 r \$0-twobang;
#X obj 649 546 metro 120;
#X obj 1171 609 metro 160;
#X obj 945 646 hsl 128 15 0 10000 0 0 empty empty empty -2 -8 0 10
-262144 -1 -1 3790 1;
#X obj 1151 782 pipe 10;
#X obj 1105 853 expr~ $v1 > $v2;
#X obj 647 1060 s \$1-main-pitch;
#X obj 1105 756 r \$1-main-pitch;
#X obj 1261 623 spigot;
#X obj 1306 624 tgl 15 0 empty empty empty 17 7 0 10 -262144 -1 -1
1 1;
#X obj 1043 541 phasor~;
#X obj 1119 577 mtof;
#X obj 1122 552 hsl 128 15 0 256 0 0 empty empty empty -2 -8 0 10 -262144
-1 -1 1250 1;
#X obj 1080 602 *~;
#X msg 335 738 0;
#X msg 307 738 8;
#X msg 279 738 16;
#X msg 250 738 24;
#X msg 221 738 32;
#X msg 192 738 40;
#X msg 163 738 48;
#X msg 133 737 56;
#X msg 106 738 64;
#X msg 77 737 72;
#X msg 47 736 80;
#X msg 17 736 88;
#X msg -11 736 96;
#X msg -40 736 104;
#X msg -69 736 112;
#X msg -99 736 127;
#X obj 611 781 vsl 15 128 0 127 0 0 empty empty empty 0 -9 0 10 -262144
-1 -1 7200 1;
#X msg 336 762 0;
#X msg 306 762 8;
#X msg 277 762 16;
#X msg 248 761 24;
#X msg 220 761 32;
#X msg 192 760 40;
#X msg 165 759 48;
#X msg 136 759 56;
#X msg 107 759 64;
#X msg 77 759 72;
#X msg 49 758 80;
#X msg 20 758 88;
#X msg -10 758 96;
#X msg -39 758 104;
#X msg -68 758 112;
#X msg -96 759 127;
#X obj 596 800 vsl 15 128 0 127 0 0 empty empty empty 0 -9 0 10 -262144
-1 -1 4000 1;
#X msg 221 780 32;
#X msg 192 780 40;
#X msg 163 780 48;
#X msg 134 780 56;
#X msg 105 781 64;
#X msg 75 782 72;
#X msg 47 782 80;
#X msg 17 782 88;
#X msg -11 782 96;
#X msg -39 782 104;
#X msg -67 782 112;
#X msg -96 782 127;
#X msg 1135 625 0;
#X msg 336 782 0;
#X msg 306 782 8;
#X msg 277 782 16;
#X msg 248 781 24;
#X obj 581 825 vsl 15 128 0 127 0 0 empty empty empty 0 -9 0 10 -262144
-1 -1 4000 1;
#X msg 220 804 32;
#X msg 191 804 40;
#X msg 162 804 48;
#X msg 133 804 56;
#X msg 104 805 64;
#X msg 74 806 72;
#X msg 46 806 80;
#X msg 16 806 88;
#X msg -12 806 96;
#X msg -40 806 104;
#X msg -68 806 112;
#X msg -97 806 127;
#X msg 335 806 0;
#X msg 305 806 8;
#X msg 276 806 16;
#X msg 247 805 24;
#X obj 852 479 autoscale 0 1000;
#X obj 905 520 autoscale 0 10000;
#X obj 434 365 bng 30 250 50 0 empty empty empty 17 7 0 10 -262144
-1 -1;
#X obj 343 593 vsl 30 128 0 1 0 0 empty empty empty 0 -9 0 10 -4032
-232576 -1 4100 1;
#X obj 373 593 vsl 30 128 0 1 0 0 empty empty empty 0 -9 0 10 -4032
-232576 -1 8500 1;
#X obj 403 593 vsl 30 128 0 1 0 0 empty empty empty 0 -9 0 10 -4032
-232576 -1 1250 1;
#X obj 433 593 vsl 30 128 0 1 0 0 empty empty empty 0 -9 0 10 -4032
-232576 -1 2032 1;
#X obj 739 406 OSCroute /1 /2 /3 /4;
#X obj 720 -1431 OSCroute /multitoggle7 /multitoggle8 /toggle8 /toggle9
;
#X obj 42 689 tgl 15 0 empty empty empty 17 7 0 10 -258113 -262144
-1 1 1;
#X obj 22 689 tgl 15 0 empty empty empty 17 7 0 10 -258113 -262144
-1 1 1;
#X obj 82 689 tgl 15 0 empty empty empty 17 7 0 10 -258113 -262144
-1 0 1;
#X obj 102 689 tgl 15 0 empty empty empty 17 7 0 10 -258113 -262144
-1 0 1;
#X obj 122 689 tgl 15 0 empty empty empty 17 7 0 10 -258113 -262144
-1 0 1;
#X obj 142 689 tgl 15 0 empty empty empty 17 7 0 10 -258113 -262144
-1 0 1;
#X obj 162 689 tgl 15 0 empty empty empty 17 7 0 10 -258113 -262144
-1 1 1;
#X obj 221 689 tgl 15 0 empty empty empty 17 7 0 10 -258113 -262144
-1 0 1;
#X obj 202 689 tgl 15 0 empty empty empty 17 7 0 10 -258113 -262144
-1 0 1;
#X obj 182 689 tgl 15 0 empty empty empty 17 7 0 10 -258113 -262144
-1 0 1;
#X obj 241 689 tgl 15 0 empty empty empty 17 7 0 10 -258113 -262144
-1 0 1;
#X obj 262 689 tgl 15 0 empty empty empty 17 7 0 10 -258113 -262144
-1 0 1;
#X obj 281 689 tgl 15 0 empty empty empty 17 7 0 10 -258113 -262144
-1 0 1;
#X obj 301 689 tgl 15 0 empty empty empty 17 7 0 10 -258113 -262144
-1 0 1;
#X obj 322 689 tgl 15 0 empty empty empty 17 7 0 10 -258113 -262144
-1 0 1;
#X obj 43 320 bng 15 250 50 0 empty empty empty 17 7 0 10 -262144 -1
-1;
#X obj 63 320 bng 15 250 50 0 empty empty empty 17 7 0 10 -262144 -1
-1;
#X obj 83 320 bng 15 250 50 0 empty empty empty 17 7 0 10 -262144 -1
-1;
#X obj 103 320 bng 15 250 50 0 empty empty empty 17 7 0 10 -262144
-1 -1;
#X obj 123 320 bng 15 250 50 0 empty empty empty 17 7 0 10 -262144
-1 -1;
#X obj 143 320 bng 15 250 50 0 empty empty empty 17 7 0 10 -262144
-1 -1;
#X obj 163 320 bng 15 250 50 0 empty empty empty 17 7 0 10 -262144
-1 -1;
#X obj 183 320 bng 15 250 50 0 empty empty empty 17 7 0 10 -262144
-1 -1;
#X obj 203 320 bng 15 250 50 0 empty empty empty 17 7 0 10 -262144
-1 -1;
#X obj 223 320 bng 15 250 50 0 empty empty empty 17 7 0 10 -262144
-1 -1;
#X obj 243 320 bng 15 250 50 0 empty empty empty 17 7 0 10 -262144
-1 -1;
#X obj 263 320 bng 15 250 50 0 empty empty empty 17 7 0 10 -262144
-1 -1;
#X obj 283 320 bng 15 250 50 0 empty empty empty 17 7 0 10 -262144
-1 -1;
#X obj 303 320 bng 15 250 50 0 empty empty empty 17 7 0 10 -262144
-1 -1;
#X obj 323 320 bng 15 250 50 0 empty empty empty 17 7 0 10 -262144
-1 -1;
#X obj 22 709 bng 15 250 50 0 empty empty empty 17 7 0 10 -262144 -1
-1;
#X obj 42 709 bng 15 250 50 0 empty empty empty 17 7 0 10 -262144 -1
-1;
#X obj 62 709 bng 15 250 50 0 empty empty empty 17 7 0 10 -262144 -1
-1;
#X obj 82 709 bng 15 250 50 0 empty empty empty 17 7 0 10 -262144 -1
-1;
#X obj 102 709 bng 15 250 50 0 empty empty empty 17 7 0 10 -262144
-1 -1;
#X obj 122 709 bng 15 250 50 0 empty empty empty 17 7 0 10 -262144
-1 -1;
#X obj 142 709 bng 15 250 50 0 empty empty empty 17 7 0 10 -262144
-1 -1;
#X obj 162 709 bng 15 250 50 0 empty empty empty 17 7 0 10 -262144
-1 -1;
#X obj 182 709 bng 15 250 50 0 empty empty empty 17 7 0 10 -262144
-1 -1;
#X obj 202 709 bng 15 250 50 0 empty empty empty 17 7 0 10 -262144
-1 -1;
#X obj 222 709 bng 15 250 50 0 empty empty empty 17 7 0 10 -262144
-1 -1;
#X obj 242 709 bng 15 250 50 0 empty empty empty 17 7 0 10 -262144
-1 -1;
#X obj 262 709 bng 15 250 50 0 empty empty empty 17 7 0 10 -262144
-1 -1;
#X obj 282 709 bng 15 250 50 0 empty empty empty 17 7 0 10 -262144
-1 -1;
#X obj 302 709 bng 15 250 50 0 empty empty empty 17 7 0 10 -262144
-1 -1;
#X obj 322 709 bng 15 250 50 0 empty empty empty 17 7 0 10 -262144
-1 -1;
#X obj 889 379 OSCroute /multitoggleDIR;
#X obj 1042 378 OSCroute /multitoggle0;
#X obj 424 310 tgl 15 0 empty empty empty 17 7 0 10 -262144 -1 -1 0
1;
#X obj 424 325 tgl 15 0 empty empty empty 17 7 0 10 -262144 -1 -1 0
1;
#X obj 424 340 tgl 15 0 empty empty empty 17 7 0 10 -262144 -1 -1 1
1;
#X obj 889 427 OSCroute /1;
#X obj 889 404 OSCroute /1 /2 /3;
#X obj 899 437 OSCroute /1;
#X obj 909 447 OSCroute /1;
#X obj 1041 425 OSCroute /1;
#X obj 1051 435 OSCroute /1;
#X obj 1061 445 OSCroute /1;
#X obj 1041 402 OSCroute /1 /2 /3 /4 /5 /6 /7 /8;
#X obj 1071 455 OSCroute /1;
#X obj 1081 465 OSCroute /1;
#X obj 1091 475 OSCroute /1;
#X obj 1101 485 OSCroute /1;
#X obj 1111 495 OSCroute /1;
#X obj 443 528 tgl 15 0 empty empty empty 17 7 0 10 -262144 -1 -1 0
1;
#X obj 443 513 tgl 15 0 empty empty empty 17 7 0 10 -262144 -1 -1 0
1;
#X obj 443 498 tgl 15 0 empty empty empty 17 7 0 10 -262144 -1 -1 0
1;
#X obj 443 483 tgl 15 0 empty empty empty 17 7 0 10 -262144 -1 -1 0
1;
#X obj 443 468 tgl 15 0 empty empty empty 17 7 0 10 -262144 -1 -1 1
1;
#X obj 443 453 tgl 15 0 empty empty empty 17 7 0 10 -262144 -1 -1 1
1;
#X obj 443 437 tgl 15 0 empty empty empty 17 7 0 10 -262144 -1 -1 1
1;
#X obj 443 422 tgl 15 0 empty empty empty 17 7 0 10 -262144 -1 -1 0
1;
#X floatatom 737 565 5 0 0 0 - - -;
#X floatatom 745 582 5 0 0 0 - - -;
#X floatatom 752 602 5 0 0 0 - - -;
#X msg 578 552 up;
#X msg 578 594 down;
#X msg 578 573 updown;
#X obj 650 606 counter;
#X text 790 600 set max;
#X text 785 579 set counter value;
#X obj 680 584 loadbang;
#X text 576 533 DIR:;
#X text 777 562 set min;
#X obj 865 601 nbx 5 14 -1e+37 1e+37 0 0 empty empty empty 0 -8 0 10
-262144 -1 -1 2 256;
#X msg 720 603 7;
#X msg 703 567 0;
#X msg 751 439 0;
#X msg 751 452 1;
#X msg 751 468 2;
#X msg 751 483 3;
#X obj 746 825 t b b b b;
#X obj 764 847 t b b b b;
#X obj 770 875 t b b b b;
#X obj 786 900 t b b b b;
#X obj 802 923 t b b b b;
#X obj 818 947 t b b b b;
#X obj 834 971 t b b b b;
#X obj 850 995 t b b b b;
#X obj 866 1015 t b b b b;
#X obj 884 1037 t b b b b;
#X obj 650 658 select 0 1 2 3 4 5 6 7 8 9 10 11 12 13 14 15;
#X msg 751 543 15;
#X msg 752 527 13;
#X msg 751 512 11;
#X msg 751 498 9;
#X obj 666 710 t b b b b;
#X obj 682 733 t b b b b;
#X obj 698 757 t b b b b;
#X obj 714 781 t b b b b;
#X obj 730 805 t b b b b;
#X obj 770 1090 f;
#X obj 786 1115 f;
#X obj 818 1171 f;
#X obj 849 1223 f;
#X obj 881 1271 f;
#X obj 802 1145 f;
#X obj 834 1196 f;
#X obj 866 1244 f;
#X obj -424 624 OSCroute /multipush1;
#X obj -424 646 OSCroute /1;
#X obj -424 675 OSCroute /1 /2 /3 /4 /5 /6 /7 /8 /9 /10 /11 /12 /13
/14 /15 /16;
#X text 434 395 RESET;
#X text 349 338 I/O;
#X obj 566 848 vsl 15 128 0 127 0 0 empty empty empty 0 -9 0 10 -262144
-1 -1 4800 1;
#X msg 220 827 32;
#X msg 191 827 40;
#X msg 162 827 48;
#X msg 133 827 56;
#X msg 104 828 64;
#X msg 74 829 72;
#X msg 46 829 80;
#X msg 16 829 88;
#X msg -12 829 96;
#X msg -40 829 104;
#X msg -68 829 112;
#X msg -97 829 127;
#X msg 335 829 0;
#X msg 305 829 8;
#X msg 276 829 16;
#X msg 247 828 24;
#X obj 551 873 vsl 15 128 0 127 0 0 empty empty empty 0 -9 0 10 -262144
-1 -1 7200 1;
#X msg 224 850 32;
#X msg 195 850 40;
#X msg 166 850 48;
#X msg 137 850 56;
#X msg 108 851 64;
#X msg 78 852 72;
#X msg 50 852 80;
#X msg 20 852 88;
#X msg -8 852 96;
#X msg -36 852 104;
#X msg -64 852 112;
#X msg -93 852 127;
#X msg 339 852 0;
#X msg 309 852 8;
#X msg 280 852 16;
#X msg 251 851 24;
#X obj 536 895 vsl 15 128 0 127 0 0 empty empty empty 0 -9 0 10 -262144
-1 -1 5600 1;
#X msg 223 875 32;
#X msg 194 875 40;
#X msg 165 875 48;
#X msg 136 875 56;
#X msg 107 876 64;
#X msg 77 877 72;
#X msg 49 877 80;
#X msg 19 877 88;
#X msg -9 877 96;
#X msg -37 877 104;
#X msg -65 877 112;
#X msg -94 877 127;
#X msg 338 877 0;
#X msg 308 877 8;
#X msg 279 877 16;
#X msg 250 876 24;
#X obj 521 917 vsl 15 128 0 127 0 0 empty empty empty 0 -9 0 10 -262144
-1 -1 6400 1;
#X msg 224 898 32;
#X msg 195 898 40;
#X msg 166 898 48;
#X msg 137 898 56;
#X msg 108 899 64;
#X msg 78 900 72;
#X msg 50 900 80;
#X msg 20 900 88;
#X msg -8 900 96;
#X msg -36 900 104;
#X msg -64 900 112;
#X msg -93 900 127;
#X msg 339 900 0;
#X msg 309 900 8;
#X msg 280 900 16;
#X msg 251 899 24;
#X obj 506 940 vsl 15 128 0 127 0 0 empty empty empty 0 -9 0 10 -262144
-1 -1 4000 1;
#X msg 225 920 32;
#X msg 196 920 40;
#X msg 167 920 48;
#X msg 138 920 56;
#X msg 109 921 64;
#X msg 79 922 72;
#X msg 51 922 80;
#X msg 21 922 88;
#X msg -7 922 96;
#X msg -35 922 104;
#X msg -63 922 112;
#X msg -92 922 127;
#X msg 340 922 0;
#X msg 310 922 8;
#X msg 281 922 16;
#X msg 252 921 24;
#X obj 491 965 vsl 15 128 0 127 0 0 empty empty empty 0 -9 0 10 -262144
-1 -1 3200 1;
#X msg 226 941 32;
#X msg 197 941 40;
#X msg 168 941 48;
#X msg 139 941 56;
#X msg 110 942 64;
#X msg 80 943 72;
#X msg 52 943 80;
#X msg 22 943 88;
#X msg -6 943 96;
#X msg -34 943 104;
#X msg -62 943 112;
#X msg -91 943 127;
#X msg 341 943 0;
#X msg 311 943 8;
#X msg 282 943 16;
#X msg 253 942 24;
#X obj 476 986 vsl 15 128 0 127 0 0 empty empty empty 0 -9 0 10 -262144
-1 -1 5600 1;
#X msg 226 965 32;
#X msg 197 965 40;
#X msg 168 965 48;
#X msg 139 965 56;
#X msg 110 966 64;
#X msg 80 967 72;
#X msg 52 967 80;
#X msg 22 967 88;
#X msg -6 967 96;
#X msg -34 967 104;
#X msg -62 967 112;
#X msg -91 967 127;
#X msg 341 967 0;
#X msg 311 967 8;
#X msg 282 967 16;
#X msg 253 966 24;
#X obj 461 1006 vsl 15 128 0 127 0 0 empty empty empty 0 -9 0 10 -262144
-1 -1 7200 1;
#X msg 226 987 32;
#X msg 197 987 40;
#X msg 168 987 48;
#X msg 139 987 56;
#X msg 110 988 64;
#X msg 80 989 72;
#X msg 52 989 80;
#X msg 22 989 88;
#X msg -6 989 96;
#X msg -34 989 104;
#X msg -62 989 112;
#X msg -91 989 127;
#X msg 341 989 0;
#X msg 311 989 8;
#X msg 282 989 16;
#X msg 253 988 24;
#X obj 446 1031 vsl 15 128 0 127 0 0 empty empty empty 0 -9 0 10 -262144
-1 -1 5600 1;
#X msg 228 1009 32;
#X msg 199 1009 40;
#X msg 170 1009 48;
#X msg 141 1009 56;
#X msg 112 1010 64;
#X msg 82 1011 72;
#X msg 54 1011 80;
#X msg 24 1011 88;
#X msg -4 1011 96;
#X msg -32 1011 104;
#X msg -60 1011 112;
#X msg -89 1011 127;
#X msg 343 1011 0;
#X msg 313 1011 8;
#X msg 284 1011 16;
#X msg 255 1010 24;
#X obj 431 1052 vsl 15 128 0 127 0 0 empty empty empty 0 -9 0 10 -262144
-1 -1 10400 1;
#X msg 228 1031 32;
#X msg 199 1031 40;
#X msg 170 1031 48;
#X msg 141 1031 56;
#X msg 112 1032 64;
#X msg 82 1033 72;
#X msg 54 1033 80;
#X msg 24 1033 88;
#X msg -4 1033 96;
#X msg -32 1033 104;
#X msg -60 1033 112;
#X msg -89 1033 127;
#X msg 343 1033 0;
#X msg 313 1033 8;
#X msg 284 1033 16;
#X msg 255 1032 24;
#X obj 416 1076 vsl 15 128 0 127 0 0 empty empty empty 0 -9 0 10 -262144
-1 -1 9600 1;
#X msg 227 1055 32;
#X msg 198 1055 40;
#X msg 169 1055 48;
#X msg 140 1055 56;
#X msg 111 1056 64;
#X msg 81 1057 72;
#X msg 53 1057 80;
#X msg 23 1057 88;
#X msg -5 1057 96;
#X msg -33 1057 104;
#X msg -61 1057 112;
#X msg -90 1057 127;
#X msg 342 1057 0;
#X msg 312 1057 8;
#X msg 283 1057 16;
#X msg 254 1056 24;
#X obj 401 1099 vsl 15 128 0 127 0 0 empty empty empty 0 -9 0 10 -262144
-1 -1 6400 1;
#X msg 226 1077 32;
#X msg 197 1077 40;
#X msg 168 1077 48;
#X msg 139 1077 56;
#X msg 110 1078 64;
#X msg 80 1079 72;
#X msg 52 1079 80;
#X msg 22 1079 88;
#X msg -6 1079 96;
#X msg -34 1079 104;
#X msg -62 1079 112;
#X msg -91 1079 127;
#X msg 341 1079 0;
#X msg 311 1079 8;
#X msg 282 1079 16;
#X msg 253 1078 24;
#X text 345 555 TMP;
#X text 376 554 DLY;
#X text 404 554 PIPE;
#X text 406 395 PIPE;
#X text 377 395 MTR2;
#X text 441 308 UP;
#X text 441 339 DWN;
#X text 441 323 BNCE;
#X text 462 419 1;
#X text 462 436 2;
#X text 462 452 3;
#X text 462 467 4;
#X text 462 482 10;
#X text 462 497 12;
#X text 462 512 14;
#X text 462 528 16;
#X text 405 575 PHZ1;
#X text 435 575 PHZ2;
#X obj 1120 525 autoscale 0 256;
#X obj 1248 738 autoscale 0 256;
#X obj 642 456 autoscale 0 2000;
#X obj -320 818 udpsend;
#X msg -327 791 disconnect;
#X obj -320 853 tgl 15 0 empty empty 1=connected 20 8 0 8 -4034 -257985
-1 1 1;
#X obj 650 685 t b b b b;
#X obj 22 319 bng 15 250 50 0 empty empty empty 17 7 0 10 -262144 -1
-1;
#X obj -670 592 packOSC;
#X msg -698 250 /1/led1 1;
#X obj -697 274 delay 500;
#X obj -627 274 delay 500;
#X obj -557 274 delay 500;
#X obj -487 274 delay 500;
#X msg -628 250 /1/led2 1;
#X msg -627 301 /1/led2 0;
#X msg -488 250 /1/led4 1;
#X msg -487 301 /1/led4 0;
#X msg -557 301 /1/led3 0;
#X msg -558 250 /1/led3 1;
#X obj -697 354 delay 500;
#X obj -627 354 delay 500;
#X obj -557 354 delay 500;
#X obj -487 354 delay 500;
#X obj -697 434 delay 500;
#X obj -627 434 delay 500;
#X obj -557 434 delay 500;
#X obj -487 434 delay 500;
#X obj -697 514 delay 500;
#X obj -627 514 delay 500;
#X obj -557 514 delay 500;
#X obj -487 514 delay 500;
#X msg -697 301 /1/led1 0;
#X msg -698 330 /1/led5 1;
#X msg -697 381 /1/led5 0;
#X msg -627 381 /1/led6 0;
#X msg -628 330 /1/led6 1;
#X msg -558 330 /1/led7 1;
#X msg -557 381 /1/led7 0;
#X msg -488 330 /1/led8 1;
#X msg -487 381 /1/led8 0;
#X msg -698 410 /1/led9 1;
#X msg -697 461 /1/led9 0;
#X msg -628 410 /1/led10 1;
#X msg -627 461 /1/led10 0;
#X msg -558 410 /1/led11 1;
#X msg -557 461 /1/led11 0;
#X msg -488 410 /1/led12 1;
#X msg -487 461 /1/led12 0;
#X msg -698 490 /1/led13 1;
#X msg -697 541 /1/led13 0;
#X msg -628 490 /1/led14 1;
#X msg -627 541 /1/led14 0;
#X msg -558 490 /1/led15 1;
#X msg -557 541 /1/led15 0;
#X msg -488 490 /1/led16 1;
#X msg -487 541 /1/led16 0;
#X obj -293 381 f;
#X obj 1263 506 spigot;
#X obj 1308 507 tgl 15 0 empty empty empty 17 7 0 10 -262144 -1 -1
0 1;
#X obj 1244 710 - 50;
#X obj 1105 821 osc~;
#X obj 1324 689 spigot;
#X obj 1330 649 tgl 15 0 empty empty empty 17 7 0 10 -262144 -1 -1
1 1;
#X obj 1002 831 autoscale 0 127;
#X obj 1029 865 mtof;
#X obj 1049 318 OSCroute /toggle2 /toggle3 /toggle4 /toggle5;
#X obj 1015 942 spigot~;
#X obj 1003 902 tgl 15 0 empty empty empty 17 7 0 10 -262144 -1 -1
1 1;
#X text 344 574 FREQ;
#X text 382 574 Q;
#X msg -349 769 connect 172.20.10.4 9000;
#X obj 1000 1041 svf~;
#X obj 977 969 moog~;
#X obj 1154 1144 moog~;
#X floatatom 1194 1097 5 0 0 0 - - -;
#X floatatom 1151 1038 5 0 0 0 - - -;
#X msg 1150 1097 reset;
#X obj 1084 1039 +~ 1;
#X floatatom 1084 997 5 0 0 0 - - -;
#X floatatom 1148 1062 5 0 0 0 - - -;
#X obj 1084 1080 +~ 100;
#X obj 1084 1018 osc~ 0.25;
#X obj 1084 1059 *~ 2000;
#X obj 1194 1116 sig~ 3;
#X text 1240 1097 Q (1-4);
#X text 1029 980 resonance freq modulation;
#X obj 1211 1061 autoscale 1 4;
#X connect 0 0 3 0;
#X connect 0 0 70 0;
#X connect 0 0 106 0;
#X connect 0 0 549 0;
#X connect 0 0 550 0;
#X connect 0 0 551 0;
#X connect 0 0 552 0;
#X connect 0 0 553 0;
#X connect 0 0 554 0;
#X connect 0 0 555 0;
#X connect 0 0 556 0;
#X connect 0 0 557 0;
#X connect 0 0 558 0;
#X connect 0 0 559 0;
#X connect 0 0 560 0;
#X connect 0 0 568 0;
#X connect 0 0 570 0;
#X connect 0 0 571 0;
#X connect 0 0 693 0;
#X connect 0 0 740 0;
#X connect 0 0 741 0;
#X connect 0 0 813 0;
#X connect 0 0 1106 0;
#X connect 1 0 14 0;
#X connect 1 1 17 0;
#X connect 1 2 18 0;
#X connect 1 3 16 0;
#X connect 1 4 15 0;
#X connect 1 5 13 0;
#X connect 1 6 19 0;
#X connect 1 7 12 0;
#X connect 1 8 11 0;
#X connect 1 9 10 0;
#X connect 1 10 9 0;
#X connect 1 11 8 0;
#X connect 1 12 7 0;
#X connect 1 13 6 0;
#X connect 1 14 5 0;
#X connect 1 15 4 0;
#X connect 3 0 1 0;
#X connect 3 2 2 0;
#X connect 3 3 695 0;
#X connect 4 0 35 0;
#X connect 5 0 22 0;
#X connect 6 0 28 0;
#X connect 7 0 27 0;
#X connect 8 0 26 0;
#X connect 9 0 25 0;
#X connect 10 0 24 0;
#X connect 11 0 23 0;
#X connect 12 0 21 0;
#X connect 13 0 34 0;
#X connect 14 0 29 0;
#X connect 15 0 33 0;
#X connect 16 0 32 0;
#X connect 17 0 30 0;
#X connect 18 0 31 0;
#X connect 19 0 20 0;
#X connect 20 0 623 0;
#X connect 21 0 624 0;
#X connect 22 0 631 0;
#X connect 23 0 625 0;
#X connect 24 0 626 0;
#X connect 25 0 627 0;
#X connect 26 0 628 0;
#X connect 27 0 629 0;
#X connect 28 0 630 0;
#X connect 29 0 617 0;
#X connect 30 0 618 0;
#X connect 31 0 619 0;
#X connect 32 0 620 0;
#X connect 33 0 621 0;
#X connect 34 0 622 0;
#X connect 35 0 632 0;
#X connect 36 0 47 0;
#X connect 36 1 50 0;
#X connect 36 2 51 0;
#X connect 36 3 49 0;
#X connect 36 4 48 0;
#X connect 36 5 46 0;
#X connect 36 6 52 0;
#X connect 36 7 45 0;
#X connect 36 8 44 0;
#X connect 36 9 43 0;
#X connect 36 10 42 0;
#X connect 36 11 41 0;
#X connect 36 12 40 0;
#X connect 36 13 39 0;
#X connect 36 14 38 0;
#X connect 36 15 37 0;
#X connect 37 0 68 0;
#X connect 38 0 55 0;
#X connect 39 0 61 0;
#X connect 40 0 60 0;
#X connect 41 0 59 0;
#X connect 42 0 58 0;
#X connect 43 0 57 0;
#X connect 44 0 56 0;
#X connect 45 0 54 0;
#X connect 46 0 67 0;
#X connect 47 0 62 0;
#X connect 48 0 66 0;
#X connect 49 0 65 0;
#X connect 50 0 63 0;
#X connect 51 0 64 0;
#X connect 52 0 53 0;
#X connect 53 0 640 0;
#X connect 54 0 641 0;
#X connect 55 0 648 0;
#X connect 56 0 642 0;
#X connect 57 0 643 0;
#X connect 58 0 644 0;
#X connect 59 0 645 0;
#X connect 60 0 646 0;
#X connect 61 0 647 0;
#X connect 62 0 634 0;
#X connect 63 0 635 0;
#X connect 64 0 636 0;
#X connect 65 0 637 0;
#X connect 66 0 638 0;
#X connect 67 0 639 0;
#X connect 68 0 649 0;
#X connect 70 0 36 0;
#X connect 70 2 69 0;
#X connect 70 3 694 0;
#X connect 71 0 82 0;
#X connect 71 1 85 0;
#X connect 71 2 86 0;
#X connect 71 3 84 0;
#X connect 71 4 83 0;
#X connect 71 5 81 0;
#X connect 71 6 87 0;
#X connect 71 7 80 0;
#X connect 71 8 79 0;
#X connect 71 9 78 0;
#X connect 71 10 77 0;
#X connect 71 11 76 0;
#X connect 71 12 75 0;
#X connect 71 13 74 0;
#X connect 71 14 73 0;
#X connect 71 15 72 0;
#X connect 72 0 103 0;
#X connect 73 0 90 0;
#X connect 74 0 96 0;
#X connect 75 0 95 0;
#X connect 76 0 94 0;
#X connect 77 0 93 0;
#X connect 78 0 92 0;
#X connect 79 0 91 0;
#X connect 80 0 89 0;
#X connect 81 0 102 0;
#X connect 82 0 97 0;
#X connect 83 0 101 0;
#X connect 84 0 100 0;
#X connect 85 0 98 0;
#X connect 86 0 99 0;
#X connect 87 0 88 0;
#X connect 88 0 653 0;
#X connect 89 0 654 0;
#X connect 90 0 661 0;
#X connect 91 0 655 0;
#X connect 92 0 656 0;
#X connect 93 0 657 0;
#X connect 94 0 658 0;
#X connect 95 0 659 0;
#X connect 96 0 660 0;
#X connect 97 0 664 0;
#X connect 98 0 665 0;
#X connect 99 0 666 0;
#X connect 100 0 667 0;
#X connect 101 0 651 0;
#X connect 102 0 652 0;
#X connect 103 0 662 0;
#X connect 106 0 71 0;
#X connect 106 2 104 0;
#X connect 106 3 105 0;
#X connect 107 0 117 0;
#X connect 107 1 120 0;
#X connect 107 2 121 0;
#X connect 107 3 119 0;
#X connect 107 4 118 0;
#X connect 107 5 116 0;
#X connect 107 6 122 0;
#X connect 107 7 115 0;
#X connect 107 8 114 0;
#X connect 107 9 113 0;
#X connect 107 10 112 0;
#X connect 107 11 111 0;
#X connect 107 12 110 0;
#X connect 107 13 109 0;
#X connect 107 14 108 0;
#X connect 107 15 140 0;
#X connect 108 0 125 0;
#X connect 109 0 131 0;
#X connect 110 0 130 0;
#X connect 111 0 129 0;
#X connect 112 0 128 0;
#X connect 113 0 127 0;
#X connect 114 0 126 0;
#X connect 115 0 124 0;
#X connect 116 0 137 0;
#X connect 117 0 132 0;
#X connect 118 0 136 0;
#X connect 119 0 135 0;
#X connect 120 0 133 0;
#X connect 121 0 134 0;
#X connect 122 0 123 0;
#X connect 123 0 671 0;
#X connect 124 0 672 0;
#X connect 125 0 679 0;
#X connect 126 0 673 0;
#X connect 127 0 674 0;
#X connect 128 0 675 0;
#X connect 129 0 676 0;
#X connect 130 0 677 0;
#X connect 131 0 678 0;
#X connect 132 0 681 0;
#X connect 133 0 682 0;
#X connect 134 0 683 0;
#X connect 135 0 684 0;
#X connect 136 0 669 0;
#X connect 137 0 670 0;
#X connect 138 0 680 0;
#X connect 140 0 138 0;
#X connect 141 0 153 0;
#X connect 141 1 156 0;
#X connect 141 2 157 0;
#X connect 141 3 155 0;
#X connect 141 4 154 0;
#X connect 141 5 152 0;
#X connect 141 6 158 0;
#X connect 141 7 151 0;
#X connect 141 8 150 0;
#X connect 141 9 149 0;
#X connect 141 10 148 0;
#X connect 141 11 147 0;
#X connect 141 12 146 0;
#X connect 141 13 145 0;
#X connect 141 14 144 0;
#X connect 141 15 143 0;
#X connect 143 0 174 0;
#X connect 144 0 161 0;
#X connect 145 0 167 0;
#X connect 146 0 166 0;
#X connect 147 0 165 0;
#X connect 148 0 164 0;
#X connect 149 0 163 0;
#X connect 150 0 162 0;
#X connect 151 0 160 0;
#X connect 152 0 173 0;
#X connect 153 0 168 0;
#X connect 154 0 172 0;
#X connect 155 0 171 0;
#X connect 156 0 169 0;
#X connect 157 0 170 0;
#X connect 158 0 159 0;
#X connect 159 0 821 0;
#X connect 160 0 822 0;
#X connect 161 0 829 0;
#X connect 162 0 823 0;
#X connect 163 0 824 0;
#X connect 164 0 825 0;
#X connect 165 0 826 0;
#X connect 166 0 827 0;
#X connect 167 0 828 0;
#X connect 168 0 831 0;
#X connect 169 0 832 0;
#X connect 170 0 833 0;
#X connect 171 0 834 0;
#X connect 172 0 819 0;
#X connect 173 0 820 0;
#X connect 174 0 830 0;
#X connect 175 0 186 0;
#X connect 175 1 189 0;
#X connect 175 2 190 0;
#X connect 175 3 188 0;
#X connect 175 4 187 0;
#X connect 175 5 185 0;
#X connect 175 6 191 0;
#X connect 175 7 184 0;
#X connect 175 8 183 0;
#X connect 175 9 182 0;
#X connect 175 10 181 0;
#X connect 175 11 180 0;
#X connect 175 12 179 0;
#X connect 175 13 178 0;
#X connect 175 14 177 0;
#X connect 175 15 176 0;
#X connect 176 0 207 0;
#X connect 177 0 194 0;
#X connect 178 0 200 0;
#X connect 179 0 199 0;
#X connect 180 0 198 0;
#X connect 181 0 197 0;
#X connect 182 0 196 0;
#X connect 183 0 195 0;
#X connect 184 0 193 0;
#X connect 185 0 206 0;
#X connect 186 0 201 0;
#X connect 187 0 205 0;
#X connect 188 0 204 0;
#X connect 189 0 202 0;
#X connect 190 0 203 0;
#X connect 191 0 192 0;
#X connect 192 0 838 0;
#X connect 193 0 839 0;
#X connect 194 0 846 0;
#X connect 195 0 840 0;
#X connect 196 0 841 0;
#X connect 197 0 842 0;
#X connect 198 0 843 0;
#X connect 199 0 844 0;
#X connect 200 0 845 0;
#X connect 201 0 848 0;
#X connect 202 0 849 0;
#X connect 203 0 850 0;
#X connect 204 0 851 0;
#X connect 205 0 836 0;
#X connect 206 0 837 0;
#X connect 207 0 847 0;
#X connect 209 0 220 0;
#X connect 209 1 223 0;
#X connect 209 2 224 0;
#X connect 209 3 222 0;
#X connect 209 4 221 0;
#X connect 209 5 219 0;
#X connect 209 6 225 0;
#X connect 209 7 218 0;
#X connect 209 8 217 0;
#X connect 209 9 216 0;
#X connect 209 10 215 0;
#X connect 209 11 214 0;
#X connect 209 12 213 0;
#X connect 209 13 212 0;
#X connect 209 14 211 0;
#X connect 209 15 210 0;
#X connect 210 0 241 0;
#X connect 211 0 228 0;
#X connect 212 0 234 0;
#X connect 213 0 233 0;
#X connect 214 0 232 0;
#X connect 215 0 231 0;
#X connect 216 0 230 0;
#X connect 217 0 229 0;
#X connect 218 0 227 0;
#X connect 219 0 240 0;
#X connect 220 0 235 0;
#X connect 221 0 239 0;
#X connect 222 0 238 0;
#X connect 223 0 236 0;
#X connect 224 0 237 0;
#X connect 225 0 226 0;
#X connect 226 0 855 0;
#X connect 227 0 856 0;
#X connect 228 0 863 0;
#X connect 229 0 857 0;
#X connect 230 0 858 0;
#X connect 231 0 859 0;
#X connect 232 0 860 0;
#X connect 233 0 861 0;
#X connect 234 0 862 0;
#X connect 235 0 865 0;
#X connect 236 0 866 0;
#X connect 237 0 867 0;
#X connect 238 0 868 0;
#X connect 239 0 853 0;
#X connect 240 0 854 0;
#X connect 241 0 864 0;
#X connect 243 0 253 0;
#X connect 243 1 256 0;
#X connect 243 2 257 0;
#X connect 243 3 255 0;
#X connect 243 4 254 0;
#X connect 243 5 252 0;
#X connect 243 6 258 0;
#X connect 243 7 251 0;
#X connect 243 8 250 0;
#X connect 243 9 249 0;
#X connect 243 10 248 0;
#X connect 243 11 247 0;
#X connect 243 12 246 0;
#X connect 243 13 245 0;
#X connect 243 14 244 0;
#X connect 243 15 276 0;
#X connect 244 0 261 0;
#X connect 245 0 267 0;
#X connect 246 0 266 0;
#X connect 247 0 265 0;
#X connect 248 0 264 0;
#X connect 249 0 263 0;
#X connect 250 0 262 0;
#X connect 251 0 260 0;
#X connect 252 0 273 0;
#X connect 253 0 268 0;
#X connect 254 0 272 0;
#X connect 255 0 271 0;
#X connect 256 0 269 0;
#X connect 257 0 270 0;
#X connect 258 0 259 0;
#X connect 259 0 872 0;
#X connect 260 0 873 0;
#X connect 261 0 880 0;
#X connect 262 0 874 0;
#X connect 263 0 875 0;
#X connect 264 0 876 0;
#X connect 265 0 877 0;
#X connect 266 0 878 0;
#X connect 267 0 879 0;
#X connect 268 0 882 0;
#X connect 269 0 883 0;
#X connect 270 0 884 0;
#X connect 271 0 885 0;
#X connect 272 0 870 0;
#X connect 273 0 871 0;
#X connect 274 0 881 0;
#X connect 276 0 274 0;
#X connect 277 0 289 0;
#X connect 277 1 292 0;
#X connect 277 2 293 0;
#X connect 277 3 291 0;
#X connect 277 4 290 0;
#X connect 277 5 288 0;
#X connect 277 6 294 0;
#X connect 277 7 287 0;
#X connect 277 8 286 0;
#X connect 277 9 285 0;
#X connect 277 10 284 0;
#X connect 277 11 283 0;
#X connect 277 12 282 0;
#X connect 277 13 281 0;
#X connect 277 14 280 0;
#X connect 277 15 279 0;
#X connect 279 0 310 0;
#X connect 280 0 297 0;
#X connect 281 0 303 0;
#X connect 282 0 302 0;
#X connect 283 0 301 0;
#X connect 284 0 300 0;
#X connect 285 0 299 0;
#X connect 286 0 298 0;
#X connect 287 0 296 0;
#X connect 288 0 309 0;
#X connect 289 0 304 0;
#X connect 290 0 308 0;
#X connect 291 0 307 0;
#X connect 292 0 305 0;
#X connect 293 0 306 0;
#X connect 294 0 295 0;
#X connect 295 0 889 0;
#X connect 296 0 890 0;
#X connect 297 0 897 0;
#X connect 298 0 891 0;
#X connect 299 0 892 0;
#X connect 300 0 893 0;
#X connect 301 0 894 0;
#X connect 302 0 895 0;
#X connect 303 0 896 0;
#X connect 304 0 899 0;
#X connect 305 0 900 0;
#X connect 306 0 901 0;
#X connect 307 0 902 0;
#X connect 308 0 887 0;
#X connect 309 0 888 0;
#X connect 310 0 898 0;
#X connect 311 0 322 0;
#X connect 311 1 325 0;
#X connect 311 2 326 0;
#X connect 311 3 324 0;
#X connect 311 4 323 0;
#X connect 311 5 321 0;
#X connect 311 6 327 0;
#X connect 311 7 320 0;
#X connect 311 8 319 0;
#X connect 311 9 318 0;
#X connect 311 10 317 0;
#X connect 311 11 316 0;
#X connect 311 12 315 0;
#X connect 311 13 314 0;
#X connect 311 14 313 0;
#X connect 311 15 312 0;
#X connect 312 0 343 0;
#X connect 313 0 330 0;
#X connect 314 0 336 0;
#X connect 315 0 335 0;
#X connect 316 0 334 0;
#X connect 317 0 333 0;
#X connect 318 0 332 0;
#X connect 319 0 331 0;
#X connect 320 0 329 0;
#X connect 321 0 342 0;
#X connect 322 0 337 0;
#X connect 323 0 341 0;
#X connect 324 0 340 0;
#X connect 325 0 338 0;
#X connect 326 0 339 0;
#X connect 327 0 328 0;
#X connect 328 0 906 0;
#X connect 329 0 907 0;
#X connect 330 0 914 0;
#X connect 331 0 908 0;
#X connect 332 0 909 0;
#X connect 333 0 910 0;
#X connect 334 0 911 0;
#X connect 335 0 912 0;
#X connect 336 0 913 0;
#X connect 337 0 916 0;
#X connect 338 0 917 0;
#X connect 339 0 918 0;
#X connect 340 0 919 0;
#X connect 341 0 904 0;
#X connect 342 0 905 0;
#X connect 343 0 915 0;
#X connect 345 0 356 0;
#X connect 345 1 359 0;
#X connect 345 2 360 0;
#X connect 345 3 358 0;
#X connect 345 4 357 0;
#X connect 345 5 355 0;
#X connect 345 6 361 0;
#X connect 345 7 354 0;
#X connect 345 8 353 0;
#X connect 345 9 352 0;
#X connect 345 10 351 0;
#X connect 345 11 350 0;
#X connect 345 12 349 0;
#X connect 345 13 348 0;
#X connect 345 14 347 0;
#X connect 345 15 346 0;
#X connect 346 0 377 0;
#X connect 347 0 364 0;
#X connect 348 0 370 0;
#X connect 349 0 369 0;
#X connect 350 0 368 0;
#X connect 351 0 367 0;
#X connect 352 0 366 0;
#X connect 353 0 365 0;
#X connect 354 0 363 0;
#X connect 355 0 376 0;
#X connect 356 0 371 0;
#X connect 357 0 375 0;
#X connect 358 0 374 0;
#X connect 359 0 372 0;
#X connect 360 0 373 0;
#X connect 361 0 362 0;
#X connect 362 0 923 0;
#X connect 363 0 924 0;
#X connect 364 0 931 0;
#X connect 365 0 925 0;
#X connect 366 0 926 0;
#X connect 367 0 927 0;
#X connect 368 0 928 0;
#X connect 369 0 929 0;
#X connect 370 0 930 0;
#X connect 371 0 933 0;
#X connect 372 0 934 0;
#X connect 373 0 935 0;
#X connect 374 0 936 0;
#X connect 375 0 921 0;
#X connect 376 0 922 0;
#X connect 377 0 932 0;
#X connect 379 0 389 0;
#X connect 379 1 392 0;
#X connect 379 2 393 0;
#X connect 379 3 391 0;
#X connect 379 4 390 0;
#X connect 379 5 388 0;
#X connect 379 6 394 0;
#X connect 379 7 387 0;
#X connect 379 8 386 0;
#X connect 379 9 385 0;
#X connect 379 10 384 0;
#X connect 379 11 383 0;
#X connect 379 12 382 0;
#X connect 379 13 381 0;
#X connect 379 14 380 0;
#X connect 379 15 412 0;
#X connect 380 0 397 0;
#X connect 381 0 403 0;
#X connect 382 0 402 0;
#X connect 383 0 401 0;
#X connect 384 0 400 0;
#X connect 385 0 399 0;
#X connect 386 0 398 0;
#X connect 387 0 396 0;
#X connect 388 0 409 0;
#X connect 389 0 404 0;
#X connect 390 0 408 0;
#X connect 391 0 407 0;
#X connect 392 0 405 0;
#X connect 393 0 406 0;
#X connect 394 0 395 0;
#X connect 395 0 940 0;
#X connect 396 0 941 0;
#X connect 397 0 948 0;
#X connect 398 0 942 0;
#X connect 399 0 943 0;
#X connect 400 0 944 0;
#X connect 401 0 945 0;
#X connect 402 0 946 0;
#X connect 403 0 947 0;
#X connect 404 0 950 0;
#X connect 405 0 951 0;
#X connect 406 0 952 0;
#X connect 407 0 953 0;
#X connect 408 0 938 0;
#X connect 409 0 939 0;
#X connect 410 0 949 0;
#X connect 412 0 410 0;
#X connect 413 0 425 0;
#X connect 413 1 428 0;
#X connect 413 2 429 0;
#X connect 413 3 427 0;
#X connect 413 4 426 0;
#X connect 413 5 424 0;
#X connect 413 6 430 0;
#X connect 413 7 423 0;
#X connect 413 8 422 0;
#X connect 413 9 421 0;
#X connect 413 10 420 0;
#X connect 413 11 419 0;
#X connect 413 12 418 0;
#X connect 413 13 417 0;
#X connect 413 14 416 0;
#X connect 413 15 415 0;
#X connect 415 0 446 0;
#X connect 416 0 433 0;
#X connect 417 0 439 0;
#X connect 418 0 438 0;
#X connect 419 0 437 0;
#X connect 420 0 436 0;
#X connect 421 0 435 0;
#X connect 422 0 434 0;
#X connect 423 0 432 0;
#X connect 424 0 445 0;
#X connect 425 0 440 0;
#X connect 426 0 444 0;
#X connect 427 0 443 0;
#X connect 428 0 441 0;
#X connect 429 0 442 0;
#X connect 430 0 431 0;
#X connect 431 0 957 0;
#X connect 432 0 958 0;
#X connect 433 0 965 0;
#X connect 434 0 959 0;
#X connect 435 0 960 0;
#X connect 436 0 961 0;
#X connect 437 0 962 0;
#X connect 438 0 963 0;
#X connect 439 0 964 0;
#X connect 440 0 967 0;
#X connect 441 0 968 0;
#X connect 442 0 969 0;
#X connect 443 0 970 0;
#X connect 444 0 955 0;
#X connect 445 0 956 0;
#X connect 446 0 966 0;
#X connect 447 0 458 0;
#X connect 447 1 461 0;
#X connect 447 2 462 0;
#X connect 447 3 460 0;
#X connect 447 4 459 0;
#X connect 447 5 457 0;
#X connect 447 6 463 0;
#X connect 447 7 456 0;
#X connect 447 8 455 0;
#X connect 447 9 454 0;
#X connect 447 10 453 0;
#X connect 447 11 452 0;
#X connect 447 12 451 0;
#X connect 447 13 450 0;
#X connect 447 14 449 0;
#X connect 447 15 448 0;
#X connect 448 0 479 0;
#X connect 449 0 466 0;
#X connect 450 0 472 0;
#X connect 451 0 471 0;
#X connect 452 0 470 0;
#X connect 453 0 469 0;
#X connect 454 0 468 0;
#X connect 455 0 467 0;
#X connect 456 0 465 0;
#X connect 457 0 478 0;
#X connect 458 0 473 0;
#X connect 459 0 477 0;
#X connect 460 0 476 0;
#X connect 461 0 474 0;
#X connect 462 0 475 0;
#X connect 463 0 464 0;
#X connect 464 0 974 0;
#X connect 465 0 975 0;
#X connect 466 0 982 0;
#X connect 467 0 976 0;
#X connect 468 0 977 0;
#X connect 469 0 978 0;
#X connect 470 0 979 0;
#X connect 471 0 980 0;
#X connect 472 0 981 0;
#X connect 473 0 984 0;
#X connect 474 0 985 0;
#X connect 475 0 986 0;
#X connect 476 0 987 0;
#X connect 477 0 972 0;
#X connect 478 0 973 0;
#X connect 479 0 983 0;
#X connect 481 0 492 0;
#X connect 481 1 495 0;
#X connect 481 2 496 0;
#X connect 481 3 494 0;
#X connect 481 4 493 0;
#X connect 481 5 491 0;
#X connect 481 6 497 0;
#X connect 481 7 490 0;
#X connect 481 8 489 0;
#X connect 481 9 488 0;
#X connect 481 10 487 0;
#X connect 481 11 486 0;
#X connect 481 12 485 0;
#X connect 481 13 484 0;
#X connect 481 14 483 0;
#X connect 481 15 482 0;
#X connect 482 0 513 0;
#X connect 483 0 500 0;
#X connect 484 0 506 0;
#X connect 485 0 505 0;
#X connect 486 0 504 0;
#X connect 487 0 503 0;
#X connect 488 0 502 0;
#X connect 489 0 501 0;
#X connect 490 0 499 0;
#X connect 491 0 512 0;
#X connect 492 0 507 0;
#X connect 493 0 511 0;
#X connect 494 0 510 0;
#X connect 495 0 508 0;
#X connect 496 0 509 0;
#X connect 497 0 498 0;
#X connect 498 0 991 0;
#X connect 499 0 992 0;
#X connect 500 0 999 0;
#X connect 501 0 993 0;
#X connect 502 0 994 0;
#X connect 503 0 995 0;
#X connect 504 0 996 0;
#X connect 505 0 997 0;
#X connect 506 0 998 0;
#X connect 507 0 1001 0;
#X connect 508 0 1002 0;
#X connect 509 0 1003 0;
#X connect 510 0 1004 0;
#X connect 511 0 989 0;
#X connect 512 0 990 0;
#X connect 513 0 1000 0;
#X connect 515 0 525 0;
#X connect 515 1 528 0;
#X connect 515 2 529 0;
#X connect 515 3 527 0;
#X connect 515 4 526 0;
#X connect 515 5 524 0;
#X connect 515 6 530 0;
#X connect 515 7 523 0;
#X connect 515 8 522 0;
#X connect 515 9 521 0;
#X connect 515 10 520 0;
#X connect 515 11 519 0;
#X connect 515 12 518 0;
#X connect 515 13 517 0;
#X connect 515 14 516 0;
#X connect 515 15 548 0;
#X connect 516 0 533 0;
#X connect 517 0 539 0;
#X connect 518 0 538 0;
#X connect 519 0 537 0;
#X connect 520 0 536 0;
#X connect 521 0 535 0;
#X connect 522 0 534 0;
#X connect 523 0 532 0;
#X connect 524 0 545 0;
#X connect 525 0 540 0;
#X connect 526 0 544 0;
#X connect 527 0 543 0;
#X connect 528 0 541 0;
#X connect 529 0 542 0;
#X connect 530 0 531 0;
#X connect 531 0 1008 0;
#X connect 532 0 1009 0;
#X connect 533 0 1016 0;
#X connect 534 0 1010 0;
#X connect 535 0 1011 0;
#X connect 536 0 1012 0;
#X connect 537 0 1013 0;
#X connect 538 0 1014 0;
#X connect 539 0 1015 0;
#X connect 540 0 1018 0;
#X connect 541 0 1019 0;
#X connect 542 0 1020 0;
#X connect 543 0 1021 0;
#X connect 544 0 1006 0;
#X connect 545 0 1007 0;
#X connect 546 0 1017 0;
#X connect 548 0 546 0;
#X connect 549 0 141 0;
#X connect 549 2 142 0;
#X connect 549 3 697 0;
#X connect 550 0 175 0;
#X connect 550 2 208 0;
#X connect 550 3 698 0;
#X connect 551 0 209 0;
#X connect 551 2 242 0;
#X connect 551 3 699 0;
#X connect 552 0 243 0;
#X connect 552 2 275 0;
#X connect 552 3 700 0;
#X connect 553 0 277 0;
#X connect 553 2 278 0;
#X connect 553 3 703 0;
#X connect 554 0 311 0;
#X connect 554 2 344 0;
#X connect 554 3 702 0;
#X connect 555 0 345 0;
#X connect 555 2 378 0;
#X connect 555 3 701 0;
#X connect 556 0 379 0;
#X connect 556 2 411 0;
#X connect 556 3 704 0;
#X connect 557 0 413 0;
#X connect 557 2 414 0;
#X connect 557 3 705 0;
#X connect 558 0 447 0;
#X connect 558 2 480 0;
#X connect 558 3 706 0;
#X connect 559 0 481 0;
#X connect 559 2 514 0;
#X connect 559 3 707 0;
#X connect 560 0 515 0;
#X connect 560 2 547 0;
#X connect 560 3 708 0;
#X connect 561 0 1042 0;
#X connect 562 0 685 0;
#X connect 563 0 686 0;
#X connect 564 0 580 0;
#X connect 566 0 586 0;
#X connect 567 0 612 0;
#X connect 568 0 569 0;
#X connect 569 0 561 0;
#X connect 569 1 562 0;
#X connect 569 2 563 0;
#X connect 570 0 692 0;
#X connect 571 0 564 0;
#X connect 571 1 565 0;
#X connect 571 2 566 0;
#X connect 571 3 567 0;
#X connect 571 4 687 0;
#X connect 574 0 1101 0;
#X connect 575 0 579 0;
#X connect 577 0 576 0;
#X connect 578 0 577 0;
#X connect 579 0 608 1;
#X connect 580 0 604 0;
#X connect 581 0 604 1;
#X connect 581 0 1097 0;
#X connect 582 0 795 0;
#X connect 583 0 589 1;
#X connect 584 0 1101 0;
#X connect 584 0 579 0;
#X connect 585 0 584 0;
#X connect 586 0 605 0;
#X connect 587 0 605 1;
#X connect 588 0 576 0;
#X connect 588 0 1107 0;
#X connect 588 0 1128 0;
#X connect 589 0 609 0;
#X connect 590 0 609 0;
#X connect 591 0 609 0;
#X connect 592 0 609 0;
#X connect 593 0 609 0;
#X connect 595 0 578 0;
#X connect 596 0 1102 0;
#X connect 597 0 596 1;
#X connect 598 0 609 0;
#X connect 599 0 609 0;
#X connect 600 0 609 0;
#X connect 601 0 575 0;
#X connect 604 0 772 0;
#X connect 605 0 1102 0;
#X connect 606 0 607 1;
#X connect 607 0 1098 0;
#X connect 607 0 611 0;
#X connect 608 0 588 0;
#X connect 610 0 574 0;
#X connect 610 0 607 0;
#X connect 611 0 1100 0;
#X connect 612 0 611 1;
#X connect 613 0 616 0;
#X connect 614 0 613 0;
#X connect 615 0 614 0;
#X connect 616 0 588 0;
#X connect 617 0 583 0;
#X connect 618 0 583 0;
#X connect 619 0 583 0;
#X connect 620 0 583 0;
#X connect 621 0 583 0;
#X connect 622 0 583 0;
#X connect 623 0 583 0;
#X connect 624 0 583 0;
#X connect 625 0 583 0;
#X connect 626 0 583 0;
#X connect 627 0 583 0;
#X connect 628 0 583 0;
#X connect 629 0 583 0;
#X connect 630 0 583 0;
#X connect 631 0 583 0;
#X connect 632 0 583 0;
#X connect 633 0 590 1;
#X connect 634 0 633 0;
#X connect 635 0 633 0;
#X connect 636 0 633 0;
#X connect 637 0 633 0;
#X connect 638 0 633 0;
#X connect 639 0 633 0;
#X connect 640 0 633 0;
#X connect 641 0 633 0;
#X connect 642 0 633 0;
#X connect 643 0 633 0;
#X connect 644 0 633 0;
#X connect 645 0 633 0;
#X connect 646 0 633 0;
#X connect 647 0 633 0;
#X connect 648 0 633 0;
#X connect 649 0 633 0;
#X connect 650 0 598 1;
#X connect 651 0 650 0;
#X connect 652 0 650 0;
#X connect 653 0 650 0;
#X connect 654 0 650 0;
#X connect 655 0 650 0;
#X connect 656 0 650 0;
#X connect 657 0 650 0;
#X connect 658 0 650 0;
#X connect 659 0 650 0;
#X connect 660 0 650 0;
#X connect 661 0 650 0;
#X connect 662 0 650 0;
#X connect 663 0 613 0;
#X connect 663 0 579 0;
#X connect 663 0 1101 0;
#X connect 664 0 650 0;
#X connect 665 0 650 0;
#X connect 666 0 650 0;
#X connect 667 0 650 0;
#X connect 668 0 591 1;
#X connect 669 0 668 0;
#X connect 670 0 668 0;
#X connect 671 0 668 0;
#X connect 672 0 668 0;
#X connect 673 0 668 0;
#X connect 674 0 668 0;
#X connect 675 0 668 0;
#X connect 676 0 668 0;
#X connect 677 0 668 0;
#X connect 678 0 668 0;
#X connect 679 0 668 0;
#X connect 680 0 668 0;
#X connect 681 0 668 0;
#X connect 682 0 668 0;
#X connect 683 0 668 0;
#X connect 684 0 668 0;
#X connect 685 0 597 0;
#X connect 686 0 606 0;
#X connect 687 0 663 0;
#X connect 688 0 1104 0;
#X connect 689 0 1127 0;
#X connect 690 0 1040 0;
#X connect 691 0 1041 0;
#X connect 692 0 688 0;
#X connect 692 1 689 0;
#X connect 692 2 690 0;
#X connect 692 3 691 0;
#X connect 693 0 107 0;
#X connect 693 2 139 0;
#X connect 693 3 696 0;
#X connect 709 0 1054 0;
#X connect 709 0 1051 0;
#X connect 710 0 1059 0;
#X connect 710 0 1052 0;
#X connect 711 0 1056 0;
#X connect 711 0 1053 0;
#X connect 712 0 1073 0;
#X connect 712 0 1060 0;
#X connect 713 0 1076 0;
#X connect 713 0 1061 0;
#X connect 714 0 1077 0;
#X connect 714 0 1062 0;
#X connect 715 0 1079 0;
#X connect 715 0 1063 0;
#X connect 716 0 1081 0;
#X connect 716 0 1064 0;
#X connect 717 0 1083 0;
#X connect 717 0 1065 0;
#X connect 718 0 1085 0;
#X connect 718 0 1066 0;
#X connect 719 0 1087 0;
#X connect 719 0 1067 0;
#X connect 720 0 1089 0;
#X connect 720 0 1068 0;
#X connect 721 0 1091 0;
#X connect 721 0 1069 0;
#X connect 722 0 1093 0;
#X connect 722 0 1070 0;
#X connect 723 0 1095 0;
#X connect 723 0 1071 0;
#X connect 724 0 589 0;
#X connect 725 0 590 0;
#X connect 726 0 598 0;
#X connect 727 0 591 0;
#X connect 728 0 599 0;
#X connect 729 0 592 0;
#X connect 730 0 600 0;
#X connect 731 0 593 0;
#X connect 732 0 805 0;
#X connect 733 0 806 0;
#X connect 734 0 810 0;
#X connect 735 0 807 0;
#X connect 736 0 811 0;
#X connect 737 0 808 0;
#X connect 738 0 812 0;
#X connect 739 0 809 0;
#X connect 740 0 746 0;
#X connect 741 0 752 0;
#X connect 742 0 770 0;
#X connect 743 0 771 0;
#X connect 744 0 769 0;
#X connect 745 0 742 0;
#X connect 746 0 745 0;
#X connect 746 1 747 0;
#X connect 746 2 748 0;
#X connect 747 0 743 0;
#X connect 748 0 744 0;
#X connect 749 0 758 0;
#X connect 750 0 759 0;
#X connect 751 0 760 0;
#X connect 752 0 749 0;
#X connect 752 1 750 0;
#X connect 752 2 751 0;
#X connect 752 3 753 0;
#X connect 752 4 754 0;
#X connect 752 5 755 0;
#X connect 752 6 756 0;
#X connect 752 7 757 0;
#X connect 753 0 761 0;
#X connect 754 0 762 0;
#X connect 755 0 763 0;
#X connect 756 0 764 0;
#X connect 757 0 765 0;
#X connect 758 0 796 0;
#X connect 759 0 797 0;
#X connect 760 0 798 0;
#X connect 761 0 799 0;
#X connect 762 0 784 0;
#X connect 763 0 783 0;
#X connect 764 0 782 0;
#X connect 765 0 781 0;
#X connect 766 0 772 2;
#X connect 767 0 772 3;
#X connect 768 0 772 4;
#X connect 769 0 772 0;
#X connect 770 0 772 0;
#X connect 771 0 772 0;
#X connect 772 0 582 0;
#X connect 775 0 779 0;
#X connect 775 0 780 0;
#X connect 779 0 768 0;
#X connect 780 0 766 0;
#X connect 780 0 767 0;
#X connect 781 0 768 0;
#X connect 782 0 768 0;
#X connect 783 0 768 0;
#X connect 784 0 768 0;
#X connect 785 0 600 0;
#X connect 785 1 602 0;
#X connect 785 3 714 0;
#X connect 786 0 593 0;
#X connect 786 1 602 0;
#X connect 786 2 596 0;
#X connect 786 3 715 0;
#X connect 787 0 805 0;
#X connect 787 1 602 0;
#X connect 787 2 596 0;
#X connect 787 3 716 0;
#X connect 788 0 806 0;
#X connect 788 1 602 0;
#X connect 788 2 596 0;
#X connect 788 3 717 0;
#X connect 789 0 810 0;
#X connect 789 1 602 0;
#X connect 789 2 596 0;
#X connect 789 3 718 0;
#X connect 790 0 807 0;
#X connect 790 1 602 0;
#X connect 790 2 596 0;
#X connect 790 3 719 0;
#X connect 791 0 811 0;
#X connect 791 1 602 0;
#X connect 791 2 596 0;
#X connect 791 3 720 0;
#X connect 792 0 808 0;
#X connect 792 1 602 0;
#X connect 792 2 596 0;
#X connect 792 3 721 0;
#X connect 793 0 812 0;
#X connect 793 1 602 0;
#X connect 793 2 596 0;
#X connect 793 3 722 0;
#X connect 794 0 809 0;
#X connect 794 1 602 0;
#X connect 794 2 596 0;
#X connect 794 3 723 0;
#X connect 795 0 1046 0;
#X connect 795 1 800 0;
#X connect 795 2 801 0;
#X connect 795 3 802 0;
#X connect 795 4 803 0;
#X connect 795 5 804 0;
#X connect 795 6 785 0;
#X connect 795 7 786 0;
#X connect 795 8 787 0;
#X connect 795 9 788 0;
#X connect 795 10 789 0;
#X connect 795 11 790 0;
#X connect 795 12 791 0;
#X connect 795 13 792 0;
#X connect 795 14 793 0;
#X connect 795 15 794 0;
#X connect 796 0 768 0;
#X connect 797 0 768 0;
#X connect 798 0 768 0;
#X connect 799 0 768 0;
#X connect 800 0 590 0;
#X connect 800 1 602 0;
#X connect 800 2 596 0;
#X connect 800 3 709 0;
#X connect 801 0 598 0;
#X connect 801 1 602 0;
#X connect 801 3 710 0;
#X connect 802 0 591 0;
#X connect 802 1 602 0;
#X connect 802 2 596 0;
#X connect 802 3 711 0;
#X connect 803 0 599 0;
#X connect 803 1 602 0;
#X connect 803 3 712 0;
#X connect 804 0 592 0;
#X connect 804 1 602 0;
#X connect 804 2 596 0;
#X connect 804 3 713 0;
#X connect 805 0 609 0;
#X connect 806 0 609 0;
#X connect 807 0 609 0;
#X connect 808 0 609 0;
#X connect 809 0 609 0;
#X connect 810 0 609 0;
#X connect 811 0 609 0;
#X connect 812 0 609 0;
#X connect 813 0 814 0;
#X connect 814 0 815 0;
#X connect 815 0 724 0;
#X connect 815 1 725 0;
#X connect 815 2 726 0;
#X connect 815 3 727 0;
#X connect 815 4 728 0;
#X connect 815 5 729 0;
#X connect 815 6 730 0;
#X connect 815 7 731 0;
#X connect 815 8 732 0;
#X connect 815 9 733 0;
#X connect 815 10 734 0;
#X connect 815 11 735 0;
#X connect 815 12 736 0;
#X connect 815 13 737 0;
#X connect 815 14 738 0;
#X connect 815 15 739 0;
#X connect 818 0 599 1;
#X connect 819 0 818 0;
#X connect 820 0 818 0;
#X connect 821 0 818 0;
#X connect 822 0 818 0;
#X connect 823 0 818 0;
#X connect 824 0 818 0;
#X connect 825 0 818 0;
#X connect 826 0 818 0;
#X connect 827 0 818 0;
#X connect 828 0 818 0;
#X connect 829 0 818 0;
#X connect 830 0 818 0;
#X connect 831 0 818 0;
#X connect 832 0 818 0;
#X connect 833 0 818 0;
#X connect 834 0 818 0;
#X connect 835 0 592 1;
#X connect 836 0 835 0;
#X connect 837 0 835 0;
#X connect 838 0 835 0;
#X connect 839 0 835 0;
#X connect 840 0 835 0;
#X connect 841 0 835 0;
#X connect 842 0 835 0;
#X connect 843 0 835 0;
#X connect 844 0 835 0;
#X connect 845 0 835 0;
#X connect 846 0 835 0;
#X connect 847 0 835 0;
#X connect 848 0 835 0;
#X connect 849 0 835 0;
#X connect 850 0 835 0;
#X connect 851 0 835 0;
#X connect 852 0 600 1;
#X connect 853 0 852 0;
#X connect 854 0 852 0;
#X connect 855 0 852 0;
#X connect 856 0 852 0;
#X connect 857 0 852 0;
#X connect 858 0 852 0;
#X connect 859 0 852 0;
#X connect 860 0 852 0;
#X connect 861 0 852 0;
#X connect 862 0 852 0;
#X connect 863 0 852 0;
#X connect 864 0 852 0;
#X connect 865 0 852 0;
#X connect 866 0 852 0;
#X connect 867 0 852 0;
#X connect 868 0 852 0;
#X connect 869 0 593 1;
#X connect 870 0 869 0;
#X connect 871 0 869 0;
#X connect 872 0 869 0;
#X connect 873 0 869 0;
#X connect 874 0 869 0;
#X connect 875 0 869 0;
#X connect 876 0 869 0;
#X connect 877 0 869 0;
#X connect 878 0 869 0;
#X connect 879 0 869 0;
#X connect 880 0 869 0;
#X connect 881 0 869 0;
#X connect 882 0 869 0;
#X connect 883 0 869 0;
#X connect 884 0 869 0;
#X connect 885 0 869 0;
#X connect 886 0 805 1;
#X connect 887 0 886 0;
#X connect 888 0 886 0;
#X connect 889 0 886 0;
#X connect 890 0 886 0;
#X connect 891 0 886 0;
#X connect 892 0 886 0;
#X connect 893 0 886 0;
#X connect 894 0 886 0;
#X connect 895 0 886 0;
#X connect 896 0 886 0;
#X connect 897 0 886 0;
#X connect 898 0 886 0;
#X connect 899 0 886 0;
#X connect 900 0 886 0;
#X connect 901 0 886 0;
#X connect 902 0 886 0;
#X connect 903 0 806 1;
#X connect 904 0 903 0;
#X connect 905 0 903 0;
#X connect 906 0 903 0;
#X connect 907 0 903 0;
#X connect 908 0 903 0;
#X connect 909 0 903 0;
#X connect 910 0 903 0;
#X connect 911 0 903 0;
#X connect 912 0 903 0;
#X connect 913 0 903 0;
#X connect 914 0 903 0;
#X connect 915 0 903 0;
#X connect 916 0 903 0;
#X connect 917 0 903 0;
#X connect 918 0 903 0;
#X connect 919 0 903 0;
#X connect 920 0 810 1;
#X connect 921 0 920 0;
#X connect 922 0 920 0;
#X connect 923 0 920 0;
#X connect 924 0 920 0;
#X connect 925 0 920 0;
#X connect 926 0 920 0;
#X connect 927 0 920 0;
#X connect 928 0 920 0;
#X connect 929 0 920 0;
#X connect 930 0 920 0;
#X connect 931 0 920 0;
#X connect 932 0 920 0;
#X connect 933 0 920 0;
#X connect 934 0 920 0;
#X connect 935 0 920 0;
#X connect 936 0 920 0;
#X connect 937 0 807 1;
#X connect 938 0 937 0;
#X connect 939 0 937 0;
#X connect 940 0 937 0;
#X connect 941 0 937 0;
#X connect 942 0 937 0;
#X connect 943 0 937 0;
#X connect 944 0 937 0;
#X connect 945 0 937 0;
#X connect 946 0 937 0;
#X connect 947 0 937 0;
#X connect 948 0 937 0;
#X connect 949 0 937 0;
#X connect 950 0 937 0;
#X connect 951 0 937 0;
#X connect 952 0 937 0;
#X connect 953 0 937 0;
#X connect 954 0 811 1;
#X connect 955 0 954 0;
#X connect 956 0 954 0;
#X connect 957 0 954 0;
#X connect 958 0 954 0;
#X connect 959 0 954 0;
#X connect 960 0 954 0;
#X connect 961 0 954 0;
#X connect 962 0 954 0;
#X connect 963 0 954 0;
#X connect 964 0 954 0;
#X connect 965 0 954 0;
#X connect 966 0 954 0;
#X connect 967 0 954 0;
#X connect 968 0 954 0;
#X connect 969 0 954 0;
#X connect 970 0 954 0;
#X connect 971 0 808 1;
#X connect 972 0 971 0;
#X connect 973 0 971 0;
#X connect 974 0 971 0;
#X connect 975 0 971 0;
#X connect 976 0 971 0;
#X connect 977 0 971 0;
#X connect 978 0 971 0;
#X connect 979 0 971 0;
#X connect 980 0 971 0;
#X connect 981 0 971 0;
#X connect 982 0 971 0;
#X connect 983 0 971 0;
#X connect 984 0 971 0;
#X connect 985 0 971 0;
#X connect 986 0 971 0;
#X connect 987 0 971 0;
#X connect 988 0 812 1;
#X connect 989 0 988 0;
#X connect 990 0 988 0;
#X connect 991 0 988 0;
#X connect 992 0 988 0;
#X connect 993 0 988 0;
#X connect 994 0 988 0;
#X connect 995 0 988 0;
#X connect 996 0 988 0;
#X connect 997 0 988 0;
#X connect 998 0 988 0;
#X connect 999 0 988 0;
#X connect 1000 0 988 0;
#X connect 1001 0 988 0;
#X connect 1002 0 988 0;
#X connect 1003 0 988 0;
#X connect 1004 0 988 0;
#X connect 1005 0 809 1;
#X connect 1006 0 1005 0;
#X connect 1007 0 1005 0;
#X connect 1008 0 1005 0;
#X connect 1009 0 1005 0;
#X connect 1010 0 1005 0;
#X connect 1011 0 1005 0;
#X connect 1012 0 1005 0;
#X connect 1013 0 1005 0;
#X connect 1014 0 1005 0;
#X connect 1015 0 1005 0;
#X connect 1016 0 1005 0;
#X connect 1017 0 1005 0;
#X connect 1018 0 1005 0;
#X connect 1019 0 1005 0;
#X connect 1020 0 1005 0;
#X connect 1021 0 1005 0;
#X connect 1040 0 615 0;
#X connect 1041 0 601 0;
#X connect 1042 0 581 0;
#X connect 1043 0 1045 0;
#X connect 1044 0 1043 0;
#X connect 1046 0 589 0;
#X connect 1046 1 602 0;
#X connect 1046 2 596 0;
#X connect 1046 3 1047 0;
#X connect 1047 0 1049 0;
#X connect 1047 0 1050 0;
#X connect 1048 0 1043 0;
#X connect 1049 0 1048 0;
#X connect 1050 0 1072 0;
#X connect 1051 0 1055 0;
#X connect 1052 0 1058 0;
#X connect 1053 0 1057 0;
#X connect 1054 0 1048 0;
#X connect 1055 0 1048 0;
#X connect 1056 0 1048 0;
#X connect 1057 0 1048 0;
#X connect 1058 0 1048 0;
#X connect 1059 0 1048 0;
#X connect 1060 0 1074 0;
#X connect 1061 0 1075 0;
#X connect 1062 0 1078 0;
#X connect 1063 0 1080 0;
#X connect 1064 0 1082 0;
#X connect 1065 0 1084 0;
#X connect 1066 0 1086 0;
#X connect 1067 0 1088 0;
#X connect 1068 0 1090 0;
#X connect 1069 0 1092 0;
#X connect 1070 0 1094 0;
#X connect 1071 0 1096 0;
#X connect 1072 0 1048 0;
#X connect 1073 0 1048 0;
#X connect 1074 0 1048 0;
#X connect 1075 0 1048 0;
#X connect 1076 0 1048 0;
#X connect 1077 0 1048 0;
#X connect 1078 0 1048 0;
#X connect 1079 0 1048 0;
#X connect 1080 0 1048 0;
#X connect 1081 0 1048 0;
#X connect 1082 0 1048 0;
#X connect 1083 0 1048 0;
#X connect 1084 0 1048 0;
#X connect 1085 0 1048 0;
#X connect 1086 0 1048 0;
#X connect 1087 0 1048 0;
#X connect 1088 0 1048 0;
#X connect 1089 0 1048 0;
#X connect 1090 0 1048 0;
#X connect 1091 0 1048 0;
#X connect 1092 0 1048 0;
#X connect 1093 0 1048 0;
#X connect 1094 0 1048 0;
#X connect 1095 0 1048 0;
#X connect 1096 0 1048 0;
#X connect 1097 0 1050 1;
#X connect 1097 0 1051 1;
#X connect 1097 0 1052 1;
#X connect 1097 0 1053 1;
#X connect 1097 0 1063 1;
#X connect 1097 0 1062 1;
#X connect 1097 0 1061 1;
#X connect 1097 0 1060 1;
#X connect 1097 0 1067 1;
#X connect 1097 0 1066 1;
#X connect 1097 0 1065 1;
#X connect 1097 0 1064 1;
#X connect 1097 0 1071 1;
#X connect 1097 0 1070 1;
#X connect 1097 0 1069 1;
#X connect 1097 0 1068 1;
#X connect 1098 0 615 0;
#X connect 1099 0 1098 1;
#X connect 1100 0 601 0;
#X connect 1101 0 608 0;
#X connect 1101 0 616 1;
#X connect 1102 0 585 0;
#X connect 1103 0 1102 1;
#X connect 1104 0 1105 0;
#X connect 1105 0 1119 0;
#X connect 1106 0 1099 0;
#X connect 1106 1 612 0;
#X connect 1106 2 1103 0;
#X connect 1106 3 1108 0;
#X connect 1107 0 594 0;
#X connect 1107 0 594 1;
#X connect 1107 1 1114 0;
#X connect 1108 0 1107 1;
#X connect 1111 0 1043 0;
#X connect 1112 0 594 0;
#X connect 1112 0 594 1;
#X connect 1114 0 594 1;
#X connect 1114 0 594 0;
#X connect 1115 0 1124 0;
#X connect 1116 0 1123 1;
#X connect 1117 0 1114 0;
#X connect 1118 0 1123 0;
#X connect 1119 0 1122 0;
#X connect 1120 0 1121 1;
#X connect 1121 0 1114 1;
#X connect 1122 0 1118 0;
#X connect 1123 0 1121 0;
#X connect 1124 0 1114 2;
#X connect 1127 0 1115 0;
#X coords 0 -1 1 1 540 430 2 10 300;
#X restore 31 117 pd page-2;
#X obj 14 -106 import mrpeach;
#X obj 128 -15 unpackOSC;
#X obj 33 60 routeOSC /1 /2 /3 /4;
#X obj 87 30 pipelist;
#X obj 120 92 print unpacked;
#X obj 13 -76 udpreceive 8000;
#X obj 31 93 s pd303-p1;
#X connect 2 0 4 0;
#X connect 2 1 4 1;
#X connect 3 0 7 0;
#X connect 4 0 3 0;
#X connect 6 0 2 0;
