#N canvas 715 23 565 736 10;
#N canvas 15 39 1273 719 page-2 0;
#X obj 46 729 tgl 15 0 empty empty empty 17 7 0 10 -232576 -159808
-1 127 127;
#X obj 64 729 tgl 15 0 empty empty empty 17 7 0 10 -232576 -159808
-1 0 127;
#X obj 82 729 tgl 15 0 empty empty empty 17 7 0 10 -232576 -159808
-1 127 127;
#X obj 82 752 tgl 15 0 empty empty empty 17 7 0 10 -258113 -262144
-1 0 1;
#X obj 100 729 tgl 15 0 empty empty empty 17 7 0 10 -232576 -159808
-1 0 127;
#X obj 118 729 tgl 15 0 empty empty empty 17 7 0 10 -232576 -159808
-1 127 127;
#X obj 136 729 tgl 15 0 empty empty empty 17 7 0 10 -232576 -159808
-1 0 127;
#X obj 154 729 tgl 15 0 empty empty empty 17 7 0 10 -232576 -159808
-1 127 127;
#X obj 172 729 tgl 15 0 empty empty empty 17 7 0 10 -232576 -159808
-1 0 127;
#X obj 190 729 tgl 15 0 empty empty empty 17 7 0 10 -232576 -159808
-1 127 127;
#X obj 208 729 tgl 15 0 empty empty empty 17 7 0 10 -232576 -159808
-1 0 127;
#X obj 226 729 tgl 15 0 empty empty empty 17 7 0 10 -232576 -159808
-1 127 127;
#X obj 244 729 tgl 15 0 empty empty empty 17 7 0 10 -232576 -159808
-1 0 127;
#X obj 262 729 tgl 15 0 empty empty empty 17 7 0 10 -232576 -159808
-1 127 127;
#X obj 280 729 tgl 15 0 empty empty empty 17 7 0 10 -232576 -159808
-1 0 127;
#X obj 298 729 tgl 15 0 empty empty empty 17 7 0 10 -232576 -159808
-1 127 127;
#X obj 316 729 tgl 15 0 empty empty empty 17 7 0 10 -232576 -159808
-1 0 127;
#X obj 1309 343 vsl 30 128 0 1 0 0 empty empty empty 0 -9 0 10 -159808
-232576 -1 0 1;
#X obj 510 324 tgl 30 0 empty empty empty 17 7 0 10 -262144 -1 -1 1
1;
#X obj 1187 483 mtof;
#X obj 1237 724 mtof;
#X obj 1226 901 tabwrite~ syn;
#X obj 1226 876 metro 100;
#X obj 1226 851 tgl 15 0 empty empty empty 17 7 0 10 -262144 -1 -1
1 1;
#X obj 1225 811 phasor~;
#X obj 43 694 hradio 18 1 0 16 empty empty empty 0 -8 0 10 -262144
-1 -1 1;
#X obj 43 552 vsl 15 128 0 127 0 0 empty empty empty 0 -9 0 10 -262144
-1 -1 2200 1;
#X msg 1041 779 0;
#X obj 1041 758 bng 15 250 50 0 empty empty empty 17 7 0 10 -262144
-1 -1;
#X obj 482 438 tgl 15 0 empty empty SYNC 17 7 0 10 -232576 -159808
-1 0 1;
#X obj 1105 870 -~ 0.25;
#X obj 551 800 f;
#X obj 567 825 f;
#X obj 599 881 f;
#X obj 630 933 f;
#X obj 662 981 f;
#X obj 1242 834 loadbang;
#X obj 960 703 delay 1000;
#X obj 583 855 f;
#X obj 615 906 f;
#X obj 647 954 f;
#X obj 932 680 s \$0-twobang;
#X obj 1105 843 expr~ $v1 > $v2;
#X obj 543 1208 s \$1-main-pitch;
#X obj 1121 441 r \$1-main-pitch;
#X obj 1229 617 spigot;
#X obj 1080 655 phasor~;
#X obj 907 473 mtof;
#X obj 1081 689 *~;
#X obj 62 552 vsl 15 128 0 127 0 0 empty empty empty 0 -9 0 10 -262144
-1 -1 1800 1;
#X obj 80 552 vsl 15 128 0 127 0 0 empty empty empty 0 -9 0 10 -262144
-1 -1 2200 1;
#X msg 1135 625 0;
#X obj 98 552 vsl 15 128 0 127 0 0 empty empty empty 0 -9 0 10 -262144
-1 -1 1800 1;
#X obj 340 324 bng 30 250 50 0 empty empty empty 17 7 0 10 -262144
-1 -1;
#X obj 64 752 tgl 15 0 empty empty empty 17 7 0 10 -258113 -262144
-1 0 1;
#X obj 46 752 tgl 15 0 empty empty empty 17 7 0 10 -258113 -262144
-1 0 1;
#X obj 100 752 tgl 15 0 empty empty empty 17 7 0 10 -258113 -262144
-1 0 1;
#X obj 118 752 tgl 15 0 empty empty empty 17 7 0 10 -258113 -262144
-1 0 1;
#X obj 136 752 tgl 15 0 empty empty empty 17 7 0 10 -258113 -262144
-1 0 1;
#X obj 154 752 tgl 15 0 empty empty empty 17 7 0 10 -258113 -262144
-1 0 1;
#X obj 172 752 tgl 15 0 empty empty empty 17 7 0 10 -258113 -262144
-1 0 1;
#X obj 225 752 tgl 15 0 empty empty empty 17 7 0 10 -258113 -262144
-1 0 1;
#X obj 208 752 tgl 15 0 empty empty empty 17 7 0 10 -258113 -262144
-1 0 1;
#X obj 190 752 tgl 15 0 empty empty empty 17 7 0 10 -258113 -262144
-1 0 1;
#X obj 243 752 tgl 15 0 empty empty empty 17 7 0 10 -258113 -262144
-1 0 1;
#X obj 262 752 tgl 15 0 empty empty empty 17 7 0 10 -258113 -262144
-1 0 1;
#X obj 279 752 tgl 15 0 empty empty empty 17 7 0 10 -258113 -262144
-1 0 1;
#X obj 297 752 tgl 15 0 empty empty empty 17 7 0 10 -258113 -262144
-1 0 1;
#X obj 316 752 tgl 15 0 empty empty empty 17 7 0 10 -258113 -262144
-1 0 1;
#X obj 46 774 bng 15 250 50 0 empty empty empty 17 7 0 10 -262144 -1
-1;
#X obj 64 774 bng 15 250 50 0 empty empty empty 17 7 0 10 -262144 -1
-1;
#X obj 82 774 bng 15 250 50 0 empty empty empty 17 7 0 10 -262144 -1
-1;
#X obj 100 774 bng 15 250 50 0 empty empty empty 17 7 0 10 -262144
-1 -1;
#X obj 118 774 bng 15 250 50 0 empty empty empty 17 7 0 10 -262144
-1 -1;
#X obj 136 774 bng 15 250 50 0 empty empty empty 17 7 0 10 -262144
-1 -1;
#X obj 154 774 bng 15 250 50 0 empty empty empty 17 7 0 10 -262144
-1 -1;
#X obj 172 774 bng 15 250 50 0 empty empty empty 17 7 0 10 -262144
-1 -1;
#X obj 190 774 bng 15 250 50 0 empty empty empty 17 7 0 10 -262144
-1 -1;
#X obj 208 774 bng 15 250 50 0 empty empty empty 17 7 0 10 -262144
-1 -1;
#X obj 226 774 bng 15 250 50 0 empty empty empty 17 7 0 10 -262144
-1 -1;
#X obj 244 774 bng 15 250 50 0 empty empty empty 17 7 0 10 -262144
-1 -1;
#X obj 262 774 bng 15 250 50 0 empty empty empty 17 7 0 10 -262144
-1 -1;
#X obj 280 774 bng 15 250 50 0 empty empty empty 17 7 0 10 -262144
-1 -1;
#X obj 298 774 bng 15 250 50 0 empty empty empty 17 7 0 10 -262144
-1 -1;
#X obj 316 774 bng 15 250 50 0 empty empty empty 17 7 0 10 -262144
-1 -1;
#X obj 746 825 t b b b b;
#X obj 764 847 t b b b b;
#X obj 770 875 t b b b b;
#X obj 786 900 t b b b b;
#X obj 802 923 t b b b b;
#X obj 818 947 t b b b b;
#X obj 834 971 t b b b b;
#X obj 850 995 t b b b b;
#X obj 866 1015 t b b b b;
#X obj 884 1037 t b b b b;
#X obj 650 658 select 0 1 2 3 4 5 6 7 8 9 10 11 12 13 14 15;
#X obj 666 710 t b b b b;
#X obj 682 733 t b b b b;
#X obj 698 757 t b b b b;
#X obj 714 781 t b b b b;
#X obj 730 805 t b b b b;
#X obj 671 1010 f;
#X obj 687 1035 f;
#X obj 719 1091 f;
#X obj 750 1143 f;
#X obj 782 1191 f;
#X obj 703 1065 f;
#X obj 735 1116 f;
#X obj 767 1164 f;
#X text 518 354 I/O;
#X obj 116 552 vsl 15 128 0 127 0 0 empty empty empty 0 -9 0 10 -262144
-1 -1 2200 1;
#X obj 134 552 vsl 15 128 0 127 0 0 empty empty empty 0 -9 0 10 -262144
-1 -1 1800 1;
#X obj 152 552 vsl 15 128 0 127 0 0 empty empty empty 0 -9 0 10 -262144
-1 -1 2200 1;
#X obj 171 552 vsl 15 128 0 127 0 0 empty empty empty 0 -9 0 10 -262144
-1 -1 1800 1;
#X obj 189 552 vsl 15 128 0 127 0 0 empty empty empty 0 -9 0 10 -262144
-1 -1 2200 1;
#X obj 207 552 vsl 15 128 0 127 0 0 empty empty empty 0 -9 0 10 -262144
-1 -1 2200 1;
#X obj 225 552 vsl 15 128 0 127 0 0 empty empty empty 0 -9 0 10 -262144
-1 -1 2200 1;
#X obj 243 552 vsl 15 128 0 127 0 0 empty empty empty 0 -9 0 10 -262144
-1 -1 1800 1;
#X obj 261 552 vsl 15 128 0 127 0 0 empty empty empty 0 -9 0 10 -262144
-1 -1 2200 1;
#X obj 279 552 vsl 15 128 0 127 0 0 empty empty empty 0 -9 0 10 -262144
-1 -1 1800 1;
#X obj 297 552 vsl 15 128 0 127 0 0 empty empty empty 0 -9 0 10 -262144
-1 -1 2200 1;
#X obj 315 552 vsl 15 128 0 127 0 0 empty empty empty 0 -9 0 10 -262144
-1 -1 1800 1;
#X text 342 367 PHZ1;
#X text 342 422 PHZ2;
#X obj 650 685 t b b b b;
#X obj 1139 548 spigot;
#X obj 482 382 tgl 15 0 empty empty SYNC 17 7 0 10 -260097 -1 -1 0
1;
#X obj 1229 642 - 50;
#X obj 1105 811 osc~;
#X obj 1041 733 spigot;
#X obj 1122 1207 outlet~;
#X obj -113 730 spigot;
#X obj -103 740 spigot;
#X obj -93 750 spigot;
#X obj -83 760 spigot;
#X obj -73 770 spigot;
#X obj -63 780 spigot;
#X obj -53 790 spigot;
#X obj -43 800 spigot;
#X obj -33 810 spigot;
#X obj -23 820 spigot;
#X obj -13 830 spigot;
#X obj -3 840 spigot;
#X obj 7 850 spigot;
#X obj 17 860 spigot;
#X obj 27 870 spigot;
#X obj 37 880 spigot;
#N canvas 0 22 450 300 (subpatch) 0;
#X array syn 100 float 3;
#A 0 -0.25 -0.25 -0.25 -0.25 -0.25 -0.25 -0.25 -0.25 -0.25 -0.25 -0.25
-0.25 -0.25 -0.25 -0.25 -0.25 -0.25 -0.25 -0.25 -0.25 -0.25 -0.25 -0.25
-0.25 -0.25 -0.25 -0.25 -0.25 -0.25 -0.25 -0.25 -0.25 -0.25 -0.25 -0.25
-0.25 -0.25 -0.25 -0.25 -0.25 -0.25 -0.25 -0.25 -0.25 -0.25 -0.25 -0.25
-0.25 -0.25 -0.25 -0.25 -0.25 -0.25 -0.25 -0.25 -0.25 -0.25 -0.25 -0.25
-0.25 -0.25 -0.25 -0.25 -0.25 -0.25 -0.25 -0.25 -0.25 -0.25 -0.25 -0.25
-0.25 -0.25 -0.25 -0.25 -0.25 -0.25 -0.25 -0.25 -0.25 -0.25 -0.25 -0.25
-0.25 -0.25 -0.25 -0.25 -0.25 -0.25 -0.25 -0.25 -0.25 -0.25 -0.25 -0.25
-0.25 -0.25 -0.25 -0.25 -0.25;
#X coords 0 1 100 -1 200 140 1;
#X restore 340 650 graph;
#X text 336 354 reset;
#X text 523 609 LENGTH;
#X obj 524 369 vradio 15 1 0 16 empty empty empty 0 -8 0 10 -262144
-1 -1 2;
#X text 523 503 10;
#X text 523 518 11;
#X text 523 533 12;
#X text 523 548 13;
#X text 523 563 14;
#X text 523 578 15;
#X text 523 592 16;
#X text 15 773 hit;
#X obj 211 999 spigot;
#X obj 221 1009 spigot;
#X obj 231 1019 spigot;
#X obj 241 1029 spigot;
#X obj 251 1039 spigot;
#X obj 261 1049 spigot;
#X obj 271 1059 spigot;
#X obj 281 1069 spigot;
#X obj 291 1079 spigot;
#X obj 301 1089 spigot;
#X obj 311 1099 spigot;
#X obj 321 1109 spigot;
#X obj 331 1119 spigot;
#X obj 341 1129 spigot;
#X obj 351 1139 spigot;
#X obj 361 1149 spigot;
#X obj 211 938 select 0 1 2 3 4 5 6 7 8 9 10 11 12 13 14 15;
#X msg 192 1132 0;
#X text 13 753 mute;
#X obj 19 524 tgl 15 0 empty empty empty 17 7 0 10 -232576 -1 -1 1
1;
#X obj 49 524 tgl 15 0 empty empty empty 17 7 0 10 -232576 -1 -1 0
1;
#X obj 81 524 tgl 15 0 empty empty empty 17 7 0 10 -232576 -1 -1 0
1;
#X obj 113 524 tgl 15 0 empty empty empty 17 7 0 10 -232576 -1 -1 0
1;
#X obj 144 524 tgl 15 0 empty empty empty 17 7 0 10 -232576 -1 -1 0
1;
#X text 19 524 1x;
#X text 49 524 2x;
#X text 81 524 3x;
#X text 113 524 4x;
#X text 144 524 5x;
#X obj 19 552 vsl 15 128 0 127 0 0 empty empty empty 0 -9 0 10 -232576
-1 -1 2200 1;
#X text 302 527 FREQ;
#X text 11 729 f_lck;
#X obj 732 -13 delay 666;
#X obj 752 17 delay 666;
#X obj 772 47 delay 666;
#X obj 792 77 delay 666;
#X obj 732 -85 select 0 1 2 3 4 5 6 7 8 9 10 11 12 13 14 15;
#X obj 802 107 delay 666;
#X obj 822 137 delay 666;
#X obj 842 167 delay 666;
#X obj 862 197 delay 666;
#X obj 872 227 delay 666;
#X obj 892 257 delay 666;
#X obj 912 287 delay 666;
#X obj 932 317 delay 666;
#X obj 942 347 delay 666;
#X obj 962 377 delay 666;
#X obj 982 407 delay 666;
#X obj 1002 437 delay 666;
#X obj 1210 -13 *;
#X obj 1220 7 *;
#X obj 1230 27 *;
#X obj 1240 47 *;
#X obj 1250 67 *;
#X obj 1260 87 *;
#X obj 1270 107 *;
#X obj 1280 127 *;
#X obj 1290 147 *;
#X obj 1300 167 *;
#X obj 1310 187 *;
#X obj 1320 207 *;
#X obj 1330 227 *;
#X obj 1340 247 *;
#X obj 1350 267 *;
#X obj 1360 287 *;
#X obj 43 359 vsl 15 128 0 100 0 0 empty empty empty 0 -9 0 10 -262144
-1 -1 0 1;
#X obj 62 359 vsl 15 128 0 100 0 0 empty empty empty 0 -9 0 10 -262144
-1 -1 0 1;
#X obj 80 359 vsl 15 128 0 100 0 0 empty empty empty 0 -9 0 10 -262144
-1 -1 0 1;
#X obj 98 359 vsl 15 128 0 100 0 0 empty empty empty 0 -9 0 10 -262144
-1 -1 0 1;
#X obj 116 359 vsl 15 128 0 100 0 0 empty empty empty 0 -9 0 10 -262144
-1 -1 0 1;
#X obj 134 359 vsl 15 128 0 100 0 0 empty empty empty 0 -9 0 10 -262144
-1 -1 0 1;
#X obj 152 359 vsl 15 128 0 100 0 0 empty empty empty 0 -9 0 10 -262144
-1 -1 0 1;
#X obj 171 359 vsl 15 128 0 100 0 0 empty empty empty 0 -9 0 10 -262144
-1 -1 0 1;
#X obj 189 359 vsl 15 128 0 100 0 0 empty empty empty 0 -9 0 10 -262144
-1 -1 0 1;
#X obj 207 359 vsl 15 128 0 100 0 0 empty empty empty 0 -9 0 10 -262144
-1 -1 0 1;
#X obj 225 359 vsl 15 128 0 100 0 0 empty empty empty 0 -9 0 10 -262144
-1 -1 0 1;
#X obj 243 359 vsl 15 128 0 100 0 0 empty empty empty 0 -9 0 10 -262144
-1 -1 0 1;
#X obj 261 359 vsl 15 128 0 100 0 0 empty empty empty 0 -9 0 10 -262144
-1 -1 0 1;
#X obj 279 359 vsl 15 128 0 100 0 0 empty empty empty 0 -9 0 10 -262144
-1 -1 0 1;
#X obj 297 359 vsl 15 128 0 100 0 0 empty empty empty 0 -9 0 10 -262144
-1 -1 0 1;
#X obj 315 359 vsl 15 128 0 100 0 0 empty empty empty 0 -9 0 10 -262144
-1 -1 0 1;
#X text 303 310 TIME;
#X obj 19 331 tgl 15 0 empty empty empty 17 7 0 10 -204800 -1 -1 0
1;
#X obj 49 331 tgl 15 0 empty empty empty 17 7 0 10 -204800 -1 -1 0
1;
#X obj 81 331 tgl 15 0 empty empty empty 17 7 0 10 -204800 -1 -1 0
1;
#X obj 113 331 tgl 15 0 empty empty empty 17 7 0 10 -204800 -1 -1 0
1;
#X text 19 331 1x;
#X text 49 331 2x;
#X text 81 331 3x;
#X text 113 331 4x;
#X obj 44 500 tgl 15 0 empty empty empty 17 7 0 10 -204800 -159808
-1 0 127;
#X obj 63 500 tgl 15 0 empty empty empty 17 7 0 10 -204800 -159808
-1 0 127;
#X obj 81 500 tgl 15 0 empty empty empty 17 7 0 10 -204800 -159808
-1 0 127;
#X obj 99 500 tgl 15 0 empty empty empty 17 7 0 10 -204800 -159808
-1 0 127;
#X obj 117 500 tgl 15 0 empty empty empty 17 7 0 10 -204800 -159808
-1 0 127;
#X obj 135 500 tgl 15 0 empty empty empty 17 7 0 10 -204800 -159808
-1 0 127;
#X obj 153 500 tgl 15 0 empty empty empty 17 7 0 10 -204800 -159808
-1 0 127;
#X obj 171 500 tgl 15 0 empty empty empty 17 7 0 10 -204800 -159808
-1 0 127;
#X obj 189 500 tgl 15 0 empty empty empty 17 7 0 10 -204800 -159808
-1 0 127;
#X obj 207 500 tgl 15 0 empty empty empty 17 7 0 10 -204800 -159808
-1 0 127;
#X obj 225 500 tgl 15 0 empty empty empty 17 7 0 10 -204800 -159808
-1 0 127;
#X obj 243 500 tgl 15 0 empty empty empty 17 7 0 10 -204800 -159808
-1 0 127;
#X obj 261 500 tgl 15 0 empty empty empty 17 7 0 10 -204800 -159808
-1 0 127;
#X obj 279 500 tgl 15 0 empty empty empty 17 7 0 10 -204800 -159808
-1 0 127;
#X obj 297 500 tgl 15 0 empty empty empty 17 7 0 10 -204800 -159808
-1 0 127;
#X obj 315 500 tgl 15 0 empty empty empty 17 7 0 10 -204800 -159808
-1 0 127;
#X obj -184 290 spigot;
#X obj -174 300 spigot;
#X obj -164 310 spigot;
#X obj -154 320 spigot;
#X obj -144 330 spigot;
#X obj -134 340 spigot;
#X obj -124 350 spigot;
#X obj -114 360 spigot;
#X obj -104 370 spigot;
#X obj -94 380 spigot;
#X obj -84 390 spigot;
#X obj -74 400 spigot;
#X obj -64 410 spigot;
#X obj -54 420 spigot;
#X obj -44 430 spigot;
#X obj -34 440 spigot;
#X text 10 499 t_lck;
#X obj 19 359 vsl 15 128 1 100 0 0 empty empty empty 0 -9 0 10 -204800
-1 -1 0 1;
#X obj 144 331 tgl 15 0 empty empty empty 17 7 0 10 -204800 -1 -1 0
1;
#X text 144 331 5x;
#X obj 698 261 spigot;
#X obj 698 296 bng 15 250 50 0 empty empty empty 17 7 0 10 -262144
-1 -1;
#X floatatom 558 186 5 0 0 0 - - -, f 5;
#X msg 551 112 0;
#X obj 524 137 float;
#X obj 568 141 + 1;
#X text 589 112 reset;
#X obj 524 159 mod 8;
#X obj 1326 8 * 10;
#X obj 181 331 hradio 15 1 0 10 empty empty empty 0 -8 0 10 -262144
-1 -1 3;
#X msg 286 205 3;
#X obj 291 177 loadbang;
#X obj 630 138 + 1;
#X obj 482 407 tgl 15 0 empty empty DLAY 17 7 0 10 -260097 -1 -1 0
1;
#X obj 1270 539 r \$0-twobang;
#X obj 1289 577 nbx 5 14 -1e+37 1e+37 0 0 empty empty empty 0 -8 0
10 -262144 -1 -1 0 256;
#X obj 912 502 + 0;
#X obj 1234 762 + 0;
#X obj -696 -46 r bcr2k_ch2_9;
#X obj -603 -47 r bcr2k_ch2_10;
#X obj -512 -48 r bcr2k_ch2_11;
#X obj -416 -49 r bcr2k_ch2_12;
#X obj -324 -48 r bcr2k_ch2_13;
#X obj -233 -48 r bcr2k_ch2_14;
#X obj -140 -47 r bcr2k_ch2_15;
#X obj -48 -48 r bcr2k_ch2_16;
#X obj -698 -16 r bcr2k_ch2_17;
#X obj -606 -17 r bcr2k_ch2_18;
#X obj -514 -16 r bcr2k_ch2_19;
#X obj -418 -17 r bcr2k_ch2_20;
#X obj -327 -16 r bcr2k_ch2_21;
#X obj -235 -15 r bcr2k_ch2_22;
#X obj -141 -16 r bcr2k_ch2_23;
#X obj -50 -18 r bcr2k_ch2_24;
#X obj -698 11 r bcr2k_ch2_25;
#X obj -606 9 r bcr2k_ch2_26;
#X obj -514 9 r bcr2k_ch2_27;
#X obj -419 14 r bcr2k_ch2_28;
#X obj -326 12 r bcr2k_ch2_29;
#X obj -235 9 r bcr2k_ch2_30;
#X obj -144 8 r bcr2k_ch2_31;
#X obj -51 7 r bcr2k_ch2_32;
#X obj -982 155 r bcr2k_ch2_81;
#X obj -890 154 r bcr2k_ch2_82;
#X obj -797 155 r bcr2k_ch2_83;
#X obj -705 154 r bcr2k_ch2_84;
#X obj -614 154 r bcr2k_ch2_85;
#X obj -521 154 r bcr2k_ch2_86;
#X obj -427 153 r bcr2k_ch2_87;
#X obj -336 153 r bcr2k_ch2_88;
#X obj 215 -3 r bcr2k_ch2_106;
#X obj 115 -3 r bcr2k_ch2_105;
#X obj -937 477 r bcr2k_ch2_89;
#X obj -845 475 r bcr2k_ch2_90;
#X obj -753 475 r bcr2k_ch2_91;
#X obj -660 476 r bcr2k_ch2_92;
#X obj -568 476 r bcr2k_ch2_93;
#X obj -474 474 r bcr2k_ch2_94;
#X obj -381 473 r bcr2k_ch2_95;
#X obj -289 472 r bcr2k_ch2_96;
#X obj 114 26 r bcr2k_ch2_107;
#X obj 214 25 r bcr2k_ch2_108;
#X obj -657 54 r bcr2k_ch2_97;
#X obj -565 53 r bcr2k_ch2_98;
#X obj -473 53 r bcr2k_ch2_99;
#X obj -381 53 r bcr2k_ch2_100;
#X obj -283 52 r bcr2k_ch2_101;
#X obj -184 51 r bcr2k_ch2_102;
#X obj -85 50 r bcr2k_ch2_103;
#X obj 14 50 r bcr2k_ch2_104;
#X obj -935 587 r bcr2k_ch2_73;
#X obj -840 585 r bcr2k_ch2_74;
#X obj -742 582 r bcr2k_ch2_75;
#X obj -646 583 r bcr2k_ch2_76;
#X obj -547 583 r bcr2k_ch2_77;
#X obj -447 581 r bcr2k_ch2_78;
#X obj -346 579 r bcr2k_ch2_79;
#X obj -250 580 r bcr2k_ch2_80;
#X obj -694 -227 s bcr2k_ch2_1;
#X obj -608 -226 s bcr2k_ch2_2;
#X obj -519 -226 s bcr2k_ch2_3;
#X obj -427 -227 s bcr2k_ch2_4;
#X obj -340 -226 s bcr2k_ch2_5;
#X obj -248 -227 s bcr2k_ch2_6;
#X obj -159 -227 s bcr2k_ch2_7;
#X obj -67 -228 s bcr2k_ch2_8;
#X obj -694 -251 line 0 100;
#X msg -693 -344 100;
#X msg -689 -276 0 0;
#X obj -667 -299 f;
#X obj -694 -321 t f b;
#X obj -608 -249 line 0 100;
#X msg -607 -342 100;
#X msg -604 -275 0 0;
#X obj -581 -296 f;
#X obj -608 -319 t f b;
#X obj -519 -252 line 0 100;
#X msg -518 -345 100;
#X msg -515 -278 0 0;
#X obj -492 -299 f;
#X obj -519 -322 t f b;
#X obj -427 -250 line 0 100;
#X msg -426 -343 100;
#X msg -423 -276 0 0;
#X obj -400 -297 f;
#X obj -427 -320 t f b;
#X obj -340 -251 line 0 100;
#X msg -339 -344 100;
#X msg -336 -277 0 0;
#X obj -313 -298 f;
#X obj -340 -321 t f b;
#X obj -248 -250 line 0 100;
#X msg -247 -343 100;
#X msg -244 -276 0 0;
#X obj -221 -297 f;
#X obj -248 -320 t f b;
#X obj -159 -252 line 0 100;
#X msg -158 -345 100;
#X msg -155 -278 0 0;
#X obj -132 -299 f;
#X obj -159 -322 t f b;
#X obj -67 -250 line 0 100;
#X msg -66 -343 100;
#X msg -63 -276 0 0;
#X obj -40 -297 f;
#X obj -67 -320 t f b;
#X obj 283 237 / 10;
#X obj 20 103 * 4;
#X obj -175 99 * 4;
#X obj 1264 483 delay 10;
#X obj -937 499 r bcr2k_ch3_89;
#X obj -845 497 r bcr2k_ch3_90;
#X obj -753 497 r bcr2k_ch3_91;
#X obj -660 498 r bcr2k_ch3_92;
#X obj -568 498 r bcr2k_ch3_93;
#X obj -474 496 r bcr2k_ch3_94;
#X obj -381 495 r bcr2k_ch3_95;
#X obj -289 494 r bcr2k_ch3_96;
#X obj -978 182 r bcr2k_ch3_81;
#X obj -886 181 r bcr2k_ch3_82;
#X obj -793 182 r bcr2k_ch3_83;
#X obj -701 181 r bcr2k_ch3_84;
#X obj -610 181 r bcr2k_ch3_85;
#X obj -517 181 r bcr2k_ch3_86;
#X obj -423 180 r bcr2k_ch3_87;
#X obj -332 180 r bcr2k_ch3_88;
#X obj -696 -81 s bcr2k_ch3_1;
#X obj -610 -80 s bcr2k_ch3_2;
#X obj -521 -80 s bcr2k_ch3_3;
#X obj -429 -81 s bcr2k_ch3_4;
#X obj -342 -80 s bcr2k_ch3_5;
#X obj -250 -81 s bcr2k_ch3_6;
#X obj -161 -81 s bcr2k_ch3_7;
#X obj -69 -82 s bcr2k_ch3_8;
#X obj -696 -105 line 0 100;
#X msg -695 -198 100;
#X msg -691 -130 0 0;
#X obj -669 -153 f;
#X obj -696 -175 t f b;
#X obj -610 -103 line 0 100;
#X msg -609 -196 100;
#X msg -606 -129 0 0;
#X obj -583 -150 f;
#X obj -610 -173 t f b;
#X obj -521 -106 line 0 100;
#X msg -520 -199 100;
#X msg -517 -132 0 0;
#X obj -494 -153 f;
#X obj -521 -176 t f b;
#X obj -429 -104 line 0 100;
#X msg -428 -197 100;
#X msg -425 -130 0 0;
#X obj -402 -151 f;
#X obj -429 -174 t f b;
#X obj -342 -105 line 0 100;
#X msg -341 -198 100;
#X msg -338 -131 0 0;
#X obj -315 -152 f;
#X obj -342 -175 t f b;
#X obj -250 -104 line 0 100;
#X msg -249 -197 100;
#X msg -246 -130 0 0;
#X obj -223 -151 f;
#X obj -250 -174 t f b;
#X obj -161 -106 line 0 100;
#X msg -160 -199 100;
#X msg -157 -132 0 0;
#X obj -134 -153 f;
#X obj -161 -176 t f b;
#X obj -69 -104 line 0 100;
#X msg -68 -197 100;
#X msg -65 -130 0 0;
#X obj -42 -151 f;
#X obj -69 -174 t f b;
#X obj -937 530 r bcr2k_ch2_65;
#X obj -838 530 r bcr2k_ch2_66;
#X obj -726 531 r bcr2k_ch2_67;
#X obj -618 532 r bcr2k_ch2_68;
#X obj -511 529 r bcr2k_ch2_69;
#X obj -403 528 r bcr2k_ch2_70;
#X obj -297 528 r bcr2k_ch2_71;
#X obj -194 527 r bcr2k_ch2_72;
#X obj -250 610 r bcr2k_ch3_80;
#X obj -346 609 r bcr2k_ch3_79;
#X obj -447 611 r bcr2k_ch3_78;
#X obj -547 613 r bcr2k_ch3_77;
#X obj -646 613 r bcr2k_ch3_76;
#X obj -742 612 r bcr2k_ch3_75;
#X obj -840 615 r bcr2k_ch3_74;
#X obj -935 617 r bcr2k_ch3_73;
#X obj -937 553 r bcr2k_ch3_65;
#X obj -838 553 r bcr2k_ch3_66;
#X obj -726 554 r bcr2k_ch3_67;
#X obj -618 555 r bcr2k_ch3_68;
#X obj -511 552 r bcr2k_ch3_69;
#X obj -403 551 r bcr2k_ch3_70;
#X obj -297 551 r bcr2k_ch3_71;
#X obj -194 550 r bcr2k_ch3_72;
#X obj -945 691 s bcr2k_ch2_s65;
#X obj -845 690 s bcr2k_ch2_s66;
#X obj -748 690 s bcr2k_ch2_s67;
#X obj -650 690 s bcr2k_ch2_s68;
#X obj -552 690 s bcr2k_ch2_s69;
#X obj -455 690 s bcr2k_ch2_s70;
#X obj -355 689 s bcr2k_ch2_s71;
#X obj -259 689 s bcr2k_ch2_s72;
#X obj -946 817 s bcr2k_ch2_s73;
#X obj -849 816 s bcr2k_ch2_s74;
#X obj -749 816 s bcr2k_ch2_s75;
#X obj -648 815 s bcr2k_ch2_s76;
#X obj -548 816 s bcr2k_ch2_s77;
#X obj -444 815 s bcr2k_ch2_s78;
#X obj -341 815 s bcr2k_ch2_s79;
#X obj -238 814 s bcr2k_ch2_s80;
#X obj -945 850 s bcr2k_ch3_s73;
#X obj -848 849 s bcr2k_ch3_s74;
#X obj -748 849 s bcr2k_ch3_s75;
#X obj -647 848 s bcr2k_ch3_s76;
#X obj -547 849 s bcr2k_ch3_s77;
#X obj -443 848 s bcr2k_ch3_s78;
#X obj -340 848 s bcr2k_ch3_s79;
#X obj -237 847 s bcr2k_ch3_s80;
#X obj -945 716 s bcr2k_ch3_s65;
#X obj -845 715 s bcr2k_ch3_s66;
#X obj -748 715 s bcr2k_ch3_s67;
#X obj -650 715 s bcr2k_ch3_s68;
#X obj -552 715 s bcr2k_ch3_s69;
#X obj -455 715 s bcr2k_ch3_s70;
#X obj -355 714 s bcr2k_ch3_s71;
#X obj -259 714 s bcr2k_ch3_s72;
#X obj -947 750 s bcr2k_ch2_s89;
#X obj -845 749 s bcr2k_ch2_s90;
#X obj -743 749 s bcr2k_ch2_s91;
#X obj -641 748 s bcr2k_ch2_s92;
#X obj -539 749 s bcr2k_ch2_s93;
#X obj -437 748 s bcr2k_ch2_s94;
#X obj -335 748 s bcr2k_ch2_s95;
#X obj -233 748 s bcr2k_ch2_s96;
#X obj -947 780 s bcr2k_ch3_s89;
#X obj -845 779 s bcr2k_ch3_s90;
#X obj -743 779 s bcr2k_ch3_s91;
#X obj -641 778 s bcr2k_ch3_s92;
#X obj -539 779 s bcr2k_ch3_s93;
#X obj -437 778 s bcr2k_ch3_s94;
#X obj -335 778 s bcr2k_ch3_s95;
#X obj -233 778 s bcr2k_ch3_s96;
#X obj -979 222 s bcr2k_ch2_s81;
#X obj -876 221 s bcr2k_ch2_s82;
#X obj -773 221 s bcr2k_ch2_s83;
#X obj -672 220 s bcr2k_ch2_s84;
#X obj -570 219 s bcr2k_ch2_s85;
#X obj -469 219 s bcr2k_ch2_s86;
#X obj -367 219 s bcr2k_ch2_s87;
#X obj -266 219 s bcr2k_ch2_s88;
#X obj -979 244 s bcr2k_ch3_s81;
#X obj -876 243 s bcr2k_ch3_s82;
#X obj -773 243 s bcr2k_ch3_s83;
#X obj -672 242 s bcr2k_ch3_s84;
#X obj -570 241 s bcr2k_ch3_s85;
#X obj -469 241 s bcr2k_ch3_s86;
#X obj -367 241 s bcr2k_ch3_s87;
#X obj -266 241 s bcr2k_ch3_s88;
#X obj -658 78 r bcr2k_ch3_97;
#X obj -566 77 r bcr2k_ch3_98;
#X obj -473 74 r bcr2k_ch3_99;
#X obj -381 74 r bcr2k_ch3_100;
#X obj -283 73 r bcr2k_ch3_101;
#X obj -184 72 r bcr2k_ch3_102;
#X obj -85 71 r bcr2k_ch3_103;
#X obj 14 71 r bcr2k_ch3_104;
#X obj -72 128 / 6.25;
#X obj 126 58 r bcr2k_ch3_105;
#X obj 125 87 r bcr2k_ch3_107;
#X obj 226 58 r bcr2k_ch3_106;
#X obj 225 86 r bcr2k_ch3_108;
#X obj 122 123 r bcr2k_ch4_105;
#X obj 121 152 r bcr2k_ch4_107;
#X obj 222 123 r bcr2k_ch4_106;
#X obj 221 151 r bcr2k_ch4_108;
#X obj 659 356 sel 0;
#X msg 686 393 \; pd dsp 1;
#X msg 1164 781 0;
#X obj 1164 760 bng 15 250 50 0 empty empty empty 17 7 0 10 -262144
-1 -1;
#X obj 1164 735 spigot;
#X obj 482 463 tgl 15 0 empty empty DLAY 17 7 0 10 -232576 -159808
-1 0 1;
#X text 186 330 x-time;
#X text -973 -316 these send a scaled 0-100 out to the rotary;
#X text -961 -302 encoder knobs led rings \, thus represents;
#X text -817 -288 step and duration;
#X text -978 -45 not really doing much with banks 2-4 yet...;
#X text 126 -24 bcr2k 4 push buttonz;
#X text -888 63 bottom row bank of rotary encoderz;
#X text 1251 507 used to have this;
#X text 1233 522 delay thing (twoang);
#X obj 156 934 == 0;
#X obj 115 936 == 0;
#X obj 71 939 == 0;
#X obj 25 940 == 0;
#X obj -16 941 == 0;
#X obj -49 943 == 0;
#X obj -87 944 == 0;
#X obj -128 946 == 0;
#X obj -172 949 == 0;
#X obj -218 950 == 0;
#X obj -259 951 == 0;
#X obj -300 951 == 0;
#X obj -337 952 == 0;
#X obj -446 950 == 0;
#X obj -373 952 == 0;
#X obj -410 951 == 0;
#X text -586 951 mute when freq == 0;
#N canvas 34 189 450 300 bcr2k_ch2 0;
#X floatatom 50 784 5 0 0 0 - - -, f 5;
#X obj 38 393 ctlin 73 2;
#X obj 15 601 ctlin 81 2;
#X obj 40 757 ctlin 89 2;
#X floatatom 142 784 5 0 0 0 - - -, f 5;
#X floatatom 162 936 5 0 0 0 - - -, f 5;
#X floatatom 234 784 5 0 0 0 - - -, f 5;
#X floatatom 254 936 5 0 0 0 - - -, f 5;
#X floatatom 326 784 5 0 0 0 - - -, f 5;
#X floatatom 346 936 5 0 0 0 - - -, f 5;
#X floatatom 418 784 5 0 0 0 - - -, f 5;
#X floatatom 444 936 5 0 0 0 - - -, f 5;
#X floatatom 510 784 5 0 0 0 - - -, f 5;
#X floatatom 543 936 5 0 0 0 - - -, f 5;
#X floatatom 602 784 5 0 0 0 - - -, f 5;
#X floatatom 642 936 5 0 0 0 - - -, f 5;
#X floatatom 694 784 5 0 0 0 - - -, f 5;
#X floatatom 741 936 5 0 0 0 - - -, f 5;
#X obj 130 393 ctlin 74 2;
#X obj 220 393 ctlin 75 2;
#X obj 311 393 ctlin 76 2;
#X obj 401 393 ctlin 77 2;
#X obj 494 393 ctlin 78 2;
#X obj 588 393 ctlin 79 2;
#X obj 681 393 ctlin 80 2;
#X obj 118 601 ctlin 82 2;
#X obj 221 601 ctlin 83 2;
#X obj 322 601 ctlin 84 2;
#X obj 424 601 ctlin 85 2;
#X obj 525 601 ctlin 86 2;
#X obj 627 601 ctlin 87 2;
#X obj 728 601 ctlin 88 2;
#X obj 132 757 ctlin 90 2;
#X obj 224 757 ctlin 91 2;
#X obj 316 757 ctlin 92 2;
#X obj 408 757 ctlin 93 2;
#X obj 500 757 ctlin 94 2;
#X obj 592 757 ctlin 95 2;
#X obj 684 757 ctlin 96 2;
#X obj 152 909 ctlin 98 2;
#X obj 244 909 ctlin 99 2;
#X obj 336 909 ctlin 100 2;
#X obj 434 909 ctlin 101 2;
#X obj 533 909 ctlin 102 2;
#X obj 632 909 ctlin 103 2;
#X obj 731 909 ctlin 104 2;
#X obj 854 601 ctlin 105 2;
#X obj 853 689 ctlin 107 2;
#X obj 952 688 ctlin 108 2;
#X obj 953 600 ctlin 106 2;
#X obj 719 -54 ctlin 16 2;
#X obj 163 -124 ctlin 2 2;
#X obj 253 -124 ctlin 3 2;
#X obj 343 -124 ctlin 4 2;
#X obj 433 -124 ctlin 5 2;
#X obj 523 -124 ctlin 6 2;
#X obj 613 -124 ctlin 7 2;
#X obj 73 -124 ctlin 1 2;
#X obj 703 -124 ctlin 8 2;
#X obj 627 -55 ctlin 15 2;
#X obj 536 -54 ctlin 14 2;
#X obj 443 -53 ctlin 13 2;
#X obj 351 -55 ctlin 12 2;
#X obj 253 -54 ctlin 11 2;
#X obj 163 -54 ctlin 10 2;
#X obj 73 -54 ctlin 9 2;
#X obj 163 16 ctlin 18 2;
#X obj 253 16 ctlin 19 2;
#X obj 352 17 ctlin 20 2;
#X obj 440 18 ctlin 21 2;
#X obj 533 16 ctlin 22 2;
#X obj 624 15 ctlin 23 2;
#X obj 717 16 ctlin 24 2;
#X obj 73 86 ctlin 25 2;
#X obj 163 86 ctlin 26 2;
#X obj 253 86 ctlin 27 2;
#X obj 349 86 ctlin 28 2;
#X obj 440 85 ctlin 29 2;
#X obj 533 86 ctlin 30 2;
#X obj 624 86 ctlin 31 2;
#X obj 717 86 ctlin 32 2;
#X obj 867 627 tgl 15 0 empty empty empty 17 7 0 10 -262144 -1 -1 0
1;
#X obj 967 624 tgl 15 0 empty empty empty 17 7 0 10 -262144 -1 -1 0
1;
#X obj 873 714 tgl 15 0 empty empty empty 17 7 0 10 -262144 -1 -1 0
1;
#X obj 977 715 tgl 15 0 empty empty empty 17 7 0 10 -262144 -1 -1 0
1;
#X obj 72 -27 s bcr2k_ch2_9;
#X obj 164 -28 s bcr2k_ch2_10;
#X obj 256 -28 s bcr2k_ch2_11;
#X obj 352 -29 s bcr2k_ch2_12;
#X obj 443 -28 s bcr2k_ch2_13;
#X obj 535 -29 s bcr2k_ch2_14;
#X obj 628 -29 s bcr2k_ch2_15;
#X obj 720 -30 s bcr2k_ch2_16;
#X obj 70 44 s bcr2k_ch2_17;
#X obj 73 16 ctlin 17 2;
#X obj 162 43 s bcr2k_ch2_18;
#X obj 254 43 s bcr2k_ch2_19;
#X obj 350 42 s bcr2k_ch2_20;
#X obj 441 43 s bcr2k_ch2_21;
#X obj 533 42 s bcr2k_ch2_22;
#X obj 626 42 s bcr2k_ch2_23;
#X obj 718 41 s bcr2k_ch2_24;
#X obj 70 110 s bcr2k_ch2_25;
#X obj 162 109 s bcr2k_ch2_26;
#X obj 254 109 s bcr2k_ch2_27;
#X obj 350 108 s bcr2k_ch2_28;
#X obj 441 109 s bcr2k_ch2_29;
#X obj 533 108 s bcr2k_ch2_30;
#X obj 626 108 s bcr2k_ch2_31;
#X obj 718 107 s bcr2k_ch2_32;
#X obj 15 649 s bcr2k_ch2_81;
#X obj 118 648 s bcr2k_ch2_82;
#X obj 221 648 s bcr2k_ch2_83;
#X obj 322 647 s bcr2k_ch2_84;
#X obj 424 646 s bcr2k_ch2_85;
#X obj 525 646 s bcr2k_ch2_86;
#X obj 627 646 s bcr2k_ch2_87;
#X obj 728 646 s bcr2k_ch2_88;
#X obj 953 648 s bcr2k_ch2_106;
#X obj 854 648 s bcr2k_ch2_105;
#X obj 40 805 s bcr2k_ch2_89;
#X obj 132 804 s bcr2k_ch2_90;
#X obj 224 804 s bcr2k_ch2_91;
#X obj 316 803 s bcr2k_ch2_92;
#X obj 408 804 s bcr2k_ch2_93;
#X obj 500 803 s bcr2k_ch2_94;
#X obj 592 803 s bcr2k_ch2_95;
#X obj 684 803 s bcr2k_ch2_96;
#X obj 852 733 s bcr2k_ch2_107;
#X obj 952 734 s bcr2k_ch2_108;
#X obj 60 959 s bcr2k_ch2_97;
#X obj 152 958 s bcr2k_ch2_98;
#X obj 244 958 s bcr2k_ch2_99;
#X obj 336 957 s bcr2k_ch2_100;
#X obj 434 958 s bcr2k_ch2_101;
#X obj 533 957 s bcr2k_ch2_102;
#X obj 632 957 s bcr2k_ch2_103;
#X obj 731 956 s bcr2k_ch2_104;
#X obj 38 424 s bcr2k_ch2_73;
#X obj 130 423 s bcr2k_ch2_74;
#X obj 220 423 s bcr2k_ch2_75;
#X obj 311 422 s bcr2k_ch2_76;
#X obj 401 423 s bcr2k_ch2_77;
#X obj 495 422 s bcr2k_ch2_78;
#X obj 588 422 s bcr2k_ch2_79;
#X obj 681 421 s bcr2k_ch2_80;
#X obj 71 -102 r bcr2k_ch2_1;
#X obj 163 -103 r bcr2k_ch2_2;
#X obj 253 -103 r bcr2k_ch2_3;
#X obj 344 -103 r bcr2k_ch2_4;
#X obj 433 -103 r bcr2k_ch2_5;
#X obj 523 -102 r bcr2k_ch2_6;
#X obj 612 -103 r bcr2k_ch2_7;
#X obj 704 -103 r bcr2k_ch2_8;
#X obj 71 -78 ctlout 1 2;
#X obj 163 -81 ctlout 2 2;
#X obj 254 -80 ctlout 3 2;
#X obj 344 -78 ctlout 4 2;
#X obj 433 -79 ctlout 5 2;
#X obj 523 -77 ctlout 6 2;
#X obj 612 -78 ctlout 7 2;
#X obj 704 -79 ctlout 8 2;
#X msg 109 281 127;
#X msg 81 299 0;
#X msg 201 285 127;
#X msg 173 306 0;
#X msg 843 284 127;
#X msg 748 275 127;
#X msg 721 298 0;
#X msg 618 284 127;
#X msg 594 304 0;
#X msg 528 272 127;
#X msg 501 295 0;
#X msg 424 277 127;
#X msg 397 300 0;
#X msg 317 281 127;
#X msg 290 303 0;
#X msg 816 305 0;
#X obj 42 563 ctlout 73 2;
#X obj 134 563 ctlout 74 2;
#X obj 224 563 ctlout 75 2;
#X obj 315 563 ctlout 76 2;
#X obj 405 563 ctlout 77 2;
#X obj 498 563 ctlout 78 2;
#X obj 592 563 ctlout 79 2;
#X obj 685 563 ctlout 80 2;
#X obj 54 343 ctlout 65 2;
#X obj 290 339 ctlout 67 2;
#X obj 171 339 ctlout 66 2;
#X obj 397 339 ctlout 68 2;
#X obj 501 338 ctlout 69 2;
#X obj 594 338 ctlout 70 2;
#X obj 721 339 ctlout 71 2;
#X obj 816 339 ctlout 72 2;
#X obj 41 164 ctlin 65 2;
#X obj 41 195 s bcr2k_ch2_65;
#X obj 141 164 ctlin 66 2;
#X obj 141 194 s bcr2k_ch2_66;
#X obj 253 164 ctlin 67 2;
#X obj 253 196 s bcr2k_ch2_67;
#X obj 361 164 ctlin 68 2;
#X obj 361 193 s bcr2k_ch2_68;
#X obj 468 163 ctlin 69 2;
#X obj 468 193 s bcr2k_ch2_69;
#X obj 575 163 ctlin 70 2;
#X obj 576 192 s bcr2k_ch2_70;
#X obj 682 164 ctlin 71 2;
#X obj 682 193 s bcr2k_ch2_71;
#X obj 785 164 ctlin 72 2;
#X obj 785 192 s bcr2k_ch2_72;
#X obj 41 228 r bcr2k_ch2_s65;
#X obj 140 228 r bcr2k_ch2_s66;
#X obj 252 229 r bcr2k_ch2_s67;
#X obj 360 230 r bcr2k_ch2_s68;
#X obj 467 227 r bcr2k_ch2_s69;
#X obj 575 226 r bcr2k_ch2_s70;
#X obj 681 226 r bcr2k_ch2_s71;
#X obj 784 225 r bcr2k_ch2_s72;
#X obj 40 456 r bcr2k_ch2_s73;
#X obj 139 458 r bcr2k_ch2_s74;
#X obj 237 455 r bcr2k_ch2_s75;
#X obj 333 456 r bcr2k_ch2_s76;
#X obj 432 456 r bcr2k_ch2_s77;
#X obj 532 454 r bcr2k_ch2_s78;
#X obj 633 452 r bcr2k_ch2_s79;
#X obj 729 453 r bcr2k_ch2_s80;
#X obj 80 254 sel 0;
#X obj 172 261 sel 0;
#X obj 290 258 sel 0;
#X obj 397 255 sel 0;
#X obj 501 250 sel 0;
#X obj 603 264 sel 0;
#X obj 721 253 sel 0;
#X obj 816 260 sel 0;
#X obj 48 482 sel 0;
#X obj 160 492 sel 0;
#X obj 278 489 sel 0;
#X obj 385 486 sel 0;
#X obj 497 482 sel 0;
#X obj 564 483 sel 0;
#X obj 639 496 sel 0;
#X obj 771 484 sel 0;
#X msg 49 527 0;
#X msg 77 509 127;
#X msg 161 537 0;
#X msg 189 516 127;
#X msg 305 512 127;
#X msg 412 508 127;
#X msg 524 504 127;
#X msg 591 507 127;
#X msg 654 516 127;
#X msg 798 506 127;
#X msg 771 529 0;
#X msg 630 536 0;
#X msg 564 528 0;
#X msg 497 527 0;
#X msg 385 531 0;
#X msg 278 534 0;
#X obj 754 865 ctlout 96 2;
#X obj 652 865 ctlout 95 2;
#X obj 550 865 ctlout 94 2;
#X obj 448 865 ctlout 93 2;
#X obj 346 865 ctlout 92 2;
#X obj 244 865 ctlout 91 2;
#X obj 142 865 ctlout 90 2;
#X obj 41 865 ctlout 89 2;
#X obj 40 838 r bcr2k_ch2_s89;
#X obj 142 837 r bcr2k_ch2_s90;
#X obj 244 837 r bcr2k_ch2_s91;
#X obj 346 836 r bcr2k_ch2_s92;
#X obj 448 837 r bcr2k_ch2_s93;
#X obj 550 836 r bcr2k_ch2_s94;
#X obj 652 836 r bcr2k_ch2_s95;
#X obj 754 836 r bcr2k_ch2_s96;
#X obj 730 681 r bcr2k_ch2_s88;
#X obj 730 710 ctlout 88 2;
#X obj 628 681 r bcr2k_ch2_s87;
#X obj 628 710 ctlout 87 2;
#X obj 526 681 r bcr2k_ch2_s86;
#X obj 526 710 ctlout 86 2;
#X obj 424 682 r bcr2k_ch2_s85;
#X obj 423 710 ctlout 85 2;
#X obj 322 681 r bcr2k_ch2_s84;
#X obj 322 710 ctlout 84 2;
#X obj 220 682 r bcr2k_ch2_s83;
#X obj 220 710 ctlout 83 2;
#X obj 118 682 r bcr2k_ch2_s82;
#X obj 118 710 ctlout 82 2;
#X obj 16 683 r bcr2k_ch2_s81;
#X obj 17 710 ctlout 81 2;
#X obj 15 624 moses 1;
#X obj 118 623 moses 1;
#X obj 221 623 moses 1;
#X obj 322 623 moses 1;
#X obj 424 623 moses 1;
#X obj 525 623 moses 1;
#X obj 627 623 moses 1;
#X obj 728 623 moses 1;
#X obj 60 909 ctlin 97 2;
#X obj 60 931 moses 1;
#X connect 1 0 138 0;
#X connect 2 0 290 0;
#X connect 3 0 0 0;
#X connect 3 0 120 0;
#X connect 18 0 139 0;
#X connect 19 0 140 0;
#X connect 20 0 141 0;
#X connect 21 0 142 0;
#X connect 22 0 143 0;
#X connect 23 0 144 0;
#X connect 24 0 145 0;
#X connect 25 0 291 0;
#X connect 26 0 292 0;
#X connect 27 0 293 0;
#X connect 28 0 294 0;
#X connect 29 0 295 0;
#X connect 30 0 296 0;
#X connect 31 0 297 0;
#X connect 32 0 4 0;
#X connect 32 0 121 0;
#X connect 33 0 6 0;
#X connect 33 0 122 0;
#X connect 34 0 8 0;
#X connect 34 0 123 0;
#X connect 35 0 10 0;
#X connect 35 0 124 0;
#X connect 36 0 12 0;
#X connect 36 0 125 0;
#X connect 37 0 14 0;
#X connect 37 0 126 0;
#X connect 38 0 16 0;
#X connect 38 0 127 0;
#X connect 39 0 5 0;
#X connect 39 0 131 0;
#X connect 40 0 7 0;
#X connect 40 0 132 0;
#X connect 41 0 9 0;
#X connect 41 0 133 0;
#X connect 42 0 11 0;
#X connect 42 0 134 0;
#X connect 43 0 13 0;
#X connect 43 0 135 0;
#X connect 44 0 15 0;
#X connect 44 0 136 0;
#X connect 45 0 17 0;
#X connect 45 0 137 0;
#X connect 46 0 81 0;
#X connect 46 0 119 0;
#X connect 47 0 83 0;
#X connect 47 0 128 0;
#X connect 48 0 84 0;
#X connect 48 0 129 0;
#X connect 49 0 82 0;
#X connect 49 0 118 0;
#X connect 50 0 92 0;
#X connect 59 0 91 0;
#X connect 60 0 90 0;
#X connect 61 0 89 0;
#X connect 62 0 88 0;
#X connect 63 0 87 0;
#X connect 64 0 86 0;
#X connect 65 0 85 0;
#X connect 66 0 95 0;
#X connect 67 0 96 0;
#X connect 68 0 97 0;
#X connect 69 0 98 0;
#X connect 70 0 99 0;
#X connect 71 0 100 0;
#X connect 72 0 101 0;
#X connect 73 0 102 0;
#X connect 74 0 103 0;
#X connect 75 0 104 0;
#X connect 76 0 105 0;
#X connect 77 0 106 0;
#X connect 78 0 107 0;
#X connect 79 0 108 0;
#X connect 80 0 109 0;
#X connect 94 0 93 0;
#X connect 146 0 154 0;
#X connect 147 0 155 0;
#X connect 148 0 156 0;
#X connect 149 0 157 0;
#X connect 150 0 158 0;
#X connect 151 0 159 0;
#X connect 152 0 160 0;
#X connect 153 0 161 0;
#X connect 162 0 186 0;
#X connect 163 0 186 0;
#X connect 164 0 188 0;
#X connect 165 0 188 0;
#X connect 166 0 193 0;
#X connect 167 0 192 0;
#X connect 168 0 192 0;
#X connect 169 0 191 0;
#X connect 170 0 191 0;
#X connect 171 0 190 0;
#X connect 172 0 190 0;
#X connect 173 0 189 0;
#X connect 174 0 189 0;
#X connect 175 0 187 0;
#X connect 176 0 187 0;
#X connect 177 0 193 0;
#X connect 194 0 195 0;
#X connect 196 0 197 0;
#X connect 198 0 199 0;
#X connect 200 0 201 0;
#X connect 202 0 203 0;
#X connect 204 0 205 0;
#X connect 206 0 207 0;
#X connect 208 0 209 0;
#X connect 210 0 226 0;
#X connect 211 0 227 0;
#X connect 212 0 228 0;
#X connect 213 0 229 0;
#X connect 214 0 230 0;
#X connect 215 0 231 0;
#X connect 216 0 232 0;
#X connect 217 0 233 0;
#X connect 218 0 234 0;
#X connect 219 0 235 0;
#X connect 220 0 236 0;
#X connect 221 0 237 0;
#X connect 222 0 238 0;
#X connect 223 0 239 0;
#X connect 224 0 240 0;
#X connect 225 0 241 0;
#X connect 226 0 163 0;
#X connect 226 1 162 0;
#X connect 227 0 165 0;
#X connect 227 1 164 0;
#X connect 228 0 176 0;
#X connect 228 1 175 0;
#X connect 229 0 174 0;
#X connect 229 1 173 0;
#X connect 230 0 172 0;
#X connect 230 1 171 0;
#X connect 231 0 170 0;
#X connect 231 1 169 0;
#X connect 232 0 168 0;
#X connect 232 1 167 0;
#X connect 233 0 177 0;
#X connect 233 1 166 0;
#X connect 234 0 242 0;
#X connect 234 1 243 0;
#X connect 235 0 244 0;
#X connect 235 1 245 0;
#X connect 236 0 257 0;
#X connect 236 1 246 0;
#X connect 237 0 256 0;
#X connect 237 1 247 0;
#X connect 238 0 255 0;
#X connect 238 1 248 0;
#X connect 239 0 254 0;
#X connect 239 1 249 0;
#X connect 240 0 253 0;
#X connect 240 1 250 0;
#X connect 241 0 252 0;
#X connect 241 1 251 0;
#X connect 242 0 178 0;
#X connect 243 0 178 0;
#X connect 244 0 179 0;
#X connect 245 0 179 0;
#X connect 246 0 180 0;
#X connect 247 0 181 0;
#X connect 248 0 182 0;
#X connect 249 0 183 0;
#X connect 250 0 184 0;
#X connect 251 0 185 0;
#X connect 252 0 185 0;
#X connect 253 0 184 0;
#X connect 254 0 183 0;
#X connect 255 0 182 0;
#X connect 256 0 181 0;
#X connect 257 0 180 0;
#X connect 266 0 265 0;
#X connect 267 0 264 0;
#X connect 268 0 263 0;
#X connect 269 0 262 0;
#X connect 270 0 261 0;
#X connect 271 0 260 0;
#X connect 272 0 259 0;
#X connect 273 0 258 0;
#X connect 274 0 275 0;
#X connect 276 0 277 0;
#X connect 278 0 279 0;
#X connect 280 0 281 0;
#X connect 282 0 283 0;
#X connect 284 0 285 0;
#X connect 286 0 287 0;
#X connect 288 0 289 0;
#X connect 290 1 110 0;
#X connect 291 1 111 0;
#X connect 292 1 112 0;
#X connect 293 1 113 0;
#X connect 294 1 114 0;
#X connect 295 1 115 0;
#X connect 296 1 116 0;
#X connect 297 1 117 0;
#X connect 298 0 299 0;
#X connect 299 1 130 0;
#X restore -625 -369 pd bcr2k_ch2;
#N canvas 0 22 450 300 bcr2k_ch3 0;
#X floatatom 50 784 5 0 0 0 - - -, f 5;
#X obj 38 393 ctlin 73 3;
#X obj 40 757 ctlin 89 3;
#X floatatom 142 784 5 0 0 0 - - -, f 5;
#X floatatom 162 936 5 0 0 0 - - -, f 5;
#X floatatom 234 784 5 0 0 0 - - -, f 5;
#X floatatom 254 936 5 0 0 0 - - -, f 5;
#X floatatom 326 784 5 0 0 0 - - -, f 5;
#X floatatom 346 936 5 0 0 0 - - -, f 5;
#X floatatom 418 784 5 0 0 0 - - -, f 5;
#X floatatom 444 936 5 0 0 0 - - -, f 5;
#X floatatom 510 784 5 0 0 0 - - -, f 5;
#X floatatom 543 936 5 0 0 0 - - -, f 5;
#X floatatom 602 784 5 0 0 0 - - -, f 5;
#X floatatom 642 936 5 0 0 0 - - -, f 5;
#X floatatom 694 784 5 0 0 0 - - -, f 5;
#X floatatom 741 936 5 0 0 0 - - -, f 5;
#X obj 130 393 ctlin 74 3;
#X obj 220 393 ctlin 75 3;
#X obj 311 393 ctlin 76 3;
#X obj 401 393 ctlin 77 3;
#X obj 494 393 ctlin 78 3;
#X obj 588 393 ctlin 79 3;
#X obj 681 393 ctlin 80 3;
#X obj 132 757 ctlin 90 3;
#X obj 224 757 ctlin 91 3;
#X obj 316 757 ctlin 92 3;
#X obj 408 757 ctlin 93 3;
#X obj 500 757 ctlin 94 3;
#X obj 592 757 ctlin 95 3;
#X obj 684 757 ctlin 96 3;
#X obj 152 909 ctlin 98 3;
#X obj 244 909 ctlin 99 3;
#X obj 336 909 ctlin 100 3;
#X obj 434 909 ctlin 101 3;
#X obj 533 909 ctlin 102 3;
#X obj 632 909 ctlin 103 3;
#X obj 731 909 ctlin 104 3;
#X obj 854 601 ctlin 105 3;
#X obj 853 689 ctlin 107 3;
#X obj 952 688 ctlin 108 3;
#X obj 953 600 ctlin 106 3;
#X obj 719 -54 ctlin 16 3;
#X obj 163 -124 ctlin 2 3;
#X obj 253 -124 ctlin 3 3;
#X obj 343 -124 ctlin 4 3;
#X obj 433 -124 ctlin 5 3;
#X obj 523 -124 ctlin 6 3;
#X obj 613 -124 ctlin 7 3;
#X obj 73 -124 ctlin 1 3;
#X obj 703 -124 ctlin 8 3;
#X obj 627 -55 ctlin 15 3;
#X obj 536 -54 ctlin 14 3;
#X obj 443 -53 ctlin 13 3;
#X obj 351 -55 ctlin 12 3;
#X obj 253 -54 ctlin 11 3;
#X obj 163 -54 ctlin 10 3;
#X obj 73 -54 ctlin 9 3;
#X obj 163 16 ctlin 18 3;
#X obj 253 16 ctlin 19 3;
#X obj 352 17 ctlin 20 3;
#X obj 440 18 ctlin 21 3;
#X obj 533 16 ctlin 22 3;
#X obj 624 15 ctlin 23 3;
#X obj 717 16 ctlin 24 3;
#X obj 73 86 ctlin 25 3;
#X obj 163 86 ctlin 26 3;
#X obj 253 86 ctlin 27 3;
#X obj 349 86 ctlin 28 3;
#X obj 440 85 ctlin 29 3;
#X obj 533 86 ctlin 30 3;
#X obj 624 86 ctlin 31 3;
#X obj 717 86 ctlin 32 3;
#X obj 867 627 tgl 15 0 empty empty empty 17 7 0 10 -262144 -1 -1 0
1;
#X obj 967 624 tgl 15 0 empty empty empty 17 7 0 10 -262144 -1 -1 0
1;
#X obj 873 714 tgl 15 0 empty empty empty 17 7 0 10 -262144 -1 -1 0
1;
#X obj 977 715 tgl 15 0 empty empty empty 17 7 0 10 -262144 -1 -1 0
1;
#X obj 72 -27 s bcr2k_ch3_9;
#X obj 164 -28 s bcr2k_ch3_10;
#X obj 256 -28 s bcr2k_ch3_11;
#X obj 352 -29 s bcr2k_ch3_12;
#X obj 443 -28 s bcr2k_ch3_13;
#X obj 535 -29 s bcr2k_ch3_14;
#X obj 628 -29 s bcr2k_ch3_15;
#X obj 720 -30 s bcr2k_ch3_16;
#X obj 70 44 s bcr2k_ch3_17;
#X obj 73 16 ctlin 17 3;
#X obj 162 43 s bcr2k_ch3_18;
#X obj 254 43 s bcr2k_ch3_19;
#X obj 350 42 s bcr2k_ch3_20;
#X obj 441 43 s bcr2k_ch3_21;
#X obj 533 42 s bcr2k_ch3_22;
#X obj 626 42 s bcr2k_ch3_23;
#X obj 718 41 s bcr2k_ch3_24;
#X obj 70 110 s bcr2k_ch3_25;
#X obj 162 109 s bcr2k_ch3_26;
#X obj 254 109 s bcr2k_ch3_27;
#X obj 350 108 s bcr2k_ch3_28;
#X obj 441 109 s bcr2k_ch3_29;
#X obj 533 108 s bcr2k_ch3_30;
#X obj 626 108 s bcr2k_ch3_31;
#X obj 718 107 s bcr2k_ch3_32;
#X obj 15 649 s bcr2k_ch3_81;
#X obj 118 648 s bcr2k_ch3_82;
#X obj 221 648 s bcr2k_ch3_83;
#X obj 322 647 s bcr2k_ch3_84;
#X obj 424 646 s bcr2k_ch3_85;
#X obj 525 646 s bcr2k_ch3_86;
#X obj 627 646 s bcr2k_ch3_87;
#X obj 728 646 s bcr2k_ch3_88;
#X obj 953 648 s bcr2k_ch3_106;
#X obj 854 648 s bcr2k_ch3_105;
#X obj 40 805 s bcr2k_ch3_89;
#X obj 132 804 s bcr2k_ch3_90;
#X obj 224 804 s bcr2k_ch3_91;
#X obj 316 803 s bcr2k_ch3_92;
#X obj 408 804 s bcr2k_ch3_93;
#X obj 500 803 s bcr2k_ch3_94;
#X obj 592 803 s bcr2k_ch3_95;
#X obj 684 803 s bcr2k_ch3_96;
#X obj 852 733 s bcr2k_ch3_107;
#X obj 952 734 s bcr2k_ch3_108;
#X obj 60 959 s bcr2k_ch3_97;
#X obj 152 958 s bcr2k_ch3_98;
#X obj 244 958 s bcr2k_ch3_99;
#X obj 336 957 s bcr2k_ch3_100;
#X obj 434 958 s bcr2k_ch3_101;
#X obj 533 957 s bcr2k_ch3_102;
#X obj 632 957 s bcr2k_ch3_103;
#X obj 731 956 s bcr2k_ch3_104;
#X obj 38 424 s bcr2k_ch3_73;
#X obj 130 423 s bcr2k_ch3_74;
#X obj 220 423 s bcr2k_ch3_75;
#X obj 311 422 s bcr2k_ch3_76;
#X obj 401 423 s bcr2k_ch3_77;
#X obj 495 422 s bcr2k_ch3_78;
#X obj 588 422 s bcr2k_ch3_79;
#X obj 681 421 s bcr2k_ch3_80;
#X obj 71 -102 r bcr2k_ch3_1;
#X obj 163 -103 r bcr2k_ch3_2;
#X obj 253 -103 r bcr2k_ch3_3;
#X obj 344 -103 r bcr2k_ch3_4;
#X obj 433 -103 r bcr2k_ch3_5;
#X obj 523 -102 r bcr2k_ch3_6;
#X obj 612 -103 r bcr2k_ch3_7;
#X obj 704 -103 r bcr2k_ch3_8;
#X obj 71 -78 ctlout 1 3;
#X obj 163 -81 ctlout 2 3;
#X obj 254 -80 ctlout 3 3;
#X obj 344 -78 ctlout 4 3;
#X obj 433 -79 ctlout 5 3;
#X obj 523 -77 ctlout 6 3;
#X obj 612 -78 ctlout 7 3;
#X obj 704 -79 ctlout 8 3;
#X msg 109 281 127;
#X msg 81 299 0;
#X msg 201 285 127;
#X msg 173 306 0;
#X msg 843 284 127;
#X msg 748 275 127;
#X msg 721 298 0;
#X msg 618 284 127;
#X msg 594 304 0;
#X msg 528 272 127;
#X msg 501 295 0;
#X msg 424 277 127;
#X msg 397 300 0;
#X msg 317 281 127;
#X msg 290 303 0;
#X msg 816 305 0;
#X obj 42 563 ctlout 73 3;
#X obj 134 563 ctlout 74 3;
#X obj 224 563 ctlout 75 3;
#X obj 315 563 ctlout 76 3;
#X obj 405 563 ctlout 77 3;
#X obj 498 563 ctlout 78 3;
#X obj 592 563 ctlout 79 3;
#X obj 685 563 ctlout 80 3;
#X obj 54 343 ctlout 65 3;
#X obj 290 339 ctlout 67 3;
#X obj 171 339 ctlout 66 3;
#X obj 397 339 ctlout 68 3;
#X obj 501 338 ctlout 69 3;
#X obj 594 338 ctlout 70 3;
#X obj 721 339 ctlout 71 3;
#X obj 816 339 ctlout 72 3;
#X obj 41 164 ctlin 65 3;
#X obj 41 195 s bcr2k_ch3_65;
#X obj 141 164 ctlin 66 3;
#X obj 141 194 s bcr2k_ch3_66;
#X obj 253 164 ctlin 67 3;
#X obj 253 196 s bcr2k_ch3_67;
#X obj 361 164 ctlin 68 3;
#X obj 361 193 s bcr2k_ch3_68;
#X obj 468 163 ctlin 69 3;
#X obj 468 193 s bcr2k_ch3_69;
#X obj 575 163 ctlin 70 3;
#X obj 576 192 s bcr2k_ch3_70;
#X obj 682 164 ctlin 71 3;
#X obj 682 193 s bcr2k_ch3_71;
#X obj 785 164 ctlin 72 3;
#X obj 785 192 s bcr2k_ch3_72;
#X obj 41 228 r bcr2k_ch3_s65;
#X obj 140 228 r bcr2k_ch3_s66;
#X obj 252 229 r bcr2k_ch3_s67;
#X obj 360 230 r bcr2k_ch3_s68;
#X obj 467 227 r bcr2k_ch3_s69;
#X obj 575 226 r bcr2k_ch3_s70;
#X obj 681 226 r bcr2k_ch3_s71;
#X obj 784 225 r bcr2k_ch3_s72;
#X obj 40 456 r bcr2k_ch3_s73;
#X obj 139 458 r bcr2k_ch3_s74;
#X obj 237 455 r bcr2k_ch3_s75;
#X obj 333 456 r bcr2k_ch3_s76;
#X obj 432 456 r bcr2k_ch3_s77;
#X obj 532 454 r bcr2k_ch3_s78;
#X obj 633 452 r bcr2k_ch3_s79;
#X obj 729 453 r bcr2k_ch3_s80;
#X obj 80 254 sel 0;
#X obj 172 261 sel 0;
#X obj 290 258 sel 0;
#X obj 397 255 sel 0;
#X obj 501 250 sel 0;
#X obj 603 264 sel 0;
#X obj 721 253 sel 0;
#X obj 816 260 sel 0;
#X obj 48 482 sel 0;
#X obj 160 492 sel 0;
#X obj 278 489 sel 0;
#X obj 385 486 sel 0;
#X obj 497 482 sel 0;
#X obj 564 483 sel 0;
#X obj 639 496 sel 0;
#X obj 771 484 sel 0;
#X msg 49 527 0;
#X msg 77 509 127;
#X msg 161 537 0;
#X msg 189 516 127;
#X msg 305 512 127;
#X msg 412 508 127;
#X msg 524 504 127;
#X msg 591 507 127;
#X msg 654 516 127;
#X msg 798 506 127;
#X msg 771 529 0;
#X msg 630 536 0;
#X msg 564 528 0;
#X msg 497 527 0;
#X msg 385 531 0;
#X msg 278 534 0;
#X obj 754 865 ctlout 96 3;
#X obj 652 865 ctlout 95 3;
#X obj 550 865 ctlout 94 3;
#X obj 448 865 ctlout 93 3;
#X obj 346 865 ctlout 92 3;
#X obj 244 865 ctlout 91 3;
#X obj 142 865 ctlout 90 3;
#X obj 41 865 ctlout 89 3;
#X obj 40 838 r bcr2k_ch3_s89;
#X obj 142 837 r bcr2k_ch3_s90;
#X obj 244 837 r bcr2k_ch3_s91;
#X obj 346 836 r bcr2k_ch3_s92;
#X obj 448 837 r bcr2k_ch3_s93;
#X obj 550 836 r bcr2k_ch3_s94;
#X obj 652 836 r bcr2k_ch3_s95;
#X obj 754 836 r bcr2k_ch3_s96;
#X obj 730 681 r bcr2k_ch3_s88;
#X obj 730 710 ctlout 88 3;
#X obj 628 681 r bcr2k_ch3_s87;
#X obj 628 710 ctlout 87 3;
#X obj 526 681 r bcr2k_ch3_s86;
#X obj 526 710 ctlout 86 3;
#X obj 424 682 r bcr2k_ch3_s85;
#X obj 423 710 ctlout 85 3;
#X obj 322 681 r bcr2k_ch3_s84;
#X obj 322 710 ctlout 84 3;
#X obj 220 682 r bcr2k_ch3_s83;
#X obj 220 710 ctlout 83 3;
#X obj 118 682 r bcr2k_ch3_s82;
#X obj 118 710 ctlout 82 3;
#X obj 16 683 r bcr2k_ch3_s81;
#X obj 17 710 ctlout 81 3;
#X obj 15 601 ctlin 81 3;
#X obj 118 601 ctlin 82 3;
#X obj 221 601 ctlin 83 3;
#X obj 322 601 ctlin 84 3;
#X obj 424 601 ctlin 85 3;
#X obj 525 601 ctlin 86 3;
#X obj 627 601 ctlin 87 3;
#X obj 728 601 ctlin 88 3;
#X obj 15 623 moses 1;
#X obj 118 623 moses 1;
#X obj 221 623 moses 1;
#X obj 322 623 moses 1;
#X obj 424 623 moses 1;
#X obj 525 623 moses 1;
#X obj 627 623 moses 1;
#X obj 728 623 moses 1;
#X obj 60 909 ctlin 97 3;
#X obj 60 931 moses 1;
#X connect 1 0 130 0;
#X connect 2 0 0 0;
#X connect 2 0 112 0;
#X connect 17 0 131 0;
#X connect 18 0 132 0;
#X connect 19 0 133 0;
#X connect 20 0 134 0;
#X connect 21 0 135 0;
#X connect 22 0 136 0;
#X connect 23 0 137 0;
#X connect 24 0 3 0;
#X connect 24 0 113 0;
#X connect 25 0 5 0;
#X connect 25 0 114 0;
#X connect 26 0 7 0;
#X connect 26 0 115 0;
#X connect 27 0 9 0;
#X connect 27 0 116 0;
#X connect 28 0 11 0;
#X connect 28 0 117 0;
#X connect 29 0 13 0;
#X connect 29 0 118 0;
#X connect 30 0 15 0;
#X connect 30 0 119 0;
#X connect 31 0 4 0;
#X connect 31 0 123 0;
#X connect 32 0 6 0;
#X connect 32 0 124 0;
#X connect 33 0 8 0;
#X connect 33 0 125 0;
#X connect 34 0 10 0;
#X connect 34 0 126 0;
#X connect 35 0 12 0;
#X connect 35 0 127 0;
#X connect 36 0 14 0;
#X connect 36 0 128 0;
#X connect 37 0 16 0;
#X connect 37 0 129 0;
#X connect 38 0 73 0;
#X connect 38 0 111 0;
#X connect 39 0 75 0;
#X connect 39 0 120 0;
#X connect 40 0 76 0;
#X connect 40 0 121 0;
#X connect 41 0 74 0;
#X connect 41 0 110 0;
#X connect 42 0 84 0;
#X connect 51 0 83 0;
#X connect 52 0 82 0;
#X connect 53 0 81 0;
#X connect 54 0 80 0;
#X connect 55 0 79 0;
#X connect 56 0 78 0;
#X connect 57 0 77 0;
#X connect 58 0 87 0;
#X connect 59 0 88 0;
#X connect 60 0 89 0;
#X connect 61 0 90 0;
#X connect 62 0 91 0;
#X connect 63 0 92 0;
#X connect 64 0 93 0;
#X connect 65 0 94 0;
#X connect 66 0 95 0;
#X connect 67 0 96 0;
#X connect 68 0 97 0;
#X connect 69 0 98 0;
#X connect 70 0 99 0;
#X connect 71 0 100 0;
#X connect 72 0 101 0;
#X connect 86 0 85 0;
#X connect 138 0 146 0;
#X connect 139 0 147 0;
#X connect 140 0 148 0;
#X connect 141 0 149 0;
#X connect 142 0 150 0;
#X connect 143 0 151 0;
#X connect 144 0 152 0;
#X connect 145 0 153 0;
#X connect 154 0 178 0;
#X connect 155 0 178 0;
#X connect 156 0 180 0;
#X connect 157 0 180 0;
#X connect 158 0 185 0;
#X connect 159 0 184 0;
#X connect 160 0 184 0;
#X connect 161 0 183 0;
#X connect 162 0 183 0;
#X connect 163 0 182 0;
#X connect 164 0 182 0;
#X connect 165 0 181 0;
#X connect 166 0 181 0;
#X connect 167 0 179 0;
#X connect 168 0 179 0;
#X connect 169 0 185 0;
#X connect 186 0 187 0;
#X connect 188 0 189 0;
#X connect 190 0 191 0;
#X connect 192 0 193 0;
#X connect 194 0 195 0;
#X connect 196 0 197 0;
#X connect 198 0 199 0;
#X connect 200 0 201 0;
#X connect 202 0 218 0;
#X connect 203 0 219 0;
#X connect 204 0 220 0;
#X connect 205 0 221 0;
#X connect 206 0 222 0;
#X connect 207 0 223 0;
#X connect 208 0 224 0;
#X connect 209 0 225 0;
#X connect 210 0 226 0;
#X connect 211 0 227 0;
#X connect 212 0 228 0;
#X connect 213 0 229 0;
#X connect 214 0 230 0;
#X connect 215 0 231 0;
#X connect 216 0 232 0;
#X connect 217 0 233 0;
#X connect 218 0 155 0;
#X connect 218 1 154 0;
#X connect 219 0 157 0;
#X connect 219 1 156 0;
#X connect 220 0 168 0;
#X connect 220 1 167 0;
#X connect 221 0 166 0;
#X connect 221 1 165 0;
#X connect 222 0 164 0;
#X connect 222 1 163 0;
#X connect 223 0 162 0;
#X connect 223 1 161 0;
#X connect 224 0 160 0;
#X connect 224 1 159 0;
#X connect 225 0 169 0;
#X connect 225 1 158 0;
#X connect 226 0 234 0;
#X connect 226 1 235 0;
#X connect 227 0 236 0;
#X connect 227 1 237 0;
#X connect 228 0 249 0;
#X connect 228 1 238 0;
#X connect 229 0 248 0;
#X connect 229 1 239 0;
#X connect 230 0 247 0;
#X connect 230 1 240 0;
#X connect 231 0 246 0;
#X connect 231 1 241 0;
#X connect 232 0 245 0;
#X connect 232 1 242 0;
#X connect 233 0 244 0;
#X connect 233 1 243 0;
#X connect 234 0 170 0;
#X connect 235 0 170 0;
#X connect 236 0 171 0;
#X connect 237 0 171 0;
#X connect 238 0 172 0;
#X connect 239 0 173 0;
#X connect 240 0 174 0;
#X connect 241 0 175 0;
#X connect 242 0 176 0;
#X connect 243 0 177 0;
#X connect 244 0 177 0;
#X connect 245 0 176 0;
#X connect 246 0 175 0;
#X connect 247 0 174 0;
#X connect 248 0 173 0;
#X connect 249 0 172 0;
#X connect 258 0 257 0;
#X connect 259 0 256 0;
#X connect 260 0 255 0;
#X connect 261 0 254 0;
#X connect 262 0 253 0;
#X connect 263 0 252 0;
#X connect 264 0 251 0;
#X connect 265 0 250 0;
#X connect 266 0 267 0;
#X connect 268 0 269 0;
#X connect 270 0 271 0;
#X connect 272 0 273 0;
#X connect 274 0 275 0;
#X connect 276 0 277 0;
#X connect 278 0 279 0;
#X connect 280 0 281 0;
#X connect 282 0 290 0;
#X connect 283 0 291 0;
#X connect 284 0 292 0;
#X connect 285 0 293 0;
#X connect 286 0 294 0;
#X connect 287 0 295 0;
#X connect 288 0 296 0;
#X connect 289 0 297 0;
#X connect 290 1 102 0;
#X connect 291 1 103 0;
#X connect 292 1 104 0;
#X connect 293 1 105 0;
#X connect 294 1 106 0;
#X connect 295 1 107 0;
#X connect 296 1 108 0;
#X connect 297 1 109 0;
#X connect 298 0 299 0;
#X connect 299 1 122 0;
#X restore -537 -369 pd bcr2k_ch3;
#N canvas 0 22 450 300 bcr2k_ch4 0;
#X floatatom 50 484 5 0 0 0 - - -, f 5;
#X obj 68 279 ctlin 73 4;
#X obj 45 361 ctlin 81 4;
#X obj 40 457 ctlin 89 4;
#X floatatom 70 576 5 0 0 0 - - -, f 5;
#X obj 60 549 ctlin 97 4;
#X floatatom 142 484 5 0 0 0 - - -, f 5;
#X floatatom 162 576 5 0 0 0 - - -, f 5;
#X floatatom 234 484 5 0 0 0 - - -, f 5;
#X floatatom 254 576 5 0 0 0 - - -, f 5;
#X floatatom 326 484 5 0 0 0 - - -, f 5;
#X floatatom 346 576 5 0 0 0 - - -, f 5;
#X floatatom 418 484 5 0 0 0 - - -, f 5;
#X floatatom 444 576 5 0 0 0 - - -, f 5;
#X floatatom 510 484 5 0 0 0 - - -, f 5;
#X floatatom 543 576 5 0 0 0 - - -, f 5;
#X floatatom 602 484 5 0 0 0 - - -, f 5;
#X floatatom 642 576 5 0 0 0 - - -, f 5;
#X floatatom 694 484 5 0 0 0 - - -, f 5;
#X floatatom 741 576 5 0 0 0 - - -, f 5;
#X obj 160 279 ctlin 74 4;
#X obj 250 279 ctlin 75 4;
#X obj 341 279 ctlin 76 4;
#X obj 431 279 ctlin 77 4;
#X obj 524 279 ctlin 78 4;
#X obj 618 279 ctlin 79 4;
#X obj 711 279 ctlin 80 4;
#X obj 137 361 ctlin 82 4;
#X obj 230 361 ctlin 83 4;
#X obj 321 361 ctlin 84 4;
#X obj 411 361 ctlin 85 4;
#X obj 502 361 ctlin 86 4;
#X obj 594 361 ctlin 87 4;
#X obj 685 361 ctlin 88 4;
#X obj 132 457 ctlin 90 4;
#X obj 224 457 ctlin 91 4;
#X obj 316 457 ctlin 92 4;
#X obj 408 457 ctlin 93 4;
#X obj 500 457 ctlin 94 4;
#X obj 592 457 ctlin 95 4;
#X obj 684 457 ctlin 96 4;
#X obj 152 549 ctlin 98 4;
#X obj 244 549 ctlin 99 4;
#X obj 336 549 ctlin 100 4;
#X obj 434 549 ctlin 101 4;
#X obj 533 549 ctlin 102 4;
#X obj 632 549 ctlin 103 4;
#X obj 731 549 ctlin 104 4;
#X floatatom 55 388 5 0 0 0 - - -, f 5;
#X floatatom 147 388 5 0 0 0 - - -, f 5;
#X floatatom 240 388 5 0 0 0 - - -, f 5;
#X floatatom 331 388 5 0 0 0 - - -, f 5;
#X floatatom 421 388 5 0 0 0 - - -, f 5;
#X floatatom 512 388 5 0 0 0 - - -, f 5;
#X floatatom 604 388 5 0 0 0 - - -, f 5;
#X floatatom 695 388 5 0 0 0 - - -, f 5;
#X obj 329 660 * 10;
#X obj 287 660 * 10;
#X obj 246 663 * 10;
#X obj 211 664 * 10;
#X obj 178 664 * 10;
#X obj 77 664 * 10;
#X obj 112 663 * 10;
#X obj 145 662 * 10;
#X obj 512 700 ctlout 7 4;
#X obj 425 696 ctlout 6 4;
#X obj 355 695 ctlout 5 4;
#X obj 286 695 ctlout 4 4;
#X obj 219 697 ctlout 3 4;
#X obj 147 697 ctlout 2 4;
#X obj 76 699 ctlout 1 4;
#X obj 601 697 ctlout 8 4;
#X obj 776 361 ctlin 105 4;
#X obj 775 459 ctlin 107 4;
#X obj 874 458 ctlin 108 4;
#X obj 875 360 ctlin 106 4;
#X obj 172 155 notein 4;
#X obj 262 155 notein 4;
#X obj 361 155 notein 4;
#X obj 452 155 notein 4;
#X obj 552 155 notein 4;
#X obj 652 155 notein 4;
#X obj 752 155 notein 4;
#X obj 82 175 select 24;
#X obj 172 174 select 25;
#X obj 264 176 select 26;
#X obj 363 178 select 27;
#X obj 452 177 select 28;
#X obj 552 176 select 29;
#X obj 652 176 select 30;
#X obj 752 175 select 31;
#X obj 82 155 notein 4;
#X obj 752 198 bng 15 250 50 0 empty empty empty 17 7 0 10 -262144
-1 -1;
#X msg 770 197 0;
#X obj 84 197 bng 15 250 50 0 empty empty empty 17 7 0 10 -262144 -1
-1;
#X msg 102 196 0;
#X obj 172 195 bng 15 250 50 0 empty empty empty 17 7 0 10 -262144
-1 -1;
#X msg 190 194 0;
#X obj 266 198 bng 15 250 50 0 empty empty empty 17 7 0 10 -262144
-1 -1;
#X msg 284 197 0;
#X obj 364 199 bng 15 250 50 0 empty empty empty 17 7 0 10 -262144
-1 -1;
#X msg 382 198 0;
#X obj 454 199 bng 15 250 50 0 empty empty empty 17 7 0 10 -262144
-1 -1;
#X msg 473 198 0;
#X obj 552 197 bng 15 250 50 0 empty empty empty 17 7 0 10 -262144
-1 -1;
#X msg 570 196 0;
#X obj 652 198 bng 15 250 50 0 empty empty empty 17 7 0 10 -262144
-1 -1;
#X msg 670 197 0;
#X obj 719 -54 ctlin 16 4;
#X obj 163 -124 ctlin 2 4;
#X obj 253 -124 ctlin 3 4;
#X obj 343 -124 ctlin 4 4;
#X obj 433 -124 ctlin 5 4;
#X obj 523 -124 ctlin 6 4;
#X obj 613 -124 ctlin 7 4;
#X obj 73 -124 ctlin 1 4;
#X obj 703 -124 ctlin 8 4;
#X obj 627 -55 ctlin 15 4;
#X obj 536 -54 ctlin 14 4;
#X obj 443 -53 ctlin 13 4;
#X obj 351 -55 ctlin 12 4;
#X obj 253 -54 ctlin 11 4;
#X obj 163 -54 ctlin 10 4;
#X obj 73 -54 ctlin 9 4;
#X obj 163 16 ctlin 18 4;
#X obj 253 16 ctlin 19 4;
#X obj 352 17 ctlin 20 4;
#X obj 440 18 ctlin 21 4;
#X obj 533 16 ctlin 22 4;
#X obj 624 15 ctlin 23 4;
#X obj 717 16 ctlin 24 4;
#X obj 73 86 ctlin 25 4;
#X obj 163 86 ctlin 26 4;
#X obj 253 86 ctlin 27 4;
#X obj 349 86 ctlin 28 4;
#X obj 440 85 ctlin 29 4;
#X obj 533 86 ctlin 30 4;
#X obj 624 86 ctlin 31 4;
#X obj 717 86 ctlin 32 4;
#X obj 789 387 tgl 15 0 empty empty empty 17 7 0 10 -262144 -1 -1 0
1;
#X obj 889 384 tgl 15 0 empty empty empty 17 7 0 10 -262144 -1 -1 0
1;
#X obj 795 484 tgl 15 0 empty empty empty 17 7 0 10 -262144 -1 -1 0
1;
#X obj 899 485 tgl 15 0 empty empty empty 17 7 0 10 -262144 -1 -1 0
1;
#X obj 72 -76 r bcr2k_ch4_1;
#X obj 164 -77 r bcr2k_ch4_2;
#X obj 254 -77 r bcr2k_ch4_3;
#X obj 345 -76 r bcr2k_ch4_4;
#X obj 432 -74 r bcr2k_ch4_5;
#X obj 524 -75 r bcr2k_ch4_6;
#X obj 613 -77 r bcr2k_ch4_7;
#X obj 705 -76 r bcr2k_ch4_8;
#X obj 72 -6 r bcr2k_ch4_9;
#X obj 165 -7 r bcr2k_ch4_10;
#X obj 256 -8 r bcr2k_ch4_11;
#X obj 352 -9 r bcr2k_ch4_12;
#X obj 444 -8 r bcr2k_ch4_13;
#X obj 535 -8 r bcr2k_ch4_14;
#X obj 628 -7 r bcr2k_ch4_15;
#X obj 720 -8 r bcr2k_ch4_16;
#X obj 70 64 r bcr2k_ch4_17;
#X obj 162 63 r bcr2k_ch4_18;
#X obj 254 64 r bcr2k_ch4_19;
#X obj 350 63 r bcr2k_ch4_20;
#X obj 441 64 r bcr2k_ch4_21;
#X obj 533 65 r bcr2k_ch4_22;
#X obj 627 64 r bcr2k_ch4_23;
#X obj 718 62 r bcr2k_ch4_24;
#X obj 70 131 r bcr2k_ch4_25;
#X obj 162 129 r bcr2k_ch4_26;
#X obj 254 129 r bcr2k_ch4_27;
#X obj 349 134 r bcr2k_ch4_28;
#X obj 442 132 r bcr2k_ch4_29;
#X obj 533 129 r bcr2k_ch4_30;
#X obj 624 128 r bcr2k_ch4_31;
#X obj 717 127 r bcr2k_ch4_32;
#X obj 57 247 r bcr2k_ch4_n24;
#X obj 155 247 r bcr2k_ch4_n25;
#X obj 252 246 r bcr2k_ch4_n26;
#X obj 350 246 r bcr2k_ch4_n27;
#X obj 448 246 r bcr2k_ch4_n28;
#X obj 546 245 r bcr2k_ch4_n29;
#X obj 646 244 r bcr2k_ch4_n30;
#X obj 744 243 r bcr2k_ch4_n31;
#X obj 65 328 r bcr2k_ch4_73;
#X obj 156 328 r bcr2k_ch4_74;
#X obj 247 327 r bcr2k_ch4_75;
#X obj 339 323 r bcr2k_ch4_76;
#X obj 431 327 r bcr2k_ch4_77;
#X obj 526 328 r bcr2k_ch4_78;
#X obj 617 328 r bcr2k_ch4_79;
#X obj 711 326 r bcr2k_ch4_80;
#X obj 45 430 r bcr2k_ch4_81;
#X obj 137 429 r bcr2k_ch4_82;
#X obj 230 430 r bcr2k_ch4_83;
#X obj 320 429 r bcr2k_ch4_84;
#X obj 411 429 r bcr2k_ch4_85;
#X obj 502 431 r bcr2k_ch4_86;
#X obj 594 432 r bcr2k_ch4_87;
#X obj 685 432 r bcr2k_ch4_88;
#X obj 875 432 r bcr2k_ch4_106;
#X obj 775 432 r bcr2k_ch4_105;
#X obj 40 527 r bcr2k_ch4_89;
#X obj 132 525 r bcr2k_ch4_90;
#X obj 224 525 r bcr2k_ch4_91;
#X obj 315 526 r bcr2k_ch4_92;
#X obj 407 526 r bcr2k_ch4_93;
#X obj 499 526 r bcr2k_ch4_94;
#X obj 590 527 r bcr2k_ch4_95;
#X obj 682 526 r bcr2k_ch4_96;
#X obj 774 526 r bcr2k_ch4_107;
#X obj 874 528 r bcr2k_ch4_108;
#X obj 60 619 r bcr2k_ch4_97;
#X obj 152 618 r bcr2k_ch4_98;
#X obj 244 620 r bcr2k_ch4_99;
#X obj 336 620 r bcr2k_ch4_100;
#X obj 434 619 r bcr2k_ch4_101;
#X obj 533 618 r bcr2k_ch4_102;
#X obj 632 617 r bcr2k_ch4_103;
#X obj 731 617 r bcr2k_ch4_104;
#X obj 72 -95 s bcr2k_ch4_1;
#X obj 164 -96 s bcr2k_ch4_2;
#X obj 253 -96 s bcr2k_ch4_3;
#X obj 345 -97 s bcr2k_ch4_4;
#X obj 432 -96 s bcr2k_ch4_5;
#X obj 524 -97 s bcr2k_ch4_6;
#X obj 613 -97 s bcr2k_ch4_7;
#X obj 705 -98 s bcr2k_ch4_8;
#X obj 72 -27 s bcr2k_ch4_9;
#X obj 164 -28 s bcr2k_ch4_10;
#X obj 256 -28 s bcr2k_ch4_11;
#X obj 352 -29 s bcr2k_ch4_12;
#X obj 443 -28 s bcr2k_ch4_13;
#X obj 535 -29 s bcr2k_ch4_14;
#X obj 628 -29 s bcr2k_ch4_15;
#X obj 720 -30 s bcr2k_ch4_16;
#X obj 70 44 s bcr2k_ch4_17;
#X obj 73 16 ctlin 17 4;
#X obj 162 43 s bcr2k_ch4_18;
#X obj 254 43 s bcr2k_ch4_19;
#X obj 350 42 s bcr2k_ch4_20;
#X obj 441 43 s bcr2k_ch4_21;
#X obj 533 42 s bcr2k_ch4_22;
#X obj 626 42 s bcr2k_ch4_23;
#X obj 718 41 s bcr2k_ch4_24;
#X obj 70 110 s bcr2k_ch4_25;
#X obj 162 109 s bcr2k_ch4_26;
#X obj 254 109 s bcr2k_ch4_27;
#X obj 350 108 s bcr2k_ch4_28;
#X obj 441 109 s bcr2k_ch4_29;
#X obj 533 108 s bcr2k_ch4_30;
#X obj 626 108 s bcr2k_ch4_31;
#X obj 718 107 s bcr2k_ch4_32;
#X obj 57 225 s bcr2k_ch4_n24;
#X obj 155 224 s bcr2k_ch4_n25;
#X obj 252 224 s bcr2k_ch4_n26;
#X obj 350 223 s bcr2k_ch4_n27;
#X obj 448 224 s bcr2k_ch4_n28;
#X obj 546 223 s bcr2k_ch4_n29;
#X obj 645 223 s bcr2k_ch4_n30;
#X obj 744 222 s bcr2k_ch4_n31;
#X obj 68 308 s bcr2k_ch4_73;
#X obj 160 307 s bcr2k_ch4_74;
#X obj 250 307 s bcr2k_ch4_75;
#X obj 341 306 s bcr2k_ch4_76;
#X obj 431 307 s bcr2k_ch4_77;
#X obj 525 306 s bcr2k_ch4_78;
#X obj 618 306 s bcr2k_ch4_79;
#X obj 711 305 s bcr2k_ch4_80;
#X obj 45 409 s bcr2k_ch4_81;
#X obj 137 408 s bcr2k_ch4_82;
#X obj 230 408 s bcr2k_ch4_83;
#X obj 321 407 s bcr2k_ch4_84;
#X obj 411 406 s bcr2k_ch4_85;
#X obj 502 406 s bcr2k_ch4_86;
#X obj 594 406 s bcr2k_ch4_87;
#X obj 685 406 s bcr2k_ch4_88;
#X obj 875 408 s bcr2k_ch4_106;
#X obj 776 408 s bcr2k_ch4_105;
#X obj 40 505 s bcr2k_ch4_89;
#X obj 132 504 s bcr2k_ch4_90;
#X obj 224 504 s bcr2k_ch4_91;
#X obj 316 503 s bcr2k_ch4_92;
#X obj 408 504 s bcr2k_ch4_93;
#X obj 500 503 s bcr2k_ch4_94;
#X obj 592 503 s bcr2k_ch4_95;
#X obj 684 503 s bcr2k_ch4_96;
#X obj 774 503 s bcr2k_ch4_107;
#X obj 874 504 s bcr2k_ch4_108;
#X obj 60 599 s bcr2k_ch4_97;
#X obj 152 598 s bcr2k_ch4_98;
#X obj 244 598 s bcr2k_ch4_99;
#X obj 336 597 s bcr2k_ch4_100;
#X obj 434 598 s bcr2k_ch4_101;
#X obj 533 597 s bcr2k_ch4_102;
#X obj 632 597 s bcr2k_ch4_103;
#X obj 731 596 s bcr2k_ch4_104;
#X connect 1 0 260 0;
#X connect 2 0 48 0;
#X connect 2 0 268 0;
#X connect 3 0 0 0;
#X connect 3 0 278 0;
#X connect 5 0 4 0;
#X connect 5 0 288 0;
#X connect 20 0 261 0;
#X connect 21 0 262 0;
#X connect 22 0 263 0;
#X connect 23 0 264 0;
#X connect 24 0 265 0;
#X connect 25 0 266 0;
#X connect 26 0 267 0;
#X connect 27 0 49 0;
#X connect 27 0 269 0;
#X connect 28 0 50 0;
#X connect 28 0 270 0;
#X connect 29 0 51 0;
#X connect 29 0 271 0;
#X connect 30 0 52 0;
#X connect 30 0 272 0;
#X connect 31 0 53 0;
#X connect 31 0 273 0;
#X connect 32 0 54 0;
#X connect 32 0 274 0;
#X connect 33 0 55 0;
#X connect 33 0 275 0;
#X connect 34 0 6 0;
#X connect 34 0 279 0;
#X connect 35 0 8 0;
#X connect 35 0 280 0;
#X connect 36 0 10 0;
#X connect 36 0 281 0;
#X connect 37 0 12 0;
#X connect 37 0 282 0;
#X connect 38 0 14 0;
#X connect 38 0 283 0;
#X connect 39 0 16 0;
#X connect 39 0 284 0;
#X connect 40 0 18 0;
#X connect 40 0 285 0;
#X connect 41 0 7 0;
#X connect 41 0 289 0;
#X connect 42 0 9 0;
#X connect 42 0 290 0;
#X connect 43 0 11 0;
#X connect 43 0 291 0;
#X connect 44 0 13 0;
#X connect 44 0 292 0;
#X connect 45 0 15 0;
#X connect 45 0 293 0;
#X connect 46 0 17 0;
#X connect 46 0 294 0;
#X connect 47 0 19 0;
#X connect 47 0 295 0;
#X connect 56 0 71 0;
#X connect 57 0 64 0;
#X connect 58 0 65 0;
#X connect 59 0 66 0;
#X connect 60 0 67 0;
#X connect 61 0 70 0;
#X connect 62 0 69 0;
#X connect 63 0 68 0;
#X connect 72 0 139 0;
#X connect 72 0 277 0;
#X connect 73 0 141 0;
#X connect 73 0 286 0;
#X connect 74 0 142 0;
#X connect 74 0 287 0;
#X connect 75 0 140 0;
#X connect 75 0 276 0;
#X connect 76 0 84 0;
#X connect 77 0 85 0;
#X connect 78 0 86 0;
#X connect 79 0 87 0;
#X connect 80 0 88 0;
#X connect 81 0 89 0;
#X connect 82 0 90 0;
#X connect 83 0 94 0;
#X connect 83 0 252 0;
#X connect 84 0 96 0;
#X connect 84 0 253 0;
#X connect 85 0 98 0;
#X connect 85 0 254 0;
#X connect 86 0 100 0;
#X connect 86 0 255 0;
#X connect 87 0 102 0;
#X connect 87 0 256 0;
#X connect 88 0 104 0;
#X connect 88 0 257 0;
#X connect 89 0 106 0;
#X connect 89 0 258 0;
#X connect 90 0 92 0;
#X connect 90 0 259 0;
#X connect 91 0 83 0;
#X connect 92 0 93 0;
#X connect 94 0 95 0;
#X connect 96 0 97 0;
#X connect 98 0 99 0;
#X connect 100 0 101 0;
#X connect 102 0 103 0;
#X connect 104 0 105 0;
#X connect 106 0 107 0;
#X connect 108 0 234 0;
#X connect 109 0 220 0;
#X connect 110 0 221 0;
#X connect 111 0 222 0;
#X connect 112 0 223 0;
#X connect 113 0 224 0;
#X connect 114 0 225 0;
#X connect 115 0 219 0;
#X connect 116 0 226 0;
#X connect 117 0 233 0;
#X connect 118 0 232 0;
#X connect 119 0 231 0;
#X connect 120 0 230 0;
#X connect 121 0 229 0;
#X connect 122 0 228 0;
#X connect 123 0 227 0;
#X connect 124 0 237 0;
#X connect 125 0 238 0;
#X connect 126 0 239 0;
#X connect 127 0 240 0;
#X connect 128 0 241 0;
#X connect 129 0 242 0;
#X connect 130 0 243 0;
#X connect 131 0 244 0;
#X connect 132 0 245 0;
#X connect 133 0 246 0;
#X connect 134 0 247 0;
#X connect 135 0 248 0;
#X connect 136 0 249 0;
#X connect 137 0 250 0;
#X connect 138 0 251 0;
#X connect 236 0 235 0;
#X restore -451 -369 pd bcr2k_ch4;
#X floatatom 367 -275 3 0 0 0 - - -, f 3;
#X obj 322 -327 notein;
#X obj 322 -301 stripnote;
#X floatatom 322 -276 3 0 0 0 - - -, f 3;
#X text 322 -351 MIDI IN;
#X floatatom 445 -276 3 0 0 0 - - -, f 3;
#X floatatom 415 -277 3 0 0 0 - - -, f 3;
#X obj 415 -302 ctlin;
#X obj 322 -256 bng 20 250 50 0 empty empty empty 17 7 0 10 -262144
-1 -1;
#X obj 415 -255 bng 20 250 50 0 empty empty empty 17 7 0 10 -262144
-1 -1;
#X obj 1178 918 nbx 5 14 -1e+37 1e+37 0 0 empty empty empty 0 -8 0
10 -262144 -1 -1 0 256;
#X obj 1115 918 nbx 5 14 -1e+37 1e+37 0 0 empty empty empty 0 -8 0
10 -262144 -1 -1 0 256;
#X obj 1122 1089 *~;
#X obj 1122 1139 cos~;
#X obj 1122 1164 hip~ 5;
#X obj 1122 1116 +~ 0.1;
#X floatatom 1156 1016 0 0 0 0 - - -;
#X floatatom 1261 1017 0 0 200 0 - - -;
#X floatatom 1191 1016 0 0 999 0 - - -;
#X floatatom 1226 1016 0 0 999 0 - - -;
#X msg 1207 1139 0;
#X msg 1207 1117 0.1;
#X msg 1207 1161 0.25;
#X text 1163 980 ADSR controls;
#X text 1201 997 A;
#X text 1236 997 D;
#X text 1271 997 S;
#X obj 1121 1065 *~ 0.01;
#X text 1143 997 level;
#X text 1252 1137 even;
#X text 1260 1160 odd;
#X text 1242 1116 mixed;
#N canvas 0 22 817 635 adsr 0;
#X obj 105 111 inlet;
#X obj 435 151 inlet;
#X text 101 86 trigger;
#X obj 105 139 sel 0;
#X obj 244 155 t b;
#X obj 166 264 f \$1;
#X obj 166 289 pack 0 \$2;
#X obj 492 151 inlet;
#X obj 438 281 del \$2;
#X obj 458 429 line~;
#X obj 462 304 f \$4;
#X obj 501 379 pack 0 \$3;
#X obj 554 151 inlet;
#X obj 616 151 inlet;
#X obj 689 150 inlet;
#X msg 105 170 stop;
#X obj 612 306 pack 0 \$5;
#X text 435 129 level;
#X obj 501 355 * \$1;
#X obj 458 454 outlet~;
#X text 102 378 and pack with;
#X text 103 398 attack time;
#X text 31 126 if zero;
#X text 32 143 release;
#X text 12 160 and cancel;
#X text 43 177 decay;
#X text 284 272 on attack \, set a;
#X text 278 305 recall sustain value;
#X text 315 378 pack with decay time;
#X text 605 332 on release ramp;
#X text 606 349 back to zero;
#X obj 462 329 * 0.01;
#X text 47 567 Objects such as "f" and "pack" can be given dollar sign
arguments to initialize their contents from adsr's creation arguments.
Inlets are supplied to change them on the fly.;
#X text 13 2 ADSR ENVELOPE;
#X text 488 129 attack;
#X text 555 128 decay;
#X text 609 129 sustain;
#X text 686 129 release;
#X text 202 71 attack;
#X obj 204 92 moses;
#X obj 194 122 t b b;
#X msg 128 290 0;
#X text 20 273 optionally;
#X text 10 291 bash to zero;
#X text 25 246 ATTACK:;
#X text 49 477 When you send this patch a positive trigger it schedules
a line~ to do an attack and decay \, and if zero \, it starts the release
ramp.;
#X text 495 629 Updated for Pd version 0.37;
#X text 255 89 test for negative trigger;
#X text 253 113 if so \, zero;
#X text 254 129 the output;
#X text 278 165 in any case;
#X text 303 355 multiply by peak level;
#X text 280 286 delay for sustain;
#X text 276 328 convert from percent;
#X text 155 340 ... then;
#X text 103 359 recall peak level;
#X text 439 113 peak;
#X text 281 149 ... do this;
#X text 47 529 Negative triggers cause the output to jump to zero and
then attack (instead of attacking from the current location).;
#X text 208 1 Arguments: level \, attack time \, decay time \, sustain
level \, release time. A \, D \, and R are in msec and S is in percent.
This patch is used as an abstraction in various examples.;
#X connect 0 0 3 0;
#X connect 1 0 5 1;
#X connect 1 0 18 1;
#X connect 3 0 15 0;
#X connect 3 0 16 0;
#X connect 3 1 39 0;
#X connect 4 0 5 0;
#X connect 4 0 8 0;
#X connect 5 0 6 0;
#X connect 6 0 9 0;
#X connect 7 0 6 1;
#X connect 7 0 8 1;
#X connect 8 0 10 0;
#X connect 9 0 19 0;
#X connect 10 0 31 0;
#X connect 11 0 9 0;
#X connect 12 0 11 1;
#X connect 13 0 10 1;
#X connect 14 0 16 1;
#X connect 15 0 8 0;
#X connect 16 0 9 0;
#X connect 18 0 11 0;
#X connect 31 0 18 0;
#X connect 39 0 40 0;
#X connect 39 1 4 0;
#X connect 40 0 4 0;
#X connect 40 1 41 0;
#X connect 41 0 9 0;
#X restore 1121 1042 pd adsr 70 10 90 50 500;
#X obj 342 610 hsl 128 15 0 1 0 0 empty empty empty -2 -8 0 10 -262144
-1 -1 0 1;
#X text 1206 1097 symmetry;
#X text 420 609 symmetry;
#X obj 342 528 hsl 128 15 0 1000 0 0 empty empty empty -2 -8 0 10 -262144
-1 -1 381 1;
#X obj 342 548 hsl 128 15 0 1000 0 0 empty empty empty -2 -8 0 10 -262144
-1 -1 0 1;
#X text 432 547 attack;
#X obj 342 568 hsl 128 15 0 1000 0 0 empty empty empty -2 -8 0 10 -262144
-1 -1 12700 1;
#X obj 342 588 hsl 128 15 0 1000 0 0 empty empty empty -2 -8 0 10 -262144
-1 -1 0 1;
#X text 438 527 level;
#X text 426 567 sustain;
#X text 426 587 release;
#X obj 342 382 hsl 128 15 0 256 0 0 empty empty empty -2 -8 0 10 -260097
-1 -1 0 1;
#X text 444 381 freq;
#X obj 342 407 hsl 128 15 0 127 0 0 empty empty empty -2 -8 0 10 -260097
-1 -1 0 1;
#X text 432 407 offset;
#X obj 342 488 hsl 128 15 0 1000 0 0 empty empty empty -2 -8 0 10 -204800
-1 -1 0 1;
#X obj 342 438 hsl 128 15 0 256 0 0 empty empty empty -2 -8 0 10 -232576
-1 -1 0 1;
#X text 444 437 freq;
#X obj 342 463 hsl 128 15 0 127 0 0 empty empty empty -2 -8 0 10 -232576
-1 -1 0 1;
#X text 432 463 offset;
#X obj 564 482 loadbang;
#X text 837 500 transpose;
#X msg 635 511 30;
#X msg 564 551 1000;
#X text 360 488 release delay time;
#X obj 996 506 s pd303b_main_pitch;
#X obj 1087 154 f;
#X obj 1097 173 f;
#X obj 1107 193 f;
#X obj 1117 213 f;
#X obj 1127 233 f;
#X obj 1137 253 f;
#X obj 1147 273 f;
#X obj 1157 293 f;
#X obj 1167 313 f;
#X obj 1177 333 f;
#X obj 1187 353 f;
#X obj 1197 373 f;
#X obj 1207 393 f;
#X obj 1217 413 f;
#X obj 1227 433 f;
#X obj 1237 453 f;
#X obj 1077 361 f;
#X obj 994 467 s pd303b_step_length;
#X text 1000 487 !!! GLOBAL VARZ !!!;
#X text 528 371 1;
#X text 528 385 2;
#X text 528 399 3;
#X text 528 414 4;
#X text 528 428 5;
#X text 528 444 6;
#X text 528 458 7;
#X text 528 473 8;
#X text 528 488 9;
#X obj 562 327 loadbang;
#X msg 562 352 7;
#X text 146 970 MUTE logic;
#X text -965 652 x-time logic out to bcr2k;
#X text -960 447 x-time logic in from bcr2k;
#X text -970 131 incoming bcr2k rotary time adjustment (to sliderz)
;
#X text -968 202 out to bcr2k rotary time knobz;
#X text 1094 -50 storage for each step time length;
#X text 737 -127 step time length logic;
#X text 491 77 main sequencer logic;
#X text 491 92 (pd-vanilla friendly);
#X text -969 -369 some general bcr2000 abstractionz (mostly send objectz)
;
#X connect 0 0 131 1;
#X connect 1 0 132 1;
#X connect 2 0 133 1;
#X connect 3 0 161 1;
#X connect 4 0 134 1;
#X connect 5 0 135 1;
#X connect 6 0 136 1;
#X connect 7 0 137 1;
#X connect 8 0 138 1;
#X connect 9 0 139 1;
#X connect 10 0 140 1;
#X connect 11 0 141 1;
#X connect 12 0 142 1;
#X connect 13 0 143 1;
#X connect 14 0 144 1;
#X connect 15 0 145 1;
#X connect 16 0 146 1;
#X connect 17 0 414 1;
#X connect 18 0 191 0;
#X connect 18 0 285 1;
#X connect 18 0 584 0;
#X connect 19 0 128 0;
#X connect 20 0 302 0;
#X connect 22 0 21 0;
#X connect 23 0 22 0;
#X connect 24 0 42 1;
#X connect 25 0 95 0;
#X connect 25 0 175 0;
#X connect 26 0 31 1;
#X connect 26 0 612 0;
#X connect 27 0 128 0;
#X connect 27 0 629 0;
#X connect 28 0 27 0;
#X connect 29 0 45 1;
#X connect 30 0 21 0;
#X connect 30 0 631 1;
#X connect 31 0 43 0;
#X connect 32 0 43 0;
#X connect 33 0 43 0;
#X connect 34 0 43 0;
#X connect 35 0 43 0;
#X connect 36 0 23 0;
#X connect 37 0 129 0;
#X connect 37 0 588 0;
#X connect 38 0 43 0;
#X connect 39 0 43 0;
#X connect 40 0 43 0;
#X connect 42 0 30 0;
#X connect 44 0 19 0;
#X connect 44 0 414 0;
#X connect 44 0 125 0;
#X connect 44 0 45 0;
#X connect 44 0 651 0;
#X connect 44 0 677 0;
#X connect 45 0 127 0;
#X connect 45 0 668 0;
#X connect 46 0 48 0;
#X connect 47 0 301 0;
#X connect 48 0 30 0;
#X connect 49 0 32 1;
#X connect 49 0 614 0;
#X connect 50 0 38 1;
#X connect 50 0 613 0;
#X connect 51 0 46 0;
#X connect 51 0 24 0;
#X connect 51 0 128 0;
#X connect 51 0 629 0;
#X connect 52 0 33 1;
#X connect 52 0 611 0;
#X connect 53 0 51 0;
#X connect 53 0 288 0;
#X connect 54 0 160 1;
#X connect 55 0 159 1;
#X connect 56 0 162 1;
#X connect 57 0 163 1;
#X connect 58 0 164 1;
#X connect 59 0 165 1;
#X connect 60 0 166 1;
#X connect 61 0 169 1;
#X connect 62 0 168 1;
#X connect 63 0 167 1;
#X connect 64 0 170 1;
#X connect 65 0 171 1;
#X connect 66 0 172 1;
#X connect 67 0 173 1;
#X connect 68 0 174 1;
#X connect 69 0 31 0;
#X connect 70 0 32 0;
#X connect 71 0 38 0;
#X connect 72 0 33 0;
#X connect 73 0 39 0;
#X connect 74 0 34 0;
#X connect 75 0 40 0;
#X connect 76 0 35 0;
#X connect 77 0 101 0;
#X connect 78 0 102 0;
#X connect 79 0 106 0;
#X connect 80 0 103 0;
#X connect 81 0 107 0;
#X connect 82 0 104 0;
#X connect 83 0 108 0;
#X connect 84 0 105 0;
#X connect 85 0 40 0;
#X connect 85 1 41 0;
#X connect 86 0 35 0;
#X connect 86 1 41 0;
#X connect 86 2 37 0;
#X connect 87 0 101 0;
#X connect 87 1 41 0;
#X connect 87 2 37 0;
#X connect 88 0 102 0;
#X connect 88 1 41 0;
#X connect 88 2 37 0;
#X connect 89 0 106 0;
#X connect 89 1 41 0;
#X connect 89 2 37 0;
#X connect 90 0 103 0;
#X connect 90 1 41 0;
#X connect 90 2 37 0;
#X connect 91 0 107 0;
#X connect 91 1 41 0;
#X connect 91 2 37 0;
#X connect 92 0 104 0;
#X connect 92 1 41 0;
#X connect 92 2 37 0;
#X connect 93 0 108 0;
#X connect 93 1 41 0;
#X connect 93 2 37 0;
#X connect 94 0 105 0;
#X connect 94 1 41 0;
#X connect 94 2 37 0;
#X connect 95 0 124 0;
#X connect 95 1 96 0;
#X connect 95 2 97 0;
#X connect 95 3 98 0;
#X connect 95 4 99 0;
#X connect 95 5 100 0;
#X connect 95 6 85 0;
#X connect 95 7 86 0;
#X connect 95 8 87 0;
#X connect 95 9 88 0;
#X connect 95 10 89 0;
#X connect 95 11 90 0;
#X connect 95 12 91 0;
#X connect 95 13 92 0;
#X connect 95 14 93 0;
#X connect 95 15 94 0;
#X connect 96 0 32 0;
#X connect 96 1 41 0;
#X connect 96 2 37 0;
#X connect 97 0 38 0;
#X connect 97 1 41 0;
#X connect 98 0 33 0;
#X connect 98 1 41 0;
#X connect 98 2 37 0;
#X connect 99 0 39 0;
#X connect 99 1 41 0;
#X connect 100 0 34 0;
#X connect 100 1 41 0;
#X connect 100 2 37 0;
#X connect 101 0 43 0;
#X connect 102 0 43 0;
#X connect 103 0 43 0;
#X connect 104 0 43 0;
#X connect 105 0 43 0;
#X connect 106 0 43 0;
#X connect 107 0 43 0;
#X connect 108 0 43 0;
#X connect 110 0 39 1;
#X connect 110 0 610 0;
#X connect 111 0 34 1;
#X connect 111 0 609 0;
#X connect 112 0 40 1;
#X connect 112 0 608 0;
#X connect 113 0 35 1;
#X connect 113 0 607 0;
#X connect 114 0 101 1;
#X connect 114 0 606 0;
#X connect 115 0 102 1;
#X connect 115 0 605 0;
#X connect 116 0 106 1;
#X connect 116 0 604 0;
#X connect 117 0 103 1;
#X connect 117 0 603 0;
#X connect 118 0 107 1;
#X connect 118 0 602 0;
#X connect 119 0 104 1;
#X connect 119 0 601 0;
#X connect 120 0 108 1;
#X connect 120 0 600 0;
#X connect 121 0 105 1;
#X connect 121 0 599 0;
#X connect 124 0 31 0;
#X connect 124 1 41 0;
#X connect 124 2 37 0;
#X connect 125 0 663 0;
#X connect 126 0 125 1;
#X connect 127 0 20 0;
#X connect 128 0 42 0;
#X connect 128 0 48 1;
#X connect 129 0 28 0;
#X connect 131 0 26 0;
#X connect 131 0 535 0;
#X connect 132 0 49 0;
#X connect 132 0 536 0;
#X connect 133 0 50 0;
#X connect 133 0 537 0;
#X connect 134 0 52 0;
#X connect 134 0 538 0;
#X connect 135 0 110 0;
#X connect 135 0 539 0;
#X connect 136 0 111 0;
#X connect 136 0 540 0;
#X connect 137 0 112 0;
#X connect 137 0 541 0;
#X connect 138 0 113 0;
#X connect 138 0 542 0;
#X connect 139 0 114 0;
#X connect 139 0 543 0;
#X connect 140 0 115 0;
#X connect 140 0 544 0;
#X connect 141 0 116 0;
#X connect 141 0 545 0;
#X connect 142 0 117 0;
#X connect 142 0 546 0;
#X connect 143 0 118 0;
#X connect 143 0 547 0;
#X connect 144 0 119 0;
#X connect 144 0 548 0;
#X connect 145 0 120 0;
#X connect 145 0 549 0;
#X connect 146 0 121 0;
#X connect 146 0 550 0;
#X connect 150 0 297 0;
#X connect 159 0 176 0;
#X connect 160 0 176 0;
#X connect 161 0 176 0;
#X connect 162 0 176 0;
#X connect 163 0 176 0;
#X connect 164 0 176 0;
#X connect 165 0 176 0;
#X connect 166 0 176 0;
#X connect 167 0 176 0;
#X connect 168 0 176 0;
#X connect 169 0 176 0;
#X connect 170 0 176 0;
#X connect 171 0 176 0;
#X connect 172 0 176 0;
#X connect 173 0 176 0;
#X connect 175 0 159 0;
#X connect 175 1 160 0;
#X connect 175 2 161 0;
#X connect 175 3 162 0;
#X connect 175 4 163 0;
#X connect 175 5 164 0;
#X connect 175 6 165 0;
#X connect 175 7 166 0;
#X connect 175 8 167 0;
#X connect 175 9 168 0;
#X connect 175 10 169 0;
#X connect 175 11 170 0;
#X connect 175 12 171 0;
#X connect 175 13 172 0;
#X connect 175 14 173 0;
#X connect 175 15 174 0;
#X connect 176 0 128 0;
#X connect 176 0 24 0;
#X connect 178 0 0 0;
#X connect 178 0 1 0;
#X connect 178 0 2 0;
#X connect 178 0 4 0;
#X connect 178 0 5 0;
#X connect 178 0 6 0;
#X connect 178 0 7 0;
#X connect 178 0 8 0;
#X connect 178 0 9 0;
#X connect 178 0 10 0;
#X connect 178 0 11 0;
#X connect 178 0 12 0;
#X connect 178 0 13 0;
#X connect 178 0 14 0;
#X connect 178 0 15 0;
#X connect 178 0 16 0;
#X connect 178 0 511 0;
#X connect 178 0 512 0;
#X connect 178 0 513 0;
#X connect 178 0 514 0;
#X connect 178 0 515 0;
#X connect 178 0 516 0;
#X connect 178 0 517 0;
#X connect 178 0 518 0;
#X connect 178 0 519 0;
#X connect 178 0 520 0;
#X connect 178 0 521 0;
#X connect 178 0 522 0;
#X connect 178 0 523 0;
#X connect 178 0 524 0;
#X connect 178 0 525 0;
#X connect 178 0 526 0;
#X connect 179 0 1 0;
#X connect 179 0 4 0;
#X connect 179 0 6 0;
#X connect 179 0 8 0;
#X connect 179 0 10 0;
#X connect 179 0 12 0;
#X connect 179 0 14 0;
#X connect 179 0 16 0;
#X connect 179 0 512 0;
#X connect 179 0 514 0;
#X connect 179 0 516 0;
#X connect 179 0 518 0;
#X connect 179 0 520 0;
#X connect 179 0 522 0;
#X connect 179 0 524 0;
#X connect 179 0 526 0;
#X connect 180 0 2 0;
#X connect 180 0 6 0;
#X connect 180 0 15 0;
#X connect 180 0 9 0;
#X connect 180 0 12 0;
#X connect 180 0 513 0;
#X connect 180 0 516 0;
#X connect 180 0 521 0;
#X connect 180 0 524 0;
#X connect 181 0 4 0;
#X connect 181 0 8 0;
#X connect 181 0 12 0;
#X connect 181 0 16 0;
#X connect 181 0 514 0;
#X connect 181 0 518 0;
#X connect 181 0 522 0;
#X connect 181 0 526 0;
#X connect 182 0 5 0;
#X connect 182 0 10 0;
#X connect 182 0 15 0;
#X connect 182 0 515 0;
#X connect 182 0 523 0;
#X connect 188 0 131 0;
#X connect 188 0 132 0;
#X connect 188 0 133 0;
#X connect 188 0 134 0;
#X connect 188 0 135 0;
#X connect 188 0 136 0;
#X connect 188 0 137 0;
#X connect 188 0 138 0;
#X connect 188 0 139 0;
#X connect 188 0 140 0;
#X connect 188 0 141 0;
#X connect 188 0 142 0;
#X connect 188 0 143 0;
#X connect 188 0 144 0;
#X connect 188 0 145 0;
#X connect 188 0 146 0;
#X connect 191 0 285 0;
#X connect 191 0 373 0;
#X connect 192 0 285 0;
#X connect 192 0 378 0;
#X connect 193 0 285 0;
#X connect 193 0 383 0;
#X connect 194 0 285 0;
#X connect 194 0 388 0;
#X connect 195 0 191 0;
#X connect 195 0 372 0;
#X connect 195 0 678 0;
#X connect 195 1 192 0;
#X connect 195 1 377 0;
#X connect 195 1 679 0;
#X connect 195 2 193 0;
#X connect 195 2 382 0;
#X connect 195 2 680 0;
#X connect 195 3 194 0;
#X connect 195 3 387 0;
#X connect 195 3 681 0;
#X connect 195 4 196 0;
#X connect 195 4 392 0;
#X connect 195 4 682 0;
#X connect 195 5 197 0;
#X connect 195 5 397 0;
#X connect 195 5 683 0;
#X connect 195 6 198 0;
#X connect 195 6 402 0;
#X connect 195 6 684 0;
#X connect 195 7 199 0;
#X connect 195 7 407 0;
#X connect 195 7 685 0;
#X connect 195 8 200 0;
#X connect 195 8 440 0;
#X connect 195 8 686 0;
#X connect 195 9 201 0;
#X connect 195 9 445 0;
#X connect 195 9 687 0;
#X connect 195 10 202 0;
#X connect 195 10 450 0;
#X connect 195 10 688 0;
#X connect 195 11 203 0;
#X connect 195 11 455 0;
#X connect 195 11 689 0;
#X connect 195 12 204 0;
#X connect 195 12 460 0;
#X connect 195 12 690 0;
#X connect 195 13 205 0;
#X connect 195 13 465 0;
#X connect 195 13 691 0;
#X connect 195 14 206 0;
#X connect 195 14 470 0;
#X connect 195 14 692 0;
#X connect 195 15 207 0;
#X connect 195 15 475 0;
#X connect 195 15 693 0;
#X connect 196 0 285 0;
#X connect 196 0 393 0;
#X connect 197 0 285 0;
#X connect 197 0 398 0;
#X connect 198 0 285 0;
#X connect 198 0 403 0;
#X connect 199 0 285 0;
#X connect 199 0 408 0;
#X connect 200 0 285 0;
#X connect 200 0 441 0;
#X connect 201 0 285 0;
#X connect 201 0 446 0;
#X connect 202 0 285 0;
#X connect 202 0 451 0;
#X connect 203 0 285 0;
#X connect 203 0 456 0;
#X connect 204 0 285 0;
#X connect 204 0 461 0;
#X connect 205 0 285 0;
#X connect 205 0 466 0;
#X connect 206 0 285 0;
#X connect 206 0 471 0;
#X connect 207 0 285 0;
#X connect 207 0 476 0;
#X connect 208 0 191 1;
#X connect 208 0 374 1;
#X connect 208 0 678 1;
#X connect 209 0 192 1;
#X connect 209 0 379 1;
#X connect 209 0 679 1;
#X connect 210 0 193 1;
#X connect 210 0 384 1;
#X connect 210 0 680 1;
#X connect 211 0 194 1;
#X connect 211 0 389 1;
#X connect 211 0 681 1;
#X connect 212 0 196 1;
#X connect 212 0 394 1;
#X connect 212 0 682 1;
#X connect 213 0 197 1;
#X connect 213 0 399 1;
#X connect 213 0 683 1;
#X connect 214 0 198 1;
#X connect 214 0 404 1;
#X connect 214 0 684 1;
#X connect 215 0 199 1;
#X connect 215 0 409 1;
#X connect 215 0 685 1;
#X connect 216 0 200 1;
#X connect 216 0 442 1;
#X connect 216 0 686 1;
#X connect 217 0 201 1;
#X connect 217 0 447 1;
#X connect 217 0 687 1;
#X connect 218 0 202 1;
#X connect 218 0 452 1;
#X connect 218 0 688 1;
#X connect 219 0 203 1;
#X connect 219 0 457 1;
#X connect 219 0 689 1;
#X connect 220 0 204 1;
#X connect 220 0 462 1;
#X connect 220 0 690 1;
#X connect 221 0 205 1;
#X connect 221 0 467 1;
#X connect 221 0 691 1;
#X connect 222 0 206 1;
#X connect 222 0 472 1;
#X connect 222 0 692 1;
#X connect 223 0 207 1;
#X connect 223 0 477 1;
#X connect 223 0 693 1;
#X connect 224 0 208 0;
#X connect 225 0 209 0;
#X connect 226 0 210 0;
#X connect 227 0 211 0;
#X connect 228 0 212 0;
#X connect 229 0 213 0;
#X connect 230 0 214 0;
#X connect 231 0 215 0;
#X connect 232 0 216 0;
#X connect 233 0 217 0;
#X connect 234 0 218 0;
#X connect 235 0 219 0;
#X connect 236 0 220 0;
#X connect 237 0 221 0;
#X connect 238 0 222 0;
#X connect 239 0 223 0;
#X connect 241 0 249 0;
#X connect 241 0 264 0;
#X connect 241 0 263 0;
#X connect 241 0 262 0;
#X connect 241 0 261 0;
#X connect 241 0 260 0;
#X connect 241 0 259 0;
#X connect 241 0 258 0;
#X connect 241 0 257 0;
#X connect 241 0 255 0;
#X connect 241 0 254 0;
#X connect 241 0 253 0;
#X connect 241 0 251 0;
#X connect 241 0 250 0;
#X connect 241 0 252 0;
#X connect 241 0 256 0;
#X connect 241 0 503 0;
#X connect 241 0 504 0;
#X connect 241 0 505 0;
#X connect 241 0 506 0;
#X connect 241 0 507 0;
#X connect 241 0 508 0;
#X connect 241 0 509 0;
#X connect 241 0 510 0;
#X connect 241 0 534 0;
#X connect 241 0 533 0;
#X connect 241 0 532 0;
#X connect 241 0 531 0;
#X connect 241 0 530 0;
#X connect 241 0 529 0;
#X connect 241 0 528 0;
#X connect 241 0 527 0;
#X connect 242 0 250 0;
#X connect 242 0 252 0;
#X connect 242 0 254 0;
#X connect 242 0 256 0;
#X connect 242 0 258 0;
#X connect 242 0 260 0;
#X connect 242 0 262 0;
#X connect 242 0 264 0;
#X connect 242 0 504 0;
#X connect 242 0 528 0;
#X connect 242 0 506 0;
#X connect 242 0 530 0;
#X connect 242 0 508 0;
#X connect 242 0 532 0;
#X connect 242 0 510 0;
#X connect 242 0 534 0;
#X connect 243 0 251 0;
#X connect 243 0 254 0;
#X connect 243 0 257 0;
#X connect 243 0 260 0;
#X connect 243 0 263 0;
#X connect 243 0 505 0;
#X connect 243 0 529 0;
#X connect 243 0 508 0;
#X connect 243 0 532 0;
#X connect 244 0 252 0;
#X connect 244 0 256 0;
#X connect 244 0 260 0;
#X connect 244 0 264 0;
#X connect 244 0 506 0;
#X connect 244 0 530 0;
#X connect 244 0 510 0;
#X connect 249 0 265 1;
#X connect 250 0 266 1;
#X connect 251 0 267 1;
#X connect 252 0 268 1;
#X connect 253 0 269 1;
#X connect 254 0 270 1;
#X connect 255 0 271 1;
#X connect 256 0 272 1;
#X connect 257 0 273 1;
#X connect 258 0 274 1;
#X connect 259 0 275 1;
#X connect 260 0 276 1;
#X connect 261 0 277 1;
#X connect 262 0 278 1;
#X connect 263 0 279 1;
#X connect 264 0 280 1;
#X connect 265 0 224 0;
#X connect 265 0 551 0;
#X connect 266 0 225 0;
#X connect 266 0 552 0;
#X connect 267 0 226 0;
#X connect 267 0 553 0;
#X connect 268 0 227 0;
#X connect 268 0 554 0;
#X connect 269 0 228 0;
#X connect 269 0 555 0;
#X connect 270 0 229 0;
#X connect 270 0 556 0;
#X connect 271 0 230 0;
#X connect 271 0 557 0;
#X connect 272 0 231 0;
#X connect 272 0 558 0;
#X connect 273 0 232 0;
#X connect 273 0 559 0;
#X connect 274 0 233 0;
#X connect 274 0 560 0;
#X connect 275 0 234 0;
#X connect 275 0 561 0;
#X connect 276 0 235 0;
#X connect 276 0 562 0;
#X connect 277 0 236 0;
#X connect 277 0 563 0;
#X connect 278 0 237 0;
#X connect 278 0 564 0;
#X connect 279 0 238 0;
#X connect 279 0 565 0;
#X connect 280 0 239 0;
#X connect 280 0 566 0;
#X connect 282 0 265 0;
#X connect 282 0 266 0;
#X connect 282 0 267 0;
#X connect 282 0 280 0;
#X connect 282 0 279 0;
#X connect 282 0 278 0;
#X connect 282 0 277 0;
#X connect 282 0 276 0;
#X connect 282 0 275 0;
#X connect 282 0 274 0;
#X connect 282 0 273 0;
#X connect 282 0 272 0;
#X connect 282 0 271 0;
#X connect 282 0 270 0;
#X connect 282 0 269 0;
#X connect 282 0 268 0;
#X connect 283 0 253 0;
#X connect 283 0 258 0;
#X connect 283 0 263 0;
#X connect 283 0 534 0;
#X connect 283 0 507 0;
#X connect 283 0 531 0;
#X connect 285 0 286 0;
#X connect 285 0 289 0;
#X connect 288 0 289 1;
#X connect 289 0 290 0;
#X connect 289 0 292 0;
#X connect 290 0 289 1;
#X connect 292 0 287 0;
#X connect 292 0 195 0;
#X connect 292 0 25 0;
#X connect 293 0 208 1;
#X connect 293 0 209 1;
#X connect 293 0 210 1;
#X connect 293 0 211 1;
#X connect 293 0 212 1;
#X connect 293 0 213 1;
#X connect 293 0 214 1;
#X connect 293 0 215 1;
#X connect 293 0 216 1;
#X connect 293 0 217 1;
#X connect 293 0 218 1;
#X connect 293 0 219 1;
#X connect 293 0 220 1;
#X connect 293 0 221 1;
#X connect 293 0 222 1;
#X connect 293 0 223 1;
#X connect 294 0 293 0;
#X connect 295 0 294 0;
#X connect 296 0 295 0;
#X connect 297 0 292 1;
#X connect 298 0 129 1;
#X connect 299 0 300 0;
#X connect 301 0 46 0;
#X connect 301 0 629 0;
#X connect 302 0 24 0;
#X connect 302 0 629 0;
#X connect 327 0 224 0;
#X connect 328 0 225 0;
#X connect 329 0 226 0;
#X connect 330 0 227 0;
#X connect 331 0 228 0;
#X connect 332 0 229 0;
#X connect 333 0 230 0;
#X connect 334 0 231 0;
#X connect 335 0 242 0;
#X connect 335 0 179 0;
#X connect 336 0 241 0;
#X connect 336 0 178 0;
#X connect 337 0 26 0;
#X connect 338 0 49 0;
#X connect 339 0 50 0;
#X connect 340 0 52 0;
#X connect 341 0 110 0;
#X connect 342 0 111 0;
#X connect 343 0 112 0;
#X connect 344 0 113 0;
#X connect 345 0 243 0;
#X connect 345 0 180 0;
#X connect 346 0 181 0;
#X connect 346 0 244 0;
#X connect 347 0 282 0;
#X connect 348 0 188 0;
#X connect 349 0 411 0;
#X connect 350 0 575 0;
#X connect 351 0 663 0;
#X connect 352 0 413 0;
#X connect 353 0 668 0;
#X connect 354 0 412 0;
#X connect 355 0 0 0;
#X connect 356 0 1 0;
#X connect 357 0 2 0;
#X connect 358 0 4 0;
#X connect 359 0 5 0;
#X connect 360 0 6 0;
#X connect 361 0 7 0;
#X connect 362 0 8 0;
#X connect 371 0 363 0;
#X connect 372 0 375 0;
#X connect 373 0 371 0;
#X connect 374 0 371 1;
#X connect 375 0 371 0;
#X connect 375 1 374 0;
#X connect 376 0 364 0;
#X connect 377 0 380 0;
#X connect 378 0 376 0;
#X connect 379 0 376 1;
#X connect 380 0 376 0;
#X connect 380 1 379 0;
#X connect 381 0 365 0;
#X connect 382 0 385 0;
#X connect 383 0 381 0;
#X connect 384 0 381 1;
#X connect 385 0 381 0;
#X connect 385 1 384 0;
#X connect 386 0 366 0;
#X connect 387 0 390 0;
#X connect 388 0 386 0;
#X connect 389 0 386 1;
#X connect 390 0 386 0;
#X connect 390 1 389 0;
#X connect 391 0 367 0;
#X connect 392 0 395 0;
#X connect 393 0 391 0;
#X connect 394 0 391 1;
#X connect 395 0 391 0;
#X connect 395 1 394 0;
#X connect 396 0 368 0;
#X connect 397 0 400 0;
#X connect 398 0 396 0;
#X connect 399 0 396 1;
#X connect 400 0 396 0;
#X connect 400 1 399 0;
#X connect 401 0 369 0;
#X connect 402 0 405 0;
#X connect 403 0 401 0;
#X connect 404 0 401 1;
#X connect 405 0 401 0;
#X connect 405 1 404 0;
#X connect 406 0 370 0;
#X connect 407 0 410 0;
#X connect 408 0 406 0;
#X connect 409 0 406 1;
#X connect 410 0 406 0;
#X connect 410 1 409 0;
#X connect 411 0 294 0;
#X connect 412 0 670 0;
#X connect 413 0 665 0;
#X connect 415 0 115 0;
#X connect 416 0 115 0;
#X connect 417 0 116 0;
#X connect 418 0 117 0;
#X connect 419 0 118 0;
#X connect 420 0 119 0;
#X connect 421 0 120 0;
#X connect 422 0 121 0;
#X connect 423 0 232 0;
#X connect 424 0 233 0;
#X connect 425 0 234 0;
#X connect 426 0 235 0;
#X connect 427 0 236 0;
#X connect 428 0 237 0;
#X connect 429 0 238 0;
#X connect 430 0 239 0;
#X connect 439 0 431 0;
#X connect 440 0 443 0;
#X connect 441 0 439 0;
#X connect 442 0 439 1;
#X connect 443 0 439 0;
#X connect 443 1 442 0;
#X connect 444 0 432 0;
#X connect 445 0 448 0;
#X connect 446 0 444 0;
#X connect 447 0 444 1;
#X connect 448 0 444 0;
#X connect 448 1 447 0;
#X connect 449 0 433 0;
#X connect 450 0 453 0;
#X connect 451 0 449 0;
#X connect 452 0 449 1;
#X connect 453 0 449 0;
#X connect 453 1 452 0;
#X connect 454 0 434 0;
#X connect 455 0 458 0;
#X connect 456 0 454 0;
#X connect 457 0 454 1;
#X connect 458 0 454 0;
#X connect 458 1 457 0;
#X connect 459 0 435 0;
#X connect 460 0 463 0;
#X connect 461 0 459 0;
#X connect 462 0 459 1;
#X connect 463 0 459 0;
#X connect 463 1 462 0;
#X connect 464 0 436 0;
#X connect 465 0 468 0;
#X connect 466 0 464 0;
#X connect 467 0 464 1;
#X connect 468 0 464 0;
#X connect 468 1 467 0;
#X connect 469 0 437 0;
#X connect 470 0 473 0;
#X connect 471 0 469 0;
#X connect 472 0 469 1;
#X connect 473 0 469 0;
#X connect 473 1 472 0;
#X connect 474 0 438 0;
#X connect 475 0 478 0;
#X connect 476 0 474 0;
#X connect 477 0 474 1;
#X connect 478 0 474 0;
#X connect 478 1 477 0;
#X connect 479 0 249 0;
#X connect 480 0 250 0;
#X connect 481 0 251 0;
#X connect 482 0 252 0;
#X connect 483 0 253 0;
#X connect 484 0 254 0;
#X connect 485 0 255 0;
#X connect 486 0 256 0;
#X connect 487 0 16 0;
#X connect 488 0 15 0;
#X connect 489 0 14 0;
#X connect 490 0 13 0;
#X connect 491 0 12 0;
#X connect 492 0 11 0;
#X connect 493 0 10 0;
#X connect 494 0 9 0;
#X connect 495 0 257 0;
#X connect 496 0 258 0;
#X connect 497 0 259 0;
#X connect 498 0 260 0;
#X connect 499 0 261 0;
#X connect 500 0 262 0;
#X connect 501 0 263 0;
#X connect 502 0 264 0;
#X connect 567 0 282 0;
#X connect 568 0 188 0;
#X connect 569 0 411 0;
#X connect 570 0 575 0;
#X connect 571 0 663 0;
#X connect 572 0 413 0;
#X connect 573 0 668 0;
#X connect 574 0 412 0;
#X connect 575 0 150 0;
#X connect 576 0 241 0;
#X connect 576 0 178 0;
#X connect 577 0 243 0;
#X connect 577 0 180 0;
#X connect 578 0 242 0;
#X connect 578 0 179 0;
#X connect 579 0 244 0;
#X connect 579 0 181 0;
#X connect 580 0 18 0;
#X connect 581 0 126 0;
#X connect 582 0 53 0;
#X connect 583 0 29 0;
#X connect 584 1 585 0;
#X connect 586 0 24 0;
#X connect 586 0 629 0;
#X connect 587 0 586 0;
#X connect 588 0 587 0;
#X connect 589 0 588 1;
#X connect 599 0 68 0;
#X connect 600 0 67 0;
#X connect 601 0 66 0;
#X connect 602 0 65 0;
#X connect 603 0 64 0;
#X connect 604 0 61 0;
#X connect 605 0 62 0;
#X connect 606 0 63 0;
#X connect 607 0 60 0;
#X connect 608 0 59 0;
#X connect 609 0 58 0;
#X connect 610 0 57 0;
#X connect 611 0 56 0;
#X connect 612 0 55 0;
#X connect 613 0 3 0;
#X connect 614 0 54 0;
#X connect 620 0 621 0;
#X connect 620 1 621 1;
#X connect 621 0 622 0;
#X connect 621 1 619 0;
#X connect 622 0 627 0;
#X connect 625 0 628 0;
#X connect 626 0 625 0;
#X connect 626 1 624 0;
#X connect 631 0 634 0;
#X connect 632 0 633 0;
#X connect 633 0 130 0;
#X connect 634 0 632 0;
#X connect 635 0 651 1;
#X connect 636 0 651 4;
#X connect 637 0 651 2;
#X connect 638 0 651 3;
#X connect 639 0 634 1;
#X connect 640 0 634 1;
#X connect 641 0 634 1;
#X connect 646 0 631 0;
#X connect 651 0 646 0;
#X connect 652 0 634 1;
#X connect 655 0 635 0;
#X connect 656 0 637 0;
#X connect 658 0 638 0;
#X connect 659 0 636 0;
#X connect 663 0 47 0;
#X connect 665 0 301 1;
#X connect 667 0 37 1;
#X connect 668 0 20 0;
#X connect 670 0 302 1;
#X connect 672 0 674 0;
#X connect 672 0 675 0;
#X connect 674 0 655 0;
#X connect 675 0 658 0;
#X connect 678 0 694 0;
#X connect 679 0 694 0;
#X connect 680 0 694 0;
#X connect 681 0 694 0;
#X connect 682 0 694 0;
#X connect 683 0 694 0;
#X connect 684 0 694 0;
#X connect 685 0 694 0;
#X connect 686 0 694 0;
#X connect 687 0 694 0;
#X connect 688 0 694 0;
#X connect 689 0 694 0;
#X connect 690 0 694 0;
#X connect 691 0 694 0;
#X connect 692 0 694 0;
#X connect 693 0 694 0;
#X connect 694 0 695 0;
#X connect 706 0 707 0;
#X connect 707 0 150 0;
#X coords 0 -1 1 1 540 500 2 10 300;
#X restore 11 15 pd page-2;
#N canvas 145 248 692 369 pd303bvmixer 0;
#X obj 108 201 dac~ 1 2;
#X obj 108 172 *~;
#X obj 108 148 *~;
#X obj 184 169 vsl 45 40 0 1 0 0 empty empty GAIN_1&2 0 -9 0 10 -228856
-260097 -1 1170 1;
#X obj 266 150 *~;
#X obj 308 164 vsl 45 40 0 1 0 0 empty empty GAIN_3 0 -9 0 10 -228856
-260097 -1 0 1;
#X obj 121 55 inlet~;
#X obj 171 55 inlet~;
#X obj 221 55 inlet~;
#X obj 271 55 inlet~;
#X obj 376 150 *~;
#X obj 418 164 vsl 45 40 0 1 0 0 empty empty GAIN_4 0 -9 0 10 -228856
-260097 -1 0 1;
#X obj 369 177 dac~ 4;
#X obj 259 177 dac~ 3;
#X obj 167 104 loadbang;
#X msg 167 130 0.3;
#X connect 1 0 0 0;
#X connect 1 0 0 1;
#X connect 2 0 0 1;
#X connect 2 0 0 0;
#X connect 3 0 2 1;
#X connect 3 0 1 1;
#X connect 4 0 13 0;
#X connect 5 0 4 1;
#X connect 6 0 2 0;
#X connect 7 0 1 0;
#X connect 8 0 13 0;
#X connect 9 0 12 0;
#X connect 10 0 12 0;
#X connect 11 0 10 1;
#X connect 14 0 15 0;
#X connect 15 0 3 0;
#X coords 0 -1 1 1 540 120 1 100 100;
#X restore 11 606 pd pd303bvmixer;
#N canvas 0 22 783 476 bobfilter 0;
#X floatatom 168 293 5 0 200 0 - - -, f 5;
#X obj 39 417 bob~;
#X obj 168 315 / 25;
#X msg 710 329 print;
#X floatatom 51 279 5 0 150 0 - - -, f 5;
#X obj 51 301 mtof;
#X obj 52 346 pack 0 50;
#X obj 52 371 line~;
#X msg 254 401 clear;
#X floatatom 51 324 7 0 0 0 - - -, f 7;
#X floatatom 371 277 5 0 999 0 - - -, f 5;
#X msg 371 323 saturation \$1;
#X obj 371 227 loadbang;
#X obj 371 299 / 100;
#X text 645 283 clear or print;
#X text 649 302 filter state;
#X floatatom 508 297 5 1 10 0 - - -, f 5;
#X text 504 222 oversampling;
#X msg 508 324 oversample \$1;
#X text 178 205 (>4 to oscillate);
#X obj 508 245 loadbang;
#X msg 508 270 2;
#X text 216 311 scaled to 0-8;
#X text 215 293 0-200 control;
#X text 23 186 resonant or cutoff frequency, f 16;
#X text 60 160 ----- filter parameters ----;
#X text 369 159 ------ optimizations / setup params -------;
#X text 659 261 debugging:;
#X text 363 188 saturation point;
#X text 360 205 of "transistors";
#X msg 371 252 300;
#X obj 168 242 loadbang;
#X msg 168 267 10;
#X obj 167 343 line~;
#X obj 51 230 loadbang;
#X msg 51 255 69;
#X obj 325 118 hsl 128 15 0 200 0 0 empty empty empty -2 -8 0 10 -262144
-1 -1 0 1;
#X obj 125 118 hsl 128 15 0 127 0 0 empty empty empty -2 -8 0 10 -262144
-1 -1 6400 1;
#X obj 74 449 outlet~;
#X text 179 188 "resonance";
#X text 197 117 cutt freq;
#X obj 71 33 inlet~;
#X obj 263 118 tgl 15 0 empty empty empty 17 7 0 10 -262144 -1 -1 0
1;
#X text 279 118 SYNC;
#X obj 179 63 spigot;
#X obj 179 29 r pd303b_main_pitch;
#X text 323 117 resonance;
#X text 409 117 danger! zone;
#X obj 14 454 *~;
#X obj 14 430 *~;
#X obj 550 116 vsl 30 30 0 1 0 0 empty empty CLEAN 0 -9 0 10 -228856
-260097 -1 0 1;
#X obj 503 116 vsl 30 30 0 1 0 0 empty empty MIX 0 -9 0 10 -228856
-260097 -1 2400 1;
#X obj 613 112 bng 15 250 50 0 empty empty empty 17 7 0 10 -262144
-1 -1;
#X text 602 128 reset;
#X connect 0 0 2 0;
#X connect 1 0 48 0;
#X connect 2 0 33 0;
#X connect 3 0 1 0;
#X connect 4 0 5 0;
#X connect 5 0 9 0;
#X connect 6 0 7 0;
#X connect 7 0 1 1;
#X connect 8 0 1 0;
#X connect 9 0 6 0;
#X connect 10 0 13 0;
#X connect 11 0 1 0;
#X connect 12 0 30 0;
#X connect 13 0 11 0;
#X connect 16 0 18 0;
#X connect 18 0 1 0;
#X connect 20 0 21 0;
#X connect 21 0 16 0;
#X connect 30 0 10 0;
#X connect 31 0 32 0;
#X connect 32 0 0 0;
#X connect 33 0 1 2;
#X connect 34 0 35 0;
#X connect 35 0 4 0;
#X connect 36 0 0 0;
#X connect 37 0 4 0;
#X connect 41 0 1 0;
#X connect 41 0 49 0;
#X connect 42 0 44 1;
#X connect 44 0 37 0;
#X connect 45 0 44 0;
#X connect 48 0 38 0;
#X connect 49 0 38 0;
#X connect 50 0 49 1;
#X connect 51 0 48 1;
#X connect 52 0 8 0;
#X coords 0 -1 1 1 540 50 1 100 100;
#X restore 12 531 pd bobfilter;
#X connect 0 0 2 0;
#X connect 2 0 1 0;
#X connect 2 0 1 1;
