#N canvas 0 22 1261 689 10;
#X obj 5 37 metro;
#X obj 48 -134 tgl 15 0 empty empty empty 17 7 0 10 -260097 -257985
-1 0 127;
#X obj 67 -134 nbx 5 14 -1e+37 1e+37 0 0 empty empty empty 0 -8 0 10
-260097 -257985 -1 66 256;
#X obj 5 60 f;
#X obj 39 60 + 1;
#X obj 1 -120 hradio 16 1 0 10 empty empty empty 0 -8 0 10 -260097
-257985 -1 0;
#X obj 6 135 f;
#X obj 623 88 mtof;
#X obj 623 116 phasor~;
#X obj 623 140 dac~;
#X obj 209 32 metro;
#X obj 210 -135 tgl 15 0 empty empty empty 17 7 0 10 -260097 -257985
-1 0 127;
#X obj 233 -134 nbx 5 14 -1e+37 1e+37 0 0 empty empty empty 0 -8 0
10 -260097 -257985 -1 66 256;
#X obj 209 56 f;
#X obj 243 56 + 1;
#X obj 162 -120 hradio 16 1 0 10 empty empty empty 0 -8 0 10 -257985
-260097 -1 0;
#X obj 211 133 f;
#X obj 210 80 mod 10;
#X obj 211 107 select 0 1 2 3 4 5 6 7 8 9;
#X obj 6 83 mod 10;
#X obj 5 108 select 0 1 2 3 4 5 6 7 8 9;
#X obj 4 -103 hsl 128 15 0 127 0 0 empty empty empty -2 -8 0 10 -260097
-257985 -1 6600 1;
#X obj 164 -103 hsl 128 15 0 127 0 0 empty empty empty -2 -8 0 10 -260097
-257985 -1 6600 1;
#X obj 5 177 metro;
#X obj 64 -88 tgl 15 0 empty empty empty 17 7 0 10 -260097 -257985
-1 0 127;
#X obj 86 -87 nbx 5 14 -1e+37 1e+37 0 0 empty empty empty 0 -8 0 10
-260097 -257985 -1 66 256;
#X obj 5 205 f;
#X obj 39 205 + 1;
#X obj 1 -73 hradio 16 1 0 10 empty empty empty 0 -8 0 10 -260097 -257985
-1 0;
#X obj 7 276 f;
#X obj 203 187 metro;
#X obj 216 -88 tgl 15 0 empty empty empty 17 7 0 10 -260097 -257985
-1 0 127;
#X obj 238 -87 nbx 5 14 -1e+37 1e+37 0 0 empty empty empty 0 -8 0 10
-260097 -257985 -1 66 256;
#X obj 203 215 f;
#X obj 237 215 + 1;
#X obj 162 -73 hradio 16 1 0 10 empty empty empty 0 -8 0 10 -260097
-257985 -1 0;
#X obj 202 291 f;
#X obj 204 248 mod 10;
#X obj 202 270 select 0 1 2 3 4 5 6 7 8 9;
#X obj 6 231 mod 10;
#X obj 7 251 select 0 1 2 3 4 5 6 7 8 9;
#X obj 4 -56 hsl 128 15 0 127 0 0 empty empty empty -2 -8 0 10 -260097
-257985 -1 6600 1;
#X obj 166 -56 hsl 128 15 0 127 0 0 empty empty empty -2 -8 0 10 -260097
-257985 -1 6600 1;
#X text 165 -137 2 [TWO];
#X text 4 -89 3 [THREE];
#X text 199 157 4 [FOUR];
#X obj 346 36 bng 15 250 50 0 empty empty empty 17 7 0 10 -262144 -1
-1;
#X msg 378 70 \; pd dsp 1;
#X obj 369 8 loadbang;
#X obj 369 34 delay 100;
#X obj 400 111 print running;
#X obj 669 50 bng 15 250 50 0 empty empty empty 17 7 0 10 -260097 -257985
-1;
#X msg 670 74 0;
#X msg 346 54 66;
#X msg 269 345 \; pd dsp 1;
#X msg 189 344 \; pd dsp 0;
#X text 3 -136 1 [ONE];
#X text 1 20 1 [ONE];
#X text 208 17 2 [TWO];
#X text 3 157 3 [THREE];
#X text 165 -90 4 [FOUR];
#X text 186 -38 bang on/off;
#X text 181 -3 DSP toggle hack!;
#X obj 208 336 bng 15 250 50 0 empty empty empty 17 7 0 10 -260097
-257985 -1;
#X obj 286 342 bng 15 250 50 0 empty empty empty 17 7 0 10 -260097
-257985 -1;
#X floatatom -1 -311 5 0 0 0 - - -;
#X obj -5 -418 ctlin 73 2;
#X obj -10 -390 ctlin 81 2;
#X obj -11 -338 ctlin 89 2;
#X floatatom -1 -261 5 0 0 0 - - -;
#X obj -11 -288 ctlin 97 2;
#X floatatom 69 -311 5 0 0 0 - - -;
#X floatatom 69 -261 5 0 0 0 - - -;
#X floatatom 139 -311 5 0 0 0 - - -;
#X floatatom 139 -261 5 0 0 0 - - -;
#X floatatom 209 -311 5 0 0 0 - - -;
#X floatatom 209 -261 5 0 0 0 - - -;
#X floatatom 279 -311 5 0 0 0 - - -;
#X floatatom 279 -261 5 0 0 0 - - -;
#X floatatom 349 -311 5 0 0 0 - - -;
#X floatatom 349 -261 5 0 0 0 - - -;
#X floatatom 419 -311 5 0 0 0 - - -;
#X floatatom 419 -261 5 0 0 0 - - -;
#X floatatom 489 -311 5 0 0 0 - - -;
#X floatatom 489 -261 5 0 0 0 - - -;
#X obj 55 -509 ctlin 2 2;
#X obj 125 -509 ctlin 3 2;
#X obj 195 -509 ctlin 4 2;
#X obj 265 -509 ctlin 5 2;
#X obj 335 -509 ctlin 6 2;
#X obj 405 -509 ctlin 7 2;
#X obj 65 -418 ctlin 74 2;
#X obj 135 -418 ctlin 75 2;
#X obj 205 -418 ctlin 76 2;
#X obj 275 -418 ctlin 77 2;
#X obj 345 -418 ctlin 78 2;
#X obj 415 -418 ctlin 79 2;
#X obj 485 -418 ctlin 80 2;
#X obj 60 -390 ctlin 82 2;
#X obj 130 -390 ctlin 83 2;
#X obj 200 -390 ctlin 84 2;
#X obj 270 -390 ctlin 85 2;
#X obj 340 -390 ctlin 86 2;
#X obj 410 -390 ctlin 87 2;
#X obj 480 -390 ctlin 88 2;
#X obj 59 -338 ctlin 90 2;
#X obj 129 -338 ctlin 91 2;
#X obj 199 -338 ctlin 92 2;
#X obj 269 -338 ctlin 93 2;
#X obj 339 -338 ctlin 94 2;
#X obj 409 -338 ctlin 95 2;
#X obj 479 -338 ctlin 96 2;
#X obj 59 -288 ctlin 98 2;
#X obj 129 -288 ctlin 99 2;
#X obj 199 -288 ctlin 100 2;
#X obj 269 -288 ctlin 101 2;
#X obj 339 -288 ctlin 102 2;
#X obj 409 -288 ctlin 103 2;
#X obj 479 -288 ctlin 104 2;
#X obj 475 -509 ctlin 127 2;
#X obj -15 -509 ctlin 1 2;
#X floatatom 0 -363 5 0 0 0 - - -;
#X floatatom 70 -363 5 0 0 0 - - -;
#X floatatom 140 -363 5 0 0 0 - - -;
#X floatatom 210 -363 5 0 0 0 - - -;
#X floatatom 280 -363 5 0 0 0 - - -;
#X floatatom 350 -363 5 0 0 0 - - -;
#X floatatom 420 -363 5 0 0 0 - - -;
#X floatatom 490 -363 5 0 0 0 - - -;
#X obj 715 37 metro;
#X obj 758 -134 tgl 15 0 empty empty empty 17 7 0 10 -260097 -257985
-1 0 127;
#X obj 777 -134 nbx 5 14 -1e+37 1e+37 0 0 empty empty empty 0 -8 0
10 -260097 -257985 -1 66 256;
#X obj 715 60 f;
#X obj 749 60 + 1;
#X obj 711 -120 hradio 16 1 0 10 empty empty empty 0 -8 0 10 -260097
-257985 -1 0;
#X obj 716 135 f;
#X obj 919 32 metro;
#X obj 920 -135 tgl 15 0 empty empty empty 17 7 0 10 -260097 -257985
-1 0 127;
#X obj 943 -134 nbx 5 14 -1e+37 1e+37 0 0 empty empty empty 0 -8 0
10 -260097 -257985 -1 66 256;
#X obj 919 56 f;
#X obj 953 56 + 1;
#X obj 872 -120 hradio 16 1 0 10 empty empty empty 0 -8 0 10 -257985
-260097 -1 0;
#X obj 921 133 f;
#X obj 920 80 mod 10;
#X obj 921 107 select 0 1 2 3 4 5 6 7 8 9;
#X obj 716 83 mod 10;
#X obj 715 108 select 0 1 2 3 4 5 6 7 8 9;
#X obj 714 -103 hsl 128 15 0 127 0 0 empty empty empty -2 -8 0 10 -260097
-257985 -1 6600 1;
#X obj 874 -103 hsl 128 15 0 127 0 0 empty empty empty -2 -8 0 10 -260097
-257985 -1 6600 1;
#X obj 715 177 metro;
#X obj 774 -88 tgl 15 0 empty empty empty 17 7 0 10 -260097 -257985
-1 0 127;
#X obj 796 -87 nbx 5 14 -1e+37 1e+37 0 0 empty empty empty 0 -8 0 10
-260097 -257985 -1 66 256;
#X obj 715 205 f;
#X obj 749 205 + 1;
#X obj 711 -73 hradio 16 1 0 10 empty empty empty 0 -8 0 10 -260097
-257985 -1 0;
#X obj 717 276 f;
#X obj 913 187 metro;
#X obj 926 -88 tgl 15 0 empty empty empty 17 7 0 10 -260097 -257985
-1 0 127;
#X obj 948 -87 nbx 5 14 -1e+37 1e+37 0 0 empty empty empty 0 -8 0 10
-260097 -257985 -1 66 256;
#X obj 913 215 f;
#X obj 947 215 + 1;
#X obj 872 -73 hradio 16 1 0 10 empty empty empty 0 -8 0 10 -260097
-257985 -1 0;
#X obj 912 291 f;
#X obj 914 248 mod 10;
#X obj 912 270 select 0 1 2 3 4 5 6 7 8 9;
#X obj 716 231 mod 10;
#X obj 717 251 select 0 1 2 3 4 5 6 7 8 9;
#X obj 714 -56 hsl 128 15 0 127 0 0 empty empty empty -2 -8 0 10 -260097
-257985 -1 6600 1;
#X obj 876 -56 hsl 128 15 0 127 0 0 empty empty empty -2 -8 0 10 -260097
-257985 -1 6600 1;
#X text 875 -137 2 [TWO];
#X text 714 -89 3 [THREE];
#X text 909 157 4 [FOUR];
#X obj 1056 36 bng 15 250 50 0 empty empty empty 17 7 0 10 -262144
-1 -1;
#X obj 1079 8 loadbang;
#X text 1031 -37 LOADBANGZ 4 PD_SRV;
#X text 1030 -23 && RASPBERRY PI;
#X obj 897 -18 bng 15 250 50 0 empty empty empty 17 7 0 10 -260097
-257985 -1;
#X msg 1056 54 66;
#X text 713 -136 1 [ONE];
#X text 711 20 1 [ONE];
#X text 918 17 2 [TWO];
#X text 713 157 3 [THREE];
#X text 875 -90 4 [FOUR];
#X text 896 -38 bang on/off;
#X text 891 -3 DSP toggle hack!;
#X obj 922 -18 bng 15 250 50 0 empty empty empty 17 7 0 10 -260097
-257985 -1;
#X obj 942 -18 bng 15 250 50 0 empty empty empty 17 7 0 10 -260097
-257985 -1;
#X obj 623 205 mtof;
#X obj 623 233 phasor~;
#X obj 645 -221 * 10;
#X obj 603 -221 * 10;
#X obj 562 -218 * 10;
#X obj 527 -217 * 10;
#X obj 494 -217 * 10;
#X obj 393 -217 * 10;
#X obj 428 -218 * 10;
#X obj 461 -219 * 10;
#X obj 828 -181 ctlout 7 2;
#X obj 741 -185 ctlout 6 2;
#X obj 671 -186 ctlout 5 2;
#X obj 602 -186 ctlout 4 2;
#X obj 535 -184 ctlout 3 2;
#X obj 463 -184 ctlout 2 2;
#X obj 392 -182 ctlout 1 2;
#X obj 917 -184 ctlout 8 2;
#X obj -4 302 ctlin 105 2;
#X obj 208 313 ctlin 107 2;
#X obj 286 313 ctlin 108 2;
#X obj 569 163 bng 15 250 50 0 empty empty empty 17 7 0 10 -260097
-257985 -1;
#X msg 562 188 0;
#X obj 56 301 ctlin 106 2;
#X obj 64 -480 notein 2;
#X obj 134 -480 notein 2;
#X obj 204 -480 notein 2;
#X obj 274 -480 notein 2;
#X obj 344 -480 notein 2;
#X obj 414 -480 notein 2;
#X obj 484 -480 notein 2;
#X obj -6 -460 select 24;
#X obj 64 -461 select 25;
#X obj 136 -459 select 26;
#X obj 206 -457 select 27;
#X obj 274 -458 select 28;
#X obj 344 -459 select 29;
#X obj 414 -459 select 30;
#X obj 484 -460 select 31;
#X obj -6 -480 notein 2;
#X obj 484 -437 bng 15 250 50 0 empty empty empty 17 7 0 10 -262144
-1 -1;
#X msg 502 -438 0;
#X obj -4 -438 bng 15 250 50 0 empty empty empty 17 7 0 10 -262144
-1 -1;
#X msg 14 -439 0;
#X obj 64 -440 bng 15 250 50 0 empty empty empty 17 7 0 10 -262144
-1 -1;
#X msg 82 -441 0;
#X obj 138 -437 bng 15 250 50 0 empty empty empty 17 7 0 10 -262144
-1 -1;
#X msg 156 -438 0;
#X obj 207 -436 bng 15 250 50 0 empty empty empty 17 7 0 10 -262144
-1 -1;
#X msg 225 -437 0;
#X obj 277 -436 bng 15 250 50 0 empty empty empty 17 7 0 10 -262144
-1 -1;
#X msg 295 -437 0;
#X obj 344 -438 bng 15 250 50 0 empty empty empty 17 7 0 10 -262144
-1 -1;
#X msg 362 -439 0;
#X obj 414 -437 bng 15 250 50 0 empty empty empty 17 7 0 10 -262144
-1 -1;
#X msg 432 -438 0;
#X text 320 -23 RASPBERRY PI;
#X obj 5 957 metro;
#X obj 48 786 tgl 15 0 empty empty empty 17 7 0 10 -260097 -257985
-1 0 127;
#X obj 67 786 nbx 5 14 -1e+37 1e+37 0 0 empty empty empty 0 -8 0 10
-260097 -257985 -1 0 256;
#X obj 5 980 f;
#X obj 39 980 + 1;
#X obj 1 800 hradio 16 1 0 10 empty empty empty 0 -8 0 10 -260097 -257985
-1 0;
#X obj 6 1055 f;
#X obj 623 1008 mtof;
#X obj 623 1036 phasor~;
#X obj 623 1060 dac~;
#X obj 209 952 metro;
#X obj 210 785 tgl 15 0 empty empty empty 17 7 0 10 -260097 -257985
-1 0 127;
#X obj 233 786 nbx 5 14 -1e+37 1e+37 0 0 empty empty empty 0 -8 0 10
-260097 -257985 -1 0 256;
#X obj 209 976 f;
#X obj 243 976 + 1;
#X obj 162 800 hradio 16 1 0 10 empty empty empty 0 -8 0 10 -257985
-260097 -1 0;
#X obj 211 1053 f;
#X obj 210 1000 mod 10;
#X obj 211 1027 select 0 1 2 3 4 5 6 7 8 9;
#X obj 6 1003 mod 10;
#X obj 5 1028 select 0 1 2 3 4 5 6 7 8 9;
#X obj 4 817 hsl 128 15 0 127 0 0 empty empty empty -2 -8 0 10 -260097
-257985 -1 0 1;
#X obj 164 817 hsl 128 15 0 127 0 0 empty empty empty -2 -8 0 10 -260097
-257985 -1 0 1;
#X obj 5 1097 metro;
#X obj 64 832 tgl 15 0 empty empty empty 17 7 0 10 -260097 -257985
-1 0 127;
#X obj 86 833 nbx 5 14 -1e+37 1e+37 0 0 empty empty empty 0 -8 0 10
-260097 -257985 -1 0 256;
#X obj 5 1125 f;
#X obj 39 1125 + 1;
#X obj 1 847 hradio 16 1 0 10 empty empty empty 0 -8 0 10 -260097 -257985
-1 0;
#X obj 7 1196 f;
#X obj 203 1107 metro;
#X obj 216 832 tgl 15 0 empty empty empty 17 7 0 10 -260097 -257985
-1 0 127;
#X obj 238 833 nbx 5 14 -1e+37 1e+37 0 0 empty empty empty 0 -8 0 10
-260097 -257985 -1 0 256;
#X obj 203 1135 f;
#X obj 237 1135 + 1;
#X obj 162 847 hradio 16 1 0 10 empty empty empty 0 -8 0 10 -260097
-257985 -1 0;
#X obj 202 1211 f;
#X obj 204 1168 mod 10;
#X obj 202 1190 select 0 1 2 3 4 5 6 7 8 9;
#X obj 6 1151 mod 10;
#X obj 7 1171 select 0 1 2 3 4 5 6 7 8 9;
#X obj 4 864 hsl 128 15 0 127 0 0 empty empty empty -2 -8 0 10 -260097
-257985 -1 0 1;
#X obj 166 864 hsl 128 15 0 127 0 0 empty empty empty -2 -8 0 10 -260097
-257985 -1 0 1;
#X text 165 783 2 [TWO];
#X text 4 831 3 [THREE];
#X text 199 1077 4 [FOUR];
#X obj 346 956 bng 15 250 50 0 empty empty empty 17 7 0 10 -262144
-1 -1;
#X obj 369 928 loadbang;
#X obj 669 970 bng 15 250 50 0 empty empty empty 17 7 0 10 -260097
-257985 -1;
#X msg 670 994 0;
#X msg 346 974 66;
#X text 3 784 1 [ONE];
#X text 1 940 1 [ONE];
#X text 208 937 2 [TWO];
#X text 3 1077 3 [THREE];
#X text 165 830 4 [FOUR];
#X text 186 882 bang on/off;
#X text 181 917 DSP toggle hack!;
#X floatatom -1 609 5 0 0 0 - - -;
#X floatatom -1 659 5 0 0 0 - - -;
#X floatatom 69 609 5 0 0 0 - - -;
#X floatatom 69 659 5 0 0 0 - - -;
#X floatatom 139 609 5 0 0 0 - - -;
#X floatatom 139 659 5 0 0 0 - - -;
#X floatatom 209 609 5 0 0 0 - - -;
#X floatatom 209 659 5 0 0 0 - - -;
#X floatatom 279 609 5 0 0 0 - - -;
#X floatatom 279 659 5 0 0 0 - - -;
#X floatatom 349 609 5 0 0 0 - - -;
#X floatatom 349 659 5 0 0 0 - - -;
#X floatatom 419 609 5 0 0 0 - - -;
#X floatatom 419 659 5 0 0 0 - - -;
#X floatatom 489 609 5 0 0 0 - - -;
#X floatatom 489 659 5 0 0 0 - - -;
#X floatatom 0 557 5 0 0 0 - - -;
#X floatatom 70 557 5 0 0 0 - - -;
#X floatatom 140 557 5 0 0 0 - - -;
#X floatatom 210 557 5 0 0 0 - - -;
#X floatatom 280 557 5 0 0 0 - - -;
#X floatatom 350 557 5 0 0 0 - - -;
#X floatatom 420 557 5 0 0 0 - - -;
#X floatatom 490 557 5 0 0 0 - - -;
#X obj 715 957 metro;
#X obj 758 786 tgl 15 0 empty empty empty 17 7 0 10 -260097 -257985
-1 0 127;
#X obj 777 786 nbx 5 14 -1e+37 1e+37 0 0 empty empty empty 0 -8 0 10
-260097 -257985 -1 0 256;
#X obj 715 980 f;
#X obj 749 980 + 1;
#X obj 711 800 hradio 16 1 0 10 empty empty empty 0 -8 0 10 -260097
-257985 -1 0;
#X obj 716 1055 f;
#X obj 919 952 metro;
#X obj 920 785 tgl 15 0 empty empty empty 17 7 0 10 -260097 -257985
-1 0 127;
#X obj 943 786 nbx 5 14 -1e+37 1e+37 0 0 empty empty empty 0 -8 0 10
-260097 -257985 -1 0 256;
#X obj 919 976 f;
#X obj 953 976 + 1;
#X obj 872 800 hradio 16 1 0 10 empty empty empty 0 -8 0 10 -257985
-260097 -1 0;
#X obj 921 1053 f;
#X obj 920 1000 mod 10;
#X obj 921 1027 select 0 1 2 3 4 5 6 7 8 9;
#X obj 716 1003 mod 10;
#X obj 715 1028 select 0 1 2 3 4 5 6 7 8 9;
#X obj 714 817 hsl 128 15 0 127 0 0 empty empty empty -2 -8 0 10 -260097
-257985 -1 0 1;
#X obj 874 817 hsl 128 15 0 127 0 0 empty empty empty -2 -8 0 10 -260097
-257985 -1 0 1;
#X obj 715 1097 metro;
#X obj 774 832 tgl 15 0 empty empty empty 17 7 0 10 -260097 -257985
-1 0 127;
#X obj 796 833 nbx 5 14 -1e+37 1e+37 0 0 empty empty empty 0 -8 0 10
-260097 -257985 -1 0 256;
#X obj 715 1125 f;
#X obj 749 1125 + 1;
#X obj 711 847 hradio 16 1 0 10 empty empty empty 0 -8 0 10 -260097
-257985 -1 0;
#X obj 717 1196 f;
#X obj 913 1107 metro;
#X obj 926 832 tgl 15 0 empty empty empty 17 7 0 10 -260097 -257985
-1 0 127;
#X obj 948 833 nbx 5 14 -1e+37 1e+37 0 0 empty empty empty 0 -8 0 10
-260097 -257985 -1 0 256;
#X obj 913 1135 f;
#X obj 947 1135 + 1;
#X obj 872 847 hradio 16 1 0 10 empty empty empty 0 -8 0 10 -260097
-257985 -1 0;
#X obj 912 1211 f;
#X obj 914 1168 mod 10;
#X obj 912 1190 select 0 1 2 3 4 5 6 7 8 9;
#X obj 716 1151 mod 10;
#X obj 717 1171 select 0 1 2 3 4 5 6 7 8 9;
#X obj 714 864 hsl 128 15 0 127 0 0 empty empty empty -2 -8 0 10 -260097
-257985 -1 0 1;
#X obj 876 864 hsl 128 15 0 127 0 0 empty empty empty -2 -8 0 10 -260097
-257985 -1 0 1;
#X text 875 783 2 [TWO];
#X text 714 831 3 [THREE];
#X text 909 1077 4 [FOUR];
#X obj 1056 956 bng 15 250 50 0 empty empty empty 17 7 0 10 -262144
-1 -1;
#X obj 1079 928 loadbang;
#X obj 897 902 bng 15 250 50 0 empty empty empty 17 7 0 10 -260097
-257985 -1;
#X msg 1056 974 66;
#X text 713 784 1 [ONE];
#X text 711 940 1 [ONE];
#X text 918 937 2 [TWO];
#X text 713 1077 3 [THREE];
#X text 875 830 4 [FOUR];
#X text 896 882 bang on/off;
#X text 891 917 DSP toggle hack!;
#X obj 922 902 bng 15 250 50 0 empty empty empty 17 7 0 10 -260097
-257985 -1;
#X obj 942 902 bng 15 250 50 0 empty empty empty 17 7 0 10 -260097
-257985 -1;
#X obj 623 1125 mtof;
#X obj 623 1153 phasor~;
#X obj 859 613 * 10;
#X obj 817 613 * 10;
#X obj 776 616 * 10;
#X obj 741 617 * 10;
#X obj 708 617 * 10;
#X obj 607 617 * 10;
#X obj 642 616 * 10;
#X obj 675 615 * 10;
#X obj 569 1083 bng 15 250 50 0 empty empty empty 17 7 0 10 -260097
-257985 -1;
#X msg 562 1108 0;
#X obj -6 460 select 24;
#X obj 64 459 select 25;
#X obj 136 461 select 26;
#X obj 206 463 select 27;
#X obj 274 462 select 28;
#X obj 344 461 select 29;
#X obj 414 461 select 30;
#X obj 484 460 select 31;
#X obj 484 483 bng 15 250 50 0 empty empty empty 17 7 0 10 -262144
-1 -1;
#X msg 502 482 0;
#X obj -4 482 bng 15 250 50 0 empty empty empty 17 7 0 10 -262144 -1
-1;
#X msg 14 481 0;
#X obj 64 480 bng 15 250 50 0 empty empty empty 17 7 0 10 -262144 -1
-1;
#X msg 82 479 0;
#X obj 138 483 bng 15 250 50 0 empty empty empty 17 7 0 10 -262144
-1 -1;
#X msg 156 482 0;
#X obj 207 484 bng 15 250 50 0 empty empty empty 17 7 0 10 -262144
-1 -1;
#X msg 225 483 0;
#X obj 277 484 bng 15 250 50 0 empty empty empty 17 7 0 10 -262144
-1 -1;
#X msg 295 483 0;
#X obj 344 482 bng 15 250 50 0 empty empty empty 17 7 0 10 -262144
-1 -1;
#X msg 362 481 0;
#X obj 414 483 bng 15 250 50 0 empty empty empty 17 7 0 10 -262144
-1 -1;
#X msg 432 482 0;
#X obj -8 384 bng 15 250 50 0 empty empty empty 17 7 0 10 -262144 -1
-1;
#X obj 1211 399 bng 15 250 50 0 empty empty empty 17 7 0 10 -262144
-1 -1;
#X obj 5 1817 metro;
#X obj 48 1646 tgl 15 0 empty empty empty 17 7 0 10 -260097 -257985
-1 127 127;
#X obj 67 1646 nbx 5 14 -1e+37 1e+37 0 0 empty empty empty 0 -8 0 10
-260097 -257985 -1 66 256;
#X obj 5 1840 f;
#X obj 39 1840 + 1;
#X obj 1 1660 hradio 16 1 0 10 empty empty empty 0 -8 0 10 -260097
-257985 -1 5;
#X obj 6 1915 f;
#X obj 623 1868 mtof;
#X obj 623 1896 phasor~;
#X obj 623 1920 dac~;
#X obj 209 1812 metro;
#X obj 210 1645 tgl 15 0 empty empty empty 17 7 0 10 -260097 -257985
-1 127 127;
#X obj 233 1646 nbx 5 14 -1e+37 1e+37 0 0 empty empty empty 0 -8 0
10 -260097 -257985 -1 66 256;
#X obj 209 1836 f;
#X obj 243 1836 + 1;
#X obj 162 1660 hradio 16 1 0 10 empty empty empty 0 -8 0 10 -257985
-260097 -1 5;
#X obj 211 1913 f;
#X obj 210 1860 mod 10;
#X obj 211 1887 select 0 1 2 3 4 5 6 7 8 9;
#X obj 6 1863 mod 10;
#X obj 5 1888 select 0 1 2 3 4 5 6 7 8 9;
#X obj 4 1677 hsl 128 15 0 127 0 0 empty empty empty -2 -8 0 10 -260097
-257985 -1 6600 1;
#X obj 164 1677 hsl 128 15 0 127 0 0 empty empty empty -2 -8 0 10 -260097
-257985 -1 3400 1;
#X obj 5 1957 metro;
#X obj 64 1692 tgl 15 0 empty empty empty 17 7 0 10 -260097 -257985
-1 0 127;
#X obj 86 1693 nbx 5 14 -1e+37 1e+37 0 0 empty empty empty 0 -8 0 10
-260097 -257985 -1 66 256;
#X obj 5 1985 f;
#X obj 39 1985 + 1;
#X obj 1 1707 hradio 16 1 0 10 empty empty empty 0 -8 0 10 -260097
-257985 -1 0;
#X obj 7 2056 f;
#X obj 203 1967 metro;
#X obj 216 1692 tgl 15 0 empty empty empty 17 7 0 10 -260097 -257985
-1 0 127;
#X obj 238 1693 nbx 5 14 -1e+37 1e+37 0 0 empty empty empty 0 -8 0
10 -260097 -257985 -1 66 256;
#X obj 203 1995 f;
#X obj 237 1995 + 1;
#X obj 162 1707 hradio 16 1 0 10 empty empty empty 0 -8 0 10 -260097
-257985 -1 0;
#X obj 202 2071 f;
#X obj 204 2028 mod 10;
#X obj 202 2050 select 0 1 2 3 4 5 6 7 8 9;
#X obj 6 2011 mod 10;
#X obj 7 2031 select 0 1 2 3 4 5 6 7 8 9;
#X obj 4 1724 hsl 128 15 0 127 0 0 empty empty empty -2 -8 0 10 -260097
-257985 -1 6600 1;
#X obj 166 1724 hsl 128 15 0 127 0 0 empty empty empty -2 -8 0 10 -260097
-257985 -1 6600 1;
#X text 165 1643 2 [TWO];
#X text 4 1691 3 [THREE];
#X text 199 1937 4 [FOUR];
#X obj 346 1816 bng 15 250 50 0 empty empty empty 17 7 0 10 -262144
-1 -1;
#X obj 369 1788 loadbang;
#X obj 669 1830 bng 15 250 50 0 empty empty empty 17 7 0 10 -260097
-257985 -1;
#X msg 687 1852 0;
#X msg 346 1834 66;
#X text 3 1644 1 [ONE];
#X text 1 1800 1 [ONE];
#X text 208 1797 2 [TWO];
#X text 3 1937 3 [THREE];
#X text 165 1690 4 [FOUR];
#X text 186 1742 bang on/off;
#X text 181 1777 DSP toggle hack!;
#X floatatom -1 1469 5 0 0 0 - - -;
#X floatatom -1 1519 5 0 0 0 - - -;
#X floatatom 69 1469 5 0 0 0 - - -;
#X floatatom 69 1519 5 0 0 0 - - -;
#X floatatom 139 1469 5 0 0 0 - - -;
#X floatatom 139 1519 5 0 0 0 - - -;
#X floatatom 209 1469 5 0 0 0 - - -;
#X floatatom 209 1519 5 0 0 0 - - -;
#X floatatom 279 1469 5 0 0 0 - - -;
#X floatatom 279 1519 5 0 0 0 - - -;
#X floatatom 349 1469 5 0 0 0 - - -;
#X floatatom 349 1519 5 0 0 0 - - -;
#X floatatom 419 1469 5 0 0 0 - - -;
#X floatatom 419 1519 5 0 0 0 - - -;
#X floatatom 489 1469 5 0 0 0 - - -;
#X floatatom 489 1519 5 0 0 0 - - -;
#X floatatom 0 1417 5 0 0 0 - - -;
#X floatatom 70 1417 5 0 0 0 - - -;
#X floatatom 140 1417 5 0 0 0 - - -;
#X floatatom 210 1417 5 0 0 0 - - -;
#X floatatom 280 1417 5 0 0 0 - - -;
#X floatatom 350 1417 5 0 0 0 - - -;
#X floatatom 420 1417 5 0 0 0 - - -;
#X floatatom 490 1417 5 0 0 0 - - -;
#X obj 715 1817 metro;
#X obj 758 1646 tgl 15 0 empty empty empty 17 7 0 10 -260097 -257985
-1 0 127;
#X obj 777 1646 nbx 5 14 -1e+37 1e+37 0 0 empty empty empty 0 -8 0
10 -260097 -257985 -1 66 256;
#X obj 715 1840 f;
#X obj 749 1840 + 1;
#X obj 711 1660 hradio 16 1 0 10 empty empty empty 0 -8 0 10 -260097
-257985 -1 1;
#X obj 716 1915 f;
#X obj 919 1812 metro;
#X obj 920 1645 tgl 15 0 empty empty empty 17 7 0 10 -260097 -257985
-1 127 127;
#X obj 943 1646 nbx 5 14 -1e+37 1e+37 0 0 empty empty empty 0 -8 0
10 -260097 -257985 -1 19 256;
#X obj 919 1836 f;
#X obj 953 1836 + 1;
#X obj 872 1660 hradio 16 1 0 10 empty empty empty 0 -8 0 10 -257985
-260097 -1 7;
#X obj 921 1913 f;
#X obj 920 1860 mod 10;
#X obj 921 1887 select 0 1 2 3 4 5 6 7 8 9;
#X obj 716 1863 mod 10;
#X obj 715 1888 select 0 1 2 3 4 5 6 7 8 9;
#X obj 714 1677 hsl 128 15 0 127 0 0 empty empty empty -2 -8 0 10 -260097
-257985 -1 6600 1;
#X obj 874 1677 hsl 128 15 0 127 0 0 empty empty empty -2 -8 0 10 -260097
-257985 -1 3800 1;
#X obj 715 1957 metro;
#X obj 774 1692 tgl 15 0 empty empty empty 17 7 0 10 -260097 -257985
-1 0 127;
#X obj 796 1693 nbx 5 14 -1e+37 1e+37 0 0 empty empty empty 0 -8 0
10 -260097 -257985 -1 66 256;
#X obj 715 1985 f;
#X obj 749 1985 + 1;
#X obj 711 1707 hradio 16 1 0 10 empty empty empty 0 -8 0 10 -260097
-257985 -1 0;
#X obj 717 2056 f;
#X obj 913 1967 metro;
#X obj 926 1692 tgl 15 0 empty empty empty 17 7 0 10 -260097 -257985
-1 0 127;
#X obj 948 1693 nbx 5 14 -1e+37 1e+37 0 0 empty empty empty 0 -8 0
10 -260097 -257985 -1 66 256;
#X obj 913 1995 f;
#X obj 947 1995 + 1;
#X obj 872 1707 hradio 16 1 0 10 empty empty empty 0 -8 0 10 -260097
-257985 -1 0;
#X obj 912 2071 f;
#X obj 914 2028 mod 10;
#X obj 912 2050 select 0 1 2 3 4 5 6 7 8 9;
#X obj 716 2011 mod 10;
#X obj 717 2031 select 0 1 2 3 4 5 6 7 8 9;
#X obj 714 1724 hsl 128 15 0 127 0 0 empty empty empty -2 -8 0 10 -260097
-257985 -1 6600 1;
#X obj 876 1724 hsl 128 15 0 127 0 0 empty empty empty -2 -8 0 10 -260097
-257985 -1 6600 1;
#X text 875 1643 2 [TWO];
#X text 714 1691 3 [THREE];
#X text 909 1937 4 [FOUR];
#X obj 1056 1816 bng 15 250 50 0 empty empty empty 17 7 0 10 -262144
-1 -1;
#X obj 1079 1788 loadbang;
#X obj 897 1762 bng 15 250 50 0 empty empty empty 17 7 0 10 -260097
-257985 -1;
#X msg 1056 1834 66;
#X text 713 1644 1 [ONE];
#X text 711 1800 1 [ONE];
#X text 918 1797 2 [TWO];
#X text 713 1937 3 [THREE];
#X text 875 1690 4 [FOUR];
#X text 896 1742 bang on/off;
#X text 891 1777 DSP toggle hack!;
#X obj 922 1762 bng 15 250 50 0 empty empty empty 17 7 0 10 -260097
-257985 -1;
#X obj 942 1762 bng 15 250 50 0 empty empty empty 17 7 0 10 -260097
-257985 -1;
#X obj 623 1985 mtof;
#X obj 623 2013 phasor~;
#X obj 859 1473 * 10;
#X obj 817 1473 * 10;
#X obj 776 1476 * 10;
#X obj 741 1477 * 10;
#X obj 708 1477 * 10;
#X obj 607 1477 * 10;
#X obj 642 1476 * 10;
#X obj 675 1475 * 10;
#X obj 569 1943 bng 15 250 50 0 empty empty empty 17 7 0 10 -260097
-257985 -1;
#X msg 562 1968 0;
#X obj -6 1320 select 24;
#X obj 64 1319 select 25;
#X obj 136 1321 select 26;
#X obj 206 1323 select 27;
#X obj 274 1322 select 28;
#X obj 344 1321 select 29;
#X obj 414 1321 select 30;
#X obj 484 1320 select 31;
#X obj 484 1343 bng 15 250 50 0 empty empty empty 17 7 0 10 -262144
-1 -1;
#X msg 502 1342 0;
#X obj -4 1342 bng 15 250 50 0 empty empty empty 17 7 0 10 -262144
-1 -1;
#X msg 14 1341 0;
#X obj 64 1340 bng 15 250 50 0 empty empty empty 17 7 0 10 -262144
-1 -1;
#X msg 82 1339 0;
#X obj 138 1343 bng 15 250 50 0 empty empty empty 17 7 0 10 -262144
-1 -1;
#X msg 156 1342 0;
#X obj 207 1344 bng 15 250 50 0 empty empty empty 17 7 0 10 -262144
-1 -1;
#X msg 225 1343 0;
#X obj 277 1344 bng 15 250 50 0 empty empty empty 17 7 0 10 -262144
-1 -1;
#X msg 295 1343 0;
#X obj 344 1342 bng 15 250 50 0 empty empty empty 17 7 0 10 -262144
-1 -1;
#X msg 362 1341 0;
#X obj 414 1343 bng 15 250 50 0 empty empty empty 17 7 0 10 -262144
-1 -1;
#X msg 432 1342 0;
#X obj -8 1244 bng 15 250 50 0 empty empty empty 17 7 0 10 -262144
-1 -1;
#X obj 1211 1259 bng 15 250 50 0 empty empty empty 17 7 0 10 -262144
-1 -1;
#X obj -15 411 ctlin 1 3;
#X obj 55 411 ctlin 2 3;
#X obj 125 411 ctlin 3 3;
#X obj 195 411 ctlin 4 3;
#X obj 265 411 ctlin 5 3;
#X obj 335 411 ctlin 6 3;
#X obj 405 411 ctlin 7 3;
#X obj 475 411 ctlin 127 3;
#X obj 484 440 notein 3;
#X obj 414 440 notein 3;
#X obj 344 440 notein 3;
#X obj 274 440 notein 3;
#X obj 204 440 notein 3;
#X obj 134 440 notein 3;
#X obj 64 440 notein 3;
#X obj -6 440 notein 3;
#X obj -5 502 ctlin 73 3;
#X obj 65 502 ctlin 74 3;
#X obj 135 502 ctlin 75 3;
#X obj 205 502 ctlin 76 3;
#X obj 275 502 ctlin 77 3;
#X obj 345 502 ctlin 78 3;
#X obj 415 502 ctlin 79 3;
#X obj 485 502 ctlin 80 3;
#X obj -10 530 ctlin 81 3;
#X obj 60 530 ctlin 82 3;
#X obj 130 530 ctlin 83 3;
#X obj 200 530 ctlin 84 3;
#X obj 270 530 ctlin 85 3;
#X obj 340 530 ctlin 86 3;
#X obj 410 530 ctlin 87 3;
#X obj 480 530 ctlin 88 3;
#X obj 479 582 ctlin 96 3;
#X obj 409 582 ctlin 95 3;
#X obj 339 582 ctlin 94 3;
#X obj 269 582 ctlin 93 3;
#X obj 199 582 ctlin 92 3;
#X obj 129 582 ctlin 91 3;
#X obj 59 582 ctlin 90 3;
#X obj -11 582 ctlin 89 3;
#X obj -11 632 ctlin 97 3;
#X obj 59 632 ctlin 98 3;
#X obj 129 632 ctlin 99 3;
#X obj 199 632 ctlin 100 3;
#X obj 269 632 ctlin 101 3;
#X obj 339 632 ctlin 102 3;
#X obj 409 632 ctlin 103 3;
#X obj 479 632 ctlin 104 3;
#X obj 704 575 ctlin 106 3;
#X obj 785 575 ctlin 105 3;
#X obj 606 652 ctlout 1 3;
#X obj 677 650 ctlout 2 3;
#X obj 749 650 ctlout 3 3;
#X obj 816 648 ctlout 4 3;
#X obj 885 648 ctlout 5 3;
#X obj 955 649 ctlout 6 3;
#X obj 1042 653 ctlout 7 3;
#X obj 1131 650 ctlout 8 3;
#X obj -15 1271 ctlin 1 4;
#X obj 55 1271 ctlin 2 4;
#X obj 125 1271 ctlin 3 4;
#X obj 195 1271 ctlin 4 4;
#X obj 265 1271 ctlin 5 4;
#X obj 335 1271 ctlin 6 4;
#X obj 405 1271 ctlin 7 4;
#X obj 475 1271 ctlin 127 4;
#X obj 484 1300 notein 4;
#X obj 414 1300 notein 4;
#X obj 344 1300 notein 4;
#X obj 274 1300 notein 4;
#X obj 204 1300 notein 4;
#X obj 134 1300 notein 4;
#X obj 64 1300 notein 4;
#X obj -6 1300 notein 4;
#X obj -5 1362 ctlin 73 4;
#X obj 65 1362 ctlin 74 4;
#X obj 135 1362 ctlin 75 4;
#X obj 205 1362 ctlin 76 4;
#X obj 275 1362 ctlin 77 4;
#X obj 345 1362 ctlin 78 4;
#X obj 415 1362 ctlin 79 4;
#X obj 485 1362 ctlin 80 4;
#X obj 480 1390 ctlin 88 4;
#X obj 410 1390 ctlin 87 4;
#X obj 340 1390 ctlin 86 4;
#X obj 270 1390 ctlin 85 4;
#X obj 200 1390 ctlin 84 4;
#X obj 130 1390 ctlin 83 4;
#X obj 60 1390 ctlin 82 4;
#X obj -10 1390 ctlin 81 4;
#X obj -11 1442 ctlin 89 4;
#X obj 59 1442 ctlin 90 4;
#X obj 129 1442 ctlin 91 4;
#X obj 199 1442 ctlin 92 4;
#X obj 269 1442 ctlin 93 4;
#X obj 339 1442 ctlin 94 4;
#X obj 409 1442 ctlin 95 4;
#X obj 479 1442 ctlin 96 4;
#X obj -11 1492 ctlin 97 4;
#X obj 59 1492 ctlin 98 4;
#X obj 129 1492 ctlin 99 4;
#X obj 199 1492 ctlin 100 4;
#X obj 269 1492 ctlin 101 4;
#X obj 339 1492 ctlin 102 4;
#X obj 409 1492 ctlin 103 4;
#X obj 479 1492 ctlin 104 4;
#X obj 704 1435 ctlin 106 4;
#X obj 785 1435 ctlin 105 4;
#X obj 606 1512 ctlout 1 4;
#X obj 677 1510 ctlout 2 4;
#X obj 749 1510 ctlout 3 4;
#X obj 816 1508 ctlout 4 4;
#X obj 885 1508 ctlout 5 4;
#X obj 955 1509 ctlout 6 4;
#X obj 1042 1513 ctlout 7 4;
#X obj 1131 1510 ctlout 8 4;
#X connect 0 0 3 0;
#X connect 1 0 0 0;
#X connect 2 0 0 1;
#X connect 3 0 4 0;
#X connect 3 0 19 0;
#X connect 4 0 3 1;
#X connect 5 0 20 0;
#X connect 5 0 194 0;
#X connect 6 0 7 0;
#X connect 7 0 8 0;
#X connect 8 0 9 0;
#X connect 10 0 13 0;
#X connect 11 0 10 0;
#X connect 12 0 10 1;
#X connect 13 0 14 0;
#X connect 13 0 17 0;
#X connect 14 0 13 1;
#X connect 15 0 18 0;
#X connect 15 0 195 0;
#X connect 16 0 7 0;
#X connect 17 0 15 0;
#X connect 18 0 16 0;
#X connect 19 0 5 0;
#X connect 20 0 6 0;
#X connect 21 0 6 1;
#X connect 22 0 16 1;
#X connect 23 0 26 0;
#X connect 24 0 23 0;
#X connect 25 0 23 1;
#X connect 26 0 27 0;
#X connect 26 0 39 0;
#X connect 27 0 26 1;
#X connect 28 0 40 0;
#X connect 28 0 196 0;
#X connect 29 0 7 0;
#X connect 30 0 33 0;
#X connect 31 0 30 0;
#X connect 32 0 30 1;
#X connect 33 0 34 0;
#X connect 33 0 37 0;
#X connect 34 0 33 1;
#X connect 35 0 38 0;
#X connect 35 0 193 0;
#X connect 36 0 7 0;
#X connect 37 0 35 0;
#X connect 38 0 36 0;
#X connect 39 0 28 0;
#X connect 40 0 29 0;
#X connect 41 0 29 1;
#X connect 42 0 36 1;
#X connect 46 0 53 0;
#X connect 48 0 49 0;
#X connect 48 0 46 0;
#X connect 49 0 47 0;
#X connect 49 0 50 0;
#X connect 51 0 52 0;
#X connect 52 0 8 0;
#X connect 52 0 8 1;
#X connect 53 0 2 0;
#X connect 53 0 21 0;
#X connect 53 0 12 0;
#X connect 53 0 22 0;
#X connect 53 0 25 0;
#X connect 53 0 41 0;
#X connect 53 0 32 0;
#X connect 53 0 42 0;
#X connect 63 0 55 0;
#X connect 64 0 54 0;
#X connect 66 0 1 0;
#X connect 67 0 121 0;
#X connect 68 0 65 0;
#X connect 68 0 21 0;
#X connect 70 0 69 0;
#X connect 70 0 2 0;
#X connect 91 0 11 0;
#X connect 92 0 24 0;
#X connect 93 0 31 0;
#X connect 94 0 130 0;
#X connect 95 0 137 0;
#X connect 96 0 150 0;
#X connect 97 0 157 0;
#X connect 98 0 122 0;
#X connect 99 0 123 0;
#X connect 100 0 124 0;
#X connect 101 0 125 0;
#X connect 102 0 126 0;
#X connect 103 0 127 0;
#X connect 104 0 128 0;
#X connect 105 0 71 0;
#X connect 105 0 22 0;
#X connect 106 0 73 0;
#X connect 106 0 41 0;
#X connect 107 0 75 0;
#X connect 107 0 42 0;
#X connect 108 0 77 0;
#X connect 108 0 147 0;
#X connect 109 0 79 0;
#X connect 109 0 148 0;
#X connect 110 0 81 0;
#X connect 110 0 167 0;
#X connect 111 0 83 0;
#X connect 111 0 168 0;
#X connect 112 0 72 0;
#X connect 112 0 12 0;
#X connect 113 0 74 0;
#X connect 113 0 25 0;
#X connect 114 0 76 0;
#X connect 114 0 32 0;
#X connect 115 0 78 0;
#X connect 115 0 131 0;
#X connect 116 0 80 0;
#X connect 116 0 138 0;
#X connect 117 0 82 0;
#X connect 117 0 151 0;
#X connect 118 0 84 0;
#X connect 118 0 158 0;
#X connect 129 0 132 0;
#X connect 130 0 129 0;
#X connect 131 0 129 1;
#X connect 132 0 133 0;
#X connect 132 0 145 0;
#X connect 133 0 132 1;
#X connect 134 0 146 0;
#X connect 134 0 192 0;
#X connect 135 0 187 0;
#X connect 136 0 139 0;
#X connect 137 0 136 0;
#X connect 138 0 136 1;
#X connect 139 0 140 0;
#X connect 139 0 143 0;
#X connect 140 0 139 1;
#X connect 141 0 144 0;
#X connect 141 0 191 0;
#X connect 142 0 187 0;
#X connect 143 0 141 0;
#X connect 144 0 142 0;
#X connect 145 0 134 0;
#X connect 146 0 135 0;
#X connect 147 0 135 1;
#X connect 148 0 142 1;
#X connect 149 0 152 0;
#X connect 150 0 149 0;
#X connect 151 0 149 1;
#X connect 152 0 153 0;
#X connect 152 0 165 0;
#X connect 153 0 152 1;
#X connect 154 0 166 0;
#X connect 154 0 190 0;
#X connect 155 0 187 0;
#X connect 156 0 159 0;
#X connect 157 0 156 0;
#X connect 158 0 156 1;
#X connect 159 0 160 0;
#X connect 159 0 163 0;
#X connect 160 0 159 1;
#X connect 161 0 164 0;
#X connect 161 0 189 0;
#X connect 162 0 187 0;
#X connect 163 0 161 0;
#X connect 164 0 162 0;
#X connect 165 0 154 0;
#X connect 166 0 155 0;
#X connect 167 0 155 1;
#X connect 168 0 162 1;
#X connect 172 0 177 0;
#X connect 173 0 172 0;
#X connect 177 0 131 0;
#X connect 177 0 147 0;
#X connect 177 0 138 0;
#X connect 177 0 148 0;
#X connect 177 0 151 0;
#X connect 177 0 167 0;
#X connect 177 0 158 0;
#X connect 177 0 168 0;
#X connect 187 0 188 0;
#X connect 188 0 9 1;
#X connect 189 0 204 0;
#X connect 190 0 197 0;
#X connect 191 0 198 0;
#X connect 192 0 199 0;
#X connect 193 0 200 0;
#X connect 194 0 203 0;
#X connect 195 0 202 0;
#X connect 196 0 201 0;
#X connect 205 0 51 0;
#X connect 206 0 63 0;
#X connect 207 0 64 0;
#X connect 208 0 209 0;
#X connect 209 0 188 0;
#X connect 209 0 188 1;
#X connect 210 0 208 0;
#X connect 211 0 219 0;
#X connect 212 0 220 0;
#X connect 213 0 221 0;
#X connect 214 0 222 0;
#X connect 215 0 223 0;
#X connect 216 0 224 0;
#X connect 217 0 225 0;
#X connect 218 0 229 0;
#X connect 219 0 231 0;
#X connect 220 0 233 0;
#X connect 221 0 235 0;
#X connect 222 0 237 0;
#X connect 223 0 239 0;
#X connect 224 0 241 0;
#X connect 225 0 227 0;
#X connect 226 0 218 0;
#X connect 227 0 228 0;
#X connect 228 0 161 0;
#X connect 229 0 230 0;
#X connect 230 0 5 0;
#X connect 231 0 232 0;
#X connect 232 0 15 0;
#X connect 233 0 234 0;
#X connect 234 0 28 0;
#X connect 235 0 236 0;
#X connect 236 0 35 0;
#X connect 237 0 238 0;
#X connect 238 0 134 0;
#X connect 239 0 240 0;
#X connect 240 0 141 0;
#X connect 241 0 242 0;
#X connect 242 0 154 0;
#X connect 244 0 247 0;
#X connect 245 0 244 0;
#X connect 246 0 244 1;
#X connect 247 0 248 0;
#X connect 247 0 263 0;
#X connect 248 0 247 1;
#X connect 249 0 264 0;
#X connect 249 0 389 0;
#X connect 250 0 251 0;
#X connect 251 0 252 0;
#X connect 252 0 253 0;
#X connect 254 0 257 0;
#X connect 255 0 254 0;
#X connect 256 0 254 1;
#X connect 257 0 258 0;
#X connect 257 0 261 0;
#X connect 258 0 257 1;
#X connect 259 0 262 0;
#X connect 259 0 390 0;
#X connect 260 0 251 0;
#X connect 261 0 259 0;
#X connect 262 0 260 0;
#X connect 263 0 249 0;
#X connect 264 0 250 0;
#X connect 265 0 250 1;
#X connect 266 0 260 1;
#X connect 267 0 270 0;
#X connect 268 0 267 0;
#X connect 269 0 267 1;
#X connect 270 0 271 0;
#X connect 270 0 283 0;
#X connect 271 0 270 1;
#X connect 272 0 284 0;
#X connect 272 0 391 0;
#X connect 273 0 251 0;
#X connect 274 0 277 0;
#X connect 275 0 274 0;
#X connect 276 0 274 1;
#X connect 277 0 278 0;
#X connect 277 0 281 0;
#X connect 278 0 277 1;
#X connect 279 0 282 0;
#X connect 279 0 388 0;
#X connect 280 0 251 0;
#X connect 281 0 279 0;
#X connect 282 0 280 0;
#X connect 283 0 272 0;
#X connect 284 0 273 0;
#X connect 285 0 273 1;
#X connect 286 0 280 1;
#X connect 290 0 294 0;
#X connect 291 0 290 0;
#X connect 292 0 293 0;
#X connect 293 0 252 0;
#X connect 293 0 252 1;
#X connect 294 0 246 0;
#X connect 294 0 265 0;
#X connect 294 0 256 0;
#X connect 294 0 266 0;
#X connect 294 0 269 0;
#X connect 294 0 285 0;
#X connect 294 0 276 0;
#X connect 294 0 286 0;
#X connect 326 0 329 0;
#X connect 327 0 326 0;
#X connect 328 0 326 1;
#X connect 329 0 330 0;
#X connect 329 0 342 0;
#X connect 330 0 329 1;
#X connect 331 0 343 0;
#X connect 331 0 387 0;
#X connect 332 0 382 0;
#X connect 333 0 336 0;
#X connect 334 0 333 0;
#X connect 335 0 333 1;
#X connect 336 0 337 0;
#X connect 336 0 340 0;
#X connect 337 0 336 1;
#X connect 338 0 341 0;
#X connect 338 0 386 0;
#X connect 339 0 382 0;
#X connect 340 0 338 0;
#X connect 341 0 339 0;
#X connect 342 0 331 0;
#X connect 343 0 332 0;
#X connect 344 0 332 1;
#X connect 345 0 339 1;
#X connect 346 0 349 0;
#X connect 347 0 346 0;
#X connect 348 0 346 1;
#X connect 349 0 350 0;
#X connect 349 0 362 0;
#X connect 350 0 349 1;
#X connect 351 0 363 0;
#X connect 351 0 385 0;
#X connect 352 0 382 0;
#X connect 353 0 356 0;
#X connect 354 0 353 0;
#X connect 355 0 353 1;
#X connect 356 0 357 0;
#X connect 356 0 360 0;
#X connect 357 0 356 1;
#X connect 358 0 361 0;
#X connect 358 0 384 0;
#X connect 359 0 382 0;
#X connect 360 0 358 0;
#X connect 361 0 359 0;
#X connect 362 0 351 0;
#X connect 363 0 352 0;
#X connect 364 0 352 1;
#X connect 365 0 359 1;
#X connect 369 0 372 0;
#X connect 370 0 369 0;
#X connect 372 0 328 0;
#X connect 372 0 344 0;
#X connect 372 0 335 0;
#X connect 372 0 345 0;
#X connect 372 0 348 0;
#X connect 372 0 364 0;
#X connect 372 0 355 0;
#X connect 372 0 365 0;
#X connect 382 0 383 0;
#X connect 383 0 253 1;
#X connect 384 0 653 0;
#X connect 385 0 652 0;
#X connect 386 0 651 0;
#X connect 387 0 650 0;
#X connect 388 0 649 0;
#X connect 389 0 646 0;
#X connect 390 0 647 0;
#X connect 391 0 648 0;
#X connect 392 0 393 0;
#X connect 393 0 383 0;
#X connect 393 0 383 1;
#X connect 394 0 404 0;
#X connect 395 0 406 0;
#X connect 396 0 408 0;
#X connect 397 0 410 0;
#X connect 398 0 412 0;
#X connect 399 0 414 0;
#X connect 400 0 416 0;
#X connect 401 0 402 0;
#X connect 402 0 403 0;
#X connect 403 0 358 0;
#X connect 404 0 405 0;
#X connect 405 0 249 0;
#X connect 406 0 407 0;
#X connect 407 0 259 0;
#X connect 408 0 409 0;
#X connect 409 0 272 0;
#X connect 410 0 411 0;
#X connect 411 0 279 0;
#X connect 412 0 413 0;
#X connect 413 0 331 0;
#X connect 414 0 415 0;
#X connect 415 0 338 0;
#X connect 416 0 417 0;
#X connect 417 0 351 0;
#X connect 418 0 419 0;
#X connect 420 0 423 0;
#X connect 421 0 420 0;
#X connect 422 0 420 1;
#X connect 423 0 424 0;
#X connect 423 0 439 0;
#X connect 424 0 423 1;
#X connect 425 0 440 0;
#X connect 425 0 565 0;
#X connect 426 0 427 0;
#X connect 427 0 428 0;
#X connect 428 0 429 0;
#X connect 430 0 433 0;
#X connect 431 0 430 0;
#X connect 432 0 430 1;
#X connect 433 0 434 0;
#X connect 433 0 437 0;
#X connect 434 0 433 1;
#X connect 435 0 438 0;
#X connect 435 0 566 0;
#X connect 436 0 427 0;
#X connect 437 0 435 0;
#X connect 438 0 436 0;
#X connect 439 0 425 0;
#X connect 440 0 426 0;
#X connect 441 0 426 1;
#X connect 442 0 436 1;
#X connect 443 0 446 0;
#X connect 444 0 443 0;
#X connect 445 0 443 1;
#X connect 446 0 447 0;
#X connect 446 0 459 0;
#X connect 447 0 446 1;
#X connect 448 0 460 0;
#X connect 448 0 567 0;
#X connect 449 0 427 0;
#X connect 450 0 453 0;
#X connect 451 0 450 0;
#X connect 452 0 450 1;
#X connect 453 0 454 0;
#X connect 453 0 457 0;
#X connect 454 0 453 1;
#X connect 455 0 458 0;
#X connect 455 0 564 0;
#X connect 456 0 427 0;
#X connect 457 0 455 0;
#X connect 458 0 456 0;
#X connect 459 0 448 0;
#X connect 460 0 449 0;
#X connect 461 0 449 1;
#X connect 462 0 456 1;
#X connect 466 0 470 0;
#X connect 467 0 466 0;
#X connect 468 0 469 0;
#X connect 469 0 428 0;
#X connect 469 0 428 1;
#X connect 470 0 422 0;
#X connect 470 0 441 0;
#X connect 470 0 432 0;
#X connect 470 0 442 0;
#X connect 470 0 445 0;
#X connect 470 0 461 0;
#X connect 470 0 452 0;
#X connect 470 0 462 0;
#X connect 502 0 505 0;
#X connect 503 0 502 0;
#X connect 504 0 502 1;
#X connect 505 0 506 0;
#X connect 505 0 518 0;
#X connect 506 0 505 1;
#X connect 507 0 519 0;
#X connect 507 0 563 0;
#X connect 508 0 558 0;
#X connect 509 0 512 0;
#X connect 510 0 509 0;
#X connect 511 0 509 1;
#X connect 512 0 513 0;
#X connect 512 0 516 0;
#X connect 513 0 512 1;
#X connect 514 0 517 0;
#X connect 514 0 562 0;
#X connect 515 0 558 0;
#X connect 516 0 514 0;
#X connect 517 0 515 0;
#X connect 518 0 507 0;
#X connect 519 0 508 0;
#X connect 520 0 508 1;
#X connect 521 0 515 1;
#X connect 522 0 525 0;
#X connect 523 0 522 0;
#X connect 524 0 522 1;
#X connect 525 0 526 0;
#X connect 525 0 538 0;
#X connect 526 0 525 1;
#X connect 527 0 539 0;
#X connect 527 0 561 0;
#X connect 528 0 558 0;
#X connect 529 0 532 0;
#X connect 530 0 529 0;
#X connect 531 0 529 1;
#X connect 532 0 533 0;
#X connect 532 0 536 0;
#X connect 533 0 532 1;
#X connect 534 0 537 0;
#X connect 534 0 560 0;
#X connect 535 0 558 0;
#X connect 536 0 534 0;
#X connect 537 0 535 0;
#X connect 538 0 527 0;
#X connect 539 0 528 0;
#X connect 540 0 528 1;
#X connect 541 0 535 1;
#X connect 545 0 548 0;
#X connect 546 0 545 0;
#X connect 548 0 504 0;
#X connect 548 0 520 0;
#X connect 548 0 511 0;
#X connect 548 0 521 0;
#X connect 548 0 524 0;
#X connect 548 0 540 0;
#X connect 548 0 531 0;
#X connect 548 0 541 0;
#X connect 558 0 559 0;
#X connect 559 0 429 1;
#X connect 560 0 711 0;
#X connect 561 0 710 0;
#X connect 562 0 709 0;
#X connect 563 0 708 0;
#X connect 564 0 707 0;
#X connect 565 0 704 0;
#X connect 566 0 705 0;
#X connect 567 0 706 0;
#X connect 568 0 569 0;
#X connect 569 0 559 0;
#X connect 569 0 559 1;
#X connect 570 0 580 0;
#X connect 571 0 582 0;
#X connect 572 0 584 0;
#X connect 573 0 586 0;
#X connect 574 0 588 0;
#X connect 575 0 590 0;
#X connect 576 0 592 0;
#X connect 577 0 578 0;
#X connect 578 0 579 0;
#X connect 579 0 534 0;
#X connect 580 0 581 0;
#X connect 581 0 425 0;
#X connect 582 0 583 0;
#X connect 583 0 435 0;
#X connect 584 0 585 0;
#X connect 585 0 448 0;
#X connect 586 0 587 0;
#X connect 587 0 455 0;
#X connect 588 0 589 0;
#X connect 589 0 507 0;
#X connect 590 0 591 0;
#X connect 591 0 514 0;
#X connect 592 0 593 0;
#X connect 593 0 527 0;
#X connect 594 0 595 0;
#X connect 604 0 401 0;
#X connect 605 0 400 0;
#X connect 606 0 399 0;
#X connect 607 0 398 0;
#X connect 608 0 397 0;
#X connect 609 0 396 0;
#X connect 610 0 395 0;
#X connect 611 0 394 0;
#X connect 612 0 245 0;
#X connect 613 0 255 0;
#X connect 614 0 268 0;
#X connect 615 0 275 0;
#X connect 616 0 327 0;
#X connect 617 0 334 0;
#X connect 618 0 347 0;
#X connect 619 0 354 0;
#X connect 620 0 318 0;
#X connect 621 0 319 0;
#X connect 622 0 320 0;
#X connect 623 0 321 0;
#X connect 624 0 322 0;
#X connect 625 0 323 0;
#X connect 626 0 324 0;
#X connect 627 0 325 0;
#X connect 628 0 316 0;
#X connect 628 0 365 0;
#X connect 629 0 314 0;
#X connect 629 0 364 0;
#X connect 630 0 312 0;
#X connect 630 0 345 0;
#X connect 631 0 310 0;
#X connect 631 0 344 0;
#X connect 632 0 308 0;
#X connect 632 0 286 0;
#X connect 633 0 306 0;
#X connect 633 0 285 0;
#X connect 634 0 304 0;
#X connect 634 0 266 0;
#X connect 635 0 302 0;
#X connect 635 0 265 0;
#X connect 636 0 303 0;
#X connect 636 0 246 0;
#X connect 637 0 305 0;
#X connect 637 0 256 0;
#X connect 638 0 307 0;
#X connect 638 0 269 0;
#X connect 639 0 309 0;
#X connect 639 0 276 0;
#X connect 640 0 311 0;
#X connect 640 0 328 0;
#X connect 641 0 313 0;
#X connect 641 0 335 0;
#X connect 642 0 315 0;
#X connect 642 0 348 0;
#X connect 643 0 317 0;
#X connect 643 0 355 0;
#X connect 644 0 392 0;
#X connect 645 0 292 0;
#X connect 662 0 577 0;
#X connect 663 0 576 0;
#X connect 664 0 575 0;
#X connect 665 0 574 0;
#X connect 666 0 573 0;
#X connect 667 0 572 0;
#X connect 668 0 571 0;
#X connect 669 0 570 0;
#X connect 670 0 421 0;
#X connect 671 0 431 0;
#X connect 672 0 444 0;
#X connect 673 0 451 0;
#X connect 674 0 503 0;
#X connect 675 0 510 0;
#X connect 676 0 523 0;
#X connect 677 0 530 0;
#X connect 678 0 501 0;
#X connect 679 0 500 0;
#X connect 680 0 499 0;
#X connect 681 0 498 0;
#X connect 682 0 497 0;
#X connect 683 0 496 0;
#X connect 684 0 495 0;
#X connect 685 0 494 0;
#X connect 686 0 478 0;
#X connect 686 0 441 0;
#X connect 687 0 480 0;
#X connect 687 0 442 0;
#X connect 688 0 482 0;
#X connect 688 0 461 0;
#X connect 689 0 484 0;
#X connect 689 0 462 0;
#X connect 690 0 486 0;
#X connect 690 0 520 0;
#X connect 691 0 488 0;
#X connect 691 0 521 0;
#X connect 692 0 490 0;
#X connect 692 0 540 0;
#X connect 693 0 492 0;
#X connect 693 0 541 0;
#X connect 694 0 479 0;
#X connect 694 0 422 0;
#X connect 695 0 481 0;
#X connect 695 0 432 0;
#X connect 696 0 483 0;
#X connect 696 0 445 0;
#X connect 697 0 485 0;
#X connect 697 0 452 0;
#X connect 698 0 487 0;
#X connect 698 0 504 0;
#X connect 699 0 489 0;
#X connect 699 0 511 0;
#X connect 700 0 491 0;
#X connect 700 0 524 0;
#X connect 701 0 493 0;
#X connect 701 0 531 0;
#X connect 702 0 568 0;
#X connect 703 0 468 0;
