#N canvas 91 41 943 663 10;
#X obj -158 23 metro;
#X obj 47 -134 tgl 15 0 empty empty empty 17 7 0 10 -260097 -257985
-1 1 1;
#X obj -157 -44 nbx 5 14 -1e+37 1e+37 0 0 empty empty empty 0 -8 0
10 -260097 -257985 -1 77 256;
#X obj -107 67 f;
#X obj -73 67 + 1;
#X obj -174 196 hradio 16 1 0 10 empty empty empty 0 -8 0 10 -260097
-257985 -1 8;
#X obj -209 349 f;
#X obj -233 388 mtof;
#X obj -221 432 phasor~;
#X obj -221 456 dac~;
#X obj 209 32 metro;
#X obj 210 -135 tgl 15 0 empty empty empty 17 7 0 10 -260097 -257985
-1 127 127;
#X obj 233 -134 nbx 5 14 -1e+37 1e+37 0 0 empty empty empty 0 -8 0
10 -260097 -257985 -1 56 256;
#X obj 209 56 f;
#X obj 243 56 + 1;
#X obj 162 -120 hradio 16 1 0 10 empty empty empty 0 -8 0 10 -257985
-260097 -1 7;
#X obj 211 133 f;
#X obj 210 80 mod 10;
#X obj 211 107 select 0 1 2 3 4 5 6 7 8 9;
#X obj -124 113 mod 10;
#X obj -207 271 select 0 1 2 3 4 5 6 7 8 9;
#X obj -179 305 hsl 128 15 0 127 0 0 empty empty empty -2 -8 0 10 -260097
-257985 -1 4700 1;
#X obj 164 -103 hsl 128 15 0 127 0 0 empty empty empty -2 -8 0 10 -260097
-257985 -1 2300 1;
#X obj 5 177 metro;
#X obj 64 -88 tgl 15 0 empty empty empty 17 7 0 10 -260097 -257985
-1 127 127;
#X obj 86 -87 nbx 5 14 -1e+37 1e+37 0 0 empty empty empty 0 -8 0 10
-260097 -257985 -1 77 256;
#X obj 5 205 f;
#X obj 39 205 + 1;
#X obj 1 -73 hradio 16 1 0 10 empty empty empty 0 -8 0 10 -260097 -257985
-1 6;
#X obj 7 276 f;
#X obj 203 187 metro;
#X obj 216 -88 tgl 15 0 empty empty empty 17 7 0 10 -260097 -257985
-1 0 127;
#X obj 238 -87 nbx 5 14 -1e+37 1e+37 0 0 empty empty empty 0 -8 0 10
-260097 -257985 -1 66 256;
#X obj 203 215 f;
#X obj 237 215 + 1;
#X obj 162 -73 hradio 16 1 0 10 empty empty empty 0 -8 0 10 -260097
-257985 -1 0;
#X obj 202 291 f;
#X obj 204 248 mod 10;
#X obj 202 270 select 0 1 2 3 4 5 6 7 8 9;
#X obj 6 231 mod 10;
#X obj 7 251 select 0 1 2 3 4 5 6 7 8 9;
#X obj 4 -56 hsl 128 15 0 127 0 0 empty empty empty -2 -8 0 10 -260097
-257985 -1 5500 1;
#X obj 166 -56 hsl 128 15 0 127 0 0 empty empty empty -2 -8 0 10 -260097
-257985 -1 6600 1;
#X text 165 -137 2 [TWO];
#X text 4 -89 3 [THREE];
#X text 199 157 4 [FOUR];
#X obj 341 362 ctlin 30 4;
#X obj 351 385 ctlin 80 4;
#X obj 420 360 ctlin 40 4;
#X obj 430 382 ctlin 90 4;
#X obj 498 359 ctlin 50 4;
#X obj 508 382 ctlin 100 4;
#X obj 346 36 bng 15 250 50 0 empty empty empty 17 7 0 10 -262144 -1
-1;
#X obj 359 333 ctlin 108 2;
#X obj 442 333 ctlin 109 2;
#X obj 521 334 ctlin 110 2;
#X msg 378 70 \; pd dsp 1;
#X obj 377 6 loadbang;
#X obj 369 34 delay 100;
#X text 321 -37 LOADBANGZ 4 PD_SRV;
#X text 320 -23 && RASPBERRY PI;
#X obj 400 111 print running;
#X text 76 295 FCB1010 midi mapz;
#X obj 385 171 metro;
#X obj 64 -41 tgl 15 0 empty empty empty 17 7 0 10 -260097 -257985
-1 0 127;
#X obj 91 -40 nbx 5 14 -1e+37 1e+37 0 0 empty empty empty 0 -8 0 10
-260097 -257985 -1 66 256;
#X obj 385 199 f;
#X obj 419 199 + 1;
#X obj 1 -25 hradio 16 1 0 10 empty empty empty 0 -8 0 10 -257985 -260097
-1 0;
#X obj 387 285 f;
#X obj 386 232 mod 10;
#X obj 387 258 select 0 1 2 3 4 5 6 7 8 9;
#X obj 4 -8 hsl 128 15 0 127 0 0 empty empty empty -2 -8 0 10 -260097
-257985 -1 6600 1;
#X text 389 148 5 [FIVE];
#X obj 187 -18 bng 15 250 50 0 empty empty empty 17 7 0 10 -260097
-257985 -1;
#X obj 6 299 ctlin 6 2;
#X msg 22 322 0;
#X msg 346 54 66;
#X msg 84 374 \; pd dsp 1;
#X obj 4 340 ctlin 7 2;
#X obj 85 339 ctlin 8 2;
#X msg 4 373 \; pd dsp 0;
#X text 3 -136 1 [ONE];
#X text 1 20 1 [ONE];
#X text 208 17 2 [TWO];
#X text 3 157 3 [THREE];
#X text 165 -90 4 [FOUR];
#X text 3 -42 5 [FIVE];
#X text 186 -38 bang on/off;
#X text 181 -3 DSP toggle hack!;
#X obj 212 -18 bng 15 250 50 0 empty empty empty 17 7 0 10 -260097
-257985 -1;
#X obj 232 -18 bng 15 250 50 0 empty empty empty 17 7 0 10 -260097
-257985 -1;
#X obj 177 385 ctlin 25;
#X obj 162 354 ctlin 29;
#X obj 265 384 ctlin 33;
#X obj 255 361 ctlin 37;
#X obj 178 311 notein 0;
#X obj 275 333 notein 1;
#X obj 191 333 stripnote;
#X obj -163 69 bng 15 250 50 0 empty empty empty 17 7 0 10 -262144
-1 -1;
#X connect 0 0 3 0;
#X connect 0 0 99 0;
#X connect 1 0 0 0;
#X connect 2 0 0 1;
#X connect 3 0 4 0;
#X connect 3 0 19 0;
#X connect 4 0 3 1;
#X connect 5 0 20 0;
#X connect 6 0 7 0;
#X connect 7 0 8 0;
#X connect 8 0 9 0;
#X connect 8 0 9 1;
#X connect 10 0 13 0;
#X connect 11 0 10 0;
#X connect 12 0 10 1;
#X connect 13 0 14 0;
#X connect 13 0 17 0;
#X connect 14 0 13 1;
#X connect 15 0 18 0;
#X connect 16 0 7 0;
#X connect 17 0 15 0;
#X connect 18 0 16 0;
#X connect 19 0 5 0;
#X connect 20 0 6 0;
#X connect 21 0 6 1;
#X connect 22 0 16 1;
#X connect 23 0 26 0;
#X connect 24 0 23 0;
#X connect 25 0 23 1;
#X connect 26 0 27 0;
#X connect 26 0 39 0;
#X connect 27 0 26 1;
#X connect 28 0 40 0;
#X connect 29 0 7 0;
#X connect 30 0 33 0;
#X connect 31 0 30 0;
#X connect 32 0 30 1;
#X connect 33 0 34 0;
#X connect 33 0 37 0;
#X connect 34 0 33 1;
#X connect 35 0 38 0;
#X connect 36 0 7 0;
#X connect 37 0 35 0;
#X connect 38 0 36 0;
#X connect 39 0 28 0;
#X connect 40 0 29 0;
#X connect 41 0 29 1;
#X connect 42 0 36 1;
#X connect 46 0 25 0;
#X connect 47 0 41 0;
#X connect 48 0 32 0;
#X connect 49 0 42 0;
#X connect 50 0 65 0;
#X connect 51 0 72 0;
#X connect 52 0 77 0;
#X connect 53 0 24 0;
#X connect 54 0 31 0;
#X connect 55 0 64 0;
#X connect 57 0 58 0;
#X connect 57 0 52 0;
#X connect 58 0 56 0;
#X connect 58 0 61 0;
#X connect 63 0 66 0;
#X connect 64 0 63 0;
#X connect 65 0 63 1;
#X connect 66 0 67 0;
#X connect 66 0 70 0;
#X connect 67 0 66 1;
#X connect 68 0 71 0;
#X connect 70 0 68 0;
#X connect 71 0 69 0;
#X connect 72 0 69 1;
#X connect 74 0 76 0;
#X connect 75 0 74 0;
#X connect 76 0 8 0;
#X connect 76 0 8 1;
#X connect 77 0 2 0;
#X connect 77 0 21 0;
#X connect 77 0 12 0;
#X connect 77 0 22 0;
#X connect 77 0 25 0;
#X connect 77 0 41 0;
#X connect 77 0 32 0;
#X connect 77 0 42 0;
#X connect 77 0 65 0;
#X connect 77 0 72 0;
#X connect 79 0 90 0;
#X connect 80 0 91 0;
#X connect 90 0 81 0;
#X connect 91 0 78 0;
#X connect 92 0 21 0;
#X connect 93 0 2 0;
#X connect 94 0 22 0;
#X connect 95 0 12 0;
#X connect 96 0 98 0;
#X connect 97 0 11 0;
#X connect 98 0 1 0;
