#N canvas 0 22 1265 737 10;
#X obj 1828 36 metro;
#X obj 2068 40 tgl 15 0 empty empty empty 17 7 0 10 -262144 -1 -1 0
73;
#X obj 1952 41 nbx 5 14 0 1e+37 0 0 empty empty empty 0 -8 0 10 -262144
-1 -1 105 256;
#X obj 1871 57 f;
#X obj 1896 57 + 1;
#X obj 1828 79 hradio 16 1 0 16 empty empty empty 0 -8 0 10 -262144
-1 -1 14;
#X obj 1828 130 f;
#X obj 2107 41 metro;
#X obj 2348 46 tgl 15 0 empty empty empty 17 7 0 10 -262144 -1 -1 0
59;
#X obj 2230 47 nbx 5 14 0 1e+37 0 0 empty empty empty 0 -8 0 10 -262144
-1 -1 83 256;
#X obj 2149 61 f;
#X obj 2175 61 + 1;
#X obj 2107 83 hradio 16 1 0 16 empty empty empty 0 -8 0 15 -262144
-1 -1 13;
#X obj 2107 128 f;
#X obj 1954 59 hsl 128 15 0 127 0 0 empty empty empty -2 -8 0 10 -262144
-1 -1 4300 1;
#X obj 2233 64 hsl 128 15 0 127 0 0 empty empty empty -2 -8 0 10 -262144
-1 -1 5600 1;
#X text 706 18 3 [THREE];
#X text 985 14 4 [FOUR];
#X floatatom 53 95 3 0 0 0 - - -;
#X obj 8 43 notein;
#X obj 8 69 stripnote;
#X floatatom 8 94 3 0 0 0 - - -;
#X text 8 19 MIDI IN;
#X obj 8 114 bng 20 250 50 0 empty empty empty 17 7 0 10 -262144 -1
-1;
#X obj 2107 169 makenote 64 250;
#X msg 2107 150 0;
#X obj 2123 230 makenote 64 250;
#X obj 2139 291 makenote 64 250;
#X obj 2158 351 makenote 64 250;
#X obj 2177 410 makenote 64 250;
#X obj 2192 470 makenote 64 250;
#X obj 2203 530 makenote 64 250;
#X obj 2221 590 makenote 64 250;
#X msg 2123 211 1;
#X msg 2139 272 2;
#X msg 2158 332 3;
#X msg 2177 391 4;
#X msg 2192 451 5;
#X msg 2203 511 6;
#X msg 2221 571 7;
#X obj 2107 189 noteout 2;
#X obj 2123 250 noteout 2;
#X obj 2139 311 noteout 2;
#X obj 2158 371 noteout 2;
#X obj 2177 430 noteout 2;
#X obj 2192 490 noteout 2;
#X obj 2203 550 noteout 2;
#X obj 2221 614 noteout 2;
#X obj 2107 61 mod 16;
#X obj 2151 107 select 0 1 2 3 4 5 6 7 8 9 10 11 12 13 14 15;
#X obj 2231 654 makenote 64 250;
#X obj 2231 678 noteout 2;
#X obj 2241 717 makenote 64 250;
#X obj 2241 741 noteout 2;
#X obj 2251 779 makenote 64 250;
#X obj 2251 802 noteout 2;
#X obj 2261 842 makenote 64 250;
#X obj 2261 866 noteout 2;
#X obj 2271 904 makenote 64 250;
#X obj 2271 928 noteout 2;
#X msg 2231 635 8;
#X msg 2241 698 9;
#X msg 2251 760 10;
#X msg 2261 823 11;
#X msg 2271 885 12;
#X obj 2281 968 makenote 64 250;
#X obj 2281 992 noteout 2;
#X obj 2291 1031 makenote 64 250;
#X obj 2291 1055 noteout 2;
#X obj 2311 1095 makenote 64 250;
#X obj 2311 1119 noteout 2;
#X msg 2281 949 13;
#X msg 2291 1012 14;
#X msg 2311 1076 15;
#X obj 1829 170 makenote 64 250;
#X obj 1845 231 makenote 64 250;
#X obj 1861 292 makenote 64 250;
#X obj 1880 352 makenote 64 250;
#X obj 1899 411 makenote 64 250;
#X obj 1914 471 makenote 64 250;
#X obj 1925 531 makenote 64 250;
#X obj 1943 591 makenote 64 250;
#X obj 1829 190 noteout 2;
#X obj 1845 251 noteout 2;
#X obj 1861 312 noteout 2;
#X obj 1880 372 noteout 2;
#X obj 1899 431 noteout 2;
#X obj 1914 491 noteout 2;
#X obj 1925 551 noteout 2;
#X obj 1943 615 noteout 2;
#X obj 1828 105 select 0 1 2 3 4 5 6 7 8 9 10 11 12 13 14 15;
#X obj 1953 655 makenote 64 250;
#X obj 1953 679 noteout 2;
#X obj 1963 718 makenote 64 250;
#X obj 1963 742 noteout 2;
#X obj 1973 780 makenote 64 250;
#X obj 1973 803 noteout 2;
#X obj 1983 843 makenote 64 250;
#X obj 1983 867 noteout 2;
#X obj 1993 905 makenote 64 250;
#X obj 1993 929 noteout 2;
#X obj 2003 969 makenote 64 250;
#X obj 2003 993 noteout 2;
#X obj 2013 1032 makenote 64 250;
#X obj 2013 1056 noteout 2;
#X obj 2033 1096 makenote 64 250;
#X obj 2033 1120 noteout 2;
#X msg 1829 151 16;
#X msg 1845 212 17;
#X msg 1861 273 18;
#X msg 1880 333 19;
#X msg 1899 392 20;
#X msg 1914 452 21;
#X msg 1925 512 22;
#X msg 1943 572 23;
#X msg 1953 636 24;
#X msg 1963 699 25;
#X msg 1973 761 26;
#X msg 1983 824 27;
#X msg 1993 886 28;
#X msg 2003 950 29;
#X msg 2013 1012 30;
#X msg 2033 1077 31;
#X obj 1828 57 mod 16;
#X obj 7 265 mtof;
#X obj 7 297 phasor~;
#X obj 7 331 dac~;
#X obj 1266 38 metro;
#X obj 1506 42 tgl 15 0 empty empty empty 17 7 0 10 -262144 -1 -1 0
62;
#X obj 1390 43 nbx 5 14 0 1e+37 0 0 empty empty empty 0 -8 0 10 -262144
-1 -1 24 256;
#X obj 1309 59 f;
#X obj 1334 59 + 1;
#X obj 1266 81 hradio 16 1 0 16 empty empty empty 0 -8 0 10 -262144
-1 -1 11;
#X obj 1266 132 f;
#X obj 1544 42 metro;
#X obj 1785 47 tgl 15 0 empty empty empty 17 7 0 10 -262144 -1 -1 0
39;
#X obj 1667 48 nbx 5 14 0 1e+37 0 0 empty empty empty 0 -8 0 10 -262144
-1 -1 31 256;
#X obj 1586 62 f;
#X obj 1612 62 + 1;
#X obj 1544 84 hradio 16 1 0 16 empty empty empty 0 -8 0 15 -262144
-1 -1 10;
#X obj 1544 129 f;
#X obj 1392 61 hsl 128 15 0 127 0 0 empty empty empty -2 -8 0 10 -262144
-1 -1 4800 1;
#X obj 1670 65 hsl 128 15 0 127 0 0 empty empty empty -2 -8 0 10 -262144
-1 -1 6700 1;
#X obj 1544 170 makenote 64 250;
#X obj 1560 231 makenote 64 250;
#X obj 1576 292 makenote 64 250;
#X obj 1595 352 makenote 64 250;
#X obj 1614 411 makenote 64 250;
#X obj 1629 471 makenote 64 250;
#X obj 1640 531 makenote 64 250;
#X obj 1658 591 makenote 64 250;
#X obj 1544 190 noteout 2;
#X obj 1560 251 noteout 2;
#X obj 1576 312 noteout 2;
#X obj 1595 372 noteout 2;
#X obj 1614 431 noteout 2;
#X obj 1629 491 noteout 2;
#X obj 1640 551 noteout 2;
#X obj 1658 615 noteout 2;
#X obj 1544 62 mod 16;
#X obj 1544 107 select 0 1 2 3 4 5 6 7 8 9 10 11 12 13 14 15;
#X obj 1668 655 makenote 64 250;
#X obj 1668 679 noteout 2;
#X obj 1678 718 makenote 64 250;
#X obj 1678 742 noteout 2;
#X obj 1688 780 makenote 64 250;
#X obj 1688 803 noteout 2;
#X obj 1698 843 makenote 64 250;
#X obj 1698 867 noteout 2;
#X obj 1708 905 makenote 64 250;
#X obj 1708 929 noteout 2;
#X obj 1718 969 makenote 64 250;
#X obj 1718 993 noteout 2;
#X obj 1728 1032 makenote 64 250;
#X obj 1728 1056 noteout 2;
#X obj 1748 1096 makenote 64 250;
#X obj 1748 1120 noteout 2;
#X msg 42 265 0;
#X text 40 250 alloff;
#X obj 1267 172 makenote 64 250;
#X obj 1283 233 makenote 64 250;
#X obj 1299 294 makenote 64 250;
#X obj 1318 354 makenote 64 250;
#X obj 1337 413 makenote 64 250;
#X obj 1352 473 makenote 64 250;
#X obj 1363 533 makenote 64 250;
#X obj 1381 593 makenote 64 250;
#X obj 1267 192 noteout 2;
#X obj 1283 253 noteout 2;
#X obj 1299 314 noteout 2;
#X obj 1318 374 noteout 2;
#X obj 1337 433 noteout 2;
#X obj 1352 493 noteout 2;
#X obj 1363 553 noteout 2;
#X obj 1381 617 noteout 2;
#X obj 1266 107 select 0 1 2 3 4 5 6 7 8 9 10 11 12 13 14 15;
#X obj 1391 657 makenote 64 250;
#X obj 1391 681 noteout 2;
#X obj 1401 720 makenote 64 250;
#X obj 1401 744 noteout 2;
#X obj 1411 782 makenote 64 250;
#X obj 1411 805 noteout 2;
#X obj 1421 845 makenote 64 250;
#X obj 1421 869 noteout 2;
#X obj 1431 907 makenote 64 250;
#X obj 1431 931 noteout 2;
#X obj 1441 971 makenote 64 250;
#X obj 1441 995 noteout 2;
#X obj 1451 1034 makenote 64 250;
#X obj 1451 1058 noteout 2;
#X obj 1471 1098 makenote 64 250;
#X obj 1471 1122 noteout 2;
#X obj 1266 59 mod 16;
#X text 162 17 1 [ONE];
#X text 436 19 2 [TWO];
#X obj 439 33 metro;
#X obj 679 37 tgl 15 0 empty empty empty 17 7 0 10 -262144 -1 -1 0
74;
#X obj 563 38 nbx 5 14 0 1e+37 0 0 empty empty empty 0 -8 0 10 -262144
-1 -1 64 256;
#X obj 482 54 f;
#X obj 507 54 + 1;
#X obj 439 76 hradio 16 1 0 16 empty empty empty 0 -8 0 10 -262144
-1 -1 7;
#X obj 439 127 f;
#X obj 163 39 metro;
#X obj 404 44 tgl 15 0 empty empty empty 17 7 0 10 -262144 -1 -1 0
98;
#X obj 286 45 nbx 5 14 0 1e+37 0 0 empty empty empty 0 -8 0 10 -262144
-1 -1 39 256;
#X obj 205 59 f;
#X obj 231 59 + 1;
#X obj 163 81 hradio 16 1 0 16 empty empty empty 0 -8 0 15 -262144
-1 -1 4;
#X obj 163 126 f;
#X obj 565 56 hsl 128 15 0 127 0 0 empty empty empty -2 -8 0 10 -262144
-1 -1 3800 1;
#X obj 289 62 hsl 128 15 0 127 0 0 empty empty empty -2 -8 0 10 -262144
-1 -1 4500 1;
#X obj 985 59 ctlin;
#X obj 163 167 makenote 64 250;
#X obj 179 228 makenote 64 250;
#X obj 195 289 makenote 64 250;
#X obj 214 349 makenote 64 250;
#X obj 233 408 makenote 64 250;
#X obj 248 468 makenote 64 250;
#X obj 259 528 makenote 64 250;
#X obj 277 588 makenote 64 250;
#X obj 163 187 noteout 2;
#X obj 179 248 noteout 2;
#X obj 195 309 noteout 2;
#X obj 214 369 noteout 2;
#X obj 233 428 noteout 2;
#X obj 248 488 noteout 2;
#X obj 259 548 noteout 2;
#X obj 277 612 noteout 2;
#X obj 163 59 mod 16;
#X obj 163 104 select 0 1 2 3 4 5 6 7 8 9 10 11 12 13 14 15;
#X obj 287 652 makenote 64 250;
#X obj 287 676 noteout 2;
#X obj 297 715 makenote 64 250;
#X obj 297 739 noteout 2;
#X obj 307 777 makenote 64 250;
#X obj 307 800 noteout 2;
#X obj 317 840 makenote 64 250;
#X obj 317 864 noteout 2;
#X obj 327 902 makenote 64 250;
#X obj 327 926 noteout 2;
#X obj 337 966 makenote 64 250;
#X obj 337 990 noteout 2;
#X obj 347 1029 makenote 64 250;
#X obj 347 1053 noteout 2;
#X obj 367 1093 makenote 64 250;
#X obj 367 1117 noteout 2;
#X obj 440 167 makenote 64 250;
#X obj 456 228 makenote 64 250;
#X obj 472 289 makenote 64 250;
#X obj 491 349 makenote 64 250;
#X obj 510 408 makenote 64 250;
#X obj 525 468 makenote 64 250;
#X obj 536 528 makenote 64 250;
#X obj 554 588 makenote 64 250;
#X obj 440 187 noteout 2;
#X obj 456 248 noteout 2;
#X obj 472 309 noteout 2;
#X obj 491 369 noteout 2;
#X obj 510 428 noteout 2;
#X obj 525 488 noteout 2;
#X obj 536 548 noteout 2;
#X obj 554 612 noteout 2;
#X obj 439 102 select 0 1 2 3 4 5 6 7 8 9 10 11 12 13 14 15;
#X obj 564 652 makenote 64 250;
#X obj 564 676 noteout 2;
#X obj 574 715 makenote 64 250;
#X obj 574 739 noteout 2;
#X obj 584 777 makenote 64 250;
#X obj 584 800 noteout 2;
#X obj 594 840 makenote 64 250;
#X obj 594 864 noteout 2;
#X obj 604 902 makenote 64 250;
#X obj 604 926 noteout 2;
#X obj 614 966 makenote 64 250;
#X obj 614 990 noteout 2;
#X obj 624 1029 makenote 64 250;
#X obj 624 1053 noteout 2;
#X obj 644 1093 makenote 64 250;
#X obj 644 1117 noteout 2;
#X obj 439 54 mod 16;
#X obj 985 38 metro;
#X obj 1225 42 tgl 15 0 empty empty empty 17 7 0 10 -262144 -1 -1 0
41;
#X obj 1109 43 nbx 5 14 0 1e+37 0 0 empty empty empty 0 -8 0 10 -262144
-1 -1 157 256;
#X obj 1028 59 f;
#X obj 1053 59 + 1;
#X obj 985 81 hradio 16 1 0 16 empty empty empty 0 -8 0 10 -262144
-1 -1 14;
#X obj 985 132 f;
#X obj 710 42 metro;
#X obj 951 47 tgl 15 0 empty empty empty 17 7 0 10 -262144 -1 -1 0
57;
#X obj 833 48 nbx 5 14 0 1e+37 0 0 empty empty empty 0 -8 0 10 -262144
-1 -1 152 256;
#X obj 752 62 f;
#X obj 778 62 + 1;
#X obj 710 84 hradio 16 1 0 16 empty empty empty 0 -8 0 15 -262144
-1 -1 1;
#X obj 710 129 f;
#X obj 1111 61 hsl 128 15 0 127 0 0 empty empty empty -2 -8 0 10 -262144
-1 -1 4200 1;
#X obj 836 65 hsl 128 15 0 127 0 0 empty empty empty -2 -8 0 10 -262144
-1 -1 5900 1;
#X obj 710 170 makenote 64 250;
#X obj 726 231 makenote 64 250;
#X obj 742 292 makenote 64 250;
#X obj 761 352 makenote 64 250;
#X obj 780 411 makenote 64 250;
#X obj 795 471 makenote 64 250;
#X obj 806 531 makenote 64 250;
#X obj 824 591 makenote 64 250;
#X obj 710 190 noteout 2;
#X obj 726 251 noteout 2;
#X obj 742 312 noteout 2;
#X obj 761 372 noteout 2;
#X obj 780 431 noteout 2;
#X obj 795 491 noteout 2;
#X obj 806 551 noteout 2;
#X obj 824 615 noteout 2;
#X obj 710 62 mod 16;
#X obj 710 107 select 0 1 2 3 4 5 6 7 8 9 10 11 12 13 14 15;
#X obj 834 655 makenote 64 250;
#X obj 834 679 noteout 2;
#X obj 844 718 makenote 64 250;
#X obj 844 742 noteout 2;
#X obj 854 780 makenote 64 250;
#X obj 854 803 noteout 2;
#X obj 864 843 makenote 64 250;
#X obj 864 867 noteout 2;
#X obj 874 905 makenote 64 250;
#X obj 874 929 noteout 2;
#X obj 884 969 makenote 64 250;
#X obj 884 993 noteout 2;
#X obj 894 1032 makenote 64 250;
#X obj 894 1056 noteout 2;
#X obj 914 1096 makenote 64 250;
#X obj 914 1120 noteout 2;
#X obj 986 172 makenote 64 250;
#X obj 1002 233 makenote 64 250;
#X obj 1018 294 makenote 64 250;
#X obj 1037 354 makenote 64 250;
#X obj 1056 413 makenote 64 250;
#X obj 1071 473 makenote 64 250;
#X obj 1082 533 makenote 64 250;
#X obj 1100 593 makenote 64 250;
#X obj 986 192 noteout 2;
#X obj 1002 253 noteout 2;
#X obj 1018 314 noteout 2;
#X obj 1037 374 noteout 2;
#X obj 1056 433 noteout 2;
#X obj 1071 493 noteout 2;
#X obj 1082 553 noteout 2;
#X obj 1100 617 noteout 2;
#X obj 985 107 select 0 1 2 3 4 5 6 7 8 9 10 11 12 13 14 15;
#X obj 1110 657 makenote 64 250;
#X obj 1110 681 noteout 2;
#X obj 1120 720 makenote 64 250;
#X obj 1120 744 noteout 2;
#X obj 1130 782 makenote 64 250;
#X obj 1130 805 noteout 2;
#X obj 1140 845 makenote 64 250;
#X obj 1140 869 noteout 2;
#X obj 1150 907 makenote 64 250;
#X obj 1150 931 noteout 2;
#X obj 1160 971 makenote 64 250;
#X obj 1160 995 noteout 2;
#X obj 1170 1034 makenote 64 250;
#X obj 1170 1058 noteout 2;
#X obj 1190 1098 makenote 64 250;
#X obj 1190 1122 noteout 2;
#X obj 985 59 mod 16;
#X text 1265 18 5 [FIVE];
#X text 1542 23 6 [SIX];
#X text 1826 17 7 [SEVEN];
#X text 2114 19 8 [EIGHT];
#X msg 1544 151 32;
#X msg 1560 212 33;
#X msg 1576 273 34;
#X msg 1595 333 35;
#X msg 1614 392 36;
#X msg 1629 452 37;
#X msg 1640 512 38;
#X msg 1658 572 39;
#X msg 1668 636 40;
#X msg 1678 699 41;
#X msg 1688 761 42;
#X msg 1698 824 43;
#X msg 1708 886 44;
#X msg 1718 950 45;
#X msg 1728 1013 46;
#X msg 1748 1077 47;
#X msg 1267 153 48;
#X msg 1283 214 49;
#X msg 1299 275 50;
#X msg 1318 335 51;
#X msg 1337 394 52;
#X msg 1352 454 53;
#X msg 1363 514 54;
#X msg 1381 574 55;
#X msg 1391 638 56;
#X msg 1401 701 57;
#X msg 1411 763 58;
#X msg 1421 826 59;
#X msg 1431 888 60;
#X msg 1441 952 61;
#X msg 1451 1014 62;
#X msg 1471 1079 63;
#X msg 986 153 64;
#X msg 1002 214 65;
#X msg 1018 275 66;
#X msg 1037 335 67;
#X msg 1056 394 68;
#X msg 1071 454 69;
#X msg 1082 514 70;
#X msg 1100 574 71;
#X msg 1110 638 72;
#X msg 1120 701 73;
#X msg 1130 763 74;
#X msg 1140 826 75;
#X msg 1150 888 76;
#X msg 1160 952 77;
#X msg 1170 1014 78;
#X msg 1190 1079 79;
#X msg 710 151 80;
#X msg 726 212 81;
#X msg 742 273 82;
#X msg 761 333 83;
#X msg 780 392 84;
#X msg 795 452 85;
#X msg 806 512 86;
#X msg 824 572 87;
#X msg 834 636 88;
#X msg 844 699 89;
#X msg 854 761 90;
#X msg 864 824 91;
#X msg 874 886 92;
#X msg 884 950 93;
#X msg 894 1013 94;
#X msg 914 1077 95;
#X msg 440 148 96;
#X msg 456 207 97;
#X msg 472 270 98;
#X msg 491 330 99;
#X msg 509 389 100;
#X msg 525 449 101;
#X msg 536 509 102;
#X msg 553 569 103;
#X msg 564 633 104;
#X msg 574 696 105;
#X msg 584 758 106;
#X msg 594 821 107;
#X msg 604 883 108;
#X msg 614 947 109;
#X msg 624 1009 110;
#X msg 644 1074 111;
#X msg 163 148 112;
#X msg 179 209 113;
#X msg 195 270 114;
#X msg 214 330 115;
#X msg 233 389 116;
#X msg 248 449 117;
#X msg 259 509 118;
#X msg 277 569 119;
#X msg 287 633 120;
#X msg 297 696 121;
#X msg 307 758 122;
#X msg 317 821 123;
#X msg 327 883 124;
#X msg 337 947 125;
#X msg 347 1010 126;
#X msg 367 1074 127;
#X obj 8 154 ctlin;
#X obj 8 178 nbx 3 14 -1e+37 1e+37 0 0 empty empty empty 0 -8 0 10
-262144 -1 -1 127 256;
#X obj 2 209 bng 15 250 50 0 empty empty empty 17 7 0 10 -262144 -1
-1;
#X obj 20 194 nbx 3 14 -1e+37 1e+37 0 0 empty empty empty 0 -8 0 10
-262144 -1 -1 51 256;
#X obj 34 210 nbx 3 14 -1e+37 1e+37 0 0 empty empty empty 0 -8 0 10
-262144 -1 -1 1 256;
#X obj 2 406 ctlin 12;
#X obj 56 406 ctlin 13;
#X obj 111 406 ctlin 14;
#X obj 197 -212 ctlin 52;
#X msg 175 -126 bang;
#X obj 290 -75 + 1;
#X obj 175 -72 - 1;
#X msg 290 -125 bang;
#X obj 230 -42 t b f;
#X obj 196 -158 nbx 5 14 -1e+37 1e+37 0 0 empty empty empty 0 -8 0
10 -262144 -1 -1 1 256;
#X obj 196 -143 bng 15 250 50 0 empty empty empty 17 7 0 10 -262144
-1 -1;
#X obj 216 -143 bng 15 250 50 0 empty empty empty 17 7 0 10 -262144
-1 -1;
#X obj 235 -143 bng 15 250 50 0 empty empty empty 17 7 0 10 -262144
-1 -1;
#X obj 196 -184 select 127 1;
#X msg 462 -124 bang;
#X obj 577 -73 + 1;
#X obj 462 -70 - 1;
#X msg 577 -123 bang;
#X obj 517 -40 t b f;
#X obj 483 -156 nbx 5 14 -1e+37 1e+37 0 0 empty empty empty 0 -8 0
10 -262144 -1 -1 127 256;
#X obj 483 -141 bng 15 250 50 0 empty empty empty 17 7 0 10 -262144
-1 -1;
#X obj 503 -141 bng 15 250 50 0 empty empty empty 17 7 0 10 -262144
-1 -1;
#X obj 522 -141 bng 15 250 50 0 empty empty empty 17 7 0 10 -262144
-1 -1;
#X obj 483 -182 select 127 1;
#X obj 484 -210 ctlin 51;
#X obj 348 -213 ctlin 127;
#X obj 282 -216 ctlin 8;
#X obj 637 -212 ctlin 126;
#X obj 580 -212 ctlin 7;
#X msg 703 -127 bang;
#X obj 818 -76 + 1;
#X obj 703 -73 - 1;
#X msg 818 -126 bang;
#X obj 758 -43 t b f;
#X obj 724 -159 nbx 5 14 -1e+37 1e+37 0 0 empty empty empty 0 -8 0
10 -262144 -1 -1 1 256;
#X obj 724 -144 bng 15 250 50 0 empty empty empty 17 7 0 10 -262144
-1 -1;
#X obj 744 -144 bng 15 250 50 0 empty empty empty 17 7 0 10 -262144
-1 -1;
#X obj 763 -144 bng 15 250 50 0 empty empty empty 17 7 0 10 -262144
-1 -1;
#X obj 724 -185 select 127 1;
#X obj 725 -213 ctlin 54;
#X obj 821 -215 ctlin 6;
#X obj 878 -215 ctlin 125;
#X obj 769 -21 v octo_counter3;
#X obj 818 -100 v octo_counter3;
#X obj 703 -99 v octo_counter3;
#X obj 577 -97 v octo_counter2;
#X obj 528 -18 v octo_counter2;
#X obj 462 -96 v octo_counter2;
#X obj 290 -99 v octo_counter1;
#X obj 175 -98 v octo_counter1;
#X obj 241 -20 v octo_counter1;
#X msg 1007 -129 bang;
#X obj 1122 -78 + 1;
#X obj 1007 -75 - 1;
#X msg 1122 -128 bang;
#X obj 1062 -45 t b f;
#X obj 1028 -161 nbx 5 14 -1e+37 1e+37 0 0 empty empty empty 0 -8 0
10 -262144 -1 -1 1 256;
#X obj 1028 -146 bng 15 250 50 0 empty empty empty 17 7 0 10 -262144
-1 -1;
#X obj 1048 -146 bng 15 250 50 0 empty empty empty 17 7 0 10 -262144
-1 -1;
#X obj 1067 -146 bng 15 250 50 0 empty empty empty 17 7 0 10 -262144
-1 -1;
#X obj 1028 -187 select 127 1;
#X obj 1029 -215 ctlin 53;
#X obj 1125 -217 ctlin 5;
#X obj 1183 -217 ctlin 124;
#X msg 1284 -130 bang;
#X obj 1399 -79 + 1;
#X obj 1284 -76 - 1;
#X msg 1399 -129 bang;
#X obj 1339 -46 t b f;
#X obj 1305 -162 nbx 5 14 -1e+37 1e+37 0 0 empty empty empty 0 -8 0
10 -262144 -1 -1 1 256;
#X obj 1305 -147 bng 15 250 50 0 empty empty empty 17 7 0 10 -262144
-1 -1;
#X obj 1325 -147 bng 15 250 50 0 empty empty empty 17 7 0 10 -262144
-1 -1;
#X obj 1344 -147 bng 15 250 50 0 empty empty empty 17 7 0 10 -262144
-1 -1;
#X obj 1305 -188 select 127 1;
#X obj 1306 -216 ctlin 56;
#X obj 1402 -218 ctlin 1;
#X obj 1460 -218 ctlin 123;
#X msg 1562 -131 bang;
#X obj 1677 -80 + 1;
#X obj 1562 -77 - 1;
#X msg 1677 -130 bang;
#X obj 1617 -47 t b f;
#X obj 1583 -163 nbx 5 14 -1e+37 1e+37 0 0 empty empty empty 0 -8 0
10 -262144 -1 -1 1 256;
#X obj 1583 -148 bng 15 250 50 0 empty empty empty 17 7 0 10 -262144
-1 -1;
#X obj 1603 -148 bng 15 250 50 0 empty empty empty 17 7 0 10 -262144
-1 -1;
#X obj 1622 -148 bng 15 250 50 0 empty empty empty 17 7 0 10 -262144
-1 -1;
#X obj 1583 -189 select 127 1;
#X obj 1584 -217 ctlin 55;
#X obj 1680 -219 ctlin 2;
#X obj 1738 -219 ctlin 122;
#X msg 1848 -130 bang;
#X obj 1963 -79 + 1;
#X obj 1848 -76 - 1;
#X msg 1963 -129 bang;
#X obj 1903 -46 t b f;
#X obj 1869 -162 nbx 5 14 -1e+37 1e+37 0 0 empty empty empty 0 -8 0
10 -262144 -1 -1 127 256;
#X obj 1869 -147 bng 15 250 50 0 empty empty empty 17 7 0 10 -262144
-1 -1;
#X obj 1889 -147 bng 15 250 50 0 empty empty empty 17 7 0 10 -262144
-1 -1;
#X obj 1908 -147 bng 15 250 50 0 empty empty empty 17 7 0 10 -262144
-1 -1;
#X obj 1869 -188 select 127 1;
#X obj 1870 -216 ctlin 58;
#X obj 1966 -218 ctlin 3;
#X obj 2024 -218 ctlin 121;
#X msg 2118 -131 bang;
#X obj 2233 -80 + 1;
#X obj 2118 -77 - 1;
#X msg 2233 -130 bang;
#X obj 2173 -47 t b f;
#X obj 2139 -163 nbx 5 14 -1e+37 1e+37 0 0 empty empty empty 0 -8 0
10 -262144 -1 -1 1 256;
#X obj 2139 -148 bng 15 250 50 0 empty empty empty 17 7 0 10 -262144
-1 -1;
#X obj 2159 -148 bng 15 250 50 0 empty empty empty 17 7 0 10 -262144
-1 -1;
#X obj 2178 -148 bng 15 250 50 0 empty empty empty 17 7 0 10 -262144
-1 -1;
#X obj 2139 -189 select 127 1;
#X obj 2140 -217 ctlin 57;
#X obj 2236 -219 ctlin 4;
#X obj 2294 -219 ctlin 120;
#X obj 2184 -25 v octo_counter8;
#X obj 2233 -104 v octo_counter8;
#X obj 2118 -103 v octo_counter8;
#X obj 1963 -103 v octo_counter7;
#X obj 1914 -24 v octo_counter7;
#X obj 1848 -102 v octo_counter7;
#X obj 1350 -24 v octo_counter5;
#X obj 1399 -103 v octo_counter5;
#X obj 1284 -102 v octo_counter5;
#X obj 1122 -102 v octo_counter4;
#X obj 1073 -23 v octo_counter4;
#X obj 1007 -101 v octo_counter4;
#X obj 1562 -103 v octo_counter6;
#X obj 1677 -104 v octo_counter6;
#X obj 1628 -25 v octo_counter6;
#X connect 0 0 3 0;
#X connect 1 0 0 0;
#X connect 2 0 0 1;
#X connect 3 0 4 0;
#X connect 3 0 123 0;
#X connect 4 0 3 1;
#X connect 5 0 90 0;
#X connect 6 0 124 0;
#X connect 7 0 10 0;
#X connect 8 0 7 0;
#X connect 9 0 7 1;
#X connect 10 0 11 0;
#X connect 10 0 48 0;
#X connect 11 0 10 1;
#X connect 12 0 49 0;
#X connect 13 0 124 0;
#X connect 14 0 6 1;
#X connect 15 0 13 1;
#X connect 19 0 20 0;
#X connect 19 1 20 1;
#X connect 20 0 21 0;
#X connect 20 1 18 0;
#X connect 21 0 23 0;
#X connect 24 0 40 0;
#X connect 24 1 40 1;
#X connect 25 0 24 0;
#X connect 26 0 41 0;
#X connect 26 1 41 1;
#X connect 27 0 42 0;
#X connect 27 1 42 1;
#X connect 28 0 43 0;
#X connect 28 1 43 1;
#X connect 29 0 44 0;
#X connect 29 1 44 1;
#X connect 30 0 45 0;
#X connect 30 1 45 1;
#X connect 31 0 46 0;
#X connect 31 1 46 1;
#X connect 32 0 47 0;
#X connect 32 1 47 1;
#X connect 33 0 26 0;
#X connect 34 0 27 0;
#X connect 35 0 28 0;
#X connect 36 0 29 0;
#X connect 37 0 30 0;
#X connect 38 0 31 0;
#X connect 39 0 32 0;
#X connect 48 0 12 0;
#X connect 49 0 25 0;
#X connect 49 0 13 0;
#X connect 49 1 33 0;
#X connect 49 2 34 0;
#X connect 49 3 35 0;
#X connect 49 4 36 0;
#X connect 49 5 37 0;
#X connect 49 6 38 0;
#X connect 49 7 39 0;
#X connect 49 8 60 0;
#X connect 49 9 61 0;
#X connect 49 10 62 0;
#X connect 49 11 63 0;
#X connect 49 12 64 0;
#X connect 49 13 71 0;
#X connect 49 14 72 0;
#X connect 49 15 73 0;
#X connect 50 0 51 0;
#X connect 50 1 51 1;
#X connect 52 0 53 0;
#X connect 52 1 53 1;
#X connect 54 0 55 0;
#X connect 54 1 55 1;
#X connect 56 0 57 0;
#X connect 56 1 57 1;
#X connect 58 0 59 0;
#X connect 58 1 59 1;
#X connect 60 0 50 0;
#X connect 61 0 52 0;
#X connect 62 0 54 0;
#X connect 63 0 56 0;
#X connect 64 0 58 0;
#X connect 65 0 66 0;
#X connect 65 1 66 1;
#X connect 67 0 68 0;
#X connect 67 1 68 1;
#X connect 69 0 70 0;
#X connect 69 1 70 1;
#X connect 71 0 65 0;
#X connect 72 0 67 0;
#X connect 73 0 69 0;
#X connect 74 0 82 0;
#X connect 74 1 82 1;
#X connect 75 0 83 0;
#X connect 75 1 83 1;
#X connect 76 0 84 0;
#X connect 76 1 84 1;
#X connect 77 0 85 0;
#X connect 77 1 85 1;
#X connect 78 0 86 0;
#X connect 78 1 86 1;
#X connect 79 0 87 0;
#X connect 79 1 87 1;
#X connect 80 0 88 0;
#X connect 80 1 88 1;
#X connect 81 0 89 0;
#X connect 81 1 89 1;
#X connect 90 0 107 0;
#X connect 90 0 6 0;
#X connect 90 1 108 0;
#X connect 90 2 109 0;
#X connect 90 3 110 0;
#X connect 90 4 111 0;
#X connect 90 5 112 0;
#X connect 90 6 113 0;
#X connect 90 7 114 0;
#X connect 90 8 115 0;
#X connect 90 9 116 0;
#X connect 90 10 117 0;
#X connect 90 11 118 0;
#X connect 90 12 119 0;
#X connect 90 13 120 0;
#X connect 90 14 121 0;
#X connect 90 15 122 0;
#X connect 91 0 92 0;
#X connect 91 1 92 1;
#X connect 93 0 94 0;
#X connect 93 1 94 1;
#X connect 95 0 96 0;
#X connect 95 1 96 1;
#X connect 97 0 98 0;
#X connect 97 1 98 1;
#X connect 99 0 100 0;
#X connect 99 1 100 1;
#X connect 101 0 102 0;
#X connect 101 1 102 1;
#X connect 103 0 104 0;
#X connect 103 1 104 1;
#X connect 105 0 106 0;
#X connect 105 1 106 1;
#X connect 107 0 74 0;
#X connect 108 0 75 0;
#X connect 109 0 76 0;
#X connect 110 0 77 0;
#X connect 111 0 78 0;
#X connect 112 0 79 0;
#X connect 113 0 80 0;
#X connect 114 0 81 0;
#X connect 115 0 91 0;
#X connect 116 0 93 0;
#X connect 117 0 95 0;
#X connect 118 0 97 0;
#X connect 119 0 99 0;
#X connect 120 0 101 0;
#X connect 121 0 103 0;
#X connect 122 0 105 0;
#X connect 123 0 5 0;
#X connect 124 0 125 0;
#X connect 125 0 126 0;
#X connect 125 0 126 1;
#X connect 127 0 130 0;
#X connect 128 0 127 0;
#X connect 129 0 127 1;
#X connect 130 0 131 0;
#X connect 130 0 212 0;
#X connect 131 0 130 1;
#X connect 132 0 195 0;
#X connect 133 0 124 0;
#X connect 134 0 137 0;
#X connect 135 0 134 0;
#X connect 136 0 134 1;
#X connect 137 0 138 0;
#X connect 137 0 159 0;
#X connect 138 0 137 1;
#X connect 139 0 160 0;
#X connect 140 0 124 0;
#X connect 141 0 133 1;
#X connect 142 0 140 1;
#X connect 143 0 151 0;
#X connect 143 1 151 1;
#X connect 144 0 152 0;
#X connect 144 1 152 1;
#X connect 145 0 153 0;
#X connect 145 1 153 1;
#X connect 146 0 154 0;
#X connect 146 1 154 1;
#X connect 147 0 155 0;
#X connect 147 1 155 1;
#X connect 148 0 156 0;
#X connect 148 1 156 1;
#X connect 149 0 157 0;
#X connect 149 1 157 1;
#X connect 150 0 158 0;
#X connect 150 1 158 1;
#X connect 159 0 139 0;
#X connect 160 0 388 0;
#X connect 160 0 140 0;
#X connect 160 1 389 0;
#X connect 160 2 390 0;
#X connect 160 3 391 0;
#X connect 160 4 392 0;
#X connect 160 5 393 0;
#X connect 160 6 394 0;
#X connect 160 7 395 0;
#X connect 160 8 396 0;
#X connect 160 9 397 0;
#X connect 160 10 398 0;
#X connect 160 11 399 0;
#X connect 160 12 400 0;
#X connect 160 13 401 0;
#X connect 160 14 402 0;
#X connect 160 15 403 0;
#X connect 161 0 162 0;
#X connect 161 1 162 1;
#X connect 163 0 164 0;
#X connect 163 1 164 1;
#X connect 165 0 166 0;
#X connect 165 1 166 1;
#X connect 167 0 168 0;
#X connect 167 1 168 1;
#X connect 169 0 170 0;
#X connect 169 1 170 1;
#X connect 171 0 172 0;
#X connect 171 1 172 1;
#X connect 173 0 174 0;
#X connect 173 1 174 1;
#X connect 175 0 176 0;
#X connect 175 1 176 1;
#X connect 177 0 125 1;
#X connect 177 0 125 0;
#X connect 179 0 187 0;
#X connect 179 1 187 1;
#X connect 180 0 188 0;
#X connect 180 1 188 1;
#X connect 181 0 189 0;
#X connect 181 1 189 1;
#X connect 182 0 190 0;
#X connect 182 1 190 1;
#X connect 183 0 191 0;
#X connect 183 1 191 1;
#X connect 184 0 192 0;
#X connect 184 1 192 1;
#X connect 185 0 193 0;
#X connect 185 1 193 1;
#X connect 186 0 194 0;
#X connect 186 1 194 1;
#X connect 195 0 404 0;
#X connect 195 0 133 0;
#X connect 195 1 405 0;
#X connect 195 2 406 0;
#X connect 195 3 407 0;
#X connect 195 4 408 0;
#X connect 195 5 409 0;
#X connect 195 6 410 0;
#X connect 195 7 411 0;
#X connect 195 8 412 0;
#X connect 195 9 413 0;
#X connect 195 10 414 0;
#X connect 195 11 415 0;
#X connect 195 12 416 0;
#X connect 195 13 417 0;
#X connect 195 14 418 0;
#X connect 195 15 419 0;
#X connect 196 0 197 0;
#X connect 196 1 197 1;
#X connect 198 0 199 0;
#X connect 198 1 199 1;
#X connect 200 0 201 0;
#X connect 200 1 201 1;
#X connect 202 0 203 0;
#X connect 202 1 203 1;
#X connect 204 0 205 0;
#X connect 204 1 205 1;
#X connect 206 0 207 0;
#X connect 206 1 207 1;
#X connect 208 0 209 0;
#X connect 208 1 209 1;
#X connect 210 0 211 0;
#X connect 210 1 211 1;
#X connect 212 0 132 0;
#X connect 215 0 218 0;
#X connect 216 0 215 0;
#X connect 217 0 215 1;
#X connect 218 0 219 0;
#X connect 218 0 299 0;
#X connect 219 0 218 1;
#X connect 220 0 282 0;
#X connect 221 0 124 0;
#X connect 222 0 225 0;
#X connect 223 0 222 0;
#X connect 224 0 222 1;
#X connect 225 0 226 0;
#X connect 225 0 248 0;
#X connect 226 0 225 1;
#X connect 227 0 249 0;
#X connect 228 0 124 0;
#X connect 229 0 221 1;
#X connect 230 0 228 1;
#X connect 232 0 240 0;
#X connect 232 1 240 1;
#X connect 233 0 241 0;
#X connect 233 1 241 1;
#X connect 234 0 242 0;
#X connect 234 1 242 1;
#X connect 235 0 243 0;
#X connect 235 1 243 1;
#X connect 236 0 244 0;
#X connect 236 1 244 1;
#X connect 237 0 245 0;
#X connect 237 1 245 1;
#X connect 238 0 246 0;
#X connect 238 1 246 1;
#X connect 239 0 247 0;
#X connect 239 1 247 1;
#X connect 248 0 227 0;
#X connect 249 0 468 0;
#X connect 249 0 228 0;
#X connect 249 1 469 0;
#X connect 249 2 470 0;
#X connect 249 3 471 0;
#X connect 249 4 472 0;
#X connect 249 5 473 0;
#X connect 249 6 474 0;
#X connect 249 7 475 0;
#X connect 249 8 476 0;
#X connect 249 9 477 0;
#X connect 249 10 478 0;
#X connect 249 11 479 0;
#X connect 249 12 480 0;
#X connect 249 13 481 0;
#X connect 249 14 482 0;
#X connect 249 15 483 0;
#X connect 250 0 251 0;
#X connect 250 1 251 1;
#X connect 252 0 253 0;
#X connect 252 1 253 1;
#X connect 254 0 255 0;
#X connect 254 1 255 1;
#X connect 256 0 257 0;
#X connect 256 1 257 1;
#X connect 258 0 259 0;
#X connect 258 1 259 1;
#X connect 260 0 261 0;
#X connect 260 1 261 1;
#X connect 262 0 263 0;
#X connect 262 1 263 1;
#X connect 264 0 265 0;
#X connect 264 1 265 1;
#X connect 266 0 274 0;
#X connect 266 1 274 1;
#X connect 267 0 275 0;
#X connect 267 1 275 1;
#X connect 268 0 276 0;
#X connect 268 1 276 1;
#X connect 269 0 277 0;
#X connect 269 1 277 1;
#X connect 270 0 278 0;
#X connect 270 1 278 1;
#X connect 271 0 279 0;
#X connect 271 1 279 1;
#X connect 272 0 280 0;
#X connect 272 1 280 1;
#X connect 273 0 281 0;
#X connect 273 1 281 1;
#X connect 282 0 452 0;
#X connect 282 0 221 0;
#X connect 282 1 453 0;
#X connect 282 2 454 0;
#X connect 282 3 455 0;
#X connect 282 4 456 0;
#X connect 282 5 457 0;
#X connect 282 6 458 0;
#X connect 282 7 459 0;
#X connect 282 8 460 0;
#X connect 282 9 461 0;
#X connect 282 10 462 0;
#X connect 282 11 463 0;
#X connect 282 12 464 0;
#X connect 282 13 465 0;
#X connect 282 14 466 0;
#X connect 282 15 467 0;
#X connect 283 0 284 0;
#X connect 283 1 284 1;
#X connect 285 0 286 0;
#X connect 285 1 286 1;
#X connect 287 0 288 0;
#X connect 287 1 288 1;
#X connect 289 0 290 0;
#X connect 289 1 290 1;
#X connect 291 0 292 0;
#X connect 291 1 292 1;
#X connect 293 0 294 0;
#X connect 293 1 294 1;
#X connect 295 0 296 0;
#X connect 295 1 296 1;
#X connect 297 0 298 0;
#X connect 297 1 298 1;
#X connect 299 0 220 0;
#X connect 300 0 303 0;
#X connect 301 0 300 0;
#X connect 302 0 300 1;
#X connect 303 0 304 0;
#X connect 303 0 383 0;
#X connect 304 0 303 1;
#X connect 305 0 366 0;
#X connect 306 0 124 0;
#X connect 307 0 310 0;
#X connect 308 0 307 0;
#X connect 309 0 307 1;
#X connect 310 0 311 0;
#X connect 310 0 332 0;
#X connect 311 0 310 1;
#X connect 312 0 333 0;
#X connect 313 0 124 0;
#X connect 314 0 306 1;
#X connect 315 0 313 1;
#X connect 316 0 324 0;
#X connect 316 1 324 1;
#X connect 317 0 325 0;
#X connect 317 1 325 1;
#X connect 318 0 326 0;
#X connect 318 1 326 1;
#X connect 319 0 327 0;
#X connect 319 1 327 1;
#X connect 320 0 328 0;
#X connect 320 1 328 1;
#X connect 321 0 329 0;
#X connect 321 1 329 1;
#X connect 322 0 330 0;
#X connect 322 1 330 1;
#X connect 323 0 331 0;
#X connect 323 1 331 1;
#X connect 332 0 312 0;
#X connect 333 0 313 0;
#X connect 333 0 436 0;
#X connect 333 1 437 0;
#X connect 333 2 438 0;
#X connect 333 3 439 0;
#X connect 333 4 440 0;
#X connect 333 5 441 0;
#X connect 333 6 442 0;
#X connect 333 7 443 0;
#X connect 333 8 444 0;
#X connect 333 9 445 0;
#X connect 333 10 446 0;
#X connect 333 11 447 0;
#X connect 333 12 448 0;
#X connect 333 13 449 0;
#X connect 333 14 450 0;
#X connect 333 15 451 0;
#X connect 334 0 335 0;
#X connect 334 1 335 1;
#X connect 336 0 337 0;
#X connect 336 1 337 1;
#X connect 338 0 339 0;
#X connect 338 1 339 1;
#X connect 340 0 341 0;
#X connect 340 1 341 1;
#X connect 342 0 343 0;
#X connect 342 1 343 1;
#X connect 344 0 345 0;
#X connect 344 1 345 1;
#X connect 346 0 347 0;
#X connect 346 1 347 1;
#X connect 348 0 349 0;
#X connect 348 1 349 1;
#X connect 350 0 358 0;
#X connect 350 1 358 1;
#X connect 351 0 359 0;
#X connect 351 1 359 1;
#X connect 352 0 360 0;
#X connect 352 1 360 1;
#X connect 353 0 361 0;
#X connect 353 1 361 1;
#X connect 354 0 362 0;
#X connect 354 1 362 1;
#X connect 355 0 363 0;
#X connect 355 1 363 1;
#X connect 356 0 364 0;
#X connect 356 1 364 1;
#X connect 357 0 365 0;
#X connect 357 1 365 1;
#X connect 366 0 420 0;
#X connect 366 0 306 0;
#X connect 366 1 421 0;
#X connect 366 2 422 0;
#X connect 366 3 423 0;
#X connect 366 4 424 0;
#X connect 366 5 425 0;
#X connect 366 6 426 0;
#X connect 366 7 427 0;
#X connect 366 8 428 0;
#X connect 366 9 429 0;
#X connect 366 10 430 0;
#X connect 366 11 431 0;
#X connect 366 12 432 0;
#X connect 366 13 433 0;
#X connect 366 14 434 0;
#X connect 366 15 435 0;
#X connect 367 0 368 0;
#X connect 367 1 368 1;
#X connect 369 0 370 0;
#X connect 369 1 370 1;
#X connect 371 0 372 0;
#X connect 371 1 372 1;
#X connect 373 0 374 0;
#X connect 373 1 374 1;
#X connect 375 0 376 0;
#X connect 375 1 376 1;
#X connect 377 0 378 0;
#X connect 377 1 378 1;
#X connect 379 0 380 0;
#X connect 379 1 380 1;
#X connect 381 0 382 0;
#X connect 381 1 382 1;
#X connect 383 0 305 0;
#X connect 388 0 143 0;
#X connect 389 0 144 0;
#X connect 390 0 145 0;
#X connect 391 0 146 0;
#X connect 392 0 147 0;
#X connect 393 0 148 0;
#X connect 394 0 149 0;
#X connect 395 0 150 0;
#X connect 396 0 161 0;
#X connect 397 0 163 0;
#X connect 398 0 165 0;
#X connect 399 0 167 0;
#X connect 400 0 169 0;
#X connect 401 0 171 0;
#X connect 402 0 173 0;
#X connect 403 0 175 0;
#X connect 404 0 179 0;
#X connect 405 0 180 0;
#X connect 406 0 181 0;
#X connect 407 0 182 0;
#X connect 408 0 183 0;
#X connect 409 0 184 0;
#X connect 410 0 185 0;
#X connect 411 0 186 0;
#X connect 412 0 196 0;
#X connect 413 0 198 0;
#X connect 414 0 200 0;
#X connect 415 0 202 0;
#X connect 416 0 204 0;
#X connect 417 0 206 0;
#X connect 418 0 208 0;
#X connect 419 0 210 0;
#X connect 420 0 350 0;
#X connect 421 0 351 0;
#X connect 422 0 352 0;
#X connect 423 0 353 0;
#X connect 424 0 354 0;
#X connect 425 0 355 0;
#X connect 426 0 356 0;
#X connect 427 0 357 0;
#X connect 428 0 367 0;
#X connect 429 0 369 0;
#X connect 430 0 371 0;
#X connect 431 0 373 0;
#X connect 432 0 375 0;
#X connect 433 0 377 0;
#X connect 434 0 379 0;
#X connect 435 0 381 0;
#X connect 436 0 316 0;
#X connect 437 0 317 0;
#X connect 438 0 318 0;
#X connect 439 0 319 0;
#X connect 440 0 320 0;
#X connect 441 0 321 0;
#X connect 442 0 322 0;
#X connect 443 0 323 0;
#X connect 444 0 334 0;
#X connect 445 0 336 0;
#X connect 446 0 338 0;
#X connect 447 0 340 0;
#X connect 448 0 342 0;
#X connect 449 0 344 0;
#X connect 450 0 346 0;
#X connect 451 0 348 0;
#X connect 452 0 266 0;
#X connect 453 0 267 0;
#X connect 454 0 268 0;
#X connect 455 0 269 0;
#X connect 456 0 270 0;
#X connect 457 0 271 0;
#X connect 458 0 272 0;
#X connect 459 0 273 0;
#X connect 460 0 283 0;
#X connect 461 0 285 0;
#X connect 462 0 287 0;
#X connect 463 0 289 0;
#X connect 464 0 291 0;
#X connect 465 0 293 0;
#X connect 466 0 295 0;
#X connect 467 0 297 0;
#X connect 468 0 232 0;
#X connect 469 0 233 0;
#X connect 470 0 234 0;
#X connect 471 0 235 0;
#X connect 472 0 236 0;
#X connect 473 0 237 0;
#X connect 474 0 238 0;
#X connect 475 0 239 0;
#X connect 476 0 250 0;
#X connect 477 0 252 0;
#X connect 478 0 254 0;
#X connect 479 0 256 0;
#X connect 480 0 258 0;
#X connect 481 0 260 0;
#X connect 482 0 262 0;
#X connect 483 0 264 0;
#X connect 484 0 485 0;
#X connect 484 1 487 0;
#X connect 484 2 488 0;
#X connect 485 0 486 0;
#X connect 487 0 486 0;
#X connect 488 0 486 0;
#X connect 490 0 177 0;
#X connect 492 0 498 0;
#X connect 492 0 502 0;
#X connect 493 0 538 0;
#X connect 494 0 497 0;
#X connect 495 0 497 0;
#X connect 496 0 537 0;
#X connect 497 0 539 0;
#X connect 497 1 539 0;
#X connect 502 0 499 0;
#X connect 502 0 493 0;
#X connect 502 1 500 0;
#X connect 502 1 496 0;
#X connect 502 2 501 0;
#X connect 503 0 536 0;
#X connect 504 0 507 0;
#X connect 505 0 507 0;
#X connect 506 0 534 0;
#X connect 507 0 535 0;
#X connect 507 1 535 0;
#X connect 512 0 509 0;
#X connect 512 0 503 0;
#X connect 512 1 510 0;
#X connect 512 1 506 0;
#X connect 512 2 511 0;
#X connect 513 0 508 0;
#X connect 513 0 512 0;
#X connect 514 0 223 0;
#X connect 515 0 230 0;
#X connect 516 0 216 0;
#X connect 517 0 229 0;
#X connect 518 0 533 0;
#X connect 519 0 522 0;
#X connect 520 0 522 0;
#X connect 521 0 532 0;
#X connect 522 0 531 0;
#X connect 522 1 531 0;
#X connect 527 0 524 0;
#X connect 527 0 518 0;
#X connect 527 1 525 0;
#X connect 527 1 521 0;
#X connect 527 2 526 0;
#X connect 528 0 523 0;
#X connect 528 0 527 0;
#X connect 529 0 315 0;
#X connect 530 0 308 0;
#X connect 531 0 309 0;
#X connect 532 0 519 0;
#X connect 533 0 520 0;
#X connect 534 0 504 0;
#X connect 535 0 217 0;
#X connect 536 0 505 0;
#X connect 537 0 494 0;
#X connect 538 0 495 0;
#X connect 539 0 224 0;
#X connect 540 0 616 0;
#X connect 541 0 544 0;
#X connect 542 0 544 0;
#X connect 543 0 614 0;
#X connect 544 0 615 0;
#X connect 544 1 615 0;
#X connect 549 0 546 0;
#X connect 549 0 540 0;
#X connect 549 1 547 0;
#X connect 549 1 543 0;
#X connect 549 2 548 0;
#X connect 550 0 545 0;
#X connect 550 0 549 0;
#X connect 551 0 314 0;
#X connect 552 0 301 0;
#X connect 553 0 613 0;
#X connect 554 0 557 0;
#X connect 555 0 557 0;
#X connect 556 0 612 0;
#X connect 557 0 611 0;
#X connect 557 1 611 0;
#X connect 562 0 559 0;
#X connect 562 0 553 0;
#X connect 562 1 560 0;
#X connect 562 1 556 0;
#X connect 562 2 561 0;
#X connect 563 0 558 0;
#X connect 563 0 562 0;
#X connect 564 0 141 0;
#X connect 565 0 128 0;
#X connect 566 0 617 0;
#X connect 567 0 570 0;
#X connect 568 0 570 0;
#X connect 569 0 618 0;
#X connect 570 0 619 0;
#X connect 570 1 619 0;
#X connect 575 0 572 0;
#X connect 575 0 566 0;
#X connect 575 1 573 0;
#X connect 575 1 569 0;
#X connect 575 2 574 0;
#X connect 576 0 571 0;
#X connect 576 0 575 0;
#X connect 577 0 142 0;
#X connect 578 0 135 0;
#X connect 579 0 610 0;
#X connect 580 0 583 0;
#X connect 581 0 583 0;
#X connect 582 0 608 0;
#X connect 583 0 609 0;
#X connect 583 1 609 0;
#X connect 588 0 585 0;
#X connect 588 0 579 0;
#X connect 588 1 586 0;
#X connect 588 1 582 0;
#X connect 588 2 587 0;
#X connect 589 0 584 0;
#X connect 589 0 588 0;
#X connect 590 0 14 0;
#X connect 591 0 1 0;
#X connect 592 0 607 0;
#X connect 593 0 596 0;
#X connect 594 0 596 0;
#X connect 595 0 606 0;
#X connect 596 0 605 0;
#X connect 596 1 605 0;
#X connect 601 0 598 0;
#X connect 601 0 592 0;
#X connect 601 1 599 0;
#X connect 601 1 595 0;
#X connect 601 2 600 0;
#X connect 602 0 597 0;
#X connect 602 0 601 0;
#X connect 603 0 15 0;
#X connect 604 0 8 0;
#X connect 605 0 9 0;
#X connect 606 0 593 0;
#X connect 607 0 594 0;
#X connect 608 0 580 0;
#X connect 609 0 2 0;
#X connect 610 0 581 0;
#X connect 611 0 129 0;
#X connect 612 0 554 0;
#X connect 613 0 555 0;
#X connect 614 0 541 0;
#X connect 615 0 302 0;
#X connect 616 0 542 0;
#X connect 617 0 568 0;
#X connect 618 0 567 0;
#X connect 619 0 136 0;
