#N canvas 0 52 800 546 10;
#X obj 247 49 metro;
#X obj 247 28 tgl 15 0 empty empty empty 17 7 0 10 -262144 -1 -1 1
1;
#X obj 272 28 nbx 5 14 -1e+37 1e+37 0 0 empty empty empty 0 -8 0 10
-262144 -1 -1 185 256;
#X obj 247 75 f;
#X obj 281 75 + 1;
#X obj 247 129 hradio 16 1 0 10 empty empty empty 0 -8 0 10 -262144
-1 -1 6;
#X obj 247 189 f;
#X obj 454 405 mtof;
#X obj 454 441 phasor~;
#X obj 454 475 dac~;
#X obj 578 45 metro;
#X obj 512 24 tgl 15 0 empty empty empty 17 7 0 10 -262144 -1 -1 0
1;
#X obj 538 24 nbx 5 14 -1e+37 1e+37 0 0 empty empty empty 0 -8 0 10
-262144 -1 -1 0 256;
#X obj 512 46 f;
#X obj 546 46 + 1;
#X obj 512 97 hradio 16 1 0 10 empty empty empty 0 -8 0 10 -262144
-1 -1 0;
#X obj 512 156 f;
#X obj 512 69 mod 10;
#X obj 512 123 select 0 1 2 3 4 5 6 7 8 9;
#X obj 277 190 hsl 128 15 0 127 0 0 empty empty empty -2 -8 0 10 -262144
-1 -1 4800 1;
#X obj 542 157 hsl 128 15 0 127 0 0 empty empty empty -2 -8 0 10 -262144
-1 -1 0 1;
#X obj 247 241 metro;
#X obj 297 235 tgl 15 0 empty empty empty 17 7 0 10 -262144 -1 -1 0
1;
#X obj 319 236 nbx 5 14 -1e+37 1e+37 0 0 empty empty empty 0 -8 0 10
-262144 -1 -1 0 256;
#X obj 247 269 f;
#X obj 281 269 + 1;
#X obj 247 323 hradio 16 1 0 10 empty empty empty 0 -8 0 10 -262144
-1 -1 0;
#X obj 247 380 f;
#X obj 512 208 metro;
#X obj 557 202 tgl 15 0 empty empty empty 17 7 0 10 -262144 -1 -1 0
1;
#X obj 579 203 nbx 5 14 -1e+37 1e+37 0 0 empty empty empty 0 -8 0 10
-262144 -1 -1 0 256;
#X obj 512 236 f;
#X obj 546 236 + 1;
#X obj 512 293 hradio 16 1 0 10 empty empty empty 0 -8 0 10 -262144
-1 -1 0;
#X obj 512 359 f;
#X obj 512 265 mod 10;
#X obj 512 322 select 0 1 2 3 4 5 6 7 8 9;
#X obj 247 295 mod 10;
#X obj 247 349 select 0 1 2 3 4 5 6 7 8 9;
#X obj 277 381 hsl 128 15 0 127 0 0 empty empty empty -2 -8 0 10 -262144
-1 -1 0 1;
#X obj 542 360 hsl 128 15 0 127 0 0 empty empty empty -2 -8 0 10 -262144
-1 -1 0 1;
#X text 511 5 2 [TWO];
#X text 247 8 1 [ONE];
#X text 245 214 3 [THREE];
#X text 508 178 4 [FOUR];
#X floatatom 53 75 3 0 0 0 - - -;
#X obj 8 23 notein;
#X obj 8 49 stripnote;
#X floatatom 8 74 3 0 0 0 - - -;
#X text 394 -16 MIDI OUT;
#X text 8 -1 MIDI IN;
#X floatatom 131 74 3 0 0 0 - - -;
#X floatatom 101 73 3 0 0 0 - - -;
#X obj 101 48 ctlin;
#N canvas 32 64 484 446 midi 0;
#X obj 96 65 inlet;
#X obj 96 262 noteout;
#X floatatom 96 92 0 0 0 0 - - -;
#X obj 338 113 loadbang;
#X obj 96 184 metro;
#X obj 96 236 makenote;
#X floatatom 189 166 0 0 0 0 - - -;
#X obj 96 210 f;
#X floatatom 145 166 0 0 0 0 - - -;
#X floatatom 233 166 0 0 0 0 - - -;
#X floatatom 276 166 0 0 0 0 - - -;
#X msg 338 148 500;
#X msg 370 148 60;
#X msg 399 148 64;
#X msg 427 148 250;
#X text 144 145 rate;
#X text 187 145 pitch;
#X text 232 145 vel;
#X text 268 146 length;
#X obj 230 257 ctlout 1;
#X floatatom 230 228 0 0 0 0 - - -;
#X connect 0 0 2 0;
#X connect 2 0 4 0;
#X connect 3 0 11 0;
#X connect 3 0 12 0;
#X connect 3 0 13 0;
#X connect 3 0 14 0;
#X connect 4 0 7 0;
#X connect 5 0 1 0;
#X connect 5 1 1 1;
#X connect 6 0 7 1;
#X connect 7 0 5 0;
#X connect 8 0 4 1;
#X connect 9 0 5 1;
#X connect 10 0 5 2;
#X connect 11 0 8 0;
#X connect 12 0 6 0;
#X connect 13 0 9 0;
#X connect 14 0 10 0;
#X connect 20 0 19 0;
#X restore 394 34 pd midi;
#X obj 394 8 tgl 20 0 empty empty empty 20 8 0 8 -262144 -1 -1 0 1
;
#X obj 8 94 bng 20 250 50 0 empty empty empty 17 7 0 10 -262144 -1
-1;
#X obj 101 95 bng 20 250 50 0 empty empty empty 17 7 0 10 -262144 -1
-1;
#X obj 19 187 ctlout;
#X floatatom 862 107 0 0 0 0 - - -;
#X floatatom 960 107 0 0 0 0 - - -;
#X floatatom 735 108 0 0 0 0 - - -;
#X floatatom 768 108 0 0 0 0 - - -;
#X floatatom 804 110 0 0 0 0 - - -;
#X obj 735 135 ctlout;
#X obj 862 134 ctlout 7;
#X text 736 77 control out;
#X text 858 81 control 7;
#X text 953 82 control 7 \, channel 4;
#X obj 740 48 bng 15 250 50 0 empty empty empty 17 7 0 10 -262144 -1
-1;
#X obj 960 134 ctlout 53 9;
#X obj 961 50 bng 15 250 50 0 empty empty empty 17 7 0 10 -262144 -1
-1;
#X obj 972 19 bng 15 250 50 0 empty empty empty 17 7 0 10 -262144 -1
-1;
#X msg 535 381 0;
#X obj 21 245 noteout;
#X obj 47 268 bng 15 250 50 0 empty empty empty 17 7 0 10 -262144 -1
-1;
#X obj 17 362 noteout;
#X obj 17 342 makenote 64 250;
#X msg 17 323 0;
#X obj 247 101 mod 8;
#X obj 247 154 select 0 1 2 3 4 5 6 7;
#X obj 17 423 noteout;
#X obj 17 403 makenote 64 250;
#X obj 17 486 noteout;
#X obj 17 466 makenote 64 250;
#X obj 18 547 noteout;
#X obj 18 527 makenote 64 250;
#X obj 18 607 noteout;
#X obj 18 587 makenote 64 250;
#X obj 18 670 noteout;
#X obj 18 650 makenote 64 250;
#X obj 18 740 noteout;
#X obj 18 720 makenote 64 250;
#X obj 18 800 noteout;
#X obj 18 780 makenote 64 250;
#X obj 18 860 noteout;
#X obj 18 840 makenote 64 250;
#X msg 18 821 0;
#X msg 17 384 1;
#X msg 17 447 2;
#X msg 18 508 3;
#X msg 18 568 4;
#X msg 18 631 5;
#X msg 18 701 6;
#X msg 18 761 7;
#X connect 0 0 3 0;
#X connect 1 0 0 0;
#X connect 2 0 0 1;
#X connect 3 0 4 0;
#X connect 3 0 79 0;
#X connect 4 0 3 1;
#X connect 5 0 80 0;
#X connect 6 0 7 0;
#X connect 7 0 8 0;
#X connect 8 0 9 0;
#X connect 8 0 9 1;
#X connect 10 0 13 0;
#X connect 11 0 10 0;
#X connect 12 0 10 1;
#X connect 13 0 14 0;
#X connect 13 0 17 0;
#X connect 14 0 13 1;
#X connect 15 0 18 0;
#X connect 16 0 7 0;
#X connect 17 0 15 0;
#X connect 18 0 16 0;
#X connect 19 0 6 1;
#X connect 20 0 16 1;
#X connect 21 0 24 0;
#X connect 22 0 21 0;
#X connect 23 0 21 1;
#X connect 24 0 25 0;
#X connect 24 0 37 0;
#X connect 25 0 24 1;
#X connect 26 0 38 0;
#X connect 27 0 7 0;
#X connect 28 0 31 0;
#X connect 29 0 28 0;
#X connect 30 0 28 1;
#X connect 31 0 32 0;
#X connect 31 0 35 0;
#X connect 32 0 31 1;
#X connect 33 0 36 0;
#X connect 34 0 7 0;
#X connect 35 0 33 0;
#X connect 36 0 34 0;
#X connect 37 0 26 0;
#X connect 38 0 27 0;
#X connect 39 0 27 1;
#X connect 40 0 34 1;
#X connect 46 0 47 0;
#X connect 46 1 47 1;
#X connect 47 0 48 0;
#X connect 47 1 45 0;
#X connect 48 0 56 0;
#X connect 52 0 57 0;
#X connect 53 0 52 0;
#X connect 53 1 51 0;
#X connect 55 0 54 0;
#X connect 59 0 65 0;
#X connect 60 0 70 0;
#X connect 61 0 64 0;
#X connect 62 0 64 1;
#X connect 63 0 64 2;
#X connect 69 0 64 0;
#X connect 71 0 70 0;
#X connect 73 0 8 0;
#X connect 77 0 76 0;
#X connect 77 1 76 1;
#X connect 78 0 77 0;
#X connect 79 0 5 0;
#X connect 80 0 78 0;
#X connect 80 1 98 0;
#X connect 80 2 99 0;
#X connect 80 3 100 0;
#X connect 80 4 101 0;
#X connect 80 5 102 0;
#X connect 80 6 103 0;
#X connect 80 7 104 0;
#X connect 82 0 81 0;
#X connect 82 1 81 1;
#X connect 84 0 83 0;
#X connect 84 1 83 1;
#X connect 86 0 85 0;
#X connect 86 1 85 1;
#X connect 88 0 87 0;
#X connect 88 1 87 1;
#X connect 90 0 89 0;
#X connect 90 1 89 1;
#X connect 92 0 91 0;
#X connect 92 1 91 1;
#X connect 94 0 93 0;
#X connect 94 1 93 1;
#X connect 96 0 95 0;
#X connect 96 1 95 1;
#X connect 97 0 96 0;
#X connect 98 0 82 0;
#X connect 99 0 84 0;
#X connect 100 0 86 0;
#X connect 101 0 88 0;
#X connect 102 0 90 0;
#X connect 103 0 92 0;
#X connect 104 0 94 0;
