#N canvas 374 104 791 477 10;
#X obj 101 46 tgl 15 0 empty empty empty 17 7 0 10 -262144 -1 -1 0
1;
#X obj 101 71 metro 500;
#X obj 101 98 random 127;
#X obj 124 133 nbx 5 14 -1e+37 1e+37 0 0 empty empty empty 0 -8 0 10
-262144 -1 -1 70 256;
#X obj 307 46 t b f b;
#X obj 264 90 until;
#X msg 264 116 next;
#X obj 263 144 pointer struct1;
#X obj 262 173 t b p;
#X obj 249 278 pointer;
#X obj 293 318 t p p;
#X obj 234 351 get struct1 h;
#X obj 236 390 + 1;
#X obj 240 422 set struct1 h;
#X obj 412 207 f;
#X obj 449 207 + 1;
#X msg 427 174 0;
#X msg 306 118 traverse pd-list;
#X obj 305 15 r n;
#X msg 552 67 2;
#X obj 558 99 s n;
#X obj 310 220 select;
#X obj 344 252 bng 15 250 50 0 empty empty empty 17 7 0 10 -262144
-1 -1;
#X obj 315 257 bng 15 250 50 0 empty empty empty 17 7 0 10 -262144
-1 -1;
#X obj 196 279 bng 15 250 50 0 empty empty empty 0 -6 0 8 -262144 -1
-1;
#X text 191 257 clear;
#X obj 152 323 t l;
#X obj 35 317 list prepend;
#X obj 103 362 print list:;
#X obj 528 182 struct pd-list float x float y;
#X msg 426 32 traverse pd-help-pointer-data;
#X obj 161 175 print pntr:;
#X obj 617 411 pointer;
#X msg 638 385 next;
#X obj 568 448 print zomg;
#X obj 496 382 list;
#X obj 648 82 bng 15 250 50 0 empty empty empty 17 7 0 10 -262144 -1
-1;
#X obj 607 131 list;
#X msg 629 355 traverse template1;
#X connect 0 0 1 0;
#X connect 1 0 2 0;
#X connect 2 0 3 0;
#X connect 2 0 27 0;
#X connect 4 0 5 0;
#X connect 4 1 21 1;
#X connect 4 2 16 0;
#X connect 4 2 17 0;
#X connect 5 0 6 0;
#X connect 6 0 7 0;
#X connect 7 0 8 0;
#X connect 7 0 31 0;
#X connect 7 2 5 1;
#X connect 8 0 14 0;
#X connect 8 1 9 1;
#X connect 9 0 10 0;
#X connect 10 0 11 0;
#X connect 10 1 13 1;
#X connect 11 0 12 0;
#X connect 12 0 13 0;
#X connect 14 0 15 0;
#X connect 14 0 21 0;
#X connect 15 0 14 1;
#X connect 16 0 14 1;
#X connect 17 0 7 0;
#X connect 18 0 4 0;
#X connect 19 0 20 0;
#X connect 21 0 9 0;
#X connect 21 0 23 0;
#X connect 24 0 27 1;
#X connect 26 0 27 1;
#X connect 27 0 26 0;
#X connect 27 0 28 0;
#X connect 30 0 7 0;
#X connect 32 0 34 0;
#X connect 33 0 32 0;
#X connect 36 0 37 0;
#X connect 38 0 32 0;
