#N canvas 207 23 1073 695 10;
#X text 94 -201 sliderz;
#X text 619 -193 triggerz;
#N canvas 0 22 450 300 (subpatch) 0;
#X array lemp_syn 100 float 3;
#A 0 0.722538 0.719679 0.716801 0.713916 0.711028 0.708116 0.705204
0.70228 0.699343 0.696405 0.693446 0.690483 0.687515 0.684527 0.681539
0.678536 0.675524 0.672511 0.669476 0.666439 0.663395 0.660334 0.657274
0.654197 0.651114 0.648029 0.644922 0.641816 0.6387 0.635571 0.632442
0.629297 0.626146 0.622992 0.61982 0.616648 0.613466 0.610273 0.60708
0.603869 0.600656 0.597438 0.594205 0.590971 0.587727 0.584474 0.581221
0.57795 0.574679 0.571401 0.568111 0.564821 0.561518 0.55821 0.554901
0.551576 0.54825 0.544918 0.541575 0.538233 0.534877 0.531519 0.528157
0.524782 0.521408 0.518025 0.514635 0.511245 0.507841 0.504436 0.501027
0.497607 0.494188 0.49076 0.487326 0.483893 0.480446 0.477 0.473548
0.470088 0.466629 0.46316 0.459688 0.456215 0.452731 0.449248 0.445759
0.442264 0.438769 0.435265 0.431759 0.428251 0.424735 0.421219 0.417698
0.414172 0.410646 0.407112 0.403577 0.40004;
#X coords 0 1 100 -1 200 140 1 0 0;
#X restore 474 626 graph;
#X obj 473 436 mtof;
#X obj 593 436 mtof;
#X obj 594 536 metro 100;
#X obj 594 511 tgl 15 0 empty empty empty 17 7 0 10 -262144 -1 -1 1
1;
#X obj 473 471 osc~;
#X obj 593 471 phasor~;
#X obj 627 -172 tgl 15 0 empty empty empty 17 7 0 10 -262144 -1 -1
1 1;
#X obj -228 -174 nbx 5 14 -1e+37 1e+37 0 0 empty empty empty 0 -8 0
10 -262144 -1 -1 155 256;
#X msg 541 454 0;
#X obj 541 369 bng 15 250 50 0 empty empty empty 17 7 0 10 -262144
-1 -1;
#X obj 534 192 tgl 15 0 empty empty empty 17 7 0 10 -262144 -1 -1 0
1;
#X obj -227 -150 nbx 5 14 -1e+37 1e+37 0 0 empty empty empty 0 -8 0
10 -262144 -1 -1 62 256;
#X obj 473 530 -~ 0.25;
#X obj 263 681 dac~;
#X obj 610 494 loadbang;
#X obj 103 64 hsl 128 15 0 1000 0 0 empty empty empty -2 -8 0 10 -262144
-1 -1 8900 1;
#X obj 102 -144 hsl 128 15 0 256 0 0 empty empty empty -2 -8 0 10 -262144
-1 -1 1786 1;
#X obj 591 330 r \$0-twobang;
#X obj 17 196 metro 120;
#X obj 539 259 metro 160;
#X obj 104 93 hsl 128 15 0 10000 0 0 empty empty empty -2 -8 0 10 -262144
-1 -1 5800 1;
#X obj 519 432 pipe 10;
#X obj 657 362 spigot;
#X obj 627 -118 tgl 15 0 empty empty empty 17 7 0 10 -262144 -1 -1
0 1;
#X obj 411 191 phasor~;
#X obj 487 197 mtof;
#X obj 100 -172 hsl 128 15 0 256 0 0 empty empty empty -2 -8 0 10 -262144
-1 -1 3721 1;
#X obj 448 252 *~;
#X obj 408 159 spigot;
#X obj 628 -145 tgl 15 0 empty empty empty 17 7 0 10 -262144 -1 -1
0 1;
#X obj 487 565 -~ 0.5;
#X obj 594 561 tabwrite~ lemp_syn;
#X obj 473 503 expr~ $v1 < $v2;
#X text -233 -201 rotary knobz;
#X text 649 -175 main metro;
#X text -168 -177 metro speed;
#X text 649 -148 osc1 gate;
#X text 239 -145 osc2 pitch;
#X text 239 -172 osc1 pitch;
#X text 556 192 metro2;
#X text -158 -152 metro2 speed;
#X text 244 63 delay;
#X text 247 92 pipe;
#X text 649 -121 osc2 gate;
#X text 233 -49 mod length;
#X text 761 -194 pitchz;
#X obj 660 1002 hradio 16 1 0 16 empty empty empty 0 -8 0 10 -262144
-1 -1 0;
#X obj 758 -14 vsl 15 128 0 127 0 0 empty empty empty 0 -9 0 10 -262144
-1 -1 2400 1;
#X obj 660 1250 f;
#X obj 676 1275 f;
#X obj 708 1331 f;
#X obj 739 1383 f;
#X obj 771 1431 f;
#X obj 970 1073 delay 1000;
#X obj 692 1305 f;
#X obj 724 1356 f;
#X obj 756 1404 f;
#X obj 942 1050 s \$0-twobang;
#X obj 773 -14 vsl 15 128 0 127 0 0 empty empty empty 0 -9 0 10 -262144
-1 -1 2400 1;
#X obj 788 -14 vsl 15 128 0 127 0 0 empty empty empty 0 -9 0 10 -262144
-1 -1 2400 1;
#X obj 803 -14 vsl 15 128 0 127 0 0 empty empty empty 0 -9 0 10 -262144
-1 -1 4800 1;
#X floatatom 747 935 5 0 0 0 - - -;
#X floatatom 755 952 5 0 0 0 - - -;
#X floatatom 762 972 5 0 0 0 - - -;
#X msg 629 -7 up;
#X msg 629 35 down;
#X msg 629 14 updown;
#X obj 660 976 counter;
#X text 800 970 set max;
#X text 795 949 set counter value;
#X obj 690 954 loadbang;
#X text 787 932 set min;
#X msg 730 973 7;
#X msg 713 937 0;
#X msg 761 809 0;
#X msg 761 822 1;
#X msg 761 838 2;
#X msg 761 853 3;
#X obj 756 1195 t b b b b;
#X obj 774 1217 t b b b b;
#X obj 780 1245 t b b b b;
#X obj 796 1270 t b b b b;
#X obj 812 1293 t b b b b;
#X obj 828 1317 t b b b b;
#X obj 844 1341 t b b b b;
#X obj 860 1365 t b b b b;
#X obj 892 1394 t b b b b;
#X obj 907 1421 t b b b b;
#X obj 660 1028 select 0 1 2 3 4 5 6 7 8 9 10 11 12 13 14 15;
#X msg 761 913 15;
#X msg 762 897 13;
#X msg 761 882 11;
#X msg 761 868 9;
#X obj 676 1080 t b b b b;
#X obj 692 1103 t b b b b;
#X obj 708 1127 t b b b b;
#X obj 724 1151 t b b b b;
#X obj 740 1175 t b b b b;
#X obj 780 1460 f;
#X obj 796 1485 f;
#X obj 828 1541 f;
#X obj 859 1593 f;
#X obj 891 1641 f;
#X obj 812 1515 f;
#X obj 844 1566 f;
#X obj 876 1614 f;
#X obj 818 -14 vsl 15 128 0 127 0 0 empty empty empty 0 -9 0 10 -262144
-1 -1 4800 1;
#X obj 833 -14 vsl 15 128 0 127 0 0 empty empty empty 0 -9 0 10 -262144
-1 -1 4800 1;
#X obj 848 -14 vsl 15 128 0 127 0 0 empty empty empty 0 -9 0 10 -262144
-1 -1 4800 1;
#X obj 863 -14 vsl 15 128 0 127 0 0 empty empty empty 0 -9 0 10 -262144
-1 -1 7800 1;
#X obj 878 -14 vsl 15 128 0 127 0 0 empty empty empty 0 -9 0 10 -262144
-1 -1 2400 1;
#X obj 893 -14 vsl 15 128 0 127 0 0 empty empty empty 0 -9 0 10 -262144
-1 -1 2400 1;
#X obj 908 -14 vsl 15 128 0 127 0 0 empty empty empty 0 -9 0 10 -262144
-1 -1 4800 1;
#X obj 922 -14 vsl 15 128 0 127 0 0 empty empty empty 0 -9 0 10 -262144
-1 -1 5600 1;
#X obj 937 -14 vsl 15 128 0 127 0 0 empty empty empty 0 -9 0 10 -262144
-1 -1 2400 1;
#X obj 952 -14 vsl 15 128 0 127 0 0 empty empty empty 0 -9 0 10 -262144
-1 -1 2400 1;
#X obj 967 -14 vsl 15 128 0 127 0 0 empty empty empty 0 -9 0 10 -262144
-1 -1 2400 1;
#X obj 660 1055 t b b b b;
#X obj 98 -46 hsl 128 15 0 127 0 0 empty empty empty -2 -8 0 10 -262144
-1 -1 12400 1;
#X obj 1164 1154 moog~;
#X floatatom 1204 1107 5 0 0 0 - - -;
#X floatatom 1161 1048 5 0 0 0 - - -;
#X msg 1160 1107 reset;
#X obj 1094 1049 +~ 1;
#X floatatom 1094 1007 5 0 0 0 - - -;
#X floatatom 1158 1072 5 0 0 0 - - -;
#X obj 1094 1090 +~ 100;
#X obj 1094 1028 osc~ 0.25;
#X obj 1094 1069 *~ 2000;
#X obj 1204 1126 sig~ 3;
#X text 1250 1107 Q (1-4);
#X text 1039 990 resonance freq modulation;
#X obj 1204 1071 autoscale 1 4;
#X obj 1094 960 mtof;
#X text 248 -95 Q;
#X text 241 -116 FREQ;
#X floatatom 1099 268 3 0 0 0 - - -;
#X obj 1054 242 stripnote;
#X floatatom 1054 267 3 0 0 0 - - -;
#X text 1054 192 MIDI IN;
#X floatatom 1177 267 3 0 0 0 - - -;
#X floatatom 1147 266 3 0 0 0 - - -;
#X obj 1054 287 bng 20 250 50 0 empty empty empty 17 7 0 10 -262144
-1 -1;
#X obj 1147 288 bng 20 250 50 0 empty empty empty 17 7 0 10 -262144
-1 -1;
#X obj 657 1430 s \$0-main-pitch;
#X obj 473 406 r \$0-main-pitch;
#X msg 628 -46 0;
#X text 664 -45 all off;
#X obj 19 -47 ctlin 57 9;
#X obj 459 1059 nbx 5 14 -1e+37 1e+37 0 0 empty empty empty 0 -8 0
10 -262144 -1 -1 0 256;
#X obj 412 1092 ctlout 5;
#X obj 442 1029 autoscale 0 127;
#X text 690 6 DIR;
#X obj 96 -14 autoscale 0 15;
#X obj -290 94 nbx 5 14 0 1e+37 0 0 empty empty empty 0 -8 0 10 -262144
-1 -1 225 256;
#X msg -381 -38 bang;
#X msg -266 -37 bang;
#X obj -344 51 t b f;
#X obj -360 -70 nbx 5 14 -1e+37 1e+37 0 0 empty empty empty 0 -8 0
10 -262144 -1 -1 1 256;
#X obj -360 -55 bng 15 250 50 0 empty empty empty 17 7 0 10 -262144
-1 -1;
#X obj -340 -55 bng 15 250 50 0 empty empty empty 17 7 0 10 -262144
-1 -1;
#X obj -321 -55 bng 15 250 50 0 empty empty empty 17 7 0 10 -262144
-1 -1;
#X obj -360 -96 select 127 1;
#X obj -520 94 nbx 5 14 0 1e+37 0 0 empty empty empty 0 -8 0 10 -262144
-1 -1 155 256;
#X msg -611 -38 bang;
#X msg -496 -37 bang;
#X obj -574 51 t b f;
#X obj -590 -70 nbx 5 14 -1e+37 1e+37 0 0 empty empty empty 0 -8 0
10 -262144 -1 -1 1 256;
#X obj -590 -55 bng 15 250 50 0 empty empty empty 17 7 0 10 -262144
-1 -1;
#X obj -570 -55 bng 15 250 50 0 empty empty empty 17 7 0 10 -262144
-1 -1;
#X obj -551 -55 bng 15 250 50 0 empty empty empty 17 7 0 10 -262144
-1 -1;
#X obj -590 -96 select 127 1;
#X obj -496 -11 v octo_counter1;
#X obj -611 -10 v octo_counter1;
#X obj -561 73 v octo_counter1;
#X obj -584 -125 ctlin 18;
#X obj -354 -125 ctlin 10;
#X obj -381 -10 v octo_counter2;
#X obj -266 -11 v octo_counter2;
#X obj -331 73 v octo_counter2;
#X obj 982 -14 vsl 15 128 0 127 0 0 empty empty empty 0 -9 0 10 -262144
-1 -1 2400 1;
#X obj 24 -173 ctlin 53 9;
#X obj 28 -146 ctlin 49 9;
#X obj 27 -122 ctlin 45 9;
#X obj 27 -96 ctlin 41 9;
#X obj -21 62 autoscale 0 1000;
#X obj -21 87 autoscale 0 10000;
#X obj 380 -181 notein 9;
#X obj 380 -154 stripnote;
#X obj 380 -126 select 36 37 38 39 40 41 42 43;
#X obj 308 -157 ctlout 11;
#X obj 308 -129 ctlout 10;
#X obj 626 -84 tgl 15 0 empty empty empty 17 7 0 10 -262144 -1 -1 0
1;
#X obj 350 526 spigot~;
#X text 649 -85 filter;
#X obj 102 -116 hsl 128 15 0 127 0 0 empty empty empty -2 -8 0 10 -262144
-1 -1 0 1;
#X obj 103 -91 hsl 128 15 0 127 0 0 empty empty empty -2 -8 0 10 -262144
-1 -1 0 1;
#X text -77 -153 (no ctl in);
#X text -254 127 out to delay;
#X obj -408 364 nbx 5 14 0 1e+37 0 0 empty empty empty 0 -8 0 10 -262144
-1 -1 162 256;
#X msg -499 232 bang;
#X msg -384 233 bang;
#X obj -462 321 t b f;
#X obj -478 200 nbx 5 14 -1e+37 1e+37 0 0 empty empty empty 0 -8 0
10 -262144 -1 -1 1 256;
#X obj -478 215 bng 15 250 50 0 empty empty empty 17 7 0 10 -262144
-1 -1;
#X obj -458 215 bng 15 250 50 0 empty empty empty 17 7 0 10 -262144
-1 -1;
#X obj -439 215 bng 15 250 50 0 empty empty empty 17 7 0 10 -262144
-1 -1;
#X obj -478 174 select 127 1;
#X obj -499 286 - 10;
#X obj -384 283 + 10;
#X obj -472 145 ctlin 20;
#X obj -384 259 v octo_counter3;
#X obj -499 260 v octo_counter3;
#X obj -450 343 v octo_counter3;
#X text -265 355 out to pipe;
#X text 623 377 not really used...;
#X obj 255 1994 bng 15 250 50 0 empty empty empty 17 7 0 10 -262144
-1 -1;
#X obj 532 1870 tgl 15 0 empty empty empty 17 7 0 10 -262144 -1 -1
0 127;
#X obj 617 1875 tgl 15 0 empty empty empty 17 7 0 10 -262144 -1 -1
0 127;
#X obj 533 1775 midiparse;
#X obj 533 1748 midiin 9;
#X obj 533 1818 route 0 1 2 3 4 5 6 7 8 9 10 11 12 13;
#X obj -611 16 - 5;
#X obj -496 13 + 5;
#X obj -381 16 - 5;
#X obj -266 13 + 5;
#X obj -343 740 nbx 5 14 0 1e+37 0 0 empty empty empty 0 -8 0 10 -262144
-1 -1 1.31 256;
#X msg -540 534 bang;
#X msg -425 535 bang;
#X obj -503 623 t b f;
#X obj -519 502 nbx 5 14 -1e+37 1e+37 0 0 empty empty empty 0 -8 0
10 -262144 -1 -1 63 256;
#X obj -519 517 bng 15 250 50 0 empty empty empty 17 7 0 10 -262144
-1 -1;
#X obj -499 517 bng 15 250 50 0 empty empty empty 17 7 0 10 -262144
-1 -1;
#X obj -480 517 bng 15 250 50 0 empty empty empty 17 7 0 10 -262144
-1 -1;
#X obj -519 476 select 127 1;
#X obj -425 561 v octo_counter3;
#X obj -540 562 v octo_counter3;
#X obj -491 645 v octo_counter3;
#X obj -513 447 ctlin 12;
#X obj 278 623 *~;
#X obj 71 548 vsl 50 50 0 1 0 0 empty empty MSTR_VOL 0 -9 0 10 -262144
-1 -1 2900 1;
#X obj -540 588 - 1;
#X obj -425 585 + 1;
#X obj -346 699 / 100;
#X floatatom 1099 358 3 0 0 0 - - -;
#X floatatom 1054 357 3 0 0 0 - - -;
#X obj 1054 377 bng 20 250 50 0 empty empty empty 17 7 0 10 -262144
-1 -1;
#X floatatom 1129 358 3 0 0 0 - - -;
#X obj 1054 326 notein 9;
#X obj 1054 216 notein 9;
#X obj 1147 241 ctlin 9;
#X obj 1198 203 ctlin;
#X obj 1216 228 nbx 5 14 -1e+37 1e+37 0 0 empty empty empty 0 -8 0
10 -262144 -1 -1 49 256;
#X obj 1106 586 notein 9;
#X obj 1106 616 * 2;
#X obj 1058 667 send;
#X msg 1116 661 symbol seq\$1;
#X obj 1174 591 loadbang;
#X msg 1154 624 1;
#X obj 949 373 ctlin;
#X msg 1209 499 16;
#X msg 1177 499 15;
#X msg 1146 499 14;
#X msg 1111 499 13;
#X msg 1079 499 12;
#X msg 1047 499 11;
#X msg 1016 499 10;
#X msg 981 499 9;
#X msg 1209 529 8;
#X msg 1177 529 7;
#X msg 1146 529 6;
#X msg 1111 529 5;
#X msg 1079 529 4;
#X msg 1047 529 3;
#X msg 1016 529 2;
#X msg 981 529 1;
#X obj 932 417 select 37 33 29 25 38 34 30 26 39 35 31 27 40 36 32
28;
#X obj 1008 581 f;
#X obj 958 -184 r seq1;
#X obj 968 -164 r seq2;
#X obj 978 -144 r seq3;
#X obj 990 -124 r seq4;
#X obj 998 -104 r seq5;
#X obj 1008 -84 r seq6;
#X obj 1019 -64 r seq7;
#X obj 1028 -44 r seq8;
#X obj 1030 -186 r seq9;
#X obj 1040 -166 r seq10;
#X obj 1050 -146 r seq11;
#X obj 1062 -126 r seq12;
#X obj 1070 -106 r seq13;
#X obj 1080 -86 r seq14;
#X obj 1091 -66 r seq15;
#X obj 1100 -46 r seq16;
#X obj 1078 21 ctlin 37 9;
#X obj 1088 38 ctlin 38 9;
#X obj 1098 55 ctlin 39 9;
#X obj 1108 72 ctlin 40 9;
#X obj 1078 119 ctlin 33 9;
#X obj 1088 136 ctlin 34 9;
#X obj 1098 153 ctlin 35 9;
#X obj 1108 170 ctlin 36 9;
#X obj 1178 21 ctlin 29 9;
#X obj 1188 38 ctlin 30 9;
#X obj 1198 55 ctlin 31 9;
#X obj 1208 72 ctlin 32 9;
#X obj 1178 119 ctlin 25 9;
#X obj 1188 136 ctlin 26 9;
#X obj 1198 153 ctlin 27 9;
#X obj 1208 170 ctlin 28 9;
#X text 1077 1 col 1;
#X text 1077 103 col 2;
#X text 1177 3 col 3;
#X text 1176 102 col 4;
#X connect 3 0 7 0;
#X connect 4 0 8 0;
#X connect 5 0 34 0;
#X connect 6 0 5 0;
#X connect 7 0 30 1;
#X connect 7 0 35 0;
#X connect 8 0 35 1;
#X connect 9 0 21 0;
#X connect 10 0 21 1;
#X connect 11 0 7 0;
#X connect 11 0 8 0;
#X connect 12 0 11 0;
#X connect 13 0 22 0;
#X connect 14 0 22 1;
#X connect 15 0 33 0;
#X connect 15 0 196 0;
#X connect 17 0 6 0;
#X connect 19 0 4 0;
#X connect 19 0 194 0;
#X connect 20 0 19 0;
#X connect 21 0 70 0;
#X connect 22 0 12 0;
#X connect 24 0 25 0;
#X connect 24 0 31 0;
#X connect 25 0 19 0;
#X connect 26 0 25 1;
#X connect 27 0 30 0;
#X connect 28 0 27 0;
#X connect 29 0 28 0;
#X connect 29 0 193 0;
#X connect 30 0 15 0;
#X connect 31 0 29 0;
#X connect 32 0 31 1;
#X connect 33 0 34 0;
#X connect 35 0 15 0;
#X connect 49 0 91 0;
#X connect 49 0 154 0;
#X connect 50 0 51 1;
#X connect 51 0 147 0;
#X connect 52 0 147 0;
#X connect 53 0 147 0;
#X connect 54 0 147 0;
#X connect 55 0 147 0;
#X connect 56 0 149 0;
#X connect 57 0 147 0;
#X connect 58 0 147 0;
#X connect 59 0 147 0;
#X connect 61 0 52 1;
#X connect 62 0 57 1;
#X connect 63 0 53 1;
#X connect 64 0 70 2;
#X connect 65 0 70 3;
#X connect 66 0 70 4;
#X connect 67 0 70 0;
#X connect 68 0 70 0;
#X connect 69 0 70 0;
#X connect 70 0 49 0;
#X connect 73 0 75 0;
#X connect 73 0 76 0;
#X connect 75 0 66 0;
#X connect 76 0 64 0;
#X connect 76 0 65 0;
#X connect 77 0 66 0;
#X connect 78 0 66 0;
#X connect 79 0 66 0;
#X connect 80 0 66 0;
#X connect 81 0 59 0;
#X connect 81 1 60 0;
#X connect 82 0 55 0;
#X connect 82 1 60 0;
#X connect 82 2 56 0;
#X connect 83 0 101 0;
#X connect 83 1 60 0;
#X connect 83 2 56 0;
#X connect 84 0 102 0;
#X connect 84 1 60 0;
#X connect 84 2 56 0;
#X connect 85 0 106 0;
#X connect 85 1 60 0;
#X connect 85 2 56 0;
#X connect 86 0 103 0;
#X connect 86 1 60 0;
#X connect 86 2 56 0;
#X connect 87 0 107 0;
#X connect 87 1 60 0;
#X connect 87 2 56 0;
#X connect 88 0 104 0;
#X connect 88 1 60 0;
#X connect 88 2 56 0;
#X connect 89 0 108 0;
#X connect 89 1 60 0;
#X connect 89 2 56 0;
#X connect 90 0 105 0;
#X connect 90 1 60 0;
#X connect 90 2 56 0;
#X connect 91 0 120 0;
#X connect 91 1 96 0;
#X connect 91 2 97 0;
#X connect 91 3 98 0;
#X connect 91 4 99 0;
#X connect 91 5 100 0;
#X connect 91 6 81 0;
#X connect 91 7 82 0;
#X connect 91 8 83 0;
#X connect 91 9 84 0;
#X connect 91 10 85 0;
#X connect 91 11 86 0;
#X connect 91 12 87 0;
#X connect 91 13 88 0;
#X connect 91 14 89 0;
#X connect 91 15 90 0;
#X connect 92 0 66 0;
#X connect 93 0 66 0;
#X connect 94 0 66 0;
#X connect 95 0 66 0;
#X connect 96 0 52 0;
#X connect 96 1 60 0;
#X connect 96 2 56 0;
#X connect 97 0 57 0;
#X connect 97 1 60 0;
#X connect 98 0 53 0;
#X connect 98 1 60 0;
#X connect 98 2 56 0;
#X connect 99 0 58 0;
#X connect 99 1 60 0;
#X connect 100 0 54 0;
#X connect 100 1 60 0;
#X connect 100 2 56 0;
#X connect 101 0 147 0;
#X connect 102 0 147 0;
#X connect 103 0 147 0;
#X connect 104 0 147 0;
#X connect 105 0 147 0;
#X connect 106 0 147 0;
#X connect 107 0 147 0;
#X connect 108 0 147 0;
#X connect 109 0 58 1;
#X connect 110 0 54 1;
#X connect 111 0 59 1;
#X connect 112 0 55 1;
#X connect 113 0 101 1;
#X connect 114 0 102 1;
#X connect 115 0 106 1;
#X connect 116 0 103 1;
#X connect 117 0 107 1;
#X connect 118 0 104 1;
#X connect 119 0 108 1;
#X connect 120 0 51 0;
#X connect 120 1 60 0;
#X connect 120 2 56 0;
#X connect 121 0 156 0;
#X connect 122 0 242 0;
#X connect 123 0 132 0;
#X connect 124 0 131 1;
#X connect 125 0 122 0;
#X connect 126 0 131 0;
#X connect 127 0 130 0;
#X connect 128 0 129 1;
#X connect 129 0 122 1;
#X connect 130 0 126 0;
#X connect 131 0 129 0;
#X connect 132 0 122 2;
#X connect 135 0 123 0;
#X connect 136 0 127 0;
#X connect 140 0 141 0;
#X connect 140 1 139 0;
#X connect 141 0 145 0;
#X connect 144 0 146 0;
#X connect 148 0 3 0;
#X connect 148 0 24 0;
#X connect 149 0 8 0;
#X connect 149 0 27 0;
#X connect 149 0 7 0;
#X connect 151 0 121 0;
#X connect 154 0 152 0;
#X connect 154 0 153 0;
#X connect 156 0 66 0;
#X connect 158 0 180 0;
#X connect 159 0 181 0;
#X connect 160 0 182 0;
#X connect 160 1 182 0;
#X connect 165 0 162 0;
#X connect 165 0 158 0;
#X connect 165 1 163 0;
#X connect 165 1 159 0;
#X connect 165 2 164 0;
#X connect 167 0 176 0;
#X connect 168 0 175 0;
#X connect 169 0 177 0;
#X connect 169 1 177 0;
#X connect 174 0 171 0;
#X connect 174 0 167 0;
#X connect 174 1 172 0;
#X connect 174 1 168 0;
#X connect 174 2 173 0;
#X connect 175 0 226 0;
#X connect 176 0 225 0;
#X connect 177 0 166 0;
#X connect 177 0 10 0;
#X connect 178 0 170 0;
#X connect 178 0 174 0;
#X connect 179 0 161 0;
#X connect 179 0 165 0;
#X connect 180 0 227 0;
#X connect 181 0 228 0;
#X connect 182 0 157 0;
#X connect 182 0 56 1;
#X connect 183 0 105 1;
#X connect 184 0 29 0;
#X connect 185 0 19 0;
#X connect 186 0 198 0;
#X connect 187 0 199 0;
#X connect 188 0 18 0;
#X connect 189 0 23 0;
#X connect 190 0 191 0;
#X connect 190 1 191 1;
#X connect 191 0 192 0;
#X connect 192 0 9 0;
#X connect 192 1 32 0;
#X connect 192 2 26 0;
#X connect 192 3 195 0;
#X connect 192 4 149 0;
#X connect 192 5 67 0;
#X connect 192 6 69 0;
#X connect 192 7 68 0;
#X connect 195 0 196 1;
#X connect 196 0 242 0;
#X connect 196 1 122 0;
#X connect 198 0 136 0;
#X connect 199 0 135 0;
#X connect 203 0 215 0;
#X connect 204 0 214 0;
#X connect 205 0 216 0;
#X connect 205 1 216 0;
#X connect 210 0 207 0;
#X connect 210 0 203 0;
#X connect 210 1 208 0;
#X connect 210 1 204 0;
#X connect 210 2 209 0;
#X connect 211 0 205 0;
#X connect 212 0 205 0;
#X connect 213 0 206 0;
#X connect 213 0 210 0;
#X connect 214 0 212 0;
#X connect 215 0 211 0;
#X connect 216 0 202 0;
#X connect 216 0 24 1;
#X connect 224 0 220 0;
#X connect 224 4 221 0;
#X connect 225 0 169 0;
#X connect 226 0 169 0;
#X connect 227 0 160 0;
#X connect 228 0 160 0;
#X connect 230 0 239 0;
#X connect 231 0 238 0;
#X connect 232 0 240 0;
#X connect 232 1 240 0;
#X connect 237 0 234 0;
#X connect 237 0 230 0;
#X connect 237 1 235 0;
#X connect 237 1 231 0;
#X connect 237 2 236 0;
#X connect 238 0 245 0;
#X connect 239 0 244 0;
#X connect 240 0 246 0;
#X connect 241 0 233 0;
#X connect 241 0 237 0;
#X connect 242 0 16 0;
#X connect 242 0 16 1;
#X connect 243 0 242 1;
#X connect 244 0 232 0;
#X connect 245 0 232 0;
#X connect 246 0 229 0;
#X connect 248 0 249 0;
#X connect 251 0 248 0;
#X connect 251 1 247 0;
#X connect 252 0 140 0;
#X connect 252 1 140 1;
#X connect 253 0 144 0;
#X connect 253 1 143 0;
#X connect 254 1 255 0;
#X connect 256 0 257 0;
#X connect 257 0 258 0;
#X connect 259 0 258 1;
#X connect 260 0 261 0;
#X connect 261 0 259 0;
#X connect 262 1 279 0;
#X connect 263 0 280 0;
#X connect 264 0 280 0;
#X connect 265 0 280 0;
#X connect 266 0 280 0;
#X connect 267 0 280 0;
#X connect 268 0 280 0;
#X connect 269 0 280 0;
#X connect 270 0 280 0;
#X connect 271 0 280 0;
#X connect 272 0 280 0;
#X connect 273 0 280 0;
#X connect 274 0 280 0;
#X connect 275 0 280 0;
#X connect 276 0 280 0;
#X connect 277 0 280 0;
#X connect 278 0 280 0;
#X connect 279 0 278 0;
#X connect 279 1 277 0;
#X connect 279 2 276 0;
#X connect 279 3 275 0;
#X connect 279 4 274 0;
#X connect 279 5 273 0;
#X connect 279 6 272 0;
#X connect 279 7 271 0;
#X connect 279 8 270 0;
#X connect 279 9 269 0;
#X connect 279 10 268 0;
#X connect 279 11 267 0;
#X connect 279 12 266 0;
#X connect 279 13 265 0;
#X connect 279 14 264 0;
#X connect 279 15 263 0;
#X connect 280 0 259 0;
#X connect 281 0 50 0;
#X connect 282 0 61 0;
#X connect 283 0 62 0;
#X connect 284 0 63 0;
#X connect 285 0 109 0;
#X connect 286 0 110 0;
#X connect 287 0 111 0;
#X connect 288 0 112 0;
#X connect 289 0 113 0;
#X connect 290 0 114 0;
#X connect 291 0 115 0;
#X connect 292 0 116 0;
#X connect 293 0 117 0;
#X connect 294 0 118 0;
#X connect 295 0 119 0;
#X connect 296 0 183 0;
