#N canvas -33 23 1280 739 10;
#X declare -lib mrpeach;
#N canvas 362 23 838 600 QSS_8.pd 0;
#X obj -59 470 outlet;
#X msg -37 386 0;
#X obj 60 405 makenote 64 250;
#X obj 157 405 makenote 64 250;
#X obj 254 405 makenote 64 250;
#X msg 60 386 2;
#X msg 157 386 4;
#X msg 254 386 6;
#X obj -37 425 noteout 2;
#X obj 60 425 noteout 2;
#X obj 157 425 noteout 2;
#X obj 254 425 noteout 2;
#X obj 351 405 makenote 64 250;
#X obj 351 429 noteout 2;
#X obj 448 405 makenote 64 250;
#X obj 448 428 noteout 2;
#X obj 545 405 makenote 64 250;
#X obj 545 429 noteout 2;
#X msg 351 386 8;
#X msg 448 386 10;
#X msg 545 386 12;
#X obj 642 404 makenote 64 250;
#X obj 642 428 noteout 2;
#X msg 642 385 14;
#X obj -40 332 makenote 64 250;
#X obj 57 333 makenote 64 250;
#X obj 154 333 makenote 64 250;
#X obj 251 333 makenote 64 250;
#X obj -40 352 noteout 2;
#X obj 57 353 noteout 2;
#X obj 154 353 noteout 2;
#X obj 251 353 noteout 2;
#X obj 348 332 makenote 64 250;
#X obj 348 356 noteout 2;
#X obj 445 331 makenote 64 250;
#X obj 445 354 noteout 2;
#X obj 542 331 makenote 64 250;
#X obj 542 355 noteout 2;
#X obj 639 331 makenote 64 250;
#X obj 639 355 noteout 2;
#X msg -40 313 16;
#X msg 57 314 18;
#X msg 154 314 20;
#X msg 251 314 22;
#X msg 348 313 24;
#X msg 445 312 26;
#X msg 542 312 28;
#X msg 639 311 30;
#X obj -38 242 select 0 1 2 3 4 5 6 7 8 9 10 11 12 13 14 15;
#X text -38 -99 8 [EIGHT];
#X obj 142 142 tgl 15 0 empty sqr_stp_q_alloff empty 17 7 0 10 -262144
-1 -1 0 86;
#X obj 158 142 tgl 15 0 empty sqr_stp_q_alloff empty 17 7 0 10 -262144
-1 -1 0 51;
#X obj 174 142 tgl 15 0 empty sqr_stp_q_alloff empty 17 7 0 10 -262144
-1 -1 0 31;
#X obj 190 142 tgl 15 0 empty sqr_stp_q_alloff empty 17 7 0 10 -262144
-1 -1 0 45;
#X obj 48 177 spigot;
#X obj 95 177 spigot;
#X obj 145 177 spigot;
#X obj 193 178 spigot;
#X obj 254 142 tgl 15 0 empty sqr_stp_q_alloff empty 17 7 0 10 -262144
-1 -1 0 97;
#X obj 380 177 spigot;
#X obj 238 142 tgl 15 0 empty sqr_stp_q_alloff empty 17 7 0 10 -262144
-1 -1 0 115;
#X obj 332 177 spigot;
#X obj 222 142 tgl 15 0 empty sqr_stp_q_alloff empty 17 7 0 10 -262144
-1 -1 0 58;
#X obj 287 177 spigot;
#X obj 206 142 tgl 15 0 empty sqr_stp_q_alloff empty 17 7 0 10 -262144
-1 -1 0 113;
#X obj 239 176 spigot;
#X obj 270 142 tgl 15 0 empty sqr_stp_q_alloff empty 17 7 0 10 -262144
-1 -1 0 124;
#X obj 286 142 tgl 15 0 empty sqr_stp_q_alloff empty 17 7 0 10 -262144
-1 -1 0 127;
#X obj 302 142 tgl 15 0 empty sqr_stp_q_alloff empty 17 7 0 10 -262144
-1 -1 0 127;
#X obj 318 142 tgl 15 0 empty sqr_stp_q_alloff empty 17 7 0 10 -262144
-1 -1 0 110;
#X obj 67 210 spigot;
#X obj 114 210 spigot;
#X obj 164 210 spigot;
#X obj 212 211 spigot;
#X obj 382 142 tgl 15 0 empty sqr_stp_q_alloff empty 17 7 0 10 -262144
-1 -1 0 76;
#X obj 399 210 spigot;
#X obj 366 142 tgl 15 0 empty sqr_stp_q_alloff empty 17 7 0 10 -262144
-1 -1 0 92;
#X obj 351 210 spigot;
#X obj 350 142 tgl 15 0 empty sqr_stp_q_alloff empty 17 7 0 10 -262144
-1 -1 0 127;
#X obj 306 210 spigot;
#X obj 334 142 tgl 15 0 empty sqr_stp_q_alloff empty 17 7 0 10 -262144
-1 -1 0 110;
#X obj 258 209 spigot;
#X obj -47 189 f;
#X obj 194 103 hsl 128 15 0 127 0 0 empty empty empty -2 -8 0 10 -262144
-1 -1 900 1;
#X obj 383 103 bng 15 250 50 0 empty empty empty 17 7 0 10 -262144
-1 -1;
#X obj 327 103 nbx 5 14 -1e+37 1e+37 0 0 empty empty empty 0 -8 0 10
-262144 -1 -1 9 256;
#X obj -40 10 ctlin 77;
#X obj 17 9 ctlin 78;
#X obj 75 8 ctlin 79;
#X obj 133 9 ctlin 80;
#X obj 189 8 ctlin 81;
#X obj 246 9 ctlin 82;
#X obj 301 9 ctlin 83;
#X obj 356 9 ctlin 84;
#X obj 356 34 ctlin 85;
#X obj 301 34 ctlin 86;
#X obj 246 34 ctlin 87;
#X obj 189 33 ctlin 88;
#X obj 133 34 ctlin 89;
#X obj 75 33 ctlin 90;
#X obj 17 34 ctlin 91;
#X obj -40 35 ctlin 92;
#X obj -6 447 makenote 64 250;
#X obj -6 471 noteout 20;
#X obj 421 9 ctlin 115;
#X obj 421 57 bng 15 250 50 0 empty empty empty 17 7 0 10 -262144 -1
-1;
#X obj 455 58 bng 15 250 50 0 empty empty empty 17 7 0 10 -262144 -1
-1;
#X msg 453 115 inc;
#X msg 419 115 dec;
#X msg 519 116 255;
#X msg 486 116 0;
#X obj 453 141 counter;
#X obj 419 90 loadbang;
#X obj 421 33 select 0 127;
#X obj 490 60 moses 64;
#X obj 490 89 min 20;
#X obj 536 89 max 107;
#X obj 141 122 hradio 16 1 0 16 empty empty empty 0 -8 0 15 -262144
-1 -1 0;
#X obj -37 405 makenote 64 250;
#X text 585 162 veloicty == brightness;
#X msg 553 163 127;
#X obj 38 -96 inlet;
#X text 115 140 togg;
#X connect 1 0 118 0;
#X connect 2 0 9 0;
#X connect 2 1 9 1;
#X connect 3 0 10 0;
#X connect 3 1 10 1;
#X connect 4 0 11 0;
#X connect 4 1 11 1;
#X connect 5 0 2 0;
#X connect 6 0 3 0;
#X connect 7 0 4 0;
#X connect 12 0 13 0;
#X connect 12 1 13 1;
#X connect 14 0 15 0;
#X connect 14 1 15 1;
#X connect 16 0 17 0;
#X connect 16 1 17 1;
#X connect 18 0 12 0;
#X connect 19 0 14 0;
#X connect 20 0 16 0;
#X connect 21 0 22 0;
#X connect 21 1 22 1;
#X connect 23 0 21 0;
#X connect 24 0 28 0;
#X connect 24 1 28 1;
#X connect 25 0 29 0;
#X connect 25 1 29 1;
#X connect 26 0 30 0;
#X connect 26 1 30 1;
#X connect 27 0 31 0;
#X connect 27 1 31 1;
#X connect 32 0 33 0;
#X connect 32 1 33 1;
#X connect 34 0 35 0;
#X connect 34 1 35 1;
#X connect 36 0 37 0;
#X connect 36 1 37 1;
#X connect 38 0 39 0;
#X connect 38 1 39 1;
#X connect 40 0 24 0;
#X connect 41 0 25 0;
#X connect 42 0 26 0;
#X connect 43 0 27 0;
#X connect 44 0 32 0;
#X connect 45 0 34 0;
#X connect 46 0 36 0;
#X connect 47 0 38 0;
#X connect 48 0 40 0;
#X connect 48 0 54 0;
#X connect 48 1 41 0;
#X connect 48 1 55 0;
#X connect 48 2 42 0;
#X connect 48 2 56 0;
#X connect 48 3 43 0;
#X connect 48 3 57 0;
#X connect 48 4 44 0;
#X connect 48 4 65 0;
#X connect 48 5 45 0;
#X connect 48 5 63 0;
#X connect 48 6 46 0;
#X connect 48 6 61 0;
#X connect 48 7 47 0;
#X connect 48 7 59 0;
#X connect 48 8 23 0;
#X connect 48 8 75 0;
#X connect 48 9 20 0;
#X connect 48 9 77 0;
#X connect 48 10 19 0;
#X connect 48 10 79 0;
#X connect 48 11 18 0;
#X connect 48 11 81 0;
#X connect 48 12 7 0;
#X connect 48 12 73 0;
#X connect 48 13 6 0;
#X connect 48 13 72 0;
#X connect 48 14 5 0;
#X connect 48 14 71 0;
#X connect 48 15 1 0;
#X connect 48 15 70 0;
#X connect 50 0 54 1;
#X connect 51 0 55 1;
#X connect 52 0 56 1;
#X connect 53 0 57 1;
#X connect 54 0 82 0;
#X connect 55 0 82 0;
#X connect 56 0 82 0;
#X connect 57 0 82 0;
#X connect 58 0 59 1;
#X connect 59 0 82 0;
#X connect 60 0 61 1;
#X connect 61 0 82 0;
#X connect 62 0 63 1;
#X connect 63 0 82 0;
#X connect 64 0 65 1;
#X connect 65 0 82 0;
#X connect 66 0 70 1;
#X connect 67 0 71 1;
#X connect 68 0 72 1;
#X connect 69 0 73 1;
#X connect 70 0 82 0;
#X connect 71 0 82 0;
#X connect 72 0 82 0;
#X connect 73 0 82 0;
#X connect 74 0 75 1;
#X connect 75 0 82 0;
#X connect 76 0 77 1;
#X connect 77 0 82 0;
#X connect 78 0 79 1;
#X connect 79 0 82 0;
#X connect 80 0 81 1;
#X connect 81 0 82 0;
#X connect 82 0 84 0;
#X connect 82 0 85 0;
#X connect 82 0 102 0;
#X connect 82 0 0 0;
#X connect 83 0 82 1;
#X connect 86 0 50 0;
#X connect 87 0 51 0;
#X connect 88 0 52 0;
#X connect 89 0 53 0;
#X connect 90 0 64 0;
#X connect 91 0 62 0;
#X connect 92 0 60 0;
#X connect 93 0 58 0;
#X connect 94 0 74 0;
#X connect 95 0 76 0;
#X connect 96 0 78 0;
#X connect 97 0 80 0;
#X connect 98 0 69 0;
#X connect 99 0 68 0;
#X connect 100 0 67 0;
#X connect 101 0 66 0;
#X connect 102 0 103 0;
#X connect 102 1 103 1;
#X connect 104 0 113 0;
#X connect 105 0 108 0;
#X connect 106 0 107 0;
#X connect 107 0 111 0;
#X connect 108 0 111 0;
#X connect 109 0 111 4;
#X connect 110 0 111 3;
#X connect 111 0 83 0;
#X connect 112 0 110 0;
#X connect 112 0 109 0;
#X connect 113 0 105 0;
#X connect 113 1 106 0;
#X connect 113 2 114 0;
#X connect 114 0 115 0;
#X connect 114 1 116 0;
#X connect 115 0 105 0;
#X connect 116 0 106 0;
#X connect 118 0 8 0;
#X connect 118 1 8 1;
#X connect 120 0 24 1;
#X connect 120 0 25 1;
#X connect 120 0 26 1;
#X connect 120 0 27 1;
#X connect 120 0 32 1;
#X connect 120 0 34 1;
#X connect 120 0 36 1;
#X connect 120 0 38 1;
#X connect 120 0 21 1;
#X connect 120 0 16 1;
#X connect 120 0 14 1;
#X connect 120 0 12 1;
#X connect 120 0 4 1;
#X connect 120 0 3 1;
#X connect 120 0 2 1;
#X connect 120 0 118 1;
#X connect 121 0 48 0;
#X connect 121 0 117 0;
#X coords 0 -1 1 1 300 60 1 100 100;
#X restore 180 528 pd QSS_8.pd;
#N canvas 423 23 870 657 QSS_7.pd 0;
#X obj 122 375 makenote 64 250;
#X obj 224 375 makenote 64 250;
#X obj 322 372 makenote 64 250;
#X obj 420 371 makenote 64 250;
#X obj 122 395 noteout 2;
#X obj 224 395 noteout 2;
#X obj 322 392 noteout 2;
#X obj 420 391 noteout 2;
#X obj 140 443 makenote 64 250;
#X obj 140 467 noteout 2;
#X obj 237 443 makenote 64 250;
#X obj 237 466 noteout 2;
#X obj 96 221 makenote 64 250;
#X obj 197 218 makenote 64 250;
#X obj 295 218 makenote 64 250;
#X obj 394 216 makenote 64 250;
#X obj 96 241 noteout 2;
#X obj 197 238 noteout 2;
#X obj 295 238 noteout 2;
#X obj 394 237 noteout 2;
#X obj 110 298 makenote 64 250;
#X obj 110 322 noteout 2;
#X obj 209 297 makenote 64 250;
#X obj 209 320 noteout 2;
#X obj 307 297 makenote 64 250;
#X obj 307 320 noteout 2;
#X obj 405 296 makenote 64 250;
#X obj 405 320 noteout 2;
#X msg 122 353 32;
#X msg 224 356 34;
#X msg 322 353 36;
#X msg 420 352 38;
#X msg 140 424 40;
#X msg 237 424 42;
#X msg 96 199 48;
#X msg 197 199 50;
#X msg 295 199 52;
#X msg 394 197 54;
#X msg 110 276 56;
#X msg 209 278 58;
#X msg 307 278 60;
#X msg 405 276 62;
#X obj 336 442 makenote 64 250;
#X obj 336 465 noteout 2;
#X obj 435 442 makenote 64 250;
#X obj 435 465 noteout 2;
#X msg 336 423 44;
#X msg 435 423 46;
#X obj 51 -23 select 0 1 2 3 4 5 6 7 8 9 10 11 12 13 14 15;
#X text 42 -121 7 [SE7EN];
#X obj 52 159 f;
#X obj 145 162 hsl 128 15 0 127 0 0 empty empty empty -2 -8 0 10 -262144
-1 -1 9900 1;
#X obj 382 161 bng 15 250 50 0 empty empty empty 17 7 0 10 -262144
-1 -1;
#X obj 322 161 nbx 5 14 -1e+37 1e+37 0 0 empty empty empty 0 -8 0 10
-262144 -1 -1 99 256;
#X obj 141 142 tgl 15 0 empty sqr_stp_q_alloff empty 17 7 0 10 -262144
-1 -1 0 45;
#X obj 157 142 tgl 15 0 empty sqr_stp_q_alloff empty 17 7 0 10 -262144
-1 -1 0 122;
#X obj 173 142 tgl 15 0 empty sqr_stp_q_alloff empty 17 7 0 10 -262144
-1 -1 0 88;
#X obj 189 142 tgl 15 0 empty sqr_stp_q_alloff empty 17 7 0 10 -262144
-1 -1 0 76;
#X obj 51 17 spigot;
#X obj 103 17 spigot;
#X obj 151 16 spigot;
#X obj 201 17 spigot;
#X obj 253 142 tgl 15 0 empty sqr_stp_q_alloff empty 17 7 0 10 -262144
-1 -1 0 88;
#X obj 396 16 spigot;
#X obj 237 142 tgl 15 0 empty sqr_stp_q_alloff empty 17 7 0 10 -262144
-1 -1 0 62;
#X obj 348 16 spigot;
#X obj 221 142 tgl 15 0 empty sqr_stp_q_alloff empty 17 7 0 10 -262144
-1 -1 0 90;
#X obj 300 16 spigot;
#X obj 205 142 tgl 15 0 empty sqr_stp_q_alloff empty 17 7 0 10 -262144
-1 -1 0 79;
#X obj 251 15 spigot;
#X obj 148 -91 ctlin 17;
#X obj 208 -91 ctlin 18;
#X obj 266 -92 ctlin 19;
#X obj 325 -92 ctlin 20;
#X obj 385 -93 ctlin 21;
#X obj 444 -92 ctlin 22;
#X obj 502 -92 ctlin 23;
#X obj 560 -92 ctlin 24;
#X obj 269 142 tgl 15 0 empty sqr_stp_q_alloff empty 17 7 0 10 -262144
-1 -1 0 110;
#X obj 285 142 tgl 15 0 empty sqr_stp_q_alloff empty 17 7 0 10 -262144
-1 -1 0 119;
#X obj 301 142 tgl 15 0 empty sqr_stp_q_alloff empty 17 7 0 10 -262144
-1 -1 0 102;
#X obj 317 142 tgl 15 0 empty sqr_stp_q_alloff empty 17 7 0 10 -262144
-1 -1 0 59;
#X obj 51 47 spigot;
#X obj 103 47 spigot;
#X obj 151 46 spigot;
#X obj 201 47 spigot;
#X obj 381 142 tgl 15 0 empty sqr_stp_q_alloff empty 17 7 0 10 -262144
-1 -1 0 88;
#X obj 396 46 spigot;
#X obj 365 142 tgl 15 0 empty sqr_stp_q_alloff empty 17 7 0 10 -262144
-1 -1 0 76;
#X obj 348 46 spigot;
#X obj 349 142 tgl 15 0 empty sqr_stp_q_alloff empty 17 7 0 10 -262144
-1 -1 0 120;
#X obj 300 46 spigot;
#X obj 333 142 tgl 15 0 empty sqr_stp_q_alloff empty 17 7 0 10 -262144
-1 -1 0 126;
#X obj 251 45 spigot;
#X obj 560 -62 ctlin 25;
#X obj 502 -62 ctlin 26;
#X obj 444 -62 ctlin 27;
#X obj 385 -63 ctlin 28;
#X obj 325 -62 ctlin 29;
#X obj 266 -62 ctlin 30;
#X obj 208 -61 ctlin 31;
#X obj 148 -61 ctlin 32;
#X obj 437 156 makenote 64 250;
#X obj 437 180 noteout 19;
#X obj 500 11 + 1;
#X obj 256 105 nbx 5 14 0 1e+37 0 0 empty empty empty 0 -8 0 10 -262144
-1 -1 243 256;
#X msg 560 45 bang;
#X obj 667 78 + 1;
#X obj 560 83 - 1;
#X msg 667 44 bang;
#X obj 562 119 t b f;
#X obj 581 -9 nbx 5 14 -1e+37 1e+37 0 0 empty empty empty 0 -8 0 10
-262144 -1 -1 1 256;
#X obj 579 28 bng 15 250 50 0 empty empty empty 17 7 0 10 -262144 -1
-1;
#X obj 609 28 bng 15 250 50 0 empty empty empty 17 7 0 10 -262144 -1
-1;
#X obj 560 10 select 127 1;
#X obj 587 170 r stp_q_l66;
#X obj 560 -30 ctlin 106;
#X obj 477 -12 metro;
#X obj 474 11 f;
#X obj 140 123 hradio 16 1 0 16 empty empty empty 0 -8 0 15 -262144
-1 -1 0;
#X obj 479 40 mod 16;
#X obj 685 151 loadbang;
#X obj 235 105 tgl 15 0 empty empty empty 17 7 0 10 -262144 -1 -1 1
1;
#X obj 115 507 outlet;
#X text 113 488 to 8 inlet1;
#X obj 672 343 bng 15 250 50 0 empty empty empty 17 7 0 10 -262144
-1 -1;
#X obj 706 344 bng 15 250 50 0 empty empty empty 17 7 0 10 -262144
-1 -1;
#X msg 706 369 inc;
#X msg 672 369 dec;
#X msg 770 369 255;
#X msg 736 369 0;
#X obj 706 398 counter;
#X obj 745 342 loadbang;
#X obj 672 256 select 0 127;
#X obj 741 283 moses 64;
#X obj 741 312 min 20;
#X obj 787 312 max 107;
#X obj 672 227 ctlin 114;
#X text 371 104 to_8;
#X obj 355 104 tgl 15 0 empty empty empty 17 7 0 10 -262144 -1 -1 0
1;
#X obj 51 415 spigot 85;
#X obj -13 477 outlet;
#X obj 44 -96 r pd;
#X obj 44 -72 route dsp;
#X text 282 160 pitch;
#X text 213 103 i|o;
#X text 312 103 tempo;
#X text 115 140 togg;
#X obj 560 64 v QSS_counter6;
#X obj 667 61 v QSS_counter6;
#X obj 575 148 v QSS_counter6;
#X connect 0 0 4 0;
#X connect 0 1 4 1;
#X connect 1 0 5 0;
#X connect 1 1 5 1;
#X connect 2 0 6 0;
#X connect 2 1 6 1;
#X connect 3 0 7 0;
#X connect 3 1 7 1;
#X connect 8 0 9 0;
#X connect 8 1 9 1;
#X connect 10 0 11 0;
#X connect 10 1 11 1;
#X connect 12 0 16 0;
#X connect 12 1 16 1;
#X connect 13 0 17 0;
#X connect 13 1 17 1;
#X connect 14 0 18 0;
#X connect 14 1 18 1;
#X connect 15 0 19 0;
#X connect 15 1 19 1;
#X connect 20 0 21 0;
#X connect 20 1 21 1;
#X connect 22 0 23 0;
#X connect 22 1 23 1;
#X connect 24 0 25 0;
#X connect 24 1 25 1;
#X connect 26 0 27 0;
#X connect 26 1 27 1;
#X connect 28 0 0 0;
#X connect 29 0 1 0;
#X connect 30 0 2 0;
#X connect 31 0 3 0;
#X connect 32 0 8 0;
#X connect 33 0 10 0;
#X connect 34 0 12 0;
#X connect 35 0 13 0;
#X connect 36 0 14 0;
#X connect 37 0 15 0;
#X connect 38 0 20 0;
#X connect 39 0 22 0;
#X connect 40 0 24 0;
#X connect 41 0 26 0;
#X connect 42 0 43 0;
#X connect 42 1 43 1;
#X connect 44 0 45 0;
#X connect 44 1 45 1;
#X connect 46 0 42 0;
#X connect 47 0 44 0;
#X connect 48 0 34 0;
#X connect 48 0 58 0;
#X connect 48 1 35 0;
#X connect 48 1 59 0;
#X connect 48 2 36 0;
#X connect 48 2 60 0;
#X connect 48 3 37 0;
#X connect 48 3 61 0;
#X connect 48 4 38 0;
#X connect 48 4 69 0;
#X connect 48 5 39 0;
#X connect 48 5 67 0;
#X connect 48 6 40 0;
#X connect 48 6 65 0;
#X connect 48 7 41 0;
#X connect 48 7 63 0;
#X connect 48 8 47 0;
#X connect 48 8 87 0;
#X connect 48 9 46 0;
#X connect 48 9 89 0;
#X connect 48 10 33 0;
#X connect 48 10 91 0;
#X connect 48 11 32 0;
#X connect 48 11 93 0;
#X connect 48 12 31 0;
#X connect 48 12 85 0;
#X connect 48 13 30 0;
#X connect 48 13 84 0;
#X connect 48 14 29 0;
#X connect 48 14 83 0;
#X connect 48 15 28 0;
#X connect 48 15 82 0;
#X connect 50 0 52 0;
#X connect 50 0 53 0;
#X connect 50 0 102 0;
#X connect 50 0 141 0;
#X connect 51 0 50 1;
#X connect 54 0 58 1;
#X connect 55 0 59 1;
#X connect 56 0 60 1;
#X connect 57 0 61 1;
#X connect 58 0 50 0;
#X connect 59 0 50 0;
#X connect 60 0 50 0;
#X connect 61 0 50 0;
#X connect 62 0 63 1;
#X connect 63 0 50 0;
#X connect 64 0 65 1;
#X connect 65 0 50 0;
#X connect 66 0 67 1;
#X connect 67 0 50 0;
#X connect 68 0 69 1;
#X connect 69 0 50 0;
#X connect 70 0 54 0;
#X connect 71 0 55 0;
#X connect 72 0 56 0;
#X connect 73 0 57 0;
#X connect 74 0 68 0;
#X connect 75 0 66 0;
#X connect 76 0 64 0;
#X connect 77 0 62 0;
#X connect 78 0 82 1;
#X connect 79 0 83 1;
#X connect 80 0 84 1;
#X connect 81 0 85 1;
#X connect 82 0 50 0;
#X connect 83 0 50 0;
#X connect 84 0 50 0;
#X connect 85 0 50 0;
#X connect 86 0 87 1;
#X connect 87 0 50 0;
#X connect 88 0 89 1;
#X connect 89 0 50 0;
#X connect 90 0 91 1;
#X connect 91 0 50 0;
#X connect 92 0 93 1;
#X connect 93 0 50 0;
#X connect 94 0 86 0;
#X connect 95 0 88 0;
#X connect 96 0 90 0;
#X connect 97 0 92 0;
#X connect 98 0 81 0;
#X connect 99 0 80 0;
#X connect 100 0 79 0;
#X connect 101 0 78 0;
#X connect 102 0 103 0;
#X connect 102 1 103 1;
#X connect 104 0 118 1;
#X connect 105 0 117 1;
#X connect 106 0 148 0;
#X connect 107 0 110 0;
#X connect 108 0 110 0;
#X connect 109 0 149 0;
#X connect 110 0 150 0;
#X connect 110 1 150 0;
#X connect 114 0 112 0;
#X connect 114 0 106 0;
#X connect 114 1 109 0;
#X connect 114 2 113 0;
#X connect 115 0 105 0;
#X connect 116 0 111 0;
#X connect 116 0 114 0;
#X connect 117 0 118 0;
#X connect 118 0 120 0;
#X connect 118 0 104 0;
#X connect 119 0 48 0;
#X connect 119 0 140 0;
#X connect 120 0 119 0;
#X connect 121 0 122 0;
#X connect 122 0 117 0;
#X connect 125 0 128 0;
#X connect 126 0 127 0;
#X connect 127 0 131 0;
#X connect 128 0 131 0;
#X connect 129 0 131 4;
#X connect 130 0 131 3;
#X connect 131 0 51 0;
#X connect 132 0 130 0;
#X connect 132 0 129 0;
#X connect 133 0 125 0;
#X connect 133 1 126 0;
#X connect 133 2 134 0;
#X connect 134 0 135 0;
#X connect 134 1 136 0;
#X connect 135 0 125 0;
#X connect 136 0 126 0;
#X connect 137 0 133 0;
#X connect 139 0 140 1;
#X connect 140 0 123 0;
#X connect 142 0 143 0;
#X connect 143 0 122 0;
#X connect 148 0 108 0;
#X connect 149 0 107 0;
#X connect 150 0 105 0;
#X coords 0 -1 1 1 300 80 1 100 100;
#X restore 150 433 pd QSS_7.pd;
#N canvas 514 129 561 499 QSS_6.pd 0;
#X obj 117 -102 inlet;
#X text 119 -126 select;
#X obj 102 213 noteout 2;
#X obj 210 211 noteout 2;
#X obj 314 212 noteout 2;
#X obj 416 212 noteout 2;
#X obj 114 279 noteout 2;
#X obj 222 278 noteout 2;
#X obj 326 279 noteout 2;
#X obj 426 277 noteout 2;
#X msg 114 236 72;
#X msg 222 236 74;
#X msg 326 236 76;
#X msg 426 233 78;
#X msg 102 171 88;
#X msg 210 169 90;
#X msg 314 169 92;
#X msg 416 169 94;
#X obj 117 2 select 0 1 2 3 4 5 6 7 8 9 10 11 12 13 14 15;
#X text 40 -122 6 [SIX];
#X obj 159 143 tgl 15 0 empty sqr_stp_q_alloff empty 17 7 0 10 -262144
-1 -1 0 123;
#X obj 222 143 tgl 15 0 empty sqr_stp_q_alloff empty 17 7 0 10 -262144
-1 -1 0 42;
#X obj 253 143 tgl 15 0 empty sqr_stp_q_alloff empty 17 7 0 10 -262144
-1 -1 0 55;
#X obj 117 30 spigot;
#X obj 187 32 spigot;
#X obj 247 32 spigot;
#X obj 309 32 spigot;
#X obj 382 143 tgl 15 0 empty sqr_stp_q_alloff empty 17 7 0 10 -262144
-1 -1 0 89;
#X obj 340 60 spigot;
#X obj 351 143 tgl 15 0 empty sqr_stp_q_alloff empty 17 7 0 10 -262144
-1 -1 0 49;
#X obj 269 60 spigot;
#X obj 318 143 tgl 15 0 empty sqr_stp_q_alloff empty 17 7 0 10 -262144
-1 -1 0 103;
#X obj 209 60 spigot;
#X obj 143 59 spigot;
#X obj 52 -60 ctlin 41;
#X obj 122 -61 ctlin 42;
#X obj 192 -62 ctlin 43;
#X obj 264 -61 ctlin 44;
#X obj 295 -37 ctlin 45;
#X obj 214 -37 ctlin 46;
#X obj 144 -37 ctlin 47;
#X obj 78 -38 ctlin 48;
#X obj 430 92 f;
#X obj 184 103 hsl 128 15 0 127 0 0 empty empty empty -2 -8 0 10 -262144
-1 -1 1800 1;
#X obj 382 103 bng 15 250 50 0 empty empty empty 17 7 0 10 -262144
-1 -1;
#X obj 322 104 nbx 5 14 -1e+37 1e+37 0 0 empty empty empty 0 -8 0 10
-262144 -1 -1 18 256;
#X obj 285 143 tgl 15 0 empty sqr_stp_q_alloff empty 17 7 0 10 -262144
-1 -1 0 124;
#X obj 190 143 tgl 15 0 empty sqr_stp_q_alloff empty 17 7 0 10 -262144
-1 -1 0 65;
#X obj 451 137 makenote 64 250;
#X obj 451 161 noteout 18;
#X obj 123 328 outlet;
#X obj 402 -13 bng 15 250 50 0 empty empty empty 17 7 0 10 -262144
-1 -1;
#X obj 436 -12 bng 15 250 50 0 empty empty empty 17 7 0 10 -262144
-1 -1;
#X msg 436 10 inc;
#X msg 402 10 dec;
#X obj 437 64 nbx 5 14 -1e+37 1e+37 0 0 empty empty empty 0 -8 0 10
-262144 -1 -1 18 256;
#X msg 465 10 0;
#X obj 436 35 counter;
#X obj 475 -13 loadbang;
#X obj 402 -85 select 0 127;
#X obj 401 -58 moses 64;
#X obj 401 -33 min 20;
#X obj 447 -33 max 107;
#X obj 402 -107 ctlin 113;
#X obj 141 123 hradio 16 1 0 16 empty empty empty 0 -8 0 15 -262144
-1 -1 14;
#X obj 416 188 makenote 127 250;
#X obj 222 255 makenote 127 250;
#X obj 426 253 makenote 127 250;
#X obj 210 188 makenote 127 250;
#X obj 102 190 makenote 64 250;
#X obj 314 188 makenote 64 250;
#X obj 114 255 makenote 64 250;
#X obj 326 255 makenote 64 250;
#X msg 499 10 127;
#X text 114 140 togg;
#X connect 0 0 18 0;
#X connect 0 0 64 0;
#X connect 10 0 71 0;
#X connect 11 0 66 0;
#X connect 12 0 72 0;
#X connect 13 0 67 0;
#X connect 14 0 69 0;
#X connect 15 0 68 0;
#X connect 16 0 70 0;
#X connect 17 0 65 0;
#X connect 18 1 14 0;
#X connect 18 1 23 0;
#X connect 18 3 15 0;
#X connect 18 3 24 0;
#X connect 18 5 16 0;
#X connect 18 5 25 0;
#X connect 18 7 17 0;
#X connect 18 7 26 0;
#X connect 18 9 13 0;
#X connect 18 9 28 0;
#X connect 18 11 12 0;
#X connect 18 11 30 0;
#X connect 18 13 11 0;
#X connect 18 13 32 0;
#X connect 18 15 10 0;
#X connect 18 15 33 0;
#X connect 20 0 23 1;
#X connect 21 0 25 1;
#X connect 22 0 26 1;
#X connect 23 0 42 0;
#X connect 24 0 42 0;
#X connect 25 0 42 0;
#X connect 26 0 42 0;
#X connect 27 0 28 1;
#X connect 28 0 42 0;
#X connect 29 0 30 1;
#X connect 30 0 42 0;
#X connect 31 0 32 1;
#X connect 32 0 42 0;
#X connect 33 0 42 0;
#X connect 34 0 20 0;
#X connect 35 0 47 0;
#X connect 36 0 21 0;
#X connect 37 0 22 0;
#X connect 38 0 27 0;
#X connect 39 0 29 0;
#X connect 40 0 31 0;
#X connect 41 0 46 0;
#X connect 42 0 44 0;
#X connect 42 0 45 0;
#X connect 42 0 48 0;
#X connect 42 0 50 0;
#X connect 43 0 42 1;
#X connect 46 0 33 1;
#X connect 47 0 24 1;
#X connect 48 0 49 0;
#X connect 48 1 49 1;
#X connect 51 0 54 0;
#X connect 52 0 53 0;
#X connect 53 0 57 0;
#X connect 54 0 57 0;
#X connect 55 0 43 0;
#X connect 56 0 57 3;
#X connect 57 0 55 0;
#X connect 58 0 56 0;
#X connect 58 0 73 0;
#X connect 59 0 51 0;
#X connect 59 1 52 0;
#X connect 59 2 60 0;
#X connect 60 0 61 0;
#X connect 60 1 62 0;
#X connect 61 0 51 0;
#X connect 62 0 52 0;
#X connect 63 0 59 0;
#X connect 65 0 5 0;
#X connect 65 1 5 1;
#X connect 66 0 7 0;
#X connect 66 1 7 1;
#X connect 67 0 9 0;
#X connect 67 1 9 1;
#X connect 68 0 3 0;
#X connect 68 1 3 1;
#X connect 69 0 2 0;
#X connect 69 1 2 1;
#X connect 70 0 4 0;
#X connect 70 1 4 1;
#X connect 71 0 6 0;
#X connect 71 1 6 1;
#X connect 72 0 8 0;
#X connect 72 1 8 1;
#X connect 73 0 57 4;
#X coords 0 -1 1 1 300 60 1 100 100;
#X restore 137 360 pd QSS_6.pd;
#N canvas 263 178 846 534 QSS_5.pd 0;
#X obj -394 -7 f;
#X obj 146 163 hsl 128 15 0 127 0 0 empty empty empty -2 -8 0 10 -262144
-1 -1 3900 1;
#X text -381 -162 5 [FIVE];
#X obj -348 84 makenote 64 250;
#X obj -227 82 makenote 64 250;
#X obj -118 80 makenote 64 250;
#X obj -6 79 makenote 64 250;
#X obj -348 104 noteout 2;
#X obj -227 102 noteout 2;
#X obj -118 100 noteout 2;
#X obj -6 99 noteout 2;
#X obj -360 155 makenote 64 250;
#X obj -244 152 makenote 64 250;
#X obj -130 149 makenote 64 250;
#X obj -20 150 makenote 64 250;
#X obj -360 175 noteout 2;
#X obj -244 172 noteout 2;
#X obj -130 169 noteout 2;
#X obj -20 170 noteout 2;
#X msg -360 136 64;
#X msg -244 133 66;
#X msg -130 130 68;
#X msg -20 131 70;
#X msg -348 65 80;
#X msg -227 63 82;
#X msg -118 61 84;
#X msg -6 60 86;
#X obj -344 -11 select 0 1 2 3 4 5 6 7 8 9 10 11 12 13 14 15;
#X obj 28 -134 ctlin 33;
#X obj 218 -136 ctlin 35;
#X obj 310 -135 ctlin 36;
#X obj 128 -135 ctlin 34;
#X obj 141 142 tgl 15 0 empty sqr_stp_q_alloff empty 17 7 0 10 -262144
-1 -1 0 78;
#X obj 173 142 tgl 15 0 empty sqr_stp_q_alloff empty 17 7 0 10 -262144
-1 -1 0 52;
#X obj 204 142 tgl 15 0 empty sqr_stp_q_alloff empty 17 7 0 10 -262144
-1 -1 0 58;
#X obj 236 142 tgl 15 0 empty sqr_stp_q_alloff empty 17 7 0 10 -262144
-1 -1 0 83;
#X obj 106 191 spigot;
#X obj 176 193 spigot;
#X obj 236 193 spigot;
#X obj 288 193 spigot;
#X obj 381 163 bng 15 250 50 0 empty empty empty 17 7 0 10 -262144
-1 -1;
#X obj 322 163 nbx 5 14 -1e+37 1e+37 0 0 empty empty empty 0 -8 0 10
-262144 -1 -1 39 256;
#X obj 341 -111 ctlin 37;
#X obj 364 142 tgl 15 0 empty sqr_stp_q_alloff empty 17 7 0 10 -262144
-1 -1 0 105;
#X obj 319 221 spigot;
#X obj 333 142 tgl 15 0 empty sqr_stp_q_alloff empty 17 7 0 10 -262144
-1 -1 0 93;
#X obj 258 221 spigot;
#X obj 240 -111 ctlin 38;
#X obj 300 142 tgl 15 0 empty sqr_stp_q_alloff empty 17 7 0 10 -262144
-1 -1 0 127;
#X obj 198 221 spigot;
#X obj 150 -111 ctlin 39;
#X obj 267 142 tgl 15 0 empty sqr_stp_q_alloff empty 17 7 0 10 -262144
-1 -1 0 76;
#X obj 132 220 spigot;
#X obj 54 -112 ctlin 40;
#X obj -51 208 makenote 64 250;
#X obj -51 232 noteout 17;
#X obj -393 233 outlet;
#X obj 151 -9 bng 15 250 50 0 empty empty empty 17 7 0 10 -262144 -1
-1;
#X obj 185 -8 bng 15 250 50 0 empty empty empty 17 7 0 10 -262144 -1
-1;
#X msg 185 17 inc;
#X msg 151 17 dec;
#X obj 185 63 nbx 5 14 -1e+37 1e+37 0 0 empty empty empty 0 -8 0 10
-262144 -1 -1 39 256;
#X msg 214 17 0;
#X obj 185 42 counter;
#X obj 224 -9 loadbang;
#X obj 137 -43 select 0 127;
#X obj 220 -66 moses 64;
#X obj 220 -37 min 20;
#X obj 266 -37 max 107;
#X obj 137 -72 ctlin 112;
#X obj 306 34 metro;
#X obj 246 105 nbx 5 14 0 1e+37 0 0 empty empty empty 0 -8 0 10 -262144
-1 -1 108 256;
#X obj 348 54 f;
#X obj 374 54 + 1;
#X obj 140 124 hradio 16 1 0 16 empty empty empty 0 -8 0 15 -262144
-1 -1 14;
#X msg -264 -156 bang;
#X obj -149 -121 + 1;
#X obj -264 -118 - 1;
#X msg -149 -155 bang;
#X obj -209 -96 t b f;
#X obj -243 -210 nbx 5 14 -1e+37 1e+37 0 0 empty empty empty 0 -8 0
10 -262144 -1 -1 1 256;
#X obj -245 -173 bng 15 250 50 0 empty empty empty 17 7 0 10 -262144
-1 -1;
#X obj -230 -173 bng 15 250 50 0 empty empty empty 17 7 0 10 -262144
-1 -1;
#X obj -215 -173 bng 15 250 50 0 empty empty empty 17 7 0 10 -262144
-1 -1;
#X obj -264 -191 select 127 1;
#X obj -185 -52 r stp_q_l66;
#X obj 306 54 mod 16;
#X obj 342 189 spigot 85;
#X text -264 -255 MAIN SEQUENCER;
#X obj 247 80 loadbang;
#X obj -264 -231 ctlin 107;
#X text 341 204 6 inlet;
#X obj 227 105 tgl 15 0 empty empty empty 17 7 0 10 -262144 -1 -1 1
1;
#X obj -344 232 outlet;
#X text 370 103 to_6;
#X text -23 14 veloicty == brightness;
#X msg -55 15 127;
#X obj -55 -9 loadbang;
#X obj 353 104 tgl 15 0 empty empty empty 17 7 0 10 -262144 -1 -1 1
1;
#X obj 353 80 loadbang;
#X msg 246 16 127;
#X obj 38 -244 dsp;
#X obj -48 -231 r pd;
#X obj -48 -207 route dsp;
#X text 283 160 pitch;
#X text 206 103 i|o;
#X text 114 140 togg;
#X text 301 103 tempo;
#X obj -264 -137 v QSS_counter5;
#X obj -149 -138 v QSS_counter5;
#X obj -198 -74 v QSS_counter5;
#X connect 0 0 40 0;
#X connect 0 0 41 0;
#X connect 0 0 54 0;
#X connect 0 0 56 0;
#X connect 1 0 0 1;
#X connect 3 0 7 0;
#X connect 3 1 7 1;
#X connect 4 0 8 0;
#X connect 4 1 8 1;
#X connect 5 0 9 0;
#X connect 5 1 9 1;
#X connect 6 0 10 0;
#X connect 6 1 10 1;
#X connect 11 0 15 0;
#X connect 11 1 15 1;
#X connect 12 0 16 0;
#X connect 12 1 16 1;
#X connect 13 0 17 0;
#X connect 13 1 17 1;
#X connect 14 0 18 0;
#X connect 14 1 18 1;
#X connect 19 0 11 0;
#X connect 20 0 12 0;
#X connect 21 0 13 0;
#X connect 22 0 14 0;
#X connect 23 0 3 0;
#X connect 24 0 4 0;
#X connect 25 0 5 0;
#X connect 26 0 6 0;
#X connect 27 0 23 0;
#X connect 27 0 36 0;
#X connect 27 2 24 0;
#X connect 27 2 37 0;
#X connect 27 4 25 0;
#X connect 27 4 38 0;
#X connect 27 6 26 0;
#X connect 27 6 39 0;
#X connect 27 8 22 0;
#X connect 27 8 44 0;
#X connect 27 10 21 0;
#X connect 27 10 46 0;
#X connect 27 12 20 0;
#X connect 27 12 49 0;
#X connect 27 14 19 0;
#X connect 27 14 52 0;
#X connect 28 0 32 0;
#X connect 29 0 34 0;
#X connect 30 0 35 0;
#X connect 31 0 33 0;
#X connect 32 0 36 1;
#X connect 33 0 37 1;
#X connect 34 0 38 1;
#X connect 35 0 39 1;
#X connect 36 0 0 0;
#X connect 37 0 0 0;
#X connect 38 0 0 0;
#X connect 39 0 0 0;
#X connect 42 0 43 0;
#X connect 43 0 44 1;
#X connect 44 0 0 0;
#X connect 45 0 46 1;
#X connect 46 0 0 0;
#X connect 47 0 45 0;
#X connect 48 0 49 1;
#X connect 49 0 0 0;
#X connect 50 0 48 0;
#X connect 51 0 52 1;
#X connect 52 0 0 0;
#X connect 53 0 51 0;
#X connect 54 0 55 0;
#X connect 54 1 55 1;
#X connect 57 0 60 0;
#X connect 58 0 59 0;
#X connect 59 0 63 0;
#X connect 60 0 63 0;
#X connect 61 0 1 0;
#X connect 62 0 63 3;
#X connect 63 0 61 0;
#X connect 64 0 62 0;
#X connect 64 0 100 0;
#X connect 65 0 57 0;
#X connect 65 1 58 0;
#X connect 65 2 66 0;
#X connect 66 0 67 0;
#X connect 66 1 68 0;
#X connect 67 0 57 0;
#X connect 68 0 58 0;
#X connect 69 0 65 0;
#X connect 70 0 72 0;
#X connect 71 0 70 1;
#X connect 72 0 73 0;
#X connect 72 0 86 0;
#X connect 73 0 72 1;
#X connect 74 0 27 0;
#X connect 74 0 87 0;
#X connect 75 0 108 0;
#X connect 76 0 79 0;
#X connect 77 0 79 0;
#X connect 78 0 109 0;
#X connect 79 0 110 0;
#X connect 79 1 110 0;
#X connect 84 0 81 0;
#X connect 84 0 75 0;
#X connect 84 1 82 0;
#X connect 84 1 78 0;
#X connect 84 2 83 0;
#X connect 85 0 71 0;
#X connect 86 0 74 0;
#X connect 87 0 93 0;
#X connect 89 0 92 0;
#X connect 90 0 80 0;
#X connect 90 0 84 0;
#X connect 92 0 70 0;
#X connect 96 0 3 1;
#X connect 96 0 4 1;
#X connect 96 0 5 1;
#X connect 96 0 6 1;
#X connect 96 0 14 1;
#X connect 96 0 13 1;
#X connect 96 0 12 1;
#X connect 96 0 11 1;
#X connect 96 0 54 1;
#X connect 97 0 96 0;
#X connect 98 0 87 1;
#X connect 99 0 98 0;
#X connect 100 0 63 4;
#X connect 102 0 103 0;
#X connect 103 0 92 0;
#X connect 108 0 77 0;
#X connect 109 0 76 0;
#X connect 110 0 71 0;
#X coords 0 -1 1 1 300 80 1 100 100;
#X restore 104 271 pd QSS_5.pd;
#N canvas 271 51 609 514 QSS_4.pd 0;
#X obj -161 76 metro;
#X obj 272 101 nbx 5 14 0 1e+37 0 0 empty empty empty 0 -8 0 10 -262144
-1 -1 281 256;
#X obj -119 96 f;
#X obj -93 96 + 1;
#X obj 102 137 hradio 16 1 0 8 empty empty empty 0 -8 0 15 -262144
-1 -1 2;
#X obj -161 163 f;
#X obj 196 118 hsl 128 15 0 127 0 0 empty empty empty -2 -8 0 10 -262144
-1 -1 5600 1;
#X obj -161 220 makenote 64 250;
#X obj -145 281 makenote 64 250;
#X obj -38 233 makenote 64 250;
#X obj -19 293 makenote 64 250;
#X obj -161 240 noteout 2;
#X obj -145 301 noteout 2;
#X obj -38 253 noteout 2;
#X obj -19 313 noteout 2;
#X obj 91 225 makenote 64 250;
#X obj 107 286 makenote 64 250;
#X obj 209 223 makenote 64 250;
#X obj 228 283 makenote 64 250;
#X obj 91 245 noteout 2;
#X obj 107 306 noteout 2;
#X obj 209 243 noteout 2;
#X obj 228 303 noteout 2;
#X msg -100 -49 bang;
#X obj 15 2 + 1;
#X obj -100 5 - 1;
#X msg 15 -48 bang;
#X obj -86 28 t b f;
#X obj 103 79 nbx 5 14 -1e+37 1e+37 0 0 empty empty empty 0 -8 0 10
-262144 -1 -1 1 256;
#X obj 162 79 bng 15 250 50 0 empty empty empty 17 7 0 10 -262144 -1
-1;
#X obj 182 79 bng 15 250 50 0 empty empty empty 17 7 0 10 -262144 -1
-1;
#X obj 201 79 bng 15 250 50 0 empty empty empty 17 7 0 10 -262144 -1
-1;
#X obj -79 -107 select 127 1;
#X obj -161 141 select 0 1 2 3 4 5 6 7 8 9 10 11 12 13 14;
#X obj 27 25 r stp_q_l66;
#X obj -161 96 mod 8;
#X obj 368 102 tgl 15 0 empty empty empty 17 7 0 10 -262144 -1 -1 0
83;
#X text -162 -166 4 [FOUR];
#X msg -161 201 124;
#X msg -145 262 125;
#X msg 22 206 126;
#X msg -19 274 127;
#X msg 91 206 108;
#X msg 107 265 109;
#X msg 246 202 110;
#X msg 228 264 111;
#X obj -161 -142 ctlin 53;
#X obj -79 -141 ctlin 108;
#X obj -13 -141 ctlin 116;
#X obj 335 232 makenote 64 250;
#X obj 335 256 noteout 24;
#X obj -171 323 outlet;
#X text 131 185 veloicty == brightness;
#X msg 99 186 127;
#X obj 99 162 loadbang;
#X text 365 114 i|o;
#X text 328 100 tempo;
#X text 328 117 pitch;
#X obj 367 140 bng 15 250 50 0 empty empty empty 17 7 0 10 -262144
-1 -1;
#X obj 309 141 nbx 5 14 -1e+37 1e+37 0 0 empty empty empty 0 -8 0 10
-262144 -1 -1 71 256;
#X text 255 139 punchout;
#X obj -100 -21 v QSS_counter4;
#X obj -83 54 v QSS_counter4;
#X obj 15 -22 v QSS_counter4;
#X connect 0 0 2 0;
#X connect 1 0 0 1;
#X connect 1 0 7 2;
#X connect 1 0 9 2;
#X connect 1 0 8 2;
#X connect 1 0 10 2;
#X connect 1 0 15 2;
#X connect 1 0 17 2;
#X connect 1 0 16 2;
#X connect 1 0 18 2;
#X connect 2 0 3 0;
#X connect 2 0 35 0;
#X connect 3 0 2 1;
#X connect 4 0 33 0;
#X connect 5 0 49 0;
#X connect 5 0 51 0;
#X connect 5 0 59 0;
#X connect 5 0 58 0;
#X connect 6 0 5 1;
#X connect 7 0 11 0;
#X connect 7 1 11 1;
#X connect 8 0 12 0;
#X connect 8 1 12 1;
#X connect 9 0 13 0;
#X connect 9 1 13 1;
#X connect 10 0 14 0;
#X connect 10 1 14 1;
#X connect 15 0 19 0;
#X connect 15 1 19 1;
#X connect 16 0 20 0;
#X connect 16 1 20 1;
#X connect 17 0 21 0;
#X connect 17 1 21 1;
#X connect 18 0 22 0;
#X connect 18 1 22 1;
#X connect 23 0 61 0;
#X connect 24 0 27 0;
#X connect 25 0 27 0;
#X connect 26 0 63 0;
#X connect 27 0 62 0;
#X connect 27 1 62 0;
#X connect 32 0 29 0;
#X connect 32 0 23 0;
#X connect 32 1 30 0;
#X connect 32 1 26 0;
#X connect 32 2 31 0;
#X connect 33 0 38 0;
#X connect 33 0 5 0;
#X connect 33 3 43 0;
#X connect 33 5 45 0;
#X connect 33 7 41 0;
#X connect 34 0 27 0;
#X connect 35 0 4 0;
#X connect 36 0 0 0;
#X connect 38 0 7 0;
#X connect 39 0 8 0;
#X connect 40 0 9 0;
#X connect 41 0 10 0;
#X connect 42 0 15 0;
#X connect 43 0 16 0;
#X connect 44 0 17 0;
#X connect 45 0 18 0;
#X connect 46 0 36 0;
#X connect 47 0 28 0;
#X connect 47 0 32 0;
#X connect 48 0 6 0;
#X connect 49 0 50 0;
#X connect 49 1 50 1;
#X connect 53 0 7 1;
#X connect 53 0 9 1;
#X connect 53 0 15 1;
#X connect 53 0 17 1;
#X connect 53 0 49 1;
#X connect 53 0 18 1;
#X connect 53 0 16 1;
#X connect 53 0 10 1;
#X connect 53 0 8 1;
#X connect 54 0 53 0;
#X connect 61 0 25 0;
#X connect 62 0 1 0;
#X connect 63 0 24 0;
#X coords 0 -1 1 1 300 60 1 100 100;
#X restore 133 200 pd QSS_4.pd;
#N canvas 43 25 622 525 QSS_3.pd 0;
#X obj -172 97 metro;
#X obj 273 101 nbx 5 14 0 1e+37 0 0 empty empty empty 0 -8 0 10 -262144
-1 -1 140 256;
#X obj -130 117 f;
#X obj -104 117 + 1;
#X obj 103 137 hradio 16 1 0 8 empty empty empty 0 -8 0 15 -262144
-1 -1 7;
#X obj -172 184 f;
#X obj 197 118 hsl 128 15 0 127 0 0 empty empty empty -2 -8 0 10 -262144
-1 -1 9500 1;
#X obj -172 223 makenote 64 250;
#X obj -156 284 makenote 64 250;
#X obj -49 236 makenote 64 250;
#X obj -30 296 makenote 64 250;
#X obj -172 243 noteout 2;
#X obj -156 304 noteout 2;
#X obj -49 256 noteout 2;
#X obj -30 316 noteout 2;
#X obj 93 242 makenote 64 250;
#X obj 109 303 makenote 64 250;
#X obj 211 240 makenote 64 250;
#X obj 230 300 makenote 64 250;
#X obj 93 262 noteout 2;
#X obj 109 323 noteout 2;
#X obj 211 260 noteout 2;
#X obj 230 320 noteout 2;
#X msg -124 -11 bang;
#X obj -9 30 + 1;
#X obj -124 33 - 1;
#X msg -9 -10 bang;
#X obj -122 56 t b f;
#X obj 104 80 nbx 5 14 -1e+37 1e+37 0 0 empty empty empty 0 -8 0 10
-262144 -1 -1 1 256;
#X obj 162 79 bng 15 250 50 0 empty empty empty 17 7 0 10 -262144 -1
-1;
#X obj 182 79 bng 15 250 50 0 empty empty empty 17 7 0 10 -262144 -1
-1;
#X obj 201 79 bng 15 250 50 0 empty empty empty 17 7 0 10 -262144 -1
-1;
#X obj -103 -65 select 127 1;
#X obj -172 162 select 0 1 2 3 4 5 6 7 8 9 10 11 12 13 14;
#X obj 7 53 r stp_q_l66;
#X obj -172 117 mod 8;
#X obj 371 103 tgl 15 0 empty empty empty 17 7 0 10 -262144 -1 -1 0
113;
#X text -173 -145 3 [THREE];
#X msg 93 223 104;
#X msg 109 282 105;
#X msg 215 218 106;
#X msg 230 281 107;
#X msg -172 204 120;
#X msg -156 265 121;
#X msg 11 209 122;
#X msg -30 277 123;
#X obj -172 -118 ctlin 52;
#X obj -102 -118 ctlin 109;
#X obj -17 -118 ctlin 117;
#X obj 321 243 makenote 64 250;
#X obj 321 267 noteout 23;
#X obj -173 347 outlet;
#X text 131 188 veloicty == brightness;
#X msg 99 189 127;
#X obj 99 165 loadbang;
#X text 368 115 i|o;
#X text 329 99 tempo;
#X text 329 116 pitch;
#X obj 367 140 bng 15 250 50 0 empty empty empty 17 7 0 10 -262144
-1 -1;
#X obj 309 141 nbx 5 14 -1e+37 1e+37 0 0 empty empty empty 0 -8 0 10
-262144 -1 -1 67 256;
#X text 255 139 punchout;
#X obj -124 11 v QSS_counter3;
#X obj -9 10 v QSS_counter3;
#X obj -108 78 v QSS_counter3;
#X connect 0 0 2 0;
#X connect 1 0 0 1;
#X connect 1 0 7 2;
#X connect 1 0 9 2;
#X connect 1 0 8 2;
#X connect 1 0 10 2;
#X connect 1 0 15 2;
#X connect 1 0 17 2;
#X connect 1 0 16 2;
#X connect 1 0 18 2;
#X connect 2 0 3 0;
#X connect 2 0 35 0;
#X connect 3 0 2 1;
#X connect 4 0 33 0;
#X connect 5 0 49 0;
#X connect 5 0 51 0;
#X connect 5 0 59 0;
#X connect 5 0 58 0;
#X connect 6 0 5 1;
#X connect 7 0 11 0;
#X connect 7 1 11 1;
#X connect 8 0 12 0;
#X connect 8 1 12 1;
#X connect 9 0 13 0;
#X connect 9 1 13 1;
#X connect 10 0 14 0;
#X connect 10 1 14 1;
#X connect 15 0 19 0;
#X connect 15 1 19 1;
#X connect 16 0 20 0;
#X connect 16 1 20 1;
#X connect 17 0 21 0;
#X connect 17 1 21 1;
#X connect 18 0 22 0;
#X connect 18 1 22 1;
#X connect 23 0 61 0;
#X connect 24 0 27 0;
#X connect 25 0 27 0;
#X connect 26 0 62 0;
#X connect 27 0 63 0;
#X connect 27 1 63 0;
#X connect 32 0 29 0;
#X connect 32 0 23 0;
#X connect 32 1 30 0;
#X connect 32 1 26 0;
#X connect 32 2 31 0;
#X connect 33 0 42 0;
#X connect 33 0 5 0;
#X connect 33 3 39 0;
#X connect 33 5 41 0;
#X connect 33 7 45 0;
#X connect 34 0 27 0;
#X connect 35 0 4 0;
#X connect 36 0 0 0;
#X connect 38 0 15 0;
#X connect 39 0 16 0;
#X connect 40 0 17 0;
#X connect 41 0 18 0;
#X connect 42 0 7 0;
#X connect 43 0 8 0;
#X connect 44 0 9 0;
#X connect 45 0 10 0;
#X connect 46 0 36 0;
#X connect 47 0 28 0;
#X connect 47 0 32 0;
#X connect 48 0 6 0;
#X connect 49 0 50 0;
#X connect 49 1 50 1;
#X connect 53 0 7 1;
#X connect 53 0 9 1;
#X connect 53 0 15 1;
#X connect 53 0 17 1;
#X connect 53 0 49 1;
#X connect 53 0 18 1;
#X connect 53 0 8 1;
#X connect 53 0 10 1;
#X connect 53 0 16 1;
#X connect 54 0 53 0;
#X connect 61 0 25 0;
#X connect 62 0 24 0;
#X connect 63 0 1 0;
#X coords 0 -1 1 1 300 60 1 100 100;
#X restore 109 134 pd QSS_3.pd;
#N canvas 8 26 595 424 QSS_2.pd 0;
#X obj -122 55 metro;
#X obj 271 102 nbx 5 14 0 1e+37 0 0 empty empty empty 0 -8 0 10 -262144
-1 -1 205 256;
#X obj -80 76 f;
#X obj -54 83 + 1;
#X obj 102 137 hradio 16 1 0 8 empty empty empty 0 -8 0 15 -262144
-1 -1 7;
#X obj -183 140 f;
#X obj 195 118 hsl 128 15 0 127 0 0 empty empty empty -2 -8 0 10 -262144
-1 -1 1500 1;
#X obj -183 179 makenote 64 250;
#X obj -167 240 makenote 64 250;
#X obj -60 192 makenote 64 250;
#X obj -41 252 makenote 64 250;
#X obj -183 199 noteout 2;
#X obj -167 260 noteout 2;
#X obj -60 212 noteout 2;
#X obj -41 272 noteout 2;
#X obj 66 198 makenote 64 250;
#X obj 82 259 makenote 64 250;
#X obj 184 196 makenote 64 250;
#X obj 203 256 makenote 64 250;
#X obj 66 218 noteout 2;
#X obj 82 279 noteout 2;
#X obj 184 216 noteout 2;
#X obj 203 276 noteout 2;
#X msg -123 -23 bang;
#X obj -8 16 + 1;
#X obj -123 23 - 1;
#X msg -8 -31 bang;
#X obj -82 25 t b f;
#X obj 102 71 nbx 5 14 -1e+37 1e+37 0 0 empty empty empty 0 -8 0 10
-262144 -1 -1 1 256;
#X obj 162 70 bng 15 250 50 0 empty empty empty 17 7 0 10 -262144 -1
-1;
#X obj 182 70 bng 15 250 50 0 empty empty empty 17 7 0 10 -262144 -1
-1;
#X obj 201 70 bng 15 250 50 0 empty empty empty 17 7 0 10 -262144 -1
-1;
#X obj -101 -51 select 127 1;
#X obj -183 118 select 0 1 2 3 4 5 6 7 8 9 10 11 12 13 14;
#X obj -7 36 r stp_q_l66;
#X obj -122 83 mod 8;
#X obj 373 105 tgl 15 0 empty empty empty 17 7 0 10 -262144 -1 -1 0
120;
#X text -169 -97 2 [TWO];
#X msg -183 160 116;
#X msg -167 221 117;
#X msg 0 165 118;
#X msg -41 233 119;
#X msg 66 179 100;
#X msg 82 238 101;
#X msg 221 175 102;
#X msg 203 237 103;
#X obj -166 -75 ctlin 51;
#X obj -101 -75 ctlin 110;
#X obj -16 -76 ctlin 118;
#X obj -181 303 outlet;
#X obj 293 199 makenote 64 250;
#X obj 293 223 noteout 22;
#X text 67 163 veloicty == brightness;
#X msg 35 164 127;
#X obj 35 140 loadbang;
#X text 370 117 i|o;
#X text 327 100 tempo;
#X text 327 117 pitch;
#X obj 373 140 bng 15 250 50 0 empty empty empty 17 7 0 10 -262144
-1 -1;
#X obj 315 141 nbx 5 14 -1e+37 1e+37 0 0 empty empty empty 0 -8 0 10
-262144 -1 -1 12 256;
#X text 261 139 punchout;
#X obj -123 -1 v QSS_counter2;
#X obj -27 60 v QSS_counter2;
#X obj -8 -8 v QSS_counter2;
#X connect 0 0 2 0;
#X connect 1 0 0 1;
#X connect 2 0 3 0;
#X connect 2 0 35 0;
#X connect 3 0 2 1;
#X connect 4 0 33 0;
#X connect 5 0 49 0;
#X connect 5 0 50 0;
#X connect 5 0 59 0;
#X connect 5 0 58 0;
#X connect 6 0 5 1;
#X connect 7 0 11 0;
#X connect 7 1 11 1;
#X connect 8 0 12 0;
#X connect 8 1 12 1;
#X connect 9 0 13 0;
#X connect 9 1 13 1;
#X connect 10 0 14 0;
#X connect 10 1 14 1;
#X connect 15 0 19 0;
#X connect 15 1 19 1;
#X connect 16 0 20 0;
#X connect 16 1 20 1;
#X connect 17 0 21 0;
#X connect 17 1 21 1;
#X connect 18 0 22 0;
#X connect 18 1 22 1;
#X connect 23 0 61 0;
#X connect 24 0 27 0;
#X connect 25 0 27 0;
#X connect 26 0 63 0;
#X connect 27 0 62 0;
#X connect 27 1 62 0;
#X connect 32 0 29 0;
#X connect 32 0 23 0;
#X connect 32 1 30 0;
#X connect 32 1 26 0;
#X connect 32 2 31 0;
#X connect 33 0 38 0;
#X connect 33 0 5 0;
#X connect 33 3 43 0;
#X connect 33 5 45 0;
#X connect 33 7 41 0;
#X connect 34 0 27 0;
#X connect 35 0 4 0;
#X connect 36 0 0 0;
#X connect 38 0 7 0;
#X connect 39 0 8 0;
#X connect 40 0 9 0;
#X connect 41 0 10 0;
#X connect 42 0 15 0;
#X connect 43 0 16 0;
#X connect 44 0 17 0;
#X connect 45 0 18 0;
#X connect 46 0 36 0;
#X connect 47 0 28 0;
#X connect 47 0 32 0;
#X connect 48 0 6 0;
#X connect 50 0 51 0;
#X connect 50 1 51 1;
#X connect 53 0 7 1;
#X connect 53 0 9 1;
#X connect 53 0 15 1;
#X connect 53 0 17 1;
#X connect 53 0 50 1;
#X connect 53 0 18 1;
#X connect 53 0 16 1;
#X connect 53 0 10 1;
#X connect 53 0 8 1;
#X connect 54 0 53 0;
#X connect 61 0 25 0;
#X connect 62 0 1 0;
#X connect 63 0 24 0;
#X coords 0 -1 1 1 300 60 1 100 100;
#X restore 89 69 pd QSS_2.pd;
#N canvas 401 90 597 304 QSS_fidd.pd 0;
#X obj 428 40 unpack;
#X floatatom 248 143 0 0 0 0 - - -;
#X floatatom 276 143 0 0 0 0 - - -;
#X obj 428 0 route 1 2 3 4;
#X obj 472 41 unpack;
#X floatatom 307 143 0 0 0 0 - - -;
#X floatatom 336 143 0 0 0 0 - - -;
#X obj 516 41 unpack;
#X floatatom 364 143 0 0 0 0 - - -;
#X floatatom 376 109 0 0 0 0 - - -;
#X obj 287 21 unpack;
#X floatatom 160 143 0 0 0 0 - - -;
#X floatatom 189 143 0 0 0 0 - - -;
#X floatatom 218 143 0 0 0 0 - - -;
#X obj 307 -31 fiddle~ 1024 1 20 3;
#X obj 102 145 bng 15 250 50 0 empty empty empty 17 7 0 10 -262144
-1 -1;
#X floatatom 122 144 5 0 0 0 - - -;
#X obj 106 175 outlet;
#X text 121 129 pitch;
#X text 158 128 pitch&amp;
#X text 220 128 dB;
#X text 429 24 sinusoidal components;
#X text 100 129 atk;
#X obj 63 175 outlet;
#X obj 149 175 outlet;
#X obj 192 175 outlet;
#X obj 235 175 outlet;
#X obj 278 175 outlet;
#X obj 321 175 outlet;
#X obj 364 175 outlet;
#X obj 407 175 outlet;
#X obj 450 175 outlet;
#X obj 493 175 outlet;
#X obj 497 82 int;
#X obj 356 40 int;
#X obj 302 58 int;
#X obj 269 56 int;
#X obj 196 38 int;
#X obj 366 63 int;
#X obj 394 67 int;
#X obj 419 70 int;
#X obj 446 75 int;
#X obj 472 79 int;
#X text 247 127 3x sinusoidal componentz;
#X obj 269 -61 spigot~;
#X obj 248 -91 adc~;
#X obj 266 105 tgl 15 0 empty empty empty 17 7 0 10 -262144 -1 -1 1
1;
#X text 285 104 adc i/o;
#X text 193 106 ¡INTZ!;
#X connect 0 0 38 0;
#X connect 0 1 39 0;
#X connect 1 0 27 0;
#X connect 2 0 28 0;
#X connect 3 0 0 0;
#X connect 3 1 4 0;
#X connect 3 2 7 0;
#X connect 4 0 40 0;
#X connect 4 1 41 0;
#X connect 5 0 29 0;
#X connect 6 0 30 0;
#X connect 7 0 42 0;
#X connect 7 1 33 0;
#X connect 8 0 31 0;
#X connect 9 0 32 0;
#X connect 10 0 36 0;
#X connect 10 1 35 0;
#X connect 11 0 24 0;
#X connect 12 0 25 0;
#X connect 13 0 26 0;
#X connect 14 0 37 0;
#X connect 14 1 15 0;
#X connect 14 2 10 0;
#X connect 14 3 34 0;
#X connect 14 4 3 0;
#X connect 15 0 23 0;
#X connect 16 0 17 0;
#X connect 33 0 9 0;
#X connect 34 0 13 0;
#X connect 35 0 12 0;
#X connect 36 0 11 0;
#X connect 37 0 16 0;
#X connect 38 0 1 0;
#X connect 39 0 2 0;
#X connect 40 0 5 0;
#X connect 41 0 6 0;
#X connect 42 0 8 0;
#X connect 44 1 14 0;
#X connect 45 1 44 0;
#X connect 46 0 44 1;
#X coords 0 -1 1 1 300 70 1 100 100;
#X restore 69 -89 pd QSS_fidd.pd;
#N canvas 754 35 324 227 QSS_s.pd 0;
#X obj 212 112 loadbang;
#X msg 212 131 66;
#X obj 212 150 s stp_q_l66;
#X obj 155 72 ctlin 94;
#X msg 122 179 0;
#X obj 101 72 ctlin 93;
#X obj 210 72 ctlin 95;
#X msg 256 131 666;
#X obj 123 141 tgl 15 0 empty empty empty 17 7 0 10 -262144 -1 -1 0
127;
#X obj 144 141 tgl 15 0 empty empty empty 17 7 0 10 -262144 -1 -1 0
1;
#X obj 101 141 tgl 15 0 empty empty empty 17 7 0 10 -262144 -1 -1 0
127;
#X obj 122 198 s QSS_alloff;
#X text 121 154 off;
#X text 101 115 top 3 q;
#X text 101 126 buttonz;
#X connect 0 0 1 0;
#X connect 1 0 2 0;
#X connect 3 0 8 0;
#X connect 4 0 11 0;
#X connect 5 0 10 0;
#X connect 6 0 9 0;
#X connect 7 0 2 0;
#X connect 8 0 4 0;
#X coords 0 -1 1 1 50 70 1 100 100;
#X restore -21 -78 pd QSS_s.pd;
#N canvas 571 117 656 550 QSS_phz1.pd 0;
#X obj 68 169 dac~;
#X obj 1 168 dac~ 1 2;
#X obj 1 139 *~;
#X obj 1 115 *~;
#X obj 102 133 vsl 45 40 0 1 0 0 empty empty MSTR_VOL 0 -9 0 10 -228856
-260097 -1 2574 1;
#X text 25 112 CH1;
#X text 25 139 CH2;
#X obj 265 74 phasor~;
#X msg 321 33 0;
#X text 343 32 alloff;
#X obj 317 8 r QSS_alloff;
#X obj 102 8 inlet;
#X obj 142 8 inlet;
#X obj 182 8 inlet;
#X obj 222 8 inlet;
#X obj 222 30 mtof;
#X obj 182 30 mtof;
#X obj 142 30 mtof;
#X obj 102 30 mtof;
#X obj 151 138 bng 15 250 50 0 empty empty reset 17 7 0 10 -228856
-260097 -1;
#X obj 151 157 tgl 15 0 empty empty fltr 17 7 0 10 -128992 -232576
-1 1 1;
#X obj 266 206 spigot~;
#X obj 102 194 vsl 40 50 0 127 0 0 empty empty empty 0 -9 0 10 -128992
-159808 -1 0 1;
#X obj 143 194 vsl 40 50 1 4 0 0 empty empty empty 0 -9 0 10 -128992
-232576 -1 0 1;
#X obj 106 264 mtof;
#X text 110 175 FREQ;
#X text 161 175 Q;
#X obj 250 487 moog~;
#X floatatom 303 438 5 0 0 0 - - -;
#X floatatom 247 381 5 0 0 0 - - -;
#X msg 246 440 reset;
#X obj 180 382 +~ 1;
#X floatatom 180 340 5 0 0 0 - - -;
#X floatatom 244 405 5 0 0 0 - - -;
#X obj 180 423 +~ 100;
#X obj 180 361 osc~ 0.25;
#X obj 180 402 *~ 2000;
#X obj 290 459 sig~ 3;
#X text 336 440 Q (1-4);
#X text 125 323 resonance freq modulation;
#X obj 332 105 ctlin 73 1;
#X obj 332 132 autoscale 0 1;
#X obj 336 201 autoscale 0 1;
#X obj 336 176 ctlin 74 1;
#X obj 351 248 ctlin 103 1;
#X obj 351 290 autoscale 1 4;
#X obj 351 268 ctlin 102 1;
#X obj 230 151 loadbang;
#X obj 165 68 loadbang;
#X msg 165 90 0.66;
#X obj 348 367 autoscale 1 4;
#X obj 348 325 ctlin 101 1;
#X obj 348 345 ctlin 100 1;
#X connect 2 0 1 0;
#X connect 2 0 1 1;
#X connect 3 0 1 1;
#X connect 3 0 1 0;
#X connect 4 0 3 1;
#X connect 4 0 2 1;
#X connect 7 0 21 0;
#X connect 8 0 7 1;
#X connect 8 0 7 0;
#X connect 10 0 8 0;
#X connect 11 0 18 0;
#X connect 12 0 17 0;
#X connect 13 0 16 0;
#X connect 14 0 15 0;
#X connect 15 0 7 0;
#X connect 16 0 7 0;
#X connect 17 0 7 0;
#X connect 18 0 7 0;
#X connect 19 0 8 0;
#X connect 20 0 21 1;
#X connect 21 0 3 0;
#X connect 21 0 2 0;
#X connect 21 1 27 0;
#X connect 22 0 24 0;
#X connect 23 0 37 0;
#X connect 23 0 28 0;
#X connect 24 0 32 0;
#X connect 27 0 3 0;
#X connect 27 0 2 0;
#X connect 29 0 36 1;
#X connect 30 0 27 0;
#X connect 31 0 36 0;
#X connect 32 0 35 0;
#X connect 33 0 34 1;
#X connect 34 0 27 1;
#X connect 35 0 31 0;
#X connect 36 0 34 0;
#X connect 37 0 27 2;
#X connect 40 0 41 0;
#X connect 41 0 4 0;
#X connect 42 0 4 0;
#X connect 43 0 42 0;
#X connect 44 0 22 0;
#X connect 45 0 23 0;
#X connect 46 0 45 0;
#X connect 47 0 20 0;
#X connect 48 0 49 0;
#X connect 49 0 4 0;
#X connect 50 0 23 0;
#X connect 51 0 22 0;
#X connect 52 0 50 0;
#X coords 0 -1 1 1 100 150 1 100 100;
#X restore -24 119 pd QSS_phz1.pd;
#N canvas 585 310 727 455 QSS_phz2.pd 0;
#X obj 57 166 dac~;
#X obj -10 165 dac~ 1 2;
#X obj -10 136 *~;
#X obj -10 112 *~;
#X obj 104 132 vsl 45 40 0 1 0 0 empty empty MSTR_VOL 0 -9 0 10 -228856
-260097 -1 2574 1;
#X text 14 109 CH1;
#X text 14 136 CH2;
#X obj 265 74 phasor~;
#X msg 321 33 0;
#X text 343 32 alloff;
#X obj 317 8 r QSS_alloff;
#X obj 102 8 inlet;
#X obj 142 8 inlet;
#X obj 182 8 inlet;
#X obj 222 8 inlet;
#X obj 222 30 mtof;
#X obj 182 30 mtof;
#X obj 142 30 mtof;
#X obj 102 30 mtof;
#X obj 153 135 bng 15 250 50 0 empty empty reset 17 7 0 10 -228856
-260097 -1;
#X obj 153 155 tgl 15 0 empty empty fltr 17 7 0 10 -99865 -232576 -1
1 1;
#X obj 268 199 spigot~;
#X obj 103 194 vsl 40 50 0 127 0 0 empty empty empty 0 -9 0 10 -99865
-159808 -1 0 1;
#X obj 144 194 vsl 40 50 1 4 0 0 empty empty empty 0 -9 0 10 -99865
-232576 -1 0 1;
#X obj 107 261 mtof;
#X text 111 175 FREQ;
#X text 162 175 Q;
#X obj 252 480 moog~;
#X floatatom 305 431 5 0 0 0 - - -;
#X floatatom 249 374 5 0 0 0 - - -;
#X msg 248 433 reset;
#X obj 182 375 +~ 1;
#X floatatom 182 333 5 0 0 0 - - -;
#X floatatom 246 398 5 0 0 0 - - -;
#X obj 182 416 +~ 100;
#X obj 182 354 osc~ 0.25;
#X obj 182 395 *~ 2000;
#X obj 292 452 sig~ 3;
#X text 338 433 Q (1-4);
#X text 127 316 resonance freq modulation;
#X obj 331 96 ctlin 73 1;
#X obj 331 123 autoscale 0 1;
#X obj 331 176 autoscale 0 1;
#X obj 338 357 autoscale 1 4;
#X obj 219 149 loadbang;
#X obj 105 56 loadbang;
#X msg 105 78 0.66;
#X obj 331 151 ctlin 75 1;
#X obj 338 277 autoscale 1 4;
#X obj 338 235 ctlin 103 1;
#X obj 338 255 ctlin 102 1;
#X obj 338 315 ctlin 99 1;
#X obj 338 335 ctlin 98 1;
#X connect 2 0 1 0;
#X connect 2 0 1 1;
#X connect 3 0 1 1;
#X connect 3 0 1 0;
#X connect 4 0 3 1;
#X connect 4 0 2 1;
#X connect 7 0 21 0;
#X connect 8 0 7 1;
#X connect 8 0 7 0;
#X connect 10 0 8 0;
#X connect 11 0 18 0;
#X connect 12 0 17 0;
#X connect 13 0 16 0;
#X connect 14 0 15 0;
#X connect 15 0 7 0;
#X connect 16 0 7 0;
#X connect 17 0 7 0;
#X connect 18 0 7 0;
#X connect 19 0 8 0;
#X connect 20 0 21 1;
#X connect 21 0 3 0;
#X connect 21 0 2 0;
#X connect 21 1 27 0;
#X connect 22 0 24 0;
#X connect 23 0 37 0;
#X connect 23 0 28 0;
#X connect 24 0 32 0;
#X connect 27 0 3 0;
#X connect 27 0 2 0;
#X connect 29 0 36 1;
#X connect 30 0 27 0;
#X connect 31 0 36 0;
#X connect 32 0 35 0;
#X connect 33 0 34 1;
#X connect 34 0 27 1;
#X connect 35 0 31 0;
#X connect 36 0 34 0;
#X connect 37 0 27 2;
#X connect 40 0 41 0;
#X connect 41 0 4 0;
#X connect 42 0 4 0;
#X connect 43 0 23 0;
#X connect 44 0 20 0;
#X connect 45 0 46 0;
#X connect 46 0 4 0;
#X connect 47 0 42 0;
#X connect 48 0 23 0;
#X connect 49 0 22 0;
#X connect 50 0 48 0;
#X connect 51 0 22 0;
#X connect 52 0 43 0;
#X coords 0 -1 1 1 100 150 1 100 100;
#X restore -23 272 pd QSS_phz2.pd;
#N canvas 568 209 623 516 QSS_phz3.pd 0;
#X obj 43 167 dac~;
#X obj -24 166 dac~ 1 2;
#X obj -24 137 *~;
#X obj -24 113 *~;
#X obj 102 131 vsl 45 40 0 1 0 0 empty empty MSTR_VOL 0 -9 0 10 -228856
-260097 -1 2574 1;
#X text 0 110 CH1;
#X text 0 137 CH2;
#X obj 265 74 phasor~;
#X msg 321 33 0;
#X text 343 32 alloff;
#X obj 317 8 r QSS_alloff;
#X obj 102 8 inlet;
#X obj 142 8 inlet;
#X obj 182 8 inlet;
#X obj 222 8 inlet;
#X obj 222 30 mtof;
#X obj 182 30 mtof;
#X obj 142 30 mtof;
#X obj 102 30 mtof;
#X obj 151 136 bng 15 250 50 0 empty empty reset 17 7 0 10 -228856
-260097 -1;
#X obj 151 156 tgl 15 0 empty empty fltr 17 7 0 10 -99865 -232576 -1
1 1;
#X obj 267 199 spigot~;
#X obj 102 194 vsl 40 50 0 127 0 0 empty empty empty 0 -9 0 10 -99865
-159808 -1 0 1;
#X obj 143 194 vsl 40 50 1 4 0 0 empty empty empty 0 -9 0 10 -99865
-232576 -1 0 1;
#X obj 106 261 mtof;
#X text 110 175 FREQ;
#X text 161 175 Q;
#X obj 251 480 moog~;
#X floatatom 304 431 5 0 0 0 - - -;
#X floatatom 248 374 5 0 0 0 - - -;
#X msg 247 433 reset;
#X obj 181 375 +~ 1;
#X floatatom 181 333 5 0 0 0 - - -;
#X floatatom 245 398 5 0 0 0 - - -;
#X obj 181 416 +~ 100;
#X obj 181 354 osc~ 0.25;
#X obj 181 395 *~ 2000;
#X obj 291 452 sig~ 3;
#X text 337 433 Q (1-4);
#X text 126 316 resonance freq modulation;
#X obj 341 106 ctlin 73 1;
#X obj 341 133 autoscale 0 1;
#X obj 341 186 autoscale 0 1;
#X obj 348 287 autoscale 1 4;
#X obj 217 154 loadbang;
#X obj 103 57 loadbang;
#X msg 103 79 0.66;
#X obj 341 161 ctlin 76 1;
#X obj 346 361 autoscale 1 4;
#X obj 346 319 ctlin 97 1;
#X obj 346 339 ctlin 96 1;
#X obj 348 245 ctlin 103 1;
#X obj 348 265 ctlin 102 1;
#X connect 2 0 1 0;
#X connect 2 0 1 1;
#X connect 3 0 1 1;
#X connect 3 0 1 0;
#X connect 4 0 3 1;
#X connect 4 0 2 1;
#X connect 7 0 21 0;
#X connect 8 0 7 1;
#X connect 8 0 7 0;
#X connect 10 0 8 0;
#X connect 11 0 18 0;
#X connect 12 0 17 0;
#X connect 13 0 16 0;
#X connect 14 0 15 0;
#X connect 15 0 7 0;
#X connect 16 0 7 0;
#X connect 17 0 7 0;
#X connect 18 0 7 0;
#X connect 19 0 8 0;
#X connect 20 0 21 1;
#X connect 21 0 3 0;
#X connect 21 0 2 0;
#X connect 21 1 27 0;
#X connect 22 0 24 0;
#X connect 23 0 37 0;
#X connect 23 0 28 0;
#X connect 24 0 32 0;
#X connect 27 0 3 0;
#X connect 27 0 2 0;
#X connect 29 0 36 1;
#X connect 30 0 27 0;
#X connect 31 0 36 0;
#X connect 32 0 35 0;
#X connect 33 0 34 1;
#X connect 34 0 27 1;
#X connect 35 0 31 0;
#X connect 36 0 34 0;
#X connect 37 0 27 2;
#X connect 40 0 41 0;
#X connect 41 0 4 0;
#X connect 42 0 4 0;
#X connect 43 0 23 0;
#X connect 44 0 20 0;
#X connect 45 0 46 0;
#X connect 46 0 4 0;
#X connect 47 0 42 0;
#X connect 48 0 23 0;
#X connect 49 0 22 0;
#X connect 50 0 48 0;
#X connect 51 0 22 0;
#X connect 52 0 43 0;
#X coords 0 -1 1 1 100 150 1 100 100;
#X restore -22 439 pd QSS_phz3.pd;
#N canvas 388 23 400 290 QSS_q_s.pd 0;
#X obj 39 2 ctlin 126;
#X obj -33 135 ctlin 123;
#X obj 30 135 ctlin 122;
#X obj -44 207 ctlin 121;
#X obj 27 203 ctlin 120;
#X obj 113 159 tgl 15 0 empty empty empty 17 7 0 10 -262144 -1 -1 0
96;
#X obj 134 159 tgl 15 0 empty empty empty 17 7 0 10 -262144 -1 -1 0
107;
#X obj 112 179 tgl 15 0 empty empty empty 17 7 0 10 -262144 -1 -1 0
32;
#X obj 134 178 tgl 15 0 empty empty empty 17 7 0 10 -262144 -1 -1 0
66;
#X obj -84 177 spigot 85;
#X obj -20 177 spigot 85;
#X obj -95 245 spigot 85;
#X obj -24 245 spigot 85;
#X obj 134 138 tgl 15 0 empty empty empty 17 7 0 10 -262144 -1 -1 0
48;
#X obj -17 117 spigot 85;
#X obj 37 72 ctlin 124;
#X obj 112 138 tgl 15 0 empty empty empty 17 7 0 10 -262144 -1 -1 0
67;
#X obj -87 112 spigot 85;
#X obj -35 67 ctlin 125;
#X obj 134 118 tgl 15 0 empty empty empty 17 7 0 10 -262144 -1 -1 0
105;
#X obj -12 44 spigot 85;
#X floatatom 212 96 3 0 0 0 - - -;
#X obj 185 48 notein;
#X obj 185 67 stripnote;
#X floatatom 185 86 3 0 0 0 - - -;
#X obj 185 111 bng 20 250 50 0 empty empty empty 17 7 0 10 -262144
-1 -1;
#X obj 183 139 ctlin;
#X obj 168 166 nbx 3 14 -1e+37 1e+37 0 0 empty empty empty 0 -8 0 10
-262144 -1 -1 0 256;
#X obj 208 180 nbx 3 14 -1e+37 1e+37 0 0 empty empty empty 0 -8 0 10
-262144 -1 -1 50 256;
#X obj 188 200 nbx 3 14 -1e+37 1e+37 0 0 empty empty empty 0 -8 0 10
-262144 -1 -1 1 256;
#X text 185 31 MIDI REF;
#X connect 0 0 19 0;
#X connect 1 0 5 0;
#X connect 2 0 6 0;
#X connect 3 0 7 0;
#X connect 4 0 8 0;
#X connect 5 0 9 1;
#X connect 6 0 10 1;
#X connect 7 0 11 1;
#X connect 8 0 12 1;
#X connect 13 0 14 1;
#X connect 15 0 13 0;
#X connect 16 0 17 1;
#X connect 18 0 16 0;
#X connect 19 0 20 1;
#X connect 22 0 23 0;
#X connect 22 1 23 1;
#X connect 23 0 24 0;
#X connect 23 1 21 0;
#X connect 24 0 25 0;
#X connect 26 0 27 0;
#X connect 26 1 28 0;
#X connect 26 2 29 0;
#X coords 0 -1 1 1 60 100 1 100 100;
#X restore -21 -3 pd QSS_q_s.pd;
#X obj 599 -79 import mrpeach;
#X obj 903 285 udpsend;
#X obj 660 -7 vsl 15 128 0 1 0 0 empty empty empty 0 -9 0 10 -262144
-1 -1 8900 1;
#X obj 684 -6 vsl 15 128 0 1 0 0 empty empty empty 0 -9 0 10 -262144
-1 -1 6400 1;
#X obj 607 -7 vsl 15 128 0 1 0 0 empty empty empty 0 -9 0 10 -262144
-1 -1 8449 1;
#X obj 708 -6 vsl 15 128 0 1 0 0 empty empty empty 0 -9 0 10 -262144
-1 -1 3800 1;
#X obj 732 -7 vsl 15 128 0 1 0 0 empty empty empty 0 -9 0 10 -262144
-1 -1 12700 1;
#X obj 756 -6 vsl 15 128 0 1 0 0 empty empty empty 0 -9 0 10 -262144
-1 -1 12700 1;
#X obj 931 -9 vsl 15 128 0 50 0 0 empty empty empty 0 -9 0 10 -262144
-1 -1 10120 1;
#X text 904 -50 5 tones - offset 0-127 mapped 0-50;
#X obj 955 -9 vsl 15 128 0 50 0 0 empty empty empty 0 -9 0 10 -262144
-1 -1 6865 1;
#X obj 979 -9 vsl 15 128 0 50 0 0 empty empty empty 0 -9 0 10 -262144
-1 -1 5765 1;
#X obj 1008 -9 vsl 15 128 0 50 0 0 empty empty empty 0 -9 0 10 -262144
-1 -1 9906 1;
#X obj 1036 -8 vsl 15 128 0 50 0 0 empty empty empty 0 -9 0 10 -262144
-1 -1 6565 1;
#X obj 847 5 vsl 15 128 0 127 0 0 empty empty empty 0 -9 0 10 -262144
-1 -1 0 1;
#X text 806 -33 master tune;
#X obj 1161 -8 vsl 15 128 0 127 0 0 empty empty empty 0 -9 0 10 -262144
-1 -1 10500 1;
#X text 1143 -41 tones lpf;
#X obj 1252 -10 vsl 15 128 0 127 0 0 empty empty empty 0 -9 0 10 -262144
-1 -1 3400 1;
#X text 1235 -38 tones hpf;
#X obj 1365 -9 vsl 15 128 0 1 0 0 empty empty empty 0 -9 0 10 -262144
-1 -1 12200 1;
#X msg 1206 243 connect localhost 9001;
#X msg 1206 270 disconnect;
#X obj 903 259 packOSC;
#X text 1010 -31 +;
#X text 933 -31 +;
#X text 956 -31 -;
#X text 981 -32 -;
#X text 1038 -31 -;
#X msg 833 182 send /t1 \$1;
#X msg 911 182 send /t2 \$1;
#X msg 990 182 send /t3 \$1;
#X msg 1068 182 send /t4 \$1;
#X msg 1146 184 send /t5 \$1;
#X msg 1225 182 send /t6 \$1;
#X msg 1329 182 send /tlpf \$1;
#X msg 1425 182 send /thpf \$1;
#X msg 1530 182 send /tvca \$1;
#X msg 607 142 send /vca1 \$1;
#X msg 622 167 send /vca2 \$1;
#X msg 642 194 send /vca3 \$1;
#X msg 653 218 send /vca4 \$1;
#X msg 676 239 send /vca5 \$1;
#X msg 685 264 send /vca6 \$1;
#X obj 596 322 hsl 128 15 0 360 0 0 empty empty empty -2 -8 0 10 -262144
-1 -1 3100 1;
#X msg 594 349 send /pan1 \$1;
#X obj 738 322 hsl 128 15 0 360 0 0 empty empty empty -2 -8 0 10 -262144
-1 -1 5600 1;
#X obj 875 322 hsl 128 15 0 360 0 0 empty empty empty -2 -8 0 10 -262144
-1 -1 4400 1;
#X obj 1017 322 hsl 128 15 0 360 0 0 empty empty empty -2 -8 0 10 -262144
-1 -1 3100 1;
#X obj 1156 322 hsl 128 15 0 360 0 0 empty empty empty -2 -8 0 10 -262144
-1 -1 6200 1;
#X obj 1298 322 hsl 128 15 0 360 0 0 empty empty empty -2 -8 0 10 -262144
-1 -1 7900 1;
#X msg 736 349 send /pan2 \$1;
#X msg 873 349 send /pan3 \$1;
#X msg 1015 349 send /pan4 \$1;
#X msg 1154 349 send /pan5 \$1;
#X msg 1296 349 send /pan6 \$1;
#X obj 1505 -2 vsl 15 128 0 1 0 0 empty empty empty 0 -9 0 10 -262144
-1 -1 0 1;
#X msg 1628 183 send /nvca \$1;
#X obj 1206 218 loadbang;
#X obj 1578 52 hsl 128 15 0 360 0 0 empty empty empty -2 -8 0 10 -262144
-1 -1 5100 1;
#X text 1599 27 noise pan;
#X msg 1575 78 send /npan \$1;
#X obj 1741 -7 vsl 15 128 0 1 0 0 empty empty empty 0 -9 0 10 -262144
-1 -1 4600 1;
#X text 1733 -37 bass vca;
#X text 1492 -29 noise vca;
#X text 1351 -39 tones vca;
#X msg 1724 183 send /bvca \$1;
#X obj 1818 -3 vsl 15 128 0 127 0 0 empty empty empty 0 -9 0 10 -262144
-1 -1 6500 1;
#X text 1806 -33 bass freq;
#X msg 1818 182 send /bfreq \$1;
#X obj 1946 -2 vsl 15 128 0 127 0 0 empty empty empty 0 -9 0 10 -262144
-1 -1 1500 1;
#X text 1925 -31 formant time;
#X msg 1946 187 send /formanttime \$1;
#X obj 2032 -4 vradio 15 1 0 9 empty empty empty 0 -8 0 10 -262144
-1 -1 1;
#X text 2025 -29 vowel;
#X text 2052 -6 ee;
#X text 2051 9 ih;
#X text 2050 24 eh;
#X text 2051 41 ae;
#X text 2050 71 oo;
#X text 2049 84 uh;
#X text 2054 100 o;
#X text 2052 116 ah;
#X obj 2032 240 sel 0 1 2 3 4 5 6 7 8;
#X text 2050 55 a;
#X obj 585 460 vsl 15 128 0 1 0 0 empty empty empty 0 -9 0 10 -262144
-1 -1 2290 1;
#X obj 662 462 vsl 15 128 0 1 0 0 empty empty empty 0 -9 0 10 -262144
-1 -1 12700 1;
#X obj 743 460 vsl 15 128 0 1 0 0 empty empty empty 0 -9 0 10 -262144
-1 -1 12700 1;
#X text 585 392 hue;
#X text 652 393 saturation;
#X text 737 391 value;
#X msg 1970 275 send /vowel_ee;
#X msg 1994 297 send /vowel_ih;
#X msg 2014 320 send /vowel_eh;
#X msg 2038 342 send /vowel_ae;
#X msg 2060 365 send /vowel_a;
#X msg 2084 387 send /vowel_oo;
#X msg 2104 410 send /vowel_uh;
#X msg 2128 432 send /vowel_o;
#X msg 2148 458 send /vowel_ah;
#X obj 1724 -85 ctlin 73 1;
#X obj 1724 -58 autoscale 0 1;
#X obj 1875 -67 ctlin 103 1;
#X obj 1981 -60 autoscale 1 4;
#X obj 1981 -82 ctlin 102 1;
#X obj 515 -79 bng 15 250 50 0 empty empty empty 17 7 0 10 -262144
-1 -1;
#X obj 555 -79 bng 15 250 50 0 empty empty empty 17 7 0 10 -262144
-1 -1;
#X obj 515 575 bng 15 250 50 0 empty empty empty 17 7 0 10 -262144
-1 -1;
#X obj 555 575 bng 15 250 50 0 empty empty empty 17 7 0 10 -262144
-1 -1;
#X obj 2106 -24 autoscale 1 8;
#X obj 2109 20 autoscale 1 8;
#X obj 880 -76 autoscale 0 50;
#X obj 643 -57 autoscale 0 1;
#X text -23 102 3x phz ununsed;
#X text 607 -25 1;
#X text 660 -25 2;
#X text 686 -22 3;
#X text 710 -26 4;
#X text 738 -25 5;
#X text 758 -25 6;
#X text 832 -28 7;
#X text 933 -38 8;
#X text 956 -39 9;
#X text 978 -41 10;
#X text 1007 -41 11;
#X text 1035 -40 12;
#X text 1161 -28 13;
#X text 1251 -28 14;
#X text 1365 -25 15;
#X text 1505 -20 16;
#X text 1557 50 17;
#X text 1742 -24 18;
#X text 1818 -21 19;
#X text 1946 -19 20;
#X text 2033 -21 21;
#X text 586 402 22;
#X text 663 404 23;
#X text 743 404 24;
#X text 619 372 light 1;
#X obj 845 460 vsl 15 128 0 1 0 0 empty empty empty 0 -9 0 10 -262144
-1 -1 2290 1;
#X obj 922 462 vsl 15 128 0 1 0 0 empty empty empty 0 -9 0 10 -262144
-1 -1 12700 1;
#X obj 1003 460 vsl 15 128 0 1 0 0 empty empty empty 0 -9 0 10 -262144
-1 -1 12700 1;
#X text 845 392 hue;
#X text 912 393 saturation;
#X text 997 391 value;
#X text 879 372 light 2;
#X obj 1115 460 vsl 15 128 0 1 0 0 empty empty empty 0 -9 0 10 -262144
-1 -1 2290 1;
#X obj 1192 462 vsl 15 128 0 1 0 0 empty empty empty 0 -9 0 10 -262144
-1 -1 12700 1;
#X obj 1273 460 vsl 15 128 0 1 0 0 empty empty empty 0 -9 0 10 -262144
-1 -1 12700 1;
#X text 1115 392 hue;
#X text 1182 393 saturation;
#X text 1267 391 value;
#X text 1149 372 light 3;
#X obj 1358 463 vsl 15 128 0 1 0 0 empty empty empty 0 -9 0 10 -262144
-1 -1 2290 1;
#X obj 1435 465 vsl 15 128 0 1 0 0 empty empty empty 0 -9 0 10 -262144
-1 -1 12700 1;
#X obj 1516 463 vsl 15 128 0 1 0 0 empty empty empty 0 -9 0 10 -262144
-1 -1 12700 1;
#X text 1358 395 hue;
#X text 1425 396 saturation;
#X text 1510 394 value;
#X text 1392 375 light 4;
#X obj 1606 463 vsl 15 128 0 1 0 0 empty empty empty 0 -9 0 10 -262144
-1 -1 2290 1;
#X obj 1683 465 vsl 15 128 0 1 0 0 empty empty empty 0 -9 0 10 -262144
-1 -1 12700 1;
#X obj 1764 463 vsl 15 128 0 1 0 0 empty empty empty 0 -9 0 10 -262144
-1 -1 12700 1;
#X text 1606 395 hue;
#X text 1673 396 saturation;
#X text 1758 394 value;
#X obj 1854 463 vsl 15 128 0 1 0 0 empty empty empty 0 -9 0 10 -262144
-1 -1 2290 1;
#X obj 1931 465 vsl 15 128 0 1 0 0 empty empty empty 0 -9 0 10 -262144
-1 -1 12400 1;
#X obj 2012 463 vsl 15 128 0 1 0 0 empty empty empty 0 -9 0 10 -262144
-1 -1 12700 1;
#X text 1854 395 hue;
#X text 1921 396 saturation;
#X text 2006 394 value;
#X text 1640 375 light 5;
#X text 1888 375 light 6;
#X text 846 402 25;
#X text 923 404 26;
#X text 1003 404 27;
#X text 1116 402 28;
#X text 1193 404 28;
#X text 1273 404 30;
#X text 1359 405 31;
#X text 1436 407 32;
#X text 1516 407 33;
#X text 1607 405 34;
#X text 1684 407 35;
#X text 1764 407 36;
#X text 1855 405 37;
#X text 1932 407 38;
#X text 2012 407 39;
#X obj 406 -69 loadbang;
#X text 415 -52 TURN 'EM UP!;
#X text 419 -37 ...uh \, hold on;
#X obj 414 50 line;
#X obj 417 -16 delay 1666;
#X msg 435 14 0.9 1666;
#X obj 98 529 autoscale 0 8;
#X obj 97 449 f;
#X msg 92 474 \$1 666;
#X obj 92 495 line;
#X msg 1381 241 connect 192.168.0.100 9001;
#X msg 581 258 send /remote;
#N canvas 401 90 597 304 QSS_fidd.pd 0;
#X obj 428 40 unpack;
#X floatatom 248 143 0 0 0 0 - - -;
#X floatatom 276 143 0 0 0 0 - - -;
#X obj 428 0 route 1 2 3 4;
#X obj 472 41 unpack;
#X floatatom 307 143 0 0 0 0 - - -;
#X floatatom 336 143 0 0 0 0 - - -;
#X obj 516 41 unpack;
#X floatatom 364 143 0 0 0 0 - - -;
#X floatatom 376 109 0 0 0 0 - - -;
#X obj 287 21 unpack;
#X floatatom 160 143 0 0 0 0 - - -;
#X floatatom 189 143 0 0 0 0 - - -;
#X floatatom 218 143 0 0 0 0 - - -;
#X obj 307 -31 fiddle~ 1024 1 20 3;
#X obj 102 145 bng 15 250 50 0 empty empty empty 17 7 0 10 -262144
-1 -1;
#X floatatom 122 144 5 0 0 0 - - -;
#X obj 106 175 outlet;
#X text 121 129 pitch;
#X text 158 128 pitch&amp;
#X text 220 128 dB;
#X text 429 24 sinusoidal components;
#X text 100 129 atk;
#X obj 63 175 outlet;
#X obj 149 175 outlet;
#X obj 192 175 outlet;
#X obj 235 175 outlet;
#X obj 278 175 outlet;
#X obj 321 175 outlet;
#X obj 364 175 outlet;
#X obj 407 175 outlet;
#X obj 450 175 outlet;
#X obj 493 175 outlet;
#X obj 497 82 int;
#X obj 356 40 int;
#X obj 302 58 int;
#X obj 269 56 int;
#X obj 196 38 int;
#X obj 366 63 int;
#X obj 394 67 int;
#X obj 419 70 int;
#X obj 446 75 int;
#X obj 472 79 int;
#X text 247 127 3x sinusoidal componentz;
#X obj 269 -61 spigot~;
#X obj 248 -91 adc~;
#X obj 266 105 tgl 15 0 empty empty empty 17 7 0 10 -262144 -1 -1 1
1;
#X text 285 104 adc i/o;
#X text 193 106 ¡INTZ!;
#X text 167 106 CH.1;
#X connect 0 0 38 0;
#X connect 0 1 39 0;
#X connect 1 0 27 0;
#X connect 2 0 28 0;
#X connect 3 0 0 0;
#X connect 3 1 4 0;
#X connect 3 2 7 0;
#X connect 4 0 40 0;
#X connect 4 1 41 0;
#X connect 5 0 29 0;
#X connect 6 0 30 0;
#X connect 7 0 42 0;
#X connect 7 1 33 0;
#X connect 8 0 31 0;
#X connect 9 0 32 0;
#X connect 10 0 36 0;
#X connect 10 1 35 0;
#X connect 11 0 24 0;
#X connect 12 0 25 0;
#X connect 13 0 26 0;
#X connect 14 0 37 0;
#X connect 14 1 15 0;
#X connect 14 2 10 0;
#X connect 14 3 34 0;
#X connect 14 4 3 0;
#X connect 15 0 23 0;
#X connect 16 0 17 0;
#X connect 33 0 9 0;
#X connect 34 0 13 0;
#X connect 35 0 12 0;
#X connect 36 0 11 0;
#X connect 37 0 16 0;
#X connect 38 0 1 0;
#X connect 39 0 2 0;
#X connect 40 0 5 0;
#X connect 41 0 6 0;
#X connect 42 0 8 0;
#X connect 44 1 14 0;
#X connect 45 0 44 0;
#X connect 46 0 44 1;
#X coords 0 -1 1 1 300 70 1 100 100;
#X restore 79 -178 pd QSS_fidd.pd;
#X obj 99 566 f;
#X obj 584 417 autoscale 0 1;
#X obj 662 438 autoscale 0 1;
#X obj 742 418 autoscale 0 1;
#X obj 844 436 autoscale 0 1;
#X obj 920 417 autoscale 0 1;
#X obj 999 438 autoscale 0 1;
#X obj 1113 417 autoscale 0 1;
#X obj 1191 438 autoscale 0 1;
#X obj 1277 419 autoscale 0 1;
#X obj 1355 440 autoscale 0 1;
#X obj 1433 421 autoscale 0 1;
#X obj 1511 442 autoscale 0 1;
#X obj 1604 420 autoscale 0 1;
#X obj 1682 441 autoscale 0 1;
#X obj 1765 420 autoscale 0 1;
#X obj 1843 441 autoscale 0 1;
#X obj 1929 418 autoscale 0 1;
#X obj 2007 439 autoscale 0 1;
#X obj 529 300 f;
#X obj 529 340 f;
#X obj 529 370 f;
#X obj 527 197 f;
#X obj 527 237 f;
#X obj 527 267 f;
#X obj 531 420 f;
#X obj 531 450 f;
#X obj 618 629 pack f f f;
#X msg 612 658 send /led1 \$1 \$2 \$3;
#X obj 743 596 t b f;
#X obj 661 599 t b f;
#X obj 624 -144 f;
#X obj 664 -142 + 1;
#X obj 630 -119 mod 2;
#X obj 876 671 pack f f f;
#X obj 1001 638 t b f;
#X obj 919 641 t b f;
#X obj 1154 669 pack f f f;
#X obj 1279 636 t b f;
#X obj 1197 639 t b f;
#X obj 1421 676 pack f f f;
#X obj 1546 643 t b f;
#X obj 1464 646 t b f;
#X obj 1674 676 pack f f f;
#X obj 1799 643 t b f;
#X obj 1717 646 t b f;
#X obj 1892 670 pack f f f;
#X obj 2017 637 t b f;
#X obj 1935 640 t b f;
#X msg 1886 699 send /led6 \$1 \$2 \$3;
#X msg 1668 705 send /led5 \$1 \$2 \$3;
#X msg 1415 705 send /led4 \$1 \$2 \$3;
#X msg 1148 698 send /led3 \$1 \$2 \$3;
#X msg 870 700 send /led2 \$1 \$2 \$3;
#X obj 523 131 f;
#N canvas 546 23 587 516 QSS_1.pd 0;
#X text -160 -112 1 [ONE];
#X obj 291 -82 metro;
#X obj 273 102 nbx 5 14 0 1e+37 0 0 empty empty empty 0 -8 0 10 -262144
-1 -1 344 256;
#X obj 100 44 f;
#X obj 134 44 + 1;
#X obj 103 138 hradio 16 1 0 8 empty empty empty 0 -8 0 15 -262144
-1 -1 1;
#X obj -157 180 f;
#X obj 197 119 hsl 128 15 0 127 0 0 empty empty empty -2 -8 0 10 -262144
-1 -1 6500 1;
#X obj -159 236 makenote 64 250;
#X obj -143 297 makenote 64 250;
#X obj -36 249 makenote 64 250;
#X obj -17 309 makenote 64 250;
#X obj -159 256 noteout 2;
#X obj -143 317 noteout 2;
#X obj -36 269 noteout 2;
#X obj -17 329 noteout 2;
#X obj 172 287 makenote 64 250;
#X obj 188 348 makenote 64 250;
#X obj 290 285 makenote 64 250;
#X obj 309 345 makenote 64 250;
#X obj 172 307 noteout 2;
#X obj 188 368 noteout 2;
#X obj 290 305 noteout 2;
#X obj 309 365 noteout 2;
#X msg 172 268 96;
#X msg 188 327 97;
#X msg 327 264 98;
#X msg 309 326 99;
#X msg -159 217 112;
#X msg -143 278 113;
#X msg 24 222 114;
#X msg -17 290 115;
#X msg -127 -26 bang;
#X obj -12 25 + 1;
#X obj -127 28 - 1;
#X msg -12 -25 bang;
#X obj -87 51 t b f;
#X obj -15 -53 nbx 5 14 -1e+37 1e+37 0 0 empty empty empty 0 -8 0 10
-262144 -1 -1 1 256;
#X obj -147 -25 bng 15 250 50 0 empty empty empty 17 7 0 10 -262144
-1 -1;
#X obj -30 -25 bng 15 250 50 0 empty empty empty 17 7 0 10 -262144
-1 -1;
#X obj 53 -25 bng 15 250 50 0 empty empty empty 17 7 0 10 -262144 -1
-1;
#X obj -106 -54 select 127 1;
#X obj -157 138 select 0 1 2 3 4 5 6 7 8 9 10 11 12 13 14;
#X obj -94 24 r stp_q_l66;
#X obj 101 70 mod 8;
#X obj 372 110 tgl 15 0 empty empty empty 17 7 0 10 -262144 -1 -1 0
46;
#X obj 348 69 ctlin 50;
#X obj -106 -84 ctlin 111;
#X obj 204 35 ctlin 119;
#X obj -160 370 outlet;
#X obj 55 343 makenote 64 250;
#X obj 55 367 noteout 21;
#X text 195 224 veloicty == brightness;
#X msg 163 225 127;
#X obj 163 201 loadbang;
#X obj 189 -108 inlet;
#X obj 190 -78 spigot;
#X obj 164 66 ctlin 127;
#X text 329 100 tempo;
#X text 329 117 pitch;
#X text 369 122 i|o;
#X obj 165 118 tgl 15 0 empty empty empty 17 7 0 10 -262144 -1 -1 0
100;
#X obj 100 -105 inlet;
#X obj 139 118 tgl 15 0 empty empty empty 17 7 0 10 -262144 -1 -1 0
1;
#X text 181 116 p;
#X text 155 117 t;
#X text 103 117 fidd:;
#X obj 276 -1 switch;
#X obj 263 -41 + 1;
#X msg 314 -38 1;
#X obj 334 -65 loadbang;
#X obj 372 140 bng 15 250 50 0 empty empty empty 17 7 0 10 -262144
-1 -1;
#X obj 314 141 nbx 5 14 -1e+37 1e+37 0 0 empty empty empty 0 -8 0 10
-262144 -1 -1 65 256;
#X text 260 139 punchout;
#X obj -127 2 v QSS_counter1;
#X obj -12 1 v QSS_counter1;
#X obj -77 74 v QSS_counter1;
#X connect 1 0 67 1;
#X connect 2 0 1 1;
#X connect 3 0 4 0;
#X connect 3 0 44 0;
#X connect 4 0 3 1;
#X connect 5 0 42 0;
#X connect 6 0 49 0;
#X connect 6 0 50 0;
#X connect 6 0 72 0;
#X connect 6 0 71 0;
#X connect 7 0 6 1;
#X connect 7 0 5 0;
#X connect 8 0 12 0;
#X connect 8 1 12 1;
#X connect 9 0 13 0;
#X connect 9 1 13 1;
#X connect 10 0 14 0;
#X connect 10 1 14 1;
#X connect 11 0 15 0;
#X connect 11 1 15 1;
#X connect 16 0 20 0;
#X connect 16 1 20 1;
#X connect 17 0 21 0;
#X connect 17 1 21 1;
#X connect 18 0 22 0;
#X connect 18 1 22 1;
#X connect 19 0 23 0;
#X connect 19 1 23 1;
#X connect 24 0 16 0;
#X connect 25 0 17 0;
#X connect 26 0 18 0;
#X connect 27 0 19 0;
#X connect 28 0 8 0;
#X connect 29 0 9 0;
#X connect 30 0 10 0;
#X connect 31 0 11 0;
#X connect 32 0 74 0;
#X connect 33 0 36 0;
#X connect 34 0 36 0;
#X connect 35 0 75 0;
#X connect 36 0 76 0;
#X connect 36 1 76 0;
#X connect 41 0 38 0;
#X connect 41 0 32 0;
#X connect 41 1 39 0;
#X connect 41 1 35 0;
#X connect 41 2 40 0;
#X connect 42 0 28 0;
#X connect 42 0 6 0;
#X connect 42 3 25 0;
#X connect 42 5 27 0;
#X connect 42 7 31 0;
#X connect 43 0 36 0;
#X connect 44 0 5 0;
#X connect 45 0 1 0;
#X connect 46 0 45 0;
#X connect 47 0 37 0;
#X connect 47 0 41 0;
#X connect 48 0 7 0;
#X connect 50 0 51 0;
#X connect 50 1 51 1;
#X connect 53 0 8 1;
#X connect 53 0 10 1;
#X connect 53 0 16 1;
#X connect 53 0 18 1;
#X connect 53 0 19 1;
#X connect 53 0 17 1;
#X connect 53 0 11 1;
#X connect 53 0 9 1;
#X connect 54 0 53 0;
#X connect 55 0 56 0;
#X connect 56 0 7 0;
#X connect 57 0 61 0;
#X connect 61 0 56 1;
#X connect 62 0 67 2;
#X connect 63 0 68 0;
#X connect 67 0 3 0;
#X connect 68 0 67 0;
#X connect 69 0 67 0;
#X connect 70 0 69 0;
#X connect 74 0 34 0;
#X connect 75 0 33 0;
#X connect 76 0 2 0;
#X coords 0 -1 1 1 300 60 1 100 100;
#X restore 73 -4 pd QSS_1.pd;
#X obj 493 657 autoscale 0 1;
#X obj 406 659 autoscale 0 1;
#X obj 322 654 autoscale 0 1;
#X obj 235 656 autoscale 0 1;
#X obj 139 656 autoscale 0 1;
#X obj 42 658 autoscale 0 1;
#X obj 44 617 pipe 100;
#X obj 139 634 pipe 200;
#X obj 235 634 pipe 300;
#X obj 322 632 pipe 400;
#X obj 406 637 pipe 500;
#X obj 493 635 pipe 600;
#X connect 0 0 123 0;
#X connect 0 0 209 0;
#X connect 0 0 241 0;
#X connect 1 0 122 0;
#X connect 1 0 209 0;
#X connect 1 0 240 0;
#X connect 1 1 0 0;
#X connect 2 0 27 0;
#X connect 2 0 209 0;
#X connect 2 0 236 0;
#X connect 3 0 27 0;
#X connect 3 0 209 0;
#X connect 3 0 235 0;
#X connect 3 1 2 0;
#X connect 4 0 124 0;
#X connect 4 0 209 0;
#X connect 4 0 234 0;
#X connect 5 0 209 0;
#X connect 5 0 239 0;
#X connect 6 0 80 0;
#X connect 6 0 209 0;
#X connect 6 0 238 0;
#X connect 7 0 246 0;
#X connect 7 0 270 0;
#X connect 7 1 270 1;
#X connect 15 0 52 0;
#X connect 16 0 53 0;
#X connect 17 0 51 0;
#X connect 18 0 54 0;
#X connect 19 0 55 0;
#X connect 20 0 56 0;
#X connect 21 0 43 0;
#X connect 23 0 44 0;
#X connect 24 0 45 0;
#X connect 25 0 46 0;
#X connect 26 0 47 0;
#X connect 27 0 42 0;
#X connect 29 0 48 0;
#X connect 31 0 49 0;
#X connect 33 0 50 0;
#X connect 34 0 14 0;
#X connect 35 0 14 0;
#X connect 36 0 14 0;
#X connect 42 0 36 0;
#X connect 43 0 36 0;
#X connect 44 0 36 0;
#X connect 45 0 36 0;
#X connect 46 0 36 0;
#X connect 47 0 36 0;
#X connect 48 0 36 0;
#X connect 49 0 36 0;
#X connect 50 0 36 0;
#X connect 51 0 36 0;
#X connect 52 0 36 0;
#X connect 53 0 36 0;
#X connect 54 0 36 0;
#X connect 55 0 36 0;
#X connect 56 0 36 0;
#X connect 57 0 58 0;
#X connect 58 0 36 0;
#X connect 59 0 64 0;
#X connect 60 0 65 0;
#X connect 61 0 66 0;
#X connect 62 0 67 0;
#X connect 63 0 68 0;
#X connect 64 0 36 0;
#X connect 65 0 36 0;
#X connect 66 0 36 0;
#X connect 67 0 36 0;
#X connect 68 0 36 0;
#X connect 69 0 70 0;
#X connect 70 0 36 0;
#X connect 71 0 34 0;
#X connect 72 0 74 0;
#X connect 74 0 36 0;
#X connect 75 0 79 0;
#X connect 79 0 36 0;
#X connect 80 0 82 0;
#X connect 82 0 36 0;
#X connect 83 0 85 0;
#X connect 85 0 36 0;
#X connect 86 0 96 0;
#X connect 96 0 104 0;
#X connect 96 1 105 0;
#X connect 96 2 106 0;
#X connect 96 3 107 0;
#X connect 96 4 108 0;
#X connect 96 5 109 0;
#X connect 96 6 110 0;
#X connect 96 7 111 0;
#X connect 96 8 112 0;
#X connect 98 0 242 0;
#X connect 99 0 245 0;
#X connect 100 0 244 0;
#X connect 104 0 36 0;
#X connect 105 0 36 0;
#X connect 106 0 36 0;
#X connect 107 0 36 0;
#X connect 108 0 36 0;
#X connect 109 0 36 0;
#X connect 110 0 36 0;
#X connect 111 0 36 0;
#X connect 112 0 36 0;
#X connect 113 0 114 0;
#X connect 114 0 75 0;
#X connect 114 0 33 0;
#X connect 114 0 69 0;
#X connect 114 0 29 0;
#X connect 115 0 83 0;
#X connect 117 0 116 0;
#X connect 118 0 120 0;
#X connect 119 0 121 0;
#X connect 122 0 86 0;
#X connect 123 0 86 0;
#X connect 124 0 21 0;
#X connect 124 0 19 0;
#X connect 124 0 20 0;
#X connect 125 0 15 0;
#X connect 125 0 17 0;
#X connect 125 0 16 0;
#X connect 125 0 18 0;
#X connect 125 0 23 0;
#X connect 125 0 24 0;
#X connect 125 0 26 0;
#X connect 125 0 19 0;
#X connect 125 0 20 0;
#X connect 152 0 249 0;
#X connect 153 0 251 0;
#X connect 154 0 250 0;
#X connect 159 0 252 0;
#X connect 160 0 254 0;
#X connect 161 0 253 0;
#X connect 166 0 255 0;
#X connect 167 0 257 0;
#X connect 168 0 256 0;
#X connect 173 0 258 0;
#X connect 174 0 260 0;
#X connect 175 0 259 0;
#X connect 179 0 261 0;
#X connect 180 0 263 0;
#X connect 181 0 262 0;
#X connect 202 0 206 0;
#X connect 205 0 75 0;
#X connect 205 0 69 0;
#X connect 205 0 33 0;
#X connect 206 0 207 0;
#X connect 207 0 205 0;
#X connect 209 0 210 0;
#X connect 210 0 211 0;
#X connect 211 0 208 0;
#X connect 212 0 14 0;
#X connect 213 0 36 0;
#X connect 214 1 215 0;
#X connect 215 0 277 0;
#X connect 215 0 278 0;
#X connect 215 0 279 0;
#X connect 215 0 280 0;
#X connect 215 0 281 0;
#X connect 215 0 282 0;
#X connect 216 0 98 0;
#X connect 217 0 99 0;
#X connect 218 0 100 0;
#X connect 219 0 152 0;
#X connect 220 0 153 0;
#X connect 221 0 154 0;
#X connect 222 0 159 0;
#X connect 223 0 160 0;
#X connect 224 0 161 0;
#X connect 225 0 166 0;
#X connect 226 0 167 0;
#X connect 227 0 168 0;
#X connect 228 0 173 0;
#X connect 229 0 174 0;
#X connect 230 0 175 0;
#X connect 231 0 179 0;
#X connect 232 0 180 0;
#X connect 233 0 181 0;
#X connect 237 0 238 1;
#X connect 242 0 243 0;
#X connect 243 0 36 0;
#X connect 244 0 242 0;
#X connect 244 1 242 2;
#X connect 245 0 242 0;
#X connect 245 1 242 1;
#X connect 246 0 247 0;
#X connect 247 0 246 1;
#X connect 248 0 218 0;
#X connect 248 0 221 0;
#X connect 248 0 224 0;
#X connect 248 0 227 0;
#X connect 248 0 230 0;
#X connect 248 0 233 0;
#X connect 249 0 268 0;
#X connect 250 0 249 0;
#X connect 250 1 249 2;
#X connect 251 0 249 0;
#X connect 251 1 249 1;
#X connect 252 0 267 0;
#X connect 253 0 252 0;
#X connect 253 1 252 2;
#X connect 254 0 252 0;
#X connect 254 1 252 1;
#X connect 255 0 266 0;
#X connect 256 0 255 0;
#X connect 256 1 255 2;
#X connect 257 0 255 0;
#X connect 257 1 255 1;
#X connect 258 0 265 0;
#X connect 259 0 258 0;
#X connect 259 1 258 2;
#X connect 260 0 258 0;
#X connect 260 1 258 1;
#X connect 261 0 264 0;
#X connect 262 0 261 0;
#X connect 262 1 261 2;
#X connect 263 0 261 0;
#X connect 263 1 261 1;
#X connect 264 0 36 0;
#X connect 265 0 36 0;
#X connect 266 0 36 0;
#X connect 267 0 36 0;
#X connect 268 0 36 0;
#X connect 269 0 216 0;
#X connect 269 0 219 0;
#X connect 269 0 222 0;
#X connect 269 0 225 0;
#X connect 269 0 228 0;
#X connect 269 0 231 0;
#X connect 270 0 80 0;
#X connect 270 0 237 0;
#X connect 270 0 269 0;
#X connect 271 0 179 0;
#X connect 272 0 173 0;
#X connect 273 0 166 0;
#X connect 274 0 159 0;
#X connect 275 0 152 0;
#X connect 276 0 98 0;
#X connect 277 0 276 0;
#X connect 278 0 275 0;
#X connect 279 0 274 0;
#X connect 280 0 273 0;
#X connect 281 0 272 0;
#X connect 282 0 271 0;
