#N canvas 352 25 764 517 10;
#X obj 250 95 metro;
#X obj 304 86 tgl 15 0 empty empty empty 17 7 0 10 -262144 -1 -1 1
1;
#X obj 329 86 nbx 5 14 -1e+37 1e+37 0 0 empty empty empty 0 -8 0 10
-262144 -1 -1 190 256;
#X obj 250 123 f;
#X obj 284 123 + 1;
#X obj 251 184 hradio 16 1 0 10 empty empty empty 0 -8 0 10 -262144
-1 -1 8;
#X obj 252 253 f;
#X obj 70 288 mtof;
#X obj 70 324 phasor~;
#X obj 70 418 dac~;
#X obj 92 351 * 1.9;
#X obj 70 381 bp~ 250 8;
#X obj 510 95 metro;
#X obj 565 89 tgl 15 0 empty empty empty 17 7 0 10 -262144 -1 -1 1
1;
#X obj 591 89 nbx 5 14 -1e+37 1e+37 0 0 empty empty empty 0 -8 0 10
-262144 -1 -1 1000 256;
#X obj 510 123 f;
#X obj 544 123 + 1;
#X obj 511 184 hradio 16 1 0 10 empty empty empty 0 -8 0 10 -262144
-1 -1 3;
#X obj 512 253 f;
#X obj 511 156 mod 10;
#X obj 512 216 select 0 1 2 3 4 5 6 7 8 9;
#X obj 70 509 outlet;
#X obj 251 156 mod 10;
#X obj 252 216 select 0 1 2 3 4 5 6 7 8 9;
#X obj 70 28 inlet;
#X obj 70 54 unpack f f f f b t f f f;
#X obj 282 254 hsl 128 15 0 127 0 0 empty empty empty -2 -8 0 10 -262144
-1 -1 5100 1;
#X obj 542 254 hsl 128 15 0 127 0 0 empty empty empty -2 -8 0 10 -262144
-1 -1 7400 1;
#X obj 252 305 metro;
#X obj 302 299 tgl 15 0 empty empty empty 17 7 0 10 -262144 -1 -1 1
1;
#X obj 324 300 nbx 5 14 -1e+37 1e+37 0 0 empty empty empty 0 -8 0 10
-262144 -1 -1 974 256;
#X obj 252 333 f;
#X obj 286 333 + 1;
#X obj 253 394 hradio 16 1 0 10 empty empty empty 0 -8 0 10 -262144
-1 -1 1;
#X obj 254 463 f;
#X obj 512 305 metro;
#X obj 557 299 tgl 15 0 empty empty empty 17 7 0 10 -262144 -1 -1 1
1;
#X obj 579 300 nbx 5 14 -1e+37 1e+37 0 0 empty empty empty 0 -8 0 10
-262144 -1 -1 551 256;
#X obj 512 333 f;
#X obj 546 333 + 1;
#X obj 513 394 hradio 16 1 0 10 empty empty empty 0 -8 0 10 -262144
-1 -1 2;
#X obj 514 463 f;
#X obj 513 366 mod 10;
#X obj 514 426 select 0 1 2 3 4 5 6 7 8 9;
#X obj 253 366 mod 10;
#X obj 254 426 select 0 1 2 3 4 5 6 7 8 9;
#X obj 284 464 hsl 128 15 0 127 0 0 empty empty empty -2 -8 0 10 -262144
-1 -1 4600 1;
#X obj 544 464 hsl 128 15 0 127 0 0 empty empty empty -2 -8 0 10 -262144
-1 -1 5500 1;
#X obj 69 475 pack f f f f;
#X text 511 55 2 [TWO];
#X text 247 58 1 [ONE];
#X text 250 278 3 [THREE];
#X text 508 275 4 [FOUR];
#X obj 70 81 range 0 100 0 1000;
#X obj 87 132 range 0 100 0 1000;
#X obj 105 185 range 0 100 0 1000;
#X obj 122 242 range 0 100 0 1000;
#X connect 0 0 3 0;
#X connect 1 0 0 0;
#X connect 2 0 0 1;
#X connect 3 0 4 0;
#X connect 3 0 22 0;
#X connect 4 0 3 1;
#X connect 5 0 23 0;
#X connect 6 0 7 0;
#X connect 6 0 48 0;
#X connect 7 0 8 0;
#X connect 7 0 10 0;
#X connect 8 0 11 0;
#X connect 10 0 11 1;
#X connect 11 0 9 0;
#X connect 11 0 9 1;
#X connect 12 0 15 0;
#X connect 13 0 12 0;
#X connect 14 0 12 1;
#X connect 15 0 16 0;
#X connect 15 0 19 0;
#X connect 16 0 15 1;
#X connect 17 0 20 0;
#X connect 18 0 7 0;
#X connect 18 0 48 1;
#X connect 19 0 17 0;
#X connect 20 0 18 0;
#X connect 22 0 5 0;
#X connect 23 0 6 0;
#X connect 24 0 25 0;
#X connect 25 0 53 0;
#X connect 25 1 54 0;
#X connect 25 2 55 0;
#X connect 25 3 56 0;
#X connect 25 6 0 0;
#X connect 26 0 6 1;
#X connect 27 0 18 1;
#X connect 28 0 31 0;
#X connect 29 0 28 0;
#X connect 30 0 28 1;
#X connect 31 0 32 0;
#X connect 31 0 44 0;
#X connect 32 0 31 1;
#X connect 33 0 45 0;
#X connect 34 0 7 0;
#X connect 34 0 48 2;
#X connect 35 0 38 0;
#X connect 36 0 35 0;
#X connect 37 0 35 1;
#X connect 38 0 39 0;
#X connect 38 0 42 0;
#X connect 39 0 38 1;
#X connect 40 0 43 0;
#X connect 41 0 7 0;
#X connect 41 0 48 3;
#X connect 42 0 40 0;
#X connect 43 0 41 0;
#X connect 44 0 33 0;
#X connect 45 0 34 0;
#X connect 46 0 34 1;
#X connect 47 0 41 1;
#X connect 48 0 21 0;
#X connect 53 0 0 1;
#X connect 54 0 12 1;
#X connect 55 0 28 1;
#X connect 56 0 35 1;
