#N canvas 0 23 1280 755 10;
#X floatatom 603 397 3 0 0 0 - - -, f 3;
#X obj 558 355 notein;
#X obj 558 371 stripnote;
#X floatatom 558 396 3 0 0 0 - - -, f 3;
#X text 558 321 MIDI IN;
#X floatatom 589 461 3 0 0 0 - - -, f 3;
#X floatatom 559 460 3 0 0 0 - - -, f 3;
#X obj 559 443 ctlin;
#X obj 558 416 bng 20 250 50 0 empty empty empty 17 7 0 10 -262144
-1 -1;
#X obj 559 479 bng 20 250 50 0 empty empty empty 17 7 0 10 -262144
-1 -1;
#X obj 25 9 hsl 128 15 0 127 0 0 empty empty empty -2 -8 0 10 -260097
-257985 -1 0 1;
#X obj 35 19 hsl 128 15 0 127 0 0 empty empty empty -2 -8 0 10 -260097
-257985 -1 0 1;
#X obj 45 29 hsl 128 15 0 127 0 0 empty empty empty -2 -8 0 10 -260097
-257985 -1 0 1;
#X obj 55 39 hsl 128 15 0 127 0 0 empty empty empty -2 -8 0 10 -260097
-257985 -1 0 1;
#X obj 35 71 hsl 128 15 0 127 0 0 empty empty empty -2 -8 0 10 -260097
-257985 -1 0 1;
#X obj 45 81 hsl 128 15 0 127 0 0 empty empty empty -2 -8 0 10 -260097
-257985 -1 0 1;
#X obj 55 91 hsl 128 15 0 127 0 0 empty empty empty -2 -8 0 10 -260097
-257985 -1 0 1;
#X obj 65 101 hsl 128 15 0 127 0 0 empty empty empty -2 -8 0 10 -260097
-257985 -1 0 1;
#X obj 45 129 hsl 128 15 0 127 0 0 empty empty empty -2 -8 0 10 -260097
-257985 -1 0 1;
#X obj 55 139 hsl 128 15 0 127 0 0 empty empty empty -2 -8 0 10 -260097
-257985 -1 0 1;
#X obj 65 149 hsl 128 15 0 127 0 0 empty empty empty -2 -8 0 10 -260097
-257985 -1 0 1;
#X obj 75 159 hsl 128 15 0 127 0 0 empty empty empty -2 -8 0 10 -260097
-257985 -1 0 1;
#X obj 55 180 hsl 128 15 0 127 0 0 empty empty empty -2 -8 0 10 -260097
-257985 -1 0 1;
#X obj 65 190 hsl 128 15 0 127 0 0 empty empty empty -2 -8 0 10 -260097
-257985 -1 0 1;
#X obj 75 200 hsl 128 15 0 127 0 0 empty empty empty -2 -8 0 10 -260097
-257985 -1 0 1;
#X obj 85 209 hsl 128 15 0 127 0 0 empty empty empty -2 -8 0 10 -260097
-257985 -1 0 1;
#X obj 42 270 vsl 15 128 0 127 0 0 empty empty empty 0 -9 0 10 -260097
-257985 -1 0 1;
#X obj 52 280 vsl 15 128 0 127 0 0 empty empty empty 0 -9 0 10 -260097
-257985 -1 0 1;
#X obj 62 290 vsl 15 128 0 127 0 0 empty empty empty 0 -9 0 10 -260097
-257985 -1 0 1;
#X obj 72 300 vsl 15 128 0 127 0 0 empty empty empty 0 -9 0 10 -260097
-257985 -1 0 1;
#X obj 102 270 vsl 15 128 0 127 0 0 empty empty empty 0 -9 0 10 -260097
-257985 -1 0 1;
#X obj 112 280 vsl 15 128 0 127 0 0 empty empty empty 0 -9 0 10 -260097
-257985 -1 0 1;
#X obj 122 290 vsl 15 128 0 127 0 0 empty empty empty 0 -9 0 10 -260097
-257985 -1 0 1;
#X obj 132 300 vsl 15 128 0 127 0 0 empty empty empty 0 -9 0 10 -260097
-257985 -1 0 1;
#X obj 45 480 vsl 15 128 0 127 0 0 empty empty empty 0 -9 0 10 -260097
-257985 -1 0 1;
#X obj 55 490 vsl 15 128 0 127 0 0 empty empty empty 0 -9 0 10 -260097
-257985 -1 0 1;
#X obj 65 500 vsl 15 128 0 127 0 0 empty empty empty 0 -9 0 10 -260097
-257985 -1 0 1;
#X obj 75 510 vsl 15 128 0 127 0 0 empty empty empty 0 -9 0 10 -260097
-257985 -1 0 1;
#X obj 105 480 vsl 15 128 0 127 0 0 empty empty empty 0 -9 0 10 -260097
-257985 -1 0 1;
#X obj 115 490 vsl 15 128 0 127 0 0 empty empty empty 0 -9 0 10 -260097
-257985 -1 0 1;
#X obj 125 500 vsl 15 128 0 127 0 0 empty empty empty 0 -9 0 10 -260097
-257985 -1 0 1;
#X obj 135 510 vsl 15 128 0 127 0 0 empty empty empty 0 -9 0 10 -260097
-257985 -1 0 1;
#X obj 167 480 vsl 15 128 0 127 0 0 empty empty empty 0 -9 0 10 -260097
-257985 -1 0 1;
#X obj 177 490 vsl 15 128 0 127 0 0 empty empty empty 0 -9 0 10 -260097
-257985 -1 0 1;
#X obj 187 500 vsl 15 128 0 127 0 0 empty empty empty 0 -9 0 10 -260097
-257985 -1 0 1;
#X obj 197 510 vsl 15 128 0 127 0 0 empty empty empty 0 -9 0 10 -260097
-257985 -1 0 1;
#X obj 227 480 vsl 15 128 0 127 0 0 empty empty empty 0 -9 0 10 -260097
-257985 -1 0 1;
#X obj 237 490 vsl 15 128 0 127 0 0 empty empty empty 0 -9 0 10 -260097
-257985 -1 0 1;
#X obj 247 500 vsl 15 128 0 127 0 0 empty empty empty 0 -9 0 10 -260097
-257985 -1 0 1;
#X obj 257 510 vsl 15 128 0 127 0 0 empty empty empty 0 -9 0 10 -260097
-257985 -1 0 1;
#X obj 322 290 vsl 15 128 0 127 0 0 empty empty empty 0 -9 0 10 -260097
-257985 -1 0 1;
#X obj 332 300 vsl 15 128 0 127 0 0 empty empty empty 0 -9 0 10 -260097
-257985 -1 0 1;
#X obj 342 310 vsl 15 128 0 127 0 0 empty empty empty 0 -9 0 10 -260097
-257985 -1 0 1;
#X obj 366 290 vsl 15 128 0 127 0 0 empty empty empty 0 -9 0 10 -260097
-257985 -1 0 1;
#X obj 376 300 vsl 15 128 0 127 0 0 empty empty empty 0 -9 0 10 -260097
-257985 -1 0 1;
#X obj 386 310 vsl 15 128 0 127 0 0 empty empty empty 0 -9 0 10 -260097
-257985 -1 0 1;
#X obj 412 290 vsl 15 128 0 127 0 0 empty empty empty 0 -9 0 10 -260097
-257985 -1 0 1;
#X obj 422 300 vsl 15 128 0 127 0 0 empty empty empty 0 -9 0 10 -260097
-257985 -1 0 1;
#X obj 432 310 vsl 15 128 0 127 0 0 empty empty empty 0 -9 0 10 -260097
-257985 -1 0 1;
#X obj 457 290 vsl 15 128 0 127 0 0 empty empty empty 0 -9 0 10 -260097
-257985 -1 0 1;
#X obj 467 300 vsl 15 128 0 127 0 0 empty empty empty 0 -9 0 10 -260097
-257985 -1 0 1;
#X obj 477 310 vsl 15 128 0 127 0 0 empty empty empty 0 -9 0 10 -260097
-257985 -1 0 1;
#X obj 263 67 bng 26 250 50 0 empty empty empty 17 7 0 10 -260097 -257985
-1;
#X obj 289 67 bng 26 250 50 0 empty empty empty 17 7 0 10 -260097 -257985
-1;
#X obj 315 67 bng 26 250 50 0 empty empty empty 17 7 0 10 -260097 -257985
-1;
#X obj 341 67 bng 26 250 50 0 empty empty empty 17 7 0 10 -260097 -257985
-1;
#X obj 273 83 bng 26 250 50 0 empty empty empty 17 7 0 10 -260097 -257985
-1;
#X obj 299 83 bng 26 250 50 0 empty empty empty 17 7 0 10 -260097 -257985
-1;
#X obj 325 83 bng 26 250 50 0 empty empty empty 17 7 0 10 -260097 -257985
-1;
#X obj 351 83 bng 26 250 50 0 empty empty empty 17 7 0 10 -260097 -257985
-1;
#X obj 283 99 bng 26 250 50 0 empty empty empty 17 7 0 10 -260097 -257985
-1;
#X obj 309 99 bng 26 250 50 0 empty empty empty 17 7 0 10 -260097 -257985
-1;
#X obj 335 99 bng 26 250 50 0 empty empty empty 17 7 0 10 -260097 -257985
-1;
#X obj 361 99 bng 26 250 50 0 empty empty empty 17 7 0 10 -260097 -257985
-1;
#X obj 293 115 bng 26 250 50 0 empty empty empty 17 7 0 10 -260097
-257985 -1;
#X obj 319 115 bng 26 250 50 0 empty empty empty 17 7 0 10 -260097
-257985 -1;
#X obj 345 115 bng 26 250 50 0 empty empty empty 17 7 0 10 -260097
-257985 -1;
#X obj 371 115 bng 26 250 50 0 empty empty empty 17 7 0 10 -260097
-257985 -1;
#X text 319 267 LONG SLIDERZ;
#X text 43 249 ROTARIEZ;
#X text 21 -7 VERT SLIDERZ;
#X text 42 455 VERT SLIDERZ;
#X text 260 48 NOTE PADZ;
#X obj 463 -77 notein 9;
#X obj 463 -55 select 12;
#X obj 473 -34 notein 9;
#X obj 473 -12 select 8;
#X obj 482 8 notein 9;
#X obj 482 29 select 4;
#X obj 494 49 notein 9;
#X obj 494 71 select 0;
#X obj 542 -80 notein 9;
#X obj 562 6 notein 9;
#X obj 572 49 notein 9;
#X obj 572 71 select 1;
#X obj 552 -37 notein 9;
#X obj 542 -58 select 13;
#X obj 552 -15 select 9;
#X obj 562 28 select 5;
#X text 559 -99 col 2;
#X text 463 -97 col 1;
#X obj 497 111 notein 9;
#X obj 507 153 notein 9;
#X obj 517 195 notein 9;
#X obj 527 237 notein 9;
#X obj 576 113 notein 9;
#X obj 596 198 notein 9;
#X obj 606 241 notein 9;
#X obj 586 156 notein 9;
#X text 497 91 col 3;
#X text 593 94 col 4;
#X obj 497 133 select 14;
#X obj 507 175 select 10;
#X obj 517 217 select 6;
#X obj 527 259 select 2;
#X obj 576 135 select 15;
#X obj 586 178 select 11;
#X obj 596 220 select 7;
#X obj 606 263 select 3;
#X obj 12 -65 ctlin 53 9;
#X obj 22 -55 ctlin 54 9;
#X obj 32 -45 ctlin 55 9;
#X obj 42 -35 ctlin 56 9;
#X text 11 -88 row 1;
#X text 101 -93 row 2;
#X obj 112 -70 ctlin 49 9;
#X obj 122 -60 ctlin 50 9;
#X obj 132 -50 ctlin 51 9;
#X obj 142 -40 ctlin 52 9;
#X text 205 -98 row 3;
#X text 305 -98 row 4;
#X obj 211 -74 ctlin 45 9;
#X obj 221 -64 ctlin 46 9;
#X obj 231 -54 ctlin 47 9;
#X obj 241 -44 ctlin 48 9;
#X obj 314 -74 ctlin 41 9;
#X obj 324 -64 ctlin 42 9;
#X obj 334 -54 ctlin 43 9;
#X obj 344 -44 ctlin 44 9;
#X obj 52 280 vsl 15 128 0 127 0 0 empty empty empty 0 -9 0 10 -260097
-257985 -1 0 1;
#X obj 62 290 vsl 15 128 0 127 0 0 empty empty empty 0 -9 0 10 -260097
-257985 -1 0 1;
#X obj 72 300 vsl 15 128 0 127 0 0 empty empty empty 0 -9 0 10 -260097
-257985 -1 0 1;
#X obj 112 280 vsl 15 128 0 127 0 0 empty empty empty 0 -9 0 10 -260097
-257985 -1 0 1;
#X obj 122 290 vsl 15 128 0 127 0 0 empty empty empty 0 -9 0 10 -260097
-257985 -1 0 1;
#X obj 132 300 vsl 15 128 0 127 0 0 empty empty empty 0 -9 0 10 -260097
-257985 -1 0 1;
#X obj -99 70 ctlin 18 9;
#X obj -89 87 ctlin 20 9;
#X obj -79 104 ctlin 22 9;
#X obj -67 121 ctlin 24 9;
#X obj -89 152 ctlin 10 9;
#X obj -79 169 ctlin 12 9;
#X obj -69 186 ctlin 14 9;
#X obj -57 203 ctlin 16 9;
#X obj -223 461 ctlin 37 9;
#X obj -213 478 ctlin 38 9;
#X obj -203 495 ctlin 39 9;
#X obj -193 512 ctlin 40 9;
#X obj -223 559 ctlin 33 9;
#X obj -213 576 ctlin 34 9;
#X obj -203 593 ctlin 35 9;
#X obj -193 610 ctlin 36 9;
#X obj -123 461 ctlin 29 9;
#X obj -113 478 ctlin 30 9;
#X obj -103 495 ctlin 31 9;
#X obj -93 512 ctlin 32 9;
#X obj -123 559 ctlin 25 9;
#X obj -113 576 ctlin 26 9;
#X obj -103 593 ctlin 27 9;
#X obj -93 610 ctlin 28 9;
#X text -224 441 col 1;
#X text -224 543 col 2;
#X text -124 443 col 3;
#X text -125 542 col 4;
#X obj 290 154 ctlin 1 9;
#X obj 300 171 ctlin 2 9;
#X obj 310 188 ctlin 57 9;
#X obj 366 154 ctlin 3 9;
#X obj 376 171 ctlin 4 9;
#X obj 386 188 ctlin 58 9;
#X obj 330 214 ctlin 5 9;
#X obj 340 231 ctlin 6 9;
#X obj 350 248 ctlin 59 9;
#X obj 407 214 ctlin 7 9;
#X obj 417 231 ctlin 8 9;
#X obj 427 248 ctlin 60 9;
#X obj 657 389 bng 15 250 50 0 empty empty empty 17 7 0 10 -260097
-257985 -1;
#X obj 678 389 bng 15 250 50 0 empty empty empty 17 7 0 10 -260097
-257985 -1;
#X obj 700 389 tgl 15 0 empty empty empty 17 7 0 10 -260097 -257985
-1 0 1;
#X obj 657 314 ctlin 67 9;
#X obj 667 331 ctlin 66 9;
#X obj 677 347 ctlin 65 9;
#X obj -219 319 dac~;
#X obj -219 285 *~;
#X obj -199 258 hsl 128 15 0 1 0 0 empty empty empty -2 -6 0 8 -262144
-1 -1 0 1;
#X obj -218 73 bng 15 250 50 0 empty empty empty 0 -6 0 8 -262144 -1
-1;
#X floatatom -195 16 5 0 0 0 - - -, f 5;
#X floatatom -141 15 5 0 0 0 - - -, f 5;
#X floatatom -88 14 5 0 0 0 - - -, f 5;
#X msg -218 139 \$2 \, \$3 \$4;
#X text -91 -3 length;
#X text -141 -4 end f;
#X text -202 -3 start f;
#X text -222 53 hit;
#X obj -218 110 pack 0 0 0 0;
#X obj -184 56 metro 666;
#X obj -154 -41 bng 15 250 50 0 empty empty empty 17 7 0 10 -262144
-1 -1;
#X obj -24 -41 bng 15 250 50 0 empty empty empty 17 7 0 10 -262144
-1 -1;
#X obj -24 2 0;
#X text -26 -59 off;
#X text -155 -60 on;
#X obj -111 -104 tgl 15 0 empty empty empty 17 7 0 10 -262144 -1 -1
0 1;
#X obj -110 -84 select 1;
#X obj -88 -49 bng 15 250 50 0 empty empty empty 17 7 0 10 -262144
-1 -1;
#X obj -88 -30 666;
#X obj -219 225 osc~ 666;
#X obj -218 177 line 66;
#X text -124 -50 reset;
#X text -91 -106 togg;
#X connect 1 0 2 0;
#X connect 1 1 2 1;
#X connect 2 0 3 0;
#X connect 2 1 0 0;
#X connect 3 0 8 0;
#X connect 6 0 9 0;
#X connect 7 0 6 0;
#X connect 7 1 5 0;
#X connect 83 0 84 0;
#X connect 84 0 62 0;
#X connect 85 0 86 0;
#X connect 86 0 66 0;
#X connect 87 0 88 0;
#X connect 88 0 70 0;
#X connect 89 0 90 0;
#X connect 90 0 74 0;
#X connect 91 0 96 0;
#X connect 92 0 98 0;
#X connect 93 0 94 0;
#X connect 94 0 75 0;
#X connect 95 0 97 0;
#X connect 96 0 63 0;
#X connect 97 0 67 0;
#X connect 98 0 71 0;
#X connect 101 0 111 0;
#X connect 102 0 112 0;
#X connect 103 0 113 0;
#X connect 104 0 114 0;
#X connect 105 0 115 0;
#X connect 106 0 117 0;
#X connect 107 0 118 0;
#X connect 108 0 116 0;
#X connect 111 0 64 0;
#X connect 112 0 68 0;
#X connect 113 0 72 0;
#X connect 114 0 76 0;
#X connect 115 0 65 0;
#X connect 116 0 69 0;
#X connect 117 0 73 0;
#X connect 118 0 77 0;
#X connect 119 0 10 0;
#X connect 120 0 11 0;
#X connect 121 0 12 0;
#X connect 122 0 13 0;
#X connect 125 0 14 0;
#X connect 126 0 15 0;
#X connect 127 0 16 0;
#X connect 128 0 17 0;
#X connect 131 0 18 0;
#X connect 132 0 19 0;
#X connect 133 0 20 0;
#X connect 134 0 21 0;
#X connect 135 0 22 0;
#X connect 136 0 23 0;
#X connect 137 0 24 0;
#X connect 138 0 25 0;
#X connect 145 0 26 0;
#X connect 146 0 27 0;
#X connect 147 0 28 0;
#X connect 148 0 29 0;
#X connect 149 0 30 0;
#X connect 150 0 31 0;
#X connect 151 0 32 0;
#X connect 152 0 33 0;
#X connect 153 0 34 0;
#X connect 154 0 35 0;
#X connect 155 0 36 0;
#X connect 156 0 37 0;
#X connect 157 0 38 0;
#X connect 158 0 39 0;
#X connect 159 0 40 0;
#X connect 160 0 41 0;
#X connect 161 0 42 0;
#X connect 162 0 43 0;
#X connect 163 0 44 0;
#X connect 164 0 45 0;
#X connect 165 0 46 0;
#X connect 166 0 47 0;
#X connect 167 0 48 0;
#X connect 168 0 49 0;
#X connect 173 0 50 0;
#X connect 174 0 51 0;
#X connect 175 0 52 0;
#X connect 176 0 53 0;
#X connect 177 0 54 0;
#X connect 178 0 55 0;
#X connect 179 0 56 0;
#X connect 180 0 57 0;
#X connect 181 0 58 0;
#X connect 182 0 59 0;
#X connect 183 0 60 0;
#X connect 184 0 61 0;
#X connect 188 0 185 0;
#X connect 189 0 186 0;
#X connect 190 0 187 0;
#X connect 192 0 191 0;
#X connect 192 0 191 1;
#X connect 193 0 192 1;
#X connect 194 0 203 0;
#X connect 195 0 203 1;
#X connect 196 0 203 2;
#X connect 197 0 203 3;
#X connect 197 0 204 1;
#X connect 198 0 215 0;
#X connect 203 0 198 0;
#X connect 204 0 194 0;
#X connect 205 0 204 0;
#X connect 206 0 207 0;
#X connect 207 0 204 0;
#X connect 207 0 214 0;
#X connect 210 0 211 0;
#X connect 211 0 205 0;
#X connect 211 1 206 0;
#X connect 212 0 213 0;
#X connect 213 0 197 0;
#X connect 214 0 192 0;
#X connect 215 0 214 0;
