#N canvas 368 23 371 555 10;
#X obj 145 126 openpanel;
#X floatatom 165 211 12 0 0 0 - - -, f 12;
#X obj 145 251 expr 44100 / $f1;
#X floatatom 156 272 12 0 0 0 - - -, f 12;
#X obj 145 294 phasor~;
#X obj 145 334 *~;
#X obj 144 378 snapshot~;
#X obj 204 378 metro 50;
#X floatatom 144 399 12 0 0 0 - - -, f 12;
#X obj 144 419 /;
#X floatatom 222 400 5 0 0 0 - - -, f 5;
#X floatatom 157 314 5 0 0 0 - - -, f 5;
#X msg 221 294 1;
#X msg 195 294 0;
#X msg 195 316 0;
#X obj 146 190 soundfiler;
#X msg 221 316 0.5;
#N canvas 0 22 450 300 (subpatch) 0;
#X array c2 180864 float 0;
#X coords 0 1 180863 -1 115 55 1;
#X restore 142 455 graph;
#X obj 145 509 hsl 110 15 0 1 0 0 empty empty empty -2 -8 0 10 -262144
-1 -1 4875 1;
#X obj 166 92 hsl 110 20 -1 1 0 0 empty empty plybck_spd -2 -8 0 10
-260097 -1 -1 6856 1;
#X msg 158 53 0.258064;
#X text 164 22 OPEN;
#X obj 145 23 bng 15 250 50 0 empty empty empty 17 7 0 10 -262144 -1
-1;
#X obj 145 358 tabread4~ c2;
#X obj 157 231 s sampleSize2;
#X obj 172 336 r sampleSize2;
#X obj 170 420 r sampleSize2;
#X obj 233 358 tgl 15 0 empty empty empty 17 7 0 10 -262144 -1 -1 1
1;
#X obj 17 446 dac~;
#X obj 289 19 loadbang;
#X obj 290 47 t b b;
#X msg 146 151 read -resize \$1 c2;
#X connect 0 0 31 0;
#X connect 2 0 3 0;
#X connect 2 0 4 0;
#X connect 4 0 5 0;
#X connect 5 0 6 0;
#X connect 5 0 23 0;
#X connect 6 0 8 0;
#X connect 7 0 6 0;
#X connect 8 0 9 0;
#X connect 9 0 10 0;
#X connect 10 0 18 0;
#X connect 11 0 4 0;
#X connect 12 0 4 0;
#X connect 13 0 4 0;
#X connect 14 0 4 1;
#X connect 15 0 1 0;
#X connect 15 0 2 0;
#X connect 15 0 24 0;
#X connect 16 0 4 1;
#X connect 19 0 11 0;
#X connect 20 0 19 0;
#X connect 22 0 0 0;
#X connect 23 0 28 0;
#X connect 23 0 28 1;
#X connect 25 0 5 1;
#X connect 26 0 9 1;
#X connect 27 0 7 0;
#X connect 29 0 30 0;
#X connect 30 0 27 0;
#X connect 31 0 15 0;
