#N canvas 0 22 161 348 10;
#X obj 26 -179 tgl 15 0 empty empty empty 17 7 0 10 -262144 -1 -1 0
1;
#X obj 36 -100 cup;
#X obj 29 -134 metro 300;
#X obj 90 -281 vsl 15 128 0.1 600 0 0 empty empty empty 0 -9 0 10 -262144
-1 -1 0 1;
#X obj 23 20 nbx 10 14 -1e+37 1e+37 0 0 empty empty empty 0 -8 0 10
-262144 -1 -1 0 256;
#X obj 23 -9 / 1000;
#X obj 41 -39 % 360000;
#X obj 35 -68 * 10;
#X connect 0 0 2 0;
#X connect 1 0 7 0;
#X connect 2 0 1 0;
#X connect 3 0 2 1;
#X connect 5 0 4 0;
#X connect 6 0 5 0;
#X connect 7 0 6 0;
