#N canvas 227 37 834 681 10;
#X obj 226 37 openpanel;
#X floatatom 255 131 12 0 0 0 - - -, f 12;
#X obj 225 191 expr 44100 / $f1;
#X floatatom 235 213 12 0 0 0 - - -, f 12;
#X obj 225 290 phasor~;
#X obj 225 342 *~;
#X obj 454 314 snapshot~;
#X obj 454 284 metro 50;
#X floatatom 454 356 12 0 0 0 - - -, f 12;
#X obj 454 406 /;
#X floatatom 454 447 5 0 0 0 - - -, f 5;
#X floatatom 46 174 5 0 0 0 - - -, f 5;
#X msg 319 249 1;
#X msg 293 249 0;
#X msg 293 271 0;
#X obj 226 100 soundfiler;
#X msg 319 271 0.5;
#N canvas 0 22 450 300 (subpatch) 0;
#X array c2 180864 float 0;
#X coords 0 1 180863 -1 115 55 1;
#X restore 565 422 graph;
#X obj 568 476 hsl 110 15 0 1 0 0 empty empty empty -2 -8 0 10 -262144
-1 -1 429 1;
#X obj 49 139 hsl 110 20 -1 1 0 0 empty empty plybck_spd -2 -8 0 10
-260097 -1 -1 6779 1;
#X text 245 11 OPEN;
#X obj 226 12 bng 15 250 50 0 empty empty empty 17 7 0 10 -262144 -1
-1;
#X obj 225 382 tabread4~ c2;
#X obj 247 151 s sampleSize2;
#X obj 240 314 r sampleSize2;
#X obj 469 377 r sampleSize2;
#X obj 454 262 tgl 15 0 empty empty empty 17 7 0 10 -262144 -1 -1 0
1;
#X obj 218 439 dac~;
#X msg 226 67 read -resize \$1 c2;
#X obj 456 223 loadbang;
#X text 474 262 update slider;
#X obj 418 16 tgl 15 0 empty empty empty 17 7 0 10 -262144 -1 -1 0
1;
#X obj 390 71 select 1;
#X text 443 15 start/stop;
#X obj 507 114 tabread~;
#X obj 52 79 f;
#X connect 0 0 28 0;
#X connect 2 0 3 0;
#X connect 2 0 35 1;
#X connect 4 0 5 0;
#X connect 5 0 6 0;
#X connect 5 0 22 0;
#X connect 6 0 8 0;
#X connect 7 0 6 0;
#X connect 8 0 9 0;
#X connect 9 0 10 0;
#X connect 9 0 18 0;
#X connect 12 0 4 0;
#X connect 13 0 4 0;
#X connect 14 0 4 1;
#X connect 15 0 1 0;
#X connect 15 0 2 0;
#X connect 15 0 23 0;
#X connect 16 0 4 1;
#X connect 19 0 11 0;
#X connect 19 0 4 0;
#X connect 21 0 0 0;
#X connect 22 0 27 0;
#X connect 22 0 27 1;
#X connect 24 0 5 1;
#X connect 25 0 9 1;
#X connect 26 0 7 0;
#X connect 28 0 15 0;
#X connect 29 0 26 0;
#X connect 31 0 26 0;
#X connect 31 0 32 0;
#X connect 32 0 35 0;
#X connect 32 1 4 0;
#X connect 35 0 19 0;
