#N canvas 6 22 1265 737 10;
#X floatatom 134 -682 3 0 0 0 - - -;
#X obj 89 -734 notein;
#X obj 89 -708 stripnote;
#X floatatom 89 -683 3 0 0 0 - - -;
#X text 89 -758 MIDI IN;
#X obj 89 -663 bng 20 250 50 0 empty empty empty 17 7 0 10 -262144
-1 -1;
#X obj 33 -547 mtof;
#X obj 33 -515 phasor~;
#X obj 33 -481 dac~;
#X msg 68 -547 0;
#X text 71 -562 alloff;
#X text 182 -893 1 [ONE];
#X obj 183 -651 metro;
#X obj 306 -645 nbx 5 14 0 1e+37 0 0 empty empty empty 0 -8 0 10 -262144
-1 -1 219 256;
#X obj 225 -631 f;
#X obj 251 -631 + 1;
#X obj 183 -609 hradio 16 1 0 16 empty empty empty 0 -8 0 15 -262144
-1 -1 0;
#X obj 183 -564 f;
#X obj 309 -628 hsl 128 15 0 127 0 0 empty empty empty -2 -8 0 10 -262144
-1 -1 3000 1;
#X obj 183 -525 makenote 64 250;
#X obj 199 -464 makenote 64 250;
#X obj 306 -512 makenote 64 250;
#X obj 325 -452 makenote 64 250;
#X obj 183 -505 noteout 2;
#X obj 199 -444 noteout 2;
#X obj 306 -492 noteout 2;
#X obj 325 -432 noteout 2;
#X obj 212 -379 makenote 64 250;
#X obj 228 -318 makenote 64 250;
#X obj 330 -381 makenote 64 250;
#X obj 349 -321 makenote 64 250;
#X obj 212 -359 noteout 2;
#X obj 228 -298 noteout 2;
#X obj 330 -361 noteout 2;
#X obj 349 -301 noteout 2;
#X msg 212 -398 96;
#X msg 228 -339 97;
#X msg 367 -402 98;
#X msg 349 -340 99;
#X msg 183 -544 112;
#X msg 199 -483 113;
#X msg 366 -539 114;
#X msg 325 -471 115;
#X obj 89 -633 ctlin;
#X obj 89 -609 nbx 3 14 -1e+37 1e+37 0 0 empty empty empty 0 -8 0 10
-262144 -1 -1 0 256;
#X obj 101 -593 nbx 3 14 -1e+37 1e+37 0 0 empty empty empty 0 -8 0
10 -262144 -1 -1 94 256;
#X obj 115 -577 nbx 3 14 -1e+37 1e+37 0 0 empty empty empty 0 -8 0
10 -262144 -1 -1 1 256;
#X msg 215 -777 bang;
#X obj 330 -726 + 1;
#X obj 215 -723 - 1;
#X msg 330 -776 bang;
#X obj 252 -688 t b f;
#X obj 236 -809 nbx 5 14 -1e+37 1e+37 0 0 empty empty empty 0 -8 0
10 -262144 -1 -1 1 256;
#X obj 236 -794 bng 15 250 50 0 empty empty empty 17 7 0 10 -262144
-1 -1;
#X obj 256 -794 bng 15 250 50 0 empty empty empty 17 7 0 10 -262144
-1 -1;
#X obj 275 -794 bng 15 250 50 0 empty empty empty 17 7 0 10 -262144
-1 -1;
#X obj 236 -835 select 127 1;
#X obj 330 -750 v octo_counter1;
#X obj 215 -749 v octo_counter1;
#X obj 265 -666 v octo_counter1;
#X obj 183 -586 select 0 1 2 3 4 5 6 7 8 9 10 11 12 13 14;
#X obj 90 -828 loadbang;
#X msg 90 -803 66;
#X obj 368 -666 r stp_q_l66;
#X obj 90 -778 s stp_q_l66;
#X obj 183 -631 mod 8;
#X obj 182 -841 tgl 15 0 empty empty empty 17 7 0 10 -262144 -1 -1
0 127;
#X obj 447 -651 metro;
#X obj 571 -644 nbx 5 14 0 1e+37 0 0 empty empty empty 0 -8 0 10 -262144
-1 -1 234 256;
#X obj 489 -631 f;
#X obj 515 -631 + 1;
#X obj 447 -609 hradio 16 1 0 16 empty empty empty 0 -8 0 15 -262144
-1 -1 3;
#X obj 447 -564 f;
#X obj 573 -628 hsl 128 15 0 127 0 0 empty empty empty -2 -8 0 10 -262144
-1 -1 3600 1;
#X obj 447 -525 makenote 64 250;
#X obj 463 -464 makenote 64 250;
#X obj 570 -512 makenote 64 250;
#X obj 589 -452 makenote 64 250;
#X obj 447 -505 noteout 2;
#X obj 463 -444 noteout 2;
#X obj 570 -492 noteout 2;
#X obj 589 -432 noteout 2;
#X obj 476 -379 makenote 64 250;
#X obj 492 -318 makenote 64 250;
#X obj 594 -381 makenote 64 250;
#X obj 613 -321 makenote 64 250;
#X obj 476 -359 noteout 2;
#X obj 492 -298 noteout 2;
#X obj 594 -361 noteout 2;
#X obj 613 -301 noteout 2;
#X msg 492 -773 bang;
#X obj 607 -725 + 1;
#X obj 492 -722 - 1;
#X msg 607 -772 bang;
#X obj 514 -690 t b f;
#X obj 513 -808 nbx 5 14 -1e+37 1e+37 0 0 empty empty empty 0 -8 0
10 -262144 -1 -1 1 256;
#X obj 513 -793 bng 15 250 50 0 empty empty empty 17 7 0 10 -262144
-1 -1;
#X obj 533 -793 bng 15 250 50 0 empty empty empty 17 7 0 10 -262144
-1 -1;
#X obj 552 -793 bng 15 250 50 0 empty empty empty 17 7 0 10 -262144
-1 -1;
#X obj 513 -834 select 127 1;
#X obj 607 -749 v octo_counter1;
#X obj 492 -748 v octo_counter1;
#X obj 529 -666 v octo_counter1;
#X obj 447 -586 select 0 1 2 3 4 5 6 7 8 9 10 11 12 13 14;
#X obj 627 -666 r stp_q_l66;
#X obj 447 -631 mod 8;
#X obj 449 -848 tgl 15 0 empty empty empty 17 7 0 10 -262144 -1 -1
0 127;
#X text 446 -893 2 [TWO];
#X msg 447 -544 116;
#X msg 463 -483 117;
#X msg 630 -539 118;
#X msg 589 -471 119;
#X msg 476 -398 100;
#X msg 492 -339 101;
#X msg 631 -402 102;
#X msg 613 -340 103;
#X obj 710 -651 metro;
#X obj 833 -645 nbx 5 14 0 1e+37 0 0 empty empty empty 0 -8 0 10 -262144
-1 -1 172 256;
#X obj 752 -631 f;
#X obj 778 -631 + 1;
#X obj 710 -609 hradio 16 1 0 16 empty empty empty 0 -8 0 15 -262144
-1 -1 1;
#X obj 710 -564 f;
#X obj 836 -628 hsl 128 15 0 127 0 0 empty empty empty -2 -8 0 10 -262144
-1 -1 3200 1;
#X obj 710 -525 makenote 64 250;
#X obj 726 -464 makenote 64 250;
#X obj 833 -512 makenote 64 250;
#X obj 852 -452 makenote 64 250;
#X obj 710 -505 noteout 2;
#X obj 726 -444 noteout 2;
#X obj 833 -492 noteout 2;
#X obj 852 -432 noteout 2;
#X obj 739 -379 makenote 64 250;
#X obj 755 -318 makenote 64 250;
#X obj 857 -381 makenote 64 250;
#X obj 876 -321 makenote 64 250;
#X obj 739 -359 noteout 2;
#X obj 755 -298 noteout 2;
#X obj 857 -361 noteout 2;
#X obj 876 -301 noteout 2;
#X msg 758 -759 bang;
#X obj 873 -718 + 1;
#X obj 758 -715 - 1;
#X msg 873 -758 bang;
#X obj 760 -692 t b f;
#X obj 779 -791 nbx 5 14 -1e+37 1e+37 0 0 empty empty empty 0 -8 0
10 -262144 -1 -1 1 256;
#X obj 779 -776 bng 15 250 50 0 empty empty empty 17 7 0 10 -262144
-1 -1;
#X obj 799 -776 bng 15 250 50 0 empty empty empty 17 7 0 10 -262144
-1 -1;
#X obj 818 -776 bng 15 250 50 0 empty empty empty 17 7 0 10 -262144
-1 -1;
#X obj 779 -813 select 127 1;
#X obj 873 -738 v octo_counter1;
#X obj 758 -737 v octo_counter1;
#X obj 774 -670 v octo_counter1;
#X obj 710 -586 select 0 1 2 3 4 5 6 7 8 9 10 11 12 13 14;
#X obj 889 -672 r stp_q_l66;
#X obj 710 -631 mod 8;
#X obj 710 -843 tgl 15 0 empty empty empty 17 7 0 10 -262144 -1 -1
0 124;
#X text 709 -893 3 [THREE];
#X msg 739 -398 104;
#X msg 755 -339 105;
#X msg 894 -402 106;
#X msg 876 -340 107;
#X msg 710 -544 120;
#X msg 726 -483 121;
#X msg 893 -539 122;
#X msg 852 -471 123;
#X obj 974 -651 metro;
#X obj 1097 -645 nbx 5 14 0 1e+37 0 0 empty empty empty 0 -8 0 10 -262144
-1 -1 207 256;
#X obj 1016 -631 f;
#X obj 1042 -631 + 1;
#X obj 974 -609 hradio 16 1 0 16 empty empty empty 0 -8 0 15 -262144
-1 -1 4;
#X obj 974 -564 f;
#X obj 1100 -628 hsl 128 15 0 127 0 0 empty empty empty -2 -8 0 10
-262144 -1 -1 3800 1;
#X obj 974 -525 makenote 64 250;
#X obj 990 -464 makenote 64 250;
#X obj 1097 -512 makenote 64 250;
#X obj 1116 -452 makenote 64 250;
#X obj 974 -505 noteout 2;
#X obj 990 -444 noteout 2;
#X obj 1097 -492 noteout 2;
#X obj 1116 -432 noteout 2;
#X obj 1003 -379 makenote 64 250;
#X obj 1019 -318 makenote 64 250;
#X obj 1121 -381 makenote 64 250;
#X obj 1140 -321 makenote 64 250;
#X obj 1003 -359 noteout 2;
#X obj 1019 -298 noteout 2;
#X obj 1121 -361 noteout 2;
#X obj 1140 -301 noteout 2;
#X msg 1035 -776 bang;
#X obj 1150 -725 + 1;
#X obj 1035 -722 - 1;
#X msg 1150 -775 bang;
#X obj 1049 -699 t b f;
#X obj 1056 -808 nbx 5 14 -1e+37 1e+37 0 0 empty empty empty 0 -8 0
10 -262144 -1 -1 1 256;
#X obj 1056 -793 bng 15 250 50 0 empty empty empty 17 7 0 10 -262144
-1 -1;
#X obj 1076 -793 bng 15 250 50 0 empty empty empty 17 7 0 10 -262144
-1 -1;
#X obj 1095 -793 bng 15 250 50 0 empty empty empty 17 7 0 10 -262144
-1 -1;
#X obj 1056 -834 select 127 1;
#X obj 1150 -749 v octo_counter1;
#X obj 1035 -748 v octo_counter1;
#X obj 1052 -673 v octo_counter1;
#X obj 974 -586 select 0 1 2 3 4 5 6 7 8 9 10 11 12 13 14;
#X obj 1157 -667 r stp_q_l66;
#X obj 974 -631 mod 8;
#X obj 974 -845 tgl 15 0 empty empty empty 17 7 0 10 -262144 -1 -1
0 116;
#X text 973 -893 4 [FOUR];
#X msg 974 -544 124;
#X msg 990 -483 125;
#X msg 1157 -539 126;
#X msg 1116 -471 127;
#X msg 1003 -398 108;
#X msg 1019 -339 109;
#X msg 1158 -402 110;
#X msg 1140 -340 111;
#X obj 234 20 metro;
#X obj 261 6 nbx 5 14 0 1e+37 0 0 empty empty empty 0 -8 0 10 -262144
-1 -1 86 256;
#X obj 276 40 f;
#X obj 302 40 + 1;
#X obj 234 62 hradio 16 1 0 16 empty empty empty 0 -8 0 15 -262144
-1 -1 0;
#X obj 133 291 f;
#X obj 151 259 hsl 128 15 0 127 0 0 empty empty empty -2 -8 0 10 -262144
-1 -1 5100 1;
#X msg 195 -120 bang;
#X obj 310 -85 + 1;
#X obj 195 -82 - 1;
#X msg 310 -119 bang;
#X obj 250 -60 t b f;
#X obj 216 -174 nbx 5 14 -1e+37 1e+37 0 0 empty empty empty 0 -8 0
10 -262144 -1 -1 127 256;
#X obj 214 -137 bng 15 250 50 0 empty empty empty 17 7 0 10 -262144
-1 -1;
#X obj 229 -137 bng 15 250 50 0 empty empty empty 17 7 0 10 -262144
-1 -1;
#X obj 244 -137 bng 15 250 50 0 empty empty empty 17 7 0 10 -262144
-1 -1;
#X obj 195 -155 select 127 1;
#X obj 310 -102 v octo_counter1;
#X obj 195 -101 v octo_counter1;
#X obj 261 -38 v octo_counter1;
#X obj 274 -16 r stp_q_l66;
#X obj 302 130 tgl 15 0 empty empty empty 17 7 0 10 -262144 -1 -1 0
102;
#X text 146 206 5 [FIVE];
#X obj 193 1213 makenote 64 250;
#X msg 193 1194 0;
#X obj 927 1565 makenote 64 250;
#X obj 290 1213 makenote 64 250;
#X obj 929 1626 makenote 64 250;
#X obj 387 1213 makenote 64 250;
#X obj 930 1685 makenote 64 250;
#X obj 484 1213 makenote 64 250;
#X obj 931 1745 makenote 64 250;
#X msg 927 1546 1;
#X msg 290 1194 2;
#X msg 929 1607 3;
#X msg 387 1194 4;
#X msg 930 1666 5;
#X msg 484 1194 6;
#X msg 931 1726 7;
#X obj 193 1233 noteout 2;
#X obj 927 1585 noteout 2;
#X obj 290 1233 noteout 2;
#X obj 929 1646 noteout 2;
#X obj 387 1233 noteout 2;
#X obj 930 1705 noteout 2;
#X obj 484 1233 noteout 2;
#X obj 931 1769 noteout 2;
#X obj 581 1213 makenote 64 250;
#X obj 581 1237 noteout 2;
#X obj 932 1812 makenote 64 250;
#X obj 932 1836 noteout 2;
#X obj 678 1213 makenote 64 250;
#X obj 678 1236 noteout 2;
#X obj 932 1877 makenote 64 250;
#X obj 932 1901 noteout 2;
#X obj 775 1213 makenote 64 250;
#X obj 775 1237 noteout 2;
#X msg 581 1194 8;
#X msg 932 1793 9;
#X msg 678 1194 10;
#X msg 932 1858 11;
#X msg 775 1194 12;
#X obj 932 1943 makenote 64 250;
#X obj 932 1967 noteout 2;
#X obj 872 1212 makenote 64 250;
#X obj 872 1236 noteout 2;
#X obj 932 2010 makenote 64 250;
#X obj 932 2034 noteout 2;
#X msg 932 1924 13;
#X msg 872 1193 14;
#X msg 932 1991 15;
#X obj 190 1005 makenote 64 250;
#X obj 818 1567 makenote 64 250;
#X obj 287 1006 makenote 64 250;
#X obj 817 1628 makenote 64 250;
#X obj 384 1006 makenote 64 250;
#X obj 817 1691 makenote 64 250;
#X obj 481 1006 makenote 64 250;
#X obj 815 1752 makenote 64 250;
#X obj 190 1025 noteout 2;
#X obj 818 1587 noteout 2;
#X obj 287 1026 noteout 2;
#X obj 817 1648 noteout 2;
#X obj 384 1026 noteout 2;
#X obj 817 1711 noteout 2;
#X obj 481 1026 noteout 2;
#X obj 815 1776 noteout 2;
#X obj 578 1005 makenote 64 250;
#X obj 578 1029 noteout 2;
#X obj 814 1819 makenote 64 250;
#X obj 814 1843 noteout 2;
#X obj 675 1004 makenote 64 250;
#X obj 675 1027 noteout 2;
#X obj 814 1883 makenote 64 250;
#X obj 814 1907 noteout 2;
#X obj 772 1004 makenote 64 250;
#X obj 772 1028 noteout 2;
#X obj 814 1947 makenote 64 250;
#X obj 814 1971 noteout 2;
#X obj 869 1004 makenote 64 250;
#X obj 869 1028 noteout 2;
#X obj 814 2011 makenote 64 250;
#X obj 814 2035 noteout 2;
#X msg 190 986 16;
#X msg 818 1548 17;
#X msg 287 987 18;
#X msg 817 1609 19;
#X msg 384 987 20;
#X msg 817 1672 21;
#X msg 481 987 22;
#X msg 815 1733 23;
#X msg 578 986 24;
#X msg 814 1800 25;
#X msg 675 985 26;
#X msg 814 1864 27;
#X msg 772 985 28;
#X msg 814 1928 29;
#X msg 869 984 30;
#X msg 814 1992 31;
#X obj 189 864 makenote 64 250;
#X obj 706 1568 makenote 64 250;
#X obj 291 864 makenote 64 250;
#X obj 706 1629 makenote 64 250;
#X obj 389 861 makenote 64 250;
#X obj 706 1689 makenote 64 250;
#X obj 487 860 makenote 64 250;
#X obj 707 1749 makenote 64 250;
#X obj 189 884 noteout 2;
#X obj 706 1588 noteout 2;
#X obj 291 884 noteout 2;
#X obj 706 1649 noteout 2;
#X obj 389 881 noteout 2;
#X obj 706 1709 noteout 2;
#X obj 487 880 noteout 2;
#X obj 707 1773 noteout 2;
#X obj 587 861 makenote 64 250;
#X obj 587 885 noteout 2;
#X obj 707 1816 makenote 64 250;
#X obj 707 1840 noteout 2;
#X obj 684 861 makenote 64 250;
#X obj 684 884 noteout 2;
#X obj 707 1881 makenote 64 250;
#X obj 707 1905 noteout 2;
#X obj 709 1947 makenote 64 250;
#X obj 709 1971 noteout 2;
#X obj 709 2011 makenote 64 250;
#X obj 709 2035 noteout 2;
#X obj 188 678 makenote 64 250;
#X obj 601 1568 makenote 64 250;
#X obj 289 675 makenote 64 250;
#X obj 602 1628 makenote 64 250;
#X obj 387 675 makenote 64 250;
#X obj 602 1687 makenote 64 250;
#X obj 486 673 makenote 64 250;
#X obj 603 1747 makenote 64 250;
#X obj 188 698 noteout 2;
#X obj 601 1588 noteout 2;
#X obj 289 695 noteout 2;
#X obj 602 1648 noteout 2;
#X obj 387 695 noteout 2;
#X obj 602 1707 noteout 2;
#X obj 486 694 noteout 2;
#X obj 603 1771 noteout 2;
#X obj 587 672 makenote 64 250;
#X obj 587 696 noteout 2;
#X obj 603 1814 makenote 64 250;
#X obj 603 1838 noteout 2;
#X obj 686 671 makenote 64 250;
#X obj 686 694 noteout 2;
#X obj 603 1879 makenote 64 250;
#X obj 603 1903 noteout 2;
#X obj 784 671 makenote 64 250;
#X obj 784 694 noteout 2;
#X obj 605 1945 makenote 64 250;
#X obj 605 1969 noteout 2;
#X obj 882 670 makenote 64 250;
#X obj 882 694 noteout 2;
#X obj 605 2010 makenote 64 250;
#X obj 605 2034 noteout 2;
#X obj 165 1327 makenote 64 250;
#X obj 167 1387 makenote 64 250;
#X obj 168 1447 makenote 64 250;
#X obj 170 1507 makenote 64 250;
#X obj 165 1347 noteout 2;
#X obj 167 1407 noteout 2;
#X obj 168 1467 noteout 2;
#X obj 170 1531 noteout 2;
#X obj 170 1571 makenote 64 250;
#X obj 170 1595 noteout 2;
#X obj 170 1634 makenote 64 250;
#X obj 170 1658 noteout 2;
#X obj 170 1696 makenote 64 250;
#X obj 170 1719 noteout 2;
#X obj 170 1759 makenote 64 250;
#X obj 170 1783 noteout 2;
#X obj 170 1821 makenote 64 250;
#X obj 170 1845 noteout 2;
#X obj 170 1885 makenote 64 250;
#X obj 170 1909 noteout 2;
#X obj 170 1948 makenote 64 250;
#X obj 170 1972 noteout 2;
#X obj 170 2012 makenote 64 250;
#X obj 170 2036 noteout 2;
#X obj 282 1327 makenote 64 250;
#X obj 284 1387 makenote 64 250;
#X obj 285 1447 makenote 64 250;
#X obj 287 1507 makenote 64 250;
#X obj 282 1347 noteout 2;
#X obj 284 1407 noteout 2;
#X obj 285 1467 noteout 2;
#X obj 287 1531 noteout 2;
#X obj 287 1571 makenote 64 250;
#X obj 287 1595 noteout 2;
#X obj 287 1634 makenote 64 250;
#X obj 287 1658 noteout 2;
#X obj 287 1696 makenote 64 250;
#X obj 287 1719 noteout 2;
#X obj 287 1759 makenote 64 250;
#X obj 287 1783 noteout 2;
#X obj 287 1821 makenote 64 250;
#X obj 287 1845 noteout 2;
#X obj 287 1885 makenote 64 250;
#X obj 287 1909 noteout 2;
#X obj 287 1948 makenote 64 250;
#X obj 287 1972 noteout 2;
#X obj 287 2012 makenote 64 250;
#X obj 287 2036 noteout 2;
#X obj 181 367 makenote 64 250;
#X obj 399 1562 makenote 64 250;
#X obj 302 365 makenote 64 250;
#X obj 399 1627 makenote 64 250;
#X obj 411 363 makenote 64 250;
#X obj 400 1688 makenote 64 250;
#X obj 523 362 makenote 64 250;
#X obj 400 1752 makenote 64 250;
#X obj 181 387 noteout 2;
#X obj 399 1586 noteout 2;
#X obj 302 385 noteout 2;
#X obj 399 1647 noteout 2;
#X obj 411 383 noteout 2;
#X obj 400 1712 noteout 2;
#X obj 523 382 noteout 2;
#X obj 400 1776 noteout 2;
#X obj 400 1817 makenote 64 250;
#X obj 400 1841 noteout 2;
#X obj 400 1882 makenote 64 250;
#X obj 400 1906 noteout 2;
#X obj 400 1947 makenote 64 250;
#X obj 400 1971 noteout 2;
#X obj 400 2012 makenote 64 250;
#X obj 400 2036 noteout 2;
#X obj 184 545 makenote 64 250;
#X obj 499 1561 makenote 64 250;
#X obj 300 542 makenote 64 250;
#X obj 500 1622 makenote 64 250;
#X obj 414 539 makenote 64 250;
#X obj 501 1684 makenote 64 250;
#X obj 524 540 makenote 64 250;
#X obj 501 1748 makenote 64 250;
#X obj 184 565 noteout 2;
#X obj 499 1581 noteout 2;
#X obj 300 562 noteout 2;
#X obj 500 1642 noteout 2;
#X obj 414 559 noteout 2;
#X obj 501 1704 noteout 2;
#X obj 524 560 noteout 2;
#X obj 501 1772 noteout 2;
#X obj 501 1815 makenote 64 250;
#X obj 501 1839 noteout 2;
#X obj 501 1880 makenote 64 250;
#X obj 501 1904 noteout 2;
#X obj 501 1946 makenote 64 250;
#X obj 501 1970 noteout 2;
#X obj 501 2013 makenote 64 250;
#X obj 501 2037 noteout 2;
#X msg 189 845 32;
#X msg 706 1549 33;
#X msg 291 845 34;
#X msg 706 1610 35;
#X msg 389 842 36;
#X msg 706 1670 37;
#X msg 487 841 38;
#X msg 707 1730 39;
#X msg 587 842 40;
#X msg 707 1797 41;
#X msg 684 842 42;
#X msg 707 1862 43;
#X msg 709 1928 45;
#X msg 709 1992 47;
#X msg 188 659 48;
#X msg 601 1549 49;
#X msg 289 656 50;
#X msg 602 1609 51;
#X msg 387 656 52;
#X msg 602 1668 53;
#X msg 486 654 54;
#X msg 603 1728 55;
#X msg 587 653 56;
#X msg 603 1795 57;
#X msg 686 652 58;
#X msg 603 1860 59;
#X msg 784 652 60;
#X msg 605 1926 61;
#X msg 882 650 62;
#X msg 605 1991 63;
#X msg 184 526 64;
#X msg 499 1542 65;
#X msg 300 523 66;
#X msg 500 1603 67;
#X msg 414 520 68;
#X msg 501 1665 69;
#X msg 524 521 70;
#X msg 501 1729 71;
#X msg 501 1796 73;
#X msg 501 1861 75;
#X msg 501 1927 77;
#X msg 501 1994 79;
#X msg 181 348 80;
#X msg 399 1541 81;
#X msg 302 346 82;
#X msg 399 1608 83;
#X msg 411 344 84;
#X msg 400 1669 85;
#X msg 523 343 86;
#X msg 400 1733 87;
#X msg 400 1798 89;
#X msg 400 1863 91;
#X msg 400 1928 93;
#X msg 400 1993 95;
#X msg 281 1308 100;
#X msg 284 1368 101;
#X msg 285 1428 102;
#X msg 286 1488 103;
#X msg 287 1552 104;
#X msg 287 1615 105;
#X msg 287 1677 106;
#X msg 287 1740 107;
#X msg 287 1802 108;
#X msg 287 1866 109;
#X msg 287 1928 110;
#X msg 287 1993 111;
#X msg 165 1308 116;
#X msg 167 1368 117;
#X msg 168 1428 118;
#X msg 170 1488 119;
#X msg 170 1552 120;
#X msg 170 1615 121;
#X msg 170 1677 122;
#X msg 170 1740 123;
#X msg 170 1802 124;
#X msg 170 1866 125;
#X msg 170 1929 126;
#X msg 170 1993 127;
#X obj 183 287 select 0 1 2 3 4 5 6 7 8 9 10 11 12 13 14 15;
#X obj 234 40 mod 16;
#X obj 643 362 makenote 64 250;
#X obj 643 386 noteout 2;
#X obj 751 360 makenote 64 250;
#X obj 751 383 noteout 2;
#X obj 855 360 makenote 64 250;
#X obj 855 384 noteout 2;
#X obj 957 360 makenote 64 250;
#X obj 957 384 noteout 2;
#X obj 645 548 makenote 64 250;
#X obj 645 572 noteout 2;
#X obj 753 540 makenote 64 250;
#X obj 753 563 noteout 2;
#X obj 857 539 makenote 64 250;
#X obj 857 563 noteout 2;
#X obj 957 535 makenote 64 250;
#X obj 957 559 noteout 2;
#X msg 645 526 72;
#X msg 753 521 74;
#X msg 857 520 76;
#X msg 957 515 78;
#X msg 643 343 88;
#X msg 751 341 90;
#X msg 855 341 92;
#X msg 957 341 94;
#X obj 643 285 select 0 1 2 3 4 5 6 7 8 9 10 11 12 13 14 15;
#X obj 364 130 tgl 15 0 empty empty empty 17 7 0 10 -262144 -1 -1 0
104;
#X obj 313 158 spigot 85;
#X obj 426 129 tgl 15 0 empty empty empty 17 7 0 10 -262144 -1 -1 87
87;
#X obj 488 129 tgl 15 0 empty empty empty 17 7 0 10 -262144 -1 -1 0
104;
#X obj 437 157 spigot 85;
#X obj 375 158 spigot 85;
#X obj 182 -864 ctlin 50;
#X obj 449 -871 ctlin 51;
#X obj 710 -866 ctlin 52;
#X obj 974 -869 ctlin 53;
#X obj 302 108 ctlin 127;
#X obj 364 108 ctlin 126;
#X obj 426 108 ctlin 125;
#X obj 488 108 ctlin 124;
#X obj 549 108 ctlin 123;
#X obj 612 108 ctlin 122;
#X obj 674 108 ctlin 121;
#X obj 737 108 ctlin 120;
#X obj 251 158 spigot 85;
#X obj 549 129 tgl 15 0 empty empty empty 17 7 0 10 -262144 -1 -1 0
1;
#X obj 612 129 tgl 15 0 empty empty empty 17 7 0 10 -262144 -1 -1 0
81;
#X obj 674 129 tgl 15 0 empty empty empty 17 7 0 10 -262144 -1 -1 0
1;
#X obj 737 128 tgl 15 0 empty empty empty 17 7 0 10 -262144 -1 -1 0
1;
#X obj 498 157 spigot 85;
#X obj 561 157 spigot 85;
#X obj 623 157 spigot 85;
#X obj 686 157 spigot 85;
#X text 195 -219 MAIN SEQUENCER;
#X obj 234 83 t f f f f f f;
#X obj 783 860 makenote 64 250;
#X obj 783 883 noteout 2;
#X obj 882 860 makenote 64 250;
#X obj 882 883 noteout 2;
#X msg 783 841 44;
#X msg 882 841 46;
#X text 620 200 6 [SIX];
#X obj 188 623 select 0 1 2 3 4 5 6 7 8 9 10 11 12 13 14 15;
#X text 186 603 7 [SE7EN];
#X obj 190 954 select 0 1 2 3 4 5 6 7 8 9 10 11 12 13 14 15;
#X text 192 929 8 [EIGHT];
#X obj 184 -22 loadbang;
#X obj 14 -864 ctlin 95;
#X obj 68 -864 ctlin 94;
#X obj 123 -864 ctlin 93;
#X obj 242 -864 ctlin 111;
#X obj 514 -871 ctlin 110;
#X obj 780 -866 ctlin 109;
#X obj 1056 -868 ctlin 108;
#X obj 195 -195 ctlin 107;
#X obj 322 -864 ctlin 119;
#X obj 599 -872 ctlin 118;
#X obj 865 -866 ctlin 117;
#X obj 1122 -868 ctlin 116;
#X obj 182 412 ctlin 33;
#X obj 412 410 ctlin 35;
#X obj 524 411 ctlin 36;
#X obj 302 411 ctlin 34;
#X obj 182 436 tgl 15 0 empty empty empty 17 7 0 10 -262144 -1 -1 0
127;
#X obj 302 437 tgl 15 0 empty empty empty 17 7 0 10 -262144 -1 -1 0
78;
#X obj 412 436 tgl 15 0 empty empty empty 17 7 0 10 -262144 -1 -1 0
122;
#X obj 524 437 tgl 15 0 empty empty empty 17 7 0 10 -262144 -1 -1 0
127;
#X obj 149 458 spigot;
#X obj 269 460 spigot;
#X obj 379 460 spigot;
#X obj 491 460 spigot;
#X obj 148 234 ctlin 112;
#X obj 42 366 bng 15 250 50 0 empty empty empty 17 7 0 10 -262144 -1
-1;
#X obj 57 366 nbx 5 14 -1e+37 1e+37 0 0 empty empty empty 0 -8 0 10
-262144 -1 -1 51 256;
#X obj 555 435 ctlin 37;
#X obj 555 460 tgl 15 0 empty empty empty 17 7 0 10 -262144 -1 -1 0
71;
#X obj 522 488 spigot;
#X obj 434 460 tgl 15 0 empty empty empty 17 7 0 10 -262144 -1 -1 0
127;
#X obj 401 488 spigot;
#X obj 434 435 ctlin 38;
#X obj 324 460 tgl 15 0 empty empty empty 17 7 0 10 -262144 -1 -1 0
99;
#X obj 291 488 spigot;
#X obj 324 435 ctlin 39;
#X obj 208 459 tgl 15 0 empty empty empty 17 7 0 10 -262144 -1 -1 0
89;
#X obj 175 487 spigot;
#X obj 208 434 ctlin 40;
#X obj 652 438 tgl 15 0 empty empty empty 17 7 0 10 -262144 -1 -1 0
45;
#X obj 772 439 tgl 15 0 empty empty empty 17 7 0 10 -262144 -1 -1 0
100;
#X obj 882 438 tgl 15 0 empty empty empty 17 7 0 10 -262144 -1 -1 0
48;
#X obj 994 439 tgl 15 0 empty empty empty 17 7 0 10 -262144 -1 -1 0
105;
#X obj 619 460 spigot;
#X obj 739 462 spigot;
#X obj 849 462 spigot;
#X obj 961 462 spigot;
#X obj 1025 462 tgl 15 0 empty empty empty 17 7 0 10 -262144 -1 -1
0 38;
#X obj 992 490 spigot;
#X obj 904 462 tgl 15 0 empty empty empty 17 7 0 10 -262144 -1 -1 0
49;
#X obj 871 490 spigot;
#X obj 794 462 tgl 15 0 empty empty empty 17 7 0 10 -262144 -1 -1 0
42;
#X obj 761 490 spigot;
#X obj 678 461 tgl 15 0 empty empty empty 17 7 0 10 -262144 -1 -1 0
127;
#X obj 645 489 spigot;
#X obj 652 414 ctlin 41;
#X obj 772 413 ctlin 42;
#X obj 882 412 ctlin 43;
#X obj 994 413 ctlin 44;
#X obj 1025 437 ctlin 45;
#X obj 904 437 ctlin 46;
#X obj 794 437 ctlin 47;
#X obj 678 436 ctlin 48;
#X obj 608 283 f;
#X obj 626 251 hsl 128 15 0 127 0 0 empty empty empty -2 -8 0 10 -262144
-1 -1 4900 1;
#X obj 599 306 bng 15 250 50 0 empty empty empty 17 7 0 10 -262144
-1 -1;
#X obj 614 306 nbx 5 14 -1e+37 1e+37 0 0 empty empty empty 0 -8 0 10
-262144 -1 -1 49 256;
#X obj 623 226 ctlin 113;
#X obj 702 614 f;
#X obj 565 616 hsl 128 15 0 127 0 0 empty empty empty -2 -8 0 10 -262144
-1 -1 6400 1;
#X obj 732 615 bng 15 250 50 0 empty empty empty 17 7 0 10 -262144
-1 -1;
#X obj 747 615 nbx 5 14 -1e+37 1e+37 0 0 empty empty empty 0 -8 0 10
-262144 -1 -1 64 256;
#X obj 499 614 ctlin 114;
#X obj 188 739 tgl 15 0 empty empty empty 17 7 0 10 -262144 -1 -1 0
46;
#X obj 290 739 tgl 15 0 empty empty empty 17 7 0 10 -262144 -1 -1 0
22;
#X obj 388 738 tgl 15 0 empty empty empty 17 7 0 10 -262144 -1 -1 0
45;
#X obj 488 739 tgl 15 0 empty empty empty 17 7 0 10 -262144 -1 -1 0
75;
#X obj 155 755 spigot;
#X obj 257 755 spigot;
#X obj 355 754 spigot;
#X obj 455 755 spigot;
#X obj 883 738 tgl 15 0 empty empty empty 17 7 0 10 -262144 -1 -1 0
59;
#X obj 850 754 spigot;
#X obj 785 738 tgl 15 0 empty empty empty 17 7 0 10 -262144 -1 -1 0
62;
#X obj 752 754 spigot;
#X obj 687 738 tgl 15 0 empty empty empty 17 7 0 10 -262144 -1 -1 0
127;
#X obj 654 754 spigot;
#X obj 588 737 tgl 15 0 empty empty empty 17 7 0 10 -262144 -1 -1 0
122;
#X obj 555 753 spigot;
#X obj 188 722 ctlin 17;
#X obj 290 721 ctlin 18;
#X obj 388 720 ctlin 19;
#X obj 488 721 ctlin 20;
#X obj 588 719 ctlin 21;
#X obj 687 720 ctlin 22;
#X obj 785 720 ctlin 23;
#X obj 883 720 ctlin 24;
#X obj 188 799 tgl 15 0 empty empty empty 17 7 0 10 -262144 -1 -1 0
32;
#X obj 290 799 tgl 15 0 empty empty empty 17 7 0 10 -262144 -1 -1 0
56;
#X obj 388 798 tgl 15 0 empty empty empty 17 7 0 10 -262144 -1 -1 0
52;
#X obj 488 799 tgl 15 0 empty empty empty 17 7 0 10 -262144 -1 -1 0
61;
#X obj 155 815 spigot;
#X obj 257 815 spigot;
#X obj 355 814 spigot;
#X obj 455 815 spigot;
#X obj 883 798 tgl 15 0 empty empty empty 17 7 0 10 -262144 -1 -1 0
49;
#X obj 850 814 spigot;
#X obj 785 798 tgl 15 0 empty empty empty 17 7 0 10 -262144 -1 -1 0
41;
#X obj 752 814 spigot;
#X obj 687 798 tgl 15 0 empty empty empty 17 7 0 10 -262144 -1 -1 0
92;
#X obj 654 814 spigot;
#X obj 588 797 tgl 15 0 empty empty empty 17 7 0 10 -262144 -1 -1 0
51;
#X obj 555 813 spigot;
#X obj 883 780 ctlin 25;
#X obj 785 780 ctlin 26;
#X obj 687 780 ctlin 27;
#X obj 588 779 ctlin 28;
#X obj 488 781 ctlin 29;
#X obj 388 780 ctlin 30;
#X obj 290 781 ctlin 31;
#X obj 188 782 ctlin 32;
#X obj 190 1069 tgl 15 0 empty empty empty 17 7 0 10 -262144 -1 -1
0 11;
#X obj 287 1069 tgl 15 0 empty empty empty 17 7 0 10 -262144 -1 -1
0 86;
#X obj 385 1068 tgl 15 0 empty empty empty 17 7 0 10 -262144 -1 -1
0 68;
#X obj 483 1069 tgl 15 0 empty empty empty 17 7 0 10 -262144 -1 -1
0 96;
#X obj 157 1085 spigot;
#X obj 254 1085 spigot;
#X obj 352 1084 spigot;
#X obj 450 1085 spigot;
#X obj 870 1068 tgl 15 0 empty empty empty 17 7 0 10 -262144 -1 -1
0 62;
#X obj 837 1084 spigot;
#X obj 772 1068 tgl 15 0 empty empty empty 17 7 0 10 -262144 -1 -1
0 62;
#X obj 739 1084 spigot;
#X obj 677 1068 tgl 15 0 empty empty empty 17 7 0 10 -262144 -1 -1
0 59;
#X obj 644 1084 spigot;
#X obj 579 1067 tgl 15 0 empty empty empty 17 7 0 10 -262144 -1 -1
0 86;
#X obj 546 1083 spigot;
#X obj 190 1129 tgl 15 0 empty empty empty 17 7 0 10 -262144 -1 -1
0 28;
#X obj 287 1129 tgl 15 0 empty empty empty 17 7 0 10 -262144 -1 -1
0 66;
#X obj 385 1128 tgl 15 0 empty empty empty 17 7 0 10 -262144 -1 -1
0 39;
#X obj 483 1129 tgl 15 0 empty empty empty 17 7 0 10 -262144 -1 -1
0 127;
#X obj 157 1145 spigot;
#X obj 254 1145 spigot;
#X obj 352 1144 spigot;
#X obj 450 1145 spigot;
#X obj 870 1128 tgl 15 0 empty empty empty 17 7 0 10 -262144 -1 -1
0 56;
#X obj 837 1144 spigot;
#X obj 772 1128 tgl 15 0 empty empty empty 17 7 0 10 -262144 -1 -1
0 65;
#X obj 739 1144 spigot;
#X obj 677 1128 tgl 15 0 empty empty empty 17 7 0 10 -262144 -1 -1
0 79;
#X obj 644 1144 spigot;
#X obj 579 1127 tgl 15 0 empty empty empty 17 7 0 10 -262144 -1 -1
0 53;
#X obj 546 1143 spigot;
#X obj 712 939 f;
#X obj 575 941 hsl 128 15 0 127 0 0 empty empty empty -2 -8 0 10 -262144
-1 -1 6500 1;
#X obj 742 940 bng 15 250 50 0 empty empty empty 17 7 0 10 -262144
-1 -1;
#X obj 757 940 nbx 5 14 -1e+37 1e+37 0 0 empty empty empty 0 -8 0 10
-262144 -1 -1 65 256;
#X obj 190 1052 ctlin 77;
#X obj 287 1051 ctlin 78;
#X obj 385 1050 ctlin 79;
#X obj 483 1051 ctlin 80;
#X obj 579 1049 ctlin 81;
#X obj 677 1050 ctlin 82;
#X obj 772 1050 ctlin 83;
#X obj 870 1050 ctlin 84;
#X obj 870 1110 ctlin 85;
#X obj 772 1110 ctlin 86;
#X obj 677 1110 ctlin 87;
#X obj 579 1109 ctlin 88;
#X obj 483 1111 ctlin 89;
#X obj 385 1110 ctlin 90;
#X obj 287 1111 ctlin 91;
#X obj 190 1112 ctlin 92;
#X obj 509 939 ctlin 115;
#X obj 21 427 mtof;
#X obj 21 459 phasor~;
#X msg 56 427 0;
#X text 54 412 alloff;
#X obj 37 509 mtof;
#X obj 37 541 phasor~;
#X msg 72 509 0;
#X text 75 494 alloff;
#X connect 1 0 2 0;
#X connect 1 1 2 1;
#X connect 2 0 3 0;
#X connect 2 1 0 0;
#X connect 3 0 5 0;
#X connect 6 0 7 0;
#X connect 7 0 8 0;
#X connect 7 0 8 1;
#X connect 9 0 7 1;
#X connect 9 0 7 0;
#X connect 12 0 14 0;
#X connect 13 0 12 1;
#X connect 14 0 15 0;
#X connect 14 0 65 0;
#X connect 15 0 14 1;
#X connect 16 0 60 0;
#X connect 17 0 6 0;
#X connect 18 0 17 1;
#X connect 19 0 23 0;
#X connect 19 1 23 1;
#X connect 20 0 24 0;
#X connect 20 1 24 1;
#X connect 21 0 25 0;
#X connect 21 1 25 1;
#X connect 22 0 26 0;
#X connect 22 1 26 1;
#X connect 27 0 31 0;
#X connect 27 1 31 1;
#X connect 28 0 32 0;
#X connect 28 1 32 1;
#X connect 29 0 33 0;
#X connect 29 1 33 1;
#X connect 30 0 34 0;
#X connect 30 1 34 1;
#X connect 35 0 27 0;
#X connect 36 0 28 0;
#X connect 37 0 29 0;
#X connect 38 0 30 0;
#X connect 39 0 19 0;
#X connect 40 0 20 0;
#X connect 41 0 21 0;
#X connect 42 0 22 0;
#X connect 43 0 44 0;
#X connect 43 1 45 0;
#X connect 43 2 46 0;
#X connect 47 0 58 0;
#X connect 48 0 51 0;
#X connect 49 0 51 0;
#X connect 50 0 57 0;
#X connect 51 0 59 0;
#X connect 51 1 59 0;
#X connect 56 0 53 0;
#X connect 56 0 47 0;
#X connect 56 1 54 0;
#X connect 56 1 50 0;
#X connect 56 2 55 0;
#X connect 57 0 48 0;
#X connect 58 0 49 0;
#X connect 59 0 13 0;
#X connect 60 0 39 0;
#X connect 60 0 17 0;
#X connect 60 3 36 0;
#X connect 60 5 38 0;
#X connect 60 7 42 0;
#X connect 61 0 62 0;
#X connect 62 0 64 0;
#X connect 63 0 13 0;
#X connect 65 0 16 0;
#X connect 66 0 12 0;
#X connect 67 0 69 0;
#X connect 68 0 67 1;
#X connect 69 0 70 0;
#X connect 69 0 105 0;
#X connect 70 0 69 1;
#X connect 71 0 103 0;
#X connect 72 0 6 0;
#X connect 73 0 72 1;
#X connect 74 0 78 0;
#X connect 74 1 78 1;
#X connect 75 0 79 0;
#X connect 75 1 79 1;
#X connect 76 0 80 0;
#X connect 76 1 80 1;
#X connect 77 0 81 0;
#X connect 77 1 81 1;
#X connect 82 0 86 0;
#X connect 82 1 86 1;
#X connect 83 0 87 0;
#X connect 83 1 87 1;
#X connect 84 0 88 0;
#X connect 84 1 88 1;
#X connect 85 0 89 0;
#X connect 85 1 89 1;
#X connect 90 0 101 0;
#X connect 91 0 94 0;
#X connect 92 0 94 0;
#X connect 93 0 100 0;
#X connect 94 0 102 0;
#X connect 94 1 102 0;
#X connect 99 0 96 0;
#X connect 99 0 90 0;
#X connect 99 1 97 0;
#X connect 99 1 93 0;
#X connect 99 2 98 0;
#X connect 100 0 91 0;
#X connect 101 0 92 0;
#X connect 102 0 68 0;
#X connect 103 0 108 0;
#X connect 103 0 72 0;
#X connect 103 3 113 0;
#X connect 103 5 115 0;
#X connect 103 7 111 0;
#X connect 104 0 68 0;
#X connect 105 0 71 0;
#X connect 106 0 67 0;
#X connect 108 0 74 0;
#X connect 109 0 75 0;
#X connect 110 0 76 0;
#X connect 111 0 77 0;
#X connect 112 0 82 0;
#X connect 113 0 83 0;
#X connect 114 0 84 0;
#X connect 115 0 85 0;
#X connect 116 0 118 0;
#X connect 117 0 116 1;
#X connect 118 0 119 0;
#X connect 118 0 154 0;
#X connect 119 0 118 1;
#X connect 120 0 152 0;
#X connect 121 0 6 0;
#X connect 122 0 121 1;
#X connect 123 0 127 0;
#X connect 123 1 127 1;
#X connect 124 0 128 0;
#X connect 124 1 128 1;
#X connect 125 0 129 0;
#X connect 125 1 129 1;
#X connect 126 0 130 0;
#X connect 126 1 130 1;
#X connect 131 0 135 0;
#X connect 131 1 135 1;
#X connect 132 0 136 0;
#X connect 132 1 136 1;
#X connect 133 0 137 0;
#X connect 133 1 137 1;
#X connect 134 0 138 0;
#X connect 134 1 138 1;
#X connect 139 0 150 0;
#X connect 140 0 143 0;
#X connect 141 0 143 0;
#X connect 142 0 149 0;
#X connect 143 0 151 0;
#X connect 143 1 151 0;
#X connect 148 0 145 0;
#X connect 148 0 139 0;
#X connect 148 1 146 0;
#X connect 148 1 142 0;
#X connect 148 2 147 0;
#X connect 149 0 140 0;
#X connect 150 0 141 0;
#X connect 151 0 117 0;
#X connect 152 0 161 0;
#X connect 152 0 121 0;
#X connect 152 3 158 0;
#X connect 152 5 160 0;
#X connect 152 7 164 0;
#X connect 153 0 117 0;
#X connect 154 0 120 0;
#X connect 155 0 116 0;
#X connect 157 0 131 0;
#X connect 158 0 132 0;
#X connect 159 0 133 0;
#X connect 160 0 134 0;
#X connect 161 0 123 0;
#X connect 162 0 124 0;
#X connect 163 0 125 0;
#X connect 164 0 126 0;
#X connect 165 0 167 0;
#X connect 166 0 165 1;
#X connect 167 0 168 0;
#X connect 167 0 203 0;
#X connect 168 0 167 1;
#X connect 169 0 201 0;
#X connect 170 0 6 0;
#X connect 171 0 170 1;
#X connect 172 0 176 0;
#X connect 172 1 176 1;
#X connect 173 0 177 0;
#X connect 173 1 177 1;
#X connect 174 0 178 0;
#X connect 174 1 178 1;
#X connect 175 0 179 0;
#X connect 175 1 179 1;
#X connect 180 0 184 0;
#X connect 180 1 184 1;
#X connect 181 0 185 0;
#X connect 181 1 185 1;
#X connect 182 0 186 0;
#X connect 182 1 186 1;
#X connect 183 0 187 0;
#X connect 183 1 187 1;
#X connect 188 0 199 0;
#X connect 189 0 192 0;
#X connect 190 0 192 0;
#X connect 191 0 198 0;
#X connect 192 0 200 0;
#X connect 192 1 200 0;
#X connect 197 0 194 0;
#X connect 197 0 188 0;
#X connect 197 1 195 0;
#X connect 197 1 191 0;
#X connect 197 2 196 0;
#X connect 198 0 189 0;
#X connect 199 0 190 0;
#X connect 200 0 166 0;
#X connect 201 0 206 0;
#X connect 201 0 170 0;
#X connect 201 3 211 0;
#X connect 201 5 213 0;
#X connect 201 7 209 0;
#X connect 202 0 166 0;
#X connect 203 0 169 0;
#X connect 204 0 165 0;
#X connect 206 0 172 0;
#X connect 207 0 173 0;
#X connect 208 0 174 0;
#X connect 209 0 175 0;
#X connect 210 0 180 0;
#X connect 211 0 181 0;
#X connect 212 0 182 0;
#X connect 213 0 183 0;
#X connect 214 0 216 0;
#X connect 215 0 214 1;
#X connect 216 0 217 0;
#X connect 216 0 568 0;
#X connect 217 0 216 1;
#X connect 218 0 622 0;
#X connect 219 0 660 0;
#X connect 219 0 661 0;
#X connect 219 0 809 0;
#X connect 220 0 219 1;
#X connect 221 0 232 0;
#X connect 222 0 225 0;
#X connect 223 0 225 0;
#X connect 224 0 231 0;
#X connect 225 0 233 0;
#X connect 225 1 233 0;
#X connect 230 0 227 0;
#X connect 230 0 221 0;
#X connect 230 1 228 0;
#X connect 230 1 224 0;
#X connect 230 2 229 0;
#X connect 231 0 222 0;
#X connect 232 0 223 0;
#X connect 233 0 215 0;
#X connect 234 0 215 0;
#X connect 235 0 612 1;
#X connect 237 0 253 0;
#X connect 237 1 253 1;
#X connect 238 0 237 0;
#X connect 239 0 254 0;
#X connect 239 1 254 1;
#X connect 240 0 255 0;
#X connect 240 1 255 1;
#X connect 241 0 256 0;
#X connect 241 1 256 1;
#X connect 242 0 257 0;
#X connect 242 1 257 1;
#X connect 243 0 258 0;
#X connect 243 1 258 1;
#X connect 244 0 259 0;
#X connect 244 1 259 1;
#X connect 245 0 260 0;
#X connect 245 1 260 1;
#X connect 246 0 239 0;
#X connect 247 0 240 0;
#X connect 248 0 241 0;
#X connect 249 0 242 0;
#X connect 250 0 243 0;
#X connect 251 0 244 0;
#X connect 252 0 245 0;
#X connect 261 0 262 0;
#X connect 261 1 262 1;
#X connect 263 0 264 0;
#X connect 263 1 264 1;
#X connect 265 0 266 0;
#X connect 265 1 266 1;
#X connect 267 0 268 0;
#X connect 267 1 268 1;
#X connect 269 0 270 0;
#X connect 269 1 270 1;
#X connect 271 0 261 0;
#X connect 272 0 263 0;
#X connect 273 0 265 0;
#X connect 274 0 267 0;
#X connect 275 0 269 0;
#X connect 276 0 277 0;
#X connect 276 1 277 1;
#X connect 278 0 279 0;
#X connect 278 1 279 1;
#X connect 280 0 281 0;
#X connect 280 1 281 1;
#X connect 282 0 276 0;
#X connect 283 0 278 0;
#X connect 284 0 280 0;
#X connect 285 0 293 0;
#X connect 285 1 293 1;
#X connect 286 0 294 0;
#X connect 286 1 294 1;
#X connect 287 0 295 0;
#X connect 287 1 295 1;
#X connect 288 0 296 0;
#X connect 288 1 296 1;
#X connect 289 0 297 0;
#X connect 289 1 297 1;
#X connect 290 0 298 0;
#X connect 290 1 298 1;
#X connect 291 0 299 0;
#X connect 291 1 299 1;
#X connect 292 0 300 0;
#X connect 292 1 300 1;
#X connect 301 0 302 0;
#X connect 301 1 302 1;
#X connect 303 0 304 0;
#X connect 303 1 304 1;
#X connect 305 0 306 0;
#X connect 305 1 306 1;
#X connect 307 0 308 0;
#X connect 307 1 308 1;
#X connect 309 0 310 0;
#X connect 309 1 310 1;
#X connect 311 0 312 0;
#X connect 311 1 312 1;
#X connect 313 0 314 0;
#X connect 313 1 314 1;
#X connect 315 0 316 0;
#X connect 315 1 316 1;
#X connect 317 0 285 0;
#X connect 318 0 286 0;
#X connect 319 0 287 0;
#X connect 320 0 288 0;
#X connect 321 0 289 0;
#X connect 322 0 290 0;
#X connect 323 0 291 0;
#X connect 324 0 292 0;
#X connect 325 0 301 0;
#X connect 326 0 303 0;
#X connect 327 0 305 0;
#X connect 328 0 307 0;
#X connect 329 0 309 0;
#X connect 330 0 311 0;
#X connect 331 0 313 0;
#X connect 332 0 315 0;
#X connect 333 0 341 0;
#X connect 333 1 341 1;
#X connect 334 0 342 0;
#X connect 334 1 342 1;
#X connect 335 0 343 0;
#X connect 335 1 343 1;
#X connect 336 0 344 0;
#X connect 336 1 344 1;
#X connect 337 0 345 0;
#X connect 337 1 345 1;
#X connect 338 0 346 0;
#X connect 338 1 346 1;
#X connect 339 0 347 0;
#X connect 339 1 347 1;
#X connect 340 0 348 0;
#X connect 340 1 348 1;
#X connect 349 0 350 0;
#X connect 349 1 350 1;
#X connect 351 0 352 0;
#X connect 351 1 352 1;
#X connect 353 0 354 0;
#X connect 353 1 354 1;
#X connect 355 0 356 0;
#X connect 355 1 356 1;
#X connect 357 0 358 0;
#X connect 357 1 358 1;
#X connect 359 0 360 0;
#X connect 359 1 360 1;
#X connect 361 0 369 0;
#X connect 361 1 369 1;
#X connect 362 0 370 0;
#X connect 362 1 370 1;
#X connect 363 0 371 0;
#X connect 363 1 371 1;
#X connect 364 0 372 0;
#X connect 364 1 372 1;
#X connect 365 0 373 0;
#X connect 365 1 373 1;
#X connect 366 0 374 0;
#X connect 366 1 374 1;
#X connect 367 0 375 0;
#X connect 367 1 375 1;
#X connect 368 0 376 0;
#X connect 368 1 376 1;
#X connect 377 0 378 0;
#X connect 377 1 378 1;
#X connect 379 0 380 0;
#X connect 379 1 380 1;
#X connect 381 0 382 0;
#X connect 381 1 382 1;
#X connect 383 0 384 0;
#X connect 383 1 384 1;
#X connect 385 0 386 0;
#X connect 385 1 386 1;
#X connect 387 0 388 0;
#X connect 387 1 388 1;
#X connect 389 0 390 0;
#X connect 389 1 390 1;
#X connect 391 0 392 0;
#X connect 391 1 392 1;
#X connect 393 0 397 0;
#X connect 393 1 397 1;
#X connect 394 0 398 0;
#X connect 394 1 398 1;
#X connect 395 0 399 0;
#X connect 395 1 399 1;
#X connect 396 0 400 0;
#X connect 396 1 400 1;
#X connect 401 0 402 0;
#X connect 401 1 402 1;
#X connect 403 0 404 0;
#X connect 403 1 404 1;
#X connect 405 0 406 0;
#X connect 405 1 406 1;
#X connect 407 0 408 0;
#X connect 407 1 408 1;
#X connect 409 0 410 0;
#X connect 409 1 410 1;
#X connect 411 0 412 0;
#X connect 411 1 412 1;
#X connect 413 0 414 0;
#X connect 413 1 414 1;
#X connect 415 0 416 0;
#X connect 415 1 416 1;
#X connect 417 0 421 0;
#X connect 417 1 421 1;
#X connect 418 0 422 0;
#X connect 418 1 422 1;
#X connect 419 0 423 0;
#X connect 419 1 423 1;
#X connect 420 0 424 0;
#X connect 420 1 424 1;
#X connect 425 0 426 0;
#X connect 425 1 426 1;
#X connect 427 0 428 0;
#X connect 427 1 428 1;
#X connect 429 0 430 0;
#X connect 429 1 430 1;
#X connect 431 0 432 0;
#X connect 431 1 432 1;
#X connect 433 0 434 0;
#X connect 433 1 434 1;
#X connect 435 0 436 0;
#X connect 435 1 436 1;
#X connect 437 0 438 0;
#X connect 437 1 438 1;
#X connect 439 0 440 0;
#X connect 439 1 440 1;
#X connect 441 0 449 0;
#X connect 441 1 449 1;
#X connect 442 0 450 0;
#X connect 442 1 450 1;
#X connect 443 0 451 0;
#X connect 443 1 451 1;
#X connect 444 0 452 0;
#X connect 444 1 452 1;
#X connect 445 0 453 0;
#X connect 445 1 453 1;
#X connect 446 0 454 0;
#X connect 446 1 454 1;
#X connect 447 0 455 0;
#X connect 447 1 455 1;
#X connect 448 0 456 0;
#X connect 448 1 456 1;
#X connect 457 0 458 0;
#X connect 457 1 458 1;
#X connect 459 0 460 0;
#X connect 459 1 460 1;
#X connect 461 0 462 0;
#X connect 461 1 462 1;
#X connect 463 0 464 0;
#X connect 463 1 464 1;
#X connect 465 0 473 0;
#X connect 465 1 473 1;
#X connect 466 0 474 0;
#X connect 466 1 474 1;
#X connect 467 0 475 0;
#X connect 467 1 475 1;
#X connect 468 0 476 0;
#X connect 468 1 476 1;
#X connect 469 0 477 0;
#X connect 469 1 477 1;
#X connect 470 0 478 0;
#X connect 470 1 478 1;
#X connect 471 0 479 0;
#X connect 471 1 479 1;
#X connect 472 0 480 0;
#X connect 472 1 480 1;
#X connect 481 0 482 0;
#X connect 481 1 482 1;
#X connect 483 0 484 0;
#X connect 483 1 484 1;
#X connect 485 0 486 0;
#X connect 485 1 486 1;
#X connect 487 0 488 0;
#X connect 487 1 488 1;
#X connect 489 0 333 0;
#X connect 490 0 334 0;
#X connect 491 0 335 0;
#X connect 492 0 336 0;
#X connect 493 0 337 0;
#X connect 494 0 338 0;
#X connect 495 0 339 0;
#X connect 496 0 340 0;
#X connect 497 0 349 0;
#X connect 498 0 351 0;
#X connect 499 0 353 0;
#X connect 500 0 355 0;
#X connect 501 0 357 0;
#X connect 502 0 359 0;
#X connect 503 0 361 0;
#X connect 504 0 362 0;
#X connect 505 0 363 0;
#X connect 506 0 364 0;
#X connect 507 0 365 0;
#X connect 508 0 366 0;
#X connect 509 0 367 0;
#X connect 510 0 368 0;
#X connect 511 0 377 0;
#X connect 512 0 379 0;
#X connect 513 0 381 0;
#X connect 514 0 383 0;
#X connect 515 0 385 0;
#X connect 516 0 387 0;
#X connect 517 0 389 0;
#X connect 518 0 391 0;
#X connect 519 0 465 0;
#X connect 520 0 466 0;
#X connect 521 0 467 0;
#X connect 522 0 468 0;
#X connect 523 0 469 0;
#X connect 524 0 470 0;
#X connect 525 0 471 0;
#X connect 526 0 472 0;
#X connect 527 0 481 0;
#X connect 528 0 483 0;
#X connect 529 0 485 0;
#X connect 530 0 487 0;
#X connect 531 0 441 0;
#X connect 532 0 442 0;
#X connect 533 0 443 0;
#X connect 534 0 444 0;
#X connect 535 0 445 0;
#X connect 536 0 446 0;
#X connect 537 0 447 0;
#X connect 538 0 448 0;
#X connect 539 0 457 0;
#X connect 540 0 459 0;
#X connect 541 0 461 0;
#X connect 542 0 463 0;
#X connect 543 0 417 0;
#X connect 544 0 418 0;
#X connect 545 0 419 0;
#X connect 546 0 420 0;
#X connect 547 0 425 0;
#X connect 548 0 427 0;
#X connect 549 0 429 0;
#X connect 550 0 431 0;
#X connect 551 0 433 0;
#X connect 552 0 435 0;
#X connect 553 0 437 0;
#X connect 554 0 439 0;
#X connect 555 0 393 0;
#X connect 556 0 394 0;
#X connect 557 0 395 0;
#X connect 558 0 396 0;
#X connect 559 0 401 0;
#X connect 560 0 403 0;
#X connect 561 0 405 0;
#X connect 562 0 407 0;
#X connect 563 0 409 0;
#X connect 564 0 411 0;
#X connect 565 0 413 0;
#X connect 566 0 415 0;
#X connect 567 0 531 0;
#X connect 567 0 655 0;
#X connect 567 2 533 0;
#X connect 567 2 656 0;
#X connect 567 4 535 0;
#X connect 567 4 657 0;
#X connect 567 6 537 0;
#X connect 567 6 658 0;
#X connect 567 8 525 0;
#X connect 567 8 664 0;
#X connect 567 10 523 0;
#X connect 567 10 666 0;
#X connect 567 12 521 0;
#X connect 567 12 669 0;
#X connect 567 14 519 0;
#X connect 567 14 672 0;
#X connect 568 0 218 0;
#X connect 569 0 570 0;
#X connect 569 1 570 1;
#X connect 571 0 572 0;
#X connect 571 1 572 1;
#X connect 573 0 574 0;
#X connect 573 1 574 1;
#X connect 575 0 576 0;
#X connect 575 1 576 1;
#X connect 577 0 578 0;
#X connect 577 1 578 1;
#X connect 579 0 580 0;
#X connect 579 1 580 1;
#X connect 581 0 582 0;
#X connect 581 1 582 1;
#X connect 583 0 584 0;
#X connect 583 1 584 1;
#X connect 585 0 577 0;
#X connect 586 0 579 0;
#X connect 587 0 581 0;
#X connect 588 0 583 0;
#X connect 589 0 569 0;
#X connect 590 0 571 0;
#X connect 591 0 573 0;
#X connect 592 0 575 0;
#X connect 593 1 589 0;
#X connect 593 1 678 0;
#X connect 593 3 590 0;
#X connect 593 3 679 0;
#X connect 593 5 591 0;
#X connect 593 5 680 0;
#X connect 593 7 592 0;
#X connect 593 7 681 0;
#X connect 593 9 588 0;
#X connect 593 9 683 0;
#X connect 593 11 587 0;
#X connect 593 11 685 0;
#X connect 593 13 586 0;
#X connect 593 13 687 0;
#X connect 593 15 585 0;
#X connect 593 15 689 0;
#X connect 594 0 595 1;
#X connect 595 0 593 0;
#X connect 596 0 599 1;
#X connect 597 0 598 1;
#X connect 598 0 632 0;
#X connect 599 0 630 0;
#X connect 600 0 66 0;
#X connect 601 0 106 0;
#X connect 602 0 155 0;
#X connect 603 0 204 0;
#X connect 604 0 235 0;
#X connect 605 0 594 0;
#X connect 606 0 596 0;
#X connect 607 0 597 0;
#X connect 608 0 613 0;
#X connect 609 0 614 0;
#X connect 610 0 615 0;
#X connect 611 0 616 0;
#X connect 612 0 567 0;
#X connect 613 0 617 1;
#X connect 614 0 618 1;
#X connect 615 0 619 1;
#X connect 616 0 620 1;
#X connect 622 0 612 0;
#X connect 622 1 595 0;
#X connect 622 2 599 0;
#X connect 622 3 598 0;
#X connect 622 4 617 0;
#X connect 622 5 618 0;
#X connect 623 0 624 0;
#X connect 623 1 624 1;
#X connect 625 0 626 0;
#X connect 625 1 626 1;
#X connect 627 0 623 0;
#X connect 628 0 625 0;
#X connect 630 0 503 0;
#X connect 630 0 712 0;
#X connect 630 1 505 0;
#X connect 630 1 713 0;
#X connect 630 2 507 0;
#X connect 630 2 714 0;
#X connect 630 3 509 0;
#X connect 630 3 715 0;
#X connect 630 4 511 0;
#X connect 630 4 723 0;
#X connect 630 5 513 0;
#X connect 630 5 721 0;
#X connect 630 6 515 0;
#X connect 630 6 719 0;
#X connect 630 7 517 0;
#X connect 630 7 717 0;
#X connect 630 8 628 0;
#X connect 630 8 741 0;
#X connect 630 9 627 0;
#X connect 630 9 743 0;
#X connect 630 10 499 0;
#X connect 630 10 745 0;
#X connect 630 11 497 0;
#X connect 630 11 747 0;
#X connect 630 12 495 0;
#X connect 630 12 739 0;
#X connect 630 13 493 0;
#X connect 630 13 738 0;
#X connect 630 14 491 0;
#X connect 630 14 737 0;
#X connect 630 15 489 0;
#X connect 630 15 736 0;
#X connect 632 0 317 0;
#X connect 632 0 760 0;
#X connect 632 1 319 0;
#X connect 632 1 761 0;
#X connect 632 2 321 0;
#X connect 632 2 762 0;
#X connect 632 3 323 0;
#X connect 632 3 763 0;
#X connect 632 4 325 0;
#X connect 632 4 771 0;
#X connect 632 5 327 0;
#X connect 632 5 769 0;
#X connect 632 6 329 0;
#X connect 632 6 767 0;
#X connect 632 7 331 0;
#X connect 632 7 765 0;
#X connect 632 8 283 0;
#X connect 632 8 781 0;
#X connect 632 9 275 0;
#X connect 632 9 783 0;
#X connect 632 10 273 0;
#X connect 632 10 785 0;
#X connect 632 11 271 0;
#X connect 632 11 787 0;
#X connect 632 12 251 0;
#X connect 632 12 779 0;
#X connect 632 13 249 0;
#X connect 632 13 778 0;
#X connect 632 14 247 0;
#X connect 632 14 777 0;
#X connect 632 15 238 0;
#X connect 632 15 776 0;
#X connect 634 0 214 0;
#X connect 636 0 9 0;
#X connect 636 0 811 0;
#X connect 636 0 815 0;
#X connect 638 0 52 0;
#X connect 638 0 56 0;
#X connect 639 0 95 0;
#X connect 639 0 99 0;
#X connect 640 0 144 0;
#X connect 640 0 148 0;
#X connect 641 0 193 0;
#X connect 641 0 197 0;
#X connect 642 0 226 0;
#X connect 642 0 230 0;
#X connect 643 0 18 0;
#X connect 644 0 73 0;
#X connect 645 0 122 0;
#X connect 646 0 171 0;
#X connect 647 0 651 0;
#X connect 648 0 653 0;
#X connect 649 0 654 0;
#X connect 650 0 652 0;
#X connect 651 0 655 1;
#X connect 652 0 656 1;
#X connect 653 0 657 1;
#X connect 654 0 658 1;
#X connect 655 0 219 0;
#X connect 656 0 219 0;
#X connect 657 0 219 0;
#X connect 658 0 219 0;
#X connect 659 0 220 0;
#X connect 662 0 663 0;
#X connect 663 0 664 1;
#X connect 664 0 219 0;
#X connect 665 0 666 1;
#X connect 666 0 219 0;
#X connect 667 0 665 0;
#X connect 668 0 669 1;
#X connect 669 0 219 0;
#X connect 670 0 668 0;
#X connect 671 0 672 1;
#X connect 672 0 219 0;
#X connect 673 0 671 0;
#X connect 674 0 678 1;
#X connect 675 0 679 1;
#X connect 676 0 680 1;
#X connect 677 0 681 1;
#X connect 678 0 698 0;
#X connect 679 0 698 0;
#X connect 680 0 698 0;
#X connect 681 0 698 0;
#X connect 682 0 683 1;
#X connect 683 0 698 0;
#X connect 684 0 685 1;
#X connect 685 0 698 0;
#X connect 686 0 687 1;
#X connect 687 0 698 0;
#X connect 688 0 689 1;
#X connect 689 0 698 0;
#X connect 690 0 674 0;
#X connect 691 0 675 0;
#X connect 692 0 676 0;
#X connect 693 0 677 0;
#X connect 694 0 682 0;
#X connect 695 0 684 0;
#X connect 696 0 686 0;
#X connect 697 0 688 0;
#X connect 698 0 700 0;
#X connect 698 0 701 0;
#X connect 698 0 809 0;
#X connect 699 0 698 1;
#X connect 702 0 699 0;
#X connect 703 0 705 0;
#X connect 703 0 706 0;
#X connect 703 0 813 0;
#X connect 704 0 703 1;
#X connect 707 0 704 0;
#X connect 708 0 712 1;
#X connect 709 0 713 1;
#X connect 710 0 714 1;
#X connect 711 0 715 1;
#X connect 712 0 703 0;
#X connect 713 0 703 0;
#X connect 714 0 703 0;
#X connect 715 0 703 0;
#X connect 716 0 717 1;
#X connect 717 0 703 0;
#X connect 718 0 719 1;
#X connect 719 0 703 0;
#X connect 720 0 721 1;
#X connect 721 0 703 0;
#X connect 722 0 723 1;
#X connect 723 0 703 0;
#X connect 724 0 708 0;
#X connect 725 0 709 0;
#X connect 726 0 710 0;
#X connect 727 0 711 0;
#X connect 728 0 722 0;
#X connect 729 0 720 0;
#X connect 730 0 718 0;
#X connect 731 0 716 0;
#X connect 732 0 736 1;
#X connect 733 0 737 1;
#X connect 734 0 738 1;
#X connect 735 0 739 1;
#X connect 736 0 703 0;
#X connect 737 0 703 0;
#X connect 738 0 703 0;
#X connect 739 0 703 0;
#X connect 740 0 741 1;
#X connect 741 0 703 0;
#X connect 742 0 743 1;
#X connect 743 0 703 0;
#X connect 744 0 745 1;
#X connect 745 0 703 0;
#X connect 746 0 747 1;
#X connect 747 0 703 0;
#X connect 748 0 740 0;
#X connect 749 0 742 0;
#X connect 750 0 744 0;
#X connect 751 0 746 0;
#X connect 752 0 735 0;
#X connect 753 0 734 0;
#X connect 754 0 733 0;
#X connect 755 0 732 0;
#X connect 756 0 760 1;
#X connect 757 0 761 1;
#X connect 758 0 762 1;
#X connect 759 0 763 1;
#X connect 760 0 788 0;
#X connect 761 0 788 0;
#X connect 762 0 788 0;
#X connect 763 0 788 0;
#X connect 764 0 765 1;
#X connect 765 0 788 0;
#X connect 766 0 767 1;
#X connect 767 0 788 0;
#X connect 768 0 769 1;
#X connect 769 0 788 0;
#X connect 770 0 771 1;
#X connect 771 0 788 0;
#X connect 772 0 776 1;
#X connect 773 0 777 1;
#X connect 774 0 778 1;
#X connect 775 0 779 1;
#X connect 776 0 788 0;
#X connect 777 0 788 0;
#X connect 778 0 788 0;
#X connect 779 0 788 0;
#X connect 780 0 781 1;
#X connect 781 0 788 0;
#X connect 782 0 783 1;
#X connect 783 0 788 0;
#X connect 784 0 785 1;
#X connect 785 0 788 0;
#X connect 786 0 787 1;
#X connect 787 0 788 0;
#X connect 788 0 790 0;
#X connect 788 0 791 0;
#X connect 788 0 813 0;
#X connect 789 0 788 1;
#X connect 792 0 756 0;
#X connect 793 0 757 0;
#X connect 794 0 758 0;
#X connect 795 0 759 0;
#X connect 796 0 770 0;
#X connect 797 0 768 0;
#X connect 798 0 766 0;
#X connect 799 0 764 0;
#X connect 800 0 780 0;
#X connect 801 0 782 0;
#X connect 802 0 784 0;
#X connect 803 0 786 0;
#X connect 804 0 775 0;
#X connect 805 0 774 0;
#X connect 806 0 773 0;
#X connect 807 0 772 0;
#X connect 808 0 789 0;
#X connect 809 0 810 0;
#X connect 810 0 8 0;
#X connect 810 0 8 1;
#X connect 811 0 810 1;
#X connect 811 0 810 0;
#X connect 813 0 814 0;
#X connect 814 0 8 0;
#X connect 814 0 8 1;
#X connect 815 0 814 1;
#X connect 815 0 814 0;
