#N canvas 6 22 1265 737 10;
#X floatatom 134 -682 3 0 0 0 - - -;
#X obj 89 -734 notein;
#X obj 89 -708 stripnote;
#X floatatom 89 -683 3 0 0 0 - - -;
#X text 89 -758 MIDI IN;
#X obj 89 -663 bng 20 250 50 0 empty empty empty 17 7 0 10 -262144
-1 -1;
#X obj 33 -547 mtof;
#X obj 33 -515 phasor~;
#X obj 33 -481 dac~;
#X msg 68 -547 0;
#X text 71 -562 alloff;
#X text 182 -893 1 [ONE];
#X obj 183 -651 metro;
#X obj 306 -645 nbx 5 14 0 1e+37 0 0 empty empty empty 0 -8 0 10 -262144
-1 -1 58 256;
#X obj 225 -631 f;
#X obj 251 -631 + 1;
#X obj 183 -609 hradio 16 1 0 16 empty empty empty 0 -8 0 15 -262144
-1 -1 3;
#X obj 183 -564 f;
#X obj 309 -628 hsl 128 15 0 127 0 0 empty empty empty -2 -8 0 10 -262144
-1 -1 4600 1;
#X obj 183 -525 makenote 64 250;
#X obj 199 -464 makenote 64 250;
#X obj 306 -512 makenote 64 250;
#X obj 325 -452 makenote 64 250;
#X obj 183 -505 noteout 2;
#X obj 199 -444 noteout 2;
#X obj 306 -492 noteout 2;
#X obj 325 -432 noteout 2;
#X obj 212 -379 makenote 64 250;
#X obj 228 -318 makenote 64 250;
#X obj 330 -381 makenote 64 250;
#X obj 349 -321 makenote 64 250;
#X obj 212 -359 noteout 2;
#X obj 228 -298 noteout 2;
#X obj 330 -361 noteout 2;
#X obj 349 -301 noteout 2;
#X msg 212 -398 96;
#X msg 228 -339 97;
#X msg 367 -402 98;
#X msg 349 -340 99;
#X msg 183 -544 112;
#X msg 199 -483 113;
#X msg 366 -539 114;
#X msg 325 -471 115;
#X obj 89 -633 ctlin;
#X obj 89 -609 nbx 3 14 -1e+37 1e+37 0 0 empty empty empty 0 -8 0 10
-262144 -1 -1 39 256;
#X obj 101 -593 nbx 3 14 -1e+37 1e+37 0 0 empty empty empty 0 -8 0
10 -262144 -1 -1 116 256;
#X obj 115 -577 nbx 3 14 -1e+37 1e+37 0 0 empty empty empty 0 -8 0
10 -262144 -1 -1 1 256;
#X msg 215 -777 bang;
#X obj 330 -726 + 1;
#X obj 215 -723 - 1;
#X msg 330 -776 bang;
#X obj 252 -688 t b f;
#X obj 236 -809 nbx 5 14 -1e+37 1e+37 0 0 empty empty empty 0 -8 0
10 -262144 -1 -1 1 256;
#X obj 236 -794 bng 15 250 50 0 empty empty empty 17 7 0 10 -262144
-1 -1;
#X obj 256 -794 bng 15 250 50 0 empty empty empty 17 7 0 10 -262144
-1 -1;
#X obj 275 -794 bng 15 250 50 0 empty empty empty 17 7 0 10 -262144
-1 -1;
#X obj 236 -835 select 127 1;
#X obj 330 -750 v octo_counter1;
#X obj 215 -749 v octo_counter1;
#X obj 265 -666 v octo_counter1;
#X obj 183 -586 select 0 1 2 3 4 5 6 7 8 9 10 11 12 13 14;
#X obj 90 -828 loadbang;
#X msg 90 -803 66;
#X obj 368 -666 r stp_q_l66;
#X obj 90 -778 s stp_q_l66;
#X obj 183 -631 mod 8;
#X obj 182 -841 tgl 15 0 empty empty empty 17 7 0 10 -262144 -1 -1
0 127;
#X obj 447 -651 metro;
#X obj 571 -644 nbx 5 14 0 1e+37 0 0 empty empty empty 0 -8 0 10 -262144
-1 -1 190 256;
#X obj 489 -631 f;
#X obj 515 -631 + 1;
#X obj 447 -609 hradio 16 1 0 16 empty empty empty 0 -8 0 15 -262144
-1 -1 3;
#X obj 447 -564 f;
#X obj 573 -628 hsl 128 15 0 127 0 0 empty empty empty -2 -8 0 10 -262144
-1 -1 6100 1;
#X obj 447 -525 makenote 64 250;
#X obj 463 -464 makenote 64 250;
#X obj 570 -512 makenote 64 250;
#X obj 589 -452 makenote 64 250;
#X obj 447 -505 noteout 2;
#X obj 463 -444 noteout 2;
#X obj 570 -492 noteout 2;
#X obj 589 -432 noteout 2;
#X obj 476 -379 makenote 64 250;
#X obj 492 -318 makenote 64 250;
#X obj 594 -381 makenote 64 250;
#X obj 613 -321 makenote 64 250;
#X obj 476 -359 noteout 2;
#X obj 492 -298 noteout 2;
#X obj 594 -361 noteout 2;
#X obj 613 -301 noteout 2;
#X msg 492 -773 bang;
#X obj 607 -725 + 1;
#X obj 492 -722 - 1;
#X msg 607 -772 bang;
#X obj 514 -690 t b f;
#X obj 513 -808 nbx 5 14 -1e+37 1e+37 0 0 empty empty empty 0 -8 0
10 -262144 -1 -1 1 256;
#X obj 513 -793 bng 15 250 50 0 empty empty empty 17 7 0 10 -262144
-1 -1;
#X obj 533 -793 bng 15 250 50 0 empty empty empty 17 7 0 10 -262144
-1 -1;
#X obj 552 -793 bng 15 250 50 0 empty empty empty 17 7 0 10 -262144
-1 -1;
#X obj 513 -834 select 127 1;
#X obj 607 -749 v octo_counter1;
#X obj 492 -748 v octo_counter1;
#X obj 529 -666 v octo_counter1;
#X obj 447 -586 select 0 1 2 3 4 5 6 7 8 9 10 11 12 13 14;
#X obj 627 -666 r stp_q_l66;
#X obj 447 -631 mod 8;
#X obj 449 -848 tgl 15 0 empty empty empty 17 7 0 10 -262144 -1 -1
0 127;
#X text 446 -893 2 [TWO];
#X msg 447 -544 116;
#X msg 463 -483 117;
#X msg 630 -539 118;
#X msg 589 -471 119;
#X msg 476 -398 100;
#X msg 492 -339 101;
#X msg 631 -402 102;
#X msg 613 -340 103;
#X obj 710 -651 metro;
#X obj 833 -645 nbx 5 14 0 1e+37 0 0 empty empty empty 0 -8 0 10 -262144
-1 -1 150 256;
#X obj 752 -631 f;
#X obj 778 -631 + 1;
#X obj 710 -609 hradio 16 1 0 16 empty empty empty 0 -8 0 15 -262144
-1 -1 0;
#X obj 710 -564 f;
#X obj 836 -628 hsl 128 15 0 127 0 0 empty empty empty -2 -8 0 10 -262144
-1 -1 5500 1;
#X obj 710 -525 makenote 64 250;
#X obj 726 -464 makenote 64 250;
#X obj 833 -512 makenote 64 250;
#X obj 852 -452 makenote 64 250;
#X obj 710 -505 noteout 2;
#X obj 726 -444 noteout 2;
#X obj 833 -492 noteout 2;
#X obj 852 -432 noteout 2;
#X obj 739 -379 makenote 64 250;
#X obj 755 -318 makenote 64 250;
#X obj 857 -381 makenote 64 250;
#X obj 876 -321 makenote 64 250;
#X obj 739 -359 noteout 2;
#X obj 755 -298 noteout 2;
#X obj 857 -361 noteout 2;
#X obj 876 -301 noteout 2;
#X msg 758 -759 bang;
#X obj 873 -718 + 1;
#X obj 758 -715 - 1;
#X msg 873 -758 bang;
#X obj 760 -692 t b f;
#X obj 779 -791 nbx 5 14 -1e+37 1e+37 0 0 empty empty empty 0 -8 0
10 -262144 -1 -1 1 256;
#X obj 779 -776 bng 15 250 50 0 empty empty empty 17 7 0 10 -262144
-1 -1;
#X obj 799 -776 bng 15 250 50 0 empty empty empty 17 7 0 10 -262144
-1 -1;
#X obj 818 -776 bng 15 250 50 0 empty empty empty 17 7 0 10 -262144
-1 -1;
#X obj 779 -813 select 127 1;
#X obj 873 -738 v octo_counter1;
#X obj 758 -737 v octo_counter1;
#X obj 774 -670 v octo_counter1;
#X obj 710 -586 select 0 1 2 3 4 5 6 7 8 9 10 11 12 13 14;
#X obj 889 -672 r stp_q_l66;
#X obj 710 -631 mod 8;
#X obj 710 -843 tgl 15 0 empty empty empty 17 7 0 10 -262144 -1 -1
0 127;
#X text 709 -893 3 [THREE];
#X msg 739 -398 104;
#X msg 755 -339 105;
#X msg 894 -402 106;
#X msg 876 -340 107;
#X msg 710 -544 120;
#X msg 726 -483 121;
#X msg 893 -539 122;
#X msg 852 -471 123;
#X obj 974 -651 metro;
#X obj 1097 -645 nbx 5 14 0 1e+37 0 0 empty empty empty 0 -8 0 10 -262144
-1 -1 103 256;
#X obj 1016 -631 f;
#X obj 1042 -631 + 1;
#X obj 974 -609 hradio 16 1 0 16 empty empty empty 0 -8 0 15 -262144
-1 -1 1;
#X obj 974 -564 f;
#X obj 1100 -628 hsl 128 15 0 127 0 0 empty empty empty -2 -8 0 10
-262144 -1 -1 3900 1;
#X obj 974 -525 makenote 64 250;
#X obj 990 -464 makenote 64 250;
#X obj 1097 -512 makenote 64 250;
#X obj 1116 -452 makenote 64 250;
#X obj 974 -505 noteout 2;
#X obj 990 -444 noteout 2;
#X obj 1097 -492 noteout 2;
#X obj 1116 -432 noteout 2;
#X obj 1003 -379 makenote 64 250;
#X obj 1019 -318 makenote 64 250;
#X obj 1121 -381 makenote 64 250;
#X obj 1140 -321 makenote 64 250;
#X obj 1003 -359 noteout 2;
#X obj 1019 -298 noteout 2;
#X obj 1121 -361 noteout 2;
#X obj 1140 -301 noteout 2;
#X msg 1035 -776 bang;
#X obj 1150 -725 + 1;
#X obj 1035 -722 - 1;
#X msg 1150 -775 bang;
#X obj 1049 -699 t b f;
#X obj 1056 -808 nbx 5 14 -1e+37 1e+37 0 0 empty empty empty 0 -8 0
10 -262144 -1 -1 1 256;
#X obj 1056 -793 bng 15 250 50 0 empty empty empty 17 7 0 10 -262144
-1 -1;
#X obj 1076 -793 bng 15 250 50 0 empty empty empty 17 7 0 10 -262144
-1 -1;
#X obj 1095 -793 bng 15 250 50 0 empty empty empty 17 7 0 10 -262144
-1 -1;
#X obj 1056 -834 select 127 1;
#X obj 1150 -749 v octo_counter1;
#X obj 1035 -748 v octo_counter1;
#X obj 1052 -673 v octo_counter1;
#X obj 974 -586 select 0 1 2 3 4 5 6 7 8 9 10 11 12 13 14;
#X obj 1157 -667 r stp_q_l66;
#X obj 974 -631 mod 8;
#X obj 974 -845 tgl 15 0 empty empty empty 17 7 0 10 -262144 -1 -1
0 127;
#X text 973 -893 4 [FOUR];
#X msg 974 -544 124;
#X msg 990 -483 125;
#X msg 1157 -539 126;
#X msg 1116 -471 127;
#X msg 1003 -398 108;
#X msg 1019 -339 109;
#X msg 1158 -402 110;
#X msg 1140 -340 111;
#X obj 234 20 metro;
#X obj 261 6 nbx 5 14 0 1e+37 0 0 empty empty empty 0 -8 0 10 -262144
-1 -1 267 256;
#X obj 276 40 f;
#X obj 302 40 + 1;
#X obj 234 62 hradio 16 1 0 16 empty empty empty 0 -8 0 15 -262144
-1 -1 7;
#X obj 130 285 f;
#X obj 150 252 hsl 128 15 0 127 0 0 empty empty empty -2 -8 0 10 -262144
-1 -1 0 1;
#X msg 195 -120 bang;
#X obj 310 -85 + 1;
#X obj 195 -82 - 1;
#X msg 310 -119 bang;
#X obj 250 -60 t b f;
#X obj 216 -174 nbx 5 14 -1e+37 1e+37 0 0 empty empty empty 0 -8 0
10 -262144 -1 -1 127 256;
#X obj 214 -137 bng 15 250 50 0 empty empty empty 17 7 0 10 -262144
-1 -1;
#X obj 229 -137 bng 15 250 50 0 empty empty empty 17 7 0 10 -262144
-1 -1;
#X obj 244 -137 bng 15 250 50 0 empty empty empty 17 7 0 10 -262144
-1 -1;
#X obj 195 -155 select 127 1;
#X obj 310 -102 v octo_counter1;
#X obj 195 -101 v octo_counter1;
#X obj 261 -38 v octo_counter1;
#X obj 274 -16 r stp_q_l66;
#X obj 302 130 tgl 15 0 empty empty empty 17 7 0 10 -262144 -1 -1 112
112;
#X obj 147 227 ctlin 5;
#X text 146 206 5 [FIVE];
#X obj 193 893 makenote 64 250;
#X msg 193 874 0;
#X obj 927 1265 makenote 64 250;
#X obj 290 893 makenote 64 250;
#X obj 929 1326 makenote 64 250;
#X obj 387 893 makenote 64 250;
#X obj 930 1385 makenote 64 250;
#X obj 484 893 makenote 64 250;
#X obj 931 1445 makenote 64 250;
#X msg 927 1246 1;
#X msg 290 874 2;
#X msg 929 1307 3;
#X msg 387 874 4;
#X msg 930 1366 5;
#X msg 484 874 6;
#X msg 931 1426 7;
#X obj 193 913 noteout 2;
#X obj 927 1285 noteout 2;
#X obj 290 913 noteout 2;
#X obj 929 1346 noteout 2;
#X obj 387 913 noteout 2;
#X obj 930 1405 noteout 2;
#X obj 484 913 noteout 2;
#X obj 931 1469 noteout 2;
#X obj 581 893 makenote 64 250;
#X obj 581 917 noteout 2;
#X obj 932 1512 makenote 64 250;
#X obj 932 1536 noteout 2;
#X obj 678 893 makenote 64 250;
#X obj 678 916 noteout 2;
#X obj 932 1577 makenote 64 250;
#X obj 932 1601 noteout 2;
#X obj 775 893 makenote 64 250;
#X obj 775 917 noteout 2;
#X msg 581 874 8;
#X msg 932 1493 9;
#X msg 678 874 10;
#X msg 932 1558 11;
#X msg 775 874 12;
#X obj 932 1643 makenote 64 250;
#X obj 932 1667 noteout 2;
#X obj 872 892 makenote 64 250;
#X obj 872 916 noteout 2;
#X obj 932 1710 makenote 64 250;
#X obj 932 1734 noteout 2;
#X msg 932 1624 13;
#X msg 872 873 14;
#X msg 932 1691 15;
#X obj 190 825 makenote 64 250;
#X obj 818 1267 makenote 64 250;
#X obj 287 826 makenote 64 250;
#X obj 817 1328 makenote 64 250;
#X obj 384 826 makenote 64 250;
#X obj 817 1391 makenote 64 250;
#X obj 481 826 makenote 64 250;
#X obj 815 1452 makenote 64 250;
#X obj 190 845 noteout 2;
#X obj 818 1287 noteout 2;
#X obj 287 846 noteout 2;
#X obj 817 1348 noteout 2;
#X obj 384 846 noteout 2;
#X obj 817 1411 noteout 2;
#X obj 481 846 noteout 2;
#X obj 815 1476 noteout 2;
#X obj 578 825 makenote 64 250;
#X obj 578 849 noteout 2;
#X obj 814 1519 makenote 64 250;
#X obj 814 1543 noteout 2;
#X obj 675 824 makenote 64 250;
#X obj 675 847 noteout 2;
#X obj 814 1583 makenote 64 250;
#X obj 814 1607 noteout 2;
#X obj 772 824 makenote 64 250;
#X obj 772 848 noteout 2;
#X obj 814 1647 makenote 64 250;
#X obj 814 1671 noteout 2;
#X obj 869 824 makenote 64 250;
#X obj 869 848 noteout 2;
#X obj 814 1711 makenote 64 250;
#X obj 814 1735 noteout 2;
#X msg 190 806 16;
#X msg 818 1248 17;
#X msg 287 807 18;
#X msg 817 1309 19;
#X msg 384 807 20;
#X msg 817 1372 21;
#X msg 481 807 22;
#X msg 815 1433 23;
#X msg 578 806 24;
#X msg 814 1500 25;
#X msg 675 805 26;
#X msg 814 1564 27;
#X msg 772 805 28;
#X msg 814 1628 29;
#X msg 869 804 30;
#X msg 814 1692 31;
#X obj 189 665 makenote 64 250;
#X obj 706 1268 makenote 64 250;
#X obj 291 665 makenote 64 250;
#X obj 706 1329 makenote 64 250;
#X obj 389 662 makenote 64 250;
#X obj 706 1389 makenote 64 250;
#X obj 487 661 makenote 64 250;
#X obj 707 1449 makenote 64 250;
#X obj 189 685 noteout 2;
#X obj 706 1288 noteout 2;
#X obj 291 685 noteout 2;
#X obj 706 1349 noteout 2;
#X obj 389 682 noteout 2;
#X obj 706 1409 noteout 2;
#X obj 487 681 noteout 2;
#X obj 707 1473 noteout 2;
#X obj 587 662 makenote 64 250;
#X obj 587 686 noteout 2;
#X obj 707 1516 makenote 64 250;
#X obj 707 1540 noteout 2;
#X obj 684 662 makenote 64 250;
#X obj 684 685 noteout 2;
#X obj 707 1581 makenote 64 250;
#X obj 707 1605 noteout 2;
#X obj 709 1647 makenote 64 250;
#X obj 709 1671 noteout 2;
#X obj 709 1711 makenote 64 250;
#X obj 709 1735 noteout 2;
#X obj 188 599 makenote 64 250;
#X obj 601 1268 makenote 64 250;
#X obj 289 596 makenote 64 250;
#X obj 602 1328 makenote 64 250;
#X obj 387 596 makenote 64 250;
#X obj 602 1387 makenote 64 250;
#X obj 486 594 makenote 64 250;
#X obj 603 1447 makenote 64 250;
#X obj 188 619 noteout 2;
#X obj 601 1288 noteout 2;
#X obj 289 616 noteout 2;
#X obj 602 1348 noteout 2;
#X obj 387 616 noteout 2;
#X obj 602 1407 noteout 2;
#X obj 486 615 noteout 2;
#X obj 603 1471 noteout 2;
#X obj 587 593 makenote 64 250;
#X obj 587 617 noteout 2;
#X obj 603 1514 makenote 64 250;
#X obj 603 1538 noteout 2;
#X obj 686 592 makenote 64 250;
#X obj 686 615 noteout 2;
#X obj 603 1579 makenote 64 250;
#X obj 603 1603 noteout 2;
#X obj 784 592 makenote 64 250;
#X obj 784 615 noteout 2;
#X obj 605 1645 makenote 64 250;
#X obj 605 1669 noteout 2;
#X obj 882 591 makenote 64 250;
#X obj 882 615 noteout 2;
#X obj 605 1710 makenote 64 250;
#X obj 605 1734 noteout 2;
#X obj 165 1027 makenote 64 250;
#X obj 167 1087 makenote 64 250;
#X obj 168 1147 makenote 64 250;
#X obj 170 1207 makenote 64 250;
#X obj 165 1047 noteout 2;
#X obj 167 1107 noteout 2;
#X obj 168 1167 noteout 2;
#X obj 170 1231 noteout 2;
#X obj 170 1271 makenote 64 250;
#X obj 170 1295 noteout 2;
#X obj 170 1334 makenote 64 250;
#X obj 170 1358 noteout 2;
#X obj 170 1396 makenote 64 250;
#X obj 170 1419 noteout 2;
#X obj 170 1459 makenote 64 250;
#X obj 170 1483 noteout 2;
#X obj 170 1521 makenote 64 250;
#X obj 170 1545 noteout 2;
#X obj 170 1585 makenote 64 250;
#X obj 170 1609 noteout 2;
#X obj 170 1648 makenote 64 250;
#X obj 170 1672 noteout 2;
#X obj 170 1712 makenote 64 250;
#X obj 170 1736 noteout 2;
#X obj 282 1027 makenote 64 250;
#X obj 284 1087 makenote 64 250;
#X obj 285 1147 makenote 64 250;
#X obj 287 1207 makenote 64 250;
#X obj 282 1047 noteout 2;
#X obj 284 1107 noteout 2;
#X obj 285 1167 noteout 2;
#X obj 287 1231 noteout 2;
#X obj 287 1271 makenote 64 250;
#X obj 287 1295 noteout 2;
#X obj 287 1334 makenote 64 250;
#X obj 287 1358 noteout 2;
#X obj 287 1396 makenote 64 250;
#X obj 287 1419 noteout 2;
#X obj 287 1459 makenote 64 250;
#X obj 287 1483 noteout 2;
#X obj 287 1521 makenote 64 250;
#X obj 287 1545 noteout 2;
#X obj 287 1585 makenote 64 250;
#X obj 287 1609 noteout 2;
#X obj 287 1648 makenote 64 250;
#X obj 287 1672 noteout 2;
#X obj 287 1712 makenote 64 250;
#X obj 287 1736 noteout 2;
#X obj 181 367 makenote 64 250;
#X obj 399 1262 makenote 64 250;
#X obj 302 365 makenote 64 250;
#X obj 399 1327 makenote 64 250;
#X obj 411 363 makenote 64 250;
#X obj 400 1388 makenote 64 250;
#X obj 523 362 makenote 64 250;
#X obj 400 1452 makenote 64 250;
#X obj 181 387 noteout 2;
#X obj 399 1286 noteout 2;
#X obj 302 385 noteout 2;
#X obj 399 1347 noteout 2;
#X obj 411 383 noteout 2;
#X obj 400 1412 noteout 2;
#X obj 523 382 noteout 2;
#X obj 400 1476 noteout 2;
#X obj 400 1517 makenote 64 250;
#X obj 400 1541 noteout 2;
#X obj 400 1582 makenote 64 250;
#X obj 400 1606 noteout 2;
#X obj 400 1647 makenote 64 250;
#X obj 400 1671 noteout 2;
#X obj 400 1712 makenote 64 250;
#X obj 400 1736 noteout 2;
#X obj 184 435 makenote 64 250;
#X obj 499 1261 makenote 64 250;
#X obj 300 432 makenote 64 250;
#X obj 500 1322 makenote 64 250;
#X obj 414 429 makenote 64 250;
#X obj 501 1384 makenote 64 250;
#X obj 524 430 makenote 64 250;
#X obj 501 1448 makenote 64 250;
#X obj 184 455 noteout 2;
#X obj 499 1281 noteout 2;
#X obj 300 452 noteout 2;
#X obj 500 1342 noteout 2;
#X obj 414 449 noteout 2;
#X obj 501 1404 noteout 2;
#X obj 524 450 noteout 2;
#X obj 501 1472 noteout 2;
#X obj 501 1515 makenote 64 250;
#X obj 501 1539 noteout 2;
#X obj 501 1580 makenote 64 250;
#X obj 501 1604 noteout 2;
#X obj 501 1646 makenote 64 250;
#X obj 501 1670 noteout 2;
#X obj 501 1713 makenote 64 250;
#X obj 501 1737 noteout 2;
#X msg 189 646 32;
#X msg 706 1249 33;
#X msg 291 646 34;
#X msg 706 1310 35;
#X msg 389 643 36;
#X msg 706 1370 37;
#X msg 487 642 38;
#X msg 707 1430 39;
#X msg 587 643 40;
#X msg 707 1497 41;
#X msg 684 643 42;
#X msg 707 1562 43;
#X msg 709 1628 45;
#X msg 709 1692 47;
#X msg 188 580 48;
#X msg 601 1249 49;
#X msg 289 577 50;
#X msg 602 1309 51;
#X msg 387 577 52;
#X msg 602 1368 53;
#X msg 486 575 54;
#X msg 603 1428 55;
#X msg 587 574 56;
#X msg 603 1495 57;
#X msg 686 573 58;
#X msg 603 1560 59;
#X msg 784 573 60;
#X msg 605 1626 61;
#X msg 882 571 62;
#X msg 605 1691 63;
#X msg 184 416 64;
#X msg 499 1242 65;
#X msg 300 413 66;
#X msg 500 1303 67;
#X msg 414 410 68;
#X msg 501 1365 69;
#X msg 524 411 70;
#X msg 501 1429 71;
#X msg 501 1496 73;
#X msg 501 1561 75;
#X msg 501 1627 77;
#X msg 501 1694 79;
#X msg 181 348 80;
#X msg 399 1241 81;
#X msg 302 346 82;
#X msg 399 1308 83;
#X msg 411 344 84;
#X msg 400 1369 85;
#X msg 523 343 86;
#X msg 400 1433 87;
#X msg 400 1498 89;
#X msg 400 1563 91;
#X msg 400 1628 93;
#X msg 400 1693 95;
#X msg 281 1008 100;
#X msg 284 1068 101;
#X msg 285 1128 102;
#X msg 286 1188 103;
#X msg 287 1252 104;
#X msg 287 1315 105;
#X msg 287 1377 106;
#X msg 287 1440 107;
#X msg 287 1502 108;
#X msg 287 1566 109;
#X msg 287 1628 110;
#X msg 287 1693 111;
#X msg 165 1008 116;
#X msg 167 1068 117;
#X msg 168 1128 118;
#X msg 170 1188 119;
#X msg 170 1252 120;
#X msg 170 1315 121;
#X msg 170 1377 122;
#X msg 170 1440 123;
#X msg 170 1502 124;
#X msg 170 1566 125;
#X msg 170 1629 126;
#X msg 170 1693 127;
#X obj 183 287 select 0 1 2 3 4 5 6 7 8 9 10 11 12 13 14 15;
#X text 126 269 #TODO;
#X obj 234 40 mod 16;
#X obj 643 362 makenote 64 250;
#X obj 643 386 noteout 2;
#X obj 751 360 makenote 64 250;
#X obj 751 383 noteout 2;
#X obj 855 360 makenote 64 250;
#X obj 855 384 noteout 2;
#X obj 957 360 makenote 64 250;
#X obj 957 384 noteout 2;
#X obj 645 438 makenote 64 250;
#X obj 645 462 noteout 2;
#X obj 753 430 makenote 64 250;
#X obj 753 453 noteout 2;
#X obj 857 429 makenote 64 250;
#X obj 857 453 noteout 2;
#X obj 957 425 makenote 64 250;
#X obj 957 449 noteout 2;
#X msg 645 416 72;
#X msg 753 411 74;
#X msg 857 410 76;
#X msg 957 405 78;
#X msg 643 343 88;
#X msg 751 341 90;
#X msg 855 341 92;
#X msg 957 341 94;
#X obj 643 285 select 0 1 2 3 4 5 6 7 8 9 10 11 12 13 14 15;
#X obj 364 130 tgl 15 0 empty empty empty 17 7 0 10 -262144 -1 -1 110
110;
#X obj 313 158 spigot 85;
#X obj 426 129 tgl 15 0 empty empty empty 17 7 0 10 -262144 -1 -1 102
102;
#X obj 488 129 tgl 15 0 empty empty empty 17 7 0 10 -262144 -1 -1 114
114;
#X obj 437 157 spigot 85;
#X obj 375 158 spigot 85;
#X obj 182 -864 ctlin 50;
#X obj 449 -871 ctlin 51;
#X obj 710 -866 ctlin 52;
#X obj 974 -869 ctlin 53;
#X obj 302 108 ctlin 127;
#X obj 364 108 ctlin 126;
#X obj 426 108 ctlin 125;
#X obj 488 108 ctlin 124;
#X obj 549 108 ctlin 123;
#X obj 612 108 ctlin 122;
#X obj 674 108 ctlin 121;
#X obj 737 108 ctlin 120;
#X obj 251 158 spigot 85;
#X obj 549 129 tgl 15 0 empty empty empty 17 7 0 10 -262144 -1 -1 0
1;
#X obj 612 129 tgl 15 0 empty empty empty 17 7 0 10 -262144 -1 -1 0
81;
#X obj 674 129 tgl 15 0 empty empty empty 17 7 0 10 -262144 -1 -1 0
1;
#X obj 737 128 tgl 15 0 empty empty empty 17 7 0 10 -262144 -1 -1 0
1;
#X obj 498 157 spigot 85;
#X obj 561 157 spigot 85;
#X obj 623 157 spigot 85;
#X obj 686 157 spigot 85;
#X text 195 -219 MAIN SEQUENCER;
#X obj 234 83 t f f f f f f;
#X obj 783 661 makenote 64 250;
#X obj 783 684 noteout 2;
#X obj 882 661 makenote 64 250;
#X obj 882 684 noteout 2;
#X msg 783 642 44;
#X msg 882 642 46;
#X text 642 262 6 [SIX];
#X obj 188 546 select 0 1 2 3 4 5 6 7 8 9 10 11 12 13 14 15;
#X text 186 524 7 [SE7EN];
#X obj 193 767 select 0 1 2 3 4 5 6 7 8 9 10 11 12 13 14 15;
#X text 192 749 8 [EIGHT];
#X obj 184 -22 loadbang;
#X obj 14 -864 ctlin 95;
#X obj 68 -864 ctlin 94;
#X obj 123 -864 ctlin 93;
#X obj 242 -864 ctlin 111;
#X obj 514 -871 ctlin 110;
#X obj 780 -866 ctlin 109;
#X obj 1056 -868 ctlin 108;
#X obj 195 -195 ctlin 107;
#X obj 322 -864 ctlin 119;
#X obj 599 -872 ctlin 118;
#X obj 865 -866 ctlin 117;
#X obj 1122 -868 ctlin 116;
#X connect 1 0 2 0;
#X connect 1 1 2 1;
#X connect 2 0 3 0;
#X connect 2 1 0 0;
#X connect 3 0 5 0;
#X connect 6 0 7 0;
#X connect 7 0 8 0;
#X connect 7 0 8 1;
#X connect 9 0 7 1;
#X connect 9 0 7 0;
#X connect 12 0 14 0;
#X connect 13 0 12 1;
#X connect 14 0 15 0;
#X connect 14 0 65 0;
#X connect 15 0 14 1;
#X connect 16 0 60 0;
#X connect 17 0 6 0;
#X connect 18 0 17 1;
#X connect 19 0 23 0;
#X connect 19 1 23 1;
#X connect 20 0 24 0;
#X connect 20 1 24 1;
#X connect 21 0 25 0;
#X connect 21 1 25 1;
#X connect 22 0 26 0;
#X connect 22 1 26 1;
#X connect 27 0 31 0;
#X connect 27 1 31 1;
#X connect 28 0 32 0;
#X connect 28 1 32 1;
#X connect 29 0 33 0;
#X connect 29 1 33 1;
#X connect 30 0 34 0;
#X connect 30 1 34 1;
#X connect 35 0 27 0;
#X connect 36 0 28 0;
#X connect 37 0 29 0;
#X connect 38 0 30 0;
#X connect 39 0 19 0;
#X connect 40 0 20 0;
#X connect 41 0 21 0;
#X connect 42 0 22 0;
#X connect 43 0 44 0;
#X connect 43 1 45 0;
#X connect 43 2 46 0;
#X connect 47 0 58 0;
#X connect 48 0 51 0;
#X connect 49 0 51 0;
#X connect 50 0 57 0;
#X connect 51 0 59 0;
#X connect 51 1 59 0;
#X connect 56 0 53 0;
#X connect 56 0 47 0;
#X connect 56 1 54 0;
#X connect 56 1 50 0;
#X connect 56 2 55 0;
#X connect 57 0 48 0;
#X connect 58 0 49 0;
#X connect 59 0 13 0;
#X connect 60 0 39 0;
#X connect 60 0 17 0;
#X connect 60 3 36 0;
#X connect 60 5 38 0;
#X connect 60 7 42 0;
#X connect 61 0 62 0;
#X connect 62 0 64 0;
#X connect 63 0 13 0;
#X connect 65 0 16 0;
#X connect 66 0 12 0;
#X connect 67 0 69 0;
#X connect 68 0 67 1;
#X connect 69 0 70 0;
#X connect 69 0 105 0;
#X connect 70 0 69 1;
#X connect 71 0 103 0;
#X connect 72 0 6 0;
#X connect 73 0 72 1;
#X connect 74 0 78 0;
#X connect 74 1 78 1;
#X connect 75 0 79 0;
#X connect 75 1 79 1;
#X connect 76 0 80 0;
#X connect 76 1 80 1;
#X connect 77 0 81 0;
#X connect 77 1 81 1;
#X connect 82 0 86 0;
#X connect 82 1 86 1;
#X connect 83 0 87 0;
#X connect 83 1 87 1;
#X connect 84 0 88 0;
#X connect 84 1 88 1;
#X connect 85 0 89 0;
#X connect 85 1 89 1;
#X connect 90 0 101 0;
#X connect 91 0 94 0;
#X connect 92 0 94 0;
#X connect 93 0 100 0;
#X connect 94 0 102 0;
#X connect 94 1 102 0;
#X connect 99 0 96 0;
#X connect 99 0 90 0;
#X connect 99 1 97 0;
#X connect 99 1 93 0;
#X connect 99 2 98 0;
#X connect 100 0 91 0;
#X connect 101 0 92 0;
#X connect 102 0 68 0;
#X connect 103 0 108 0;
#X connect 103 0 72 0;
#X connect 103 3 113 0;
#X connect 103 5 115 0;
#X connect 103 7 111 0;
#X connect 104 0 68 0;
#X connect 105 0 71 0;
#X connect 106 0 67 0;
#X connect 108 0 74 0;
#X connect 109 0 75 0;
#X connect 110 0 76 0;
#X connect 111 0 77 0;
#X connect 112 0 82 0;
#X connect 113 0 83 0;
#X connect 114 0 84 0;
#X connect 115 0 85 0;
#X connect 116 0 118 0;
#X connect 117 0 116 1;
#X connect 118 0 119 0;
#X connect 118 0 154 0;
#X connect 119 0 118 1;
#X connect 120 0 152 0;
#X connect 121 0 6 0;
#X connect 122 0 121 1;
#X connect 123 0 127 0;
#X connect 123 1 127 1;
#X connect 124 0 128 0;
#X connect 124 1 128 1;
#X connect 125 0 129 0;
#X connect 125 1 129 1;
#X connect 126 0 130 0;
#X connect 126 1 130 1;
#X connect 131 0 135 0;
#X connect 131 1 135 1;
#X connect 132 0 136 0;
#X connect 132 1 136 1;
#X connect 133 0 137 0;
#X connect 133 1 137 1;
#X connect 134 0 138 0;
#X connect 134 1 138 1;
#X connect 139 0 150 0;
#X connect 140 0 143 0;
#X connect 141 0 143 0;
#X connect 142 0 149 0;
#X connect 143 0 151 0;
#X connect 143 1 151 0;
#X connect 148 0 145 0;
#X connect 148 0 139 0;
#X connect 148 1 146 0;
#X connect 148 1 142 0;
#X connect 148 2 147 0;
#X connect 149 0 140 0;
#X connect 150 0 141 0;
#X connect 151 0 117 0;
#X connect 152 0 161 0;
#X connect 152 0 121 0;
#X connect 152 3 158 0;
#X connect 152 5 160 0;
#X connect 152 7 164 0;
#X connect 153 0 117 0;
#X connect 154 0 120 0;
#X connect 155 0 116 0;
#X connect 157 0 131 0;
#X connect 158 0 132 0;
#X connect 159 0 133 0;
#X connect 160 0 134 0;
#X connect 161 0 123 0;
#X connect 162 0 124 0;
#X connect 163 0 125 0;
#X connect 164 0 126 0;
#X connect 165 0 167 0;
#X connect 166 0 165 1;
#X connect 167 0 168 0;
#X connect 167 0 203 0;
#X connect 168 0 167 1;
#X connect 169 0 201 0;
#X connect 170 0 6 0;
#X connect 171 0 170 1;
#X connect 172 0 176 0;
#X connect 172 1 176 1;
#X connect 173 0 177 0;
#X connect 173 1 177 1;
#X connect 174 0 178 0;
#X connect 174 1 178 1;
#X connect 175 0 179 0;
#X connect 175 1 179 1;
#X connect 180 0 184 0;
#X connect 180 1 184 1;
#X connect 181 0 185 0;
#X connect 181 1 185 1;
#X connect 182 0 186 0;
#X connect 182 1 186 1;
#X connect 183 0 187 0;
#X connect 183 1 187 1;
#X connect 188 0 199 0;
#X connect 189 0 192 0;
#X connect 190 0 192 0;
#X connect 191 0 198 0;
#X connect 192 0 200 0;
#X connect 192 1 200 0;
#X connect 197 0 194 0;
#X connect 197 0 188 0;
#X connect 197 1 195 0;
#X connect 197 1 191 0;
#X connect 197 2 196 0;
#X connect 198 0 189 0;
#X connect 199 0 190 0;
#X connect 200 0 166 0;
#X connect 201 0 206 0;
#X connect 201 0 170 0;
#X connect 201 3 211 0;
#X connect 201 5 213 0;
#X connect 201 7 209 0;
#X connect 202 0 166 0;
#X connect 203 0 169 0;
#X connect 204 0 165 0;
#X connect 206 0 172 0;
#X connect 207 0 173 0;
#X connect 208 0 174 0;
#X connect 209 0 175 0;
#X connect 210 0 180 0;
#X connect 211 0 181 0;
#X connect 212 0 182 0;
#X connect 213 0 183 0;
#X connect 214 0 216 0;
#X connect 215 0 214 1;
#X connect 216 0 217 0;
#X connect 216 0 570 0;
#X connect 217 0 216 1;
#X connect 218 0 624 0;
#X connect 220 0 219 1;
#X connect 221 0 232 0;
#X connect 222 0 225 0;
#X connect 223 0 225 0;
#X connect 224 0 231 0;
#X connect 225 0 233 0;
#X connect 225 1 233 0;
#X connect 230 0 227 0;
#X connect 230 0 221 0;
#X connect 230 1 228 0;
#X connect 230 1 224 0;
#X connect 230 2 229 0;
#X connect 231 0 222 0;
#X connect 232 0 223 0;
#X connect 233 0 215 0;
#X connect 234 0 215 0;
#X connect 235 0 614 1;
#X connect 236 0 220 0;
#X connect 238 0 254 0;
#X connect 238 1 254 1;
#X connect 239 0 238 0;
#X connect 240 0 255 0;
#X connect 240 1 255 1;
#X connect 241 0 256 0;
#X connect 241 1 256 1;
#X connect 242 0 257 0;
#X connect 242 1 257 1;
#X connect 243 0 258 0;
#X connect 243 1 258 1;
#X connect 244 0 259 0;
#X connect 244 1 259 1;
#X connect 245 0 260 0;
#X connect 245 1 260 1;
#X connect 246 0 261 0;
#X connect 246 1 261 1;
#X connect 247 0 240 0;
#X connect 248 0 241 0;
#X connect 249 0 242 0;
#X connect 250 0 243 0;
#X connect 251 0 244 0;
#X connect 252 0 245 0;
#X connect 253 0 246 0;
#X connect 262 0 263 0;
#X connect 262 1 263 1;
#X connect 264 0 265 0;
#X connect 264 1 265 1;
#X connect 266 0 267 0;
#X connect 266 1 267 1;
#X connect 268 0 269 0;
#X connect 268 1 269 1;
#X connect 270 0 271 0;
#X connect 270 1 271 1;
#X connect 272 0 262 0;
#X connect 273 0 264 0;
#X connect 274 0 266 0;
#X connect 275 0 268 0;
#X connect 276 0 270 0;
#X connect 277 0 278 0;
#X connect 277 1 278 1;
#X connect 279 0 280 0;
#X connect 279 1 280 1;
#X connect 281 0 282 0;
#X connect 281 1 282 1;
#X connect 283 0 277 0;
#X connect 284 0 279 0;
#X connect 285 0 281 0;
#X connect 286 0 294 0;
#X connect 286 1 294 1;
#X connect 287 0 295 0;
#X connect 287 1 295 1;
#X connect 288 0 296 0;
#X connect 288 1 296 1;
#X connect 289 0 297 0;
#X connect 289 1 297 1;
#X connect 290 0 298 0;
#X connect 290 1 298 1;
#X connect 291 0 299 0;
#X connect 291 1 299 1;
#X connect 292 0 300 0;
#X connect 292 1 300 1;
#X connect 293 0 301 0;
#X connect 293 1 301 1;
#X connect 302 0 303 0;
#X connect 302 1 303 1;
#X connect 304 0 305 0;
#X connect 304 1 305 1;
#X connect 306 0 307 0;
#X connect 306 1 307 1;
#X connect 308 0 309 0;
#X connect 308 1 309 1;
#X connect 310 0 311 0;
#X connect 310 1 311 1;
#X connect 312 0 313 0;
#X connect 312 1 313 1;
#X connect 314 0 315 0;
#X connect 314 1 315 1;
#X connect 316 0 317 0;
#X connect 316 1 317 1;
#X connect 318 0 286 0;
#X connect 319 0 287 0;
#X connect 320 0 288 0;
#X connect 321 0 289 0;
#X connect 322 0 290 0;
#X connect 323 0 291 0;
#X connect 324 0 292 0;
#X connect 325 0 293 0;
#X connect 326 0 302 0;
#X connect 327 0 304 0;
#X connect 328 0 306 0;
#X connect 329 0 308 0;
#X connect 330 0 310 0;
#X connect 331 0 312 0;
#X connect 332 0 314 0;
#X connect 333 0 316 0;
#X connect 334 0 342 0;
#X connect 334 1 342 1;
#X connect 335 0 343 0;
#X connect 335 1 343 1;
#X connect 336 0 344 0;
#X connect 336 1 344 1;
#X connect 337 0 345 0;
#X connect 337 1 345 1;
#X connect 338 0 346 0;
#X connect 338 1 346 1;
#X connect 339 0 347 0;
#X connect 339 1 347 1;
#X connect 340 0 348 0;
#X connect 340 1 348 1;
#X connect 341 0 349 0;
#X connect 341 1 349 1;
#X connect 350 0 351 0;
#X connect 350 1 351 1;
#X connect 352 0 353 0;
#X connect 352 1 353 1;
#X connect 354 0 355 0;
#X connect 354 1 355 1;
#X connect 356 0 357 0;
#X connect 356 1 357 1;
#X connect 358 0 359 0;
#X connect 358 1 359 1;
#X connect 360 0 361 0;
#X connect 360 1 361 1;
#X connect 362 0 370 0;
#X connect 362 1 370 1;
#X connect 363 0 371 0;
#X connect 363 1 371 1;
#X connect 364 0 372 0;
#X connect 364 1 372 1;
#X connect 365 0 373 0;
#X connect 365 1 373 1;
#X connect 366 0 374 0;
#X connect 366 1 374 1;
#X connect 367 0 375 0;
#X connect 367 1 375 1;
#X connect 368 0 376 0;
#X connect 368 1 376 1;
#X connect 369 0 377 0;
#X connect 369 1 377 1;
#X connect 378 0 379 0;
#X connect 378 1 379 1;
#X connect 380 0 381 0;
#X connect 380 1 381 1;
#X connect 382 0 383 0;
#X connect 382 1 383 1;
#X connect 384 0 385 0;
#X connect 384 1 385 1;
#X connect 386 0 387 0;
#X connect 386 1 387 1;
#X connect 388 0 389 0;
#X connect 388 1 389 1;
#X connect 390 0 391 0;
#X connect 390 1 391 1;
#X connect 392 0 393 0;
#X connect 392 1 393 1;
#X connect 394 0 398 0;
#X connect 394 1 398 1;
#X connect 395 0 399 0;
#X connect 395 1 399 1;
#X connect 396 0 400 0;
#X connect 396 1 400 1;
#X connect 397 0 401 0;
#X connect 397 1 401 1;
#X connect 402 0 403 0;
#X connect 402 1 403 1;
#X connect 404 0 405 0;
#X connect 404 1 405 1;
#X connect 406 0 407 0;
#X connect 406 1 407 1;
#X connect 408 0 409 0;
#X connect 408 1 409 1;
#X connect 410 0 411 0;
#X connect 410 1 411 1;
#X connect 412 0 413 0;
#X connect 412 1 413 1;
#X connect 414 0 415 0;
#X connect 414 1 415 1;
#X connect 416 0 417 0;
#X connect 416 1 417 1;
#X connect 418 0 422 0;
#X connect 418 1 422 1;
#X connect 419 0 423 0;
#X connect 419 1 423 1;
#X connect 420 0 424 0;
#X connect 420 1 424 1;
#X connect 421 0 425 0;
#X connect 421 1 425 1;
#X connect 426 0 427 0;
#X connect 426 1 427 1;
#X connect 428 0 429 0;
#X connect 428 1 429 1;
#X connect 430 0 431 0;
#X connect 430 1 431 1;
#X connect 432 0 433 0;
#X connect 432 1 433 1;
#X connect 434 0 435 0;
#X connect 434 1 435 1;
#X connect 436 0 437 0;
#X connect 436 1 437 1;
#X connect 438 0 439 0;
#X connect 438 1 439 1;
#X connect 440 0 441 0;
#X connect 440 1 441 1;
#X connect 442 0 450 0;
#X connect 442 1 450 1;
#X connect 443 0 451 0;
#X connect 443 1 451 1;
#X connect 444 0 452 0;
#X connect 444 1 452 1;
#X connect 445 0 453 0;
#X connect 445 1 453 1;
#X connect 446 0 454 0;
#X connect 446 1 454 1;
#X connect 447 0 455 0;
#X connect 447 1 455 1;
#X connect 448 0 456 0;
#X connect 448 1 456 1;
#X connect 449 0 457 0;
#X connect 449 1 457 1;
#X connect 458 0 459 0;
#X connect 458 1 459 1;
#X connect 460 0 461 0;
#X connect 460 1 461 1;
#X connect 462 0 463 0;
#X connect 462 1 463 1;
#X connect 464 0 465 0;
#X connect 464 1 465 1;
#X connect 466 0 474 0;
#X connect 466 1 474 1;
#X connect 467 0 475 0;
#X connect 467 1 475 1;
#X connect 468 0 476 0;
#X connect 468 1 476 1;
#X connect 469 0 477 0;
#X connect 469 1 477 1;
#X connect 470 0 478 0;
#X connect 470 1 478 1;
#X connect 471 0 479 0;
#X connect 471 1 479 1;
#X connect 472 0 480 0;
#X connect 472 1 480 1;
#X connect 473 0 481 0;
#X connect 473 1 481 1;
#X connect 482 0 483 0;
#X connect 482 1 483 1;
#X connect 484 0 485 0;
#X connect 484 1 485 1;
#X connect 486 0 487 0;
#X connect 486 1 487 1;
#X connect 488 0 489 0;
#X connect 488 1 489 1;
#X connect 490 0 334 0;
#X connect 491 0 335 0;
#X connect 492 0 336 0;
#X connect 493 0 337 0;
#X connect 494 0 338 0;
#X connect 495 0 339 0;
#X connect 496 0 340 0;
#X connect 497 0 341 0;
#X connect 498 0 350 0;
#X connect 499 0 352 0;
#X connect 500 0 354 0;
#X connect 501 0 356 0;
#X connect 502 0 358 0;
#X connect 503 0 360 0;
#X connect 504 0 362 0;
#X connect 505 0 363 0;
#X connect 506 0 364 0;
#X connect 507 0 365 0;
#X connect 508 0 366 0;
#X connect 509 0 367 0;
#X connect 510 0 368 0;
#X connect 511 0 369 0;
#X connect 512 0 378 0;
#X connect 513 0 380 0;
#X connect 514 0 382 0;
#X connect 515 0 384 0;
#X connect 516 0 386 0;
#X connect 517 0 388 0;
#X connect 518 0 390 0;
#X connect 519 0 392 0;
#X connect 520 0 466 0;
#X connect 521 0 467 0;
#X connect 522 0 468 0;
#X connect 523 0 469 0;
#X connect 524 0 470 0;
#X connect 525 0 471 0;
#X connect 526 0 472 0;
#X connect 527 0 473 0;
#X connect 528 0 482 0;
#X connect 529 0 484 0;
#X connect 530 0 486 0;
#X connect 531 0 488 0;
#X connect 532 0 442 0;
#X connect 533 0 443 0;
#X connect 534 0 444 0;
#X connect 535 0 445 0;
#X connect 536 0 446 0;
#X connect 537 0 447 0;
#X connect 538 0 448 0;
#X connect 539 0 449 0;
#X connect 540 0 458 0;
#X connect 541 0 460 0;
#X connect 542 0 462 0;
#X connect 543 0 464 0;
#X connect 544 0 418 0;
#X connect 545 0 419 0;
#X connect 546 0 420 0;
#X connect 547 0 421 0;
#X connect 548 0 426 0;
#X connect 549 0 428 0;
#X connect 550 0 430 0;
#X connect 551 0 432 0;
#X connect 552 0 434 0;
#X connect 553 0 436 0;
#X connect 554 0 438 0;
#X connect 555 0 440 0;
#X connect 556 0 394 0;
#X connect 557 0 395 0;
#X connect 558 0 396 0;
#X connect 559 0 397 0;
#X connect 560 0 402 0;
#X connect 561 0 404 0;
#X connect 562 0 406 0;
#X connect 563 0 408 0;
#X connect 564 0 410 0;
#X connect 565 0 412 0;
#X connect 566 0 414 0;
#X connect 567 0 416 0;
#X connect 568 0 532 0;
#X connect 568 2 534 0;
#X connect 568 4 536 0;
#X connect 568 6 538 0;
#X connect 568 8 526 0;
#X connect 568 10 524 0;
#X connect 568 12 522 0;
#X connect 568 14 520 0;
#X connect 570 0 218 0;
#X connect 571 0 572 0;
#X connect 571 1 572 1;
#X connect 573 0 574 0;
#X connect 573 1 574 1;
#X connect 575 0 576 0;
#X connect 575 1 576 1;
#X connect 577 0 578 0;
#X connect 577 1 578 1;
#X connect 579 0 580 0;
#X connect 579 1 580 1;
#X connect 581 0 582 0;
#X connect 581 1 582 1;
#X connect 583 0 584 0;
#X connect 583 1 584 1;
#X connect 585 0 586 0;
#X connect 585 1 586 1;
#X connect 587 0 579 0;
#X connect 588 0 581 0;
#X connect 589 0 583 0;
#X connect 590 0 585 0;
#X connect 591 0 571 0;
#X connect 592 0 573 0;
#X connect 593 0 575 0;
#X connect 594 0 577 0;
#X connect 595 1 591 0;
#X connect 595 3 592 0;
#X connect 595 5 593 0;
#X connect 595 7 594 0;
#X connect 595 9 590 0;
#X connect 595 11 589 0;
#X connect 595 13 588 0;
#X connect 595 15 587 0;
#X connect 596 0 597 1;
#X connect 597 0 595 0;
#X connect 598 0 601 1;
#X connect 599 0 600 1;
#X connect 600 0 634 0;
#X connect 601 0 632 0;
#X connect 602 0 66 0;
#X connect 603 0 106 0;
#X connect 604 0 155 0;
#X connect 605 0 204 0;
#X connect 606 0 235 0;
#X connect 607 0 596 0;
#X connect 608 0 598 0;
#X connect 609 0 599 0;
#X connect 610 0 615 0;
#X connect 611 0 616 0;
#X connect 612 0 617 0;
#X connect 613 0 618 0;
#X connect 614 0 568 0;
#X connect 615 0 619 1;
#X connect 616 0 620 1;
#X connect 617 0 621 1;
#X connect 618 0 622 1;
#X connect 624 0 614 0;
#X connect 624 1 597 0;
#X connect 624 2 601 0;
#X connect 624 3 600 0;
#X connect 624 4 619 0;
#X connect 624 5 620 0;
#X connect 625 0 626 0;
#X connect 625 1 626 1;
#X connect 627 0 628 0;
#X connect 627 1 628 1;
#X connect 629 0 625 0;
#X connect 630 0 627 0;
#X connect 632 0 504 0;
#X connect 632 1 506 0;
#X connect 632 2 508 0;
#X connect 632 3 510 0;
#X connect 632 4 512 0;
#X connect 632 5 514 0;
#X connect 632 6 516 0;
#X connect 632 7 518 0;
#X connect 632 8 630 0;
#X connect 632 9 629 0;
#X connect 632 10 500 0;
#X connect 632 11 498 0;
#X connect 632 12 496 0;
#X connect 632 13 494 0;
#X connect 632 14 492 0;
#X connect 632 15 490 0;
#X connect 634 0 318 0;
#X connect 634 1 320 0;
#X connect 634 2 322 0;
#X connect 634 3 324 0;
#X connect 634 4 326 0;
#X connect 634 5 328 0;
#X connect 634 6 330 0;
#X connect 634 7 332 0;
#X connect 634 8 284 0;
#X connect 634 9 276 0;
#X connect 634 10 274 0;
#X connect 634 11 272 0;
#X connect 634 12 252 0;
#X connect 634 13 250 0;
#X connect 634 14 248 0;
#X connect 634 15 239 0;
#X connect 636 0 214 0;
#X connect 638 0 9 0;
#X connect 640 0 52 0;
#X connect 640 0 56 0;
#X connect 641 0 95 0;
#X connect 641 0 99 0;
#X connect 642 0 144 0;
#X connect 642 0 148 0;
#X connect 643 0 193 0;
#X connect 643 0 197 0;
#X connect 644 0 226 0;
#X connect 644 0 230 0;
#X connect 645 0 18 0;
#X connect 646 0 73 0;
#X connect 647 0 122 0;
#X connect 648 0 171 0;
