#N canvas -22 27 1260 752 10;
#X floatatom 135 -339 3 0 0 0 - - -;
#X obj 90 -391 notein;
#X obj 90 -365 stripnote;
#X floatatom 90 -340 3 0 0 0 - - -;
#X obj 90 -320 bng 20 250 50 0 empty empty empty 17 7 0 10 -262144
-1 -1;
#X obj 33 -547 mtof;
#X obj 33 -515 phasor~;
#X obj 33 -481 dac~;
#X msg 68 -547 0;
#X text 71 -562 alloff;
#X text 182 -893 1 [ONE];
#X obj 183 -651 metro;
#X obj 306 -645 nbx 5 14 0 1e+37 0 0 empty empty empty 0 -8 0 10 -262144
-1 -1 185 256;
#X obj 225 -631 f;
#X obj 251 -631 + 1;
#X obj 183 -609 hradio 16 1 0 16 empty empty empty 0 -8 0 15 -262144
-1 -1 5;
#X obj 183 -564 f;
#X obj 309 -628 hsl 128 15 0 127 0 0 empty empty empty -2 -8 0 10 -262144
-1 -1 8700 1;
#X obj 183 -525 makenote 64 250;
#X obj 199 -464 makenote 64 250;
#X obj 306 -512 makenote 64 250;
#X obj 325 -452 makenote 64 250;
#X obj 183 -505 noteout 2;
#X obj 199 -444 noteout 2;
#X obj 306 -492 noteout 2;
#X obj 325 -432 noteout 2;
#X obj 212 -379 makenote 64 250;
#X obj 228 -318 makenote 64 250;
#X obj 330 -381 makenote 64 250;
#X obj 349 -321 makenote 64 250;
#X obj 212 -359 noteout 2;
#X obj 228 -298 noteout 2;
#X obj 330 -361 noteout 2;
#X obj 349 -301 noteout 2;
#X msg 212 -398 96;
#X msg 228 -339 97;
#X msg 367 -402 98;
#X msg 349 -340 99;
#X msg 183 -544 112;
#X msg 199 -483 113;
#X msg 366 -539 114;
#X msg 325 -471 115;
#X obj 90 -290 ctlin;
#X obj 90 -266 nbx 3 14 -1e+37 1e+37 0 0 empty empty empty 0 -8 0 10
-262144 -1 -1 0 256;
#X obj 102 -250 nbx 3 14 -1e+37 1e+37 0 0 empty empty empty 0 -8 0
10 -262144 -1 -1 124 256;
#X obj 116 -234 nbx 3 14 -1e+37 1e+37 0 0 empty empty empty 0 -8 0
10 -262144 -1 -1 1 256;
#X msg 215 -777 bang;
#X obj 330 -726 + 1;
#X obj 215 -723 - 1;
#X msg 330 -776 bang;
#X obj 252 -688 t b f;
#X obj 236 -809 nbx 5 14 -1e+37 1e+37 0 0 empty empty empty 0 -8 0
10 -262144 -1 -1 127 256;
#X obj 236 -794 bng 15 250 50 0 empty empty empty 17 7 0 10 -262144
-1 -1;
#X obj 256 -794 bng 15 250 50 0 empty empty empty 17 7 0 10 -262144
-1 -1;
#X obj 275 -794 bng 15 250 50 0 empty empty empty 17 7 0 10 -262144
-1 -1;
#X obj 236 -835 select 127 1;
#X obj 330 -750 v octo_counter1;
#X obj 215 -749 v octo_counter1;
#X obj 265 -666 v octo_counter1;
#X obj 183 -586 select 0 1 2 3 4 5 6 7 8 9 10 11 12 13 14;
#X obj 94 -727 loadbang;
#X msg 94 -702 66;
#X obj 368 -666 r stp_q_l66;
#X obj 94 -677 s stp_q_l66;
#X obj 183 -631 mod 8;
#X obj 182 -841 tgl 15 0 empty empty empty 17 7 0 10 -262144 -1 -1
0 127;
#X obj 447 -651 metro;
#X obj 571 -644 nbx 5 14 0 1e+37 0 0 empty empty empty 0 -8 0 10 -262144
-1 -1 85 256;
#X obj 489 -631 f;
#X obj 515 -631 + 1;
#X obj 447 -609 hradio 16 1 0 16 empty empty empty 0 -8 0 15 -262144
-1 -1 3;
#X obj 447 -564 f;
#X obj 573 -628 hsl 128 15 0 127 0 0 empty empty empty -2 -8 0 10 -262144
-1 -1 2000 1;
#X obj 447 -525 makenote 64 250;
#X obj 463 -464 makenote 64 250;
#X obj 570 -512 makenote 64 250;
#X obj 589 -452 makenote 64 250;
#X obj 447 -505 noteout 2;
#X obj 463 -444 noteout 2;
#X obj 570 -492 noteout 2;
#X obj 589 -432 noteout 2;
#X obj 476 -379 makenote 64 250;
#X obj 492 -318 makenote 64 250;
#X obj 594 -381 makenote 64 250;
#X obj 613 -321 makenote 64 250;
#X obj 476 -359 noteout 2;
#X obj 492 -298 noteout 2;
#X obj 594 -361 noteout 2;
#X obj 613 -301 noteout 2;
#X msg 492 -773 bang;
#X obj 607 -725 + 1;
#X obj 492 -722 - 1;
#X msg 607 -772 bang;
#X obj 514 -690 t b f;
#X obj 513 -808 nbx 5 14 -1e+37 1e+37 0 0 empty empty empty 0 -8 0
10 -262144 -1 -1 1 256;
#X obj 513 -793 bng 15 250 50 0 empty empty empty 17 7 0 10 -262144
-1 -1;
#X obj 533 -793 bng 15 250 50 0 empty empty empty 17 7 0 10 -262144
-1 -1;
#X obj 552 -793 bng 15 250 50 0 empty empty empty 17 7 0 10 -262144
-1 -1;
#X obj 513 -834 select 127 1;
#X obj 607 -749 v octo_counter1;
#X obj 492 -748 v octo_counter1;
#X obj 529 -666 v octo_counter1;
#X obj 447 -586 select 0 1 2 3 4 5 6 7 8 9 10 11 12 13 14;
#X obj 627 -666 r stp_q_l66;
#X obj 447 -631 mod 8;
#X obj 449 -848 tgl 15 0 empty empty empty 17 7 0 10 -262144 -1 -1
0 127;
#X text 446 -893 2 [TWO];
#X msg 447 -544 116;
#X msg 463 -483 117;
#X msg 630 -539 118;
#X msg 589 -471 119;
#X msg 476 -398 100;
#X msg 492 -339 101;
#X msg 631 -402 102;
#X msg 613 -340 103;
#X obj 710 -651 metro;
#X obj 833 -645 nbx 5 14 0 1e+37 0 0 empty empty empty 0 -8 0 10 -262144
-1 -1 75 256;
#X obj 752 -631 f;
#X obj 778 -631 + 1;
#X obj 710 -609 hradio 16 1 0 16 empty empty empty 0 -8 0 15 -262144
-1 -1 0;
#X obj 710 -564 f;
#X obj 836 -628 hsl 128 15 0 127 0 0 empty empty empty -2 -8 0 10 -262144
-1 -1 10300 1;
#X obj 710 -525 makenote 64 250;
#X obj 726 -464 makenote 64 250;
#X obj 833 -512 makenote 64 250;
#X obj 852 -452 makenote 64 250;
#X obj 710 -505 noteout 2;
#X obj 726 -444 noteout 2;
#X obj 833 -492 noteout 2;
#X obj 852 -432 noteout 2;
#X obj 739 -379 makenote 64 250;
#X obj 755 -318 makenote 64 250;
#X obj 857 -381 makenote 64 250;
#X obj 876 -321 makenote 64 250;
#X obj 739 -359 noteout 2;
#X obj 755 -298 noteout 2;
#X obj 857 -361 noteout 2;
#X obj 876 -301 noteout 2;
#X msg 758 -759 bang;
#X obj 873 -718 + 1;
#X obj 758 -715 - 1;
#X msg 873 -758 bang;
#X obj 760 -692 t b f;
#X obj 779 -791 nbx 5 14 -1e+37 1e+37 0 0 empty empty empty 0 -8 0
10 -262144 -1 -1 1 256;
#X obj 779 -776 bng 15 250 50 0 empty empty empty 17 7 0 10 -262144
-1 -1;
#X obj 799 -776 bng 15 250 50 0 empty empty empty 17 7 0 10 -262144
-1 -1;
#X obj 818 -776 bng 15 250 50 0 empty empty empty 17 7 0 10 -262144
-1 -1;
#X obj 779 -813 select 127 1;
#X obj 873 -738 v octo_counter1;
#X obj 758 -737 v octo_counter1;
#X obj 774 -670 v octo_counter1;
#X obj 710 -586 select 0 1 2 3 4 5 6 7 8 9 10 11 12 13 14;
#X obj 889 -672 r stp_q_l66;
#X obj 710 -631 mod 8;
#X obj 710 -843 tgl 15 0 empty empty empty 17 7 0 10 -262144 -1 -1
0 127;
#X text 709 -893 3 [THREE];
#X msg 739 -398 104;
#X msg 755 -339 105;
#X msg 894 -402 106;
#X msg 876 -340 107;
#X msg 710 -544 120;
#X msg 726 -483 121;
#X msg 893 -539 122;
#X msg 852 -471 123;
#X obj 974 -651 metro;
#X obj 1097 -645 nbx 5 14 0 1e+37 0 0 empty empty empty 0 -8 0 10 -262144
-1 -1 79 256;
#X obj 1016 -631 f;
#X obj 1042 -631 + 1;
#X obj 974 -609 hradio 16 1 0 16 empty empty empty 0 -8 0 15 -262144
-1 -1 1;
#X obj 974 -564 f;
#X obj 1100 -628 hsl 128 15 0 127 0 0 empty empty empty -2 -8 0 10
-262144 -1 -1 3700 1;
#X obj 974 -525 makenote 64 250;
#X obj 990 -464 makenote 64 250;
#X obj 1097 -512 makenote 64 250;
#X obj 1116 -452 makenote 64 250;
#X obj 974 -505 noteout 2;
#X obj 990 -444 noteout 2;
#X obj 1097 -492 noteout 2;
#X obj 1116 -432 noteout 2;
#X obj 1003 -379 makenote 64 250;
#X obj 1019 -318 makenote 64 250;
#X obj 1121 -381 makenote 64 250;
#X obj 1140 -321 makenote 64 250;
#X obj 1003 -359 noteout 2;
#X obj 1019 -298 noteout 2;
#X obj 1121 -361 noteout 2;
#X obj 1140 -301 noteout 2;
#X msg 1035 -776 bang;
#X obj 1150 -725 + 1;
#X obj 1035 -722 - 1;
#X msg 1150 -775 bang;
#X obj 1049 -699 t b f;
#X obj 1056 -808 nbx 5 14 -1e+37 1e+37 0 0 empty empty empty 0 -8 0
10 -262144 -1 -1 1 256;
#X obj 1056 -793 bng 15 250 50 0 empty empty empty 17 7 0 10 -262144
-1 -1;
#X obj 1076 -793 bng 15 250 50 0 empty empty empty 17 7 0 10 -262144
-1 -1;
#X obj 1095 -793 bng 15 250 50 0 empty empty empty 17 7 0 10 -262144
-1 -1;
#X obj 1056 -834 select 127 1;
#X obj 1150 -749 v octo_counter1;
#X obj 1035 -748 v octo_counter1;
#X obj 1052 -673 v octo_counter1;
#X obj 974 -586 select 0 1 2 3 4 5 6 7 8 9 10 11 12 13 14;
#X obj 1157 -667 r stp_q_l66;
#X obj 974 -631 mod 8;
#X obj 974 -845 tgl 15 0 empty empty empty 17 7 0 10 -262144 -1 -1
0 126;
#X text 973 -893 4 [FOUR];
#X msg 974 -544 124;
#X msg 990 -483 125;
#X msg 1157 -539 126;
#X msg 1116 -471 127;
#X msg 1003 -398 108;
#X msg 1019 -339 109;
#X msg 1158 -402 110;
#X msg 1140 -340 111;
#X obj 234 20 metro;
#X obj 261 6 nbx 5 14 0 1e+37 0 0 empty empty empty 0 -8 0 10 -262144
-1 -1 312 256;
#X obj 276 40 f;
#X obj 302 40 + 1;
#X obj 234 62 hradio 16 1 0 16 empty empty empty 0 -8 0 15 -262144
-1 -1 9;
#X obj 133 291 f;
#X obj 151 259 hsl 128 15 0 127 0 0 empty empty empty -2 -8 0 10 -262144
-1 -1 3900 1;
#X msg 195 -120 bang;
#X obj 310 -85 + 1;
#X obj 195 -82 - 1;
#X msg 310 -119 bang;
#X obj 250 -60 t b f;
#X obj 216 -174 nbx 5 14 -1e+37 1e+37 0 0 empty empty empty 0 -8 0
10 -262144 -1 -1 1 256;
#X obj 214 -137 bng 15 250 50 0 empty empty empty 17 7 0 10 -262144
-1 -1;
#X obj 229 -137 bng 15 250 50 0 empty empty empty 17 7 0 10 -262144
-1 -1;
#X obj 244 -137 bng 15 250 50 0 empty empty empty 17 7 0 10 -262144
-1 -1;
#X obj 195 -155 select 127 1;
#X obj 310 -102 v octo_counter1;
#X obj 195 -101 v octo_counter1;
#X obj 261 -38 v octo_counter1;
#X obj 274 -16 r stp_q_l66;
#X obj 302 130 tgl 15 0 empty empty empty 17 7 0 10 -262144 -1 -1 0
119;
#X text 146 206 5 [FIVE];
#X obj 193 1213 makenote 64 250;
#X msg 193 1194 0;
#X obj 290 1213 makenote 64 250;
#X obj 387 1213 makenote 64 250;
#X obj 484 1213 makenote 64 250;
#X msg 290 1194 2;
#X msg 387 1194 4;
#X msg 484 1194 6;
#X obj 193 1233 noteout 2;
#X obj 290 1233 noteout 2;
#X obj 387 1233 noteout 2;
#X obj 484 1233 noteout 2;
#X obj 581 1213 makenote 64 250;
#X obj 581 1237 noteout 2;
#X obj 678 1213 makenote 64 250;
#X obj 678 1236 noteout 2;
#X obj 775 1213 makenote 64 250;
#X obj 775 1237 noteout 2;
#X msg 581 1194 8;
#X msg 678 1194 10;
#X msg 775 1194 12;
#X obj 872 1212 makenote 64 250;
#X obj 872 1236 noteout 2;
#X msg 872 1193 14;
#X obj 190 1005 makenote 64 250;
#X obj 287 1006 makenote 64 250;
#X obj 384 1006 makenote 64 250;
#X obj 481 1006 makenote 64 250;
#X obj 190 1025 noteout 2;
#X obj 287 1026 noteout 2;
#X obj 384 1026 noteout 2;
#X obj 481 1026 noteout 2;
#X obj 578 1005 makenote 64 250;
#X obj 578 1029 noteout 2;
#X obj 675 1004 makenote 64 250;
#X obj 675 1027 noteout 2;
#X obj 772 1004 makenote 64 250;
#X obj 772 1028 noteout 2;
#X obj 869 1004 makenote 64 250;
#X obj 869 1028 noteout 2;
#X msg 190 986 16;
#X msg 287 987 18;
#X msg 384 987 20;
#X msg 481 987 22;
#X msg 578 986 24;
#X msg 675 985 26;
#X msg 772 985 28;
#X msg 869 984 30;
#X obj 189 864 makenote 64 250;
#X obj 291 864 makenote 64 250;
#X obj 389 861 makenote 64 250;
#X obj 487 860 makenote 64 250;
#X obj 189 884 noteout 2;
#X obj 291 884 noteout 2;
#X obj 389 881 noteout 2;
#X obj 487 880 noteout 2;
#X obj 587 861 makenote 64 250;
#X obj 587 885 noteout 2;
#X obj 684 861 makenote 64 250;
#X obj 684 884 noteout 2;
#X obj 188 678 makenote 64 250;
#X obj 289 675 makenote 64 250;
#X obj 387 675 makenote 64 250;
#X obj 486 673 makenote 64 250;
#X obj 188 698 noteout 2;
#X obj 289 695 noteout 2;
#X obj 387 695 noteout 2;
#X obj 486 694 noteout 2;
#X obj 587 672 makenote 64 250;
#X obj 587 696 noteout 2;
#X obj 686 671 makenote 64 250;
#X obj 686 694 noteout 2;
#X obj 784 671 makenote 64 250;
#X obj 784 694 noteout 2;
#X obj 882 670 makenote 64 250;
#X obj 882 694 noteout 2;
#X obj 181 367 makenote 64 250;
#X obj 302 365 makenote 64 250;
#X obj 411 363 makenote 64 250;
#X obj 523 362 makenote 64 250;
#X obj 181 387 noteout 2;
#X obj 302 385 noteout 2;
#X obj 411 383 noteout 2;
#X obj 523 382 noteout 2;
#X obj 184 545 makenote 64 250;
#X obj 300 542 makenote 64 250;
#X obj 414 539 makenote 64 250;
#X obj 524 540 makenote 64 250;
#X obj 184 565 noteout 2;
#X obj 300 562 noteout 2;
#X obj 414 559 noteout 2;
#X obj 524 560 noteout 2;
#X msg 189 845 32;
#X msg 291 845 34;
#X msg 389 842 36;
#X msg 487 841 38;
#X msg 587 842 40;
#X msg 684 842 42;
#X msg 188 659 48;
#X msg 289 656 50;
#X msg 387 656 52;
#X msg 486 654 54;
#X msg 587 653 56;
#X msg 686 652 58;
#X msg 784 652 60;
#X msg 882 650 62;
#X msg 184 526 64;
#X msg 300 523 66;
#X msg 414 520 68;
#X msg 524 521 70;
#X msg 181 348 80;
#X msg 302 346 82;
#X msg 411 344 84;
#X msg 523 343 86;
#X obj 183 287 select 0 1 2 3 4 5 6 7 8 9 10 11 12 13 14 15;
#X obj 234 40 mod 16;
#X obj 643 362 makenote 64 250;
#X obj 643 386 noteout 2;
#X obj 751 360 makenote 64 250;
#X obj 751 383 noteout 2;
#X obj 855 360 makenote 64 250;
#X obj 855 384 noteout 2;
#X obj 957 360 makenote 64 250;
#X obj 957 384 noteout 2;
#X obj 645 548 makenote 64 250;
#X obj 645 572 noteout 2;
#X obj 753 540 makenote 64 250;
#X obj 753 563 noteout 2;
#X obj 857 539 makenote 64 250;
#X obj 857 563 noteout 2;
#X obj 957 535 makenote 64 250;
#X obj 957 559 noteout 2;
#X msg 645 526 72;
#X msg 753 521 74;
#X msg 857 520 76;
#X msg 957 515 78;
#X msg 643 343 88;
#X msg 751 341 90;
#X msg 855 341 92;
#X msg 957 341 94;
#X obj 643 285 select 0 1 2 3 4 5 6 7 8 9 10 11 12 13 14 15;
#X obj 364 130 tgl 15 0 empty empty empty 17 7 0 10 -262144 -1 -1 0
70;
#X obj 313 158 spigot 85;
#X obj 426 129 tgl 15 0 empty empty empty 17 7 0 10 -262144 -1 -1 0
111;
#X obj 488 129 tgl 15 0 empty empty empty 17 7 0 10 -262144 -1 -1 0
112;
#X obj 437 157 spigot 85;
#X obj 375 158 spigot 85;
#X obj 182 -864 ctlin 50;
#X obj 449 -871 ctlin 51;
#X obj 710 -866 ctlin 52;
#X obj 974 -869 ctlin 53;
#X obj 302 108 ctlin 127;
#X obj 364 108 ctlin 126;
#X obj 426 108 ctlin 125;
#X obj 488 108 ctlin 124;
#X obj 549 108 ctlin 123;
#X obj 612 108 ctlin 122;
#X obj 674 108 ctlin 121;
#X obj 737 108 ctlin 120;
#X obj 251 158 spigot 85;
#X obj 549 129 tgl 15 0 empty empty empty 17 7 0 10 -262144 -1 -1 0
103;
#X obj 612 129 tgl 15 0 empty empty empty 17 7 0 10 -262144 -1 -1 0
32;
#X obj 674 129 tgl 15 0 empty empty empty 17 7 0 10 -262144 -1 -1 0
96;
#X obj 737 128 tgl 15 0 empty empty empty 17 7 0 10 -262144 -1 -1 0
110;
#X obj 498 157 spigot 85;
#X obj 561 157 spigot 85;
#X obj 623 157 spigot 85;
#X obj 686 157 spigot 85;
#X text 195 -219 MAIN SEQUENCER;
#X obj 234 83 t f f f f f f;
#X obj 783 860 makenote 64 250;
#X obj 783 883 noteout 2;
#X obj 882 860 makenote 64 250;
#X obj 882 883 noteout 2;
#X msg 783 841 44;
#X msg 882 841 46;
#X text 620 200 6 [SIX];
#X obj 188 623 select 0 1 2 3 4 5 6 7 8 9 10 11 12 13 14 15;
#X text 186 603 7 [SE7EN];
#X obj 190 954 select 0 1 2 3 4 5 6 7 8 9 10 11 12 13 14 15;
#X text 192 929 8 [EIGHT];
#X obj 184 -22 loadbang;
#X obj 68 -864 ctlin 94;
#X obj 242 -864 ctlin 111;
#X obj 514 -871 ctlin 110;
#X obj 780 -866 ctlin 109;
#X obj 1056 -868 ctlin 108;
#X obj 195 -195 ctlin 107;
#X obj 322 -864 ctlin 119;
#X obj 599 -872 ctlin 118;
#X obj 865 -866 ctlin 117;
#X obj 1122 -868 ctlin 116;
#X obj 182 412 ctlin 33;
#X obj 412 410 ctlin 35;
#X obj 524 411 ctlin 36;
#X obj 302 411 ctlin 34;
#X obj 182 436 tgl 15 0 empty sqr_stp_q_alloff empty 17 7 0 10 -262144
-1 -1 0 12;
#X obj 302 437 tgl 15 0 empty sqr_stp_q_alloff empty 17 7 0 10 -262144
-1 -1 0 127;
#X obj 412 436 tgl 15 0 empty sqr_stp_q_alloff empty 17 7 0 10 -262144
-1 -1 0 127;
#X obj 524 437 tgl 15 0 empty sqr_stp_q_alloff empty 17 7 0 10 -262144
-1 -1 0 127;
#X obj 149 458 spigot;
#X obj 269 460 spigot;
#X obj 379 460 spigot;
#X obj 491 460 spigot;
#X obj 499 228 bng 15 250 50 0 empty empty empty 17 7 0 10 -262144
-1 -1;
#X obj 514 228 nbx 5 14 -1e+37 1e+37 0 0 empty empty empty 0 -8 0 10
-262144 -1 -1 39 256;
#X obj 555 435 ctlin 37;
#X obj 555 460 tgl 15 0 empty sqr_stp_q_alloff empty 17 7 0 10 -262144
-1 -1 0 112;
#X obj 522 488 spigot;
#X obj 434 460 tgl 15 0 empty sqr_stp_q_alloff empty 17 7 0 10 -262144
-1 -1 0 126;
#X obj 401 488 spigot;
#X obj 434 435 ctlin 38;
#X obj 324 460 tgl 15 0 empty sqr_stp_q_alloff empty 17 7 0 10 -262144
-1 -1 0 110;
#X obj 291 488 spigot;
#X obj 324 435 ctlin 39;
#X obj 208 459 tgl 15 0 empty sqr_stp_q_alloff empty 17 7 0 10 -262144
-1 -1 0 107;
#X obj 175 487 spigot;
#X obj 208 434 ctlin 40;
#X obj 652 438 tgl 15 0 empty sqr_stp_q_alloff empty 17 7 0 10 -262144
-1 -1 0 110;
#X obj 882 438 tgl 15 0 empty sqr_stp_q_alloff empty 17 7 0 10 -262144
-1 -1 0 79;
#X obj 994 439 tgl 15 0 empty sqr_stp_q_alloff empty 17 7 0 10 -262144
-1 -1 127 127;
#X obj 619 460 spigot;
#X obj 739 462 spigot;
#X obj 849 462 spigot;
#X obj 961 462 spigot;
#X obj 1025 462 tgl 15 0 empty sqr_stp_q_alloff empty 17 7 0 10 -262144
-1 -1 0 36;
#X obj 992 490 spigot;
#X obj 904 462 tgl 15 0 empty sqr_stp_q_alloff empty 17 7 0 10 -262144
-1 -1 127 127;
#X obj 871 490 spigot;
#X obj 794 462 tgl 15 0 empty sqr_stp_q_alloff empty 17 7 0 10 -262144
-1 -1 0 90;
#X obj 761 490 spigot;
#X obj 645 489 spigot;
#X obj 652 414 ctlin 41;
#X obj 772 413 ctlin 42;
#X obj 882 412 ctlin 43;
#X obj 994 413 ctlin 44;
#X obj 1025 437 ctlin 45;
#X obj 904 437 ctlin 46;
#X obj 794 437 ctlin 47;
#X obj 678 436 ctlin 48;
#X obj 608 283 f;
#X obj 626 251 hsl 128 15 0 127 0 0 empty empty empty -2 -8 0 10 -262144
-1 -1 4400 1;
#X obj 824 207 bng 15 250 50 0 empty empty empty 17 7 0 10 -262144
-1 -1;
#X obj 839 207 nbx 5 14 -1e+37 1e+37 0 0 empty empty empty 0 -8 0 10
-262144 -1 -1 44 256;
#X obj 702 614 f;
#X obj 565 616 hsl 128 15 0 127 0 0 empty empty empty -2 -8 0 10 -262144
-1 -1 4000 1;
#X obj 732 615 bng 15 250 50 0 empty empty empty 17 7 0 10 -262144
-1 -1;
#X obj 747 615 nbx 5 14 -1e+37 1e+37 0 0 empty empty empty 0 -8 0 10
-262144 -1 -1 40 256;
#X obj 188 739 tgl 15 0 empty sqr_stp_q_alloff empty 17 7 0 10 -262144
-1 -1 0 22;
#X obj 290 739 tgl 15 0 empty sqr_stp_q_alloff empty 17 7 0 10 -262144
-1 -1 0 97;
#X obj 388 738 tgl 15 0 empty sqr_stp_q_alloff empty 17 7 0 10 -262144
-1 -1 29 29;
#X obj 488 739 tgl 15 0 empty sqr_stp_q_alloff empty 17 7 0 10 -262144
-1 -1 0 97;
#X obj 155 755 spigot;
#X obj 257 755 spigot;
#X obj 355 754 spigot;
#X obj 455 755 spigot;
#X obj 883 738 tgl 15 0 empty sqr_stp_q_alloff empty 17 7 0 10 -262144
-1 -1 0 34;
#X obj 850 754 spigot;
#X obj 785 738 tgl 15 0 empty sqr_stp_q_alloff empty 17 7 0 10 -262144
-1 -1 0 51;
#X obj 752 754 spigot;
#X obj 687 738 tgl 15 0 empty sqr_stp_q_alloff empty 17 7 0 10 -262144
-1 -1 68 68;
#X obj 654 754 spigot;
#X obj 588 737 tgl 15 0 empty sqr_stp_q_alloff empty 17 7 0 10 -262144
-1 -1 0 93;
#X obj 555 753 spigot;
#X obj 188 722 ctlin 17;
#X obj 290 721 ctlin 18;
#X obj 388 720 ctlin 19;
#X obj 488 721 ctlin 20;
#X obj 588 719 ctlin 21;
#X obj 687 720 ctlin 22;
#X obj 785 720 ctlin 23;
#X obj 883 720 ctlin 24;
#X obj 188 799 tgl 15 0 empty sqr_stp_q_alloff empty 17 7 0 10 -262144
-1 -1 0 92;
#X obj 290 799 tgl 15 0 empty sqr_stp_q_alloff empty 17 7 0 10 -262144
-1 -1 0 123;
#X obj 388 798 tgl 15 0 empty sqr_stp_q_alloff empty 17 7 0 10 -262144
-1 -1 127 127;
#X obj 488 799 tgl 15 0 empty sqr_stp_q_alloff empty 17 7 0 10 -262144
-1 -1 0 93;
#X obj 155 815 spigot;
#X obj 257 815 spigot;
#X obj 355 814 spigot;
#X obj 455 815 spigot;
#X obj 883 798 tgl 15 0 empty sqr_stp_q_alloff empty 17 7 0 10 -262144
-1 -1 0 55;
#X obj 850 814 spigot;
#X obj 785 798 tgl 15 0 empty sqr_stp_q_alloff empty 17 7 0 10 -262144
-1 -1 0 65;
#X obj 752 814 spigot;
#X obj 687 798 tgl 15 0 empty sqr_stp_q_alloff empty 17 7 0 10 -262144
-1 -1 90 90;
#X obj 654 814 spigot;
#X obj 588 797 tgl 15 0 empty sqr_stp_q_alloff empty 17 7 0 10 -262144
-1 -1 0 39;
#X obj 555 813 spigot;
#X obj 883 780 ctlin 25;
#X obj 785 780 ctlin 26;
#X obj 687 780 ctlin 27;
#X obj 588 779 ctlin 28;
#X obj 488 781 ctlin 29;
#X obj 388 780 ctlin 30;
#X obj 290 781 ctlin 31;
#X obj 188 782 ctlin 32;
#X obj 190 1069 tgl 15 0 empty sqr_stp_q_alloff empty 17 7 0 10 -262144
-1 -1 123 123;
#X obj 287 1069 tgl 15 0 empty sqr_stp_q_alloff empty 17 7 0 10 -262144
-1 -1 127 127;
#X obj 385 1068 tgl 15 0 empty sqr_stp_q_alloff empty 17 7 0 10 -262144
-1 -1 65 65;
#X obj 483 1069 tgl 15 0 empty sqr_stp_q_alloff empty 17 7 0 10 -262144
-1 -1 112 112;
#X obj 157 1085 spigot;
#X obj 254 1085 spigot;
#X obj 352 1084 spigot;
#X obj 450 1085 spigot;
#X obj 870 1068 tgl 15 0 empty sqr_stp_q_alloff empty 17 7 0 10 -262144
-1 -1 18 18;
#X obj 837 1084 spigot;
#X obj 772 1068 tgl 15 0 empty sqr_stp_q_alloff empty 17 7 0 10 -262144
-1 -1 115 115;
#X obj 739 1084 spigot;
#X obj 677 1068 tgl 15 0 empty sqr_stp_q_alloff empty 17 7 0 10 -262144
-1 -1 58 58;
#X obj 644 1084 spigot;
#X obj 579 1067 tgl 15 0 empty sqr_stp_q_alloff empty 17 7 0 10 -262144
-1 -1 107 107;
#X obj 546 1083 spigot;
#X obj 190 1129 tgl 15 0 empty sqr_stp_q_alloff empty 17 7 0 10 -262144
-1 -1 127 127;
#X obj 287 1129 tgl 15 0 empty sqr_stp_q_alloff empty 17 7 0 10 -262144
-1 -1 115 115;
#X obj 385 1128 tgl 15 0 empty sqr_stp_q_alloff empty 17 7 0 10 -262144
-1 -1 0 46;
#X obj 483 1129 tgl 15 0 empty sqr_stp_q_alloff empty 17 7 0 10 -262144
-1 -1 0 110;
#X obj 157 1145 spigot;
#X obj 254 1145 spigot;
#X obj 352 1144 spigot;
#X obj 450 1145 spigot;
#X obj 870 1128 tgl 15 0 empty sqr_stp_q_alloff empty 17 7 0 10 -262144
-1 -1 71 71;
#X obj 837 1144 spigot;
#X obj 772 1128 tgl 15 0 empty sqr_stp_q_alloff empty 17 7 0 10 -262144
-1 -1 122 122;
#X obj 739 1144 spigot;
#X obj 677 1128 tgl 15 0 empty sqr_stp_q_alloff empty 17 7 0 10 -262144
-1 -1 61 61;
#X obj 644 1144 spigot;
#X obj 579 1127 tgl 15 0 empty sqr_stp_q_alloff empty 17 7 0 10 -262144
-1 -1 0 69;
#X obj 546 1143 spigot;
#X obj 712 939 f;
#X obj 575 941 hsl 128 15 0 127 0 0 empty empty empty -2 -8 0 10 -262144
-1 -1 3500 1;
#X obj 742 940 bng 15 250 50 0 empty empty empty 17 7 0 10 -262144
-1 -1;
#X obj 757 940 nbx 5 14 -1e+37 1e+37 0 0 empty empty empty 0 -8 0 10
-262144 -1 -1 35 256;
#X obj 190 1052 ctlin 77;
#X obj 287 1051 ctlin 78;
#X obj 385 1050 ctlin 79;
#X obj 483 1051 ctlin 80;
#X obj 579 1049 ctlin 81;
#X obj 677 1050 ctlin 82;
#X obj 772 1050 ctlin 83;
#X obj 870 1050 ctlin 84;
#X obj 870 1110 ctlin 85;
#X obj 772 1110 ctlin 86;
#X obj 677 1110 ctlin 87;
#X obj 579 1109 ctlin 88;
#X obj 483 1111 ctlin 89;
#X obj 385 1110 ctlin 90;
#X obj 287 1111 ctlin 91;
#X obj 190 1112 ctlin 92;
#X obj 995 914 ctlin 115;
#X obj 21 427 mtof;
#X obj 21 459 phasor~;
#X msg 56 427 0;
#X text 54 412 alloff;
#X obj 37 509 mtof;
#X obj 37 541 phasor~;
#X msg 72 509 0;
#X text 75 494 alloff;
#X obj 14 -804 s sqr_stp_q_alloff;
#X obj 678 463 tgl 15 0 empty sqr_stp_q_alloff empty 17 7 0 10 -262144
-1 -1 127 127;
#X obj 772 440 tgl 15 0 empty sqr_stp_q_alloff empty 17 7 0 10 -262144
-1 -1 127 127;
#X msg 14 -832 0;
#X text 90 -415 MIDI REF;
#X obj 14 -864 ctlin 93;
#X obj 123 -864 ctlin 95;
#X obj 835 931 makenote 64 250;
#X obj 810 602 makenote 64 250;
#X obj 462 265 makenote 64 250;
#X obj 822 227 makenote 64 250;
#X obj 822 251 noteout 18;
#X obj 462 289 noteout 17;
#X obj 810 626 noteout 19;
#X obj 835 955 noteout 20;
#X obj 514 -172 makenote 64 250;
#X obj 514 -148 noteout 21;
#X obj 628 -176 makenote 64 250;
#X obj 736 -178 makenote 64 250;
#X obj 845 -180 makenote 64 250;
#X obj 628 -152 noteout 22;
#X obj 736 -154 noteout 23;
#X obj 845 -156 noteout 24;
#X obj 995 1040 bng 15 250 50 0 empty empty empty 17 7 0 10 -262144
-1 -1;
#X obj 1029 1041 bng 15 250 50 0 empty empty empty 17 7 0 10 -262144
-1 -1;
#X msg 1029 1066 inc;
#X msg 995 1066 dec;
#X obj 1029 1173 nbx 5 14 -1e+37 1e+37 0 0 empty empty empty 0 -8 0
10 -262144 -1 -1 35 256;
#X msg 1068 1115 255;
#X msg 1058 1093 0;
#X obj 1029 1142 counter;
#X obj 1068 1066 loadbang;
#X obj 995 943 select 0 127;
#X obj 1064 970 moses 64;
#X obj 1064 999 min 20;
#X obj 1110 999 max 107;
#X obj 995 740 bng 15 250 50 0 empty empty empty 17 7 0 10 -262144
-1 -1;
#X obj 1029 741 bng 15 250 50 0 empty empty empty 17 7 0 10 -262144
-1 -1;
#X msg 1029 766 inc;
#X msg 995 766 dec;
#X obj 1029 873 nbx 5 14 -1e+37 1e+37 0 0 empty empty empty 0 -8 0
10 -262144 -1 -1 40 256;
#X msg 1068 815 255;
#X msg 1058 793 0;
#X obj 1029 842 counter;
#X obj 1068 766 loadbang;
#X obj 995 643 select 0 127;
#X obj 1064 670 moses 64;
#X obj 1064 699 min 20;
#X obj 1110 699 max 107;
#X obj 995 614 ctlin 114;
#X obj 935 180 bng 15 250 50 0 empty empty empty 17 7 0 10 -262144
-1 -1;
#X obj 969 181 bng 15 250 50 0 empty empty empty 17 7 0 10 -262144
-1 -1;
#X msg 969 206 inc;
#X msg 935 206 dec;
#X obj 969 313 nbx 5 14 -1e+37 1e+37 0 0 empty empty empty 0 -8 0 10
-262144 -1 -1 39 256;
#X msg 1008 255 255;
#X msg 998 233 0;
#X obj 969 282 counter;
#X obj 1008 206 loadbang;
#X obj 935 83 select 0 127;
#X obj 1004 110 moses 64;
#X obj 1004 139 min 20;
#X obj 1050 139 max 107;
#X obj 1075 180 bng 15 250 50 0 empty empty empty 17 7 0 10 -262144
-1 -1;
#X obj 1109 181 bng 15 250 50 0 empty empty empty 17 7 0 10 -262144
-1 -1;
#X msg 1109 206 inc;
#X msg 1075 206 dec;
#X obj 1109 313 nbx 5 14 -1e+37 1e+37 0 0 empty empty empty 0 -8 0
10 -262144 -1 -1 44 256;
#X msg 1148 255 255;
#X msg 1138 233 0;
#X obj 1109 282 counter;
#X obj 1148 206 loadbang;
#X obj 1075 83 select 0 127;
#X obj 1144 110 moses 64;
#X obj 1144 139 min 20;
#X obj 1190 139 max 107;
#X obj 935 54 ctlin 112;
#X obj 1075 54 ctlin 113;
#X connect 1 0 2 0;
#X connect 1 1 2 1;
#X connect 2 0 3 0;
#X connect 2 1 0 0;
#X connect 3 0 4 0;
#X connect 5 0 6 0;
#X connect 6 0 7 0;
#X connect 6 0 7 1;
#X connect 8 0 6 1;
#X connect 8 0 6 0;
#X connect 11 0 13 0;
#X connect 12 0 11 1;
#X connect 13 0 14 0;
#X connect 13 0 64 0;
#X connect 14 0 13 1;
#X connect 15 0 59 0;
#X connect 16 0 5 0;
#X connect 16 0 608 0;
#X connect 17 0 16 1;
#X connect 18 0 22 0;
#X connect 18 1 22 1;
#X connect 19 0 23 0;
#X connect 19 1 23 1;
#X connect 20 0 24 0;
#X connect 20 1 24 1;
#X connect 21 0 25 0;
#X connect 21 1 25 1;
#X connect 26 0 30 0;
#X connect 26 1 30 1;
#X connect 27 0 31 0;
#X connect 27 1 31 1;
#X connect 28 0 32 0;
#X connect 28 1 32 1;
#X connect 29 0 33 0;
#X connect 29 1 33 1;
#X connect 34 0 26 0;
#X connect 35 0 27 0;
#X connect 36 0 28 0;
#X connect 37 0 29 0;
#X connect 38 0 18 0;
#X connect 39 0 19 0;
#X connect 40 0 20 0;
#X connect 41 0 21 0;
#X connect 42 0 43 0;
#X connect 42 1 44 0;
#X connect 42 2 45 0;
#X connect 46 0 57 0;
#X connect 47 0 50 0;
#X connect 48 0 50 0;
#X connect 49 0 56 0;
#X connect 50 0 58 0;
#X connect 50 1 58 0;
#X connect 55 0 52 0;
#X connect 55 0 46 0;
#X connect 55 1 53 0;
#X connect 55 1 49 0;
#X connect 55 2 54 0;
#X connect 56 0 47 0;
#X connect 57 0 48 0;
#X connect 58 0 12 0;
#X connect 59 0 38 0;
#X connect 59 0 16 0;
#X connect 59 3 35 0;
#X connect 59 5 37 0;
#X connect 59 7 41 0;
#X connect 60 0 61 0;
#X connect 61 0 63 0;
#X connect 62 0 12 0;
#X connect 64 0 15 0;
#X connect 65 0 11 0;
#X connect 66 0 68 0;
#X connect 67 0 66 1;
#X connect 68 0 69 0;
#X connect 68 0 104 0;
#X connect 69 0 68 1;
#X connect 70 0 102 0;
#X connect 71 0 5 0;
#X connect 71 0 610 0;
#X connect 72 0 71 1;
#X connect 73 0 77 0;
#X connect 73 1 77 1;
#X connect 74 0 78 0;
#X connect 74 1 78 1;
#X connect 75 0 79 0;
#X connect 75 1 79 1;
#X connect 76 0 80 0;
#X connect 76 1 80 1;
#X connect 81 0 85 0;
#X connect 81 1 85 1;
#X connect 82 0 86 0;
#X connect 82 1 86 1;
#X connect 83 0 87 0;
#X connect 83 1 87 1;
#X connect 84 0 88 0;
#X connect 84 1 88 1;
#X connect 89 0 100 0;
#X connect 90 0 93 0;
#X connect 91 0 93 0;
#X connect 92 0 99 0;
#X connect 93 0 101 0;
#X connect 93 1 101 0;
#X connect 98 0 95 0;
#X connect 98 0 89 0;
#X connect 98 1 96 0;
#X connect 98 1 92 0;
#X connect 98 2 97 0;
#X connect 99 0 90 0;
#X connect 100 0 91 0;
#X connect 101 0 67 0;
#X connect 102 0 107 0;
#X connect 102 0 71 0;
#X connect 102 3 112 0;
#X connect 102 5 114 0;
#X connect 102 7 110 0;
#X connect 103 0 67 0;
#X connect 104 0 70 0;
#X connect 105 0 66 0;
#X connect 107 0 73 0;
#X connect 108 0 74 0;
#X connect 109 0 75 0;
#X connect 110 0 76 0;
#X connect 111 0 81 0;
#X connect 112 0 82 0;
#X connect 113 0 83 0;
#X connect 114 0 84 0;
#X connect 115 0 117 0;
#X connect 116 0 115 1;
#X connect 117 0 118 0;
#X connect 117 0 153 0;
#X connect 118 0 117 1;
#X connect 119 0 151 0;
#X connect 120 0 5 0;
#X connect 120 0 611 0;
#X connect 121 0 120 1;
#X connect 122 0 126 0;
#X connect 122 1 126 1;
#X connect 123 0 127 0;
#X connect 123 1 127 1;
#X connect 124 0 128 0;
#X connect 124 1 128 1;
#X connect 125 0 129 0;
#X connect 125 1 129 1;
#X connect 130 0 134 0;
#X connect 130 1 134 1;
#X connect 131 0 135 0;
#X connect 131 1 135 1;
#X connect 132 0 136 0;
#X connect 132 1 136 1;
#X connect 133 0 137 0;
#X connect 133 1 137 1;
#X connect 138 0 149 0;
#X connect 139 0 142 0;
#X connect 140 0 142 0;
#X connect 141 0 148 0;
#X connect 142 0 150 0;
#X connect 142 1 150 0;
#X connect 147 0 144 0;
#X connect 147 0 138 0;
#X connect 147 1 145 0;
#X connect 147 1 141 0;
#X connect 147 2 146 0;
#X connect 148 0 139 0;
#X connect 149 0 140 0;
#X connect 150 0 116 0;
#X connect 151 0 160 0;
#X connect 151 0 120 0;
#X connect 151 3 157 0;
#X connect 151 5 159 0;
#X connect 151 7 163 0;
#X connect 152 0 116 0;
#X connect 153 0 119 0;
#X connect 154 0 115 0;
#X connect 156 0 130 0;
#X connect 157 0 131 0;
#X connect 158 0 132 0;
#X connect 159 0 133 0;
#X connect 160 0 122 0;
#X connect 161 0 123 0;
#X connect 162 0 124 0;
#X connect 163 0 125 0;
#X connect 164 0 166 0;
#X connect 165 0 164 1;
#X connect 166 0 167 0;
#X connect 166 0 202 0;
#X connect 167 0 166 1;
#X connect 168 0 200 0;
#X connect 169 0 5 0;
#X connect 169 0 612 0;
#X connect 170 0 169 1;
#X connect 171 0 175 0;
#X connect 171 1 175 1;
#X connect 172 0 176 0;
#X connect 172 1 176 1;
#X connect 173 0 177 0;
#X connect 173 1 177 1;
#X connect 174 0 178 0;
#X connect 174 1 178 1;
#X connect 179 0 183 0;
#X connect 179 1 183 1;
#X connect 180 0 184 0;
#X connect 180 1 184 1;
#X connect 181 0 185 0;
#X connect 181 1 185 1;
#X connect 182 0 186 0;
#X connect 182 1 186 1;
#X connect 187 0 198 0;
#X connect 188 0 191 0;
#X connect 189 0 191 0;
#X connect 190 0 197 0;
#X connect 191 0 199 0;
#X connect 191 1 199 0;
#X connect 196 0 193 0;
#X connect 196 0 187 0;
#X connect 196 1 194 0;
#X connect 196 1 190 0;
#X connect 196 2 195 0;
#X connect 197 0 188 0;
#X connect 198 0 189 0;
#X connect 199 0 165 0;
#X connect 200 0 205 0;
#X connect 200 0 169 0;
#X connect 200 3 210 0;
#X connect 200 5 212 0;
#X connect 200 7 208 0;
#X connect 201 0 165 0;
#X connect 202 0 168 0;
#X connect 203 0 164 0;
#X connect 205 0 171 0;
#X connect 206 0 172 0;
#X connect 207 0 173 0;
#X connect 208 0 174 0;
#X connect 209 0 179 0;
#X connect 210 0 180 0;
#X connect 211 0 181 0;
#X connect 212 0 182 0;
#X connect 213 0 215 0;
#X connect 214 0 213 1;
#X connect 215 0 216 0;
#X connect 215 0 351 0;
#X connect 216 0 215 1;
#X connect 217 0 405 0;
#X connect 218 0 440 0;
#X connect 218 0 441 0;
#X connect 218 0 585 0;
#X connect 218 0 602 0;
#X connect 219 0 218 1;
#X connect 220 0 231 0;
#X connect 221 0 224 0;
#X connect 222 0 224 0;
#X connect 223 0 230 0;
#X connect 224 0 232 0;
#X connect 224 1 232 0;
#X connect 229 0 226 0;
#X connect 229 0 220 0;
#X connect 229 1 227 0;
#X connect 229 1 223 0;
#X connect 229 2 228 0;
#X connect 230 0 221 0;
#X connect 231 0 222 0;
#X connect 232 0 214 0;
#X connect 233 0 214 0;
#X connect 234 0 395 1;
#X connect 236 0 244 0;
#X connect 236 1 244 1;
#X connect 237 0 236 0;
#X connect 238 0 245 0;
#X connect 238 1 245 1;
#X connect 239 0 246 0;
#X connect 239 1 246 1;
#X connect 240 0 247 0;
#X connect 240 1 247 1;
#X connect 241 0 238 0;
#X connect 242 0 239 0;
#X connect 243 0 240 0;
#X connect 248 0 249 0;
#X connect 248 1 249 1;
#X connect 250 0 251 0;
#X connect 250 1 251 1;
#X connect 252 0 253 0;
#X connect 252 1 253 1;
#X connect 254 0 248 0;
#X connect 255 0 250 0;
#X connect 256 0 252 0;
#X connect 257 0 258 0;
#X connect 257 1 258 1;
#X connect 259 0 257 0;
#X connect 260 0 264 0;
#X connect 260 1 264 1;
#X connect 261 0 265 0;
#X connect 261 1 265 1;
#X connect 262 0 266 0;
#X connect 262 1 266 1;
#X connect 263 0 267 0;
#X connect 263 1 267 1;
#X connect 268 0 269 0;
#X connect 268 1 269 1;
#X connect 270 0 271 0;
#X connect 270 1 271 1;
#X connect 272 0 273 0;
#X connect 272 1 273 1;
#X connect 274 0 275 0;
#X connect 274 1 275 1;
#X connect 276 0 260 0;
#X connect 277 0 261 0;
#X connect 278 0 262 0;
#X connect 279 0 263 0;
#X connect 280 0 268 0;
#X connect 281 0 270 0;
#X connect 282 0 272 0;
#X connect 283 0 274 0;
#X connect 284 0 288 0;
#X connect 284 1 288 1;
#X connect 285 0 289 0;
#X connect 285 1 289 1;
#X connect 286 0 290 0;
#X connect 286 1 290 1;
#X connect 287 0 291 0;
#X connect 287 1 291 1;
#X connect 292 0 293 0;
#X connect 292 1 293 1;
#X connect 294 0 295 0;
#X connect 294 1 295 1;
#X connect 296 0 300 0;
#X connect 296 1 300 1;
#X connect 297 0 301 0;
#X connect 297 1 301 1;
#X connect 298 0 302 0;
#X connect 298 1 302 1;
#X connect 299 0 303 0;
#X connect 299 1 303 1;
#X connect 304 0 305 0;
#X connect 304 1 305 1;
#X connect 306 0 307 0;
#X connect 306 1 307 1;
#X connect 308 0 309 0;
#X connect 308 1 309 1;
#X connect 310 0 311 0;
#X connect 310 1 311 1;
#X connect 312 0 316 0;
#X connect 312 1 316 1;
#X connect 313 0 317 0;
#X connect 313 1 317 1;
#X connect 314 0 318 0;
#X connect 314 1 318 1;
#X connect 315 0 319 0;
#X connect 315 1 319 1;
#X connect 320 0 324 0;
#X connect 320 1 324 1;
#X connect 321 0 325 0;
#X connect 321 1 325 1;
#X connect 322 0 326 0;
#X connect 322 1 326 1;
#X connect 323 0 327 0;
#X connect 323 1 327 1;
#X connect 328 0 284 0;
#X connect 329 0 285 0;
#X connect 330 0 286 0;
#X connect 331 0 287 0;
#X connect 332 0 292 0;
#X connect 333 0 294 0;
#X connect 334 0 296 0;
#X connect 335 0 297 0;
#X connect 336 0 298 0;
#X connect 337 0 299 0;
#X connect 338 0 304 0;
#X connect 339 0 306 0;
#X connect 340 0 308 0;
#X connect 341 0 310 0;
#X connect 342 0 320 0;
#X connect 343 0 321 0;
#X connect 344 0 322 0;
#X connect 345 0 323 0;
#X connect 346 0 312 0;
#X connect 347 0 313 0;
#X connect 348 0 314 0;
#X connect 349 0 315 0;
#X connect 350 0 346 0;
#X connect 350 0 436 0;
#X connect 350 2 347 0;
#X connect 350 2 437 0;
#X connect 350 4 348 0;
#X connect 350 4 438 0;
#X connect 350 6 349 0;
#X connect 350 6 439 0;
#X connect 350 8 345 0;
#X connect 350 8 444 0;
#X connect 350 10 344 0;
#X connect 350 10 446 0;
#X connect 350 12 343 0;
#X connect 350 12 449 0;
#X connect 350 14 342 0;
#X connect 350 14 452 0;
#X connect 351 0 217 0;
#X connect 352 0 353 0;
#X connect 352 1 353 1;
#X connect 354 0 355 0;
#X connect 354 1 355 1;
#X connect 356 0 357 0;
#X connect 356 1 357 1;
#X connect 358 0 359 0;
#X connect 358 1 359 1;
#X connect 360 0 361 0;
#X connect 360 1 361 1;
#X connect 362 0 363 0;
#X connect 362 1 363 1;
#X connect 364 0 365 0;
#X connect 364 1 365 1;
#X connect 366 0 367 0;
#X connect 366 1 367 1;
#X connect 368 0 360 0;
#X connect 369 0 362 0;
#X connect 370 0 364 0;
#X connect 371 0 366 0;
#X connect 372 0 352 0;
#X connect 373 0 354 0;
#X connect 374 0 356 0;
#X connect 375 0 358 0;
#X connect 376 1 372 0;
#X connect 376 1 457 0;
#X connect 376 3 373 0;
#X connect 376 3 458 0;
#X connect 376 5 374 0;
#X connect 376 5 459 0;
#X connect 376 7 375 0;
#X connect 376 7 460 0;
#X connect 376 9 371 0;
#X connect 376 9 462 0;
#X connect 376 11 370 0;
#X connect 376 11 464 0;
#X connect 376 13 369 0;
#X connect 376 13 466 0;
#X connect 376 15 368 0;
#X connect 376 15 467 0;
#X connect 377 0 378 1;
#X connect 378 0 376 0;
#X connect 379 0 382 1;
#X connect 380 0 381 1;
#X connect 381 0 415 0;
#X connect 382 0 413 0;
#X connect 383 0 65 0;
#X connect 384 0 105 0;
#X connect 385 0 154 0;
#X connect 386 0 203 0;
#X connect 387 0 234 0;
#X connect 388 0 377 0;
#X connect 389 0 379 0;
#X connect 390 0 380 0;
#X connect 391 0 396 0;
#X connect 392 0 397 0;
#X connect 393 0 398 0;
#X connect 394 0 399 0;
#X connect 395 0 350 0;
#X connect 396 0 400 1;
#X connect 397 0 401 1;
#X connect 398 0 402 1;
#X connect 399 0 403 1;
#X connect 405 0 395 0;
#X connect 405 1 378 0;
#X connect 405 2 382 0;
#X connect 405 3 381 0;
#X connect 405 4 400 0;
#X connect 405 5 401 0;
#X connect 406 0 407 0;
#X connect 406 1 407 1;
#X connect 408 0 409 0;
#X connect 408 1 409 1;
#X connect 410 0 406 0;
#X connect 411 0 408 0;
#X connect 413 0 334 0;
#X connect 413 0 488 0;
#X connect 413 1 335 0;
#X connect 413 1 489 0;
#X connect 413 2 336 0;
#X connect 413 2 490 0;
#X connect 413 3 337 0;
#X connect 413 3 491 0;
#X connect 413 4 338 0;
#X connect 413 4 499 0;
#X connect 413 5 339 0;
#X connect 413 5 497 0;
#X connect 413 6 340 0;
#X connect 413 6 495 0;
#X connect 413 7 341 0;
#X connect 413 7 493 0;
#X connect 413 8 411 0;
#X connect 413 8 517 0;
#X connect 413 9 410 0;
#X connect 413 9 519 0;
#X connect 413 10 333 0;
#X connect 413 10 521 0;
#X connect 413 11 332 0;
#X connect 413 11 523 0;
#X connect 413 12 331 0;
#X connect 413 12 515 0;
#X connect 413 13 330 0;
#X connect 413 13 514 0;
#X connect 413 14 329 0;
#X connect 413 14 513 0;
#X connect 413 15 328 0;
#X connect 413 15 512 0;
#X connect 415 0 276 0;
#X connect 415 0 536 0;
#X connect 415 1 277 0;
#X connect 415 1 537 0;
#X connect 415 2 278 0;
#X connect 415 2 538 0;
#X connect 415 3 279 0;
#X connect 415 3 539 0;
#X connect 415 4 280 0;
#X connect 415 4 547 0;
#X connect 415 5 281 0;
#X connect 415 5 545 0;
#X connect 415 6 282 0;
#X connect 415 6 543 0;
#X connect 415 7 283 0;
#X connect 415 7 541 0;
#X connect 415 8 259 0;
#X connect 415 8 557 0;
#X connect 415 9 256 0;
#X connect 415 9 559 0;
#X connect 415 10 255 0;
#X connect 415 10 561 0;
#X connect 415 11 254 0;
#X connect 415 11 563 0;
#X connect 415 12 243 0;
#X connect 415 12 555 0;
#X connect 415 13 242 0;
#X connect 415 13 554 0;
#X connect 415 14 241 0;
#X connect 415 14 553 0;
#X connect 415 15 237 0;
#X connect 415 15 552 0;
#X connect 417 0 213 0;
#X connect 418 0 8 0;
#X connect 418 0 587 0;
#X connect 418 0 591 0;
#X connect 419 0 51 0;
#X connect 419 0 55 0;
#X connect 420 0 94 0;
#X connect 420 0 98 0;
#X connect 421 0 143 0;
#X connect 421 0 147 0;
#X connect 422 0 192 0;
#X connect 422 0 196 0;
#X connect 423 0 225 0;
#X connect 423 0 229 0;
#X connect 424 0 17 0;
#X connect 425 0 72 0;
#X connect 426 0 121 0;
#X connect 427 0 170 0;
#X connect 428 0 432 0;
#X connect 429 0 434 0;
#X connect 430 0 435 0;
#X connect 431 0 433 0;
#X connect 432 0 436 1;
#X connect 433 0 437 1;
#X connect 434 0 438 1;
#X connect 435 0 439 1;
#X connect 436 0 218 0;
#X connect 437 0 218 0;
#X connect 438 0 218 0;
#X connect 439 0 218 0;
#X connect 442 0 443 0;
#X connect 443 0 444 1;
#X connect 444 0 218 0;
#X connect 445 0 446 1;
#X connect 446 0 218 0;
#X connect 447 0 445 0;
#X connect 448 0 449 1;
#X connect 449 0 218 0;
#X connect 450 0 448 0;
#X connect 451 0 452 1;
#X connect 452 0 218 0;
#X connect 453 0 451 0;
#X connect 454 0 457 1;
#X connect 455 0 459 1;
#X connect 456 0 460 1;
#X connect 457 0 476 0;
#X connect 458 0 476 0;
#X connect 459 0 476 0;
#X connect 460 0 476 0;
#X connect 461 0 462 1;
#X connect 462 0 476 0;
#X connect 463 0 464 1;
#X connect 464 0 476 0;
#X connect 465 0 466 1;
#X connect 466 0 476 0;
#X connect 467 0 476 0;
#X connect 468 0 454 0;
#X connect 469 0 595 0;
#X connect 470 0 455 0;
#X connect 471 0 456 0;
#X connect 472 0 461 0;
#X connect 473 0 463 0;
#X connect 474 0 465 0;
#X connect 475 0 594 0;
#X connect 476 0 478 0;
#X connect 476 0 479 0;
#X connect 476 0 585 0;
#X connect 476 0 603 0;
#X connect 477 0 476 1;
#X connect 480 0 482 0;
#X connect 480 0 483 0;
#X connect 480 0 589 0;
#X connect 480 0 601 0;
#X connect 481 0 480 1;
#X connect 484 0 488 1;
#X connect 485 0 489 1;
#X connect 486 0 490 1;
#X connect 487 0 491 1;
#X connect 488 0 480 0;
#X connect 489 0 480 0;
#X connect 490 0 480 0;
#X connect 491 0 480 0;
#X connect 492 0 493 1;
#X connect 493 0 480 0;
#X connect 494 0 495 1;
#X connect 495 0 480 0;
#X connect 496 0 497 1;
#X connect 497 0 480 0;
#X connect 498 0 499 1;
#X connect 499 0 480 0;
#X connect 500 0 484 0;
#X connect 501 0 485 0;
#X connect 502 0 486 0;
#X connect 503 0 487 0;
#X connect 504 0 498 0;
#X connect 505 0 496 0;
#X connect 506 0 494 0;
#X connect 507 0 492 0;
#X connect 508 0 512 1;
#X connect 509 0 513 1;
#X connect 510 0 514 1;
#X connect 511 0 515 1;
#X connect 512 0 480 0;
#X connect 513 0 480 0;
#X connect 514 0 480 0;
#X connect 515 0 480 0;
#X connect 516 0 517 1;
#X connect 517 0 480 0;
#X connect 518 0 519 1;
#X connect 519 0 480 0;
#X connect 520 0 521 1;
#X connect 521 0 480 0;
#X connect 522 0 523 1;
#X connect 523 0 480 0;
#X connect 524 0 516 0;
#X connect 525 0 518 0;
#X connect 526 0 520 0;
#X connect 527 0 522 0;
#X connect 528 0 511 0;
#X connect 529 0 510 0;
#X connect 530 0 509 0;
#X connect 531 0 508 0;
#X connect 532 0 536 1;
#X connect 533 0 537 1;
#X connect 534 0 538 1;
#X connect 535 0 539 1;
#X connect 536 0 564 0;
#X connect 537 0 564 0;
#X connect 538 0 564 0;
#X connect 539 0 564 0;
#X connect 540 0 541 1;
#X connect 541 0 564 0;
#X connect 542 0 543 1;
#X connect 543 0 564 0;
#X connect 544 0 545 1;
#X connect 545 0 564 0;
#X connect 546 0 547 1;
#X connect 547 0 564 0;
#X connect 548 0 552 1;
#X connect 549 0 553 1;
#X connect 550 0 554 1;
#X connect 551 0 555 1;
#X connect 552 0 564 0;
#X connect 553 0 564 0;
#X connect 554 0 564 0;
#X connect 555 0 564 0;
#X connect 556 0 557 1;
#X connect 557 0 564 0;
#X connect 558 0 559 1;
#X connect 559 0 564 0;
#X connect 560 0 561 1;
#X connect 561 0 564 0;
#X connect 562 0 563 1;
#X connect 563 0 564 0;
#X connect 564 0 566 0;
#X connect 564 0 567 0;
#X connect 564 0 589 0;
#X connect 564 0 600 0;
#X connect 565 0 564 1;
#X connect 568 0 532 0;
#X connect 569 0 533 0;
#X connect 570 0 534 0;
#X connect 571 0 535 0;
#X connect 572 0 546 0;
#X connect 573 0 544 0;
#X connect 574 0 542 0;
#X connect 575 0 540 0;
#X connect 576 0 556 0;
#X connect 577 0 558 0;
#X connect 578 0 560 0;
#X connect 579 0 562 0;
#X connect 580 0 551 0;
#X connect 581 0 550 0;
#X connect 582 0 549 0;
#X connect 583 0 548 0;
#X connect 584 0 625 0;
#X connect 585 0 586 0;
#X connect 586 0 7 0;
#X connect 586 0 7 1;
#X connect 587 0 586 1;
#X connect 587 0 586 0;
#X connect 589 0 590 0;
#X connect 590 0 7 0;
#X connect 590 0 7 1;
#X connect 591 0 590 1;
#X connect 591 0 590 0;
#X connect 594 0 467 1;
#X connect 595 0 458 1;
#X connect 596 0 593 0;
#X connect 598 0 596 0;
#X connect 600 0 607 0;
#X connect 600 1 607 1;
#X connect 601 0 606 0;
#X connect 601 1 606 1;
#X connect 602 0 605 0;
#X connect 602 1 605 1;
#X connect 603 0 604 0;
#X connect 603 1 604 1;
#X connect 608 0 609 0;
#X connect 608 1 609 1;
#X connect 610 0 613 0;
#X connect 610 1 613 1;
#X connect 611 0 614 0;
#X connect 611 1 614 1;
#X connect 612 0 615 0;
#X connect 612 1 615 1;
#X connect 616 0 619 0;
#X connect 617 0 618 0;
#X connect 618 0 623 0;
#X connect 619 0 623 0;
#X connect 620 0 565 0;
#X connect 621 0 623 4;
#X connect 622 0 623 3;
#X connect 623 0 620 0;
#X connect 624 0 622 0;
#X connect 624 0 621 0;
#X connect 625 0 616 0;
#X connect 625 1 617 0;
#X connect 625 2 626 0;
#X connect 626 0 627 0;
#X connect 626 1 628 0;
#X connect 627 0 616 0;
#X connect 628 0 617 0;
#X connect 629 0 632 0;
#X connect 630 0 631 0;
#X connect 631 0 636 0;
#X connect 632 0 636 0;
#X connect 633 0 481 0;
#X connect 634 0 636 4;
#X connect 635 0 636 3;
#X connect 636 0 633 0;
#X connect 637 0 635 0;
#X connect 637 0 634 0;
#X connect 638 0 629 0;
#X connect 638 1 630 0;
#X connect 638 2 639 0;
#X connect 639 0 640 0;
#X connect 639 1 641 0;
#X connect 640 0 629 0;
#X connect 641 0 630 0;
#X connect 642 0 638 0;
#X connect 643 0 646 0;
#X connect 644 0 645 0;
#X connect 645 0 650 0;
#X connect 646 0 650 0;
#X connect 647 0 219 0;
#X connect 648 0 650 4;
#X connect 649 0 650 3;
#X connect 650 0 647 0;
#X connect 651 0 649 0;
#X connect 651 0 648 0;
#X connect 652 0 643 0;
#X connect 652 1 644 0;
#X connect 652 2 653 0;
#X connect 653 0 654 0;
#X connect 653 1 655 0;
#X connect 654 0 643 0;
#X connect 655 0 644 0;
#X connect 656 0 659 0;
#X connect 657 0 658 0;
#X connect 658 0 663 0;
#X connect 659 0 663 0;
#X connect 660 0 477 0;
#X connect 661 0 663 4;
#X connect 662 0 663 3;
#X connect 663 0 660 0;
#X connect 664 0 662 0;
#X connect 664 0 661 0;
#X connect 665 0 656 0;
#X connect 665 1 657 0;
#X connect 665 2 666 0;
#X connect 666 0 667 0;
#X connect 666 1 668 0;
#X connect 667 0 656 0;
#X connect 668 0 657 0;
#X connect 669 0 652 0;
#X connect 670 0 665 0;
