#N canvas 577 69 434 322 10;
#N canvas 453 63 838 650 fidget_gutz 1;
#X obj 113 413 adc~;
#X obj 113 449 env~;
#X obj 440 360 nbx 5 14 -1e+37 1e+37 0 0 empty empty empty 0 -8 0 10
-262144 -1 -1 3.31326 256;
#X obj 108 528 phasor~;
#X obj 109 498 mtof;
#X obj 163 498 unpack;
#X floatatom 176 376 0 0 0 0 - - -;
#X floatatom 247 376 0 0 0 0 - - -;
#X obj 106 379 nbx 5 14 -1e+37 1e+37 0 0 empty empty empty 0 -8 0 10
-262144 -1 -1 61.8687 256;
#X obj 196 450 fiddle~ 1024 3 20 3;
#X obj 209 653 *~;
#X obj 304 595 square~;
#X text 407 470 individual sinusoidal;
#X obj 110 630 *~;
#X obj 141 578 / 50;
#X obj 309 517 unpack;
#X obj 309 477 route 1 2 3 4;
#X obj 392 517 unpack;
#X obj 476 517 unpack;
#X obj 446 676 nbx 5 14 -1e+37 1e+37 0 0 empty empty empty 0 -8 0 10
-262144 -1 -1 0 256;
#X obj 441 380 nbx 5 14 -1e+37 1e+37 0 0 empty empty empty 0 -8 0 10
-262144 -1 -1 4.13709 256;
#X text 417 482 components (peaks);
#X obj 298 645 mtof;
#X obj 299 675 square~;
#X obj 377 604 * 100;
#X obj 406 676 mtof;
#X obj 407 706 square~;
#X obj 511 697 mtof;
#X obj 512 727 square~;
#X obj 111 663 spigot~;
#X obj 110 182 tgl 15 0 empty empty empty 17 7 0 10 -262144 -1 -1 1
1;
#X obj 210 691 spigot~;
#X obj 184 184 tgl 15 0 empty empty empty 17 7 0 10 -262144 -1 -1 0
1;
#X obj 297 725 spigot~;
#X obj 258 184 tgl 15 0 empty empty empty 17 7 0 10 -262144 -1 -1 0
1;
#X obj 408 763 spigot~;
#X obj 332 184 tgl 15 0 empty empty empty 17 7 0 10 -262144 -1 -1 0
1;
#X obj 516 783 spigot~;
#X obj 406 184 tgl 15 0 empty empty empty 17 7 0 10 -262144 -1 -1 0
1;
#X obj 111 763 spigot~;
#X obj 110 198 tgl 15 0 empty empty empty 17 7 0 10 -262144 -1 -1 0
1;
#X obj 210 801 spigot~;
#X obj 184 199 tgl 15 0 empty empty empty 17 7 0 10 -262144 -1 -1 0
1;
#X obj 297 815 spigot~;
#X obj 258 199 tgl 15 0 empty empty empty 17 7 0 10 -262144 -1 -1 0
1;
#X obj 408 853 spigot~;
#X obj 332 199 tgl 15 0 empty empty empty 17 7 0 10 -262144 -1 -1 0
1;
#X obj 516 873 spigot~;
#X obj 406 199 tgl 15 0 empty empty empty 17 7 0 10 -262144 -1 -1 0
1;
#X obj 110 961 moog~;
#X msg 126 190 reset;
#X obj 137 929 sig~ 3;
#X obj 118 861 +~ 1;
#X obj 118 902 +~ 100;
#X obj 118 840 osc~ 0.25;
#X obj 118 881 *~ 2000;
#X obj 198 996 moog~;
#X msg 200 190 reset;
#X obj 225 964 sig~ 3;
#X obj 206 896 +~ 1;
#X obj 206 937 +~ 100;
#X obj 206 875 osc~ 0.25;
#X obj 206 916 *~ 2000;
#X obj 289 1014 moog~;
#X msg 274 188 reset;
#X obj 316 982 sig~ 3;
#X obj 297 914 +~ 1;
#X obj 297 955 +~ 100;
#X obj 297 893 osc~ 0.25;
#X obj 297 934 *~ 2000;
#X obj 401 1052 moog~;
#X msg 348 190 reset;
#X obj 428 1020 sig~ 3;
#X obj 409 952 +~ 1;
#X obj 409 993 +~ 100;
#X obj 409 931 osc~ 0.25;
#X obj 409 972 *~ 2000;
#X obj 515 1069 moog~;
#X msg 422 191 reset;
#X obj 542 1037 sig~ 3;
#X obj 523 969 +~ 1;
#X obj 523 1010 +~ 100;
#X obj 523 948 osc~ 0.25;
#X obj 523 989 *~ 2000;
#X text 468 213 freq;
#X obj 406 214 nbx 5 14 -1e+37 1e+37 0 0 empty empty empty 0 -8 0 10
-262144 -1 -1 0 256;
#X obj 332 214 nbx 5 14 -1e+37 1e+37 0 0 empty empty empty 0 -8 0 10
-262144 -1 -1 0 256;
#X obj 258 214 nbx 5 14 -1e+37 1e+37 0 0 empty empty empty 0 -8 0 10
-262144 -1 -1 0 256;
#X obj 184 214 nbx 5 14 -1e+37 1e+37 0 0 empty empty empty 0 -8 0 10
-262144 -1 -1 57 256;
#X obj 110 214 nbx 5 14 -1e+37 1e+37 0 0 empty empty empty 0 -8 0 10
-262144 -1 -1 1411 256;
#X text 274 745 Q;
#X text 473 228 Q;
#X text 475 179 i/o;
#X obj 113 228 hsl 49 15 0 4 0 0 empty empty empty -2 -8 0 10 -262144
-1 -1 3000 1;
#X obj 187 228 hsl 49 15 0 4 0 0 empty empty empty -2 -8 0 10 -262144
-1 -1 800 1;
#X obj 261 228 hsl 49 15 0 4 0 0 empty empty empty -2 -8 0 10 -262144
-1 -1 0 1;
#X obj 335 228 hsl 49 15 0 4 0 0 empty empty empty -2 -8 0 10 -262144
-1 -1 0 1;
#X obj 409 228 hsl 49 15 0 4 0 0 empty empty empty -2 -8 0 10 -262144
-1 -1 0 1;
#X obj 328 1269 dac~ 1 2;
#X obj 338 1192 *~;
#X obj 328 1225 *~;
#X obj 295 281 vsl 50 50 0 1 0 0 empty empty MSTR_VOL 0 -9 0 10 -262144
-1 -1 2600 1;
#X text 362 1194 CH1;
#X text 352 1224 CH2;
#X obj 523 1300 dac~ 1 2;
#X obj 533 1223 *~;
#X obj 523 1256 *~;
#X obj 415 275 vsl 50 50 0 1 0 0 empty empty MSTR_VOL 0 -9 0 10 -262144
-1 -1 2600 1;
#X text 557 1225 CH1;
#X text 547 1255 CH2;
#X obj 169 1277 dac~ 1 2;
#X obj 179 1200 *~;
#X obj 169 1233 *~;
#X obj 148 279 vsl 50 50 0 1 0 0 empty empty MSTR_VOL 0 -9 0 10 -262144
-1 -1 3800 1;
#X text 203 1202 CH1;
#X text 193 1232 CH2;
#X text 468 195 fltr;
#X text 104 359 pitch 1;
#X text 174 359 pitch 2;
#X text 244 359 pitch 3;
#X text 443 339 env~;
#X text 406 161 dac1;
#X text 330 162 dac2 iffy;
#X text 257 161 dac1 iffy;
#X text 184 163 dac2;
#X text 109 162 dac1;
#X text 116 128 adc~1 -> fiddle~ -> phasor~/square~ -> moog~ -> dac~
;
#X text 106 114 BASIC DIAGRAM:;
#X connect 0 0 1 0;
#X connect 0 0 9 0;
#X connect 1 0 2 0;
#X connect 2 0 14 0;
#X connect 3 0 13 0;
#X connect 4 0 3 0;
#X connect 5 0 6 0;
#X connect 5 1 7 0;
#X connect 8 0 4 0;
#X connect 9 0 8 0;
#X connect 9 2 5 0;
#X connect 9 3 22 0;
#X connect 9 4 19 0;
#X connect 9 4 25 0;
#X connect 9 5 20 0;
#X connect 9 5 27 0;
#X connect 9 6 16 0;
#X connect 10 0 31 0;
#X connect 11 0 10 0;
#X connect 13 0 29 0;
#X connect 14 0 13 1;
#X connect 15 0 11 0;
#X connect 16 0 15 0;
#X connect 16 1 17 0;
#X connect 16 2 18 0;
#X connect 17 0 24 0;
#X connect 22 0 23 0;
#X connect 23 0 33 0;
#X connect 24 0 10 1;
#X connect 25 0 26 0;
#X connect 26 0 35 0;
#X connect 27 0 28 0;
#X connect 28 0 37 0;
#X connect 29 1 39 0;
#X connect 30 0 29 1;
#X connect 31 1 41 0;
#X connect 32 0 31 1;
#X connect 33 1 43 0;
#X connect 34 0 33 1;
#X connect 35 1 45 0;
#X connect 36 0 35 1;
#X connect 37 1 47 0;
#X connect 38 0 37 1;
#X connect 39 0 111 0;
#X connect 39 1 49 0;
#X connect 40 0 39 1;
#X connect 41 0 112 0;
#X connect 41 1 56 0;
#X connect 42 0 41 1;
#X connect 43 0 99 0;
#X connect 43 1 63 0;
#X connect 44 0 43 1;
#X connect 45 0 100 0;
#X connect 45 1 70 0;
#X connect 46 0 45 1;
#X connect 47 0 105 0;
#X connect 47 1 77 0;
#X connect 48 0 47 1;
#X connect 49 0 111 0;
#X connect 50 0 49 0;
#X connect 51 0 49 2;
#X connect 52 0 55 0;
#X connect 53 0 49 1;
#X connect 54 0 52 0;
#X connect 55 0 53 0;
#X connect 56 0 112 0;
#X connect 57 0 56 0;
#X connect 58 0 56 2;
#X connect 59 0 62 0;
#X connect 60 0 56 1;
#X connect 61 0 59 0;
#X connect 62 0 60 0;
#X connect 63 0 99 0;
#X connect 64 0 63 0;
#X connect 65 0 63 2;
#X connect 66 0 69 0;
#X connect 67 0 63 1;
#X connect 68 0 66 0;
#X connect 69 0 67 0;
#X connect 70 0 100 0;
#X connect 71 0 70 0;
#X connect 72 0 70 2;
#X connect 73 0 76 0;
#X connect 74 0 70 1;
#X connect 75 0 73 0;
#X connect 76 0 74 0;
#X connect 77 0 105 0;
#X connect 78 0 77 0;
#X connect 79 0 77 2;
#X connect 80 0 83 0;
#X connect 81 0 77 1;
#X connect 82 0 80 0;
#X connect 83 0 81 0;
#X connect 85 0 82 0;
#X connect 86 0 75 0;
#X connect 87 0 68 0;
#X connect 88 0 61 0;
#X connect 89 0 54 0;
#X connect 93 0 51 0;
#X connect 94 0 58 0;
#X connect 95 0 65 0;
#X connect 96 0 72 0;
#X connect 97 0 79 0;
#X connect 99 0 98 0;
#X connect 99 0 98 1;
#X connect 100 0 98 1;
#X connect 100 0 98 0;
#X connect 101 0 100 1;
#X connect 101 0 99 1;
#X connect 105 0 104 0;
#X connect 105 0 104 1;
#X connect 106 0 104 1;
#X connect 106 0 104 0;
#X connect 107 0 106 1;
#X connect 107 0 105 1;
#X connect 111 0 110 0;
#X connect 111 0 110 1;
#X connect 112 0 110 1;
#X connect 112 0 110 0;
#X connect 113 0 112 1;
#X connect 113 0 111 1;
#X coords 0 -1 1 1 400 300 1 100 100;
#X restore 9 12 pd fidget_gutz;
#X text 168 55;
