#N canvas 181 28 651 717 10;
#X obj -512 21 metro;
#X obj 64 -65 tgl 15 0 empty empty empty 17 7 0 10 -260097 -1 -1 1
1;
#X obj -512 45 f;
#X obj -478 45 + 1;
#X obj -511 144 f;
#X obj -78 390 mtof;
#X obj -78 411 phasor~;
#X obj -76 483 dac~;
#X obj 53 550 * 1.9;
#X obj 28 575 bp~ 250 8;
#X obj -480 226 metro;
#X obj 62 32 tgl 15 0 empty empty empty 17 7 0 10 -260097 -1 -1 1 1
;
#X obj -480 247 f;
#X obj -446 247 + 1;
#X obj -480 344 f;
#X obj -480 269 mod 10;
#X obj -480 317 select 0 1 2 3 4 5 6 7 8 9;
#X obj -530 581 outlet;
#X obj -511 117 select 0 1 2 3 4 5 6 7 8 9;
#X obj -531 -112 inlet;
#X obj -531 -86 unpack f f f f b t f f f;
#X obj 47 -26 hsl 30 15 0 127 0 0 empty empty empty -2 -8 0 10 -260097
-1 -1 0 1;
#X obj 45 72 hsl 30 15 0 127 0 0 empty empty empty -2 -8 0 10 -260097
-1 -1 0 1;
#X obj -447 423 metro;
#X obj 61 128 tgl 15 0 empty empty empty 17 7 0 10 -260097 -1 -1 1
1;
#X obj -447 443 f;
#X obj -413 443 + 1;
#X obj -447 528 f;
#X obj -447 462 mod 10;
#X obj -447 505 select 0 1 2 3 4 5 6 7 8 9;
#X obj 44 168 hsl 30 15 0 127 0 0 empty empty empty -2 -8 0 10 -260097
-1 -1 0 1;
#X text 28 14 2 [TWO];
#X text 28 -83 1 [ONE];
#X obj -512 -38 range 0 100 0 1000;
#X obj -447 381 range 0 100 0 1000;
#X obj -480 181 range 0 100 0 1000;
#X text -112 434 AUDIO OUT;
#X obj 44 -45 nbx 3 14 0 100 0 0 empty empty empty 0 -8 0 10 -191407
-1 -1 40 256;
#X obj -530 555 pack f f f f f f f f;
#X obj 43 52 nbx 3 14 0 100 0 0 empty empty empty 0 -8 0 10 -191407
-1 -1 10 256;
#X obj -480 292 range 0 10 0 100;
#X obj 42 148 nbx 3 14 0 100 0 0 empty empty empty 0 -8 0 10 -191407
-1 -1 50 256;
#X obj -447 483 range 0 10 0 100;
#X obj -512 -11 != 0;
#X obj -447 401 != 0;
#X obj 47 -7 hsl 20 15 0 100 0 0 empty empty empty -2 -8 0 10 -257985
-1 -1 0 1;
#X obj 44 92 hsl 20 15 0 100 0 0 empty empty empty -2 -8 0 10 -257985
-1 -1 0 1;
#X obj 44 188 hsl 20 15 0 100 0 0 empty empty empty -2 -8 0 10 -257985
-1 -1 0 1;
#X obj -480 205 != 0;
#X obj -512 68 mod 10;
#X obj -512 92 range 0 10 0 100;
#X obj 29 -67 vradio 8 1 0 10 empty empty empty 0 -8 0 10 -262144 -1
-1 4;
#X obj 29 29 vradio 8 1 0 10 empty empty empty 0 -8 0 10 -262144 -1
-1 1;
#X obj 29 124 vradio 8 1 0 10 empty empty empty 0 -8 0 10 -262144 -1
-1 5;
#X text 28 108 3 [THR3];
#X text -513 -58 1 [ONE];
#X text -483 161 2 [TWO];
#X text -450 361 3 [THREE];
#X text -47 530 ow \, this hurtz my earz;
#X connect 0 0 2 0;
#X connect 1 0 0 0;
#X connect 2 0 3 0;
#X connect 2 0 49 0;
#X connect 3 0 2 1;
#X connect 4 0 5 0;
#X connect 4 0 38 1;
#X connect 5 0 6 0;
#X connect 6 0 7 0;
#X connect 6 0 7 1;
#X connect 8 0 9 1;
#X connect 10 0 12 0;
#X connect 11 0 10 0;
#X connect 12 0 13 0;
#X connect 12 0 15 0;
#X connect 13 0 12 1;
#X connect 14 0 5 0;
#X connect 14 0 38 3;
#X connect 15 0 40 0;
#X connect 15 0 52 0;
#X connect 16 0 14 0;
#X connect 18 0 4 0;
#X connect 19 0 20 0;
#X connect 20 1 21 0;
#X connect 20 2 22 0;
#X connect 20 3 30 0;
#X connect 20 6 45 0;
#X connect 20 7 46 0;
#X connect 20 8 47 0;
#X connect 21 0 4 1;
#X connect 22 0 14 1;
#X connect 23 0 25 0;
#X connect 24 0 23 0;
#X connect 25 0 26 0;
#X connect 25 0 28 0;
#X connect 26 0 25 1;
#X connect 27 0 5 0;
#X connect 27 0 38 5;
#X connect 28 0 42 0;
#X connect 28 0 53 0;
#X connect 29 0 27 0;
#X connect 30 0 27 1;
#X connect 33 0 43 0;
#X connect 33 0 0 1;
#X connect 34 0 44 0;
#X connect 34 0 23 1;
#X connect 35 0 10 1;
#X connect 35 0 48 0;
#X connect 37 0 38 0;
#X connect 38 0 17 0;
#X connect 39 0 38 2;
#X connect 40 0 39 0;
#X connect 41 0 38 4;
#X connect 42 0 41 0;
#X connect 43 0 1 0;
#X connect 44 0 24 0;
#X connect 45 0 33 0;
#X connect 46 0 35 0;
#X connect 47 0 34 0;
#X connect 48 0 11 0;
#X connect 49 0 50 0;
#X connect 49 0 51 0;
#X connect 50 0 37 0;
#X connect 51 0 18 0;
#X connect 52 0 16 0;
#X connect 53 0 29 0;
