#N canvas 415 178 339 431 10;
#X obj 186 164 / 100;
#X obj 53 157 phasor~;
#X text 45 113 frequency;
#X obj 120 200 *~;
#X obj 53 191 *~ -1;
#X obj 53 216 +~ 1;
#X obj 145 249 *~;
#X obj 120 278 min~;
#X text 22 366 Making waveforms with corners by specifying line segment
slopes, f 32;
#X text 193 141 down;
#X obj 119 345 outlet~;
#X obj 138 164 / 100;
#X text 123 121 SLOPES (percent);
#X text 156 140 up;
#X obj 239 157 loadbang;
#X msg 239 182 1;
#X obj 29 28 inlet;
#X obj 107 26 inlet;
#X obj 178 27 inlet;
#X connect 0 0 6 1;
#X connect 1 0 3 0;
#X connect 1 0 4 0;
#X connect 3 0 7 0;
#X connect 4 0 5 0;
#X connect 5 0 6 0;
#X connect 6 0 7 1;
#X connect 7 0 10 0;
#X connect 11 0 3 1;
#X connect 14 0 15 0;
#X connect 15 0 6 1;
#X connect 15 0 3 1;
#X connect 16 0 1 0;
#X connect 17 0 11 0;
#X connect 18 0 0 0;
