#N canvas 395 23 881 712 10;
#X obj 32 497 uDMX;
#X msg 72 397 open;
#X msg 73 419 close;
#X obj 203 142 nbx 5 14 -1e+37 1e+37 0 0 empty empty empty 0 -8 0 10
-262144 -1 -1 0 256;
#X obj 203 165 nbx 5 14 -1e+37 1e+37 0 0 empty empty empty 0 -8 0 10
-262144 -1 -1 127 256;
#X obj 204 187 nbx 5 14 -1e+37 1e+37 0 0 empty empty empty 0 -8 0 10
-262144 -1 -1 0 256;
#X obj 205 209 nbx 5 14 -1e+37 1e+37 0 0 empty empty empty 0 -8 0 10
-262144 -1 -1 0 256;
#X obj 205 230 nbx 5 14 -1e+37 1e+37 0 0 empty empty empty 0 -8 0 10
-262144 -1 -1 0 256;
#X obj 205 251 nbx 5 14 -1e+37 1e+37 0 0 empty empty empty 0 -8 0 10
-262144 -1 -1 127 256;
#X obj 205 272 nbx 5 14 -1e+37 1e+37 0 0 empty empty empty 0 -8 0 10
-262144 -1 -1 50 256;
#X obj 205 294 nbx 5 14 -1e+37 1e+37 0 0 empty empty empty 0 -8 0 10
-262144 -1 -1 0 256;
#X text 427 -33 pulse 100-0-100;
#X text 427 -54 pulse 100-0;
#X text 427 -72 pulse 0-100;
#X text 428 -14 autofade;
#X text 428 4 autosnap 4col;
#X text 428 22 autosnap 15col;
#X text 428 41 sound-active;
#X text 261 141 1 RED;
#X text 261 165 2 GREEN;
#X text 261 187 3 BLUE;
#X text 262 209 4 AMBER;
#X text 263 251 6 SPEED;
#X text 263 272 7 MODE;
#X text 262 229 5 CMACRO;
#X text 263 293 8 DIMM;
#X obj 290 -164 line;
#X msg 342 -303 255 500;
#X msg 343 -263 255 5000;
#X msg 343 -282 0 5000;
#X msg 342 -322 0 500;
#X msg 290 -321 stop;
#X msg 344 -241 0 10000;
#X msg 344 -222 255 10000;
#X msg 345 -181 255 100000;
#X msg 345 -200 0 100000;
#X obj 59 370 pack f f f f f f f f;
#X obj 47 179 t b f;
#X obj 63 201 t b f;
#X obj 81 223 t b f;
#X obj 98 244 t b f;
#X obj 115 265 t b f;
#X obj 132 286 t b f;
#X obj 149 308 t b f;
#X obj 32 156 t b f;
#X text 15 -319 8-ch uDMX continuous slider output;
#X obj 32 327 b;
#X obj 19 -297 inlet;
#X obj 28 -280 inlet;
#X obj 38 -263 inlet;
#X obj 48 -246 inlet;
#X obj 59 -229 inlet;
#X obj 70 -212 inlet;
#X obj 78 -195 inlet;
#X obj 86 -178 inlet;
#X obj 256 -95 tgl 15 0 empty empty empty 17 7 0 10 -262144 -1 -1 0
1;
#X obj -68 433 select 0;
#X obj 98 -161 inlet;
#X text 256 -96 rebootz;
#X text 116 -120 1;
#X text 130 -120 2;
#X text 149 -119 3;
#X text 171 -119 4;
#X text 199 -121 5;
#X text 225 -121 6;
#X text 249 -121 7;
#X text 274 -123 8;
#X text 297 -122 9;
#X obj 97 446 loadbang;
#X obj 145 80 tgl 15 0 empty empty empty 17 7 0 10 -232576 -159808
-1 0 1;
#X obj 163 80 tgl 15 0 empty empty empty 17 7 0 10 -232576 -159808
-1 0 1;
#X obj 181 80 tgl 15 0 empty empty empty 17 7 0 10 -232576 -159808
-1 0 1;
#X obj 199 80 tgl 15 0 empty empty empty 17 7 0 10 -232576 -159808
-1 0 1;
#X obj 217 80 tgl 15 0 empty empty empty 17 7 0 10 -232576 -159808
-1 0 1;
#X obj 235 80 tgl 15 0 empty empty empty 17 7 0 10 -232576 -159808
-1 0 1;
#X obj 253 80 tgl 15 0 empty empty empty 17 7 0 10 -232576 -159808
-1 0 1;
#X obj 271 80 tgl 15 0 empty empty empty 17 7 0 10 -232576 -159808
-1 0 1;
#X obj 142 -57 vsl 15 128 0 127 0 0 empty empty 1 0 -9 0 10 -262144
-1 -1 0 1;
#X obj 161 -57 vsl 15 128 0 127 0 0 empty empty 2 0 -9 0 10 -262144
-1 -1 12700 1;
#X obj 179 -57 vsl 15 128 0 127 0 0 empty empty 3 0 -9 0 10 -262144
-1 -1 0 1;
#X obj 197 -57 vsl 15 128 0 127 0 0 empty empty 4 0 -9 0 10 -262144
-1 -1 0 1;
#X obj 215 -57 vsl 15 128 0 127 0 0 empty empty 5 0 -9 0 10 -262144
-1 -1 0 1;
#X obj 233 -57 vsl 15 128 0 127 0 0 empty empty 6 0 -9 0 10 -262144
-1 -1 12700 1;
#X obj 251 -57 vsl 15 128 0 127 0 0 empty empty 7 0 -9 0 10 -262144
-1 -1 5000 1;
#X obj 270 -57 vsl 15 128 0 127 0 0 empty empty 8 0 -9 0 10 -262144
-1 -1 0 1;
#X obj -46 -18 spigot;
#X obj -36 -8 spigot;
#X obj -26 2 spigot;
#X obj -16 12 spigot;
#X obj -6 22 spigot;
#X obj 4 32 spigot;
#X obj 14 42 spigot;
#X obj 24 52 spigot;
#X obj 118 -85 tgl 15 0 empty empty empty 17 7 0 10 -232576 -1 -1 0
1;
#X obj 148 -85 tgl 15 0 empty empty empty 17 7 0 10 -232576 -1 -1 0
127;
#X obj 180 -85 tgl 15 0 empty empty empty 17 7 0 10 -232576 -1 -1 0
127;
#X obj 212 -85 tgl 15 0 empty empty empty 17 7 0 10 -232576 -1 -1 0
1;
#X text 118 -85 1x;
#X text 148 -85 2x;
#X text 180 -85 3x;
#X text 212 -85 4x;
#X obj 118 -57 vsl 15 128 0 127 0 0 empty empty empty 0 -9 0 10 -232576
-1 -1 0 1;
#X text 110 80 f_lck;
#X text 279 94 CH 1;
#X text 125 478 dmx ch1;
#X msg 97 476 0;
#X connect 1 0 0 0;
#X connect 2 0 0 0;
#X connect 3 0 44 0;
#X connect 4 0 37 0;
#X connect 5 0 38 0;
#X connect 6 0 39 0;
#X connect 7 0 40 0;
#X connect 8 0 41 0;
#X connect 9 0 42 0;
#X connect 10 0 43 0;
#X connect 27 0 26 0;
#X connect 28 0 26 0;
#X connect 29 0 26 0;
#X connect 30 0 26 0;
#X connect 31 0 26 0;
#X connect 32 0 26 0;
#X connect 33 0 26 0;
#X connect 34 0 26 0;
#X connect 35 0 26 0;
#X connect 36 0 0 0;
#X connect 37 0 46 0;
#X connect 37 1 36 1;
#X connect 38 0 46 0;
#X connect 38 1 36 2;
#X connect 39 0 46 0;
#X connect 39 1 36 3;
#X connect 40 0 46 0;
#X connect 40 1 36 4;
#X connect 41 0 46 0;
#X connect 41 1 36 5;
#X connect 42 0 46 0;
#X connect 42 1 36 6;
#X connect 43 0 46 0;
#X connect 43 1 36 7;
#X connect 44 0 46 0;
#X connect 44 1 36 0;
#X connect 46 0 36 0;
#X connect 47 0 77 0;
#X connect 48 0 78 0;
#X connect 49 0 79 0;
#X connect 50 0 80 0;
#X connect 51 0 81 0;
#X connect 52 0 82 0;
#X connect 53 0 83 0;
#X connect 54 0 84 0;
#X connect 55 0 56 0;
#X connect 56 0 1 0;
#X connect 56 1 2 0;
#X connect 57 0 55 0;
#X connect 68 0 105 0;
#X connect 69 0 85 1;
#X connect 70 0 86 1;
#X connect 71 0 87 1;
#X connect 72 0 88 1;
#X connect 73 0 89 1;
#X connect 74 0 90 1;
#X connect 75 0 91 1;
#X connect 76 0 92 1;
#X connect 77 0 3 0;
#X connect 78 0 4 0;
#X connect 79 0 5 0;
#X connect 80 0 6 0;
#X connect 81 0 7 0;
#X connect 82 0 8 0;
#X connect 83 0 9 0;
#X connect 84 0 10 0;
#X connect 85 0 77 0;
#X connect 86 0 78 0;
#X connect 87 0 79 0;
#X connect 88 0 80 0;
#X connect 89 0 81 0;
#X connect 90 0 82 0;
#X connect 91 0 83 0;
#X connect 92 0 84 0;
#X connect 93 0 69 0;
#X connect 93 0 70 0;
#X connect 93 0 71 0;
#X connect 93 0 72 0;
#X connect 93 0 73 0;
#X connect 93 0 74 0;
#X connect 93 0 75 0;
#X connect 93 0 76 0;
#X connect 94 0 70 0;
#X connect 94 0 72 0;
#X connect 94 0 74 0;
#X connect 94 0 76 0;
#X connect 95 0 71 0;
#X connect 95 0 74 0;
#X connect 96 0 72 0;
#X connect 96 0 76 0;
#X connect 101 0 85 0;
#X connect 101 0 86 0;
#X connect 101 0 87 0;
#X connect 101 0 88 0;
#X connect 101 0 89 0;
#X connect 101 0 90 0;
#X connect 101 0 91 0;
#X connect 101 0 92 0;
#X connect 105 0 0 1;
#X coords 0 -1 1 1 200 240 1 110 -130;
