#N canvas 218 22 881 752 10;
#X obj 32 324 uDMX;
#X msg 72 284 open;
#X msg 73 306 close;
#X obj 203 29 nbx 5 14 -1e+37 1e+37 0 0 empty empty empty 0 -8 0 10
-262144 -1 -1 0 256;
#X obj 203 52 nbx 5 14 -1e+37 1e+37 0 0 empty empty empty 0 -8 0 10
-262144 -1 -1 0 256;
#X obj 204 74 nbx 5 14 -1e+37 1e+37 0 0 empty empty empty 0 -8 0 10
-262144 -1 -1 48.45 256;
#X obj 205 96 nbx 5 14 -1e+37 1e+37 0 0 empty empty empty 0 -8 0 10
-262144 -1 -1 255 256;
#X obj 205 117 nbx 5 14 -1e+37 1e+37 0 0 empty empty empty 0 -8 0 10
-262144 -1 -1 79.05 256;
#X obj 205 138 nbx 5 14 -1e+37 1e+37 0 0 empty empty empty 0 -8 0 10
-262144 -1 -1 114.75 256;
#X obj 205 159 nbx 5 14 -1e+37 1e+37 0 0 empty empty empty 0 -8 0 10
-262144 -1 -1 201.45 256;
#X obj 205 181 nbx 5 14 -1e+37 1e+37 0 0 empty empty empty 0 -8 0 10
-262144 -1 -1 0 256;
#X obj 122 -113 vsl 15 128 0 255 0 0 empty empty 1 0 -9 0 10 -260097
-1 -1 0 1;
#X obj 142 -113 vsl 15 128 0 255 0 0 empty empty 2 0 -9 0 10 -260097
-1 -1 0 1;
#X obj 162 -113 vsl 15 128 0 255 0 0 empty empty 3 0 -9 0 10 -260097
-1 -1 2413 1;
#X obj 183 -113 vsl 15 128 0 255 0 0 empty empty 4 0 -9 0 10 -260097
-1 -1 12700 1;
#X obj 203 -113 vsl 15 128 0 255 0 0 empty empty 5 0 -9 0 10 -260097
-1 -1 3937 0;
#X obj 223 -113 vsl 15 128 0 255 0 0 empty empty 6 0 -9 0 10 -260097
-1 -1 5715 1;
#X obj 244 -113 vsl 15 128 0 255 0 0 empty empty 7 0 -9 0 10 -260097
-1 -1 10033 1;
#X obj 290 -113 vsl 15 128 0 255 0 0 empty empty 8 0 -9 0 10 -260097
-1 -1 0 1;
#X msg 261 -114 32;
#X msg 261 -95 64;
#X msg 261 -76 96;
#X text 307 -76 pulse 100-0-100;
#X text 307 -97 pulse 100-0;
#X text 307 -115 pulse 0-100;
#X msg 261 -57 128;
#X text 308 -57 autofade;
#X msg 261 -38 160;
#X text 308 -39 autosnap 4col;
#X msg 261 -19 192;
#X text 308 -21 autosnap 15col;
#X msg 261 0 224;
#X text 308 -2 sound-active;
#X text 261 28 1 RED;
#X text 261 52 2 GREEN;
#X text 261 74 3 BLUE;
#X text 262 96 4 AMBER;
#X text 263 138 6 SPEED;
#X text 263 159 7 MODE;
#X text 262 116 5 CMACRO;
#X text 263 180 8 DIMM;
#X obj 290 -164 line;
#X msg 342 -303 255 500;
#X msg 343 -263 255 5000;
#X msg 343 -282 0 5000;
#X msg 342 -322 0 500;
#X msg 290 -321 stop;
#X msg 344 -241 0 10000;
#X msg 344 -222 255 10000;
#X msg 345 -181 255 100000;
#X msg 345 -200 0 100000;
#X obj 59 257 pack f f f f f f f f;
#X obj 47 66 t b f;
#X obj 63 88 t b f;
#X obj 81 110 t b f;
#X obj 98 131 t b f;
#X obj 115 152 t b f;
#X obj 132 173 t b f;
#X obj 149 195 t b f;
#X obj 32 43 t b f;
#X text 15 -319 8-ch uDMX continuous slider output;
#X obj 32 214 b;
#X obj 19 -297 inlet;
#X obj 28 -280 inlet;
#X obj 38 -263 inlet;
#X obj 48 -246 inlet;
#X obj 59 -229 inlet;
#X obj 70 -212 inlet;
#X obj 78 -195 inlet;
#X obj 86 -178 inlet;
#X obj 51 -89 tgl 15 0 empty empty empty 17 7 0 10 -262144 -1 -1 0
1;
#X obj 51 -67 select 0;
#X obj 98 -161 inlet;
#X text 51 -90 rebootz;
#X connect 1 0 0 0;
#X connect 2 0 0 0;
#X connect 3 0 59 0;
#X connect 4 0 52 0;
#X connect 5 0 53 0;
#X connect 6 0 54 0;
#X connect 7 0 55 0;
#X connect 8 0 56 0;
#X connect 9 0 57 0;
#X connect 10 0 58 0;
#X connect 11 0 3 0;
#X connect 12 0 4 0;
#X connect 13 0 5 0;
#X connect 14 0 6 0;
#X connect 15 0 7 0;
#X connect 16 0 8 0;
#X connect 17 0 9 0;
#X connect 18 0 10 0;
#X connect 19 0 17 0;
#X connect 20 0 17 0;
#X connect 21 0 17 0;
#X connect 25 0 17 0;
#X connect 27 0 17 0;
#X connect 29 0 17 0;
#X connect 31 0 17 0;
#X connect 41 0 18 0;
#X connect 42 0 41 0;
#X connect 43 0 41 0;
#X connect 44 0 41 0;
#X connect 45 0 41 0;
#X connect 46 0 41 0;
#X connect 47 0 41 0;
#X connect 48 0 41 0;
#X connect 49 0 41 0;
#X connect 50 0 41 0;
#X connect 51 0 0 0;
#X connect 52 0 61 0;
#X connect 52 1 51 1;
#X connect 53 0 61 0;
#X connect 53 1 51 2;
#X connect 54 0 61 0;
#X connect 54 1 51 3;
#X connect 55 0 61 0;
#X connect 55 1 51 4;
#X connect 56 0 61 0;
#X connect 56 1 51 5;
#X connect 57 0 61 0;
#X connect 57 1 51 6;
#X connect 58 0 61 0;
#X connect 58 1 51 7;
#X connect 59 0 61 0;
#X connect 59 1 51 0;
#X connect 61 0 51 0;
#X connect 62 0 11 0;
#X connect 63 0 12 0;
#X connect 64 0 13 0;
#X connect 65 0 14 0;
#X connect 66 0 15 0;
#X connect 67 0 16 0;
#X connect 68 0 17 0;
#X connect 69 0 18 0;
#X connect 70 0 71 0;
#X connect 71 0 1 0;
#X connect 71 1 2 0;
#X connect 72 0 70 0;
#X coords 0 -1 1 1 300 150 1 110 -130;
