#N canvas 461 23 881 712 10;
#X obj 32 427 uDMX;
#X msg 72 327 open;
#X msg 73 349 close;
#X obj 203 72 nbx 5 14 -1e+37 1e+37 0 0 empty empty empty 0 -8 0 10
-262144 -1 -1 40.1575 256;
#X obj 203 95 nbx 5 14 -1e+37 1e+37 0 0 empty empty empty 0 -8 0 10
-262144 -1 -1 0 256;
#X obj 204 117 nbx 5 14 -1e+37 1e+37 0 0 empty empty empty 0 -8 0 10
-262144 -1 -1 0 256;
#X obj 205 139 nbx 5 14 -1e+37 1e+37 0 0 empty empty empty 0 -8 0 10
-262144 -1 -1 0 256;
#X obj 205 160 nbx 5 14 -1e+37 1e+37 0 0 empty empty empty 0 -8 0 10
-262144 -1 -1 0 256;
#X obj 205 181 nbx 5 14 -1e+37 1e+37 0 0 empty empty empty 0 -8 0 10
-262144 -1 -1 0 256;
#X obj 205 202 nbx 5 14 -1e+37 1e+37 0 0 empty empty empty 0 -8 0 10
-262144 -1 -1 0 256;
#X obj 205 224 nbx 5 14 -1e+37 1e+37 0 0 empty empty empty 0 -8 0 10
-262144 -1 -1 0 256;
#X obj 122 -70 vsl 15 128 0 255 0 0 empty empty 1 0 -9 0 10 -260097
-1 -1 2000 1;
#X obj 142 -70 vsl 15 128 0 255 0 0 empty empty 2 0 -9 0 10 -260097
-1 -1 0 1;
#X obj 162 -70 vsl 15 128 0 255 0 0 empty empty 3 0 -9 0 10 -260097
-1 -1 0 1;
#X obj 183 -70 vsl 15 128 0 255 0 0 empty empty 4 0 -9 0 10 -260097
-1 -1 0 1;
#X obj 203 -70 vsl 15 128 0 255 0 0 empty empty 5 0 -9 0 10 -260097
-1 -1 0 0;
#X obj 223 -70 vsl 15 128 0 255 0 0 empty empty 6 0 -9 0 10 -260097
-1 -1 0 1;
#X obj 244 -70 vsl 15 128 0 255 0 0 empty empty 7 0 -9 0 10 -260097
-1 -1 0 1;
#X obj 290 -70 vsl 15 128 0 255 0 0 empty empty 8 0 -9 0 10 -260097
-1 -1 0 1;
#X msg 261 -71 32;
#X msg 261 -52 64;
#X msg 261 -33 96;
#X text 307 -33 pulse 100-0-100;
#X text 307 -54 pulse 100-0;
#X text 307 -72 pulse 0-100;
#X msg 261 -14 128;
#X text 308 -14 autofade;
#X msg 261 5 160;
#X text 308 4 autosnap 4col;
#X msg 261 24 192;
#X text 308 22 autosnap 15col;
#X msg 261 43 224;
#X text 308 41 sound-active;
#X text 261 71 1 RED;
#X text 261 95 2 GREEN;
#X text 261 117 3 BLUE;
#X text 262 139 4 AMBER;
#X text 263 181 6 SPEED;
#X text 263 202 7 MODE;
#X text 262 159 5 CMACRO;
#X text 263 223 8 DIMM;
#X obj 290 -164 line;
#X msg 342 -303 255 500;
#X msg 343 -263 255 5000;
#X msg 343 -282 0 5000;
#X msg 342 -322 0 500;
#X msg 290 -321 stop;
#X msg 344 -241 0 10000;
#X msg 344 -222 255 10000;
#X msg 345 -181 255 100000;
#X msg 345 -200 0 100000;
#X obj 59 300 pack f f f f f f f f;
#X obj 47 109 t b f;
#X obj 63 131 t b f;
#X obj 81 153 t b f;
#X obj 98 174 t b f;
#X obj 115 195 t b f;
#X obj 132 216 t b f;
#X obj 149 238 t b f;
#X obj 32 86 t b f;
#X text 15 -319 8-ch uDMX continuous slider output;
#X obj 32 257 b;
#X obj 19 -297 inlet;
#X obj 28 -280 inlet;
#X obj 38 -263 inlet;
#X obj 48 -246 inlet;
#X obj 59 -229 inlet;
#X obj 70 -212 inlet;
#X obj 78 -195 inlet;
#X obj 86 -178 inlet;
#X obj 121 -102 tgl 15 0 empty empty empty 17 7 0 10 -262144 -1 -1
0 1;
#X obj 51 -24 select 0;
#X obj 98 -161 inlet;
#X text 121 -103 rebootz;
#X text 112 -117 1;
#X text 145 -114 2;
#X text 177 -116 3;
#X text 210 -115 4;
#X text 252 -115 5;
#X text 287 -118 6;
#X text 323 -120 7;
#X text 361 -120 8;
#X text 396 -121 9;
#X obj 97 376 loadbang;
#X text 374 -97 CH 0;
#X msg 97 406 0;
#X text 125 408 global channel (default);
#X connect 1 0 0 0;
#X connect 2 0 0 0;
#X connect 3 0 59 0;
#X connect 4 0 52 0;
#X connect 5 0 53 0;
#X connect 6 0 54 0;
#X connect 7 0 55 0;
#X connect 8 0 56 0;
#X connect 9 0 57 0;
#X connect 10 0 58 0;
#X connect 11 0 3 0;
#X connect 12 0 4 0;
#X connect 13 0 5 0;
#X connect 14 0 6 0;
#X connect 15 0 7 0;
#X connect 16 0 8 0;
#X connect 17 0 9 0;
#X connect 18 0 10 0;
#X connect 19 0 17 0;
#X connect 20 0 17 0;
#X connect 21 0 17 0;
#X connect 25 0 17 0;
#X connect 27 0 17 0;
#X connect 29 0 17 0;
#X connect 31 0 17 0;
#X connect 41 0 18 0;
#X connect 42 0 41 0;
#X connect 43 0 41 0;
#X connect 44 0 41 0;
#X connect 45 0 41 0;
#X connect 46 0 41 0;
#X connect 47 0 41 0;
#X connect 48 0 41 0;
#X connect 49 0 41 0;
#X connect 50 0 41 0;
#X connect 51 0 0 0;
#X connect 52 0 61 0;
#X connect 52 1 51 1;
#X connect 53 0 61 0;
#X connect 53 1 51 2;
#X connect 54 0 61 0;
#X connect 54 1 51 3;
#X connect 55 0 61 0;
#X connect 55 1 51 4;
#X connect 56 0 61 0;
#X connect 56 1 51 5;
#X connect 57 0 61 0;
#X connect 57 1 51 6;
#X connect 58 0 61 0;
#X connect 58 1 51 7;
#X connect 59 0 61 0;
#X connect 59 1 51 0;
#X connect 61 0 51 0;
#X connect 62 0 11 0;
#X connect 63 0 12 0;
#X connect 64 0 13 0;
#X connect 65 0 14 0;
#X connect 66 0 15 0;
#X connect 67 0 16 0;
#X connect 68 0 17 0;
#X connect 69 0 18 0;
#X connect 70 0 71 0;
#X connect 71 0 1 0;
#X connect 71 1 2 0;
#X connect 72 0 70 0;
#X connect 83 0 85 0;
#X connect 85 0 0 1;
#X coords 0 -1 1 1 300 200 1 110 -130;
