#N canvas 252 22 716 612 10;
#N canvas 0 22 450 300 (subpatch) 0;
#X array syn 100 float 3;
#A 0 1.481 1.48969 1.49838 1.50707 1.51576 1.52444 1.53313 1.54182
1.55051 1.5592 1.56789 1.57658 1.58527 1.59396 1.60265 1.61134 1.62003
1.62872 1.63741 1.6461 1.65479 1.66348 1.67217 0.757656 0.766345 0.775035
0.783725 0.792414 0.801104 0.809794 0.818483 0.827173 0.835863 0.844553
0.853242 0.861932 0.870622 0.879311 0.888001 0.896691 0.90538 0.91407
0.92276 0.93145 0.940139 0.948829 0.957519 0.966208 0.974898 0.983588
0.992277 1.00097 1.00966 1.01835 1.02704 1.03573 1.04442 1.05311 1.06179
1.07048 1.07917 1.08786 1.09655 1.10524 1.11393 1.12262 1.13131 1.14
1.14869 1.15738 1.16607 1.17476 1.18345 1.19214 1.20083 1.20952 1.21821
1.2269 1.23559 1.24428 1.25297 1.26166 1.27035 1.27904 1.28773 1.29642
1.30511 1.3138 1.32249 1.33118 1.33987 1.34855 1.35724 1.36593 1.37462
1.38331 1.392 1.40069 1.40938 1.41807;
#X coords 0 1 100 -1 200 140 1;
#X restore 464 246 graph;
#X obj 463 56 mtof;
#X obj 583 56 mtof;
#X obj 584 181 tabwrite~ syn;
#X obj 584 156 metro 100;
#X obj 584 131 tgl 15 0 empty empty empty 17 7 0 10 -262144 -1 -1 1
1;
#X obj 463 91 osc~;
#X obj 583 91 phasor~;
#X obj 7 -209 tgl 15 0 empty empty empty 17 7 0 10 -262144 -1 -1 1
1;
#X obj 34 -209 nbx 5 14 -1e+37 1e+37 0 0 empty empty empty 0 -8 0 10
-262144 -1 -1 396 256;
#X obj 8 -152 f;
#X obj 42 -152 + 1;
#X obj 8 -98 hradio 16 1 0 8 empty empty empty 0 -8 0 10 -262144 -1
-1 3;
#X obj 269 19 vsl 15 128 0 127 0 0 empty empty empty 0 -9 0 10 -262144
-1 -1 4800 1;
#X obj 8 -72 select 0 1 2 3 4 5 6 7;
#X obj 290 19 vsl 15 128 0 127 0 0 empty empty empty 0 -9 0 10 -262144
-1 -1 4800 1;
#X obj 330 19 vsl 15 128 0 127 0 0 empty empty empty 0 -9 0 10 -262144
-1 -1 6000 1;
#X obj 371 19 vsl 15 128 0 127 0 0 empty empty empty 0 -9 0 10 -262144
-1 -1 0 1;
#X obj 411 19 vsl 15 128 0 127 0 0 empty empty empty 0 -9 0 10 -262144
-1 -1 0 1;
#X obj 8 -125 mod 8;
#X msg 531 74 0;
#X obj 531 -11 bng 15 250 50 0 empty empty empty 17 7 0 10 -262144
-1 -1;
#X obj 529 -152 tgl 15 0 empty empty empty 17 7 0 10 -262144 -1 -1
0 1;
#X obj 580 -152 nbx 5 14 -1e+37 1e+37 0 0 empty empty empty 0 -8 0
10 -262144 -1 -1 299 256;
#X obj 463 150 -~ 0.25;
#X obj 8 150 f;
#X obj 24 175 f;
#X obj 56 231 f;
#X obj 87 283 f;
#X obj 119 331 f;
#X obj 463 210 dac~;
#X obj 108 -183 hsl 50 10 0 8 0 0 empty empty empty -2 -8 0 10 -262144
-1 -1 4900 1;
#X obj 600 114 loadbang;
#X obj 198 -27 delay 1000;
#X obj 258 -114 hsl 128 15 0 1000 0 0 empty empty empty -2 -8 0 10
-262144 -1 -1 6300 1;
#X obj 8 -45 t b b b;
#X obj 24 -20 t b b b;
#X obj 56 27 t b b b;
#X obj 88 75 t b b b;
#X obj 122 117 t b b b;
#X obj 310 19 vsl 15 128 0 127 0 0 empty empty empty 0 -9 0 10 -262144
-1 -1 6000 1;
#X obj 350 19 vsl 15 128 0 127 0 0 empty empty empty 0 -9 0 10 -262144
-1 -1 6800 1;
#X obj 391 19 vsl 15 128 0 127 0 0 empty empty empty 0 -9 0 10 -262144
-1 -1 0 1;
#X obj 40 3 t b b b;
#X obj 72 51 t b b b;
#X obj 104 95 t b b b;
#X obj 40 205 f;
#X obj 72 256 f;
#X obj 104 304 f;
#X obj 584 -9 hsl 128 15 0 256 0 0 empty empty empty -2 -8 0 10 -262144
-1 -1 2977 1;
#X obj 170 -50 s \$0-twobang;
#X obj 581 -50 r \$0-twobang;
#X obj 7 -184 metro 120;
#X obj 529 -121 metro 160;
#X obj 303 -84 hsl 128 15 0 10000 0 0 empty empty empty -2 -8 0 10
-262144 -1 -1 3900 1;
#X obj 509 52 pipe 10;
#X obj 463 123 expr~ $v1 > $v2;
#X obj 5 330 s \$1-main-pitch;
#X obj 463 26 r \$1-main-pitch;
#X obj 592 -30 spigot;
#X obj 637 -29 tgl 15 0 empty empty empty 17 7 0 10 -262144 -1 -1 1
1;
#X obj 401 -189 phasor~;
#X obj 477 -183 mtof;
#X obj 480 -208 hsl 128 15 0 256 0 0 empty empty empty -2 -8 0 10 -262144
-1 -1 2977 1;
#X obj 438 -128 *~;
#X connect 1 0 6 0;
#X connect 2 0 7 0;
#X connect 4 0 3 0;
#X connect 5 0 4 0;
#X connect 6 0 56 0;
#X connect 6 0 64 1;
#X connect 7 0 56 1;
#X connect 8 0 52 0;
#X connect 9 0 52 1;
#X connect 10 0 11 0;
#X connect 10 0 19 0;
#X connect 11 0 10 1;
#X connect 12 0 14 0;
#X connect 13 0 25 1;
#X connect 14 0 35 0;
#X connect 14 1 36 0;
#X connect 14 2 43 0;
#X connect 14 3 37 0;
#X connect 14 4 44 0;
#X connect 14 5 38 0;
#X connect 14 6 45 0;
#X connect 14 7 39 0;
#X connect 15 0 26 1;
#X connect 16 0 27 1;
#X connect 17 0 28 1;
#X connect 18 0 29 1;
#X connect 19 0 12 0;
#X connect 20 0 6 0;
#X connect 20 0 7 0;
#X connect 21 0 20 0;
#X connect 22 0 53 0;
#X connect 23 0 53 1;
#X connect 24 0 3 0;
#X connect 24 0 30 0;
#X connect 24 0 30 1;
#X connect 25 0 57 0;
#X connect 26 0 57 0;
#X connect 27 0 57 0;
#X connect 28 0 57 0;
#X connect 29 0 57 0;
#X connect 31 0 19 1;
#X connect 32 0 5 0;
#X connect 33 0 21 0;
#X connect 34 0 33 1;
#X connect 35 0 25 0;
#X connect 35 1 50 0;
#X connect 35 2 33 0;
#X connect 36 0 26 0;
#X connect 36 1 50 0;
#X connect 36 2 33 0;
#X connect 37 0 27 0;
#X connect 37 1 50 0;
#X connect 37 2 33 0;
#X connect 38 0 28 0;
#X connect 38 1 50 0;
#X connect 38 2 33 0;
#X connect 39 0 29 0;
#X connect 39 1 50 0;
#X connect 39 2 33 0;
#X connect 40 0 46 1;
#X connect 41 0 47 1;
#X connect 42 0 48 1;
#X connect 43 0 46 0;
#X connect 43 1 50 0;
#X connect 44 0 47 0;
#X connect 44 1 50 0;
#X connect 45 0 48 0;
#X connect 45 1 50 0;
#X connect 46 0 57 0;
#X connect 47 0 57 0;
#X connect 48 0 57 0;
#X connect 49 0 2 0;
#X connect 51 0 49 0;
#X connect 52 0 10 0;
#X connect 53 0 21 0;
#X connect 54 0 55 1;
#X connect 55 0 59 0;
#X connect 56 0 24 0;
#X connect 58 0 1 0;
#X connect 58 0 55 0;
#X connect 59 0 49 0;
#X connect 59 0 63 0;
#X connect 60 0 59 1;
#X connect 61 0 64 0;
#X connect 62 0 61 0;
#X connect 63 0 62 0;
#X connect 64 0 24 0;
