#N canvas 8 29 902 636 10;
#N canvas 191 23 1013 703 time_stepper 0;
#X obj -433 179 metro;
#X obj -433 203 f;
#X obj -399 203 + 1;
#X obj -432 302 f;
#X obj 420 833 mtof;
#X obj 420 924 phasor~;
#X obj 421 1137 dac~;
#X obj 421 1059 bp~ 250 8;
#X obj -451 2119 outlet;
#X obj -374 140 range 0 100 0 1000;
#X text 419 809 AUDIO OUT;
#X obj -433 147 != 0;
#X obj 144 104 vradio 15 1 0 10 empty empty empty 0 -8 0 10 -260097
-1 -1 6;
#X text -434 100 1 [ONE];
#X obj 144 379 tgl 15 0 empty empty empty 17 7 0 10 -260097 -1 -1 0
127;
#X obj -451 2073 pack f f f f f f f f f f f f f f f f;
#X obj 421 1683 counter;
#X msg 551 1526 0;
#X msg 561 1545 1;
#X msg 570 1565 2;
#X text 493 1609 counter direction;
#X text 516 1621 0 = up;
#X text 516 1633 1 = down;
#X text 516 1645 2 = up and down;
#X floatatom 481 1667 5 0 0 0 - - -, f 5;
#X floatatom 489 1684 5 0 0 0 - - -, f 5;
#X floatatom 494 1702 5 0 0 0 - - -, f 5;
#X text 529 1703 set max;
#X msg 411 1601 up;
#X msg 421 1624 down;
#X msg 442 1643 updown;
#X text 416 1583 direction:;
#X msg 512 1553 inc;
#X msg 478 1554 dec;
#X text 413 1525 inc/decrement doesn't;
#X text 413 1536 care about direction;
#X text 518 1665 set min **;
#X obj 347 1702 hradio 15 1 0 9 empty empty empty 0 -6 0 8 -260097
-1 -1 0;
#X obj 407 1718 bng 15 250 50 0 empty empty empty 17 7 0 10 -262144
-1 -1;
#X obj 377 1718 bng 15 250 50 0 empty empty empty 17 7 0 10 -262144
-1 -1;
#X obj 393 1718 bng 15 250 50 0 empty empty empty 17 7 0 10 -262144
-1 -1;
#X obj 452 1718 bng 15 250 50 0 empty empty empty 17 7 0 10 -262144
-1 -1;
#X obj 467 1718 bng 15 250 50 0 empty empty empty 17 7 0 10 -262144
-1 -1;
#X obj 423 1718 bng 15 250 50 0 empty empty empty 17 7 0 10 -262144
-1 -1;
#X obj 437 1718 bng 15 250 50 0 empty empty empty 17 7 0 10 -262144
-1 -1;
#X obj 361 1718 bng 15 250 50 0 empty empty empty 17 7 0 10 -262144
-1 -1;
#X obj 347 1679 + 1;
#X obj 290 1700 gate 8;
#X obj 279 1668 bng 15 250 50 0 empty empty empty 17 7 0 10 -262144
-1 -1;
#X obj 144 364 bng 15 250 50 0 empty empty empty 17 7 0 10 -257985
-1 -1;
#X obj -433 226 mod 10;
#X obj -433 250 range 0 10 0 100;
#X obj -432 275 select 0 1 2 3 4 5 6 7 8 9;
#X obj 273 729 spigot;
#X obj 273 704 bng 15 250 50 0 empty empty empty 17 7 0 10 -262144
-1 -1;
#X obj 273 762 bng 15 250 50 0 empty empty empty 17 7 0 10 -262144
-1 -1;
#X obj 306 704 tgl 15 0 empty empty empty 17 7 0 10 -262144 -1 -1 0
1;
#X obj 273 645 tgl 15 0 empty empty empty 17 7 0 10 -262144 -1 -1 0
1;
#X obj 272 672 metro;
#X obj -393 429 metro;
#X obj -393 453 f;
#X obj -359 453 + 1;
#X obj -392 552 f;
#X obj -393 370 range 0 100 0 1000;
#X obj -393 397 != 0;
#X obj 159 104 vradio 15 1 0 10 empty empty empty 0 -8 0 10 -260097
-1 -1 7;
#X obj 158 379 tgl 15 0 empty empty empty 17 7 0 10 -260097 -1 -1 0
127;
#X obj 158 364 bng 15 250 50 0 empty empty empty 17 7 0 10 -257985
-1 -1;
#X obj -393 476 mod 10;
#X obj -393 500 range 0 10 0 100;
#X obj -392 525 select 0 1 2 3 4 5 6 7 8 9;
#X obj -323 679 metro;
#X obj -323 703 f;
#X obj -289 703 + 1;
#X obj -322 802 f;
#X obj -323 620 range 0 100 0 1000;
#X obj -323 647 != 0;
#X obj 174 104 vradio 15 1 0 10 empty empty empty 0 -8 0 10 -260097
-1 -1 0;
#X obj 173 379 tgl 15 0 empty empty empty 17 7 0 10 -260097 -1 -1 0
127;
#X obj 173 364 bng 15 250 50 0 empty empty empty 17 7 0 10 -257985
-1 -1;
#X obj -323 726 mod 10;
#X obj -323 750 range 0 10 0 100;
#X obj -322 775 select 0 1 2 3 4 5 6 7 8 9;
#X obj -283 924 metro;
#X obj -283 948 f;
#X obj -249 948 + 1;
#X obj -282 1047 f;
#X obj -283 865 range 0 100 0 1000;
#X obj -283 892 != 0;
#X obj 189 104 vradio 15 1 0 10 empty empty empty 0 -8 0 10 -260097
-1 -1 8;
#X obj 189 379 tgl 15 0 empty empty empty 17 7 0 10 -260097 -1 -1 0
127;
#X obj 189 364 bng 15 250 50 0 empty empty empty 17 7 0 10 -257985
-1 -1;
#X obj -283 971 mod 10;
#X obj -283 995 range 0 10 0 100;
#X obj -282 1020 select 0 1 2 3 4 5 6 7 8 9;
#X obj -253 1168 metro;
#X obj -253 1192 f;
#X obj -219 1192 + 1;
#X obj -252 1291 f;
#X obj -253 1109 range 0 100 0 1000;
#X obj -253 1136 != 0;
#X obj 204 104 vradio 15 1 0 10 empty empty empty 0 -8 0 10 -260097
-1 -1 6;
#X obj 204 379 tgl 15 0 empty empty empty 17 7 0 10 -260097 -1 -1 0
127;
#X obj 204 364 bng 15 250 50 0 empty empty empty 17 7 0 10 -257985
-1 -1;
#X obj -253 1215 mod 10;
#X obj -253 1239 range 0 10 0 100;
#X obj -252 1264 select 0 1 2 3 4 5 6 7 8 9;
#X obj -203 1418 metro;
#X obj -203 1442 f;
#X obj -169 1442 + 1;
#X obj -202 1541 f;
#X obj -203 1359 range 0 100 0 1000;
#X obj -203 1386 != 0;
#X obj 219 104 vradio 15 1 0 10 empty empty empty 0 -8 0 10 -260097
-1 -1 4;
#X obj 219 379 tgl 15 0 empty empty empty 17 7 0 10 -260097 -1 -1 0
127;
#X obj 219 364 bng 15 250 50 0 empty empty empty 17 7 0 10 -257985
-1 -1;
#X obj -203 1465 mod 10;
#X obj -203 1489 range 0 10 0 100;
#X obj -202 1514 select 0 1 2 3 4 5 6 7 8 9;
#X obj -163 1664 metro;
#X obj -163 1688 f;
#X obj -129 1688 + 1;
#X obj -162 1787 f;
#X obj -163 1605 range 0 100 0 1000;
#X obj -163 1632 != 0;
#X obj 234 104 vradio 15 1 0 10 empty empty empty 0 -8 0 10 -260097
-1 -1 5;
#X obj 234 379 tgl 15 0 empty empty empty 17 7 0 10 -260097 -1 -1 0
127;
#X obj 234 364 bng 15 250 50 0 empty empty empty 17 7 0 10 -257985
-1 -1;
#X obj -163 1711 mod 10;
#X obj -163 1735 range 0 10 0 100;
#X obj -162 1760 select 0 1 2 3 4 5 6 7 8 9;
#X obj -123 1904 metro;
#X obj -123 1928 f;
#X obj -89 1928 + 1;
#X obj -122 2027 f;
#X obj -123 1845 range 0 100 0 1000;
#X obj -123 1872 != 0;
#X obj 249 104 vradio 15 1 0 10 empty empty empty 0 -8 0 10 -260097
-1 -1 4;
#X obj 249 379 tgl 15 0 empty empty empty 17 7 0 10 -260097 -1 -1 0
127;
#X obj 249 364 bng 15 250 50 0 empty empty empty 17 7 0 10 -257985
-1 -1;
#X obj -123 1951 mod 10;
#X obj -123 1975 range 0 10 0 100;
#X obj -122 2000 select 0 1 2 3 4 5 6 7 8 9;
#X obj 144 256 vsl 15 50 0 100 0 0 empty empty empty 0 -9 0 10 -257985
-1 -1 2000 1;
#X obj 159 256 vsl 15 50 0 100 0 0 empty empty empty 0 -9 0 10 -257985
-1 -1 2119 1;
#X obj 174 256 vsl 15 50 0 100 0 0 empty empty empty 0 -9 0 10 -257985
-1 -1 2700 1;
#X obj 190 256 vsl 15 50 0 100 0 0 empty empty empty 0 -9 0 10 -257985
-1 -1 3800 1;
#X obj 205 256 vsl 15 50 0 100 0 0 empty empty empty 0 -9 0 10 -257985
-1 -1 3000 1;
#X obj 219 256 vsl 15 50 0 100 0 0 empty empty empty 0 -9 0 10 -257985
-1 -1 3000 1;
#X obj 235 256 vsl 15 50 0 100 0 0 empty empty empty 0 -9 0 10 -257985
-1 -1 2700 1;
#X obj 249 256 vsl 15 50 0 100 0 0 empty empty empty 0 -9 0 10 -257985
-1 -1 3200 1;
#X obj 144 311 vsl 15 50 0 100 0 0 empty empty empty 0 -9 0 10 -260097
-1 -1 64 1;
#X obj 159 311 vsl 15 50 0 100 0 0 empty empty empty 0 -9 0 10 -260097
-1 -1 91 1;
#X obj 174 311 vsl 15 50 0 100 0 0 empty empty empty 0 -9 0 10 -260097
-1 -1 189 1;
#X obj 189 311 vsl 15 50 0 100 0 0 empty empty empty 0 -9 0 10 -260097
-1 -1 300 1;
#X obj 204 311 vsl 15 50 0 100 0 0 empty empty empty 0 -9 0 10 -260097
-1 -1 500 1;
#X obj 219 311 vsl 15 50 0 100 0 0 empty empty empty 0 -9 0 10 -260097
-1 -1 1100 1;
#X obj 234 311 vsl 15 50 0 100 0 0 empty empty empty 0 -9 0 10 -260097
-1 -1 300 1;
#X obj 249 311 vsl 15 50 0 100 0 0 empty empty empty 0 -9 0 10 -260097
-1 -1 400 1;
#X obj 529 1594 loadbang;
#X obj 411 1566 loadbang;
#X msg 494 1594 7;
#X text 547 -61 yello sliderz;
#X text 648 -31 orange toggz;
#X text -394 350 2 [TWO];
#X text -324 600 3 [THREE];
#X text -284 845 4 [FOUR];
#X text -254 1089 5 [FIVE];
#X text -204 1339 6 [SIX];
#X text -164 1585 7 [SEVEN];
#X text -124 1825 8 [EIGHT];
#X msg 299 644 666;
#X text 132 315 r;
#X text 132 335 t;
#X text 132 324 a;
#X text 132 345 e;
#X text 132 252 p;
#X text 132 274 t;
#X text 132 264 i;
#X text 132 283 c;
#X text 132 294 h;
#X text 272 427 2-axis sequencer \, top horizontial section moves +1
every time a vertical radio array gets done. each vradio can have an
independently controlled metro time AND keep the global step sequencer
going because when each one reaches their last step they bang the "gate
punch". the white toggz can run one column of the vradio sequence at
once. this is connected to a midi note and controller toggle button.
;
#X text 274 534 ISSUES:;
#X text 276 549 * only one counter direction \, up \, is working at
the moment. possibly a spigot for the enumeration of directions to
control the next vradio sequence to get banged.;
#X text -612 -104 TIME_STEPPER;
#X text 646 -46 1 2 3 4 5 6 7 8;
#X text 647 -15 1 2 3 4 5 6 7 8;
#X text -422 2091 1 2 3 4 5 6 7 8;
#X text -326 2091 1 2 3 4 5 6 7 8;
#X text 271 607 basic concept: listen to a metro \, or not.;
#X text -453 203 |;
#X text -453 179 |;
#X text -453 216 |;
#X text -453 228 |;
#X text -453 241 |;
#X text -453 253 |;
#X text -453 266 |;
#X text -453 279 |;
#X text -453 292 |;
#X text -453 128 |;
#X text -453 141 |;
#X text -453 153 |;
#X text -453 166 |;
#X text -453 114 |;
#X text -451 101 /;
#X text -453 304 |;
#X text -453 316 |..;
#X text 113 381 lock;
#X text 111 103 TIME;
#X text 278 1653 ##;
#X text 270 1631 GATE;
#X text 268 1643 PUNCH;
#X obj 101 365 bng 15 250 50 0 empty empty tgg -1 -5 0 10 -257985 -1
-1;
#X text 273 407 #TODO reimpelment the 2nd axis?;
#X text 287 165 here is a 8-bay variable-rate step sequencer.;
#X text 274 302 change the pitch! change the rate! wow!;
#X text 272 103 click the top row and trigger the note.;
#X text -613 -79 f-dt.com;
#X text -612 -92 edwardsharp.net;
#X text -612 -66 2012 creative commons;
#X text 526 1682 set counter val;
#X obj 234 1523 select 0 1 2 3 4 5 6 7 8 9;
#X obj 371 1546 spigot;
#X obj 371 1566 t b b;
#X text 257 1569 FOR EACH CHANNEL;
#X text 230 1505 ___________________________@"UNUSED"________________________
;
#X text 547 -46 1 2 3 4 5 6 7 8;
#X text 546 -15 1 2 3 4 5 6 7 8;
#X text 547 -28 orange sliderz;
#X text 258 1557 and TOGGLE (t b b);
#X text 259 1544 A SELECT and SPIGOT;
#X text 646 -62 yellow toggz;
#X obj -223 -1136 bng 15 250 50 0 empty empty empty 17 7 0 10 -262144
-1 -1;
#X obj -118 -206 bng 20 100 50 0 rHit_P1_00 sHit_P1_00 HIT 0 -10 0
10 -260097 -257985 -1;
#X obj -98 -206 tgl 20 0 rHld_P1_00 sHld_P1_00 HLD 0 -10 0 10 -260097
-257985 -1 0 127;
#X obj -115 -401 knob 30 30 0 100 0 0 rTmr_P1_00 sTmr_P1_00 TMR 0 -8
192 8 -260097 -1 -1 145 1;
#X obj -113 -304 knob 30 30 0 100 0 0 rBal_P1_00 sBal_P1_00 BAL 0 -8
192 8 -260097 -1 -1 0 1;
#X obj -113 -257 knob 30 30 0 100 0 0 rPls_P1_00 sPls_P1_00 PLS 0 -8
192 6 -260097 -1 -1 0 1;
#X obj -113 -124 knob 30 30 0 100 0 0 rSpd_P1_00 sSpd_P1_00 SPD 0 -8
192 8 -260097 -1 -1 1160 1;
#X obj -111 -75 knob 30 30 0 100 0 0 rFgt_P1_00 sFgt_P1_00 FGT 0 -8
192 8 -260097 -1 -1 377 1;
#X obj -114 -170 knob 30 30 0 100 0 0 rBgt_P1_00 sBgt_P1_00 BGT 0 -8
192 8 -260097 -1 -1 1450 1;
#X floatatom -224 -765 5 0 0 0 - - -, f 5;
#X floatatom -5 -711 5 0 0 0 - - -, f 5;
#X floatatom -10 -633 5 0 0 0 - - -, f 5;
#X floatatom -11 -558 5 0 0 0 - - -, f 5;
#X obj -5 -685 s shld00;
#X obj -16 -763 s shit00;
#X obj -20 -607 s sfgate00;
#X obj -21 -532 s sbgate00;
#X obj -14 -941 ctlin 9 2;
#X obj -15 -909 ctlin 17 2;
#X obj -15 -738 ctlin 73 2;
#X obj -20 -660 ctlin 81 2;
#X obj -21 -585 ctlin 89 2;
#X floatatom -11 -478 5 0 0 0 - - -, f 5;
#X obj -21 -452 s sbgate00;
#X obj -21 -505 ctlin 97 2;
#X obj -115 -353 knob 30 30 0 100 0 0 rVol_P1_00 sVol_P1_00 VOL 0 -8
192 6 -260097 -1 -1 0 1;
#X obj -16 -874 ctlin 25 2;
#X obj -48 -206 bng 20 100 50 0 rHit_P1_00 sHit_P1_00 HIT 0 -10 0 10
-260097 -257985 -1;
#X obj -28 -206 tgl 20 0 rHld_P1_00 sHld_P1_00 HLD 0 -10 0 10 -260097
-257985 -1 0 127;
#X obj -45 -401 knob 30 30 0 100 0 0 rTmr_P1_00 sTmr_P1_00 TMR 0 -8
192 8 -260097 -1 -1 87 1;
#X obj -43 -304 knob 30 30 0 100 0 0 rBal_P1_00 sBal_P1_00 BAL 0 -8
192 8 -260097 -1 -1 0 1;
#X obj -43 -257 knob 30 30 0 100 0 0 rPls_P1_00 sPls_P1_00 PLS 0 -8
192 6 -260097 -1 -1 0 1;
#X obj -43 -124 knob 30 30 0 100 0 0 rSpd_P1_00 sSpd_P1_00 SPD 0 -8
192 8 -260097 -1 -1 1189 1;
#X obj -41 -75 knob 30 30 0 100 0 0 rFgt_P1_00 sFgt_P1_00 FGT 0 -8
192 8 -260097 -1 -1 232 1;
#X obj -44 -170 knob 30 30 0 100 0 0 rBgt_P1_00 sBgt_P1_00 BGT 0 -8
192 8 -260097 -1 -1 0 1;
#X floatatom 65 -711 5 0 0 0 - - -, f 5;
#X floatatom 60 -633 5 0 0 0 - - -, f 5;
#X floatatom 59 -558 5 0 0 0 - - -, f 5;
#X obj 65 -685 s shld00;
#X obj 54 -763 s shit00;
#X obj 50 -607 s sfgate00;
#X obj 49 -532 s sbgate00;
#X floatatom 59 -478 5 0 0 0 - - -, f 5;
#X obj 49 -452 s sbgate00;
#X obj -45 -353 knob 30 30 0 100 0 0 rVol_P1_00 sVol_P1_00 VOL 0 -8
192 6 -260097 -1 -1 0 1;
#X obj 54 -816 notein 2;
#X obj 22 -206 bng 20 100 50 0 rHit_P1_00 sHit_P1_00 HIT 0 -10 0 10
-260097 -257985 -1;
#X obj 42 -206 tgl 20 0 rHld_P1_00 sHld_P1_00 HLD 0 -10 0 10 -260097
-257985 -1 0 127;
#X obj 25 -401 knob 30 30 0 100 0 0 rTmr_P1_00 sTmr_P1_00 TMR 0 -8
192 8 -260097 -1 -1 261 1;
#X obj 27 -304 knob 30 30 0 100 0 0 rBal_P1_00 sBal_P1_00 BAL 0 -8
192 8 -260097 -1 -1 0 1;
#X obj 27 -257 knob 30 30 0 100 0 0 rPls_P1_00 sPls_P1_00 PLS 0 -8
192 6 -260097 -1 -1 0 1;
#X obj 27 -124 knob 30 30 0 100 0 0 rSpd_P1_00 sSpd_P1_00 SPD 0 -8
192 8 -260097 -1 -1 2842 1;
#X obj 29 -75 knob 30 30 0 100 0 0 rFgt_P1_00 sFgt_P1_00 FGT 0 -8 192
8 -260097 -1 -1 696 1;
#X obj 26 -170 knob 30 30 0 100 0 0 rBgt_P1_00 sBgt_P1_00 BGT 0 -8
192 8 -260097 -1 -1 0 1;
#X floatatom 135 -711 5 0 0 0 - - -, f 5;
#X floatatom 130 -633 5 0 0 0 - - -, f 5;
#X floatatom 129 -558 5 0 0 0 - - -, f 5;
#X obj 135 -685 s shld00;
#X obj 124 -763 s shit00;
#X obj 120 -607 s sfgate00;
#X obj 119 -532 s sbgate00;
#X floatatom 129 -478 5 0 0 0 - - -, f 5;
#X obj 119 -452 s sbgate00;
#X obj 25 -353 knob 30 30 0 100 0 0 rVol_P1_00 sVol_P1_00 VOL 0 -8
192 6 -260097 -1 -1 0 1;
#X obj 124 -816 notein 2;
#X obj 92 -206 bng 20 100 50 0 rHit_P1_00 sHit_P1_00 HIT 0 -10 0 10
-260097 -257985 -1;
#X obj 112 -206 tgl 20 0 rHld_P1_00 sHld_P1_00 HLD 0 -10 0 10 -260097
-257985 -1 0 127;
#X obj 95 -401 knob 30 30 0 100 0 0 rTmr_P1_00 sTmr_P1_00 TMR 0 -8
192 8 -260097 -1 -1 29 1;
#X obj 97 -304 knob 30 30 0 100 0 0 rBal_P1_00 sBal_P1_00 BAL 0 -8
192 8 -260097 -1 -1 0 1;
#X obj 97 -257 knob 30 30 0 100 0 0 rPls_P1_00 sPls_P1_00 PLS 0 -8
192 6 -260097 -1 -1 0 1;
#X obj 97 -124 knob 30 30 0 100 0 0 rSpd_P1_00 sSpd_P1_00 SPD 0 -8
192 8 -260097 -1 -1 2900 1;
#X obj 99 -75 knob 30 30 0 100 0 0 rFgt_P1_00 sFgt_P1_00 FGT 0 -8 192
8 -260097 -1 -1 1073 1;
#X obj 96 -170 knob 30 30 0 100 0 0 rBgt_P1_00 sBgt_P1_00 BGT 0 -8
192 8 -260097 -1 -1 0 1;
#X floatatom 205 -711 5 0 0 0 - - -, f 5;
#X floatatom 200 -633 5 0 0 0 - - -, f 5;
#X floatatom 199 -558 5 0 0 0 - - -, f 5;
#X obj 205 -685 s shld00;
#X obj 194 -763 s shit00;
#X obj 190 -607 s sfgate00;
#X obj 189 -532 s sbgate00;
#X floatatom 199 -478 5 0 0 0 - - -, f 5;
#X obj 189 -452 s sbgate00;
#X obj 95 -353 knob 30 30 0 100 0 0 rVol_P1_00 sVol_P1_00 VOL 0 -8
192 6 -260097 -1 -1 0 1;
#X obj 194 -816 notein 2;
#X obj 162 -206 bng 20 100 50 0 rHit_P1_00 sHit_P1_00 HIT 0 -10 0 10
-260097 -257985 -1;
#X obj 182 -206 tgl 20 0 rHld_P1_00 sHld_P1_00 HLD 0 -10 0 10 -260097
-257985 -1 0 127;
#X obj 165 -401 knob 30 30 0 100 0 0 rTmr_P1_00 sTmr_P1_00 TMR 0 -8
192 8 -260097 -1 -1 116 1;
#X obj 167 -304 knob 30 30 0 100 0 0 rBal_P1_00 sBal_P1_00 BAL 0 -8
192 8 -260097 -1 -1 0 1;
#X obj 167 -257 knob 30 30 0 100 0 0 rPls_P1_00 sPls_P1_00 PLS 0 -8
192 6 -260097 -1 -1 0 1;
#X obj 167 -124 knob 30 30 0 100 0 0 rSpd_P1_00 sSpd_P1_00 SPD 0 -8
192 8 -260097 -1 -1 2900 1;
#X obj 169 -75 knob 30 30 0 100 0 0 rFgt_P1_00 sFgt_P1_00 FGT 0 -8
192 8 -260097 -1 -1 1479 1;
#X obj 166 -170 knob 30 30 0 100 0 0 rBgt_P1_00 sBgt_P1_00 BGT 0 -8
192 8 -260097 -1 -1 0 1;
#X floatatom 275 -711 5 0 0 0 - - -, f 5;
#X floatatom 270 -633 5 0 0 0 - - -, f 5;
#X floatatom 269 -558 5 0 0 0 - - -, f 5;
#X obj 275 -685 s shld00;
#X obj 264 -763 s shit00;
#X obj 260 -607 s sfgate00;
#X obj 259 -532 s sbgate00;
#X floatatom 269 -478 5 0 0 0 - - -, f 5;
#X obj 259 -452 s sbgate00;
#X obj 165 -353 knob 30 30 0 100 0 0 rVol_P1_00 sVol_P1_00 VOL 0 -8
192 6 -260097 -1 -1 0 1;
#X obj 264 -816 notein 2;
#X obj 232 -206 bng 20 100 50 0 rHit_P1_00 sHit_P1_00 HIT 0 -10 0 10
-260097 -257985 -1;
#X obj 252 -206 tgl 20 0 rHld_P1_00 sHld_P1_00 HLD 0 -10 0 10 -260097
-257985 -1 0 127;
#X obj 235 -401 knob 30 30 0 100 0 0 rTmr_P1_00 sTmr_P1_00 TMR 0 -8
192 8 -260097 -1 -1 232 1;
#X obj 237 -304 knob 30 30 0 100 0 0 rBal_P1_00 sBal_P1_00 BAL 0 -8
192 8 -260097 -1 -1 0 1;
#X obj 237 -257 knob 30 30 0 100 0 0 rPls_P1_00 sPls_P1_00 PLS 0 -8
192 6 -260097 -1 -1 0 1;
#X obj 237 -124 knob 30 30 0 100 0 0 rSpd_P1_00 sSpd_P1_00 SPD 0 -8
192 8 -260097 -1 -1 2900 1;
#X obj 239 -75 knob 30 30 0 100 0 0 rFgt_P1_00 sFgt_P1_00 FGT 0 -8
192 8 -260097 -1 -1 1537 1;
#X obj 236 -170 knob 30 30 0 100 0 0 rBgt_P1_00 sBgt_P1_00 BGT 0 -8
192 8 -260097 -1 -1 0 1;
#X floatatom 345 -711 5 0 0 0 - - -, f 5;
#X floatatom 340 -633 5 0 0 0 - - -, f 5;
#X floatatom 339 -558 5 0 0 0 - - -, f 5;
#X obj 345 -685 s shld00;
#X obj 334 -763 s shit00;
#X obj 330 -607 s sfgate00;
#X obj 329 -532 s sbgate00;
#X floatatom 339 -478 5 0 0 0 - - -, f 5;
#X obj 329 -452 s sbgate00;
#X obj 235 -353 knob 30 30 0 100 0 0 rVol_P1_00 sVol_P1_00 VOL 0 -8
192 6 -260097 -1 -1 0 1;
#X obj 334 -816 notein 2;
#X obj 302 -206 bng 20 100 50 0 rHit_P1_00 sHit_P1_00 HIT 0 -10 0 10
-260097 -257985 -1;
#X obj 322 -206 tgl 20 0 rHld_P1_00 sHld_P1_00 HLD 0 -10 0 10 -260097
-257985 -1 0 127;
#X obj 305 -401 knob 30 30 0 100 0 0 rTmr_P1_00 sTmr_P1_00 TMR 0 -8
192 8 -260097 -1 -1 87 1;
#X obj 307 -304 knob 30 30 0 100 0 0 rBal_P1_00 sBal_P1_00 BAL 0 -8
192 8 -260097 -1 -1 0 1;
#X obj 307 -257 knob 30 30 0 100 0 0 rPls_P1_00 sPls_P1_00 PLS 0 -8
192 6 -260097 -1 -1 0 1;
#X obj 307 -124 knob 30 30 0 100 0 0 rSpd_P1_00 sSpd_P1_00 SPD 0 -8
192 8 -260097 -1 -1 2900 1;
#X obj 309 -75 knob 30 30 0 100 0 0 rFgt_P1_00 sFgt_P1_00 FGT 0 -8
192 8 -260097 -1 -1 1769 1;
#X obj 306 -170 knob 30 30 0 100 0 0 rBgt_P1_00 sBgt_P1_00 BGT 0 -8
192 8 -260097 -1 -1 0 1;
#X floatatom 415 -711 5 0 0 0 - - -, f 5;
#X floatatom 410 -633 5 0 0 0 - - -, f 5;
#X floatatom 409 -558 5 0 0 0 - - -, f 5;
#X obj 415 -685 s shld00;
#X obj 404 -763 s shit00;
#X obj 400 -607 s sfgate00;
#X obj 399 -532 s sbgate00;
#X floatatom 409 -478 5 0 0 0 - - -, f 5;
#X obj 399 -452 s sbgate00;
#X obj 305 -353 knob 30 30 0 100 0 0 rVol_P1_00 sVol_P1_00 VOL 0 -8
192 6 -260097 -1 -1 0 1;
#X obj 404 -816 notein 2;
#X obj 372 -206 bng 20 100 50 0 rHit_P1_00 sHit_P1_00 HIT 0 -10 0 10
-260097 -257985 -1;
#X obj 392 -206 tgl 20 0 rHld_P1_00 sHld_P1_00 HLD 0 -10 0 10 -260097
-257985 -1 0 127;
#X obj 375 -401 knob 30 30 0 100 0 0 rTmr_P1_00 sTmr_P1_00 TMR 0 -8
192 8 -260097 -1 -1 29 1;
#X obj 377 -304 knob 30 30 0 100 0 0 rBal_P1_00 sBal_P1_00 BAL 0 -8
192 8 -260097 -1 -1 0 1;
#X obj 377 -257 knob 30 30 0 100 0 0 rPls_P1_00 sPls_P1_00 PLS 0 -8
192 6 -260097 -1 -1 0 1;
#X obj 377 -124 knob 30 30 0 100 0 0 rSpd_P1_00 sSpd_P1_00 SPD 0 -8
192 8 -260097 -1 -1 2871 1;
#X obj 379 -75 knob 30 30 0 100 0 0 rFgt_P1_00 sFgt_P1_00 FGT 0 -8
192 8 -260097 -1 -1 870 1;
#X obj 376 -170 knob 30 30 0 100 0 0 rBgt_P1_00 sBgt_P1_00 BGT 0 -8
192 8 -260097 -1 -1 0 1;
#X floatatom 485 -711 5 0 0 0 - - -, f 5;
#X floatatom 480 -633 5 0 0 0 - - -, f 5;
#X floatatom 479 -558 5 0 0 0 - - -, f 5;
#X obj 485 -685 s shld00;
#X obj 474 -763 s shit00;
#X obj 470 -607 s sfgate00;
#X obj 469 -532 s sbgate00;
#X floatatom 479 -478 5 0 0 0 - - -, f 5;
#X obj 469 -452 s sbgate00;
#X obj 375 -353 knob 30 30 0 100 0 0 rVol_P1_00 sVol_P1_00 VOL 0 -8
192 6 -260097 -1 -1 0 1;
#X obj 474 -816 notein 2;
#X text -116 -430 1;
#X text -32 -430 2;
#X text 42 -431 3;
#X text 110 -431 4;
#X text 177 -430 5;
#X text 246 -431 6;
#X text 317 -430 7;
#X text 389 -431 8;
#X text -103 -23 1;
#X text -46 -25 2;
#X text 31 -28 3;
#X text 98 -33 4;
#X text 171 -31 5;
#X text 237 -31 6;
#X text 377 -37 8;
#X obj 56 -968 ctlin 2 2;
#X obj 126 -968 ctlin 3 2;
#X obj 196 -968 ctlin 4 2;
#X obj 266 -968 ctlin 5 2;
#X obj 336 -968 ctlin 6 2;
#X obj 406 -968 ctlin 7 2;
#X obj 56 -941 ctlin 10 2;
#X obj 126 -941 ctlin 11 2;
#X obj 196 -941 ctlin 12 2;
#X obj 266 -941 ctlin 13 2;
#X obj 336 -941 ctlin 14 2;
#X obj 406 -941 ctlin 15 2;
#X obj 55 -909 ctlin 18 2;
#X obj 125 -909 ctlin 19 2;
#X obj 195 -909 ctlin 20 2;
#X obj 265 -909 ctlin 21 2;
#X obj 335 -909 ctlin 22 2;
#X obj 405 -909 ctlin 23 2;
#X obj 475 -909 ctlin 24 2;
#X obj 54 -874 ctlin 26 2;
#X obj 124 -874 ctlin 27 2;
#X obj 194 -874 ctlin 28 2;
#X obj 264 -874 ctlin 29 2;
#X obj 334 -874 ctlin 30 2;
#X obj 404 -874 ctlin 31 2;
#X obj 474 -874 ctlin 32 2;
#X obj 55 -738 ctlin 74 2;
#X obj 125 -738 ctlin 75 2;
#X obj 195 -738 ctlin 76 2;
#X obj 265 -738 ctlin 77 2;
#X obj 335 -738 ctlin 78 2;
#X obj 405 -738 ctlin 79 2;
#X obj 475 -738 ctlin 80 2;
#X obj 50 -660 ctlin 82 2;
#X obj 120 -660 ctlin 83 2;
#X obj 190 -660 ctlin 84 2;
#X obj 260 -660 ctlin 85 2;
#X obj 330 -660 ctlin 86 2;
#X obj 400 -660 ctlin 87 2;
#X obj 470 -660 ctlin 88 2;
#X obj 49 -585 ctlin 90 2;
#X obj 119 -585 ctlin 91 2;
#X obj 189 -585 ctlin 92 2;
#X obj 259 -585 ctlin 93 2;
#X obj 329 -585 ctlin 94 2;
#X obj 399 -585 ctlin 95 2;
#X obj 469 -585 ctlin 96 2;
#X obj 49 -505 ctlin 98 2;
#X obj 119 -505 ctlin 99 2;
#X obj 189 -505 ctlin 100 2;
#X obj 259 -505 ctlin 101 2;
#X obj 329 -505 ctlin 102 2;
#X obj 399 -505 ctlin 103 2;
#X obj 469 -505 ctlin 104 2;
#X obj 476 -941 ctlin 16 2;
#X obj 476 -968 ctlin 127 2;
#X obj -14 -968 ctlin 1 2;
#X obj 468 -77 hradio 20 1 0 2 empty empty empty 0 -8 0 10 -260097
-1 -1 0;
#X obj 468 -42 hradio 20 1 0 2 empty empty empty 0 -8 0 10 -260097
-1 -1 0;
#X text -228 -416 edwardsharp.net;
#X text -228 -403 2012;
#X text -229 -393 creative commons;
#X text -229 -430 BCR2000;
#X obj -16 -816 notein;
#X obj -110 -4 f;
#X obj -88 -4 + 1;
#X obj -110 14 mod 2;
#X obj -16 -792 select 24;
#X obj 54 -793 select 25;
#X obj 126 -791 select 26;
#X obj 196 -789 select 27;
#X obj 264 -790 select 28;
#X obj 334 -791 select 29;
#X obj 404 -791 select 30;
#X obj 474 -792 select 31;
#X obj -47 -4 f;
#X obj -23 -3 + 1;
#X obj -47 14 mod 2;
#X obj 28 -6 f;
#X obj 50 -6 + 1;
#X obj 28 12 mod 2;
#X obj 94 -12 f;
#X obj 116 -12 + 1;
#X obj 94 6 mod 2;
#X obj 170 -7 f;
#X obj 192 -7 + 1;
#X obj 170 11 mod 2;
#X obj 237 -8 f;
#X obj 259 -8 + 1;
#X obj 237 10 mod 2;
#X obj 309 -12 f;
#X obj 331 -12 + 1;
#X obj 309 6 mod 2;
#X obj 378 -16 f;
#X obj 400 -16 + 1;
#X obj 378 2 mod 2;
#X obj -92 -22 bng 15 250 50 0 empty empty empty 17 7 0 10 -262144
-1 -1;
#X obj -32 -24 bng 15 250 50 0 empty empty empty 17 7 0 10 -262144
-1 -1;
#X obj 45 -26 bng 15 250 50 0 empty empty empty 17 7 0 10 -262144 -1
-1;
#X obj 110 -31 bng 15 250 50 0 empty empty empty 17 7 0 10 -262144
-1 -1;
#X obj 184 -29 bng 15 250 50 0 empty empty empty 17 7 0 10 -262144
-1 -1;
#X obj 251 -36 bng 15 250 50 0 empty empty empty 17 7 0 10 -262144
-1 -1;
#X obj 391 -37 bng 15 250 50 0 empty empty empty 17 7 0 10 -262144
-1 -1;
#X text -225 -779 midi ch.;
#X text 310 -34 7;
#X obj 323 -32 bng 15 250 50 0 empty empty empty 17 7 0 10 -262144
-1 -1;
#X obj 971 -248 ctlout 127 2;
#X obj 699 -285 * 10;
#X obj 657 -285 * 10;
#X obj 616 -282 * 10;
#X obj 581 -281 * 10;
#X obj 548 -281 * 10;
#X obj 447 -281 * 10;
#X obj 482 -282 * 10;
#X obj 515 -283 * 10;
#X obj 882 -245 ctlout 7 2;
#X obj 795 -249 ctlout 6 2;
#X obj 725 -250 ctlout 5 2;
#X obj 656 -250 ctlout 4 2;
#X obj 589 -248 ctlout 3 2;
#X obj 517 -248 ctlout 2 2;
#X obj 446 -246 ctlout 1 2;
#X obj 451 1037 * 1.9;
#X obj 420 887 line 0 100;
#X msg 420 863 \$1 100;
#X obj 110 196 tgl 15 0 empty empty A_F -1 -5 0 10 -257985 -1 -1 0
1;
#X obj 518 835 spigot;
#X obj 109 230 vsl 15 64 0 127 0 0 empty empty F_F -1 -7 0 10 -257985
-1 -1 4000 1;
#X msg 518 861 \$1 750;
#X msg 577 861 \$1 750;
#X obj 518 891 line~;
#X obj 518 1000 snapshot~;
#X obj 528 952 tgl 15 0 empty empty empty 17 7 0 10 -262144 -1 -1 1
1;
#X obj 528 925 loadbang;
#X obj 528 973 metro 1;
#X text 111 114 STPR;
#X obj 577 836 mtof;
#X obj 104 315 hsl 25 15 0 1 0 0 empty empty F_Q -2 -8 0 10 -257985
-1 -1 700 1;
#X obj 104 157 hsl 38 15 0.01 1 1 0 empty empty VOL -2 -8 0 10 -257985
-1 -1 0 1;
#X obj 421 1110 *~;
#X text 119 364 pmp;
#X obj 439 1083 - 0.01;
#X connect 0 0 1 0;
#X connect 1 0 2 0;
#X connect 1 0 50 0;
#X connect 2 0 1 1;
#X connect 3 0 4 0;
#X connect 3 0 15 1;
#X connect 4 0 531 0;
#X connect 4 0 533 0;
#X connect 5 0 7 0;
#X connect 7 0 546 0;
#X connect 9 0 11 0;
#X connect 9 0 0 1;
#X connect 12 0 52 0;
#X connect 12 0 235 0;
#X connect 14 0 0 0;
#X connect 15 0 8 0;
#X connect 16 0 46 0;
#X connect 17 0 16 1;
#X connect 18 0 16 1;
#X connect 19 0 16 1;
#X connect 24 0 16 2;
#X connect 25 0 16 3;
#X connect 26 0 16 4;
#X connect 28 0 16 0;
#X connect 29 0 16 0;
#X connect 30 0 16 0;
#X connect 32 0 16 0;
#X connect 33 0 16 0;
#X connect 37 0 47 0;
#X connect 37 0 47 1;
#X connect 46 0 37 0;
#X connect 47 0 45 0;
#X connect 47 1 39 0;
#X connect 47 2 40 0;
#X connect 47 3 38 0;
#X connect 47 4 43 0;
#X connect 47 5 44 0;
#X connect 47 6 41 0;
#X connect 47 7 42 0;
#X connect 48 0 16 0;
#X connect 49 0 14 0;
#X connect 50 0 12 0;
#X connect 50 0 51 0;
#X connect 51 0 15 0;
#X connect 52 0 3 0;
#X connect 53 0 55 0;
#X connect 54 0 53 0;
#X connect 56 0 53 1;
#X connect 57 0 58 0;
#X connect 58 0 54 0;
#X connect 59 0 60 0;
#X connect 60 0 61 0;
#X connect 60 0 68 0;
#X connect 61 0 60 1;
#X connect 62 0 4 0;
#X connect 62 0 15 3;
#X connect 63 0 64 0;
#X connect 63 0 59 1;
#X connect 65 0 70 0;
#X connect 65 0 261 0;
#X connect 66 0 59 0;
#X connect 67 0 66 0;
#X connect 68 0 65 0;
#X connect 68 0 69 0;
#X connect 69 0 15 2;
#X connect 70 0 62 0;
#X connect 71 0 72 0;
#X connect 72 0 73 0;
#X connect 72 0 80 0;
#X connect 73 0 72 1;
#X connect 74 0 4 0;
#X connect 74 0 15 5;
#X connect 75 0 76 0;
#X connect 75 0 71 1;
#X connect 77 0 82 0;
#X connect 77 0 280 0;
#X connect 78 0 71 0;
#X connect 79 0 78 0;
#X connect 80 0 77 0;
#X connect 80 0 81 0;
#X connect 81 0 15 4;
#X connect 82 0 74 0;
#X connect 83 0 84 0;
#X connect 84 0 85 0;
#X connect 84 0 92 0;
#X connect 85 0 84 1;
#X connect 86 0 4 0;
#X connect 86 0 15 7;
#X connect 87 0 88 0;
#X connect 87 0 83 1;
#X connect 89 0 94 0;
#X connect 89 0 299 0;
#X connect 90 0 83 0;
#X connect 91 0 90 0;
#X connect 92 0 89 0;
#X connect 92 0 93 0;
#X connect 93 0 15 6;
#X connect 94 0 86 0;
#X connect 95 0 96 0;
#X connect 96 0 97 0;
#X connect 96 0 104 0;
#X connect 97 0 96 1;
#X connect 98 0 4 0;
#X connect 98 0 15 9;
#X connect 99 0 100 0;
#X connect 99 0 95 1;
#X connect 101 0 106 0;
#X connect 101 0 318 0;
#X connect 102 0 95 0;
#X connect 103 0 102 0;
#X connect 104 0 101 0;
#X connect 104 0 105 0;
#X connect 105 0 15 8;
#X connect 106 0 98 0;
#X connect 107 0 108 0;
#X connect 108 0 109 0;
#X connect 108 0 116 0;
#X connect 109 0 108 1;
#X connect 110 0 4 0;
#X connect 110 0 15 11;
#X connect 111 0 112 0;
#X connect 111 0 107 1;
#X connect 113 0 118 0;
#X connect 113 0 337 0;
#X connect 114 0 107 0;
#X connect 115 0 114 0;
#X connect 116 0 113 0;
#X connect 116 0 117 0;
#X connect 117 0 15 10;
#X connect 118 0 110 0;
#X connect 119 0 120 0;
#X connect 120 0 121 0;
#X connect 120 0 128 0;
#X connect 121 0 120 1;
#X connect 122 0 4 0;
#X connect 122 0 15 13;
#X connect 123 0 124 0;
#X connect 123 0 119 1;
#X connect 125 0 130 0;
#X connect 125 0 356 0;
#X connect 126 0 119 0;
#X connect 127 0 126 0;
#X connect 128 0 125 0;
#X connect 128 0 129 0;
#X connect 129 0 15 12;
#X connect 130 0 122 0;
#X connect 131 0 132 0;
#X connect 132 0 133 0;
#X connect 132 0 140 0;
#X connect 133 0 132 1;
#X connect 134 0 4 0;
#X connect 134 0 15 15;
#X connect 135 0 136 0;
#X connect 135 0 131 1;
#X connect 137 0 142 0;
#X connect 137 0 375 0;
#X connect 138 0 131 0;
#X connect 139 0 138 0;
#X connect 140 0 137 0;
#X connect 140 0 141 0;
#X connect 141 0 15 14;
#X connect 142 0 134 0;
#X connect 143 0 3 1;
#X connect 144 0 62 1;
#X connect 145 0 74 1;
#X connect 146 0 86 1;
#X connect 147 0 98 1;
#X connect 148 0 110 1;
#X connect 148 0 337 0;
#X connect 149 0 122 1;
#X connect 150 0 134 1;
#X connect 151 0 9 0;
#X connect 152 0 63 0;
#X connect 153 0 75 0;
#X connect 154 0 87 0;
#X connect 155 0 99 0;
#X connect 156 0 111 0;
#X connect 157 0 123 0;
#X connect 158 0 135 0;
#X connect 159 0 161 0;
#X connect 160 0 28 0;
#X connect 161 0 26 0;
#X connect 171 0 58 1;
#X connect 212 0 139 0;
#X connect 212 0 115 0;
#X connect 212 0 103 0;
#X connect 212 0 91 0;
#X connect 212 0 79 0;
#X connect 212 0 67 0;
#X connect 212 0 49 0;
#X connect 212 0 127 0;
#X connect 221 9 222 0;
#X connect 222 0 223 0;
#X connect 223 0 48 0;
#X connect 233 0 471 0;
#X connect 233 0 503 0;
#X connect 234 0 503 0;
#X connect 234 0 14 0;
#X connect 235 0 503 0;
#X connect 235 0 519 0;
#X connect 236 0 503 0;
#X connect 237 0 503 0;
#X connect 238 0 503 0;
#X connect 238 0 143 0;
#X connect 239 0 503 0;
#X connect 239 0 151 0;
#X connect 240 0 503 0;
#X connect 249 0 257 0;
#X connect 250 0 236 0;
#X connect 251 0 245 0;
#X connect 251 0 242 0;
#X connect 251 0 234 0;
#X connect 252 0 243 0;
#X connect 252 0 247 0;
#X connect 252 0 240 0;
#X connect 253 0 244 0;
#X connect 253 0 248 0;
#X connect 253 0 238 0;
#X connect 256 0 254 0;
#X connect 256 0 255 0;
#X connect 256 0 239 0;
#X connect 257 0 503 0;
#X connect 258 0 237 0;
#X connect 259 0 482 0;
#X connect 259 0 504 0;
#X connect 260 0 504 0;
#X connect 260 0 66 0;
#X connect 261 0 504 0;
#X connect 261 0 520 0;
#X connect 262 0 504 0;
#X connect 263 0 504 0;
#X connect 264 0 504 0;
#X connect 264 0 144 0;
#X connect 265 0 504 0;
#X connect 265 0 152 0;
#X connect 266 0 504 0;
#X connect 276 0 504 0;
#X connect 277 0 271 0;
#X connect 277 0 475 0;
#X connect 278 0 485 0;
#X connect 279 0 505 0;
#X connect 279 0 78 0;
#X connect 280 0 505 0;
#X connect 280 0 521 0;
#X connect 281 0 505 0;
#X connect 282 0 505 0;
#X connect 283 0 505 0;
#X connect 283 0 145 0;
#X connect 284 0 505 0;
#X connect 284 0 153 0;
#X connect 285 0 505 0;
#X connect 295 0 505 0;
#X connect 296 0 290 0;
#X connect 296 0 476 0;
#X connect 297 0 488 0;
#X connect 298 0 506 0;
#X connect 298 0 90 0;
#X connect 299 0 506 0;
#X connect 299 0 518 0;
#X connect 300 0 506 0;
#X connect 301 0 506 0;
#X connect 302 0 506 0;
#X connect 302 0 146 0;
#X connect 303 0 506 0;
#X connect 303 0 154 0;
#X connect 304 0 506 0;
#X connect 314 0 506 0;
#X connect 315 0 309 0;
#X connect 315 0 477 0;
#X connect 316 0 491 0;
#X connect 317 0 507 0;
#X connect 317 0 102 0;
#X connect 318 0 507 0;
#X connect 318 0 517 0;
#X connect 319 0 507 0;
#X connect 320 0 507 0;
#X connect 321 0 507 0;
#X connect 321 0 147 0;
#X connect 322 0 507 0;
#X connect 322 0 155 0;
#X connect 323 0 507 0;
#X connect 333 0 507 0;
#X connect 334 0 328 0;
#X connect 334 0 478 0;
#X connect 335 0 494 0;
#X connect 335 0 113 0;
#X connect 336 0 508 0;
#X connect 336 0 114 0;
#X connect 337 0 508 0;
#X connect 337 0 516 0;
#X connect 338 0 508 0;
#X connect 339 0 508 0;
#X connect 340 0 508 0;
#X connect 340 0 148 0;
#X connect 341 0 508 0;
#X connect 341 0 156 0;
#X connect 342 0 508 0;
#X connect 352 0 508 0;
#X connect 353 0 347 0;
#X connect 353 0 479 0;
#X connect 354 0 497 0;
#X connect 354 0 512 0;
#X connect 355 0 512 0;
#X connect 355 0 126 0;
#X connect 356 0 512 0;
#X connect 356 0 515 0;
#X connect 357 0 512 0;
#X connect 358 0 512 0;
#X connect 359 0 512 0;
#X connect 359 0 149 0;
#X connect 360 0 512 0;
#X connect 360 0 157 0;
#X connect 361 0 512 0;
#X connect 371 0 512 0;
#X connect 372 0 366 0;
#X connect 372 0 480 0;
#X connect 373 0 500 0;
#X connect 373 0 509 0;
#X connect 374 0 509 0;
#X connect 374 0 138 0;
#X connect 375 0 509 0;
#X connect 375 0 514 0;
#X connect 376 0 509 0;
#X connect 377 0 509 0;
#X connect 378 0 509 0;
#X connect 378 0 150 0;
#X connect 379 0 509 0;
#X connect 379 0 158 0;
#X connect 380 0 509 0;
#X connect 390 0 509 0;
#X connect 391 0 385 0;
#X connect 391 0 481 0;
#X connect 407 0 261 0;
#X connect 408 0 280 0;
#X connect 409 0 299 0;
#X connect 410 0 318 0;
#X connect 411 0 337 0;
#X connect 412 0 356 0;
#X connect 413 0 276 0;
#X connect 414 0 295 0;
#X connect 415 0 314 0;
#X connect 416 0 333 0;
#X connect 417 0 352 0;
#X connect 418 0 371 0;
#X connect 419 0 262 0;
#X connect 420 0 281 0;
#X connect 421 0 300 0;
#X connect 422 0 319 0;
#X connect 423 0 338 0;
#X connect 424 0 357 0;
#X connect 425 0 376 0;
#X connect 426 0 263 0;
#X connect 427 0 282 0;
#X connect 428 0 301 0;
#X connect 429 0 320 0;
#X connect 430 0 339 0;
#X connect 431 0 358 0;
#X connect 432 0 377 0;
#X connect 433 0 270 0;
#X connect 433 0 267 0;
#X connect 433 0 260 0;
#X connect 434 0 289 0;
#X connect 434 0 286 0;
#X connect 434 0 279 0;
#X connect 435 0 308 0;
#X connect 435 0 305 0;
#X connect 435 0 298 0;
#X connect 436 0 327 0;
#X connect 436 0 324 0;
#X connect 436 0 317 0;
#X connect 437 0 346 0;
#X connect 437 0 343 0;
#X connect 437 0 336 0;
#X connect 438 0 365 0;
#X connect 438 0 362 0;
#X connect 438 0 355 0;
#X connect 439 0 384 0;
#X connect 439 0 381 0;
#X connect 439 0 374 0;
#X connect 440 0 268 0;
#X connect 440 0 272 0;
#X connect 440 0 266 0;
#X connect 441 0 287 0;
#X connect 441 0 291 0;
#X connect 441 0 285 0;
#X connect 442 0 306 0;
#X connect 442 0 310 0;
#X connect 442 0 304 0;
#X connect 443 0 325 0;
#X connect 443 0 329 0;
#X connect 443 0 323 0;
#X connect 444 0 344 0;
#X connect 444 0 348 0;
#X connect 444 0 342 0;
#X connect 445 0 363 0;
#X connect 445 0 367 0;
#X connect 445 0 361 0;
#X connect 446 0 382 0;
#X connect 446 0 386 0;
#X connect 446 0 380 0;
#X connect 447 0 269 0;
#X connect 447 0 273 0;
#X connect 447 0 264 0;
#X connect 448 0 288 0;
#X connect 448 0 292 0;
#X connect 448 0 283 0;
#X connect 449 0 307 0;
#X connect 449 0 311 0;
#X connect 449 0 302 0;
#X connect 450 0 326 0;
#X connect 450 0 330 0;
#X connect 450 0 321 0;
#X connect 451 0 345 0;
#X connect 451 0 349 0;
#X connect 451 0 340 0;
#X connect 452 0 364 0;
#X connect 452 0 368 0;
#X connect 452 0 359 0;
#X connect 453 0 383 0;
#X connect 453 0 387 0;
#X connect 453 0 378 0;
#X connect 454 0 274 0;
#X connect 454 0 275 0;
#X connect 454 0 265 0;
#X connect 455 0 293 0;
#X connect 455 0 294 0;
#X connect 455 0 284 0;
#X connect 456 0 312 0;
#X connect 456 0 313 0;
#X connect 456 0 303 0;
#X connect 457 0 331 0;
#X connect 457 0 332 0;
#X connect 457 0 322 0;
#X connect 458 0 350 0;
#X connect 458 0 351 0;
#X connect 458 0 341 0;
#X connect 459 0 369 0;
#X connect 459 0 370 0;
#X connect 459 0 360 0;
#X connect 460 0 388 0;
#X connect 460 0 389 0;
#X connect 460 0 379 0;
#X connect 461 0 390 0;
#X connect 462 0 375 0;
#X connect 463 0 235 0;
#X connect 470 0 474 0;
#X connect 470 0 246 0;
#X connect 471 0 472 0;
#X connect 471 0 473 0;
#X connect 472 0 471 1;
#X connect 473 0 12 0;
#X connect 474 0 233 0;
#X connect 475 0 259 0;
#X connect 476 0 278 0;
#X connect 477 0 297 0;
#X connect 478 0 316 0;
#X connect 479 0 335 0;
#X connect 480 0 354 0;
#X connect 481 0 373 0;
#X connect 482 0 483 0;
#X connect 482 0 484 0;
#X connect 483 0 482 1;
#X connect 484 0 504 0;
#X connect 484 0 65 0;
#X connect 485 0 486 0;
#X connect 485 0 487 0;
#X connect 486 0 485 1;
#X connect 487 0 505 0;
#X connect 487 0 77 0;
#X connect 488 0 489 0;
#X connect 488 0 490 0;
#X connect 489 0 488 1;
#X connect 490 0 506 0;
#X connect 490 0 89 0;
#X connect 491 0 492 0;
#X connect 491 0 493 0;
#X connect 492 0 491 1;
#X connect 493 0 507 0;
#X connect 493 0 101 0;
#X connect 494 0 495 0;
#X connect 494 0 496 0;
#X connect 495 0 494 1;
#X connect 496 0 508 0;
#X connect 496 0 115 0;
#X connect 497 0 498 0;
#X connect 497 0 499 0;
#X connect 498 0 497 1;
#X connect 499 0 127 0;
#X connect 500 0 501 0;
#X connect 500 0 502 0;
#X connect 501 0 500 1;
#X connect 502 0 137 0;
#X connect 514 0 513 0;
#X connect 515 0 522 0;
#X connect 516 0 523 0;
#X connect 517 0 524 0;
#X connect 518 0 525 0;
#X connect 519 0 528 0;
#X connect 520 0 527 0;
#X connect 521 0 526 0;
#X connect 529 0 7 1;
#X connect 530 0 5 0;
#X connect 531 0 530 0;
#X connect 532 0 533 1;
#X connect 533 0 535 0;
#X connect 534 0 543 0;
#X connect 535 0 537 0;
#X connect 536 0 537 0;
#X connect 537 0 538 0;
#X connect 538 0 529 0;
#X connect 539 0 541 0;
#X connect 540 0 539 0;
#X connect 541 0 538 0;
#X connect 543 0 536 0;
#X connect 544 0 7 2;
#X connect 545 0 548 0;
#X connect 546 0 6 0;
#X connect 546 0 6 1;
#X connect 548 0 546 1;
#X coords 0 -1 1 1 166 300 2 100 100;
#X restore 133 91 pd time_stepper;
