#N canvas 310 44 489 532 10;
#X obj 9 0 adc~;
#X obj 9 36 env~;
#X obj 8 60 nbx 5 14 -1e+37 1e+37 0 0 empty empty empty 0 -8 0 10 -262144
-1 -1 66.0432 256;
#X obj 4 145 phasor~;
#X obj 5 115 mtof;
#X obj 59 115 unpack;
#X floatatom 59 143 0 0 0 0 - - -;
#X floatatom 105 147 0 0 0 0 - - -;
#X floatatom 174 301 0 0 0 0 - - -;
#X text 61 172 raw pitch;
#X obj 6 89 nbx 5 14 -1e+37 1e+37 0 0 empty empty empty 0 -8 0 10 -262144
-1 -1 49.9537 256;
#X obj 92 67 fiddle~ 1024 3 20 3;
#X obj 65 260 *~;
#X obj 200 212 square~;
#X text 303 87 individual sinusoidal;
#X obj 6 227 *~;
#X obj 37 195 / 50;
#X obj 205 134 unpack;
#X floatatom 205 184 0 0 0 0 - - -;
#X floatatom 219 161 0 0 0 0 - - -;
#X obj 205 94 route 1 2 3 4;
#X obj 288 134 unpack;
#X floatatom 288 184 0 0 0 0 - - -;
#X floatatom 302 161 0 0 0 0 - - -;
#X obj 372 134 unpack;
#X floatatom 372 184 0 0 0 0 - - -;
#X floatatom 386 161 0 0 0 0 - - -;
#X obj 252 333 nbx 5 14 -1e+37 1e+37 0 0 empty empty empty 0 -8 0 10
-262144 -1 -1 0 256;
#X obj 357 354 nbx 5 14 -1e+37 1e+37 0 0 empty empty empty 0 -8 0 10
-262144 -1 -1 66.7992 256;
#X text 313 99 components (peaks);
#X obj 134 302 mtof;
#X obj 135 332 square~;
#X obj 273 221 * 100;
#X obj 212 333 mtof;
#X obj 213 363 square~;
#X obj 317 354 mtof;
#X obj 318 384 square~;
#X obj 159 482 dac~ 1 2;
#X obj 42 482 dac~;
#X obj 7 260 spigot~;
#X obj 46 229 tgl 15 0 empty empty empty 17 7 0 10 -262144 -1 -1 1
1;
#X obj 66 298 spigot~;
#X obj 107 266 tgl 15 0 empty empty empty 17 7 0 10 -262144 -1 -1 1
1;
#X text 68 226 mute;
#X text 127 260 mute;
#X obj 133 382 spigot~;
#X obj 132 355 tgl 15 0 empty empty empty 17 7 0 10 -262144 -1 -1 0
1;
#X text 154 352 mute;
#X obj 214 420 spigot~;
#X obj 213 393 tgl 15 0 empty empty empty 17 7 0 10 -262144 -1 -1 0
1;
#X text 235 390 mute;
#X obj 322 440 spigot~;
#X obj 321 413 tgl 15 0 empty empty empty 17 7 0 10 -262144 -1 -1 0
1;
#X text 343 410 mute;
#X obj 320 476 dac~ 1;
#X connect 0 0 1 0;
#X connect 0 0 11 0;
#X connect 1 0 2 0;
#X connect 2 0 16 0;
#X connect 3 0 15 0;
#X connect 4 0 3 0;
#X connect 5 0 6 0;
#X connect 5 1 7 0;
#X connect 10 0 4 0;
#X connect 11 0 10 0;
#X connect 11 2 5 0;
#X connect 11 3 8 0;
#X connect 11 3 30 0;
#X connect 11 4 27 0;
#X connect 11 4 33 0;
#X connect 11 5 28 0;
#X connect 11 5 35 0;
#X connect 11 6 20 0;
#X connect 12 0 41 0;
#X connect 13 0 12 0;
#X connect 15 0 39 0;
#X connect 16 0 15 1;
#X connect 17 0 18 0;
#X connect 17 1 19 0;
#X connect 18 0 13 0;
#X connect 20 0 17 0;
#X connect 20 1 21 0;
#X connect 20 2 24 0;
#X connect 21 0 22 0;
#X connect 21 1 23 0;
#X connect 22 0 32 0;
#X connect 24 0 25 0;
#X connect 24 1 26 0;
#X connect 30 0 31 0;
#X connect 31 0 45 0;
#X connect 32 0 12 1;
#X connect 33 0 34 0;
#X connect 34 0 48 0;
#X connect 35 0 36 0;
#X connect 36 0 51 0;
#X connect 39 0 38 0;
#X connect 40 0 39 1;
#X connect 41 0 38 1;
#X connect 42 0 41 1;
#X connect 45 0 37 0;
#X connect 46 0 45 1;
#X connect 48 0 37 1;
#X connect 49 0 48 1;
#X connect 51 0 54 0;
#X connect 52 0 51 1;
