#N canvas 149 40 473 430 10;
#X obj 97 -9 adc~;
#X obj 108 22 env~;
#X obj 107 46 nbx 5 14 -1e+37 1e+37 0 0 empty empty empty 0 -8 0 10
-262144 -1 -1 4.31828 256;
#X obj 4 145 phasor~;
#X obj 58 342 dac~;
#X obj 5 115 mtof;
#X obj 59 115 unpack;
#X floatatom 71 170 0 0 0 0 - - -;
#X floatatom 85 147 0 0 0 0 - - -;
#X floatatom 148 188 0 0 0 0 - - -;
#X text 148 210 amplitude;
#X text 158 225 (dB);
#X text 71 194 raw pitch;
#X obj 6 89 nbx 5 14 -1e+37 1e+37 0 0 empty empty empty 0 -8 0 10 -262144
-1 -1 53.2046 256;
#X obj 92 67 fiddle~ 1024 3 20 3;
#X floatatom 207 201 0 0 0 0 - - -;
#X floatatom 221 178 0 0 0 0 - - -;
#X text 214 225 individual sinusoidal components;
#X obj 106 245 mtof;
#X obj 107 275 square~;
#X obj 92 311 +~;
#X floatatom 316 180 0 0 0 0 - - -;
#X obj 207 151 unpack f f f;
#X obj 203 100 route 1;
#X obj 219 332 *~;
#X obj 231 250 * 500;
#X obj 216 290 square~;
#X connect 0 0 1 0;
#X connect 0 0 14 0;
#X connect 1 0 2 0;
#X connect 3 0 4 0;
#X connect 5 0 3 0;
#X connect 6 0 7 0;
#X connect 6 1 8 0;
#X connect 6 1 18 0;
#X connect 13 0 5 0;
#X connect 14 0 13 0;
#X connect 14 2 6 0;
#X connect 14 3 9 0;
#X connect 14 6 23 0;
#X connect 15 0 26 0;
#X connect 16 0 25 0;
#X connect 18 0 19 0;
#X connect 20 0 4 1;
#X connect 22 0 15 0;
#X connect 22 1 16 0;
#X connect 22 2 21 0;
#X connect 23 0 22 0;
#X connect 24 0 4 1;
#X connect 25 0 24 1;
#X connect 26 0 24 0;
