#N canvas -285 2 285 479 10;
#X obj 9 -293 cnv 15 250 450 empty empty empty 20 12 0 14 -260097 -66577
0;
#X obj 154 90 cnv 15 100 60 empty empty empty 20 12 0 14 -195568 -66577
0;
#N canvas 0 22 450 300 gemwin 0;
#X obj 132 136 gemwin;
#X obj 67 89 outlet;
#X obj 67 10 inlet;
#X msg 67 70 set destroy;
#X msg 132 112 create \, 1;
#X msg 198 112 destroy;
#X msg 156 71 set create;
#X obj 67 41 route create;
#X connect 2 0 7 0;
#X connect 3 0 1 0;
#X connect 4 0 0 0;
#X connect 5 0 0 0;
#X connect 6 0 1 0;
#X connect 7 0 3 0;
#X connect 7 0 4 0;
#X connect 7 1 6 0;
#X connect 7 1 5 0;
#X restore 159 129 pd gemwin;
#X msg 159 110 destroy;
#X text 155 89 Create window:;
#X obj 11 -262 cnv 15 155 200 empty empty empty 20 12 0 14 -257985
-66577 0;
#X obj 11 -287 gemhead;
#X obj 22 -257 bng 25 250 50 0 empty empty empty 0 -6 0 8 -262144 -1
-1;
#X text 65 -293 open a supported;
#X text 66 -282 movie-clip;
#X obj 40 27 unpack 0 0 0;
#X floatatom 26 50 5 0 0 3 length - -;
#X floatatom 75 50 5 0 0 3 width - -;
#X floatatom 125 50 5 0 0 3 height - -;
#X obj 80 8 bng 15 250 50 0 empty empty end_reached 20 7 0 10 -262144
-1 -1;
#X obj 22 -228 openpanel;
#X msg 22 -208 open \$1;
#X obj 11 132 rectangle 4 3;
#X msg 50 -151 auto \$1;
#X obj 50 -169 tgl 15 0 empty empty empty 0 -6 0 8 -262144 -1 -1 1
1;
#X msg 61 -127 colorspace Grey;
#X obj 11 -9 pix_movie;
#X obj 73 -103 tgl 15 0 empty empty empty 0 -6 0 8 -262144 -1 -1 1
1;
#X obj 65 -50 hsl 128 15 0 127 0 0 empty empty empty -2 -8 0 10 -262144
-1 -1 2200 1;
#X floatatom 62 -30 5 0 0 1 frame_number - -;
#N canvas 830 50 450 300 demo 0;
#X obj 23 26 inlet;
#X text 126 127 win32:;
#X text 116 190 linux \, os-X:;
#X obj 79 257 outlet;
#X obj 20 50 bng 17 250 50 0 empty empty empty 17 7 0 10 -262144 -1
-1;
#X obj 38 51 cnv 15 81 15 empty empty demo_movie 4 8 0 10 -262144 -1
0;
#X msg 29 102 open examples/data/alea.mpg;
#X msg 151 147 open examples/data/homer.avi;
#X msg 144 210 open examples/data/anim-1.mov;
#X connect 0 0 4 0;
#X connect 4 0 6 0;
#X connect 6 0 3 0;
#X connect 7 0 3 0;
#X connect 8 0 3 0;
#X coords 0 -1 1 1 100 17 1 20 50;
#X restore 34 -188 pd demo movie;
#X msg 73 -84 rectangle \$1;
#X connect 2 0 3 0;
#X connect 3 0 2 0;
#X connect 6 0 21 0;
#X connect 7 0 15 0;
#X connect 10 0 11 0;
#X connect 10 1 12 0;
#X connect 10 2 13 0;
#X connect 15 0 16 0;
#X connect 16 0 21 0;
#X connect 18 0 21 0;
#X connect 19 0 18 0;
#X connect 20 0 21 0;
#X connect 21 0 17 0;
#X connect 21 1 10 0;
#X connect 21 2 14 0;
#X connect 22 0 26 0;
#X connect 23 0 24 0;
#X connect 24 0 21 1;
#X connect 25 0 21 0;
#X connect 26 0 21 0;
